<svg width="324" height="332" viewBox="0 0 324 332" fill="none" xmlns="http://www.w3.org/2000/svg">
<path d="M162.187 331.537L161.948 0M0 169.825L323.182 170.059M219.422 66.9164C275.686 99.4005 294.904 171.449 262.346 227.841C229.788 284.233 157.783 303.614 101.519 271.13C45.2551 238.646 26.0374 166.597 58.5953 110.205C91.1533 53.8134 163.158 34.4323 219.422 66.9164ZM189.947 117.968C218.079 134.21 227.688 170.235 211.409 198.431C195.13 226.627 159.128 236.317 130.996 220.075C102.864 203.833 93.2551 167.809 109.534 139.613C125.813 111.417 161.815 101.726 189.947 117.968ZM178.956 137.006C196.598 147.192 202.624 169.784 192.415 187.466C182.206 205.148 159.628 211.225 141.986 201.04C124.344 190.854 118.318 168.262 128.527 150.58C138.736 132.898 161.314 126.821 178.956 137.006Z" stroke="#1995FC"/>
</svg>
