<svg width="189" height="263" viewBox="0 0 189 263" fill="none" xmlns="http://www.w3.org/2000/svg">
<path d="M80.7503 197.705L33.906 245.457C23.6035 255.959 18.4523 261.21 14.0218 261.588C10.1783 261.917 6.41126 260.378 3.89759 257.452C1 254.079 1 246.723 1 232.011V30.9889C1 16.2773 1 8.92143 3.89759 5.54849C6.41126 2.62245 10.1783 1.0832 14.0218 1.41167C18.4523 1.7903 23.6035 7.04131 33.906 17.5433L172.975 159.305C183.039 169.564 188.071 174.694 188.387 179.09C188.661 182.905 187.101 186.622 184.185 189.098C180.825 191.951 173.64 191.951 159.269 191.951H94.4563C91.4825 191.951 89.9957 191.951 88.5986 192.29C87.36 192.592 86.1773 193.088 85.0949 193.761C83.8741 194.521 82.8328 195.582 80.7503 197.705Z" stroke="#1995FC"/>
</svg>
