<svg width="254" height="100" viewBox="0 0 254 100" fill="none" xmlns="http://www.w3.org/2000/svg">
<g clip-path="url(#clip0_1301_25552)">
<rect width="254" height="100" fill="#7C7F7D"/>
<path d="M167.081 43.3162C167.713 47.4561 167.696 51.6336 167.074 55.7055L175.972 60.8475L161.055 86.7042L152.161 81.5657C150.565 82.8407 148.854 84.0133 147.03 85.066C145.207 86.1187 143.335 87.0137 141.433 87.7587L141.436 98.0344L111.584 98.0253L111.582 87.7426C107.745 86.2458 104.12 84.1711 100.85 81.5543L91.965 86.6843L77.0314 60.8185L85.9151 55.6895C85.2825 51.5475 85.2979 47.368 85.9208 43.2941L77.0206 38.1531L91.9384 12.2964L100.832 17.4343C102.428 16.1595 104.14 14.988 105.963 13.9355C107.786 12.883 109.657 11.9864 111.559 11.2415L111.555 0.974167L141.406 0.983319L141.409 11.2555C145.25 12.753 148.878 14.8302 152.149 17.4494L161.036 12.3185L175.969 38.1843L167.081 43.3162Z" fill="#7C7F7D" stroke="#26282B"/>
<ellipse cx="127" cy="49.5" rx="33" ry="5.5" fill="#7C7F7D" stroke="#26282B"/>
<ellipse cx="127" cy="49.5" rx="33" ry="5.5" fill="#7C7F7D" stroke="#26282B"/>
<ellipse cx="127" cy="49.5" rx="33" ry="5.5" fill="#7C7F7D" stroke="#26282B"/>
</g>
<defs>
<clipPath id="clip0_1301_25552">
<rect width="254" height="100" fill="white"/>
</clipPath>
</defs>
</svg>
