<svg width="254" height="100" viewBox="0 0 254 100" fill="none" xmlns="http://www.w3.org/2000/svg">
<rect width="254" height="100" fill="#7C7F7D"/>
<path d="M141.435 11.2639C145.336 12.7867 148.946 14.8895 152.161 17.4645L161.063 12.3292L175.997 38.1767L167.101 43.3091C167.407 45.3291 167.566 47.3976 167.566 49.5029C167.566 51.6084 167.406 53.6766 167.1 55.6968L176 60.8321L161.066 86.6796L152.16 81.5403C148.945 84.1151 145.336 86.2173 141.435 87.74V98H111.568V87.742C107.664 86.2188 104.053 84.1158 100.836 81.5394L91.9336 86.6767L77 60.8292L85.8965 55.6958C85.5906 53.676 85.4318 51.608 85.4318 49.5029C85.4318 47.398 85.5906 45.3297 85.8965 43.3101L77.0029 38.1796L91.9365 12.3321L100.834 17.4655C104.051 14.8886 107.664 12.7852 111.568 11.2619V1H141.435V11.2639Z" fill="#7C7F7D" stroke="#26282B"/>
<ellipse cx="127" cy="58.5" rx="33" ry="5.5" fill="#7C7F7D" stroke="#26282B"/>
<ellipse cx="127" cy="50.5" rx="33" ry="5.5" fill="#7C7F7D" stroke="#26282B"/>
<ellipse cx="127" cy="41.5" rx="33" ry="5.5" fill="#7C7F7D" stroke="#26282B"/>
</svg>
