<svg width="253" height="195" viewBox="0 0 253 195" fill="none" xmlns="http://www.w3.org/2000/svg">
<path d="M93 55.7843C93 47.0669 100.067 40 108.784 40H144.863C153.58 40 160.647 47.0669 160.647 55.7843V139.216C160.647 147.933 153.58 155 144.863 155H108.784C100.067 155 93 147.933 93 139.216V55.7843Z" stroke="#1995FC"/>
<path d="M111.039 53.5293H142.608" stroke="#1995FC"/>
<mask id="mask0_1281_48945" style="mask-type:alpha" maskUnits="userSpaceOnUse" x="92" y="39" width="70" height="117">
<path d="M93 55.7843C93 47.0669 100.067 40 108.784 40H144.863C153.58 40 160.647 47.0669 160.647 55.7843V139.216C160.647 147.933 153.58 155 144.863 155H108.784C100.067 155 93 147.933 93 139.216V55.7843Z" stroke="#1995FC"/>
<path d="M111.039 53.5293H142.608" stroke="#1995FC"/>
</mask>
<g mask="url(#mask0_1281_48945)">
</g>
</svg>
