<svg width="254" height="196" viewBox="0 0 254 196" fill="none" xmlns="http://www.w3.org/2000/svg">
<path d="M148.977 48.875L148.983 48.375L148.98 48.375L148.977 48.875ZM199.028 99.5781L199.528 99.5811V99.5781L199.028 99.5781ZM199.024 100.233L199.524 100.24L199.524 100.236L199.024 100.233ZM171.854 144.503V145.003H171.978L172.087 144.946L171.854 144.503ZM62.832 144.503L62.5407 144.909L62.6713 145.003H62.832V144.503ZM49.9316 120.183L49.4316 120.189L49.4318 120.195L49.9316 120.183ZM49.9219 119.386L49.4218 119.386L49.4219 119.392L49.9219 119.386ZM80.8096 88.4971L80.8143 87.9971H80.8096L80.8096 88.4971ZM81.4307 88.5029L81.4405 88.003L81.4354 88.003L81.4307 88.5029ZM97.9551 93.6895L97.6772 94.1051L98.3577 94.5601L98.4518 93.7469L97.9551 93.6895ZM148.321 48.8711L148.324 48.3711H148.321V48.8711ZM148.977 48.875L148.97 49.375C176.4 49.7224 198.528 72.0663 198.528 99.5781L199.028 99.5781L199.528 99.5781C199.528 71.5183 176.959 48.7294 148.983 48.375L148.977 48.875ZM199.028 99.5781L198.528 99.5751L198.524 100.23L199.024 100.233L199.524 100.236L199.528 99.5811L199.028 99.5781ZM199.024 100.233L198.524 100.227C198.283 119.27 187.439 135.758 171.622 144.06L171.854 144.503L172.087 144.946C188.216 136.479 199.278 119.664 199.524 100.24L199.024 100.233ZM171.854 144.503V144.003H62.832V144.503V145.003H171.854V144.503ZM62.832 144.503L63.1234 144.097C55.63 138.724 50.6813 130.031 50.4315 120.17L49.9316 120.183L49.4318 120.195C49.6899 130.383 54.8033 139.362 62.5407 144.909L62.832 144.503ZM49.9316 120.183L50.4316 120.176L50.4218 119.38L49.9219 119.386L49.4219 119.392L49.4317 120.189L49.9316 120.183ZM49.9219 119.386L50.4219 119.386C50.4221 102.603 64.0269 88.9973 80.8096 88.9971L80.8096 88.4971L80.8096 87.9971C63.4745 87.9973 49.4221 102.051 49.4219 119.386L49.9219 119.386ZM80.8096 88.4971L80.8049 88.997L81.4259 89.0029L81.4307 88.5029L81.4354 88.003L80.8143 87.9971L80.8096 88.4971ZM81.4307 88.5029L81.4208 89.0028C87.4287 89.1214 93.0092 90.9845 97.6772 94.1051L97.9551 93.6895L98.233 93.2738C93.411 90.0503 87.6454 88.1254 81.4405 88.003L81.4307 88.5029ZM97.9551 93.6895L98.4518 93.7469C101.341 68.7657 122.565 49.3712 148.321 49.3711V48.8711V48.3711C122.052 48.3712 100.406 68.1523 97.4584 93.632L97.9551 93.6895ZM148.321 48.8711L148.318 49.3711L148.974 49.375L148.977 48.875L148.98 48.375L148.324 48.3711L148.321 48.8711Z" fill="#1995FC"/>
<mask id="mask0_1281_48953" style="mask-type:alpha" maskUnits="userSpaceOnUse" x="49" y="48" width="151" height="98">
<path d="M148.977 48.876L148.983 48.376L148.98 48.376L148.977 48.876ZM199.028 99.5791L199.528 99.5821V99.5791L199.028 99.5791ZM199.024 100.234L199.524 100.241L199.524 100.237L199.024 100.234ZM171.854 144.504V145.004H171.978L172.087 144.947L171.854 144.504ZM62.832 144.504L62.5407 144.91L62.6713 145.004H62.832V144.504ZM49.9316 120.184L49.4316 120.19L49.4318 120.196L49.9316 120.184ZM49.9219 119.387L49.4218 119.387L49.4219 119.393L49.9219 119.387ZM80.8096 88.498L80.8143 87.998H80.8096L80.8096 88.498ZM81.4307 88.5039L81.4405 88.004L81.4354 88.0039L81.4307 88.5039ZM97.9551 93.6904L97.6772 94.1061L98.3577 94.561L98.4518 93.7479L97.9551 93.6904ZM148.321 48.8721L148.324 48.3721H148.321V48.8721ZM148.977 48.876L148.97 49.3759C176.4 49.7234 198.528 72.0673 198.528 99.5791L199.028 99.5791L199.528 99.5791C199.528 71.5193 176.959 48.7304 148.983 48.376L148.977 48.876ZM199.028 99.5791L198.528 99.5761L198.524 100.231L199.024 100.234L199.524 100.237L199.528 99.5821L199.028 99.5791ZM199.024 100.234L198.524 100.228C198.283 119.271 187.439 135.759 171.622 144.061L171.854 144.504L172.087 144.947C188.216 136.48 199.278 119.665 199.524 100.241L199.024 100.234ZM171.854 144.504V144.004H62.832V144.504V145.004H171.854V144.504ZM62.832 144.504L63.1234 144.098C55.63 138.725 50.6813 130.032 50.4315 120.171L49.9316 120.184L49.4318 120.196C49.6899 130.384 54.8033 139.363 62.5407 144.91L62.832 144.504ZM49.9316 120.184L50.4316 120.177L50.4218 119.381L49.9219 119.387L49.4219 119.393L49.4317 120.19L49.9316 120.184ZM49.9219 119.387L50.4219 119.387C50.4221 102.604 64.0269 88.9983 80.8096 88.998L80.8096 88.498L80.8096 87.998C63.4745 87.9983 49.4221 102.052 49.4219 119.387L49.9219 119.387ZM80.8096 88.498L80.8049 88.998L81.4259 89.0039L81.4307 88.5039L81.4354 88.0039L80.8143 87.9981L80.8096 88.498ZM81.4307 88.5039L81.4208 89.0038C87.4287 89.1223 93.0092 90.9855 97.6772 94.1061L97.9551 93.6904L98.233 93.2748C93.411 90.0513 87.6454 88.1264 81.4405 88.004L81.4307 88.5039ZM97.9551 93.6904L98.4518 93.7479C101.341 68.7667 122.565 49.3722 148.321 49.3721V48.8721V48.3721C122.052 48.3722 100.406 68.1533 97.4584 93.633L97.9551 93.6904ZM148.321 48.8721L148.318 49.3721L148.974 49.376L148.977 48.876L148.98 48.376L148.324 48.3721L148.321 48.8721Z" fill="#1995FC"/>
</mask>
<g mask="url(#mask0_1281_48953)">
</g>
</svg>
