<svg width="18" height="35" viewBox="0 0 18 35" fill="none" xmlns="http://www.w3.org/2000/svg">
<ellipse cx="1.32499" cy="1.28571" rx="1.32499" ry="1.28571" transform="matrix(-4.24156e-08 1 1 4.50467e-08 15.4277 15.9004)" fill="#1995FC"/>
<ellipse cx="1.32499" cy="1.28571" rx="1.32499" ry="1.28571" transform="matrix(-4.24156e-08 1 1 4.50467e-08 0 31.8003)" fill="#1995FC"/>
<ellipse cx="1.32499" cy="1.28571" rx="1.32499" ry="1.28571" transform="matrix(-4.37114e-08 1 1 4.37114e-08 0 0.000488281)" fill="#1995FC"/>
<ellipse cx="1.32499" cy="1.28571" rx="1.32499" ry="1.28571" transform="matrix(-4.24157e-08 1 1 4.50467e-08 7.71484 7.95044)" fill="#1995FC"/>
<ellipse cx="1.32499" cy="1.28571" rx="1.32499" ry="1.28571" transform="matrix(-4.24157e-08 1 1 4.50467e-08 7.71484 23.8503)" fill="#1995FC"/>
</svg>
