<svg width="16" height="24" viewBox="0 0 16 24" fill="none" xmlns="http://www.w3.org/2000/svg">
<circle cx="1" cy="1" r="1" transform="matrix(1 0 0 -1 7 2.5)" fill="#1995FC"/>
<circle cx="1" cy="1" r="1" transform="matrix(1 0 0 -1 11 6.5)" fill="#1995FC"/>
<circle cx="1" cy="1" r="1" transform="matrix(1 0 0 -1 7 6.5)" fill="#1995FC"/>
<circle cx="1" cy="1" r="1" transform="matrix(1 0 0 -1 3 6.5)" fill="#1995FC"/>
<circle cx="1" cy="1" r="1" transform="matrix(1 0 0 -1 0 9.5)" fill="#1995FC"/>
<circle cx="1" cy="1" r="1" transform="matrix(1 0 0 -1 14 9.5)" fill="#1995FC"/>
<circle cx="1" cy="1" r="1" transform="matrix(1 0 0 -1 7 10.5)" fill="#1995FC"/>
<circle cx="1" cy="1" r="1" transform="matrix(1 0 0 -1 7 14.5)" fill="#1995FC"/>
<circle cx="1" cy="1" r="1" transform="matrix(1 0 0 -1 7 18.5)" fill="#1995FC"/>
<circle cx="1" cy="1" r="1" transform="matrix(1 0 0 -1 7 23)" fill="#1995FC"/>
</svg>
