<svg width="16" height="19" viewBox="0 0 16 19" fill="none" xmlns="http://www.w3.org/2000/svg">
<circle cx="1" cy="1" r="1" transform="matrix(-1 -8.74228e-08 -8.74228e-08 1 9 16.5)" fill="#1995FC"/>
<circle cx="1" cy="1" r="1" transform="matrix(-1 -8.74228e-08 -8.74228e-08 1 5 12.5)" fill="#1995FC"/>
<circle cx="1" cy="1" r="1" transform="matrix(-1 -8.74228e-08 -8.74228e-08 1 9 12.5)" fill="#1995FC"/>
<circle cx="1" cy="1" r="1" transform="matrix(-1 -8.74228e-08 -8.74228e-08 1 13 12.5)" fill="#1995FC"/>
<circle cx="1" cy="1" r="1" transform="matrix(-1 -8.74228e-08 -8.74228e-08 1 16 9.5)" fill="#1995FC"/>
<circle cx="1" cy="1" r="1" transform="matrix(-1 -8.74228e-08 -8.74228e-08 1 2 9.5)" fill="#1995FC"/>
<circle cx="1" cy="1" r="1" transform="matrix(-1 -8.74228e-08 -8.74228e-08 1 9 8.5)" fill="#1995FC"/>
<circle cx="1" cy="1" r="1" transform="matrix(-1 -8.74228e-08 -8.74228e-08 1 9 4.5)" fill="#1995FC"/>
<circle cx="1" cy="1" r="1" transform="matrix(-1 -8.74228e-08 -8.74228e-08 1 9 0.5)" fill="#1995FC"/>
</svg>
