<svg width="1347" height="759" viewBox="0 0 1347 759" fill="none" xmlns="http://www.w3.org/2000/svg">
<mask id="mask0_913_36218" style="mask-type:alpha" maskUnits="userSpaceOnUse" x="20" y="39" width="1307" height="605">
<rect x="20" y="39" width="1307" height="605" rx="302.5" fill="#1995FC"/>
</mask>
<g mask="url(#mask0_913_36218)">
<path d="M3 1.5C3 2.32843 2.32843 3 1.5 3C0.671573 3 0 2.32843 0 1.5C0 0.671573 0.671573 0 1.5 0C2.32843 0 3 0.671573 3 1.5Z" fill="#1995FC"/>
<path d="M87 1.5C87 2.32843 86.3284 3 85.5 3C84.6716 3 84 2.32843 84 1.5C84 0.671573 84.6716 0 85.5 0C86.3284 0 87 0.671573 87 1.5Z" fill="#1995FC"/>
<path d="M171 1.5C171 2.32843 170.328 3 169.5 3C168.672 3 168 2.32843 168 1.5C168 0.671573 168.672 0 169.5 0C170.328 0 171 0.671573 171 1.5Z" fill="#1995FC"/>
<path d="M255 1.5C255 2.32843 254.328 3 253.5 3C252.672 3 252 2.32843 252 1.5C252 0.671573 252.672 0 253.5 0C254.328 0 255 0.671573 255 1.5Z" fill="#1995FC"/>
<path d="M339 1.5C339 2.32843 338.328 3 337.5 3C336.672 3 336 2.32843 336 1.5C336 0.671573 336.672 0 337.5 0C338.328 0 339 0.671573 339 1.5Z" fill="#1995FC"/>
<path d="M423 1.5C423 2.32843 422.328 3 421.5 3C420.672 3 420 2.32843 420 1.5C420 0.671573 420.672 0 421.5 0C422.328 0 423 0.671573 423 1.5Z" fill="#1995FC"/>
<path d="M507 1.5C507 2.32843 506.328 3 505.5 3C504.672 3 504 2.32843 504 1.5C504 0.671573 504.672 0 505.5 0C506.328 0 507 0.671573 507 1.5Z" fill="#1995FC"/>
<path d="M591 1.5C591 2.32843 590.328 3 589.5 3C588.672 3 588 2.32843 588 1.5C588 0.671573 588.672 0 589.5 0C590.328 0 591 0.671573 591 1.5Z" fill="#1995FC"/>
<path d="M675 1.5C675 2.32843 674.328 3 673.5 3C672.672 3 672 2.32843 672 1.5C672 0.671573 672.672 0 673.5 0C674.328 0 675 0.671573 675 1.5Z" fill="#1995FC"/>
<path d="M759 1.5C759 2.32843 758.328 3 757.5 3C756.672 3 756 2.32843 756 1.5C756 0.671573 756.672 0 757.5 0C758.328 0 759 0.671573 759 1.5Z" fill="#1995FC"/>
<path d="M843 1.5C843 2.32843 842.328 3 841.5 3C840.672 3 840 2.32843 840 1.5C840 0.671573 840.672 0 841.5 0C842.328 0 843 0.671573 843 1.5Z" fill="#1995FC"/>
<path d="M927 1.5C927 2.32843 926.328 3 925.5 3C924.672 3 924 2.32843 924 1.5C924 0.671573 924.672 0 925.5 0C926.328 0 927 0.671573 927 1.5Z" fill="#1995FC"/>
<path d="M1011 1.5C1011 2.32843 1010.33 3 1009.5 3C1008.67 3 1008 2.32843 1008 1.5C1008 0.671573 1008.67 0 1009.5 0C1010.33 0 1011 0.671573 1011 1.5Z" fill="#1995FC"/>
<path d="M1095 1.5C1095 2.32843 1094.33 3 1093.5 3C1092.67 3 1092 2.32843 1092 1.5C1092 0.671573 1092.67 0 1093.5 0C1094.33 0 1095 0.671573 1095 1.5Z" fill="#1995FC"/>
<path d="M1179 1.5C1179 2.32843 1178.33 3 1177.5 3C1176.67 3 1176 2.32843 1176 1.5C1176 0.671573 1176.67 0 1177.5 0C1178.33 0 1179 0.671573 1179 1.5Z" fill="#1995FC"/>
<path d="M1263 1.5C1263 2.32843 1262.33 3 1261.5 3C1260.67 3 1260 2.32843 1260 1.5C1260 0.671573 1260.67 0 1261.5 0C1262.33 0 1263 0.671573 1263 1.5Z" fill="#1995FC"/>
<path d="M1347 1.5C1347 2.32843 1346.33 3 1345.5 3C1344.67 3 1344 2.32843 1344 1.5C1344 0.671573 1344.67 0 1345.5 0C1346.33 0 1347 0.671573 1347 1.5Z" fill="#1995FC"/>
<path d="M3 85.5C3 86.3284 2.32843 87 1.5 87C0.671573 87 0 86.3284 0 85.5C0 84.6716 0.671573 84 1.5 84C2.32843 84 3 84.6716 3 85.5Z" fill="#1995FC"/>
<path d="M87 85.5C87 86.3284 86.3284 87 85.5 87C84.6716 87 84 86.3284 84 85.5C84 84.6716 84.6716 84 85.5 84C86.3284 84 87 84.6716 87 85.5Z" fill="#1995FC"/>
<path d="M171 85.5C171 86.3284 170.328 87 169.5 87C168.672 87 168 86.3284 168 85.5C168 84.6716 168.672 84 169.5 84C170.328 84 171 84.6716 171 85.5Z" fill="#1995FC"/>
<path d="M255 85.5C255 86.3284 254.328 87 253.5 87C252.672 87 252 86.3284 252 85.5C252 84.6716 252.672 84 253.5 84C254.328 84 255 84.6716 255 85.5Z" fill="#1995FC"/>
<path d="M339 85.5C339 86.3284 338.328 87 337.5 87C336.672 87 336 86.3284 336 85.5C336 84.6716 336.672 84 337.5 84C338.328 84 339 84.6716 339 85.5Z" fill="#1995FC"/>
<path d="M423 85.5C423 86.3284 422.328 87 421.5 87C420.672 87 420 86.3284 420 85.5C420 84.6716 420.672 84 421.5 84C422.328 84 423 84.6716 423 85.5Z" fill="#1995FC"/>
<path d="M507 85.5C507 86.3284 506.328 87 505.5 87C504.672 87 504 86.3284 504 85.5C504 84.6716 504.672 84 505.5 84C506.328 84 507 84.6716 507 85.5Z" fill="#1995FC"/>
<path d="M591 85.5C591 86.3284 590.328 87 589.5 87C588.672 87 588 86.3284 588 85.5C588 84.6716 588.672 84 589.5 84C590.328 84 591 84.6716 591 85.5Z" fill="#1995FC"/>
<path d="M675 85.5C675 86.3284 674.328 87 673.5 87C672.672 87 672 86.3284 672 85.5C672 84.6716 672.672 84 673.5 84C674.328 84 675 84.6716 675 85.5Z" fill="#1995FC"/>
<path d="M759 85.5C759 86.3284 758.328 87 757.5 87C756.672 87 756 86.3284 756 85.5C756 84.6716 756.672 84 757.5 84C758.328 84 759 84.6716 759 85.5Z" fill="#1995FC"/>
<path d="M843 85.5C843 86.3284 842.328 87 841.5 87C840.672 87 840 86.3284 840 85.5C840 84.6716 840.672 84 841.5 84C842.328 84 843 84.6716 843 85.5Z" fill="#1995FC"/>
<path d="M927 85.5C927 86.3284 926.328 87 925.5 87C924.672 87 924 86.3284 924 85.5C924 84.6716 924.672 84 925.5 84C926.328 84 927 84.6716 927 85.5Z" fill="#1995FC"/>
<path d="M1011 85.5C1011 86.3284 1010.33 87 1009.5 87C1008.67 87 1008 86.3284 1008 85.5C1008 84.6716 1008.67 84 1009.5 84C1010.33 84 1011 84.6716 1011 85.5Z" fill="#1995FC"/>
<path d="M1095 85.5C1095 86.3284 1094.33 87 1093.5 87C1092.67 87 1092 86.3284 1092 85.5C1092 84.6716 1092.67 84 1093.5 84C1094.33 84 1095 84.6716 1095 85.5Z" fill="#1995FC"/>
<path d="M1179 85.5C1179 86.3284 1178.33 87 1177.5 87C1176.67 87 1176 86.3284 1176 85.5C1176 84.6716 1176.67 84 1177.5 84C1178.33 84 1179 84.6716 1179 85.5Z" fill="#1995FC"/>
<path d="M1263 85.5C1263 86.3284 1262.33 87 1261.5 87C1260.67 87 1260 86.3284 1260 85.5C1260 84.6716 1260.67 84 1261.5 84C1262.33 84 1263 84.6716 1263 85.5Z" fill="#1995FC"/>
<path d="M1347 85.5C1347 86.3284 1346.33 87 1345.5 87C1344.67 87 1344 86.3284 1344 85.5C1344 84.6716 1344.67 84 1345.5 84C1346.33 84 1347 84.6716 1347 85.5Z" fill="#1995FC"/>
<path d="M3 169.5C3 170.328 2.32843 171 1.5 171C0.671573 171 0 170.328 0 169.5C0 168.672 0.671573 168 1.5 168C2.32843 168 3 168.672 3 169.5Z" fill="#1995FC"/>
<path d="M87 169.5C87 170.328 86.3284 171 85.5 171C84.6716 171 84 170.328 84 169.5C84 168.672 84.6716 168 85.5 168C86.3284 168 87 168.672 87 169.5Z" fill="#1995FC"/>
<path d="M171 169.5C171 170.328 170.328 171 169.5 171C168.672 171 168 170.328 168 169.5C168 168.672 168.672 168 169.5 168C170.328 168 171 168.672 171 169.5Z" fill="#1995FC"/>
<path d="M255 169.5C255 170.328 254.328 171 253.5 171C252.672 171 252 170.328 252 169.5C252 168.672 252.672 168 253.5 168C254.328 168 255 168.672 255 169.5Z" fill="#1995FC"/>
<path d="M339 169.5C339 170.328 338.328 171 337.5 171C336.672 171 336 170.328 336 169.5C336 168.672 336.672 168 337.5 168C338.328 168 339 168.672 339 169.5Z" fill="#1995FC"/>
<path d="M423 169.5C423 170.328 422.328 171 421.5 171C420.672 171 420 170.328 420 169.5C420 168.672 420.672 168 421.5 168C422.328 168 423 168.672 423 169.5Z" fill="#1995FC"/>
<path d="M507 169.5C507 170.328 506.328 171 505.5 171C504.672 171 504 170.328 504 169.5C504 168.672 504.672 168 505.5 168C506.328 168 507 168.672 507 169.5Z" fill="#1995FC"/>
<path d="M591 169.5C591 170.328 590.328 171 589.5 171C588.672 171 588 170.328 588 169.5C588 168.672 588.672 168 589.5 168C590.328 168 591 168.672 591 169.5Z" fill="#1995FC"/>
<path d="M675 169.5C675 170.328 674.328 171 673.5 171C672.672 171 672 170.328 672 169.5C672 168.672 672.672 168 673.5 168C674.328 168 675 168.672 675 169.5Z" fill="#1995FC"/>
<path d="M759 169.5C759 170.328 758.328 171 757.5 171C756.672 171 756 170.328 756 169.5C756 168.672 756.672 168 757.5 168C758.328 168 759 168.672 759 169.5Z" fill="#1995FC"/>
<path d="M843 169.5C843 170.328 842.328 171 841.5 171C840.672 171 840 170.328 840 169.5C840 168.672 840.672 168 841.5 168C842.328 168 843 168.672 843 169.5Z" fill="#1995FC"/>
<path d="M927 169.5C927 170.328 926.328 171 925.5 171C924.672 171 924 170.328 924 169.5C924 168.672 924.672 168 925.5 168C926.328 168 927 168.672 927 169.5Z" fill="#1995FC"/>
<path d="M1011 169.5C1011 170.328 1010.33 171 1009.5 171C1008.67 171 1008 170.328 1008 169.5C1008 168.672 1008.67 168 1009.5 168C1010.33 168 1011 168.672 1011 169.5Z" fill="#1995FC"/>
<path d="M1095 169.5C1095 170.328 1094.33 171 1093.5 171C1092.67 171 1092 170.328 1092 169.5C1092 168.672 1092.67 168 1093.5 168C1094.33 168 1095 168.672 1095 169.5Z" fill="#1995FC"/>
<path d="M1179 169.5C1179 170.328 1178.33 171 1177.5 171C1176.67 171 1176 170.328 1176 169.5C1176 168.672 1176.67 168 1177.5 168C1178.33 168 1179 168.672 1179 169.5Z" fill="#1995FC"/>
<path d="M1263 169.5C1263 170.328 1262.33 171 1261.5 171C1260.67 171 1260 170.328 1260 169.5C1260 168.672 1260.67 168 1261.5 168C1262.33 168 1263 168.672 1263 169.5Z" fill="#1995FC"/>
<path d="M1347 169.5C1347 170.328 1346.33 171 1345.5 171C1344.67 171 1344 170.328 1344 169.5C1344 168.672 1344.67 168 1345.5 168C1346.33 168 1347 168.672 1347 169.5Z" fill="#1995FC"/>
<path d="M3 253.5C3 254.328 2.32843 255 1.5 255C0.671573 255 0 254.328 0 253.5C0 252.672 0.671573 252 1.5 252C2.32843 252 3 252.672 3 253.5Z" fill="#1995FC"/>
<path d="M87 253.5C87 254.328 86.3284 255 85.5 255C84.6716 255 84 254.328 84 253.5C84 252.672 84.6716 252 85.5 252C86.3284 252 87 252.672 87 253.5Z" fill="#1995FC"/>
<path d="M171 253.5C171 254.328 170.328 255 169.5 255C168.672 255 168 254.328 168 253.5C168 252.672 168.672 252 169.5 252C170.328 252 171 252.672 171 253.5Z" fill="#1995FC"/>
<path d="M255 253.5C255 254.328 254.328 255 253.5 255C252.672 255 252 254.328 252 253.5C252 252.672 252.672 252 253.5 252C254.328 252 255 252.672 255 253.5Z" fill="#1995FC"/>
<path d="M339 253.5C339 254.328 338.328 255 337.5 255C336.672 255 336 254.328 336 253.5C336 252.672 336.672 252 337.5 252C338.328 252 339 252.672 339 253.5Z" fill="#1995FC"/>
<path d="M423 253.5C423 254.328 422.328 255 421.5 255C420.672 255 420 254.328 420 253.5C420 252.672 420.672 252 421.5 252C422.328 252 423 252.672 423 253.5Z" fill="#1995FC"/>
<path d="M507 253.5C507 254.328 506.328 255 505.5 255C504.672 255 504 254.328 504 253.5C504 252.672 504.672 252 505.5 252C506.328 252 507 252.672 507 253.5Z" fill="#1995FC"/>
<path d="M591 253.5C591 254.328 590.328 255 589.5 255C588.672 255 588 254.328 588 253.5C588 252.672 588.672 252 589.5 252C590.328 252 591 252.672 591 253.5Z" fill="#1995FC"/>
<path d="M675 253.5C675 254.328 674.328 255 673.5 255C672.672 255 672 254.328 672 253.5C672 252.672 672.672 252 673.5 252C674.328 252 675 252.672 675 253.5Z" fill="#1995FC"/>
<path d="M759 253.5C759 254.328 758.328 255 757.5 255C756.672 255 756 254.328 756 253.5C756 252.672 756.672 252 757.5 252C758.328 252 759 252.672 759 253.5Z" fill="#1995FC"/>
<path d="M843 253.5C843 254.328 842.328 255 841.5 255C840.672 255 840 254.328 840 253.5C840 252.672 840.672 252 841.5 252C842.328 252 843 252.672 843 253.5Z" fill="#1995FC"/>
<path d="M927 253.5C927 254.328 926.328 255 925.5 255C924.672 255 924 254.328 924 253.5C924 252.672 924.672 252 925.5 252C926.328 252 927 252.672 927 253.5Z" fill="#1995FC"/>
<path d="M1011 253.5C1011 254.328 1010.33 255 1009.5 255C1008.67 255 1008 254.328 1008 253.5C1008 252.672 1008.67 252 1009.5 252C1010.33 252 1011 252.672 1011 253.5Z" fill="#1995FC"/>
<path d="M1095 253.5C1095 254.328 1094.33 255 1093.5 255C1092.67 255 1092 254.328 1092 253.5C1092 252.672 1092.67 252 1093.5 252C1094.33 252 1095 252.672 1095 253.5Z" fill="#1995FC"/>
<path d="M1179 253.5C1179 254.328 1178.33 255 1177.5 255C1176.67 255 1176 254.328 1176 253.5C1176 252.672 1176.67 252 1177.5 252C1178.33 252 1179 252.672 1179 253.5Z" fill="#1995FC"/>
<path d="M1263 253.5C1263 254.328 1262.33 255 1261.5 255C1260.67 255 1260 254.328 1260 253.5C1260 252.672 1260.67 252 1261.5 252C1262.33 252 1263 252.672 1263 253.5Z" fill="#1995FC"/>
<path d="M1347 253.5C1347 254.328 1346.33 255 1345.5 255C1344.67 255 1344 254.328 1344 253.5C1344 252.672 1344.67 252 1345.5 252C1346.33 252 1347 252.672 1347 253.5Z" fill="#1995FC"/>
<path d="M3 337.5C3 338.328 2.32843 339 1.5 339C0.671573 339 0 338.328 0 337.5C0 336.672 0.671573 336 1.5 336C2.32843 336 3 336.672 3 337.5Z" fill="#1995FC"/>
<path d="M87 337.5C87 338.328 86.3284 339 85.5 339C84.6716 339 84 338.328 84 337.5C84 336.672 84.6716 336 85.5 336C86.3284 336 87 336.672 87 337.5Z" fill="#1995FC"/>
<path d="M171 337.5C171 338.328 170.328 339 169.5 339C168.672 339 168 338.328 168 337.5C168 336.672 168.672 336 169.5 336C170.328 336 171 336.672 171 337.5Z" fill="#1995FC"/>
<path d="M255 337.5C255 338.328 254.328 339 253.5 339C252.672 339 252 338.328 252 337.5C252 336.672 252.672 336 253.5 336C254.328 336 255 336.672 255 337.5Z" fill="#1995FC"/>
<path d="M339 337.5C339 338.328 338.328 339 337.5 339C336.672 339 336 338.328 336 337.5C336 336.672 336.672 336 337.5 336C338.328 336 339 336.672 339 337.5Z" fill="#1995FC"/>
<path d="M423 337.5C423 338.328 422.328 339 421.5 339C420.672 339 420 338.328 420 337.5C420 336.672 420.672 336 421.5 336C422.328 336 423 336.672 423 337.5Z" fill="#1995FC"/>
<path d="M507 337.5C507 338.328 506.328 339 505.5 339C504.672 339 504 338.328 504 337.5C504 336.672 504.672 336 505.5 336C506.328 336 507 336.672 507 337.5Z" fill="#1995FC"/>
<path d="M591 337.5C591 338.328 590.328 339 589.5 339C588.672 339 588 338.328 588 337.5C588 336.672 588.672 336 589.5 336C590.328 336 591 336.672 591 337.5Z" fill="#1995FC"/>
<path d="M675 337.5C675 338.328 674.328 339 673.5 339C672.672 339 672 338.328 672 337.5C672 336.672 672.672 336 673.5 336C674.328 336 675 336.672 675 337.5Z" fill="#1995FC"/>
<path d="M759 337.5C759 338.328 758.328 339 757.5 339C756.672 339 756 338.328 756 337.5C756 336.672 756.672 336 757.5 336C758.328 336 759 336.672 759 337.5Z" fill="#1995FC"/>
<path d="M843 337.5C843 338.328 842.328 339 841.5 339C840.672 339 840 338.328 840 337.5C840 336.672 840.672 336 841.5 336C842.328 336 843 336.672 843 337.5Z" fill="#1995FC"/>
<path d="M927 337.5C927 338.328 926.328 339 925.5 339C924.672 339 924 338.328 924 337.5C924 336.672 924.672 336 925.5 336C926.328 336 927 336.672 927 337.5Z" fill="#1995FC"/>
<path d="M1011 337.5C1011 338.328 1010.33 339 1009.5 339C1008.67 339 1008 338.328 1008 337.5C1008 336.672 1008.67 336 1009.5 336C1010.33 336 1011 336.672 1011 337.5Z" fill="#1995FC"/>
<path d="M1095 337.5C1095 338.328 1094.33 339 1093.5 339C1092.67 339 1092 338.328 1092 337.5C1092 336.672 1092.67 336 1093.5 336C1094.33 336 1095 336.672 1095 337.5Z" fill="#1995FC"/>
<path d="M1179 337.5C1179 338.328 1178.33 339 1177.5 339C1176.67 339 1176 338.328 1176 337.5C1176 336.672 1176.67 336 1177.5 336C1178.33 336 1179 336.672 1179 337.5Z" fill="#1995FC"/>
<path d="M1263 337.5C1263 338.328 1262.33 339 1261.5 339C1260.67 339 1260 338.328 1260 337.5C1260 336.672 1260.67 336 1261.5 336C1262.33 336 1263 336.672 1263 337.5Z" fill="#1995FC"/>
<path d="M1347 337.5C1347 338.328 1346.33 339 1345.5 339C1344.67 339 1344 338.328 1344 337.5C1344 336.672 1344.67 336 1345.5 336C1346.33 336 1347 336.672 1347 337.5Z" fill="#1995FC"/>
<path d="M3 421.5C3 422.328 2.32843 423 1.5 423C0.671573 423 0 422.328 0 421.5C0 420.672 0.671573 420 1.5 420C2.32843 420 3 420.672 3 421.5Z" fill="#1995FC"/>
<path d="M87 421.5C87 422.328 86.3284 423 85.5 423C84.6716 423 84 422.328 84 421.5C84 420.672 84.6716 420 85.5 420C86.3284 420 87 420.672 87 421.5Z" fill="#1995FC"/>
<path d="M171 421.5C171 422.328 170.328 423 169.5 423C168.672 423 168 422.328 168 421.5C168 420.672 168.672 420 169.5 420C170.328 420 171 420.672 171 421.5Z" fill="#1995FC"/>
<path d="M255 421.5C255 422.328 254.328 423 253.5 423C252.672 423 252 422.328 252 421.5C252 420.672 252.672 420 253.5 420C254.328 420 255 420.672 255 421.5Z" fill="#1995FC"/>
<path d="M339 421.5C339 422.328 338.328 423 337.5 423C336.672 423 336 422.328 336 421.5C336 420.672 336.672 420 337.5 420C338.328 420 339 420.672 339 421.5Z" fill="#1995FC"/>
<path d="M423 421.5C423 422.328 422.328 423 421.5 423C420.672 423 420 422.328 420 421.5C420 420.672 420.672 420 421.5 420C422.328 420 423 420.672 423 421.5Z" fill="#1995FC"/>
<path d="M507 421.5C507 422.328 506.328 423 505.5 423C504.672 423 504 422.328 504 421.5C504 420.672 504.672 420 505.5 420C506.328 420 507 420.672 507 421.5Z" fill="#1995FC"/>
<path d="M591 421.5C591 422.328 590.328 423 589.5 423C588.672 423 588 422.328 588 421.5C588 420.672 588.672 420 589.5 420C590.328 420 591 420.672 591 421.5Z" fill="#1995FC"/>
<path d="M675 421.5C675 422.328 674.328 423 673.5 423C672.672 423 672 422.328 672 421.5C672 420.672 672.672 420 673.5 420C674.328 420 675 420.672 675 421.5Z" fill="#1995FC"/>
<path d="M759 421.5C759 422.328 758.328 423 757.5 423C756.672 423 756 422.328 756 421.5C756 420.672 756.672 420 757.5 420C758.328 420 759 420.672 759 421.5Z" fill="#1995FC"/>
<path d="M843 421.5C843 422.328 842.328 423 841.5 423C840.672 423 840 422.328 840 421.5C840 420.672 840.672 420 841.5 420C842.328 420 843 420.672 843 421.5Z" fill="#1995FC"/>
<path d="M927 421.5C927 422.328 926.328 423 925.5 423C924.672 423 924 422.328 924 421.5C924 420.672 924.672 420 925.5 420C926.328 420 927 420.672 927 421.5Z" fill="#1995FC"/>
<path d="M1011 421.5C1011 422.328 1010.33 423 1009.5 423C1008.67 423 1008 422.328 1008 421.5C1008 420.672 1008.67 420 1009.5 420C1010.33 420 1011 420.672 1011 421.5Z" fill="#1995FC"/>
<path d="M1095 421.5C1095 422.328 1094.33 423 1093.5 423C1092.67 423 1092 422.328 1092 421.5C1092 420.672 1092.67 420 1093.5 420C1094.33 420 1095 420.672 1095 421.5Z" fill="#1995FC"/>
<path d="M1179 421.5C1179 422.328 1178.33 423 1177.5 423C1176.67 423 1176 422.328 1176 421.5C1176 420.672 1176.67 420 1177.5 420C1178.33 420 1179 420.672 1179 421.5Z" fill="#1995FC"/>
<path d="M1263 421.5C1263 422.328 1262.33 423 1261.5 423C1260.67 423 1260 422.328 1260 421.5C1260 420.672 1260.67 420 1261.5 420C1262.33 420 1263 420.672 1263 421.5Z" fill="#1995FC"/>
<path d="M1347 421.5C1347 422.328 1346.33 423 1345.5 423C1344.67 423 1344 422.328 1344 421.5C1344 420.672 1344.67 420 1345.5 420C1346.33 420 1347 420.672 1347 421.5Z" fill="#1995FC"/>
<path d="M3 505.5C3 506.328 2.32843 507 1.5 507C0.671573 507 0 506.328 0 505.5C0 504.672 0.671573 504 1.5 504C2.32843 504 3 504.672 3 505.5Z" fill="#1995FC"/>
<path d="M87 505.5C87 506.328 86.3284 507 85.5 507C84.6716 507 84 506.328 84 505.5C84 504.672 84.6716 504 85.5 504C86.3284 504 87 504.672 87 505.5Z" fill="#1995FC"/>
<path d="M171 505.5C171 506.328 170.328 507 169.5 507C168.672 507 168 506.328 168 505.5C168 504.672 168.672 504 169.5 504C170.328 504 171 504.672 171 505.5Z" fill="#1995FC"/>
<path d="M255 505.5C255 506.328 254.328 507 253.5 507C252.672 507 252 506.328 252 505.5C252 504.672 252.672 504 253.5 504C254.328 504 255 504.672 255 505.5Z" fill="#1995FC"/>
<path d="M339 505.5C339 506.328 338.328 507 337.5 507C336.672 507 336 506.328 336 505.5C336 504.672 336.672 504 337.5 504C338.328 504 339 504.672 339 505.5Z" fill="#1995FC"/>
<path d="M423 505.5C423 506.328 422.328 507 421.5 507C420.672 507 420 506.328 420 505.5C420 504.672 420.672 504 421.5 504C422.328 504 423 504.672 423 505.5Z" fill="#1995FC"/>
<path d="M507 505.5C507 506.328 506.328 507 505.5 507C504.672 507 504 506.328 504 505.5C504 504.672 504.672 504 505.5 504C506.328 504 507 504.672 507 505.5Z" fill="#1995FC"/>
<path d="M591 505.5C591 506.328 590.328 507 589.5 507C588.672 507 588 506.328 588 505.5C588 504.672 588.672 504 589.5 504C590.328 504 591 504.672 591 505.5Z" fill="#1995FC"/>
<path d="M675 505.5C675 506.328 674.328 507 673.5 507C672.672 507 672 506.328 672 505.5C672 504.672 672.672 504 673.5 504C674.328 504 675 504.672 675 505.5Z" fill="#1995FC"/>
<path d="M759 505.5C759 506.328 758.328 507 757.5 507C756.672 507 756 506.328 756 505.5C756 504.672 756.672 504 757.5 504C758.328 504 759 504.672 759 505.5Z" fill="#1995FC"/>
<path d="M843 505.5C843 506.328 842.328 507 841.5 507C840.672 507 840 506.328 840 505.5C840 504.672 840.672 504 841.5 504C842.328 504 843 504.672 843 505.5Z" fill="#1995FC"/>
<path d="M927 505.5C927 506.328 926.328 507 925.5 507C924.672 507 924 506.328 924 505.5C924 504.672 924.672 504 925.5 504C926.328 504 927 504.672 927 505.5Z" fill="#1995FC"/>
<path d="M1011 505.5C1011 506.328 1010.33 507 1009.5 507C1008.67 507 1008 506.328 1008 505.5C1008 504.672 1008.67 504 1009.5 504C1010.33 504 1011 504.672 1011 505.5Z" fill="#1995FC"/>
<path d="M1095 505.5C1095 506.328 1094.33 507 1093.5 507C1092.67 507 1092 506.328 1092 505.5C1092 504.672 1092.67 504 1093.5 504C1094.33 504 1095 504.672 1095 505.5Z" fill="#1995FC"/>
<path d="M1179 505.5C1179 506.328 1178.33 507 1177.5 507C1176.67 507 1176 506.328 1176 505.5C1176 504.672 1176.67 504 1177.5 504C1178.33 504 1179 504.672 1179 505.5Z" fill="#1995FC"/>
<path d="M1263 505.5C1263 506.328 1262.33 507 1261.5 507C1260.67 507 1260 506.328 1260 505.5C1260 504.672 1260.67 504 1261.5 504C1262.33 504 1263 504.672 1263 505.5Z" fill="#1995FC"/>
<path d="M1347 505.5C1347 506.328 1346.33 507 1345.5 507C1344.67 507 1344 506.328 1344 505.5C1344 504.672 1344.67 504 1345.5 504C1346.33 504 1347 504.672 1347 505.5Z" fill="#1995FC"/>
<path d="M3 589.5C3 590.328 2.32843 591 1.5 591C0.671573 591 0 590.328 0 589.5C0 588.672 0.671573 588 1.5 588C2.32843 588 3 588.672 3 589.5Z" fill="#1995FC"/>
<path d="M87 589.5C87 590.328 86.3284 591 85.5 591C84.6716 591 84 590.328 84 589.5C84 588.672 84.6716 588 85.5 588C86.3284 588 87 588.672 87 589.5Z" fill="#1995FC"/>
<path d="M171 589.5C171 590.328 170.328 591 169.5 591C168.672 591 168 590.328 168 589.5C168 588.672 168.672 588 169.5 588C170.328 588 171 588.672 171 589.5Z" fill="#1995FC"/>
<path d="M255 589.5C255 590.328 254.328 591 253.5 591C252.672 591 252 590.328 252 589.5C252 588.672 252.672 588 253.5 588C254.328 588 255 588.672 255 589.5Z" fill="#1995FC"/>
<path d="M339 589.5C339 590.328 338.328 591 337.5 591C336.672 591 336 590.328 336 589.5C336 588.672 336.672 588 337.5 588C338.328 588 339 588.672 339 589.5Z" fill="#1995FC"/>
<path d="M423 589.5C423 590.328 422.328 591 421.5 591C420.672 591 420 590.328 420 589.5C420 588.672 420.672 588 421.5 588C422.328 588 423 588.672 423 589.5Z" fill="#1995FC"/>
<path d="M507 589.5C507 590.328 506.328 591 505.5 591C504.672 591 504 590.328 504 589.5C504 588.672 504.672 588 505.5 588C506.328 588 507 588.672 507 589.5Z" fill="#1995FC"/>
<path d="M591 589.5C591 590.328 590.328 591 589.5 591C588.672 591 588 590.328 588 589.5C588 588.672 588.672 588 589.5 588C590.328 588 591 588.672 591 589.5Z" fill="#1995FC"/>
<path d="M675 589.5C675 590.328 674.328 591 673.5 591C672.672 591 672 590.328 672 589.5C672 588.672 672.672 588 673.5 588C674.328 588 675 588.672 675 589.5Z" fill="#1995FC"/>
<path d="M759 589.5C759 590.328 758.328 591 757.5 591C756.672 591 756 590.328 756 589.5C756 588.672 756.672 588 757.5 588C758.328 588 759 588.672 759 589.5Z" fill="#1995FC"/>
<path d="M843 589.5C843 590.328 842.328 591 841.5 591C840.672 591 840 590.328 840 589.5C840 588.672 840.672 588 841.5 588C842.328 588 843 588.672 843 589.5Z" fill="#1995FC"/>
<path d="M927 589.5C927 590.328 926.328 591 925.5 591C924.672 591 924 590.328 924 589.5C924 588.672 924.672 588 925.5 588C926.328 588 927 588.672 927 589.5Z" fill="#1995FC"/>
<path d="M1011 589.5C1011 590.328 1010.33 591 1009.5 591C1008.67 591 1008 590.328 1008 589.5C1008 588.672 1008.67 588 1009.5 588C1010.33 588 1011 588.672 1011 589.5Z" fill="#1995FC"/>
<path d="M1095 589.5C1095 590.328 1094.33 591 1093.5 591C1092.67 591 1092 590.328 1092 589.5C1092 588.672 1092.67 588 1093.5 588C1094.33 588 1095 588.672 1095 589.5Z" fill="#1995FC"/>
<path d="M1179 589.5C1179 590.328 1178.33 591 1177.5 591C1176.67 591 1176 590.328 1176 589.5C1176 588.672 1176.67 588 1177.5 588C1178.33 588 1179 588.672 1179 589.5Z" fill="#1995FC"/>
<path d="M1263 589.5C1263 590.328 1262.33 591 1261.5 591C1260.67 591 1260 590.328 1260 589.5C1260 588.672 1260.67 588 1261.5 588C1262.33 588 1263 588.672 1263 589.5Z" fill="#1995FC"/>
<path d="M1347 589.5C1347 590.328 1346.33 591 1345.5 591C1344.67 591 1344 590.328 1344 589.5C1344 588.672 1344.67 588 1345.5 588C1346.33 588 1347 588.672 1347 589.5Z" fill="#1995FC"/>
<path d="M3 673.5C3 674.328 2.32843 675 1.5 675C0.671573 675 0 674.328 0 673.5C0 672.672 0.671573 672 1.5 672C2.32843 672 3 672.672 3 673.5Z" fill="#1995FC"/>
<path d="M87 673.5C87 674.328 86.3284 675 85.5 675C84.6716 675 84 674.328 84 673.5C84 672.672 84.6716 672 85.5 672C86.3284 672 87 672.672 87 673.5Z" fill="#1995FC"/>
<path d="M171 673.5C171 674.328 170.328 675 169.5 675C168.672 675 168 674.328 168 673.5C168 672.672 168.672 672 169.5 672C170.328 672 171 672.672 171 673.5Z" fill="#1995FC"/>
<path d="M255 673.5C255 674.328 254.328 675 253.5 675C252.672 675 252 674.328 252 673.5C252 672.672 252.672 672 253.5 672C254.328 672 255 672.672 255 673.5Z" fill="#1995FC"/>
<path d="M339 673.5C339 674.328 338.328 675 337.5 675C336.672 675 336 674.328 336 673.5C336 672.672 336.672 672 337.5 672C338.328 672 339 672.672 339 673.5Z" fill="#1995FC"/>
<path d="M423 673.5C423 674.328 422.328 675 421.5 675C420.672 675 420 674.328 420 673.5C420 672.672 420.672 672 421.5 672C422.328 672 423 672.672 423 673.5Z" fill="#1995FC"/>
<path d="M507 673.5C507 674.328 506.328 675 505.5 675C504.672 675 504 674.328 504 673.5C504 672.672 504.672 672 505.5 672C506.328 672 507 672.672 507 673.5Z" fill="#1995FC"/>
<path d="M591 673.5C591 674.328 590.328 675 589.5 675C588.672 675 588 674.328 588 673.5C588 672.672 588.672 672 589.5 672C590.328 672 591 672.672 591 673.5Z" fill="#1995FC"/>
<path d="M675 673.5C675 674.328 674.328 675 673.5 675C672.672 675 672 674.328 672 673.5C672 672.672 672.672 672 673.5 672C674.328 672 675 672.672 675 673.5Z" fill="#1995FC"/>
<path d="M759 673.5C759 674.328 758.328 675 757.5 675C756.672 675 756 674.328 756 673.5C756 672.672 756.672 672 757.5 672C758.328 672 759 672.672 759 673.5Z" fill="#1995FC"/>
<path d="M843 673.5C843 674.328 842.328 675 841.5 675C840.672 675 840 674.328 840 673.5C840 672.672 840.672 672 841.5 672C842.328 672 843 672.672 843 673.5Z" fill="#1995FC"/>
<path d="M927 673.5C927 674.328 926.328 675 925.5 675C924.672 675 924 674.328 924 673.5C924 672.672 924.672 672 925.5 672C926.328 672 927 672.672 927 673.5Z" fill="#1995FC"/>
<path d="M1011 673.5C1011 674.328 1010.33 675 1009.5 675C1008.67 675 1008 674.328 1008 673.5C1008 672.672 1008.67 672 1009.5 672C1010.33 672 1011 672.672 1011 673.5Z" fill="#1995FC"/>
<path d="M1095 673.5C1095 674.328 1094.33 675 1093.5 675C1092.67 675 1092 674.328 1092 673.5C1092 672.672 1092.67 672 1093.5 672C1094.33 672 1095 672.672 1095 673.5Z" fill="#1995FC"/>
<path d="M1179 673.5C1179 674.328 1178.33 675 1177.5 675C1176.67 675 1176 674.328 1176 673.5C1176 672.672 1176.67 672 1177.5 672C1178.33 672 1179 672.672 1179 673.5Z" fill="#1995FC"/>
<path d="M1263 673.5C1263 674.328 1262.33 675 1261.5 675C1260.67 675 1260 674.328 1260 673.5C1260 672.672 1260.67 672 1261.5 672C1262.33 672 1263 672.672 1263 673.5Z" fill="#1995FC"/>
<path d="M1347 673.5C1347 674.328 1346.33 675 1345.5 675C1344.67 675 1344 674.328 1344 673.5C1344 672.672 1344.67 672 1345.5 672C1346.33 672 1347 672.672 1347 673.5Z" fill="#1995FC"/>
<path d="M3 757.5C3 758.328 2.32843 759 1.5 759C0.671573 759 0 758.328 0 757.5C0 756.672 0.671573 756 1.5 756C2.32843 756 3 756.672 3 757.5Z" fill="#1995FC"/>
<path d="M87 757.5C87 758.328 86.3284 759 85.5 759C84.6716 759 84 758.328 84 757.5C84 756.672 84.6716 756 85.5 756C86.3284 756 87 756.672 87 757.5Z" fill="#1995FC"/>
<path d="M171 757.5C171 758.328 170.328 759 169.5 759C168.672 759 168 758.328 168 757.5C168 756.672 168.672 756 169.5 756C170.328 756 171 756.672 171 757.5Z" fill="#1995FC"/>
<path d="M255 757.5C255 758.328 254.328 759 253.5 759C252.672 759 252 758.328 252 757.5C252 756.672 252.672 756 253.5 756C254.328 756 255 756.672 255 757.5Z" fill="#1995FC"/>
<path d="M339 757.5C339 758.328 338.328 759 337.5 759C336.672 759 336 758.328 336 757.5C336 756.672 336.672 756 337.5 756C338.328 756 339 756.672 339 757.5Z" fill="#1995FC"/>
<path d="M423 757.5C423 758.328 422.328 759 421.5 759C420.672 759 420 758.328 420 757.5C420 756.672 420.672 756 421.5 756C422.328 756 423 756.672 423 757.5Z" fill="#1995FC"/>
<path d="M507 757.5C507 758.328 506.328 759 505.5 759C504.672 759 504 758.328 504 757.5C504 756.672 504.672 756 505.5 756C506.328 756 507 756.672 507 757.5Z" fill="#1995FC"/>
<path d="M591 757.5C591 758.328 590.328 759 589.5 759C588.672 759 588 758.328 588 757.5C588 756.672 588.672 756 589.5 756C590.328 756 591 756.672 591 757.5Z" fill="#1995FC"/>
<path d="M675 757.5C675 758.328 674.328 759 673.5 759C672.672 759 672 758.328 672 757.5C672 756.672 672.672 756 673.5 756C674.328 756 675 756.672 675 757.5Z" fill="#1995FC"/>
<path d="M759 757.5C759 758.328 758.328 759 757.5 759C756.672 759 756 758.328 756 757.5C756 756.672 756.672 756 757.5 756C758.328 756 759 756.672 759 757.5Z" fill="#1995FC"/>
<path d="M843 757.5C843 758.328 842.328 759 841.5 759C840.672 759 840 758.328 840 757.5C840 756.672 840.672 756 841.5 756C842.328 756 843 756.672 843 757.5Z" fill="#1995FC"/>
<path d="M927 757.5C927 758.328 926.328 759 925.5 759C924.672 759 924 758.328 924 757.5C924 756.672 924.672 756 925.5 756C926.328 756 927 756.672 927 757.5Z" fill="#1995FC"/>
<path d="M1011 757.5C1011 758.328 1010.33 759 1009.5 759C1008.67 759 1008 758.328 1008 757.5C1008 756.672 1008.67 756 1009.5 756C1010.33 756 1011 756.672 1011 757.5Z" fill="#1995FC"/>
<path d="M1095 757.5C1095 758.328 1094.33 759 1093.5 759C1092.67 759 1092 758.328 1092 757.5C1092 756.672 1092.67 756 1093.5 756C1094.33 756 1095 756.672 1095 757.5Z" fill="#1995FC"/>
<path d="M1179 757.5C1179 758.328 1178.33 759 1177.5 759C1176.67 759 1176 758.328 1176 757.5C1176 756.672 1176.67 756 1177.5 756C1178.33 756 1179 756.672 1179 757.5Z" fill="#1995FC"/>
<path d="M1263 757.5C1263 758.328 1262.33 759 1261.5 759C1260.67 759 1260 758.328 1260 757.5C1260 756.672 1260.67 756 1261.5 756C1262.33 756 1263 756.672 1263 757.5Z" fill="#1995FC"/>
<path d="M1347 757.5C1347 758.328 1346.33 759 1345.5 759C1344.67 759 1344 758.328 1344 757.5C1344 756.672 1344.67 756 1345.5 756C1346.33 756 1347 756.672 1347 757.5Z" fill="#1995FC"/>
</g>
</svg>
