<svg width="297" height="522" viewBox="0 0 297 522" fill="none" xmlns="http://www.w3.org/2000/svg">
<mask id="mask0_913_37255" style="mask-type:alpha" maskUnits="userSpaceOnUse" x="18" y="0" width="260" height="522">
<rect x="18.5" width="259" height="522" rx="129.5" fill="#D9D9D9"/>
</mask>
<g mask="url(#mask0_913_37255)">
<circle cx="43.5" cy="9" r="1" fill="#1995FC"/>
<circle cx="85.5" cy="9" r="1" fill="#1995FC"/>
<circle cx="127.5" cy="9" r="1" fill="#1995FC"/>
<circle cx="169.5" cy="9" r="1" fill="#1995FC"/>
<circle cx="211.5" cy="9" r="1" fill="#1995FC"/>
<circle cx="253.5" cy="9" r="1" fill="#1995FC"/>
<circle cx="43.5" cy="51" r="1" fill="#1995FC"/>
<circle cx="85.5" cy="51" r="1" fill="#1995FC"/>
<circle cx="127.5" cy="51" r="1" fill="#1995FC"/>
<circle cx="169.5" cy="51" r="1" fill="#1995FC"/>
<circle cx="211.5" cy="51" r="1" fill="#1995FC"/>
<circle cx="253.5" cy="51" r="1" fill="#1995FC"/>
<circle cx="43.5" cy="93" r="1" fill="#1995FC"/>
<circle cx="85.5" cy="93" r="1" fill="#1995FC"/>
<circle cx="127.5" cy="93" r="1" fill="#1995FC"/>
<circle cx="169.5" cy="93" r="1" fill="#1995FC"/>
<circle cx="211.5" cy="93" r="1" fill="#1995FC"/>
<circle cx="253.5" cy="93" r="1" fill="#1995FC"/>
<circle cx="43.5" cy="135" r="1" fill="#1995FC"/>
<circle cx="85.5" cy="135" r="1" fill="#1995FC"/>
<circle cx="127.5" cy="135" r="1" fill="#1995FC"/>
<circle cx="169.5" cy="135" r="1" fill="#1995FC"/>
<circle cx="211.5" cy="135" r="1" fill="#1995FC"/>
<circle cx="253.5" cy="135" r="1" fill="#1995FC"/>
<circle cx="43.5" cy="177" r="1" fill="#1995FC"/>
<circle cx="85.5" cy="177" r="1" fill="#1995FC"/>
<circle cx="127.5" cy="177" r="1" fill="#1995FC"/>
<circle cx="169.5" cy="177" r="1" fill="#1995FC"/>
<circle cx="211.5" cy="177" r="1" fill="#1995FC"/>
<circle cx="253.5" cy="177" r="1" fill="#1995FC"/>
<circle cx="43.5" cy="219" r="1" fill="#1995FC"/>
<circle cx="85.5" cy="219" r="1" fill="#1995FC"/>
<circle cx="127.5" cy="219" r="1" fill="#1995FC"/>
<circle cx="169.5" cy="219" r="1" fill="#1995FC"/>
<circle cx="211.5" cy="219" r="1" fill="#1995FC"/>
<circle cx="253.5" cy="219" r="1" fill="#1995FC"/>
<circle cx="43.5" cy="261" r="1" fill="#1995FC"/>
<circle cx="85.5" cy="261" r="1" fill="#1995FC"/>
<circle cx="127.5" cy="261" r="1" fill="#1995FC"/>
<circle cx="169.5" cy="261" r="1" fill="#1995FC"/>
<circle cx="211.5" cy="261" r="1" fill="#1995FC"/>
<circle cx="253.5" cy="261" r="1" fill="#1995FC"/>
<circle cx="43.5" cy="303" r="1" fill="#1995FC"/>
<circle cx="85.5" cy="303" r="1" fill="#1995FC"/>
<circle cx="127.5" cy="303" r="1" fill="#1995FC"/>
<circle cx="169.5" cy="303" r="1" fill="#1995FC"/>
<circle cx="211.5" cy="303" r="1" fill="#1995FC"/>
<circle cx="253.5" cy="303" r="1" fill="#1995FC"/>
<circle cx="43.5" cy="345" r="1" fill="#1995FC"/>
<circle cx="85.5" cy="345" r="1" fill="#1995FC"/>
<circle cx="127.5" cy="345" r="1" fill="#1995FC"/>
<circle cx="169.5" cy="345" r="1" fill="#1995FC"/>
<circle cx="211.5" cy="345" r="1" fill="#1995FC"/>
<circle cx="253.5" cy="345" r="1" fill="#1995FC"/>
<circle cx="43.5" cy="387" r="1" fill="#1995FC"/>
<circle cx="85.5" cy="387" r="1" fill="#1995FC"/>
<circle cx="127.5" cy="387" r="1" fill="#1995FC"/>
<circle cx="169.5" cy="387" r="1" fill="#1995FC"/>
<circle cx="211.5" cy="387" r="1" fill="#1995FC"/>
<circle cx="253.5" cy="387" r="1" fill="#1995FC"/>
<circle cx="43.5" cy="429" r="1" fill="#1995FC"/>
<circle cx="85.5" cy="429" r="1" fill="#1995FC"/>
<circle cx="127.5" cy="429" r="1" fill="#1995FC"/>
<circle cx="169.5" cy="429" r="1" fill="#1995FC"/>
<circle cx="211.5" cy="429" r="1" fill="#1995FC"/>
<circle cx="253.5" cy="429" r="1" fill="#1995FC"/>
<circle cx="43.5" cy="471" r="1" fill="#1995FC"/>
<circle cx="85.5" cy="471" r="1" fill="#1995FC"/>
<circle cx="127.5" cy="471" r="1" fill="#1995FC"/>
<circle cx="169.5" cy="471" r="1" fill="#1995FC"/>
<circle cx="211.5" cy="471" r="1" fill="#1995FC"/>
<circle cx="253.5" cy="471" r="1" fill="#1995FC"/>
<circle cx="127.5" cy="513" r="1" fill="#1995FC"/>
<circle cx="169.5" cy="513" r="1" fill="#1995FC"/>
</g>
</svg>
