<svg width="768" height="761" viewBox="0 0 768 761" fill="none" xmlns="http://www.w3.org/2000/svg">
<mask id="mask0_913_36709" style="mask-type:alpha" maskUnits="userSpaceOnUse" x="42" y="0" width="701" height="759">
<rect x="42" width="701" height="759" rx="322" fill="#1995FC"/>
</mask>
<g mask="url(#mask0_913_36709)">
<path d="M-278 3.5C-278 4.32843 -278.672 5 -279.5 5C-280.328 5 -281 4.32843 -281 3.5C-281 2.67157 -280.328 2 -279.5 2C-278.672 2 -278 2.67157 -278 3.5Z" fill="#1995FC"/>
<path d="M-194 3.5C-194 4.32843 -194.672 5 -195.5 5C-196.328 5 -197 4.32843 -197 3.5C-197 2.67157 -196.328 2 -195.5 2C-194.672 2 -194 2.67157 -194 3.5Z" fill="#1995FC"/>
<path d="M-110 3.5C-110 4.32843 -110.672 5 -111.5 5C-112.328 5 -113 4.32843 -113 3.5C-113 2.67157 -112.328 2 -111.5 2C-110.672 2 -110 2.67157 -110 3.5Z" fill="#1995FC"/>
<path d="M-26 3.5C-26 4.32843 -26.6716 5 -27.5 5C-28.3284 5 -29 4.32843 -29 3.5C-29 2.67157 -28.3284 2 -27.5 2C-26.6716 2 -26 2.67157 -26 3.5Z" fill="#1995FC"/>
<path d="M58 3.5C58 4.32843 57.3284 5 56.5 5C55.6716 5 55 4.32843 55 3.5C55 2.67157 55.6716 2 56.5 2C57.3284 2 58 2.67157 58 3.5Z" fill="#1995FC"/>
<path d="M142 3.5C142 4.32843 141.328 5 140.5 5C139.672 5 139 4.32843 139 3.5C139 2.67157 139.672 2 140.5 2C141.328 2 142 2.67157 142 3.5Z" fill="#1995FC"/>
<path d="M226 3.5C226 4.32843 225.328 5 224.5 5C223.672 5 223 4.32843 223 3.5C223 2.67157 223.672 2 224.5 2C225.328 2 226 2.67157 226 3.5Z" fill="#1995FC"/>
<path d="M310 3.5C310 4.32843 309.328 5 308.5 5C307.672 5 307 4.32843 307 3.5C307 2.67157 307.672 2 308.5 2C309.328 2 310 2.67157 310 3.5Z" fill="#1995FC"/>
<path d="M394 3.5C394 4.32843 393.328 5 392.5 5C391.672 5 391 4.32843 391 3.5C391 2.67157 391.672 2 392.5 2C393.328 2 394 2.67157 394 3.5Z" fill="#1995FC"/>
<path d="M478 3.5C478 4.32843 477.328 5 476.5 5C475.672 5 475 4.32843 475 3.5C475 2.67157 475.672 2 476.5 2C477.328 2 478 2.67157 478 3.5Z" fill="#1995FC"/>
<path d="M562 3.5C562 4.32843 561.328 5 560.5 5C559.672 5 559 4.32843 559 3.5C559 2.67157 559.672 2 560.5 2C561.328 2 562 2.67157 562 3.5Z" fill="#1995FC"/>
<path d="M646 3.5C646 4.32843 645.328 5 644.5 5C643.672 5 643 4.32843 643 3.5C643 2.67157 643.672 2 644.5 2C645.328 2 646 2.67157 646 3.5Z" fill="#1995FC"/>
<path d="M730 3.5C730 4.32843 729.328 5 728.5 5C727.672 5 727 4.32843 727 3.5C727 2.67157 727.672 2 728.5 2C729.328 2 730 2.67157 730 3.5Z" fill="#1995FC"/>
<path d="M814 3.5C814 4.32843 813.328 5 812.5 5C811.672 5 811 4.32843 811 3.5C811 2.67157 811.672 2 812.5 2C813.328 2 814 2.67157 814 3.5Z" fill="#1995FC"/>
<path d="M898 3.5C898 4.32843 897.328 5 896.5 5C895.672 5 895 4.32843 895 3.5C895 2.67157 895.672 2 896.5 2C897.328 2 898 2.67157 898 3.5Z" fill="#1995FC"/>
<path d="M982 3.5C982 4.32843 981.328 5 980.5 5C979.672 5 979 4.32843 979 3.5C979 2.67157 979.672 2 980.5 2C981.328 2 982 2.67157 982 3.5Z" fill="#1995FC"/>
<path d="M1066 3.5C1066 4.32843 1065.33 5 1064.5 5C1063.67 5 1063 4.32843 1063 3.5C1063 2.67157 1063.67 2 1064.5 2C1065.33 2 1066 2.67157 1066 3.5Z" fill="#1995FC"/>
<path d="M-278 87.5C-278 88.3284 -278.672 89 -279.5 89C-280.328 89 -281 88.3284 -281 87.5C-281 86.6716 -280.328 86 -279.5 86C-278.672 86 -278 86.6716 -278 87.5Z" fill="#1995FC"/>
<path d="M-194 87.5C-194 88.3284 -194.672 89 -195.5 89C-196.328 89 -197 88.3284 -197 87.5C-197 86.6716 -196.328 86 -195.5 86C-194.672 86 -194 86.6716 -194 87.5Z" fill="#1995FC"/>
<path d="M-110 87.5C-110 88.3284 -110.672 89 -111.5 89C-112.328 89 -113 88.3284 -113 87.5C-113 86.6716 -112.328 86 -111.5 86C-110.672 86 -110 86.6716 -110 87.5Z" fill="#1995FC"/>
<path d="M-26 87.5C-26 88.3284 -26.6716 89 -27.5 89C-28.3284 89 -29 88.3284 -29 87.5C-29 86.6716 -28.3284 86 -27.5 86C-26.6716 86 -26 86.6716 -26 87.5Z" fill="#1995FC"/>
<path d="M58 87.5C58 88.3284 57.3284 89 56.5 89C55.6716 89 55 88.3284 55 87.5C55 86.6716 55.6716 86 56.5 86C57.3284 86 58 86.6716 58 87.5Z" fill="#1995FC"/>
<path d="M142 87.5C142 88.3284 141.328 89 140.5 89C139.672 89 139 88.3284 139 87.5C139 86.6716 139.672 86 140.5 86C141.328 86 142 86.6716 142 87.5Z" fill="#1995FC"/>
<path d="M226 87.5C226 88.3284 225.328 89 224.5 89C223.672 89 223 88.3284 223 87.5C223 86.6716 223.672 86 224.5 86C225.328 86 226 86.6716 226 87.5Z" fill="#1995FC"/>
<path d="M310 87.5C310 88.3284 309.328 89 308.5 89C307.672 89 307 88.3284 307 87.5C307 86.6716 307.672 86 308.5 86C309.328 86 310 86.6716 310 87.5Z" fill="#1995FC"/>
<path d="M394 87.5C394 88.3284 393.328 89 392.5 89C391.672 89 391 88.3284 391 87.5C391 86.6716 391.672 86 392.5 86C393.328 86 394 86.6716 394 87.5Z" fill="#1995FC"/>
<path d="M478 87.5C478 88.3284 477.328 89 476.5 89C475.672 89 475 88.3284 475 87.5C475 86.6716 475.672 86 476.5 86C477.328 86 478 86.6716 478 87.5Z" fill="#1995FC"/>
<path d="M562 87.5C562 88.3284 561.328 89 560.5 89C559.672 89 559 88.3284 559 87.5C559 86.6716 559.672 86 560.5 86C561.328 86 562 86.6716 562 87.5Z" fill="#1995FC"/>
<path d="M646 87.5C646 88.3284 645.328 89 644.5 89C643.672 89 643 88.3284 643 87.5C643 86.6716 643.672 86 644.5 86C645.328 86 646 86.6716 646 87.5Z" fill="#1995FC"/>
<path d="M730 87.5C730 88.3284 729.328 89 728.5 89C727.672 89 727 88.3284 727 87.5C727 86.6716 727.672 86 728.5 86C729.328 86 730 86.6716 730 87.5Z" fill="#1995FC"/>
<path d="M814 87.5C814 88.3284 813.328 89 812.5 89C811.672 89 811 88.3284 811 87.5C811 86.6716 811.672 86 812.5 86C813.328 86 814 86.6716 814 87.5Z" fill="#1995FC"/>
<path d="M898 87.5C898 88.3284 897.328 89 896.5 89C895.672 89 895 88.3284 895 87.5C895 86.6716 895.672 86 896.5 86C897.328 86 898 86.6716 898 87.5Z" fill="#1995FC"/>
<path d="M982 87.5C982 88.3284 981.328 89 980.5 89C979.672 89 979 88.3284 979 87.5C979 86.6716 979.672 86 980.5 86C981.328 86 982 86.6716 982 87.5Z" fill="#1995FC"/>
<path d="M1066 87.5C1066 88.3284 1065.33 89 1064.5 89C1063.67 89 1063 88.3284 1063 87.5C1063 86.6716 1063.67 86 1064.5 86C1065.33 86 1066 86.6716 1066 87.5Z" fill="#1995FC"/>
<path d="M-278 171.5C-278 172.328 -278.672 173 -279.5 173C-280.328 173 -281 172.328 -281 171.5C-281 170.672 -280.328 170 -279.5 170C-278.672 170 -278 170.672 -278 171.5Z" fill="#1995FC"/>
<path d="M-194 171.5C-194 172.328 -194.672 173 -195.5 173C-196.328 173 -197 172.328 -197 171.5C-197 170.672 -196.328 170 -195.5 170C-194.672 170 -194 170.672 -194 171.5Z" fill="#1995FC"/>
<path d="M-110 171.5C-110 172.328 -110.672 173 -111.5 173C-112.328 173 -113 172.328 -113 171.5C-113 170.672 -112.328 170 -111.5 170C-110.672 170 -110 170.672 -110 171.5Z" fill="#1995FC"/>
<path d="M-26 171.5C-26 172.328 -26.6716 173 -27.5 173C-28.3284 173 -29 172.328 -29 171.5C-29 170.672 -28.3284 170 -27.5 170C-26.6716 170 -26 170.672 -26 171.5Z" fill="#1995FC"/>
<path d="M58 171.5C58 172.328 57.3284 173 56.5 173C55.6716 173 55 172.328 55 171.5C55 170.672 55.6716 170 56.5 170C57.3284 170 58 170.672 58 171.5Z" fill="#1995FC"/>
<path d="M142 171.5C142 172.328 141.328 173 140.5 173C139.672 173 139 172.328 139 171.5C139 170.672 139.672 170 140.5 170C141.328 170 142 170.672 142 171.5Z" fill="#1995FC"/>
<path d="M226 171.5C226 172.328 225.328 173 224.5 173C223.672 173 223 172.328 223 171.5C223 170.672 223.672 170 224.5 170C225.328 170 226 170.672 226 171.5Z" fill="#1995FC"/>
<path d="M310 171.5C310 172.328 309.328 173 308.5 173C307.672 173 307 172.328 307 171.5C307 170.672 307.672 170 308.5 170C309.328 170 310 170.672 310 171.5Z" fill="#1995FC"/>
<path d="M394 171.5C394 172.328 393.328 173 392.5 173C391.672 173 391 172.328 391 171.5C391 170.672 391.672 170 392.5 170C393.328 170 394 170.672 394 171.5Z" fill="#1995FC"/>
<path d="M478 171.5C478 172.328 477.328 173 476.5 173C475.672 173 475 172.328 475 171.5C475 170.672 475.672 170 476.5 170C477.328 170 478 170.672 478 171.5Z" fill="#1995FC"/>
<path d="M562 171.5C562 172.328 561.328 173 560.5 173C559.672 173 559 172.328 559 171.5C559 170.672 559.672 170 560.5 170C561.328 170 562 170.672 562 171.5Z" fill="#1995FC"/>
<path d="M646 171.5C646 172.328 645.328 173 644.5 173C643.672 173 643 172.328 643 171.5C643 170.672 643.672 170 644.5 170C645.328 170 646 170.672 646 171.5Z" fill="#1995FC"/>
<path d="M730 171.5C730 172.328 729.328 173 728.5 173C727.672 173 727 172.328 727 171.5C727 170.672 727.672 170 728.5 170C729.328 170 730 170.672 730 171.5Z" fill="#1995FC"/>
<path d="M814 171.5C814 172.328 813.328 173 812.5 173C811.672 173 811 172.328 811 171.5C811 170.672 811.672 170 812.5 170C813.328 170 814 170.672 814 171.5Z" fill="#1995FC"/>
<path d="M898 171.5C898 172.328 897.328 173 896.5 173C895.672 173 895 172.328 895 171.5C895 170.672 895.672 170 896.5 170C897.328 170 898 170.672 898 171.5Z" fill="#1995FC"/>
<path d="M982 171.5C982 172.328 981.328 173 980.5 173C979.672 173 979 172.328 979 171.5C979 170.672 979.672 170 980.5 170C981.328 170 982 170.672 982 171.5Z" fill="#1995FC"/>
<path d="M1066 171.5C1066 172.328 1065.33 173 1064.5 173C1063.67 173 1063 172.328 1063 171.5C1063 170.672 1063.67 170 1064.5 170C1065.33 170 1066 170.672 1066 171.5Z" fill="#1995FC"/>
<path d="M-278 255.5C-278 256.328 -278.672 257 -279.5 257C-280.328 257 -281 256.328 -281 255.5C-281 254.672 -280.328 254 -279.5 254C-278.672 254 -278 254.672 -278 255.5Z" fill="#1995FC"/>
<path d="M-194 255.5C-194 256.328 -194.672 257 -195.5 257C-196.328 257 -197 256.328 -197 255.5C-197 254.672 -196.328 254 -195.5 254C-194.672 254 -194 254.672 -194 255.5Z" fill="#1995FC"/>
<path d="M-110 255.5C-110 256.328 -110.672 257 -111.5 257C-112.328 257 -113 256.328 -113 255.5C-113 254.672 -112.328 254 -111.5 254C-110.672 254 -110 254.672 -110 255.5Z" fill="#1995FC"/>
<path d="M-26 255.5C-26 256.328 -26.6716 257 -27.5 257C-28.3284 257 -29 256.328 -29 255.5C-29 254.672 -28.3284 254 -27.5 254C-26.6716 254 -26 254.672 -26 255.5Z" fill="#1995FC"/>
<path d="M58 255.5C58 256.328 57.3284 257 56.5 257C55.6716 257 55 256.328 55 255.5C55 254.672 55.6716 254 56.5 254C57.3284 254 58 254.672 58 255.5Z" fill="#1995FC"/>
<path d="M142 255.5C142 256.328 141.328 257 140.5 257C139.672 257 139 256.328 139 255.5C139 254.672 139.672 254 140.5 254C141.328 254 142 254.672 142 255.5Z" fill="#1995FC"/>
<path d="M226 255.5C226 256.328 225.328 257 224.5 257C223.672 257 223 256.328 223 255.5C223 254.672 223.672 254 224.5 254C225.328 254 226 254.672 226 255.5Z" fill="#1995FC"/>
<path d="M310 255.5C310 256.328 309.328 257 308.5 257C307.672 257 307 256.328 307 255.5C307 254.672 307.672 254 308.5 254C309.328 254 310 254.672 310 255.5Z" fill="#1995FC"/>
<path d="M394 255.5C394 256.328 393.328 257 392.5 257C391.672 257 391 256.328 391 255.5C391 254.672 391.672 254 392.5 254C393.328 254 394 254.672 394 255.5Z" fill="#1995FC"/>
<path d="M478 255.5C478 256.328 477.328 257 476.5 257C475.672 257 475 256.328 475 255.5C475 254.672 475.672 254 476.5 254C477.328 254 478 254.672 478 255.5Z" fill="#1995FC"/>
<path d="M562 255.5C562 256.328 561.328 257 560.5 257C559.672 257 559 256.328 559 255.5C559 254.672 559.672 254 560.5 254C561.328 254 562 254.672 562 255.5Z" fill="#1995FC"/>
<path d="M646 255.5C646 256.328 645.328 257 644.5 257C643.672 257 643 256.328 643 255.5C643 254.672 643.672 254 644.5 254C645.328 254 646 254.672 646 255.5Z" fill="#1995FC"/>
<path d="M730 255.5C730 256.328 729.328 257 728.5 257C727.672 257 727 256.328 727 255.5C727 254.672 727.672 254 728.5 254C729.328 254 730 254.672 730 255.5Z" fill="#1995FC"/>
<path d="M814 255.5C814 256.328 813.328 257 812.5 257C811.672 257 811 256.328 811 255.5C811 254.672 811.672 254 812.5 254C813.328 254 814 254.672 814 255.5Z" fill="#1995FC"/>
<path d="M898 255.5C898 256.328 897.328 257 896.5 257C895.672 257 895 256.328 895 255.5C895 254.672 895.672 254 896.5 254C897.328 254 898 254.672 898 255.5Z" fill="#1995FC"/>
<path d="M982 255.5C982 256.328 981.328 257 980.5 257C979.672 257 979 256.328 979 255.5C979 254.672 979.672 254 980.5 254C981.328 254 982 254.672 982 255.5Z" fill="#1995FC"/>
<path d="M1066 255.5C1066 256.328 1065.33 257 1064.5 257C1063.67 257 1063 256.328 1063 255.5C1063 254.672 1063.67 254 1064.5 254C1065.33 254 1066 254.672 1066 255.5Z" fill="#1995FC"/>
<path d="M-278 339.5C-278 340.328 -278.672 341 -279.5 341C-280.328 341 -281 340.328 -281 339.5C-281 338.672 -280.328 338 -279.5 338C-278.672 338 -278 338.672 -278 339.5Z" fill="#1995FC"/>
<path d="M-194 339.5C-194 340.328 -194.672 341 -195.5 341C-196.328 341 -197 340.328 -197 339.5C-197 338.672 -196.328 338 -195.5 338C-194.672 338 -194 338.672 -194 339.5Z" fill="#1995FC"/>
<path d="M-110 339.5C-110 340.328 -110.672 341 -111.5 341C-112.328 341 -113 340.328 -113 339.5C-113 338.672 -112.328 338 -111.5 338C-110.672 338 -110 338.672 -110 339.5Z" fill="#1995FC"/>
<path d="M-26 339.5C-26 340.328 -26.6716 341 -27.5 341C-28.3284 341 -29 340.328 -29 339.5C-29 338.672 -28.3284 338 -27.5 338C-26.6716 338 -26 338.672 -26 339.5Z" fill="#1995FC"/>
<path d="M58 339.5C58 340.328 57.3284 341 56.5 341C55.6716 341 55 340.328 55 339.5C55 338.672 55.6716 338 56.5 338C57.3284 338 58 338.672 58 339.5Z" fill="#1995FC"/>
<path d="M142 339.5C142 340.328 141.328 341 140.5 341C139.672 341 139 340.328 139 339.5C139 338.672 139.672 338 140.5 338C141.328 338 142 338.672 142 339.5Z" fill="#1995FC"/>
<path d="M226 339.5C226 340.328 225.328 341 224.5 341C223.672 341 223 340.328 223 339.5C223 338.672 223.672 338 224.5 338C225.328 338 226 338.672 226 339.5Z" fill="#1995FC"/>
<path d="M310 339.5C310 340.328 309.328 341 308.5 341C307.672 341 307 340.328 307 339.5C307 338.672 307.672 338 308.5 338C309.328 338 310 338.672 310 339.5Z" fill="#1995FC"/>
<path d="M394 339.5C394 340.328 393.328 341 392.5 341C391.672 341 391 340.328 391 339.5C391 338.672 391.672 338 392.5 338C393.328 338 394 338.672 394 339.5Z" fill="#1995FC"/>
<path d="M478 339.5C478 340.328 477.328 341 476.5 341C475.672 341 475 340.328 475 339.5C475 338.672 475.672 338 476.5 338C477.328 338 478 338.672 478 339.5Z" fill="#1995FC"/>
<path d="M562 339.5C562 340.328 561.328 341 560.5 341C559.672 341 559 340.328 559 339.5C559 338.672 559.672 338 560.5 338C561.328 338 562 338.672 562 339.5Z" fill="#1995FC"/>
<path d="M646 339.5C646 340.328 645.328 341 644.5 341C643.672 341 643 340.328 643 339.5C643 338.672 643.672 338 644.5 338C645.328 338 646 338.672 646 339.5Z" fill="#1995FC"/>
<path d="M730 339.5C730 340.328 729.328 341 728.5 341C727.672 341 727 340.328 727 339.5C727 338.672 727.672 338 728.5 338C729.328 338 730 338.672 730 339.5Z" fill="#1995FC"/>
<path d="M814 339.5C814 340.328 813.328 341 812.5 341C811.672 341 811 340.328 811 339.5C811 338.672 811.672 338 812.5 338C813.328 338 814 338.672 814 339.5Z" fill="#1995FC"/>
<path d="M898 339.5C898 340.328 897.328 341 896.5 341C895.672 341 895 340.328 895 339.5C895 338.672 895.672 338 896.5 338C897.328 338 898 338.672 898 339.5Z" fill="#1995FC"/>
<path d="M982 339.5C982 340.328 981.328 341 980.5 341C979.672 341 979 340.328 979 339.5C979 338.672 979.672 338 980.5 338C981.328 338 982 338.672 982 339.5Z" fill="#1995FC"/>
<path d="M1066 339.5C1066 340.328 1065.33 341 1064.5 341C1063.67 341 1063 340.328 1063 339.5C1063 338.672 1063.67 338 1064.5 338C1065.33 338 1066 338.672 1066 339.5Z" fill="#1995FC"/>
<path d="M-278 423.5C-278 424.328 -278.672 425 -279.5 425C-280.328 425 -281 424.328 -281 423.5C-281 422.672 -280.328 422 -279.5 422C-278.672 422 -278 422.672 -278 423.5Z" fill="#1995FC"/>
<path d="M-194 423.5C-194 424.328 -194.672 425 -195.5 425C-196.328 425 -197 424.328 -197 423.5C-197 422.672 -196.328 422 -195.5 422C-194.672 422 -194 422.672 -194 423.5Z" fill="#1995FC"/>
<path d="M-110 423.5C-110 424.328 -110.672 425 -111.5 425C-112.328 425 -113 424.328 -113 423.5C-113 422.672 -112.328 422 -111.5 422C-110.672 422 -110 422.672 -110 423.5Z" fill="#1995FC"/>
<path d="M-26 423.5C-26 424.328 -26.6716 425 -27.5 425C-28.3284 425 -29 424.328 -29 423.5C-29 422.672 -28.3284 422 -27.5 422C-26.6716 422 -26 422.672 -26 423.5Z" fill="#1995FC"/>
<path d="M58 423.5C58 424.328 57.3284 425 56.5 425C55.6716 425 55 424.328 55 423.5C55 422.672 55.6716 422 56.5 422C57.3284 422 58 422.672 58 423.5Z" fill="#1995FC"/>
<path d="M142 423.5C142 424.328 141.328 425 140.5 425C139.672 425 139 424.328 139 423.5C139 422.672 139.672 422 140.5 422C141.328 422 142 422.672 142 423.5Z" fill="#1995FC"/>
<path d="M226 423.5C226 424.328 225.328 425 224.5 425C223.672 425 223 424.328 223 423.5C223 422.672 223.672 422 224.5 422C225.328 422 226 422.672 226 423.5Z" fill="#1995FC"/>
<path d="M310 423.5C310 424.328 309.328 425 308.5 425C307.672 425 307 424.328 307 423.5C307 422.672 307.672 422 308.5 422C309.328 422 310 422.672 310 423.5Z" fill="#1995FC"/>
<path d="M394 423.5C394 424.328 393.328 425 392.5 425C391.672 425 391 424.328 391 423.5C391 422.672 391.672 422 392.5 422C393.328 422 394 422.672 394 423.5Z" fill="#1995FC"/>
<path d="M478 423.5C478 424.328 477.328 425 476.5 425C475.672 425 475 424.328 475 423.5C475 422.672 475.672 422 476.5 422C477.328 422 478 422.672 478 423.5Z" fill="#1995FC"/>
<path d="M562 423.5C562 424.328 561.328 425 560.5 425C559.672 425 559 424.328 559 423.5C559 422.672 559.672 422 560.5 422C561.328 422 562 422.672 562 423.5Z" fill="#1995FC"/>
<path d="M646 423.5C646 424.328 645.328 425 644.5 425C643.672 425 643 424.328 643 423.5C643 422.672 643.672 422 644.5 422C645.328 422 646 422.672 646 423.5Z" fill="#1995FC"/>
<path d="M730 423.5C730 424.328 729.328 425 728.5 425C727.672 425 727 424.328 727 423.5C727 422.672 727.672 422 728.5 422C729.328 422 730 422.672 730 423.5Z" fill="#1995FC"/>
<path d="M814 423.5C814 424.328 813.328 425 812.5 425C811.672 425 811 424.328 811 423.5C811 422.672 811.672 422 812.5 422C813.328 422 814 422.672 814 423.5Z" fill="#1995FC"/>
<path d="M898 423.5C898 424.328 897.328 425 896.5 425C895.672 425 895 424.328 895 423.5C895 422.672 895.672 422 896.5 422C897.328 422 898 422.672 898 423.5Z" fill="#1995FC"/>
<path d="M982 423.5C982 424.328 981.328 425 980.5 425C979.672 425 979 424.328 979 423.5C979 422.672 979.672 422 980.5 422C981.328 422 982 422.672 982 423.5Z" fill="#1995FC"/>
<path d="M1066 423.5C1066 424.328 1065.33 425 1064.5 425C1063.67 425 1063 424.328 1063 423.5C1063 422.672 1063.67 422 1064.5 422C1065.33 422 1066 422.672 1066 423.5Z" fill="#1995FC"/>
<path d="M-278 507.5C-278 508.328 -278.672 509 -279.5 509C-280.328 509 -281 508.328 -281 507.5C-281 506.672 -280.328 506 -279.5 506C-278.672 506 -278 506.672 -278 507.5Z" fill="#1995FC"/>
<path d="M-194 507.5C-194 508.328 -194.672 509 -195.5 509C-196.328 509 -197 508.328 -197 507.5C-197 506.672 -196.328 506 -195.5 506C-194.672 506 -194 506.672 -194 507.5Z" fill="#1995FC"/>
<path d="M-110 507.5C-110 508.328 -110.672 509 -111.5 509C-112.328 509 -113 508.328 -113 507.5C-113 506.672 -112.328 506 -111.5 506C-110.672 506 -110 506.672 -110 507.5Z" fill="#1995FC"/>
<path d="M-26 507.5C-26 508.328 -26.6716 509 -27.5 509C-28.3284 509 -29 508.328 -29 507.5C-29 506.672 -28.3284 506 -27.5 506C-26.6716 506 -26 506.672 -26 507.5Z" fill="#1995FC"/>
<path d="M58 507.5C58 508.328 57.3284 509 56.5 509C55.6716 509 55 508.328 55 507.5C55 506.672 55.6716 506 56.5 506C57.3284 506 58 506.672 58 507.5Z" fill="#1995FC"/>
<path d="M142 507.5C142 508.328 141.328 509 140.5 509C139.672 509 139 508.328 139 507.5C139 506.672 139.672 506 140.5 506C141.328 506 142 506.672 142 507.5Z" fill="#1995FC"/>
<path d="M226 507.5C226 508.328 225.328 509 224.5 509C223.672 509 223 508.328 223 507.5C223 506.672 223.672 506 224.5 506C225.328 506 226 506.672 226 507.5Z" fill="#1995FC"/>
<path d="M310 507.5C310 508.328 309.328 509 308.5 509C307.672 509 307 508.328 307 507.5C307 506.672 307.672 506 308.5 506C309.328 506 310 506.672 310 507.5Z" fill="#1995FC"/>
<path d="M394 507.5C394 508.328 393.328 509 392.5 509C391.672 509 391 508.328 391 507.5C391 506.672 391.672 506 392.5 506C393.328 506 394 506.672 394 507.5Z" fill="#1995FC"/>
<path d="M478 507.5C478 508.328 477.328 509 476.5 509C475.672 509 475 508.328 475 507.5C475 506.672 475.672 506 476.5 506C477.328 506 478 506.672 478 507.5Z" fill="#1995FC"/>
<path d="M562 507.5C562 508.328 561.328 509 560.5 509C559.672 509 559 508.328 559 507.5C559 506.672 559.672 506 560.5 506C561.328 506 562 506.672 562 507.5Z" fill="#1995FC"/>
<path d="M646 507.5C646 508.328 645.328 509 644.5 509C643.672 509 643 508.328 643 507.5C643 506.672 643.672 506 644.5 506C645.328 506 646 506.672 646 507.5Z" fill="#1995FC"/>
<path d="M730 507.5C730 508.328 729.328 509 728.5 509C727.672 509 727 508.328 727 507.5C727 506.672 727.672 506 728.5 506C729.328 506 730 506.672 730 507.5Z" fill="#1995FC"/>
<path d="M814 507.5C814 508.328 813.328 509 812.5 509C811.672 509 811 508.328 811 507.5C811 506.672 811.672 506 812.5 506C813.328 506 814 506.672 814 507.5Z" fill="#1995FC"/>
<path d="M898 507.5C898 508.328 897.328 509 896.5 509C895.672 509 895 508.328 895 507.5C895 506.672 895.672 506 896.5 506C897.328 506 898 506.672 898 507.5Z" fill="#1995FC"/>
<path d="M982 507.5C982 508.328 981.328 509 980.5 509C979.672 509 979 508.328 979 507.5C979 506.672 979.672 506 980.5 506C981.328 506 982 506.672 982 507.5Z" fill="#1995FC"/>
<path d="M1066 507.5C1066 508.328 1065.33 509 1064.5 509C1063.67 509 1063 508.328 1063 507.5C1063 506.672 1063.67 506 1064.5 506C1065.33 506 1066 506.672 1066 507.5Z" fill="#1995FC"/>
<path d="M-278 591.5C-278 592.328 -278.672 593 -279.5 593C-280.328 593 -281 592.328 -281 591.5C-281 590.672 -280.328 590 -279.5 590C-278.672 590 -278 590.672 -278 591.5Z" fill="#1995FC"/>
<path d="M-194 591.5C-194 592.328 -194.672 593 -195.5 593C-196.328 593 -197 592.328 -197 591.5C-197 590.672 -196.328 590 -195.5 590C-194.672 590 -194 590.672 -194 591.5Z" fill="#1995FC"/>
<path d="M-110 591.5C-110 592.328 -110.672 593 -111.5 593C-112.328 593 -113 592.328 -113 591.5C-113 590.672 -112.328 590 -111.5 590C-110.672 590 -110 590.672 -110 591.5Z" fill="#1995FC"/>
<path d="M-26 591.5C-26 592.328 -26.6716 593 -27.5 593C-28.3284 593 -29 592.328 -29 591.5C-29 590.672 -28.3284 590 -27.5 590C-26.6716 590 -26 590.672 -26 591.5Z" fill="#1995FC"/>
<path d="M58 591.5C58 592.328 57.3284 593 56.5 593C55.6716 593 55 592.328 55 591.5C55 590.672 55.6716 590 56.5 590C57.3284 590 58 590.672 58 591.5Z" fill="#1995FC"/>
<path d="M142 591.5C142 592.328 141.328 593 140.5 593C139.672 593 139 592.328 139 591.5C139 590.672 139.672 590 140.5 590C141.328 590 142 590.672 142 591.5Z" fill="#1995FC"/>
<path d="M226 591.5C226 592.328 225.328 593 224.5 593C223.672 593 223 592.328 223 591.5C223 590.672 223.672 590 224.5 590C225.328 590 226 590.672 226 591.5Z" fill="#1995FC"/>
<path d="M310 591.5C310 592.328 309.328 593 308.5 593C307.672 593 307 592.328 307 591.5C307 590.672 307.672 590 308.5 590C309.328 590 310 590.672 310 591.5Z" fill="#1995FC"/>
<path d="M394 591.5C394 592.328 393.328 593 392.5 593C391.672 593 391 592.328 391 591.5C391 590.672 391.672 590 392.5 590C393.328 590 394 590.672 394 591.5Z" fill="#1995FC"/>
<path d="M478 591.5C478 592.328 477.328 593 476.5 593C475.672 593 475 592.328 475 591.5C475 590.672 475.672 590 476.5 590C477.328 590 478 590.672 478 591.5Z" fill="#1995FC"/>
<path d="M562 591.5C562 592.328 561.328 593 560.5 593C559.672 593 559 592.328 559 591.5C559 590.672 559.672 590 560.5 590C561.328 590 562 590.672 562 591.5Z" fill="#1995FC"/>
<path d="M646 591.5C646 592.328 645.328 593 644.5 593C643.672 593 643 592.328 643 591.5C643 590.672 643.672 590 644.5 590C645.328 590 646 590.672 646 591.5Z" fill="#1995FC"/>
<path d="M730 591.5C730 592.328 729.328 593 728.5 593C727.672 593 727 592.328 727 591.5C727 590.672 727.672 590 728.5 590C729.328 590 730 590.672 730 591.5Z" fill="#1995FC"/>
<path d="M814 591.5C814 592.328 813.328 593 812.5 593C811.672 593 811 592.328 811 591.5C811 590.672 811.672 590 812.5 590C813.328 590 814 590.672 814 591.5Z" fill="#1995FC"/>
<path d="M898 591.5C898 592.328 897.328 593 896.5 593C895.672 593 895 592.328 895 591.5C895 590.672 895.672 590 896.5 590C897.328 590 898 590.672 898 591.5Z" fill="#1995FC"/>
<path d="M982 591.5C982 592.328 981.328 593 980.5 593C979.672 593 979 592.328 979 591.5C979 590.672 979.672 590 980.5 590C981.328 590 982 590.672 982 591.5Z" fill="#1995FC"/>
<path d="M1066 591.5C1066 592.328 1065.33 593 1064.5 593C1063.67 593 1063 592.328 1063 591.5C1063 590.672 1063.67 590 1064.5 590C1065.33 590 1066 590.672 1066 591.5Z" fill="#1995FC"/>
<path d="M-278 675.5C-278 676.328 -278.672 677 -279.5 677C-280.328 677 -281 676.328 -281 675.5C-281 674.672 -280.328 674 -279.5 674C-278.672 674 -278 674.672 -278 675.5Z" fill="#1995FC"/>
<path d="M-194 675.5C-194 676.328 -194.672 677 -195.5 677C-196.328 677 -197 676.328 -197 675.5C-197 674.672 -196.328 674 -195.5 674C-194.672 674 -194 674.672 -194 675.5Z" fill="#1995FC"/>
<path d="M-110 675.5C-110 676.328 -110.672 677 -111.5 677C-112.328 677 -113 676.328 -113 675.5C-113 674.672 -112.328 674 -111.5 674C-110.672 674 -110 674.672 -110 675.5Z" fill="#1995FC"/>
<path d="M-26 675.5C-26 676.328 -26.6716 677 -27.5 677C-28.3284 677 -29 676.328 -29 675.5C-29 674.672 -28.3284 674 -27.5 674C-26.6716 674 -26 674.672 -26 675.5Z" fill="#1995FC"/>
<path d="M58 675.5C58 676.328 57.3284 677 56.5 677C55.6716 677 55 676.328 55 675.5C55 674.672 55.6716 674 56.5 674C57.3284 674 58 674.672 58 675.5Z" fill="#1995FC"/>
<path d="M142 675.5C142 676.328 141.328 677 140.5 677C139.672 677 139 676.328 139 675.5C139 674.672 139.672 674 140.5 674C141.328 674 142 674.672 142 675.5Z" fill="#1995FC"/>
<path d="M226 675.5C226 676.328 225.328 677 224.5 677C223.672 677 223 676.328 223 675.5C223 674.672 223.672 674 224.5 674C225.328 674 226 674.672 226 675.5Z" fill="#1995FC"/>
<path d="M310 675.5C310 676.328 309.328 677 308.5 677C307.672 677 307 676.328 307 675.5C307 674.672 307.672 674 308.5 674C309.328 674 310 674.672 310 675.5Z" fill="#1995FC"/>
<path d="M394 675.5C394 676.328 393.328 677 392.5 677C391.672 677 391 676.328 391 675.5C391 674.672 391.672 674 392.5 674C393.328 674 394 674.672 394 675.5Z" fill="#1995FC"/>
<path d="M478 675.5C478 676.328 477.328 677 476.5 677C475.672 677 475 676.328 475 675.5C475 674.672 475.672 674 476.5 674C477.328 674 478 674.672 478 675.5Z" fill="#1995FC"/>
<path d="M562 675.5C562 676.328 561.328 677 560.5 677C559.672 677 559 676.328 559 675.5C559 674.672 559.672 674 560.5 674C561.328 674 562 674.672 562 675.5Z" fill="#1995FC"/>
<path d="M646 675.5C646 676.328 645.328 677 644.5 677C643.672 677 643 676.328 643 675.5C643 674.672 643.672 674 644.5 674C645.328 674 646 674.672 646 675.5Z" fill="#1995FC"/>
<path d="M730 675.5C730 676.328 729.328 677 728.5 677C727.672 677 727 676.328 727 675.5C727 674.672 727.672 674 728.5 674C729.328 674 730 674.672 730 675.5Z" fill="#1995FC"/>
<path d="M814 675.5C814 676.328 813.328 677 812.5 677C811.672 677 811 676.328 811 675.5C811 674.672 811.672 674 812.5 674C813.328 674 814 674.672 814 675.5Z" fill="#1995FC"/>
<path d="M898 675.5C898 676.328 897.328 677 896.5 677C895.672 677 895 676.328 895 675.5C895 674.672 895.672 674 896.5 674C897.328 674 898 674.672 898 675.5Z" fill="#1995FC"/>
<path d="M982 675.5C982 676.328 981.328 677 980.5 677C979.672 677 979 676.328 979 675.5C979 674.672 979.672 674 980.5 674C981.328 674 982 674.672 982 675.5Z" fill="#1995FC"/>
<path d="M1066 675.5C1066 676.328 1065.33 677 1064.5 677C1063.67 677 1063 676.328 1063 675.5C1063 674.672 1063.67 674 1064.5 674C1065.33 674 1066 674.672 1066 675.5Z" fill="#1995FC"/>
<path d="M-278 759.5C-278 760.328 -278.672 761 -279.5 761C-280.328 761 -281 760.328 -281 759.5C-281 758.672 -280.328 758 -279.5 758C-278.672 758 -278 758.672 -278 759.5Z" fill="#1995FC"/>
<path d="M-194 759.5C-194 760.328 -194.672 761 -195.5 761C-196.328 761 -197 760.328 -197 759.5C-197 758.672 -196.328 758 -195.5 758C-194.672 758 -194 758.672 -194 759.5Z" fill="#1995FC"/>
<path d="M-110 759.5C-110 760.328 -110.672 761 -111.5 761C-112.328 761 -113 760.328 -113 759.5C-113 758.672 -112.328 758 -111.5 758C-110.672 758 -110 758.672 -110 759.5Z" fill="#1995FC"/>
<path d="M-26 759.5C-26 760.328 -26.6716 761 -27.5 761C-28.3284 761 -29 760.328 -29 759.5C-29 758.672 -28.3284 758 -27.5 758C-26.6716 758 -26 758.672 -26 759.5Z" fill="#1995FC"/>
<path d="M58 759.5C58 760.328 57.3284 761 56.5 761C55.6716 761 55 760.328 55 759.5C55 758.672 55.6716 758 56.5 758C57.3284 758 58 758.672 58 759.5Z" fill="#1995FC"/>
<path d="M142 759.5C142 760.328 141.328 761 140.5 761C139.672 761 139 760.328 139 759.5C139 758.672 139.672 758 140.5 758C141.328 758 142 758.672 142 759.5Z" fill="#1995FC"/>
<path d="M226 759.5C226 760.328 225.328 761 224.5 761C223.672 761 223 760.328 223 759.5C223 758.672 223.672 758 224.5 758C225.328 758 226 758.672 226 759.5Z" fill="#1995FC"/>
<path d="M310 759.5C310 760.328 309.328 761 308.5 761C307.672 761 307 760.328 307 759.5C307 758.672 307.672 758 308.5 758C309.328 758 310 758.672 310 759.5Z" fill="#1995FC"/>
<path d="M394 759.5C394 760.328 393.328 761 392.5 761C391.672 761 391 760.328 391 759.5C391 758.672 391.672 758 392.5 758C393.328 758 394 758.672 394 759.5Z" fill="#1995FC"/>
<path d="M478 759.5C478 760.328 477.328 761 476.5 761C475.672 761 475 760.328 475 759.5C475 758.672 475.672 758 476.5 758C477.328 758 478 758.672 478 759.5Z" fill="#1995FC"/>
<path d="M562 759.5C562 760.328 561.328 761 560.5 761C559.672 761 559 760.328 559 759.5C559 758.672 559.672 758 560.5 758C561.328 758 562 758.672 562 759.5Z" fill="#1995FC"/>
<path d="M646 759.5C646 760.328 645.328 761 644.5 761C643.672 761 643 760.328 643 759.5C643 758.672 643.672 758 644.5 758C645.328 758 646 758.672 646 759.5Z" fill="#1995FC"/>
<path d="M730 759.5C730 760.328 729.328 761 728.5 761C727.672 761 727 760.328 727 759.5C727 758.672 727.672 758 728.5 758C729.328 758 730 758.672 730 759.5Z" fill="#1995FC"/>
<path d="M814 759.5C814 760.328 813.328 761 812.5 761C811.672 761 811 760.328 811 759.5C811 758.672 811.672 758 812.5 758C813.328 758 814 758.672 814 759.5Z" fill="#1995FC"/>
<path d="M898 759.5C898 760.328 897.328 761 896.5 761C895.672 761 895 760.328 895 759.5C895 758.672 895.672 758 896.5 758C897.328 758 898 758.672 898 759.5Z" fill="#1995FC"/>
<path d="M982 759.5C982 760.328 981.328 761 980.5 761C979.672 761 979 760.328 979 759.5C979 758.672 979.672 758 980.5 758C981.328 758 982 758.672 982 759.5Z" fill="#1995FC"/>
<path d="M1066 759.5C1066 760.328 1065.33 761 1064.5 761C1063.67 761 1063 760.328 1063 759.5C1063 758.672 1063.67 758 1064.5 758C1065.33 758 1066 758.672 1066 759.5Z" fill="#1995FC"/>
</g>
</svg>
