<svg width="185" height="397" viewBox="0 0 185 397" fill="none" xmlns="http://www.w3.org/2000/svg">
<rect x="63.5195" y="1" width="18.9789" height="8.93123" stroke="#1995FC"/>
<rect x="67.9844" y="1" width="10.0476" height="15.6296" stroke="#1995FC"/>
<rect x="63.5195" y="16.6309" width="18.9789" height="8.93123" stroke="#1995FC"/>
<rect x="63.5195" y="36.7246" width="18.9789" height="150.714" stroke="#1995FC"/>
<rect x="82.498" y="60.1699" width="4.46561" height="8.93123" stroke="#1995FC"/>
<rect x="82.498" y="95.8965" width="5.58202" height="14.5132" stroke="#1995FC"/>
<rect x="82.498" y="85.8477" width="10.0476" height="10.0476" stroke="#1995FC"/>
<rect x="82.498" y="110.406" width="8.93123" height="20.0953" stroke="#1995FC"/>
<rect x="82.498" y="161.762" width="12.2804" height="25.6773" stroke="#1995FC"/>
<rect x="119.34" y="161.762" width="12.2804" height="25.6773" stroke="#1995FC"/>
<rect width="29.0265" height="25.6773" transform="matrix(-1 0 0 1 160.645 161.762)" stroke="#1995FC"/>
<rect x="152.832" y="161.762" width="21.2117" height="45.7725" transform="rotate(180 152.832 161.762)" stroke="#1995FC"/>
<rect width="122.908" height="145.794" transform="matrix(1 0 0 -1 57.793 333.275)" stroke="#1995FC"/>
<rect x="57.9375" y="333.689" width="56.9366" height="8.93123" transform="rotate(180 57.9375 333.689)" stroke="#1995FC"/>
<rect x="57.793" y="363.789" width="56.7918" height="8.47639" transform="rotate(180 57.793 363.789)" stroke="#1995FC"/>
<rect x="57.9375" y="299.08" width="56.9366" height="8.93123" transform="rotate(180 57.9375 299.08)" stroke="#1995FC"/>
<rect x="57.9375" y="255.541" width="56.9366" height="8.93123" transform="rotate(180 57.9375 255.541)" stroke="#1995FC"/>
<rect x="57.9375" y="225.398" width="56.9366" height="11.164" transform="rotate(180 57.9375 225.398)" stroke="#1995FC"/>
<rect width="64.4206" height="145.794" transform="matrix(1 0 0 -1 119.67 333.275)" stroke="#1995FC"/>
<rect width="126.154" height="14.5132" transform="matrix(1 0 0 -1 57.9375 201.953)" stroke="#1995FC"/>
<rect width="126.154" height="26.7937" transform="matrix(1 0 0 -1 57.9375 214.233)" stroke="#1995FC"/>
<rect width="126.154" height="37.9577" transform="matrix(1 0 0 -1 57.9375 225.398)" stroke="#1995FC"/>
<rect width="126.154" height="69.217" transform="matrix(1 0 0 -1 57.9375 256.656)" stroke="#1995FC"/>
<rect x="57.791" y="396" width="44.9249" height="208.519" transform="rotate(180 57.791 396)" stroke="#1995FC"/>
<path d="M145.946 334.122V396H57.791V334.122" stroke="#1995FC"/>
<path d="M145.946 334.122V396H88.3066V334.122" stroke="#1995FC"/>
<path d="M1 396L181.547 396" stroke="#1995FC"/>
<rect x="88.3066" y="396" width="19.4957" height="15.2575" transform="rotate(180 88.3066 396)" stroke="#1995FC"/>
<path d="M35.7535 395.999L21.8191 363.789M28.5486 395.999L14.5625 363.789" stroke="#1995FC"/>
<path d="M34.9058 355.314L21.9087 324.799M27.5596 355.314L14.5625 324.799" stroke="#1995FC"/>
<path d="M37.8418 314.999L31.1433 299.369M30.5851 314.999L23.8867 299.369" stroke="#1995FC"/>
<path d="M39.5578 267.013L34.534 255.291M35.7537 276.058L27.2773 255.291" stroke="#1995FC"/>
<path d="M37.4488 255.292L24.4517 225.625M30.1026 255.292L17.1055 225.625" stroke="#1995FC"/>
<path d="M32.3637 363.79L45.3608 333.275M39.7099 363.79L52.707 333.275" stroke="#1995FC"/>
<path d="M57.9364 355.459L85.2883 333.689M57.9364 357.692L87.8828 334.123" stroke="#1995FC"/>
<path d="M29.8189 333.461L43.8048 299.369M37.0755 333.461L51.4336 299.369" stroke="#1995FC"/>
<path d="M30.0283 290.436L44.2306 255.715M37.2849 290.436L51.8594 255.715" stroke="#1995FC"/>
<rect x="57.9375" y="300.195" width="126.154" height="4.46561" stroke="#1995FC"/>
<path d="M184.091 300.195H57.9375V290.148L184.091 290.148" stroke="#1995FC"/>
<rect x="74.6836" y="256.656" width="3.34921" height="7.81482" stroke="#1995FC"/>
<rect x="137.203" y="256.656" width="3.34921" height="7.81482" stroke="#1995FC"/>
<rect x="90.3125" y="256.656" width="3.34921" height="7.81482" stroke="#1995FC"/>
<rect x="152.832" y="256.656" width="3.34921" height="7.81482" stroke="#1995FC"/>
<rect x="105.943" y="256.656" width="3.34921" height="7.81482" stroke="#1995FC"/>
<rect x="168.461" y="256.656" width="3.34921" height="7.81482" stroke="#1995FC"/>
<rect x="51.2383" y="161.762" width="3.34921" height="25.6773" stroke="#1995FC"/>
<rect x="45.6562" y="161.762" width="3.34921" height="25.6773" stroke="#1995FC"/>
<rect x="57.9375" y="161.762" width="3.34921" height="12.2804" transform="rotate(90 57.9375 161.762)" stroke="#1995FC"/>
<rect width="3.34921" height="150.714" transform="matrix(-1 0 0 1 61.2871 36.7246)" stroke="#1995FC"/>
<rect width="39.0741" height="11.164" transform="matrix(1 0 0 -1 53.4727 36.7246)" stroke="#1995FC"/>
</svg>
