<svg width="32" height="32" viewBox="0 0 32 32" fill="none" xmlns="http://www.w3.org/2000/svg">
<path d="M5 2H20.4898L27 8.57031V31H5V2Z" fill="#26282B"/>
<path d="M20.4898 2H5V31H27V8.57031M20.4898 2L27 8.57031M20.4898 2V8.57031H27" stroke="#1995FC"/>
<path d="M20.8533 12.3362L20.8686 12.3609C20.3227 12.412 19.7599 12.5062 19.1915 12.6465C15.7564 13.4942 13.4145 15.7037 13.9608 17.5815C14.1357 18.1826 14.5852 18.6768 15.2283 19.0432C13.0815 19.557 11.1174 19.174 10.3367 17.9286C9.2834 16.2482 10.7837 13.6341 13.6878 12.0898C16.5919 10.5455 19.7999 10.6558 20.8533 12.3362Z" stroke="#1995FC"/>
<path d="M11.1477 21.6639L11.1321 21.6385C11.6777 21.5874 12.2402 21.4932 12.8083 21.3529C16.2433 20.5049 18.5853 18.2951 18.0392 16.4173C17.8644 15.8163 17.415 15.3221 16.772 14.9558C18.9188 14.4416 20.8829 14.8244 21.6634 16.07C22.7165 17.7506 21.2161 20.3651 18.3123 21.9098C15.4085 23.4545 12.2008 23.3444 11.1477 21.6639Z" stroke="#1995FC"/>
</svg>
