<svg width="1360" height="759" viewBox="0 0 1360 759" fill="none" xmlns="http://www.w3.org/2000/svg">
<circle cx="8" cy="1.5" r="1.5" fill="#5D5D61" fill-opacity="0.5"/>
<circle cx="92" cy="1.5" r="1.5" fill="#5D5D61" fill-opacity="0.5"/>
<circle cx="176" cy="1.5" r="1.5" fill="#5D5D61" fill-opacity="0.5"/>
<circle cx="260" cy="1.5" r="1.5" fill="#5D5D61" fill-opacity="0.5"/>
<circle cx="344" cy="1.5" r="1.5" fill="#5D5D61" fill-opacity="0.5"/>
<circle cx="428" cy="1.5" r="1.5" fill="#5D5D61" fill-opacity="0.5"/>
<circle cx="512" cy="1.5" r="1.5" fill="#5D5D61" fill-opacity="0.5"/>
<circle cx="596" cy="1.5" r="1.5" fill="#5D5D61" fill-opacity="0.5"/>
<circle cx="680" cy="1.5" r="1.5" fill="#5D5D61" fill-opacity="0.5"/>
<circle cx="764" cy="1.5" r="1.5" fill="#5D5D61" fill-opacity="0.5"/>
<circle cx="848" cy="1.5" r="1.5" fill="#5D5D61" fill-opacity="0.5"/>
<circle cx="932" cy="1.5" r="1.5" fill="#5D5D61" fill-opacity="0.5"/>
<circle cx="1016" cy="1.5" r="1.5" fill="#5D5D61" fill-opacity="0.5"/>
<circle cx="1100" cy="1.5" r="1.5" fill="#5D5D61" fill-opacity="0.5"/>
<circle cx="1184" cy="1.5" r="1.5" fill="#5D5D61" fill-opacity="0.5"/>
<circle cx="1268" cy="1.5" r="1.5" fill="#5D5D61" fill-opacity="0.5"/>
<circle cx="1352" cy="1.5" r="1.5" fill="#5D5D61" fill-opacity="0.5"/>
<circle cx="8" cy="85.5" r="1.5" fill="#5D5D61" fill-opacity="0.5"/>
<circle cx="92" cy="85.5" r="1.5" fill="#5D5D61" fill-opacity="0.5"/>
<circle cx="176" cy="85.5" r="1.5" fill="#5D5D61" fill-opacity="0.5"/>
<circle cx="260" cy="85.5" r="1.5" fill="#5D5D61" fill-opacity="0.5"/>
<circle cx="344" cy="85.5" r="1.5" fill="#5D5D61" fill-opacity="0.5"/>
<circle cx="428" cy="85.5" r="1.5" fill="#5D5D61" fill-opacity="0.5"/>
<circle cx="512" cy="85.5" r="1.5" fill="#5D5D61" fill-opacity="0.5"/>
<circle cx="596" cy="85.5" r="1.5" fill="#5D5D61" fill-opacity="0.5"/>
<circle cx="680" cy="85.5" r="1.5" fill="#5D5D61" fill-opacity="0.5"/>
<circle cx="764" cy="85.5" r="1.5" fill="#5D5D61" fill-opacity="0.5"/>
<circle cx="848" cy="85.5" r="1.5" fill="#5D5D61" fill-opacity="0.5"/>
<circle cx="932" cy="85.5" r="1.5" fill="#5D5D61" fill-opacity="0.5"/>
<circle cx="1016" cy="85.5" r="1.5" fill="#5D5D61" fill-opacity="0.5"/>
<circle cx="1100" cy="85.5" r="1.5" fill="#5D5D61" fill-opacity="0.5"/>
<circle cx="1184" cy="85.5" r="1.5" fill="#5D5D61" fill-opacity="0.5"/>
<circle cx="1268" cy="85.5" r="1.5" fill="#5D5D61" fill-opacity="0.5"/>
<circle cx="1352" cy="85.5" r="1.5" fill="#5D5D61" fill-opacity="0.5"/>
<circle cx="8" cy="169.5" r="1.5" fill="#5D5D61" fill-opacity="0.5"/>
<circle cx="92" cy="169.5" r="1.5" fill="#5D5D61" fill-opacity="0.5"/>
<circle cx="176" cy="169.5" r="1.5" fill="#5D5D61" fill-opacity="0.5"/>
<circle cx="260" cy="169.5" r="1.5" fill="#5D5D61" fill-opacity="0.5"/>
<circle cx="344" cy="169.5" r="1.5" fill="#5D5D61" fill-opacity="0.5"/>
<circle cx="428" cy="169.5" r="1.5" fill="#5D5D61" fill-opacity="0.5"/>
<circle cx="512" cy="169.5" r="1.5" fill="#5D5D61" fill-opacity="0.5"/>
<circle cx="596" cy="169.5" r="1.5" fill="#5D5D61" fill-opacity="0.5"/>
<circle cx="680" cy="169.5" r="1.5" fill="#5D5D61" fill-opacity="0.5"/>
<circle cx="764" cy="169.5" r="1.5" fill="#5D5D61" fill-opacity="0.5"/>
<circle cx="848" cy="169.5" r="1.5" fill="#5D5D61" fill-opacity="0.5"/>
<circle cx="932" cy="169.5" r="1.5" fill="#5D5D61" fill-opacity="0.5"/>
<circle cx="1016" cy="169.5" r="1.5" fill="#5D5D61" fill-opacity="0.5"/>
<circle cx="1100" cy="169.5" r="1.5" fill="#5D5D61" fill-opacity="0.5"/>
<circle cx="1184" cy="169.5" r="1.5" fill="#5D5D61" fill-opacity="0.5"/>
<circle cx="1268" cy="169.5" r="1.5" fill="#5D5D61" fill-opacity="0.5"/>
<circle cx="1352" cy="169.5" r="1.5" fill="#5D5D61" fill-opacity="0.5"/>
<circle cx="8" cy="253.5" r="1.5" fill="#5D5D61" fill-opacity="0.5"/>
<circle cx="92" cy="253.5" r="1.5" fill="#5D5D61" fill-opacity="0.5"/>
<circle cx="176" cy="253.5" r="1.5" fill="#5D5D61" fill-opacity="0.5"/>
<circle cx="260" cy="253.5" r="1.5" fill="#5D5D61" fill-opacity="0.5"/>
<circle cx="344" cy="253.5" r="1.5" fill="#5D5D61" fill-opacity="0.5"/>
<circle cx="428" cy="253.5" r="1.5" fill="#5D5D61" fill-opacity="0.5"/>
<circle cx="512" cy="253.5" r="1.5" fill="#5D5D61" fill-opacity="0.5"/>
<circle cx="596" cy="253.5" r="1.5" fill="#5D5D61" fill-opacity="0.5"/>
<circle cx="680" cy="253.5" r="1.5" fill="#5D5D61" fill-opacity="0.5"/>
<circle cx="764" cy="253.5" r="1.5" fill="#5D5D61" fill-opacity="0.5"/>
<circle cx="848" cy="253.5" r="1.5" fill="#5D5D61" fill-opacity="0.5"/>
<circle cx="932" cy="253.5" r="1.5" fill="#5D5D61" fill-opacity="0.5"/>
<circle cx="1016" cy="253.5" r="1.5" fill="#5D5D61" fill-opacity="0.5"/>
<circle cx="1100" cy="253.5" r="1.5" fill="#5D5D61" fill-opacity="0.5"/>
<circle cx="1184" cy="253.5" r="1.5" fill="#5D5D61" fill-opacity="0.5"/>
<circle cx="1268" cy="253.5" r="1.5" fill="#5D5D61" fill-opacity="0.5"/>
<circle cx="1352" cy="253.5" r="1.5" fill="#5D5D61" fill-opacity="0.5"/>
<circle cx="8" cy="337.5" r="1.5" fill="#5D5D61" fill-opacity="0.5"/>
<circle cx="92" cy="337.5" r="1.5" fill="#5D5D61" fill-opacity="0.5"/>
<circle cx="176" cy="337.5" r="1.5" fill="#5D5D61" fill-opacity="0.5"/>
<circle cx="260" cy="337.5" r="1.5" fill="#5D5D61" fill-opacity="0.5"/>
<circle cx="344" cy="337.5" r="1.5" fill="#5D5D61" fill-opacity="0.5"/>
<circle cx="428" cy="337.5" r="1.5" fill="#5D5D61" fill-opacity="0.5"/>
<circle cx="512" cy="337.5" r="1.5" fill="#5D5D61" fill-opacity="0.5"/>
<circle cx="596" cy="337.5" r="1.5" fill="#5D5D61" fill-opacity="0.5"/>
<circle cx="680" cy="337.5" r="1.5" fill="#5D5D61" fill-opacity="0.5"/>
<circle cx="764" cy="337.5" r="1.5" fill="#5D5D61" fill-opacity="0.5"/>
<circle cx="848" cy="337.5" r="1.5" fill="#5D5D61" fill-opacity="0.5"/>
<circle cx="932" cy="337.5" r="1.5" fill="#5D5D61" fill-opacity="0.5"/>
<circle cx="1016" cy="337.5" r="1.5" fill="#5D5D61" fill-opacity="0.5"/>
<circle cx="1100" cy="337.5" r="1.5" fill="#5D5D61" fill-opacity="0.5"/>
<circle cx="1184" cy="337.5" r="1.5" fill="#5D5D61" fill-opacity="0.5"/>
<circle cx="1268" cy="337.5" r="1.5" fill="#5D5D61" fill-opacity="0.5"/>
<circle cx="1352" cy="337.5" r="1.5" fill="#5D5D61" fill-opacity="0.5"/>
<circle cx="8" cy="421.5" r="1.5" fill="#5D5D61" fill-opacity="0.5"/>
<circle cx="92" cy="421.5" r="1.5" fill="#5D5D61" fill-opacity="0.5"/>
<circle cx="176" cy="421.5" r="1.5" fill="#5D5D61" fill-opacity="0.5"/>
<circle cx="260" cy="421.5" r="1.5" fill="#5D5D61" fill-opacity="0.5"/>
<circle cx="344" cy="421.5" r="1.5" fill="#5D5D61" fill-opacity="0.5"/>
<circle cx="428" cy="421.5" r="1.5" fill="#5D5D61" fill-opacity="0.5"/>
<circle cx="512" cy="421.5" r="1.5" fill="#5D5D61" fill-opacity="0.5"/>
<circle cx="596" cy="421.5" r="1.5" fill="#5D5D61" fill-opacity="0.5"/>
<circle cx="680" cy="421.5" r="1.5" fill="#5D5D61" fill-opacity="0.5"/>
<circle cx="764" cy="421.5" r="1.5" fill="#5D5D61" fill-opacity="0.5"/>
<circle cx="848" cy="421.5" r="1.5" fill="#5D5D61" fill-opacity="0.5"/>
<circle cx="932" cy="421.5" r="1.5" fill="#5D5D61" fill-opacity="0.5"/>
<circle cx="1016" cy="421.5" r="1.5" fill="#5D5D61" fill-opacity="0.5"/>
<circle cx="1100" cy="421.5" r="1.5" fill="#5D5D61" fill-opacity="0.5"/>
<circle cx="1184" cy="421.5" r="1.5" fill="#5D5D61" fill-opacity="0.5"/>
<circle cx="1268" cy="421.5" r="1.5" fill="#5D5D61" fill-opacity="0.5"/>
<circle cx="1352" cy="421.5" r="1.5" fill="#5D5D61" fill-opacity="0.5"/>
<circle cx="8" cy="505.5" r="1.5" fill="#5D5D61" fill-opacity="0.5"/>
<circle cx="92" cy="505.5" r="1.5" fill="#5D5D61" fill-opacity="0.5"/>
<circle cx="176" cy="505.5" r="1.5" fill="#5D5D61" fill-opacity="0.5"/>
<circle cx="260" cy="505.5" r="1.5" fill="#5D5D61" fill-opacity="0.5"/>
<circle cx="344" cy="505.5" r="1.5" fill="#5D5D61" fill-opacity="0.5"/>
<circle cx="428" cy="505.5" r="1.5" fill="#5D5D61" fill-opacity="0.5"/>
<circle cx="512" cy="505.5" r="1.5" fill="#5D5D61" fill-opacity="0.5"/>
<circle cx="596" cy="505.5" r="1.5" fill="#5D5D61" fill-opacity="0.5"/>
<circle cx="680" cy="505.5" r="1.5" fill="#5D5D61" fill-opacity="0.5"/>
<circle cx="764" cy="505.5" r="1.5" fill="#5D5D61" fill-opacity="0.5"/>
<circle cx="848" cy="505.5" r="1.5" fill="#5D5D61" fill-opacity="0.5"/>
<circle cx="932" cy="505.5" r="1.5" fill="#5D5D61" fill-opacity="0.5"/>
<circle cx="1016" cy="505.5" r="1.5" fill="#5D5D61" fill-opacity="0.5"/>
<circle cx="1100" cy="505.5" r="1.5" fill="#5D5D61" fill-opacity="0.5"/>
<circle cx="1184" cy="505.5" r="1.5" fill="#5D5D61" fill-opacity="0.5"/>
<circle cx="1268" cy="505.5" r="1.5" fill="#5D5D61" fill-opacity="0.5"/>
<circle cx="1352" cy="505.5" r="1.5" fill="#5D5D61" fill-opacity="0.5"/>
<circle cx="8" cy="589.5" r="1.5" fill="#5D5D61" fill-opacity="0.5"/>
<circle cx="92" cy="589.5" r="1.5" fill="#5D5D61" fill-opacity="0.5"/>
<circle cx="176" cy="589.5" r="1.5" fill="#5D5D61" fill-opacity="0.5"/>
<circle cx="260" cy="589.5" r="1.5" fill="#5D5D61" fill-opacity="0.5"/>
<circle cx="344" cy="589.5" r="1.5" fill="#5D5D61" fill-opacity="0.5"/>
<circle cx="428" cy="589.5" r="1.5" fill="#5D5D61" fill-opacity="0.5"/>
<circle cx="512" cy="589.5" r="1.5" fill="#5D5D61" fill-opacity="0.5"/>
<circle cx="596" cy="589.5" r="1.5" fill="#5D5D61" fill-opacity="0.5"/>
<circle cx="680" cy="589.5" r="1.5" fill="#5D5D61" fill-opacity="0.5"/>
<circle cx="764" cy="589.5" r="1.5" fill="#5D5D61" fill-opacity="0.5"/>
<circle cx="848" cy="589.5" r="1.5" fill="#5D5D61" fill-opacity="0.5"/>
<circle cx="932" cy="589.5" r="1.5" fill="#5D5D61" fill-opacity="0.5"/>
<circle cx="1016" cy="589.5" r="1.5" fill="#5D5D61" fill-opacity="0.5"/>
<circle cx="1100" cy="589.5" r="1.5" fill="#5D5D61" fill-opacity="0.5"/>
<circle cx="1184" cy="589.5" r="1.5" fill="#5D5D61" fill-opacity="0.5"/>
<circle cx="1268" cy="589.5" r="1.5" fill="#5D5D61" fill-opacity="0.5"/>
<circle cx="1352" cy="589.5" r="1.5" fill="#5D5D61" fill-opacity="0.5"/>
<circle cx="8" cy="673.5" r="1.5" fill="#5D5D61" fill-opacity="0.5"/>
<circle cx="92" cy="673.5" r="1.5" fill="#5D5D61" fill-opacity="0.5"/>
<circle cx="176" cy="673.5" r="1.5" fill="#5D5D61" fill-opacity="0.5"/>
<circle cx="260" cy="673.5" r="1.5" fill="#5D5D61" fill-opacity="0.5"/>
<circle cx="344" cy="673.5" r="1.5" fill="#5D5D61" fill-opacity="0.5"/>
<circle cx="428" cy="673.5" r="1.5" fill="#5D5D61" fill-opacity="0.5"/>
<circle cx="512" cy="673.5" r="1.5" fill="#5D5D61" fill-opacity="0.5"/>
<circle cx="596" cy="673.5" r="1.5" fill="#5D5D61" fill-opacity="0.5"/>
<circle cx="680" cy="673.5" r="1.5" fill="#5D5D61" fill-opacity="0.5"/>
<circle cx="764" cy="673.5" r="1.5" fill="#5D5D61" fill-opacity="0.5"/>
<circle cx="848" cy="673.5" r="1.5" fill="#5D5D61" fill-opacity="0.5"/>
<circle cx="932" cy="673.5" r="1.5" fill="#5D5D61" fill-opacity="0.5"/>
<circle cx="1016" cy="673.5" r="1.5" fill="#5D5D61" fill-opacity="0.5"/>
<circle cx="1100" cy="673.5" r="1.5" fill="#5D5D61" fill-opacity="0.5"/>
<circle cx="1184" cy="673.5" r="1.5" fill="#5D5D61" fill-opacity="0.5"/>
<circle cx="1268" cy="673.5" r="1.5" fill="#5D5D61" fill-opacity="0.5"/>
<circle cx="1352" cy="673.5" r="1.5" fill="#5D5D61" fill-opacity="0.5"/>
<circle cx="8" cy="757.5" r="1.5" fill="#5D5D61" fill-opacity="0.5"/>
<circle cx="92" cy="757.5" r="1.5" fill="#5D5D61" fill-opacity="0.5"/>
<circle cx="176" cy="757.5" r="1.5" fill="#5D5D61" fill-opacity="0.5"/>
<circle cx="260" cy="757.5" r="1.5" fill="#5D5D61" fill-opacity="0.5"/>
<circle cx="344" cy="757.5" r="1.5" fill="#5D5D61" fill-opacity="0.5"/>
<circle cx="428" cy="757.5" r="1.5" fill="#5D5D61" fill-opacity="0.5"/>
<circle cx="512" cy="757.5" r="1.5" fill="#5D5D61" fill-opacity="0.5"/>
<circle cx="596" cy="757.5" r="1.5" fill="#5D5D61" fill-opacity="0.5"/>
<circle cx="680" cy="757.5" r="1.5" fill="#5D5D61" fill-opacity="0.5"/>
<circle cx="764" cy="757.5" r="1.5" fill="#5D5D61" fill-opacity="0.5"/>
<circle cx="848" cy="757.5" r="1.5" fill="#5D5D61" fill-opacity="0.5"/>
<circle cx="932" cy="757.5" r="1.5" fill="#5D5D61" fill-opacity="0.5"/>
<circle cx="1016" cy="757.5" r="1.5" fill="#5D5D61" fill-opacity="0.5"/>
<circle cx="1100" cy="757.5" r="1.5" fill="#5D5D61" fill-opacity="0.5"/>
<circle cx="1184" cy="757.5" r="1.5" fill="#5D5D61" fill-opacity="0.5"/>
<circle cx="1268" cy="757.5" r="1.5" fill="#5D5D61" fill-opacity="0.5"/>
<circle cx="1352" cy="757.5" r="1.5" fill="#5D5D61" fill-opacity="0.5"/>
</svg>
