<svg width="768" height="759" viewBox="0 0 768 759" fill="none" xmlns="http://www.w3.org/2000/svg">
<mask id="mask0_941_40019" style="mask-type:alpha" maskUnits="userSpaceOnUse" x="17" y="46" width="735" height="668">
<rect x="17" y="46" width="735" height="668" rx="322" fill="#1995FC"/>
</mask>
<g mask="url(#mask0_941_40019)">
<path d="M-286 1.5C-286 2.32843 -286.672 3 -287.5 3C-288.328 3 -289 2.32843 -289 1.5C-289 0.671573 -288.328 0 -287.5 0C-286.672 0 -286 0.671573 -286 1.5Z" fill="#1995FC"/>
<path d="M-202 1.5C-202 2.32843 -202.672 3 -203.5 3C-204.328 3 -205 2.32843 -205 1.5C-205 0.671573 -204.328 0 -203.5 0C-202.672 0 -202 0.671573 -202 1.5Z" fill="#1995FC"/>
<path d="M-118 1.5C-118 2.32843 -118.672 3 -119.5 3C-120.328 3 -121 2.32843 -121 1.5C-121 0.671573 -120.328 0 -119.5 0C-118.672 0 -118 0.671573 -118 1.5Z" fill="#1995FC"/>
<path d="M-34 1.5C-34 2.32843 -34.6716 3 -35.5 3C-36.3284 3 -37 2.32843 -37 1.5C-37 0.671573 -36.3284 0 -35.5 0C-34.6716 0 -34 0.671573 -34 1.5Z" fill="#1995FC"/>
<path d="M50 1.5C50 2.32843 49.3284 3 48.5 3C47.6716 3 47 2.32843 47 1.5C47 0.671573 47.6716 0 48.5 0C49.3284 0 50 0.671573 50 1.5Z" fill="#1995FC"/>
<path d="M134 1.5C134 2.32843 133.328 3 132.5 3C131.672 3 131 2.32843 131 1.5C131 0.671573 131.672 0 132.5 0C133.328 0 134 0.671573 134 1.5Z" fill="#1995FC"/>
<path d="M218 1.5C218 2.32843 217.328 3 216.5 3C215.672 3 215 2.32843 215 1.5C215 0.671573 215.672 0 216.5 0C217.328 0 218 0.671573 218 1.5Z" fill="#1995FC"/>
<path d="M302 1.5C302 2.32843 301.328 3 300.5 3C299.672 3 299 2.32843 299 1.5C299 0.671573 299.672 0 300.5 0C301.328 0 302 0.671573 302 1.5Z" fill="#1995FC"/>
<path d="M386 1.5C386 2.32843 385.328 3 384.5 3C383.672 3 383 2.32843 383 1.5C383 0.671573 383.672 0 384.5 0C385.328 0 386 0.671573 386 1.5Z" fill="#1995FC"/>
<path d="M470 1.5C470 2.32843 469.328 3 468.5 3C467.672 3 467 2.32843 467 1.5C467 0.671573 467.672 0 468.5 0C469.328 0 470 0.671573 470 1.5Z" fill="#1995FC"/>
<path d="M554 1.5C554 2.32843 553.328 3 552.5 3C551.672 3 551 2.32843 551 1.5C551 0.671573 551.672 0 552.5 0C553.328 0 554 0.671573 554 1.5Z" fill="#1995FC"/>
<path d="M638 1.5C638 2.32843 637.328 3 636.5 3C635.672 3 635 2.32843 635 1.5C635 0.671573 635.672 0 636.5 0C637.328 0 638 0.671573 638 1.5Z" fill="#1995FC"/>
<path d="M722 1.5C722 2.32843 721.328 3 720.5 3C719.672 3 719 2.32843 719 1.5C719 0.671573 719.672 0 720.5 0C721.328 0 722 0.671573 722 1.5Z" fill="#1995FC"/>
<path d="M806 1.5C806 2.32843 805.328 3 804.5 3C803.672 3 803 2.32843 803 1.5C803 0.671573 803.672 0 804.5 0C805.328 0 806 0.671573 806 1.5Z" fill="#1995FC"/>
<path d="M890 1.5C890 2.32843 889.328 3 888.5 3C887.672 3 887 2.32843 887 1.5C887 0.671573 887.672 0 888.5 0C889.328 0 890 0.671573 890 1.5Z" fill="#1995FC"/>
<path d="M974 1.5C974 2.32843 973.328 3 972.5 3C971.672 3 971 2.32843 971 1.5C971 0.671573 971.672 0 972.5 0C973.328 0 974 0.671573 974 1.5Z" fill="#1995FC"/>
<path d="M1058 1.5C1058 2.32843 1057.33 3 1056.5 3C1055.67 3 1055 2.32843 1055 1.5C1055 0.671573 1055.67 0 1056.5 0C1057.33 0 1058 0.671573 1058 1.5Z" fill="#1995FC"/>
<path d="M-286 85.5C-286 86.3284 -286.672 87 -287.5 87C-288.328 87 -289 86.3284 -289 85.5C-289 84.6716 -288.328 84 -287.5 84C-286.672 84 -286 84.6716 -286 85.5Z" fill="#1995FC"/>
<path d="M-202 85.5C-202 86.3284 -202.672 87 -203.5 87C-204.328 87 -205 86.3284 -205 85.5C-205 84.6716 -204.328 84 -203.5 84C-202.672 84 -202 84.6716 -202 85.5Z" fill="#1995FC"/>
<path d="M-118 85.5C-118 86.3284 -118.672 87 -119.5 87C-120.328 87 -121 86.3284 -121 85.5C-121 84.6716 -120.328 84 -119.5 84C-118.672 84 -118 84.6716 -118 85.5Z" fill="#1995FC"/>
<path d="M-34 85.5C-34 86.3284 -34.6716 87 -35.5 87C-36.3284 87 -37 86.3284 -37 85.5C-37 84.6716 -36.3284 84 -35.5 84C-34.6716 84 -34 84.6716 -34 85.5Z" fill="#1995FC"/>
<path d="M50 85.5C50 86.3284 49.3284 87 48.5 87C47.6716 87 47 86.3284 47 85.5C47 84.6716 47.6716 84 48.5 84C49.3284 84 50 84.6716 50 85.5Z" fill="#1995FC"/>
<path d="M134 85.5C134 86.3284 133.328 87 132.5 87C131.672 87 131 86.3284 131 85.5C131 84.6716 131.672 84 132.5 84C133.328 84 134 84.6716 134 85.5Z" fill="#1995FC"/>
<path d="M218 85.5C218 86.3284 217.328 87 216.5 87C215.672 87 215 86.3284 215 85.5C215 84.6716 215.672 84 216.5 84C217.328 84 218 84.6716 218 85.5Z" fill="#1995FC"/>
<path d="M302 85.5C302 86.3284 301.328 87 300.5 87C299.672 87 299 86.3284 299 85.5C299 84.6716 299.672 84 300.5 84C301.328 84 302 84.6716 302 85.5Z" fill="#1995FC"/>
<path d="M386 85.5C386 86.3284 385.328 87 384.5 87C383.672 87 383 86.3284 383 85.5C383 84.6716 383.672 84 384.5 84C385.328 84 386 84.6716 386 85.5Z" fill="#1995FC"/>
<path d="M470 85.5C470 86.3284 469.328 87 468.5 87C467.672 87 467 86.3284 467 85.5C467 84.6716 467.672 84 468.5 84C469.328 84 470 84.6716 470 85.5Z" fill="#1995FC"/>
<path d="M554 85.5C554 86.3284 553.328 87 552.5 87C551.672 87 551 86.3284 551 85.5C551 84.6716 551.672 84 552.5 84C553.328 84 554 84.6716 554 85.5Z" fill="#1995FC"/>
<path d="M638 85.5C638 86.3284 637.328 87 636.5 87C635.672 87 635 86.3284 635 85.5C635 84.6716 635.672 84 636.5 84C637.328 84 638 84.6716 638 85.5Z" fill="#1995FC"/>
<path d="M722 85.5C722 86.3284 721.328 87 720.5 87C719.672 87 719 86.3284 719 85.5C719 84.6716 719.672 84 720.5 84C721.328 84 722 84.6716 722 85.5Z" fill="#1995FC"/>
<path d="M806 85.5C806 86.3284 805.328 87 804.5 87C803.672 87 803 86.3284 803 85.5C803 84.6716 803.672 84 804.5 84C805.328 84 806 84.6716 806 85.5Z" fill="#1995FC"/>
<path d="M890 85.5C890 86.3284 889.328 87 888.5 87C887.672 87 887 86.3284 887 85.5C887 84.6716 887.672 84 888.5 84C889.328 84 890 84.6716 890 85.5Z" fill="#1995FC"/>
<path d="M974 85.5C974 86.3284 973.328 87 972.5 87C971.672 87 971 86.3284 971 85.5C971 84.6716 971.672 84 972.5 84C973.328 84 974 84.6716 974 85.5Z" fill="#1995FC"/>
<path d="M1058 85.5C1058 86.3284 1057.33 87 1056.5 87C1055.67 87 1055 86.3284 1055 85.5C1055 84.6716 1055.67 84 1056.5 84C1057.33 84 1058 84.6716 1058 85.5Z" fill="#1995FC"/>
<path d="M-286 169.5C-286 170.328 -286.672 171 -287.5 171C-288.328 171 -289 170.328 -289 169.5C-289 168.672 -288.328 168 -287.5 168C-286.672 168 -286 168.672 -286 169.5Z" fill="#1995FC"/>
<path d="M-202 169.5C-202 170.328 -202.672 171 -203.5 171C-204.328 171 -205 170.328 -205 169.5C-205 168.672 -204.328 168 -203.5 168C-202.672 168 -202 168.672 -202 169.5Z" fill="#1995FC"/>
<path d="M-118 169.5C-118 170.328 -118.672 171 -119.5 171C-120.328 171 -121 170.328 -121 169.5C-121 168.672 -120.328 168 -119.5 168C-118.672 168 -118 168.672 -118 169.5Z" fill="#1995FC"/>
<path d="M-34 169.5C-34 170.328 -34.6716 171 -35.5 171C-36.3284 171 -37 170.328 -37 169.5C-37 168.672 -36.3284 168 -35.5 168C-34.6716 168 -34 168.672 -34 169.5Z" fill="#1995FC"/>
<path d="M50 169.5C50 170.328 49.3284 171 48.5 171C47.6716 171 47 170.328 47 169.5C47 168.672 47.6716 168 48.5 168C49.3284 168 50 168.672 50 169.5Z" fill="#1995FC"/>
<path d="M134 169.5C134 170.328 133.328 171 132.5 171C131.672 171 131 170.328 131 169.5C131 168.672 131.672 168 132.5 168C133.328 168 134 168.672 134 169.5Z" fill="#1995FC"/>
<path d="M218 169.5C218 170.328 217.328 171 216.5 171C215.672 171 215 170.328 215 169.5C215 168.672 215.672 168 216.5 168C217.328 168 218 168.672 218 169.5Z" fill="#1995FC"/>
<path d="M302 169.5C302 170.328 301.328 171 300.5 171C299.672 171 299 170.328 299 169.5C299 168.672 299.672 168 300.5 168C301.328 168 302 168.672 302 169.5Z" fill="#1995FC"/>
<path d="M386 169.5C386 170.328 385.328 171 384.5 171C383.672 171 383 170.328 383 169.5C383 168.672 383.672 168 384.5 168C385.328 168 386 168.672 386 169.5Z" fill="#1995FC"/>
<path d="M470 169.5C470 170.328 469.328 171 468.5 171C467.672 171 467 170.328 467 169.5C467 168.672 467.672 168 468.5 168C469.328 168 470 168.672 470 169.5Z" fill="#1995FC"/>
<path d="M554 169.5C554 170.328 553.328 171 552.5 171C551.672 171 551 170.328 551 169.5C551 168.672 551.672 168 552.5 168C553.328 168 554 168.672 554 169.5Z" fill="#1995FC"/>
<path d="M638 169.5C638 170.328 637.328 171 636.5 171C635.672 171 635 170.328 635 169.5C635 168.672 635.672 168 636.5 168C637.328 168 638 168.672 638 169.5Z" fill="#1995FC"/>
<path d="M722 169.5C722 170.328 721.328 171 720.5 171C719.672 171 719 170.328 719 169.5C719 168.672 719.672 168 720.5 168C721.328 168 722 168.672 722 169.5Z" fill="#1995FC"/>
<path d="M806 169.5C806 170.328 805.328 171 804.5 171C803.672 171 803 170.328 803 169.5C803 168.672 803.672 168 804.5 168C805.328 168 806 168.672 806 169.5Z" fill="#1995FC"/>
<path d="M890 169.5C890 170.328 889.328 171 888.5 171C887.672 171 887 170.328 887 169.5C887 168.672 887.672 168 888.5 168C889.328 168 890 168.672 890 169.5Z" fill="#1995FC"/>
<path d="M974 169.5C974 170.328 973.328 171 972.5 171C971.672 171 971 170.328 971 169.5C971 168.672 971.672 168 972.5 168C973.328 168 974 168.672 974 169.5Z" fill="#1995FC"/>
<path d="M1058 169.5C1058 170.328 1057.33 171 1056.5 171C1055.67 171 1055 170.328 1055 169.5C1055 168.672 1055.67 168 1056.5 168C1057.33 168 1058 168.672 1058 169.5Z" fill="#1995FC"/>
<path d="M-286 253.5C-286 254.328 -286.672 255 -287.5 255C-288.328 255 -289 254.328 -289 253.5C-289 252.672 -288.328 252 -287.5 252C-286.672 252 -286 252.672 -286 253.5Z" fill="#1995FC"/>
<path d="M-202 253.5C-202 254.328 -202.672 255 -203.5 255C-204.328 255 -205 254.328 -205 253.5C-205 252.672 -204.328 252 -203.5 252C-202.672 252 -202 252.672 -202 253.5Z" fill="#1995FC"/>
<path d="M-118 253.5C-118 254.328 -118.672 255 -119.5 255C-120.328 255 -121 254.328 -121 253.5C-121 252.672 -120.328 252 -119.5 252C-118.672 252 -118 252.672 -118 253.5Z" fill="#1995FC"/>
<path d="M-34 253.5C-34 254.328 -34.6716 255 -35.5 255C-36.3284 255 -37 254.328 -37 253.5C-37 252.672 -36.3284 252 -35.5 252C-34.6716 252 -34 252.672 -34 253.5Z" fill="#1995FC"/>
<path d="M50 253.5C50 254.328 49.3284 255 48.5 255C47.6716 255 47 254.328 47 253.5C47 252.672 47.6716 252 48.5 252C49.3284 252 50 252.672 50 253.5Z" fill="#1995FC"/>
<path d="M134 253.5C134 254.328 133.328 255 132.5 255C131.672 255 131 254.328 131 253.5C131 252.672 131.672 252 132.5 252C133.328 252 134 252.672 134 253.5Z" fill="#1995FC"/>
<path d="M218 253.5C218 254.328 217.328 255 216.5 255C215.672 255 215 254.328 215 253.5C215 252.672 215.672 252 216.5 252C217.328 252 218 252.672 218 253.5Z" fill="#1995FC"/>
<path d="M302 253.5C302 254.328 301.328 255 300.5 255C299.672 255 299 254.328 299 253.5C299 252.672 299.672 252 300.5 252C301.328 252 302 252.672 302 253.5Z" fill="#1995FC"/>
<path d="M386 253.5C386 254.328 385.328 255 384.5 255C383.672 255 383 254.328 383 253.5C383 252.672 383.672 252 384.5 252C385.328 252 386 252.672 386 253.5Z" fill="#1995FC"/>
<path d="M470 253.5C470 254.328 469.328 255 468.5 255C467.672 255 467 254.328 467 253.5C467 252.672 467.672 252 468.5 252C469.328 252 470 252.672 470 253.5Z" fill="#1995FC"/>
<path d="M554 253.5C554 254.328 553.328 255 552.5 255C551.672 255 551 254.328 551 253.5C551 252.672 551.672 252 552.5 252C553.328 252 554 252.672 554 253.5Z" fill="#1995FC"/>
<path d="M638 253.5C638 254.328 637.328 255 636.5 255C635.672 255 635 254.328 635 253.5C635 252.672 635.672 252 636.5 252C637.328 252 638 252.672 638 253.5Z" fill="#1995FC"/>
<path d="M722 253.5C722 254.328 721.328 255 720.5 255C719.672 255 719 254.328 719 253.5C719 252.672 719.672 252 720.5 252C721.328 252 722 252.672 722 253.5Z" fill="#1995FC"/>
<path d="M806 253.5C806 254.328 805.328 255 804.5 255C803.672 255 803 254.328 803 253.5C803 252.672 803.672 252 804.5 252C805.328 252 806 252.672 806 253.5Z" fill="#1995FC"/>
<path d="M890 253.5C890 254.328 889.328 255 888.5 255C887.672 255 887 254.328 887 253.5C887 252.672 887.672 252 888.5 252C889.328 252 890 252.672 890 253.5Z" fill="#1995FC"/>
<path d="M974 253.5C974 254.328 973.328 255 972.5 255C971.672 255 971 254.328 971 253.5C971 252.672 971.672 252 972.5 252C973.328 252 974 252.672 974 253.5Z" fill="#1995FC"/>
<path d="M1058 253.5C1058 254.328 1057.33 255 1056.5 255C1055.67 255 1055 254.328 1055 253.5C1055 252.672 1055.67 252 1056.5 252C1057.33 252 1058 252.672 1058 253.5Z" fill="#1995FC"/>
<path d="M-286 337.5C-286 338.328 -286.672 339 -287.5 339C-288.328 339 -289 338.328 -289 337.5C-289 336.672 -288.328 336 -287.5 336C-286.672 336 -286 336.672 -286 337.5Z" fill="#1995FC"/>
<path d="M-202 337.5C-202 338.328 -202.672 339 -203.5 339C-204.328 339 -205 338.328 -205 337.5C-205 336.672 -204.328 336 -203.5 336C-202.672 336 -202 336.672 -202 337.5Z" fill="#1995FC"/>
<path d="M-118 337.5C-118 338.328 -118.672 339 -119.5 339C-120.328 339 -121 338.328 -121 337.5C-121 336.672 -120.328 336 -119.5 336C-118.672 336 -118 336.672 -118 337.5Z" fill="#1995FC"/>
<path d="M-34 337.5C-34 338.328 -34.6716 339 -35.5 339C-36.3284 339 -37 338.328 -37 337.5C-37 336.672 -36.3284 336 -35.5 336C-34.6716 336 -34 336.672 -34 337.5Z" fill="#1995FC"/>
<path d="M50 337.5C50 338.328 49.3284 339 48.5 339C47.6716 339 47 338.328 47 337.5C47 336.672 47.6716 336 48.5 336C49.3284 336 50 336.672 50 337.5Z" fill="#1995FC"/>
<path d="M134 337.5C134 338.328 133.328 339 132.5 339C131.672 339 131 338.328 131 337.5C131 336.672 131.672 336 132.5 336C133.328 336 134 336.672 134 337.5Z" fill="#1995FC"/>
<path d="M218 337.5C218 338.328 217.328 339 216.5 339C215.672 339 215 338.328 215 337.5C215 336.672 215.672 336 216.5 336C217.328 336 218 336.672 218 337.5Z" fill="#1995FC"/>
<path d="M302 337.5C302 338.328 301.328 339 300.5 339C299.672 339 299 338.328 299 337.5C299 336.672 299.672 336 300.5 336C301.328 336 302 336.672 302 337.5Z" fill="#1995FC"/>
<path d="M386 337.5C386 338.328 385.328 339 384.5 339C383.672 339 383 338.328 383 337.5C383 336.672 383.672 336 384.5 336C385.328 336 386 336.672 386 337.5Z" fill="#1995FC"/>
<path d="M470 337.5C470 338.328 469.328 339 468.5 339C467.672 339 467 338.328 467 337.5C467 336.672 467.672 336 468.5 336C469.328 336 470 336.672 470 337.5Z" fill="#1995FC"/>
<path d="M554 337.5C554 338.328 553.328 339 552.5 339C551.672 339 551 338.328 551 337.5C551 336.672 551.672 336 552.5 336C553.328 336 554 336.672 554 337.5Z" fill="#1995FC"/>
<path d="M638 337.5C638 338.328 637.328 339 636.5 339C635.672 339 635 338.328 635 337.5C635 336.672 635.672 336 636.5 336C637.328 336 638 336.672 638 337.5Z" fill="#1995FC"/>
<path d="M722 337.5C722 338.328 721.328 339 720.5 339C719.672 339 719 338.328 719 337.5C719 336.672 719.672 336 720.5 336C721.328 336 722 336.672 722 337.5Z" fill="#1995FC"/>
<path d="M806 337.5C806 338.328 805.328 339 804.5 339C803.672 339 803 338.328 803 337.5C803 336.672 803.672 336 804.5 336C805.328 336 806 336.672 806 337.5Z" fill="#1995FC"/>
<path d="M890 337.5C890 338.328 889.328 339 888.5 339C887.672 339 887 338.328 887 337.5C887 336.672 887.672 336 888.5 336C889.328 336 890 336.672 890 337.5Z" fill="#1995FC"/>
<path d="M974 337.5C974 338.328 973.328 339 972.5 339C971.672 339 971 338.328 971 337.5C971 336.672 971.672 336 972.5 336C973.328 336 974 336.672 974 337.5Z" fill="#1995FC"/>
<path d="M1058 337.5C1058 338.328 1057.33 339 1056.5 339C1055.67 339 1055 338.328 1055 337.5C1055 336.672 1055.67 336 1056.5 336C1057.33 336 1058 336.672 1058 337.5Z" fill="#1995FC"/>
<path d="M-286 421.5C-286 422.328 -286.672 423 -287.5 423C-288.328 423 -289 422.328 -289 421.5C-289 420.672 -288.328 420 -287.5 420C-286.672 420 -286 420.672 -286 421.5Z" fill="#1995FC"/>
<path d="M-202 421.5C-202 422.328 -202.672 423 -203.5 423C-204.328 423 -205 422.328 -205 421.5C-205 420.672 -204.328 420 -203.5 420C-202.672 420 -202 420.672 -202 421.5Z" fill="#1995FC"/>
<path d="M-118 421.5C-118 422.328 -118.672 423 -119.5 423C-120.328 423 -121 422.328 -121 421.5C-121 420.672 -120.328 420 -119.5 420C-118.672 420 -118 420.672 -118 421.5Z" fill="#1995FC"/>
<path d="M-34 421.5C-34 422.328 -34.6716 423 -35.5 423C-36.3284 423 -37 422.328 -37 421.5C-37 420.672 -36.3284 420 -35.5 420C-34.6716 420 -34 420.672 -34 421.5Z" fill="#1995FC"/>
<path d="M50 421.5C50 422.328 49.3284 423 48.5 423C47.6716 423 47 422.328 47 421.5C47 420.672 47.6716 420 48.5 420C49.3284 420 50 420.672 50 421.5Z" fill="#1995FC"/>
<path d="M134 421.5C134 422.328 133.328 423 132.5 423C131.672 423 131 422.328 131 421.5C131 420.672 131.672 420 132.5 420C133.328 420 134 420.672 134 421.5Z" fill="#1995FC"/>
<path d="M218 421.5C218 422.328 217.328 423 216.5 423C215.672 423 215 422.328 215 421.5C215 420.672 215.672 420 216.5 420C217.328 420 218 420.672 218 421.5Z" fill="#1995FC"/>
<path d="M302 421.5C302 422.328 301.328 423 300.5 423C299.672 423 299 422.328 299 421.5C299 420.672 299.672 420 300.5 420C301.328 420 302 420.672 302 421.5Z" fill="#1995FC"/>
<path d="M386 421.5C386 422.328 385.328 423 384.5 423C383.672 423 383 422.328 383 421.5C383 420.672 383.672 420 384.5 420C385.328 420 386 420.672 386 421.5Z" fill="#1995FC"/>
<path d="M470 421.5C470 422.328 469.328 423 468.5 423C467.672 423 467 422.328 467 421.5C467 420.672 467.672 420 468.5 420C469.328 420 470 420.672 470 421.5Z" fill="#1995FC"/>
<path d="M554 421.5C554 422.328 553.328 423 552.5 423C551.672 423 551 422.328 551 421.5C551 420.672 551.672 420 552.5 420C553.328 420 554 420.672 554 421.5Z" fill="#1995FC"/>
<path d="M638 421.5C638 422.328 637.328 423 636.5 423C635.672 423 635 422.328 635 421.5C635 420.672 635.672 420 636.5 420C637.328 420 638 420.672 638 421.5Z" fill="#1995FC"/>
<path d="M722 421.5C722 422.328 721.328 423 720.5 423C719.672 423 719 422.328 719 421.5C719 420.672 719.672 420 720.5 420C721.328 420 722 420.672 722 421.5Z" fill="#1995FC"/>
<path d="M806 421.5C806 422.328 805.328 423 804.5 423C803.672 423 803 422.328 803 421.5C803 420.672 803.672 420 804.5 420C805.328 420 806 420.672 806 421.5Z" fill="#1995FC"/>
<path d="M890 421.5C890 422.328 889.328 423 888.5 423C887.672 423 887 422.328 887 421.5C887 420.672 887.672 420 888.5 420C889.328 420 890 420.672 890 421.5Z" fill="#1995FC"/>
<path d="M974 421.5C974 422.328 973.328 423 972.5 423C971.672 423 971 422.328 971 421.5C971 420.672 971.672 420 972.5 420C973.328 420 974 420.672 974 421.5Z" fill="#1995FC"/>
<path d="M1058 421.5C1058 422.328 1057.33 423 1056.5 423C1055.67 423 1055 422.328 1055 421.5C1055 420.672 1055.67 420 1056.5 420C1057.33 420 1058 420.672 1058 421.5Z" fill="#1995FC"/>
<path d="M-286 505.5C-286 506.328 -286.672 507 -287.5 507C-288.328 507 -289 506.328 -289 505.5C-289 504.672 -288.328 504 -287.5 504C-286.672 504 -286 504.672 -286 505.5Z" fill="#1995FC"/>
<path d="M-202 505.5C-202 506.328 -202.672 507 -203.5 507C-204.328 507 -205 506.328 -205 505.5C-205 504.672 -204.328 504 -203.5 504C-202.672 504 -202 504.672 -202 505.5Z" fill="#1995FC"/>
<path d="M-118 505.5C-118 506.328 -118.672 507 -119.5 507C-120.328 507 -121 506.328 -121 505.5C-121 504.672 -120.328 504 -119.5 504C-118.672 504 -118 504.672 -118 505.5Z" fill="#1995FC"/>
<path d="M-34 505.5C-34 506.328 -34.6716 507 -35.5 507C-36.3284 507 -37 506.328 -37 505.5C-37 504.672 -36.3284 504 -35.5 504C-34.6716 504 -34 504.672 -34 505.5Z" fill="#1995FC"/>
<path d="M50 505.5C50 506.328 49.3284 507 48.5 507C47.6716 507 47 506.328 47 505.5C47 504.672 47.6716 504 48.5 504C49.3284 504 50 504.672 50 505.5Z" fill="#1995FC"/>
<path d="M134 505.5C134 506.328 133.328 507 132.5 507C131.672 507 131 506.328 131 505.5C131 504.672 131.672 504 132.5 504C133.328 504 134 504.672 134 505.5Z" fill="#1995FC"/>
<path d="M218 505.5C218 506.328 217.328 507 216.5 507C215.672 507 215 506.328 215 505.5C215 504.672 215.672 504 216.5 504C217.328 504 218 504.672 218 505.5Z" fill="#1995FC"/>
<path d="M302 505.5C302 506.328 301.328 507 300.5 507C299.672 507 299 506.328 299 505.5C299 504.672 299.672 504 300.5 504C301.328 504 302 504.672 302 505.5Z" fill="#1995FC"/>
<path d="M386 505.5C386 506.328 385.328 507 384.5 507C383.672 507 383 506.328 383 505.5C383 504.672 383.672 504 384.5 504C385.328 504 386 504.672 386 505.5Z" fill="#1995FC"/>
<path d="M470 505.5C470 506.328 469.328 507 468.5 507C467.672 507 467 506.328 467 505.5C467 504.672 467.672 504 468.5 504C469.328 504 470 504.672 470 505.5Z" fill="#1995FC"/>
<path d="M554 505.5C554 506.328 553.328 507 552.5 507C551.672 507 551 506.328 551 505.5C551 504.672 551.672 504 552.5 504C553.328 504 554 504.672 554 505.5Z" fill="#1995FC"/>
<path d="M638 505.5C638 506.328 637.328 507 636.5 507C635.672 507 635 506.328 635 505.5C635 504.672 635.672 504 636.5 504C637.328 504 638 504.672 638 505.5Z" fill="#1995FC"/>
<path d="M722 505.5C722 506.328 721.328 507 720.5 507C719.672 507 719 506.328 719 505.5C719 504.672 719.672 504 720.5 504C721.328 504 722 504.672 722 505.5Z" fill="#1995FC"/>
<path d="M806 505.5C806 506.328 805.328 507 804.5 507C803.672 507 803 506.328 803 505.5C803 504.672 803.672 504 804.5 504C805.328 504 806 504.672 806 505.5Z" fill="#1995FC"/>
<path d="M890 505.5C890 506.328 889.328 507 888.5 507C887.672 507 887 506.328 887 505.5C887 504.672 887.672 504 888.5 504C889.328 504 890 504.672 890 505.5Z" fill="#1995FC"/>
<path d="M974 505.5C974 506.328 973.328 507 972.5 507C971.672 507 971 506.328 971 505.5C971 504.672 971.672 504 972.5 504C973.328 504 974 504.672 974 505.5Z" fill="#1995FC"/>
<path d="M1058 505.5C1058 506.328 1057.33 507 1056.5 507C1055.67 507 1055 506.328 1055 505.5C1055 504.672 1055.67 504 1056.5 504C1057.33 504 1058 504.672 1058 505.5Z" fill="#1995FC"/>
<path d="M-286 589.5C-286 590.328 -286.672 591 -287.5 591C-288.328 591 -289 590.328 -289 589.5C-289 588.672 -288.328 588 -287.5 588C-286.672 588 -286 588.672 -286 589.5Z" fill="#1995FC"/>
<path d="M-202 589.5C-202 590.328 -202.672 591 -203.5 591C-204.328 591 -205 590.328 -205 589.5C-205 588.672 -204.328 588 -203.5 588C-202.672 588 -202 588.672 -202 589.5Z" fill="#1995FC"/>
<path d="M-118 589.5C-118 590.328 -118.672 591 -119.5 591C-120.328 591 -121 590.328 -121 589.5C-121 588.672 -120.328 588 -119.5 588C-118.672 588 -118 588.672 -118 589.5Z" fill="#1995FC"/>
<path d="M-34 589.5C-34 590.328 -34.6716 591 -35.5 591C-36.3284 591 -37 590.328 -37 589.5C-37 588.672 -36.3284 588 -35.5 588C-34.6716 588 -34 588.672 -34 589.5Z" fill="#1995FC"/>
<path d="M50 589.5C50 590.328 49.3284 591 48.5 591C47.6716 591 47 590.328 47 589.5C47 588.672 47.6716 588 48.5 588C49.3284 588 50 588.672 50 589.5Z" fill="#1995FC"/>
<path d="M134 589.5C134 590.328 133.328 591 132.5 591C131.672 591 131 590.328 131 589.5C131 588.672 131.672 588 132.5 588C133.328 588 134 588.672 134 589.5Z" fill="#1995FC"/>
<path d="M218 589.5C218 590.328 217.328 591 216.5 591C215.672 591 215 590.328 215 589.5C215 588.672 215.672 588 216.5 588C217.328 588 218 588.672 218 589.5Z" fill="#1995FC"/>
<path d="M302 589.5C302 590.328 301.328 591 300.5 591C299.672 591 299 590.328 299 589.5C299 588.672 299.672 588 300.5 588C301.328 588 302 588.672 302 589.5Z" fill="#1995FC"/>
<path d="M386 589.5C386 590.328 385.328 591 384.5 591C383.672 591 383 590.328 383 589.5C383 588.672 383.672 588 384.5 588C385.328 588 386 588.672 386 589.5Z" fill="#1995FC"/>
<path d="M470 589.5C470 590.328 469.328 591 468.5 591C467.672 591 467 590.328 467 589.5C467 588.672 467.672 588 468.5 588C469.328 588 470 588.672 470 589.5Z" fill="#1995FC"/>
<path d="M554 589.5C554 590.328 553.328 591 552.5 591C551.672 591 551 590.328 551 589.5C551 588.672 551.672 588 552.5 588C553.328 588 554 588.672 554 589.5Z" fill="#1995FC"/>
<path d="M638 589.5C638 590.328 637.328 591 636.5 591C635.672 591 635 590.328 635 589.5C635 588.672 635.672 588 636.5 588C637.328 588 638 588.672 638 589.5Z" fill="#1995FC"/>
<path d="M722 589.5C722 590.328 721.328 591 720.5 591C719.672 591 719 590.328 719 589.5C719 588.672 719.672 588 720.5 588C721.328 588 722 588.672 722 589.5Z" fill="#1995FC"/>
<path d="M806 589.5C806 590.328 805.328 591 804.5 591C803.672 591 803 590.328 803 589.5C803 588.672 803.672 588 804.5 588C805.328 588 806 588.672 806 589.5Z" fill="#1995FC"/>
<path d="M890 589.5C890 590.328 889.328 591 888.5 591C887.672 591 887 590.328 887 589.5C887 588.672 887.672 588 888.5 588C889.328 588 890 588.672 890 589.5Z" fill="#1995FC"/>
<path d="M974 589.5C974 590.328 973.328 591 972.5 591C971.672 591 971 590.328 971 589.5C971 588.672 971.672 588 972.5 588C973.328 588 974 588.672 974 589.5Z" fill="#1995FC"/>
<path d="M1058 589.5C1058 590.328 1057.33 591 1056.5 591C1055.67 591 1055 590.328 1055 589.5C1055 588.672 1055.67 588 1056.5 588C1057.33 588 1058 588.672 1058 589.5Z" fill="#1995FC"/>
<path d="M-286 673.5C-286 674.328 -286.672 675 -287.5 675C-288.328 675 -289 674.328 -289 673.5C-289 672.672 -288.328 672 -287.5 672C-286.672 672 -286 672.672 -286 673.5Z" fill="#1995FC"/>
<path d="M-202 673.5C-202 674.328 -202.672 675 -203.5 675C-204.328 675 -205 674.328 -205 673.5C-205 672.672 -204.328 672 -203.5 672C-202.672 672 -202 672.672 -202 673.5Z" fill="#1995FC"/>
<path d="M-118 673.5C-118 674.328 -118.672 675 -119.5 675C-120.328 675 -121 674.328 -121 673.5C-121 672.672 -120.328 672 -119.5 672C-118.672 672 -118 672.672 -118 673.5Z" fill="#1995FC"/>
<path d="M-34 673.5C-34 674.328 -34.6716 675 -35.5 675C-36.3284 675 -37 674.328 -37 673.5C-37 672.672 -36.3284 672 -35.5 672C-34.6716 672 -34 672.672 -34 673.5Z" fill="#1995FC"/>
<path d="M50 673.5C50 674.328 49.3284 675 48.5 675C47.6716 675 47 674.328 47 673.5C47 672.672 47.6716 672 48.5 672C49.3284 672 50 672.672 50 673.5Z" fill="#1995FC"/>
<path d="M134 673.5C134 674.328 133.328 675 132.5 675C131.672 675 131 674.328 131 673.5C131 672.672 131.672 672 132.5 672C133.328 672 134 672.672 134 673.5Z" fill="#1995FC"/>
<path d="M218 673.5C218 674.328 217.328 675 216.5 675C215.672 675 215 674.328 215 673.5C215 672.672 215.672 672 216.5 672C217.328 672 218 672.672 218 673.5Z" fill="#1995FC"/>
<path d="M302 673.5C302 674.328 301.328 675 300.5 675C299.672 675 299 674.328 299 673.5C299 672.672 299.672 672 300.5 672C301.328 672 302 672.672 302 673.5Z" fill="#1995FC"/>
<path d="M386 673.5C386 674.328 385.328 675 384.5 675C383.672 675 383 674.328 383 673.5C383 672.672 383.672 672 384.5 672C385.328 672 386 672.672 386 673.5Z" fill="#1995FC"/>
<path d="M470 673.5C470 674.328 469.328 675 468.5 675C467.672 675 467 674.328 467 673.5C467 672.672 467.672 672 468.5 672C469.328 672 470 672.672 470 673.5Z" fill="#1995FC"/>
<path d="M554 673.5C554 674.328 553.328 675 552.5 675C551.672 675 551 674.328 551 673.5C551 672.672 551.672 672 552.5 672C553.328 672 554 672.672 554 673.5Z" fill="#1995FC"/>
<path d="M638 673.5C638 674.328 637.328 675 636.5 675C635.672 675 635 674.328 635 673.5C635 672.672 635.672 672 636.5 672C637.328 672 638 672.672 638 673.5Z" fill="#1995FC"/>
<path d="M722 673.5C722 674.328 721.328 675 720.5 675C719.672 675 719 674.328 719 673.5C719 672.672 719.672 672 720.5 672C721.328 672 722 672.672 722 673.5Z" fill="#1995FC"/>
<path d="M806 673.5C806 674.328 805.328 675 804.5 675C803.672 675 803 674.328 803 673.5C803 672.672 803.672 672 804.5 672C805.328 672 806 672.672 806 673.5Z" fill="#1995FC"/>
<path d="M890 673.5C890 674.328 889.328 675 888.5 675C887.672 675 887 674.328 887 673.5C887 672.672 887.672 672 888.5 672C889.328 672 890 672.672 890 673.5Z" fill="#1995FC"/>
<path d="M974 673.5C974 674.328 973.328 675 972.5 675C971.672 675 971 674.328 971 673.5C971 672.672 971.672 672 972.5 672C973.328 672 974 672.672 974 673.5Z" fill="#1995FC"/>
<path d="M1058 673.5C1058 674.328 1057.33 675 1056.5 675C1055.67 675 1055 674.328 1055 673.5C1055 672.672 1055.67 672 1056.5 672C1057.33 672 1058 672.672 1058 673.5Z" fill="#1995FC"/>
<path d="M-286 757.5C-286 758.328 -286.672 759 -287.5 759C-288.328 759 -289 758.328 -289 757.5C-289 756.672 -288.328 756 -287.5 756C-286.672 756 -286 756.672 -286 757.5Z" fill="#1995FC"/>
<path d="M-202 757.5C-202 758.328 -202.672 759 -203.5 759C-204.328 759 -205 758.328 -205 757.5C-205 756.672 -204.328 756 -203.5 756C-202.672 756 -202 756.672 -202 757.5Z" fill="#1995FC"/>
<path d="M-118 757.5C-118 758.328 -118.672 759 -119.5 759C-120.328 759 -121 758.328 -121 757.5C-121 756.672 -120.328 756 -119.5 756C-118.672 756 -118 756.672 -118 757.5Z" fill="#1995FC"/>
<path d="M-34 757.5C-34 758.328 -34.6716 759 -35.5 759C-36.3284 759 -37 758.328 -37 757.5C-37 756.672 -36.3284 756 -35.5 756C-34.6716 756 -34 756.672 -34 757.5Z" fill="#1995FC"/>
<path d="M50 757.5C50 758.328 49.3284 759 48.5 759C47.6716 759 47 758.328 47 757.5C47 756.672 47.6716 756 48.5 756C49.3284 756 50 756.672 50 757.5Z" fill="#1995FC"/>
<path d="M134 757.5C134 758.328 133.328 759 132.5 759C131.672 759 131 758.328 131 757.5C131 756.672 131.672 756 132.5 756C133.328 756 134 756.672 134 757.5Z" fill="#1995FC"/>
<path d="M218 757.5C218 758.328 217.328 759 216.5 759C215.672 759 215 758.328 215 757.5C215 756.672 215.672 756 216.5 756C217.328 756 218 756.672 218 757.5Z" fill="#1995FC"/>
<path d="M302 757.5C302 758.328 301.328 759 300.5 759C299.672 759 299 758.328 299 757.5C299 756.672 299.672 756 300.5 756C301.328 756 302 756.672 302 757.5Z" fill="#1995FC"/>
<path d="M386 757.5C386 758.328 385.328 759 384.5 759C383.672 759 383 758.328 383 757.5C383 756.672 383.672 756 384.5 756C385.328 756 386 756.672 386 757.5Z" fill="#1995FC"/>
<path d="M470 757.5C470 758.328 469.328 759 468.5 759C467.672 759 467 758.328 467 757.5C467 756.672 467.672 756 468.5 756C469.328 756 470 756.672 470 757.5Z" fill="#1995FC"/>
<path d="M554 757.5C554 758.328 553.328 759 552.5 759C551.672 759 551 758.328 551 757.5C551 756.672 551.672 756 552.5 756C553.328 756 554 756.672 554 757.5Z" fill="#1995FC"/>
<path d="M638 757.5C638 758.328 637.328 759 636.5 759C635.672 759 635 758.328 635 757.5C635 756.672 635.672 756 636.5 756C637.328 756 638 756.672 638 757.5Z" fill="#1995FC"/>
<path d="M722 757.5C722 758.328 721.328 759 720.5 759C719.672 759 719 758.328 719 757.5C719 756.672 719.672 756 720.5 756C721.328 756 722 756.672 722 757.5Z" fill="#1995FC"/>
<path d="M806 757.5C806 758.328 805.328 759 804.5 759C803.672 759 803 758.328 803 757.5C803 756.672 803.672 756 804.5 756C805.328 756 806 756.672 806 757.5Z" fill="#1995FC"/>
<path d="M890 757.5C890 758.328 889.328 759 888.5 759C887.672 759 887 758.328 887 757.5C887 756.672 887.672 756 888.5 756C889.328 756 890 756.672 890 757.5Z" fill="#1995FC"/>
<path d="M974 757.5C974 758.328 973.328 759 972.5 759C971.672 759 971 758.328 971 757.5C971 756.672 971.672 756 972.5 756C973.328 756 974 756.672 974 757.5Z" fill="#1995FC"/>
<path d="M1058 757.5C1058 758.328 1057.33 759 1056.5 759C1055.67 759 1055 758.328 1055 757.5C1055 756.672 1055.67 756 1056.5 756C1057.33 756 1058 756.672 1058 757.5Z" fill="#1995FC"/>
</g>
</svg>
