<svg width="297" height="523" viewBox="0 0 297 523" fill="none" xmlns="http://www.w3.org/2000/svg">
<mask id="mask0_941_40791" style="mask-type:alpha" maskUnits="userSpaceOnUse" x="18" y="0" width="260" height="523">
<rect x="18.5" y="0.0166016" width="259" height="522" rx="129.5" fill="#D9D9D9"/>
</mask>
<g mask="url(#mask0_941_40791)">
<circle cx="43.5" cy="9.0166" r="1" fill="#1995FC"/>
<circle cx="85.5" cy="9.0166" r="1" fill="#1995FC"/>
<circle cx="127.5" cy="9.0166" r="1" fill="#1995FC"/>
<circle cx="169.5" cy="9.0166" r="1" fill="#1995FC"/>
<circle cx="211.5" cy="9.0166" r="1" fill="#1995FC"/>
<circle cx="253.5" cy="9.0166" r="1" fill="#1995FC"/>
<circle cx="43.5" cy="51.0166" r="1" fill="#1995FC"/>
<circle cx="85.5" cy="51.0166" r="1" fill="#1995FC"/>
<circle cx="127.5" cy="51.0166" r="1" fill="#1995FC"/>
<circle cx="169.5" cy="51.0166" r="1" fill="#1995FC"/>
<circle cx="211.5" cy="51.0166" r="1" fill="#1995FC"/>
<circle cx="253.5" cy="51.0166" r="1" fill="#1995FC"/>
<circle cx="43.5" cy="93.0166" r="1" fill="#1995FC"/>
<circle cx="85.5" cy="93.0166" r="1" fill="#1995FC"/>
<circle cx="127.5" cy="93.0166" r="1" fill="#1995FC"/>
<circle cx="169.5" cy="93.0166" r="1" fill="#1995FC"/>
<circle cx="211.5" cy="93.0166" r="1" fill="#1995FC"/>
<circle cx="253.5" cy="93.0166" r="1" fill="#1995FC"/>
<circle cx="43.5" cy="135.017" r="1" fill="#1995FC"/>
<circle cx="85.5" cy="135.017" r="1" fill="#1995FC"/>
<circle cx="127.5" cy="135.017" r="1" fill="#1995FC"/>
<circle cx="169.5" cy="135.017" r="1" fill="#1995FC"/>
<circle cx="211.5" cy="135.017" r="1" fill="#1995FC"/>
<circle cx="253.5" cy="135.017" r="1" fill="#1995FC"/>
<circle cx="43.5" cy="177.017" r="1" fill="#1995FC"/>
<circle cx="85.5" cy="177.017" r="1" fill="#1995FC"/>
<circle cx="127.5" cy="177.017" r="1" fill="#1995FC"/>
<circle cx="169.5" cy="177.017" r="1" fill="#1995FC"/>
<circle cx="211.5" cy="177.017" r="1" fill="#1995FC"/>
<circle cx="253.5" cy="177.017" r="1" fill="#1995FC"/>
<circle cx="43.5" cy="219.017" r="1" fill="#1995FC"/>
<circle cx="85.5" cy="219.017" r="1" fill="#1995FC"/>
<circle cx="127.5" cy="219.017" r="1" fill="#1995FC"/>
<circle cx="169.5" cy="219.017" r="1" fill="#1995FC"/>
<circle cx="211.5" cy="219.017" r="1" fill="#1995FC"/>
<circle cx="253.5" cy="219.017" r="1" fill="#1995FC"/>
<circle cx="43.5" cy="261.017" r="1" fill="#1995FC"/>
<circle cx="85.5" cy="261.017" r="1" fill="#1995FC"/>
<circle cx="127.5" cy="261.017" r="1" fill="#1995FC"/>
<circle cx="169.5" cy="261.017" r="1" fill="#1995FC"/>
<circle cx="211.5" cy="261.017" r="1" fill="#1995FC"/>
<circle cx="253.5" cy="261.017" r="1" fill="#1995FC"/>
<circle cx="43.5" cy="303.017" r="1" fill="#1995FC"/>
<circle cx="85.5" cy="303.017" r="1" fill="#1995FC"/>
<circle cx="127.5" cy="303.017" r="1" fill="#1995FC"/>
<circle cx="169.5" cy="303.017" r="1" fill="#1995FC"/>
<circle cx="211.5" cy="303.017" r="1" fill="#1995FC"/>
<circle cx="253.5" cy="303.017" r="1" fill="#1995FC"/>
<circle cx="43.5" cy="345.017" r="1" fill="#1995FC"/>
<circle cx="85.5" cy="345.017" r="1" fill="#1995FC"/>
<circle cx="127.5" cy="345.017" r="1" fill="#1995FC"/>
<circle cx="169.5" cy="345.017" r="1" fill="#1995FC"/>
<circle cx="211.5" cy="345.017" r="1" fill="#1995FC"/>
<circle cx="253.5" cy="345.017" r="1" fill="#1995FC"/>
<circle cx="43.5" cy="387.017" r="1" fill="#1995FC"/>
<circle cx="85.5" cy="387.017" r="1" fill="#1995FC"/>
<circle cx="127.5" cy="387.017" r="1" fill="#1995FC"/>
<circle cx="169.5" cy="387.017" r="1" fill="#1995FC"/>
<circle cx="211.5" cy="387.017" r="1" fill="#1995FC"/>
<circle cx="253.5" cy="387.017" r="1" fill="#1995FC"/>
<circle cx="43.5" cy="429.017" r="1" fill="#1995FC"/>
<circle cx="85.5" cy="429.017" r="1" fill="#1995FC"/>
<circle cx="127.5" cy="429.017" r="1" fill="#1995FC"/>
<circle cx="169.5" cy="429.017" r="1" fill="#1995FC"/>
<circle cx="211.5" cy="429.017" r="1" fill="#1995FC"/>
<circle cx="253.5" cy="429.017" r="1" fill="#1995FC"/>
<circle cx="43.5" cy="471.017" r="1" fill="#1995FC"/>
<circle cx="85.5" cy="471.017" r="1" fill="#1995FC"/>
<circle cx="127.5" cy="471.017" r="1" fill="#1995FC"/>
<circle cx="169.5" cy="471.017" r="1" fill="#1995FC"/>
<circle cx="211.5" cy="471.017" r="1" fill="#1995FC"/>
<circle cx="253.5" cy="471.017" r="1" fill="#1995FC"/>
<circle cx="127.5" cy="513.017" r="1" fill="#1995FC"/>
<circle cx="169.5" cy="513.017" r="1" fill="#1995FC"/>
</g>
</svg>
