<svg width="1375" height="759" viewBox="0 0 1375 759" fill="none" xmlns="http://www.w3.org/2000/svg">
<mask id="mask0_941_38989" style="mask-type:alpha" maskUnits="userSpaceOnUse" x="0" y="46" width="1375" height="668">
<rect y="46" width="1375" height="668" rx="322" fill="#1995FC"/>
</mask>
<g mask="url(#mask0_941_38989)">
<path d="M17 1.5C17 2.32843 16.3284 3 15.5 3C14.6716 3 14 2.32843 14 1.5C14 0.671573 14.6716 0 15.5 0C16.3284 0 17 0.671573 17 1.5Z" fill="#1995FC"/>
<path d="M101 1.5C101 2.32843 100.328 3 99.5 3C98.6716 3 98 2.32843 98 1.5C98 0.671573 98.6716 0 99.5 0C100.328 0 101 0.671573 101 1.5Z" fill="#1995FC"/>
<path d="M185 1.5C185 2.32843 184.328 3 183.5 3C182.672 3 182 2.32843 182 1.5C182 0.671573 182.672 0 183.5 0C184.328 0 185 0.671573 185 1.5Z" fill="#1995FC"/>
<path d="M269 1.5C269 2.32843 268.328 3 267.5 3C266.672 3 266 2.32843 266 1.5C266 0.671573 266.672 0 267.5 0C268.328 0 269 0.671573 269 1.5Z" fill="#1995FC"/>
<path d="M353 1.5C353 2.32843 352.328 3 351.5 3C350.672 3 350 2.32843 350 1.5C350 0.671573 350.672 0 351.5 0C352.328 0 353 0.671573 353 1.5Z" fill="#1995FC"/>
<path d="M437 1.5C437 2.32843 436.328 3 435.5 3C434.672 3 434 2.32843 434 1.5C434 0.671573 434.672 0 435.5 0C436.328 0 437 0.671573 437 1.5Z" fill="#1995FC"/>
<path d="M521 1.5C521 2.32843 520.328 3 519.5 3C518.672 3 518 2.32843 518 1.5C518 0.671573 518.672 0 519.5 0C520.328 0 521 0.671573 521 1.5Z" fill="#1995FC"/>
<path d="M605 1.5C605 2.32843 604.328 3 603.5 3C602.672 3 602 2.32843 602 1.5C602 0.671573 602.672 0 603.5 0C604.328 0 605 0.671573 605 1.5Z" fill="#1995FC"/>
<path d="M689 1.5C689 2.32843 688.328 3 687.5 3C686.672 3 686 2.32843 686 1.5C686 0.671573 686.672 0 687.5 0C688.328 0 689 0.671573 689 1.5Z" fill="#1995FC"/>
<path d="M773 1.5C773 2.32843 772.328 3 771.5 3C770.672 3 770 2.32843 770 1.5C770 0.671573 770.672 0 771.5 0C772.328 0 773 0.671573 773 1.5Z" fill="#1995FC"/>
<path d="M857 1.5C857 2.32843 856.328 3 855.5 3C854.672 3 854 2.32843 854 1.5C854 0.671573 854.672 0 855.5 0C856.328 0 857 0.671573 857 1.5Z" fill="#1995FC"/>
<path d="M941 1.5C941 2.32843 940.328 3 939.5 3C938.672 3 938 2.32843 938 1.5C938 0.671573 938.672 0 939.5 0C940.328 0 941 0.671573 941 1.5Z" fill="#1995FC"/>
<path d="M1025 1.5C1025 2.32843 1024.33 3 1023.5 3C1022.67 3 1022 2.32843 1022 1.5C1022 0.671573 1022.67 0 1023.5 0C1024.33 0 1025 0.671573 1025 1.5Z" fill="#1995FC"/>
<path d="M1109 1.5C1109 2.32843 1108.33 3 1107.5 3C1106.67 3 1106 2.32843 1106 1.5C1106 0.671573 1106.67 0 1107.5 0C1108.33 0 1109 0.671573 1109 1.5Z" fill="#1995FC"/>
<path d="M1193 1.5C1193 2.32843 1192.33 3 1191.5 3C1190.67 3 1190 2.32843 1190 1.5C1190 0.671573 1190.67 0 1191.5 0C1192.33 0 1193 0.671573 1193 1.5Z" fill="#1995FC"/>
<path d="M1277 1.5C1277 2.32843 1276.33 3 1275.5 3C1274.67 3 1274 2.32843 1274 1.5C1274 0.671573 1274.67 0 1275.5 0C1276.33 0 1277 0.671573 1277 1.5Z" fill="#1995FC"/>
<path d="M1361 1.5C1361 2.32843 1360.33 3 1359.5 3C1358.67 3 1358 2.32843 1358 1.5C1358 0.671573 1358.67 0 1359.5 0C1360.33 0 1361 0.671573 1361 1.5Z" fill="#1995FC"/>
<path d="M17 85.5C17 86.3284 16.3284 87 15.5 87C14.6716 87 14 86.3284 14 85.5C14 84.6716 14.6716 84 15.5 84C16.3284 84 17 84.6716 17 85.5Z" fill="#1995FC"/>
<path d="M101 85.5C101 86.3284 100.328 87 99.5 87C98.6716 87 98 86.3284 98 85.5C98 84.6716 98.6716 84 99.5 84C100.328 84 101 84.6716 101 85.5Z" fill="#1995FC"/>
<path d="M185 85.5C185 86.3284 184.328 87 183.5 87C182.672 87 182 86.3284 182 85.5C182 84.6716 182.672 84 183.5 84C184.328 84 185 84.6716 185 85.5Z" fill="#1995FC"/>
<path d="M269 85.5C269 86.3284 268.328 87 267.5 87C266.672 87 266 86.3284 266 85.5C266 84.6716 266.672 84 267.5 84C268.328 84 269 84.6716 269 85.5Z" fill="#1995FC"/>
<path d="M353 85.5C353 86.3284 352.328 87 351.5 87C350.672 87 350 86.3284 350 85.5C350 84.6716 350.672 84 351.5 84C352.328 84 353 84.6716 353 85.5Z" fill="#1995FC"/>
<path d="M437 85.5C437 86.3284 436.328 87 435.5 87C434.672 87 434 86.3284 434 85.5C434 84.6716 434.672 84 435.5 84C436.328 84 437 84.6716 437 85.5Z" fill="#1995FC"/>
<path d="M521 85.5C521 86.3284 520.328 87 519.5 87C518.672 87 518 86.3284 518 85.5C518 84.6716 518.672 84 519.5 84C520.328 84 521 84.6716 521 85.5Z" fill="#1995FC"/>
<path d="M605 85.5C605 86.3284 604.328 87 603.5 87C602.672 87 602 86.3284 602 85.5C602 84.6716 602.672 84 603.5 84C604.328 84 605 84.6716 605 85.5Z" fill="#1995FC"/>
<path d="M689 85.5C689 86.3284 688.328 87 687.5 87C686.672 87 686 86.3284 686 85.5C686 84.6716 686.672 84 687.5 84C688.328 84 689 84.6716 689 85.5Z" fill="#1995FC"/>
<path d="M773 85.5C773 86.3284 772.328 87 771.5 87C770.672 87 770 86.3284 770 85.5C770 84.6716 770.672 84 771.5 84C772.328 84 773 84.6716 773 85.5Z" fill="#1995FC"/>
<path d="M857 85.5C857 86.3284 856.328 87 855.5 87C854.672 87 854 86.3284 854 85.5C854 84.6716 854.672 84 855.5 84C856.328 84 857 84.6716 857 85.5Z" fill="#1995FC"/>
<path d="M941 85.5C941 86.3284 940.328 87 939.5 87C938.672 87 938 86.3284 938 85.5C938 84.6716 938.672 84 939.5 84C940.328 84 941 84.6716 941 85.5Z" fill="#1995FC"/>
<path d="M1025 85.5C1025 86.3284 1024.33 87 1023.5 87C1022.67 87 1022 86.3284 1022 85.5C1022 84.6716 1022.67 84 1023.5 84C1024.33 84 1025 84.6716 1025 85.5Z" fill="#1995FC"/>
<path d="M1109 85.5C1109 86.3284 1108.33 87 1107.5 87C1106.67 87 1106 86.3284 1106 85.5C1106 84.6716 1106.67 84 1107.5 84C1108.33 84 1109 84.6716 1109 85.5Z" fill="#1995FC"/>
<path d="M1193 85.5C1193 86.3284 1192.33 87 1191.5 87C1190.67 87 1190 86.3284 1190 85.5C1190 84.6716 1190.67 84 1191.5 84C1192.33 84 1193 84.6716 1193 85.5Z" fill="#1995FC"/>
<path d="M1277 85.5C1277 86.3284 1276.33 87 1275.5 87C1274.67 87 1274 86.3284 1274 85.5C1274 84.6716 1274.67 84 1275.5 84C1276.33 84 1277 84.6716 1277 85.5Z" fill="#1995FC"/>
<path d="M1361 85.5C1361 86.3284 1360.33 87 1359.5 87C1358.67 87 1358 86.3284 1358 85.5C1358 84.6716 1358.67 84 1359.5 84C1360.33 84 1361 84.6716 1361 85.5Z" fill="#1995FC"/>
<path d="M17 169.5C17 170.328 16.3284 171 15.5 171C14.6716 171 14 170.328 14 169.5C14 168.672 14.6716 168 15.5 168C16.3284 168 17 168.672 17 169.5Z" fill="#1995FC"/>
<path d="M101 169.5C101 170.328 100.328 171 99.5 171C98.6716 171 98 170.328 98 169.5C98 168.672 98.6716 168 99.5 168C100.328 168 101 168.672 101 169.5Z" fill="#1995FC"/>
<path d="M185 169.5C185 170.328 184.328 171 183.5 171C182.672 171 182 170.328 182 169.5C182 168.672 182.672 168 183.5 168C184.328 168 185 168.672 185 169.5Z" fill="#1995FC"/>
<path d="M269 169.5C269 170.328 268.328 171 267.5 171C266.672 171 266 170.328 266 169.5C266 168.672 266.672 168 267.5 168C268.328 168 269 168.672 269 169.5Z" fill="#1995FC"/>
<path d="M353 169.5C353 170.328 352.328 171 351.5 171C350.672 171 350 170.328 350 169.5C350 168.672 350.672 168 351.5 168C352.328 168 353 168.672 353 169.5Z" fill="#1995FC"/>
<path d="M437 169.5C437 170.328 436.328 171 435.5 171C434.672 171 434 170.328 434 169.5C434 168.672 434.672 168 435.5 168C436.328 168 437 168.672 437 169.5Z" fill="#1995FC"/>
<path d="M521 169.5C521 170.328 520.328 171 519.5 171C518.672 171 518 170.328 518 169.5C518 168.672 518.672 168 519.5 168C520.328 168 521 168.672 521 169.5Z" fill="#1995FC"/>
<path d="M605 169.5C605 170.328 604.328 171 603.5 171C602.672 171 602 170.328 602 169.5C602 168.672 602.672 168 603.5 168C604.328 168 605 168.672 605 169.5Z" fill="#1995FC"/>
<path d="M689 169.5C689 170.328 688.328 171 687.5 171C686.672 171 686 170.328 686 169.5C686 168.672 686.672 168 687.5 168C688.328 168 689 168.672 689 169.5Z" fill="#1995FC"/>
<path d="M773 169.5C773 170.328 772.328 171 771.5 171C770.672 171 770 170.328 770 169.5C770 168.672 770.672 168 771.5 168C772.328 168 773 168.672 773 169.5Z" fill="#1995FC"/>
<path d="M857 169.5C857 170.328 856.328 171 855.5 171C854.672 171 854 170.328 854 169.5C854 168.672 854.672 168 855.5 168C856.328 168 857 168.672 857 169.5Z" fill="#1995FC"/>
<path d="M941 169.5C941 170.328 940.328 171 939.5 171C938.672 171 938 170.328 938 169.5C938 168.672 938.672 168 939.5 168C940.328 168 941 168.672 941 169.5Z" fill="#1995FC"/>
<path d="M1025 169.5C1025 170.328 1024.33 171 1023.5 171C1022.67 171 1022 170.328 1022 169.5C1022 168.672 1022.67 168 1023.5 168C1024.33 168 1025 168.672 1025 169.5Z" fill="#1995FC"/>
<path d="M1109 169.5C1109 170.328 1108.33 171 1107.5 171C1106.67 171 1106 170.328 1106 169.5C1106 168.672 1106.67 168 1107.5 168C1108.33 168 1109 168.672 1109 169.5Z" fill="#1995FC"/>
<path d="M1193 169.5C1193 170.328 1192.33 171 1191.5 171C1190.67 171 1190 170.328 1190 169.5C1190 168.672 1190.67 168 1191.5 168C1192.33 168 1193 168.672 1193 169.5Z" fill="#1995FC"/>
<path d="M1277 169.5C1277 170.328 1276.33 171 1275.5 171C1274.67 171 1274 170.328 1274 169.5C1274 168.672 1274.67 168 1275.5 168C1276.33 168 1277 168.672 1277 169.5Z" fill="#1995FC"/>
<path d="M1361 169.5C1361 170.328 1360.33 171 1359.5 171C1358.67 171 1358 170.328 1358 169.5C1358 168.672 1358.67 168 1359.5 168C1360.33 168 1361 168.672 1361 169.5Z" fill="#1995FC"/>
<path d="M17 253.5C17 254.328 16.3284 255 15.5 255C14.6716 255 14 254.328 14 253.5C14 252.672 14.6716 252 15.5 252C16.3284 252 17 252.672 17 253.5Z" fill="#1995FC"/>
<path d="M101 253.5C101 254.328 100.328 255 99.5 255C98.6716 255 98 254.328 98 253.5C98 252.672 98.6716 252 99.5 252C100.328 252 101 252.672 101 253.5Z" fill="#1995FC"/>
<path d="M185 253.5C185 254.328 184.328 255 183.5 255C182.672 255 182 254.328 182 253.5C182 252.672 182.672 252 183.5 252C184.328 252 185 252.672 185 253.5Z" fill="#1995FC"/>
<path d="M269 253.5C269 254.328 268.328 255 267.5 255C266.672 255 266 254.328 266 253.5C266 252.672 266.672 252 267.5 252C268.328 252 269 252.672 269 253.5Z" fill="#1995FC"/>
<path d="M353 253.5C353 254.328 352.328 255 351.5 255C350.672 255 350 254.328 350 253.5C350 252.672 350.672 252 351.5 252C352.328 252 353 252.672 353 253.5Z" fill="#1995FC"/>
<path d="M437 253.5C437 254.328 436.328 255 435.5 255C434.672 255 434 254.328 434 253.5C434 252.672 434.672 252 435.5 252C436.328 252 437 252.672 437 253.5Z" fill="#1995FC"/>
<path d="M521 253.5C521 254.328 520.328 255 519.5 255C518.672 255 518 254.328 518 253.5C518 252.672 518.672 252 519.5 252C520.328 252 521 252.672 521 253.5Z" fill="#1995FC"/>
<path d="M605 253.5C605 254.328 604.328 255 603.5 255C602.672 255 602 254.328 602 253.5C602 252.672 602.672 252 603.5 252C604.328 252 605 252.672 605 253.5Z" fill="#1995FC"/>
<path d="M689 253.5C689 254.328 688.328 255 687.5 255C686.672 255 686 254.328 686 253.5C686 252.672 686.672 252 687.5 252C688.328 252 689 252.672 689 253.5Z" fill="#1995FC"/>
<path d="M773 253.5C773 254.328 772.328 255 771.5 255C770.672 255 770 254.328 770 253.5C770 252.672 770.672 252 771.5 252C772.328 252 773 252.672 773 253.5Z" fill="#1995FC"/>
<path d="M857 253.5C857 254.328 856.328 255 855.5 255C854.672 255 854 254.328 854 253.5C854 252.672 854.672 252 855.5 252C856.328 252 857 252.672 857 253.5Z" fill="#1995FC"/>
<path d="M941 253.5C941 254.328 940.328 255 939.5 255C938.672 255 938 254.328 938 253.5C938 252.672 938.672 252 939.5 252C940.328 252 941 252.672 941 253.5Z" fill="#1995FC"/>
<path d="M1025 253.5C1025 254.328 1024.33 255 1023.5 255C1022.67 255 1022 254.328 1022 253.5C1022 252.672 1022.67 252 1023.5 252C1024.33 252 1025 252.672 1025 253.5Z" fill="#1995FC"/>
<path d="M1109 253.5C1109 254.328 1108.33 255 1107.5 255C1106.67 255 1106 254.328 1106 253.5C1106 252.672 1106.67 252 1107.5 252C1108.33 252 1109 252.672 1109 253.5Z" fill="#1995FC"/>
<path d="M1193 253.5C1193 254.328 1192.33 255 1191.5 255C1190.67 255 1190 254.328 1190 253.5C1190 252.672 1190.67 252 1191.5 252C1192.33 252 1193 252.672 1193 253.5Z" fill="#1995FC"/>
<path d="M1277 253.5C1277 254.328 1276.33 255 1275.5 255C1274.67 255 1274 254.328 1274 253.5C1274 252.672 1274.67 252 1275.5 252C1276.33 252 1277 252.672 1277 253.5Z" fill="#1995FC"/>
<path d="M1361 253.5C1361 254.328 1360.33 255 1359.5 255C1358.67 255 1358 254.328 1358 253.5C1358 252.672 1358.67 252 1359.5 252C1360.33 252 1361 252.672 1361 253.5Z" fill="#1995FC"/>
<path d="M17 337.5C17 338.328 16.3284 339 15.5 339C14.6716 339 14 338.328 14 337.5C14 336.672 14.6716 336 15.5 336C16.3284 336 17 336.672 17 337.5Z" fill="#1995FC"/>
<path d="M101 337.5C101 338.328 100.328 339 99.5 339C98.6716 339 98 338.328 98 337.5C98 336.672 98.6716 336 99.5 336C100.328 336 101 336.672 101 337.5Z" fill="#1995FC"/>
<path d="M185 337.5C185 338.328 184.328 339 183.5 339C182.672 339 182 338.328 182 337.5C182 336.672 182.672 336 183.5 336C184.328 336 185 336.672 185 337.5Z" fill="#1995FC"/>
<path d="M269 337.5C269 338.328 268.328 339 267.5 339C266.672 339 266 338.328 266 337.5C266 336.672 266.672 336 267.5 336C268.328 336 269 336.672 269 337.5Z" fill="#1995FC"/>
<path d="M353 337.5C353 338.328 352.328 339 351.5 339C350.672 339 350 338.328 350 337.5C350 336.672 350.672 336 351.5 336C352.328 336 353 336.672 353 337.5Z" fill="#1995FC"/>
<path d="M437 337.5C437 338.328 436.328 339 435.5 339C434.672 339 434 338.328 434 337.5C434 336.672 434.672 336 435.5 336C436.328 336 437 336.672 437 337.5Z" fill="#1995FC"/>
<path d="M521 337.5C521 338.328 520.328 339 519.5 339C518.672 339 518 338.328 518 337.5C518 336.672 518.672 336 519.5 336C520.328 336 521 336.672 521 337.5Z" fill="#1995FC"/>
<path d="M605 337.5C605 338.328 604.328 339 603.5 339C602.672 339 602 338.328 602 337.5C602 336.672 602.672 336 603.5 336C604.328 336 605 336.672 605 337.5Z" fill="#1995FC"/>
<path d="M689 337.5C689 338.328 688.328 339 687.5 339C686.672 339 686 338.328 686 337.5C686 336.672 686.672 336 687.5 336C688.328 336 689 336.672 689 337.5Z" fill="#1995FC"/>
<path d="M773 337.5C773 338.328 772.328 339 771.5 339C770.672 339 770 338.328 770 337.5C770 336.672 770.672 336 771.5 336C772.328 336 773 336.672 773 337.5Z" fill="#1995FC"/>
<path d="M857 337.5C857 338.328 856.328 339 855.5 339C854.672 339 854 338.328 854 337.5C854 336.672 854.672 336 855.5 336C856.328 336 857 336.672 857 337.5Z" fill="#1995FC"/>
<path d="M941 337.5C941 338.328 940.328 339 939.5 339C938.672 339 938 338.328 938 337.5C938 336.672 938.672 336 939.5 336C940.328 336 941 336.672 941 337.5Z" fill="#1995FC"/>
<path d="M1025 337.5C1025 338.328 1024.33 339 1023.5 339C1022.67 339 1022 338.328 1022 337.5C1022 336.672 1022.67 336 1023.5 336C1024.33 336 1025 336.672 1025 337.5Z" fill="#1995FC"/>
<path d="M1109 337.5C1109 338.328 1108.33 339 1107.5 339C1106.67 339 1106 338.328 1106 337.5C1106 336.672 1106.67 336 1107.5 336C1108.33 336 1109 336.672 1109 337.5Z" fill="#1995FC"/>
<path d="M1193 337.5C1193 338.328 1192.33 339 1191.5 339C1190.67 339 1190 338.328 1190 337.5C1190 336.672 1190.67 336 1191.5 336C1192.33 336 1193 336.672 1193 337.5Z" fill="#1995FC"/>
<path d="M1277 337.5C1277 338.328 1276.33 339 1275.5 339C1274.67 339 1274 338.328 1274 337.5C1274 336.672 1274.67 336 1275.5 336C1276.33 336 1277 336.672 1277 337.5Z" fill="#1995FC"/>
<path d="M1361 337.5C1361 338.328 1360.33 339 1359.5 339C1358.67 339 1358 338.328 1358 337.5C1358 336.672 1358.67 336 1359.5 336C1360.33 336 1361 336.672 1361 337.5Z" fill="#1995FC"/>
<path d="M17 421.5C17 422.328 16.3284 423 15.5 423C14.6716 423 14 422.328 14 421.5C14 420.672 14.6716 420 15.5 420C16.3284 420 17 420.672 17 421.5Z" fill="#1995FC"/>
<path d="M101 421.5C101 422.328 100.328 423 99.5 423C98.6716 423 98 422.328 98 421.5C98 420.672 98.6716 420 99.5 420C100.328 420 101 420.672 101 421.5Z" fill="#1995FC"/>
<path d="M185 421.5C185 422.328 184.328 423 183.5 423C182.672 423 182 422.328 182 421.5C182 420.672 182.672 420 183.5 420C184.328 420 185 420.672 185 421.5Z" fill="#1995FC"/>
<path d="M269 421.5C269 422.328 268.328 423 267.5 423C266.672 423 266 422.328 266 421.5C266 420.672 266.672 420 267.5 420C268.328 420 269 420.672 269 421.5Z" fill="#1995FC"/>
<path d="M353 421.5C353 422.328 352.328 423 351.5 423C350.672 423 350 422.328 350 421.5C350 420.672 350.672 420 351.5 420C352.328 420 353 420.672 353 421.5Z" fill="#1995FC"/>
<path d="M437 421.5C437 422.328 436.328 423 435.5 423C434.672 423 434 422.328 434 421.5C434 420.672 434.672 420 435.5 420C436.328 420 437 420.672 437 421.5Z" fill="#1995FC"/>
<path d="M521 421.5C521 422.328 520.328 423 519.5 423C518.672 423 518 422.328 518 421.5C518 420.672 518.672 420 519.5 420C520.328 420 521 420.672 521 421.5Z" fill="#1995FC"/>
<path d="M605 421.5C605 422.328 604.328 423 603.5 423C602.672 423 602 422.328 602 421.5C602 420.672 602.672 420 603.5 420C604.328 420 605 420.672 605 421.5Z" fill="#1995FC"/>
<path d="M689 421.5C689 422.328 688.328 423 687.5 423C686.672 423 686 422.328 686 421.5C686 420.672 686.672 420 687.5 420C688.328 420 689 420.672 689 421.5Z" fill="#1995FC"/>
<path d="M773 421.5C773 422.328 772.328 423 771.5 423C770.672 423 770 422.328 770 421.5C770 420.672 770.672 420 771.5 420C772.328 420 773 420.672 773 421.5Z" fill="#1995FC"/>
<path d="M857 421.5C857 422.328 856.328 423 855.5 423C854.672 423 854 422.328 854 421.5C854 420.672 854.672 420 855.5 420C856.328 420 857 420.672 857 421.5Z" fill="#1995FC"/>
<path d="M941 421.5C941 422.328 940.328 423 939.5 423C938.672 423 938 422.328 938 421.5C938 420.672 938.672 420 939.5 420C940.328 420 941 420.672 941 421.5Z" fill="#1995FC"/>
<path d="M1025 421.5C1025 422.328 1024.33 423 1023.5 423C1022.67 423 1022 422.328 1022 421.5C1022 420.672 1022.67 420 1023.5 420C1024.33 420 1025 420.672 1025 421.5Z" fill="#1995FC"/>
<path d="M1109 421.5C1109 422.328 1108.33 423 1107.5 423C1106.67 423 1106 422.328 1106 421.5C1106 420.672 1106.67 420 1107.5 420C1108.33 420 1109 420.672 1109 421.5Z" fill="#1995FC"/>
<path d="M1193 421.5C1193 422.328 1192.33 423 1191.5 423C1190.67 423 1190 422.328 1190 421.5C1190 420.672 1190.67 420 1191.5 420C1192.33 420 1193 420.672 1193 421.5Z" fill="#1995FC"/>
<path d="M1277 421.5C1277 422.328 1276.33 423 1275.5 423C1274.67 423 1274 422.328 1274 421.5C1274 420.672 1274.67 420 1275.5 420C1276.33 420 1277 420.672 1277 421.5Z" fill="#1995FC"/>
<path d="M1361 421.5C1361 422.328 1360.33 423 1359.5 423C1358.67 423 1358 422.328 1358 421.5C1358 420.672 1358.67 420 1359.5 420C1360.33 420 1361 420.672 1361 421.5Z" fill="#1995FC"/>
<path d="M17 505.5C17 506.328 16.3284 507 15.5 507C14.6716 507 14 506.328 14 505.5C14 504.672 14.6716 504 15.5 504C16.3284 504 17 504.672 17 505.5Z" fill="#1995FC"/>
<path d="M101 505.5C101 506.328 100.328 507 99.5 507C98.6716 507 98 506.328 98 505.5C98 504.672 98.6716 504 99.5 504C100.328 504 101 504.672 101 505.5Z" fill="#1995FC"/>
<path d="M185 505.5C185 506.328 184.328 507 183.5 507C182.672 507 182 506.328 182 505.5C182 504.672 182.672 504 183.5 504C184.328 504 185 504.672 185 505.5Z" fill="#1995FC"/>
<path d="M269 505.5C269 506.328 268.328 507 267.5 507C266.672 507 266 506.328 266 505.5C266 504.672 266.672 504 267.5 504C268.328 504 269 504.672 269 505.5Z" fill="#1995FC"/>
<path d="M353 505.5C353 506.328 352.328 507 351.5 507C350.672 507 350 506.328 350 505.5C350 504.672 350.672 504 351.5 504C352.328 504 353 504.672 353 505.5Z" fill="#1995FC"/>
<path d="M437 505.5C437 506.328 436.328 507 435.5 507C434.672 507 434 506.328 434 505.5C434 504.672 434.672 504 435.5 504C436.328 504 437 504.672 437 505.5Z" fill="#1995FC"/>
<path d="M521 505.5C521 506.328 520.328 507 519.5 507C518.672 507 518 506.328 518 505.5C518 504.672 518.672 504 519.5 504C520.328 504 521 504.672 521 505.5Z" fill="#1995FC"/>
<path d="M605 505.5C605 506.328 604.328 507 603.5 507C602.672 507 602 506.328 602 505.5C602 504.672 602.672 504 603.5 504C604.328 504 605 504.672 605 505.5Z" fill="#1995FC"/>
<path d="M689 505.5C689 506.328 688.328 507 687.5 507C686.672 507 686 506.328 686 505.5C686 504.672 686.672 504 687.5 504C688.328 504 689 504.672 689 505.5Z" fill="#1995FC"/>
<path d="M773 505.5C773 506.328 772.328 507 771.5 507C770.672 507 770 506.328 770 505.5C770 504.672 770.672 504 771.5 504C772.328 504 773 504.672 773 505.5Z" fill="#1995FC"/>
<path d="M857 505.5C857 506.328 856.328 507 855.5 507C854.672 507 854 506.328 854 505.5C854 504.672 854.672 504 855.5 504C856.328 504 857 504.672 857 505.5Z" fill="#1995FC"/>
<path d="M941 505.5C941 506.328 940.328 507 939.5 507C938.672 507 938 506.328 938 505.5C938 504.672 938.672 504 939.5 504C940.328 504 941 504.672 941 505.5Z" fill="#1995FC"/>
<path d="M1025 505.5C1025 506.328 1024.33 507 1023.5 507C1022.67 507 1022 506.328 1022 505.5C1022 504.672 1022.67 504 1023.5 504C1024.33 504 1025 504.672 1025 505.5Z" fill="#1995FC"/>
<path d="M1109 505.5C1109 506.328 1108.33 507 1107.5 507C1106.67 507 1106 506.328 1106 505.5C1106 504.672 1106.67 504 1107.5 504C1108.33 504 1109 504.672 1109 505.5Z" fill="#1995FC"/>
<path d="M1193 505.5C1193 506.328 1192.33 507 1191.5 507C1190.67 507 1190 506.328 1190 505.5C1190 504.672 1190.67 504 1191.5 504C1192.33 504 1193 504.672 1193 505.5Z" fill="#1995FC"/>
<path d="M1277 505.5C1277 506.328 1276.33 507 1275.5 507C1274.67 507 1274 506.328 1274 505.5C1274 504.672 1274.67 504 1275.5 504C1276.33 504 1277 504.672 1277 505.5Z" fill="#1995FC"/>
<path d="M1361 505.5C1361 506.328 1360.33 507 1359.5 507C1358.67 507 1358 506.328 1358 505.5C1358 504.672 1358.67 504 1359.5 504C1360.33 504 1361 504.672 1361 505.5Z" fill="#1995FC"/>
<path d="M17 589.5C17 590.328 16.3284 591 15.5 591C14.6716 591 14 590.328 14 589.5C14 588.672 14.6716 588 15.5 588C16.3284 588 17 588.672 17 589.5Z" fill="#1995FC"/>
<path d="M101 589.5C101 590.328 100.328 591 99.5 591C98.6716 591 98 590.328 98 589.5C98 588.672 98.6716 588 99.5 588C100.328 588 101 588.672 101 589.5Z" fill="#1995FC"/>
<path d="M185 589.5C185 590.328 184.328 591 183.5 591C182.672 591 182 590.328 182 589.5C182 588.672 182.672 588 183.5 588C184.328 588 185 588.672 185 589.5Z" fill="#1995FC"/>
<path d="M269 589.5C269 590.328 268.328 591 267.5 591C266.672 591 266 590.328 266 589.5C266 588.672 266.672 588 267.5 588C268.328 588 269 588.672 269 589.5Z" fill="#1995FC"/>
<path d="M353 589.5C353 590.328 352.328 591 351.5 591C350.672 591 350 590.328 350 589.5C350 588.672 350.672 588 351.5 588C352.328 588 353 588.672 353 589.5Z" fill="#1995FC"/>
<path d="M437 589.5C437 590.328 436.328 591 435.5 591C434.672 591 434 590.328 434 589.5C434 588.672 434.672 588 435.5 588C436.328 588 437 588.672 437 589.5Z" fill="#1995FC"/>
<path d="M521 589.5C521 590.328 520.328 591 519.5 591C518.672 591 518 590.328 518 589.5C518 588.672 518.672 588 519.5 588C520.328 588 521 588.672 521 589.5Z" fill="#1995FC"/>
<path d="M605 589.5C605 590.328 604.328 591 603.5 591C602.672 591 602 590.328 602 589.5C602 588.672 602.672 588 603.5 588C604.328 588 605 588.672 605 589.5Z" fill="#1995FC"/>
<path d="M689 589.5C689 590.328 688.328 591 687.5 591C686.672 591 686 590.328 686 589.5C686 588.672 686.672 588 687.5 588C688.328 588 689 588.672 689 589.5Z" fill="#1995FC"/>
<path d="M773 589.5C773 590.328 772.328 591 771.5 591C770.672 591 770 590.328 770 589.5C770 588.672 770.672 588 771.5 588C772.328 588 773 588.672 773 589.5Z" fill="#1995FC"/>
<path d="M857 589.5C857 590.328 856.328 591 855.5 591C854.672 591 854 590.328 854 589.5C854 588.672 854.672 588 855.5 588C856.328 588 857 588.672 857 589.5Z" fill="#1995FC"/>
<path d="M941 589.5C941 590.328 940.328 591 939.5 591C938.672 591 938 590.328 938 589.5C938 588.672 938.672 588 939.5 588C940.328 588 941 588.672 941 589.5Z" fill="#1995FC"/>
<path d="M1025 589.5C1025 590.328 1024.33 591 1023.5 591C1022.67 591 1022 590.328 1022 589.5C1022 588.672 1022.67 588 1023.5 588C1024.33 588 1025 588.672 1025 589.5Z" fill="#1995FC"/>
<path d="M1109 589.5C1109 590.328 1108.33 591 1107.5 591C1106.67 591 1106 590.328 1106 589.5C1106 588.672 1106.67 588 1107.5 588C1108.33 588 1109 588.672 1109 589.5Z" fill="#1995FC"/>
<path d="M1193 589.5C1193 590.328 1192.33 591 1191.5 591C1190.67 591 1190 590.328 1190 589.5C1190 588.672 1190.67 588 1191.5 588C1192.33 588 1193 588.672 1193 589.5Z" fill="#1995FC"/>
<path d="M1277 589.5C1277 590.328 1276.33 591 1275.5 591C1274.67 591 1274 590.328 1274 589.5C1274 588.672 1274.67 588 1275.5 588C1276.33 588 1277 588.672 1277 589.5Z" fill="#1995FC"/>
<path d="M1361 589.5C1361 590.328 1360.33 591 1359.5 591C1358.67 591 1358 590.328 1358 589.5C1358 588.672 1358.67 588 1359.5 588C1360.33 588 1361 588.672 1361 589.5Z" fill="#1995FC"/>
<path d="M17 673.5C17 674.328 16.3284 675 15.5 675C14.6716 675 14 674.328 14 673.5C14 672.672 14.6716 672 15.5 672C16.3284 672 17 672.672 17 673.5Z" fill="#1995FC"/>
<path d="M101 673.5C101 674.328 100.328 675 99.5 675C98.6716 675 98 674.328 98 673.5C98 672.672 98.6716 672 99.5 672C100.328 672 101 672.672 101 673.5Z" fill="#1995FC"/>
<path d="M185 673.5C185 674.328 184.328 675 183.5 675C182.672 675 182 674.328 182 673.5C182 672.672 182.672 672 183.5 672C184.328 672 185 672.672 185 673.5Z" fill="#1995FC"/>
<path d="M269 673.5C269 674.328 268.328 675 267.5 675C266.672 675 266 674.328 266 673.5C266 672.672 266.672 672 267.5 672C268.328 672 269 672.672 269 673.5Z" fill="#1995FC"/>
<path d="M353 673.5C353 674.328 352.328 675 351.5 675C350.672 675 350 674.328 350 673.5C350 672.672 350.672 672 351.5 672C352.328 672 353 672.672 353 673.5Z" fill="#1995FC"/>
<path d="M437 673.5C437 674.328 436.328 675 435.5 675C434.672 675 434 674.328 434 673.5C434 672.672 434.672 672 435.5 672C436.328 672 437 672.672 437 673.5Z" fill="#1995FC"/>
<path d="M521 673.5C521 674.328 520.328 675 519.5 675C518.672 675 518 674.328 518 673.5C518 672.672 518.672 672 519.5 672C520.328 672 521 672.672 521 673.5Z" fill="#1995FC"/>
<path d="M605 673.5C605 674.328 604.328 675 603.5 675C602.672 675 602 674.328 602 673.5C602 672.672 602.672 672 603.5 672C604.328 672 605 672.672 605 673.5Z" fill="#1995FC"/>
<path d="M689 673.5C689 674.328 688.328 675 687.5 675C686.672 675 686 674.328 686 673.5C686 672.672 686.672 672 687.5 672C688.328 672 689 672.672 689 673.5Z" fill="#1995FC"/>
<path d="M773 673.5C773 674.328 772.328 675 771.5 675C770.672 675 770 674.328 770 673.5C770 672.672 770.672 672 771.5 672C772.328 672 773 672.672 773 673.5Z" fill="#1995FC"/>
<path d="M857 673.5C857 674.328 856.328 675 855.5 675C854.672 675 854 674.328 854 673.5C854 672.672 854.672 672 855.5 672C856.328 672 857 672.672 857 673.5Z" fill="#1995FC"/>
<path d="M941 673.5C941 674.328 940.328 675 939.5 675C938.672 675 938 674.328 938 673.5C938 672.672 938.672 672 939.5 672C940.328 672 941 672.672 941 673.5Z" fill="#1995FC"/>
<path d="M1025 673.5C1025 674.328 1024.33 675 1023.5 675C1022.67 675 1022 674.328 1022 673.5C1022 672.672 1022.67 672 1023.5 672C1024.33 672 1025 672.672 1025 673.5Z" fill="#1995FC"/>
<path d="M1109 673.5C1109 674.328 1108.33 675 1107.5 675C1106.67 675 1106 674.328 1106 673.5C1106 672.672 1106.67 672 1107.5 672C1108.33 672 1109 672.672 1109 673.5Z" fill="#1995FC"/>
<path d="M1193 673.5C1193 674.328 1192.33 675 1191.5 675C1190.67 675 1190 674.328 1190 673.5C1190 672.672 1190.67 672 1191.5 672C1192.33 672 1193 672.672 1193 673.5Z" fill="#1995FC"/>
<path d="M1277 673.5C1277 674.328 1276.33 675 1275.5 675C1274.67 675 1274 674.328 1274 673.5C1274 672.672 1274.67 672 1275.5 672C1276.33 672 1277 672.672 1277 673.5Z" fill="#1995FC"/>
<path d="M1361 673.5C1361 674.328 1360.33 675 1359.5 675C1358.67 675 1358 674.328 1358 673.5C1358 672.672 1358.67 672 1359.5 672C1360.33 672 1361 672.672 1361 673.5Z" fill="#1995FC"/>
<path d="M17 757.5C17 758.328 16.3284 759 15.5 759C14.6716 759 14 758.328 14 757.5C14 756.672 14.6716 756 15.5 756C16.3284 756 17 756.672 17 757.5Z" fill="#1995FC"/>
<path d="M101 757.5C101 758.328 100.328 759 99.5 759C98.6716 759 98 758.328 98 757.5C98 756.672 98.6716 756 99.5 756C100.328 756 101 756.672 101 757.5Z" fill="#1995FC"/>
<path d="M185 757.5C185 758.328 184.328 759 183.5 759C182.672 759 182 758.328 182 757.5C182 756.672 182.672 756 183.5 756C184.328 756 185 756.672 185 757.5Z" fill="#1995FC"/>
<path d="M269 757.5C269 758.328 268.328 759 267.5 759C266.672 759 266 758.328 266 757.5C266 756.672 266.672 756 267.5 756C268.328 756 269 756.672 269 757.5Z" fill="#1995FC"/>
<path d="M353 757.5C353 758.328 352.328 759 351.5 759C350.672 759 350 758.328 350 757.5C350 756.672 350.672 756 351.5 756C352.328 756 353 756.672 353 757.5Z" fill="#1995FC"/>
<path d="M437 757.5C437 758.328 436.328 759 435.5 759C434.672 759 434 758.328 434 757.5C434 756.672 434.672 756 435.5 756C436.328 756 437 756.672 437 757.5Z" fill="#1995FC"/>
<path d="M521 757.5C521 758.328 520.328 759 519.5 759C518.672 759 518 758.328 518 757.5C518 756.672 518.672 756 519.5 756C520.328 756 521 756.672 521 757.5Z" fill="#1995FC"/>
<path d="M605 757.5C605 758.328 604.328 759 603.5 759C602.672 759 602 758.328 602 757.5C602 756.672 602.672 756 603.5 756C604.328 756 605 756.672 605 757.5Z" fill="#1995FC"/>
<path d="M689 757.5C689 758.328 688.328 759 687.5 759C686.672 759 686 758.328 686 757.5C686 756.672 686.672 756 687.5 756C688.328 756 689 756.672 689 757.5Z" fill="#1995FC"/>
<path d="M773 757.5C773 758.328 772.328 759 771.5 759C770.672 759 770 758.328 770 757.5C770 756.672 770.672 756 771.5 756C772.328 756 773 756.672 773 757.5Z" fill="#1995FC"/>
<path d="M857 757.5C857 758.328 856.328 759 855.5 759C854.672 759 854 758.328 854 757.5C854 756.672 854.672 756 855.5 756C856.328 756 857 756.672 857 757.5Z" fill="#1995FC"/>
<path d="M941 757.5C941 758.328 940.328 759 939.5 759C938.672 759 938 758.328 938 757.5C938 756.672 938.672 756 939.5 756C940.328 756 941 756.672 941 757.5Z" fill="#1995FC"/>
<path d="M1025 757.5C1025 758.328 1024.33 759 1023.5 759C1022.67 759 1022 758.328 1022 757.5C1022 756.672 1022.67 756 1023.5 756C1024.33 756 1025 756.672 1025 757.5Z" fill="#1995FC"/>
<path d="M1109 757.5C1109 758.328 1108.33 759 1107.5 759C1106.67 759 1106 758.328 1106 757.5C1106 756.672 1106.67 756 1107.5 756C1108.33 756 1109 756.672 1109 757.5Z" fill="#1995FC"/>
<path d="M1193 757.5C1193 758.328 1192.33 759 1191.5 759C1190.67 759 1190 758.328 1190 757.5C1190 756.672 1190.67 756 1191.5 756C1192.33 756 1193 756.672 1193 757.5Z" fill="#1995FC"/>
<path d="M1277 757.5C1277 758.328 1276.33 759 1275.5 759C1274.67 759 1274 758.328 1274 757.5C1274 756.672 1274.67 756 1275.5 756C1276.33 756 1277 756.672 1277 757.5Z" fill="#1995FC"/>
<path d="M1361 757.5C1361 758.328 1360.33 759 1359.5 759C1358.67 759 1358 758.328 1358 757.5C1358 756.672 1358.67 756 1359.5 756C1360.33 756 1361 756.672 1361 757.5Z" fill="#1995FC"/>
</g>
</svg>
