<svg width="32" height="32" viewBox="0 0 32 32" fill="none" xmlns="http://www.w3.org/2000/svg">
<path d="M26.611 6.00635L26.6429 6.06213C25.5056 6.17694 24.3332 6.38891 23.1489 6.70458C15.9925 8.61206 11.1136 13.5834 12.2517 17.8085C12.616 19.1608 13.5525 20.2727 14.8923 21.0971C10.4198 22.2532 6.32782 21.3914 4.70149 18.5893C2.50708 14.8085 5.63275 8.92667 11.6829 5.45197C17.733 1.97727 24.4166 2.22547 26.611 6.00635Z" stroke="#1995FC"/>
<path d="M6.39114 26.9937L6.35845 26.9366C7.49515 26.8216 8.66701 26.6096 9.8507 26.294C17.007 24.3859 21.8859 19.414 20.7482 15.1889C20.3841 13.8366 19.4478 12.7248 18.1083 11.9005C22.5808 10.7435 26.6727 11.605 28.2988 14.4075C30.4927 18.1887 27.3669 24.0715 21.3173 27.5471C15.2677 31.0227 8.585 30.7749 6.39114 26.9937Z" stroke="#1995FC"/>
</svg>
