<svg width="166" height="49" viewBox="0 0 166 49" fill="none" xmlns="http://www.w3.org/2000/svg">
<path d="M22.0469 0.482117C34.01 -0.772085 43.1479 5.94796 47.6318 16.6032C47.6552 16.6588 47.7187 16.7036 47.7676 16.739C47.7771 16.7812 47.7622 16.8307 47.7676 16.8757C48.151 19.8062 48.9771 22.173 48.8652 25.2839C48.1201 45.9563 23.7584 56.0882 8.33203 42.4245C8.22014 42.3261 8.06339 42.1469 7.92285 42.0143C7.78245 41.8819 7.67717 41.7539 7.51367 41.6052C7.46598 41.5615 7.42327 41.5121 7.37695 41.4684C7.3442 41.4152 7.29755 41.3577 7.24023 41.3317C7.19929 41.314 7.12943 41.3522 7.10352 41.3317L6.96777 41.195C-6.55086 26.6215 2.25823 2.55763 22.0469 0.482117ZM40.8057 9.36005C33.6362 1.42792 21.1957 0.105676 12.3262 6.05145C10.8799 7.02003 8.55201 8.90366 7.58984 10.3259C7.18866 10.9188 6.72872 12.4441 7.64844 12.7761L7.64941 12.777C7.64805 12.8658 7.64124 12.9617 7.64941 13.0505C7.64941 13.0573 7.49703 13.1176 7.64941 13.1872C10.4549 18.0551 12.8667 23.1715 15.6777 28.0339C16.0857 28.7402 17.0348 30.9476 18.0254 30.0641C19.0897 28.8783 20.2773 24.2474 21.6035 23.6745C23.1809 22.9914 25.036 26.3331 25.6855 27.4411C26.0813 28.115 28.0495 32.3828 28.3252 32.4509C28.9636 32.6011 29.7181 29.6548 29.9258 29.1384C30.4361 27.8678 31.3293 25.2547 32.9668 25.2028C35.4445 25.1255 37.4107 30.2072 38.7588 31.7663C40.0673 27.7865 37.6318 23.0071 35.4062 19.7556C35.0365 19.2162 34.3693 18.8065 34.2559 18.0241C34.7471 16.9243 35.1691 15.7997 35.7354 14.7341C36.3412 13.5933 38.021 10.2659 39.5166 11.9518C40.5032 13.064 41.9127 15.9898 42.4463 17.4216C42.4938 17.5492 42.5706 17.662 42.582 17.694C42.5956 17.7349 42.5687 17.7898 42.582 17.8307C42.6145 17.9271 42.7147 17.9577 42.7188 17.9675C42.7419 18.0399 42.6956 18.1658 42.7188 18.2409C44.7028 24.6472 43.9197 30.9485 40.1562 36.5104C39.1793 37.9545 37.9362 39.9855 35.8965 39.2809C34.184 37.1538 33.8911 34.9681 32.4844 32.86C31.9986 32.1319 31.7153 31.7503 30.9854 32.6559C29.6399 34.3227 28.8077 38.3439 27.6328 40.3659C27.1785 41.1473 26.5939 41.6159 25.6621 41.194C23.8555 38.6939 22.8729 35.1838 21.1592 32.5866C21.08 32.4664 21.1123 32.2695 20.8994 32.0974C20.3032 31.6124 19.8527 31.9671 19.4639 32.4616C18.0762 34.228 17.3464 38.2584 15.9492 40.2819C15.6381 40.7328 15.1874 41.2102 14.6074 40.9206C10.3924 35.3697 7.70578 27.4893 3.69141 21.6569C3.5618 21.4684 3.79067 20.9915 3.07617 20.9626C2.81011 20.9517 2.70012 21.4445 2.65918 21.6481C2.04651 24.692 2.73842 29.7649 4.00195 32.6218C4.09201 32.8267 4.02138 33.0682 4.37207 32.9958C4.41983 33.1365 4.41327 33.2831 4.50879 33.5427C4.5293 33.5986 4.63077 33.6425 4.64453 33.6794C8.03136 42.5407 18.109 47.5833 27.3457 46.5026C44.7109 44.4711 53.0309 23.6022 41.625 10.1804L41.2148 9.7702C41.1153 9.66647 41.0556 9.59781 40.9424 9.49677C40.8946 9.45442 40.8548 9.40238 40.8057 9.36005ZM131.07 26.8464C132.622 24.1306 138.242 23.9708 139.396 26.8493C140.156 28.7456 139.606 33.0176 139.732 35.2556C139.75 35.5602 140.152 36.822 139.806 36.822H136.668C136.416 36.74 136.309 35.7349 136.325 35.4548C134.404 38.0998 130.514 37.2888 130.203 33.8679C129.872 30.2268 133.258 29.311 136.174 29.0173C136.261 27.9587 135.849 27.5179 134.79 27.7009C133.726 27.8839 133.933 28.88 133.792 28.9059C133.458 28.9671 131.265 28.7061 130.802 28.6227C130.081 28.4929 130.849 27.2317 131.07 26.8464ZM112.038 27.1218L115.382 21.11H118.725L118.312 21.6198C117.541 23.4202 116.416 25.0882 115.725 26.905C116.947 30.1593 118.339 33.3784 119.403 36.6765C118.095 37.0016 116.701 36.7569 115.375 36.7009L113.198 30.9499C113.069 31.2485 112.04 32.8101 112.038 32.9274V36.6852H108.354V21.11H112.038V27.1218ZM94.8467 36.6852H91.0254V24.5251H88.4326V36.6169C88.4299 36.6343 88.244 36.8213 88.2285 36.822H84.8174C84.8025 36.822 84.6145 36.6338 84.6123 36.6169V21.11H94.8467V36.6852ZM63.5977 26.6432C63.5987 26.6592 63.7877 26.8483 63.8027 26.8483H66.4639V21.11H70.2842V36.6852H66.4639V30.6735H63.7344V36.6852H59.9141V21.11H63.5977V26.6432ZM82.5625 36.6852H78.8789V24.5251H76.1494V36.6852H72.3291V21.11H82.5625V36.6852ZM127.115 25.2087C129.517 25.6076 130.053 29.9288 127.523 30.4343L127.184 30.8083C129.315 30.8616 130.055 34.3084 128.883 35.5847C128.715 35.7662 127.191 36.6831 126.979 36.6843H120.361V25.2087H127.115ZM145.062 29.3073H146.699V25.2087H150.384V36.6843H146.836V32.0397H145.062V36.6843H141.514V25.2087H145.062V29.3073ZM159.389 28.0778H157.069V36.6843H153.521V28.0778H150.929V25.2087H159.389V28.0778ZM56.8408 27.8015C57.1434 27.5312 57.7416 27.7109 58.1387 27.6677C58.2977 27.8287 57.2923 30.5689 57.3125 31.1472C57.3302 31.6527 58.3079 34.0563 58.1387 34.2243C57.7634 34.1656 57.1968 34.3098 56.8652 34.2292C56.6815 34.1829 55.3695 31.1595 55.4316 30.7761C55.4603 30.6066 56.718 27.9108 56.8408 27.8015ZM54.0645 27.6882C54.254 27.5694 54.9822 27.7238 55.2705 27.6667L55.2734 27.6677C55.5191 27.9191 54.4654 30.4659 54.4463 31.0192C54.4276 31.5731 55.4962 34.003 55.2725 34.2243C54.8236 34.1724 54.2317 34.4055 53.9219 34.0056C53.7922 33.8389 52.4568 31.3123 52.4541 31.1511C52.4535 30.9556 53.9026 27.793 54.0645 27.6882ZM105.374 27.6882C105.575 27.5625 106.408 27.7295 106.717 27.6667V27.6677C106.879 27.8211 105.824 30.5782 105.8 31.0358C105.776 31.4941 106.838 34.1068 106.716 34.2224C106.241 34.1595 105.549 34.4168 105.229 34.0046C105.043 33.7641 103.839 31.2323 103.853 31.0231C104.15 30.616 105.218 27.7854 105.374 27.6882ZM163.732 27.6891C163.974 28.5307 165.333 30.2024 165.254 31.0016C165.236 31.1738 163.95 33.9772 163.823 34.0905C163.507 34.3715 162.81 34.1697 162.39 34.2243C162.26 34.1082 163.347 31.4065 163.348 30.8786C163.348 30.3513 162.267 27.9331 162.524 27.6677L163.732 27.6891ZM159.661 27.6677C160.11 27.7196 160.703 27.4861 161.013 27.8864C161.163 28.0818 162.269 30.3008 162.329 30.5339C162.373 30.7033 162.408 30.8172 162.391 31.0016C162.371 31.1895 161.088 33.976 160.961 34.0905C160.658 34.361 160.058 34.1806 159.661 34.2243C159.475 34.0359 160.49 31.4461 160.492 30.8786C160.494 30.3118 159.474 27.8592 159.661 27.6677ZM102.551 27.8005C102.854 27.5301 103.453 27.7104 103.85 27.6667V27.6677C104.005 27.8234 103.034 30.4651 103.021 31.0143C103.006 31.5985 103.972 34.1046 103.85 34.2243L102.576 34.2302C102.343 33.498 100.903 31.5284 101.006 30.9118C101.035 30.741 102.421 27.9166 102.551 27.8005ZM136.188 31.2184C135.075 31.5941 134.061 31.4554 133.997 32.9255C133.988 33.1542 134.045 33.9266 134.175 34.0563C134.294 34.1751 134.929 34.2438 135.134 34.2028C136.361 33.961 136.234 32.1434 136.188 31.2184ZM125.967 32.7907C125.96 31.2267 124.943 31.6787 123.772 31.6296V34.0886C125.039 34.0736 125.974 34.4138 125.967 32.7907ZM123.772 27.6677V29.8532C124.788 29.8218 125.787 30.1919 125.831 28.8298C125.874 27.4682 124.839 27.6663 123.772 27.6677ZM88.2949 10.8649C88.7616 10.4756 89.005 10.1397 89.6982 10.3474C91.3503 10.844 90.8455 16.9018 88.2939 14.5534V16.4665H87.4756V10.3181C88.1152 10.337 88.4122 10.0959 88.2949 10.8649ZM113.267 10.4557V14.1432H114.358V10.4548H115.177V14.1432H116.269V10.4548H117.087V14.1432C117.238 14.1705 117.727 14.1027 117.771 14.1432C117.817 14.1883 117.793 15.2504 117.776 15.4499C117.675 16.6856 116.822 15.9029 117.087 14.9645H112.447V10.319L113.267 10.4557ZM70.1445 10.3181C70.5402 10.3358 71.0082 10.1612 71.0996 10.6599C71.2755 11.6148 70.9098 13.1459 71.0898 14.0681C71.1226 14.232 71.4857 14.0533 71.5186 14.2184C71.5513 14.3838 71.5743 15.9931 71.5088 16.0573C71.4891 16.0764 70.9882 16.0734 70.9678 16.0544C70.9283 16.0162 70.8842 14.9691 70.8271 14.9636H68.0977V10.3181H68.916V14.1432H70.1445V10.3181ZM98.791 12.7106C98.791 9.40162 102.399 9.52053 102.212 12.779V12.777H100.097C99.3397 12.7774 99.8568 14.6419 100.986 14.0768C101.327 13.9061 101.2 13.2362 101.906 13.5612C102.324 13.7538 101.747 14.5544 101.521 14.7487C100.065 16.0015 98.7912 14.1615 98.791 12.7106ZM118.866 10.53C120.412 9.56135 121.382 11.4368 121.315 12.777H118.859C118.662 13.516 119.284 14.5667 120.09 14.0768C120.45 13.8582 120.07 13.1707 121.012 13.5641C121.461 13.7516 120.73 14.5967 120.502 14.7634C118.214 16.4258 116.922 11.7501 118.866 10.53ZM96.7207 10.2145C98.9408 10.0902 99.0476 15.112 96.6855 15.112C94.4901 15.112 94.4354 10.3434 96.7207 10.2145ZM123.162 15.11C121.05 15.0199 121.141 9.55767 123.814 10.3474C124.288 10.4871 124.757 11.465 124.729 11.9567C123.578 12.2941 124.069 11.3009 123.509 11.194C122.378 10.9795 122.48 13.6144 123.015 14.0163C123.674 14.5135 123.899 13.3406 123.994 13.3141C124.155 13.2718 124.765 13.2051 124.726 13.5231C124.633 14.269 123.978 15.144 123.162 15.11ZM105.722 10.3454C108.282 9.76475 108.467 15.0002 106.1 15.1081C104.019 15.202 103.869 10.7664 105.722 10.3454ZM132.877 10.3464C135.551 9.7343 135.692 14.7919 133.52 15.0925C131.248 15.4063 131.135 10.7455 132.877 10.3464ZM76.9277 10.3454C80.1481 9.61446 79.4014 16.4185 76.7051 14.8815C75.6343 14.2706 75.367 11.64 76.1934 10.7722L76.1953 10.7731C76.3074 10.6556 76.7707 10.3824 76.9277 10.3454ZM83.8652 11.0095C84.3565 10.2362 85.5438 9.98726 86.2002 10.6403L86.1982 10.6374C86.6717 11.1087 86.8547 12.2702 86.792 12.9138L84.335 12.777C84.3036 13.1746 84.4086 13.9849 84.8398 14.1188C85.7673 14.4054 85.766 13.5576 86.0635 13.4743C87.1128 13.1765 86.5586 14.8598 85.4629 15.0729C83.4271 15.4676 83.0506 12.2951 83.8652 11.0095ZM110.118 8.73602C110.36 8.61018 110.858 7.92188 111.207 8.41864C111.81 9.27931 109.423 9.38093 109.311 10.2497C109.261 10.628 109.876 10.2899 110.198 10.3034C112.236 10.3854 112.136 15.339 109.824 15.0739C107.871 14.8494 108.142 11.2106 108.697 9.90985C109.101 8.96442 109.342 9.13906 110.118 8.73602ZM61.2754 8.88055C61.5429 8.67843 62.3789 8.55837 62.4746 9.04852L64.0059 14.9606V14.9616C62.4612 15.2717 63.0884 14.1819 62.6572 13.5397C62.56 13.3963 61.2257 13.414 61.002 13.5261C60.4283 13.8149 61.0033 15.359 59.6396 14.9606C60.0285 14.2269 60.9875 9.09915 61.2754 8.88055ZM66.7363 10.3884C66.9683 10.249 67.2958 10.3337 67.5537 10.32C67.7464 10.4901 66.6244 11.7121 66.6094 12.0222C66.5877 12.4909 67.8872 14.7778 67.6904 14.9636C66.4391 15.2655 66.4524 13.7271 65.9844 12.9128C65.1603 13.2884 65.3897 14.235 65.3721 14.9645H64.415V10.3181H65.3701V12.2311C65.7713 11.9374 66.4006 10.5907 66.7363 10.3884ZM128.208 10.319C128.75 10.319 129.803 10.2222 130.254 10.319V10.3181C131.026 10.4847 131.278 11.5185 130.908 12.1989C130.785 12.4257 130.498 12.3182 130.597 12.571C130.702 12.8442 131.245 13.0127 131.27 13.6794C131.283 14.0445 130.898 14.9644 130.527 14.9645H128.003V10.5241C128.004 10.5079 128.193 10.319 128.208 10.319ZM74.2402 10.3171C74.4357 10.2803 75.0586 10.3156 75.0586 10.5231V14.9636H74.1035V12.6403C73.6 13.0679 73.3339 13.7597 73.0078 14.3171C72.8959 14.5083 72.585 14.283 72.874 14.9616L71.9785 14.8298L71.9541 10.5163C72.0059 10.2268 72.6332 10.3252 72.875 10.3171V12.9138L74.1377 11.1042L74.2402 10.3171ZM82.8379 10.3181V14.9636H81.8818V13.0505H80.6543V14.9636H79.6992V10.3181L80.6543 10.3171L80.7324 12.0954L81.8818 12.0944L81.8809 10.3171L82.8379 10.3181ZM91.2979 10.3181C92.6876 10.0724 92.1721 11.1597 92.251 12.0954H93.4805V10.3181C93.6728 10.2935 94.4352 10.2842 94.4355 10.5231V14.9636H93.4805V12.9138C93.2626 13.0951 92.257 12.9898 92.2529 13.0505V14.9636H91.2979V10.3181ZM127.525 10.3181C127.939 10.3181 127.825 11.7038 126.775 11.2751V14.9636H125.82V11.2751C125.82 11.1876 124.486 11.6023 124.865 10.3181H127.525ZM89.4893 11.3073C88.3636 10.1311 87.6335 14.1348 89.0674 14.2595C89.9161 14.3319 89.9518 11.7923 89.4893 11.3073ZM96.5791 11.1589C95.6719 11.4064 95.7318 14.1802 96.6826 14.2243C97.923 14.2817 97.7649 10.8364 96.5791 11.1589ZM110.507 11.3063C110.357 11.152 109.893 11.0964 109.68 11.1579C108.785 11.4178 108.93 14.9628 110.404 14.0768C110.897 13.7818 110.901 11.7112 110.507 11.3063ZM133.836 11.3112C132.354 9.97869 131.896 14.995 133.736 14.0768C134.305 13.7927 134.273 11.7047 133.836 11.3112ZM130.332 13.6677C130.449 12.6148 129.726 12.9509 128.957 12.9128V14.1432C129.56 14.0697 130.246 14.4408 130.332 13.6677ZM77.5771 14.1501C78.4859 14.0094 78.4522 10.804 77.2012 11.1559C76.3838 11.3868 76.251 14.3547 77.5771 14.1501ZM106.232 14.1481C107.388 13.9798 106.91 10.165 105.66 11.3112C105.162 11.769 105.077 14.3162 106.232 14.1481ZM61.6885 10.0446C61.5084 10.9518 61.112 11.8398 61.1406 12.777C61.2034 12.8382 62.3183 12.6854 62.3633 12.6335C62.4618 12.5163 62.0439 11.0488 61.9727 10.7829C61.9194 10.5821 61.9068 10.0801 61.6885 10.0446ZM128.957 11.1364V12.2311C129.241 12.1726 129.983 12.3249 130.164 12.2106H130.166C130.233 12.1681 130.335 11.7373 130.324 11.6198C130.265 10.9849 129.411 11.1377 128.957 11.1364ZM85.9717 12.0925C85.8801 10.8359 84.5439 10.5369 84.335 11.8903C84.2927 12.1677 84.3593 12.0698 84.5381 12.0944C84.9761 12.1558 85.5193 12.0507 85.9736 12.0944L85.9717 12.0925ZM101.257 12.0925C101.338 10.833 99.9586 10.5697 99.7539 11.8893C99.7117 12.1664 99.7793 12.0679 99.958 12.0925C100.355 12.1484 100.845 12.0529 101.257 12.0925Z" fill="#7C7F7D"/>
</svg>
