<svg width="83" height="89" viewBox="0 0 83 89" fill="none" xmlns="http://www.w3.org/2000/svg">
<path d="M43.3594 46.396C43.4085 46.0193 43.5063 45.6043 43.8994 45.9946L65.0088 82.1978L63.7744 82.7358L52.8848 63.9556L52.7451 63.6851L52.3389 63.9556L62.6553 83.522C61.6727 83.9259 61.7839 84.3836 61.0908 83.3687C57.6238 78.2909 55.2891 70.7857 51.8467 65.6724C51.6121 65.3231 51.5377 64.9303 50.9785 65.0474L60.2227 84.5073C60.2021 84.7641 58.7277 85.4423 58.4648 84.9224L46.3545 58.5112L46.8945 87.77C46.7495 88.7274 45.6832 88.7273 45.5381 87.77C45.4016 82.422 45.7099 77.046 45.5488 71.7007C45.5297 71.0565 45.284 70.461 45.2539 69.8169C45.1857 68.3456 45.4447 66.5765 45.2646 65.1733C45.2128 64.7775 45.0575 64.3297 44.7217 64.772L44.1758 88.4497H43.0889C43.2144 83.0935 43.3484 77.7501 43.3594 72.3911C43.8615 71.1764 43.6292 69.4179 43.6318 68.0366V67.2202C43.6292 66.7829 43.7352 64.229 43.4961 64.2231C43.0567 65.1731 43.1569 66.213 43.0859 67.2202C42.6382 73.7422 42.1252 80.8655 41.7539 86.9507C41.7156 87.5592 41.4978 88.1218 41.4541 88.7222H40.6377L39.0049 66.1313C39.0294 65.1432 39.0838 63.9717 39.002 63.0054C38.9747 62.6724 38.9002 61.5508 38.4639 61.5063C38.6249 63.895 38.112 66.5463 38.7344 68.853C38.6498 75.3941 39.1004 81.9113 39.0049 88.4497H37.918C37.8634 82.643 37.7492 76.8355 37.6455 71.0288V69.6694C37.6046 66.9395 37.5766 64.2281 37.3691 61.5063L37.0996 64.2261V64.4985C36.5974 66.5215 36.8289 68.9188 36.8262 71.0317L36.832 71.0347C36.8266 76.7594 36.6489 82.4629 36.5615 88.1821H35.1992L35.7422 58.5142L23.9023 84.9087C23.6322 85.4294 22.18 84.375 22.1689 84.2368L31.3906 64.5015C30.651 64.3377 30.926 64.7276 30.7188 65.0415C30.4703 65.4182 30.2082 65.8308 29.9844 66.2212C26.8285 71.725 24.2898 77.9198 21.0547 83.4263C20.7816 84.0864 19.6383 83.4585 19.7197 82.9126L29.4883 64.228L18.5947 82.4653C18.3732 82.6259 17.1299 82.0149 17.2295 81.521L38.6006 45.9946L40.916 80.5571C41.3739 80.5563 41.4344 79.6503 41.459 79.3335C42.2561 69.4072 42.6823 59.3546 43.3594 49.3901C43.4248 48.4213 43.2449 47.3158 43.3594 46.396ZM12.5928 65.2163C12.8217 65.1931 13.0543 65.2433 13.29 65.3667C13.5229 65.4866 13.7468 65.679 13.9619 65.9429C14.1329 66.1528 14.258 66.3586 14.3369 66.5591C14.4158 66.7596 14.4558 66.9503 14.4561 67.1304C14.4529 67.313 14.4153 67.4813 14.3438 67.6353C14.266 67.7887 14.1583 67.9226 14.0195 68.0356L13.6631 67.5981C13.7637 67.4936 13.8337 67.3752 13.8721 67.2427C13.9077 67.1066 13.9022 66.9582 13.8564 66.7983C13.8079 66.6352 13.7073 66.46 13.5557 66.2739C13.3268 65.9931 13.1006 65.8336 12.8779 65.7954C12.6554 65.7573 12.4478 65.8169 12.2549 65.9741C12.1093 66.0928 12.0214 66.2343 11.9922 66.3989C11.963 66.5635 11.9844 66.7382 12.0557 66.9224C12.1235 67.1092 12.2332 67.2959 12.3848 67.4819L12.2822 67.564L12.2832 67.5649L12.0039 67.7925C11.8522 67.6064 11.697 67.4707 11.5381 67.3862C11.3757 67.3045 11.2208 67.2671 11.0742 67.2739C10.9243 67.2835 10.7934 67.3343 10.6816 67.4253C10.5702 67.5162 10.4925 67.6212 10.4492 67.7407C10.4026 67.8632 10.3985 67.9967 10.4365 68.1401C10.4719 68.2803 10.5517 68.4273 10.6758 68.5796C10.7916 68.7216 10.9204 68.8313 11.0615 68.9077C11.1999 68.9807 11.3361 69.016 11.4697 69.0142C11.6034 69.0123 11.7232 68.9688 11.8281 68.8833L12.1631 69.2944C11.9769 69.4461 11.7756 69.531 11.5596 69.5493C11.3407 69.5642 11.1219 69.5169 10.9033 69.4077C10.6786 69.2979 10.4739 69.1296 10.2891 68.9028C10.096 68.6659 9.97379 68.427 9.92383 68.186C9.87391 67.945 9.8835 67.7205 9.95117 67.5132C10.0189 67.306 10.1374 67.1335 10.3066 66.9956C10.4318 66.8936 10.5762 66.829 10.7402 66.8022C10.8982 66.7749 11.0667 66.7844 11.2451 66.8306C11.3865 66.8701 11.5293 66.9345 11.6738 67.0229C11.6568 66.9853 11.6389 66.9483 11.624 66.9106C11.518 66.6422 11.4858 66.386 11.5293 66.1421C11.5694 65.901 11.7084 65.6838 11.9453 65.4907C12.1451 65.3279 12.361 65.2361 12.5928 65.2163ZM75.6299 66.4214L69.4609 65.1616L69.8916 64.5552L71.6377 64.938L72.918 63.1362L71.9795 61.6167L72.4111 61.0103L75.6299 66.4214ZM72.3008 65.0864L74.3975 65.5454L73.2725 63.7183L72.3008 65.0864ZM49.8896 61.7827C49.8569 61.7554 49.3161 61.6817 49.3516 61.9165C49.9352 62.4515 50.0587 63.2292 50.3643 63.9087C50.5412 64.2989 50.2066 64.6488 50.9814 64.5015C51.0878 64.049 50.0504 61.9249 49.8896 61.7827ZM31.3877 60.9663C30.5907 61.8071 30.0662 62.8358 29.4902 63.8267C29.5923 63.9647 30.2061 63.6498 30.2334 63.6226V63.6196C30.531 63.3053 31.3189 61.5293 31.3877 60.9663ZM50.168 59.8765C50.3346 60.6435 50.8042 61.5671 51.2109 62.2358C51.4782 62.6755 51.6999 63.5595 52.3408 63.4126C51.9669 62.1843 51.1615 60.6628 50.168 59.8765ZM44.7246 63.4146H45.2705V60.9634H44.7246V63.4146ZM9.17188 59.0542L8.23438 60.2183L9.10449 61.8472L10.5938 61.7114L10.8867 62.2603L5.63574 62.6538L8.87891 58.5054L9.17188 59.0542ZM6.75098 62.0581L8.53711 61.896L7.875 60.6587L6.75098 62.0581ZM50.0312 59.6011C50.1486 59.3308 49.7506 58.5284 49.625 58.7905C49.5352 59.1887 49.7393 59.3583 50.0312 59.6011ZM80.584 56.4741L79.9883 57.7524C79.8494 58.0505 79.6844 58.2876 79.4932 58.4634C79.2996 58.6439 79.0818 58.7534 78.8398 58.7905C78.6026 58.8298 78.3416 58.7832 78.0576 58.6509C77.8257 58.5428 77.6552 58.3882 77.5469 58.188C77.4386 57.9877 77.3937 57.7558 77.4121 57.4937C77.4152 57.4443 77.422 57.3941 77.4297 57.3433C77.408 57.3721 77.3877 57.4018 77.3652 57.4292C77.2183 57.6085 77.0544 57.7484 76.875 57.8491C76.6982 57.9567 76.507 58.0149 76.3018 58.0229C76.0964 58.031 75.8796 57.9813 75.6523 57.8755C75.3259 57.7233 75.0886 57.5209 74.9414 57.2681C74.7968 57.0221 74.73 56.7453 74.7402 56.439C74.753 56.1397 74.8345 55.8291 74.9844 55.5073L75.6133 54.1577L80.584 56.4741ZM77.9785 56.8159C77.9014 56.9815 77.8604 57.1443 77.8555 57.3032C77.8506 57.4621 77.8855 57.6046 77.959 57.731C78.0326 57.8574 78.1475 57.958 78.3037 58.0308C78.5401 58.1408 78.761 58.1425 78.9658 58.0366C79.1755 57.9327 79.3391 57.7552 79.4561 57.5044L79.7705 56.8296L78.292 56.1401L77.9785 56.8159ZM75.5166 55.7554C75.4174 55.9683 75.3684 56.1734 75.3691 56.3696C75.3678 56.5703 75.4167 56.7489 75.5166 56.9048C75.6145 57.0656 75.7662 57.1937 75.9697 57.2886C76.121 57.359 76.2678 57.3958 76.4102 57.3989C76.5526 57.402 76.6878 57.3728 76.8145 57.311C76.939 57.2539 77.0518 57.1671 77.1514 57.0522C77.2556 56.9396 77.345 56.8028 77.4199 56.6421L77.7666 55.896L75.8643 55.0093L75.5166 55.7554ZM5.20996 53.104C5.49766 53.0151 5.75812 53.0075 5.99121 53.0815C6.21899 53.1529 6.41638 53.2863 6.58203 53.4819C6.7421 53.6746 6.86541 53.9132 6.95312 54.1968L7.32129 55.3862L2.93945 56.7417L2.59082 55.6147C2.50955 55.3519 2.47912 55.1115 2.49902 54.895C2.51772 54.6747 2.59177 54.4853 2.7207 54.3267C2.84572 54.1691 3.03382 54.0515 3.28418 53.9741C3.48859 53.911 3.6808 53.9108 3.86035 53.9741C4.0398 54.0375 4.19734 54.1558 4.33301 54.3286C4.35884 54.361 4.38238 54.3962 4.40625 54.4321C4.40346 54.402 4.40089 54.372 4.39941 54.3423C4.38984 54.1488 4.41217 53.9703 4.4668 53.8071C4.516 53.6411 4.6019 53.4977 4.72461 53.3774C4.84743 53.2572 5.00968 53.1659 5.20996 53.104ZM3.86133 54.4878C3.7447 54.4507 3.61721 54.454 3.47949 54.4966C3.27102 54.5611 3.13291 54.6839 3.06543 54.8647C2.99395 55.0468 2.99226 55.2483 3.06055 55.4692L3.24414 56.064L4.5459 55.6606L4.3623 55.0669C4.31716 54.9209 4.25121 54.7971 4.16504 54.6958C4.07888 54.5945 3.97787 54.5249 3.86133 54.4878ZM5.83887 53.6294C5.68787 53.5846 5.52222 53.5905 5.34277 53.646C5.20929 53.6873 5.09694 53.7466 5.00684 53.8247C4.9168 53.9028 4.85046 53.9974 4.80664 54.1069C4.76159 54.2123 4.74042 54.3285 4.74316 54.4556C4.74177 54.5839 4.76281 54.7191 4.80664 54.8608L5.00879 55.5181L6.6875 54.9995L6.48438 54.3423C6.42633 54.1545 6.34107 53.9996 6.23047 53.8784C6.1187 53.7533 5.98828 53.67 5.83887 53.6294ZM79.2324 44.4937C79.5962 44.4235 79.9732 44.4256 80.3633 44.4985C80.7586 44.5725 81.1111 44.7069 81.4199 44.9028C81.7328 45.1048 81.9891 45.3525 82.1895 45.645C82.3949 45.9385 82.5361 46.2649 82.6123 46.6245C82.6936 46.985 82.6979 47.3604 82.625 47.7505C82.5511 48.1458 82.4112 48.4947 82.2061 48.7964C82.0051 49.104 81.7556 49.3578 81.458 49.5571C81.1656 49.7574 80.8373 49.8923 80.4736 49.9624C80.114 50.0386 79.7361 50.0402 79.3408 49.9663C78.9508 49.8933 78.599 49.7561 78.2861 49.5542C77.9725 49.3575 77.7132 49.112 77.5078 48.8188C77.3075 48.5264 77.1663 48.1989 77.085 47.8384C77.0078 47.484 77.0062 47.1086 77.0801 46.7134C77.153 46.3234 77.2903 45.9742 77.4912 45.6665C77.6973 45.3598 77.9469 45.106 78.2393 44.9058C78.5368 44.7065 78.8678 44.5689 79.2324 44.4937ZM2.75684 44.9292C3.08705 44.896 3.40163 44.9237 3.7002 45.0122C3.99829 45.0964 4.26418 45.2323 4.49805 45.4194C4.72753 45.607 4.91734 45.8358 5.06738 46.106C5.21264 46.3723 5.30229 46.6728 5.33594 47.0073C5.3691 47.3374 5.34173 47.6498 5.25293 47.9438C5.15964 48.2385 5.01866 48.5014 4.83105 48.731C4.63912 48.9608 4.40577 49.1493 4.13086 49.2954C3.8554 49.4372 3.55195 49.5249 3.22168 49.5581C2.88718 49.5917 2.57304 49.5655 2.2793 49.481C1.98068 49.3925 1.7159 49.2545 1.48633 49.0669C1.2526 48.8798 1.06266 48.6509 0.916992 48.3804C0.766923 48.1101 0.6758 47.8092 0.642578 47.479C0.608982 47.1445 0.638759 46.8318 0.732422 46.5415C0.821356 46.2473 0.962401 45.9853 1.1543 45.7554C1.3419 45.5259 1.57325 45.3396 1.84863 45.1978C2.11927 45.0521 2.42229 44.9628 2.75684 44.9292ZM80.2344 45.1909C79.8289 45.1151 79.4505 45.1355 79.0996 45.2505C78.7479 45.3706 78.4504 45.5671 78.208 45.8403C77.9656 46.1138 77.8073 46.4463 77.7344 46.8364C77.6606 47.2314 77.6874 47.5978 77.8154 47.9351C77.9427 48.2776 78.1499 48.5662 78.4355 48.8003C78.7202 49.0394 79.0652 49.1971 79.4707 49.2729C79.8763 49.3488 80.2555 49.3267 80.6074 49.2065C80.9582 49.0915 81.2547 48.8969 81.4971 48.6235C81.7385 48.3552 81.8968 48.0236 81.9707 47.6284C82.0436 47.2383 82.0159 46.8714 81.8887 46.5288C81.7614 46.1863 81.5551 45.8949 81.2705 45.6558C80.985 45.422 80.6396 45.2667 80.2344 45.1909ZM2.81543 45.5161C2.47216 45.5507 2.17307 45.6573 1.91895 45.8364C1.66454 46.0112 1.47198 46.2369 1.3418 46.5132C1.2112 46.7852 1.1627 47.0888 1.19629 47.4233C1.22952 47.7536 1.33786 48.0416 1.52051 48.2866C1.70316 48.5316 1.93701 48.7163 2.22168 48.8413C2.50596 48.9619 2.8198 49.0057 3.16309 48.9712C3.50628 48.9367 3.80505 48.8315 4.05957 48.6567C4.31369 48.4776 4.50647 48.2496 4.63672 47.9731C4.76686 47.6968 4.81539 47.3931 4.78223 47.063C4.74857 46.7284 4.64019 46.4404 4.45801 46.1997C4.27542 45.9549 4.04188 45.7725 3.75781 45.6519C3.47306 45.5268 3.15878 45.4816 2.81543 45.5161ZM40.918 0.277832C42.1109 1.5447 42.9241 4.42244 43.0879 6.13135C43.8904 14.384 42.4796 23.8543 43.1074 32.2407L46.083 37.7036L43.0908 37.8374V43.0083H39.2822V37.8354C39.1894 37.7426 37.1746 37.8982 36.6914 37.8354C36.3122 37.7864 36.2219 37.9848 36.29 37.4312L39.2637 32.2388C39.7933 23.8384 38.619 14.7031 39.2715 6.39014C39.438 4.27448 40.2137 2.24609 40.918 0.277832ZM6.0293 36.9204L5.97168 37.4087L5.25586 37.3237L4.8252 40.9683L5.54102 41.0522L5.48242 41.5405L4.24609 41.394L4.31543 40.8062L0.257812 38.5806L4.72266 37.3618L4.79297 36.7749L6.0293 36.9204ZM1.51367 38.729L4.38379 40.229L4.6543 37.939L1.51367 38.729ZM78.6367 36.0962C78.4664 36.1294 78.3171 36.1979 78.1885 36.3013C78.0603 36.4098 77.9635 36.558 77.8984 36.7456C77.8338 36.9387 77.8116 37.179 77.832 37.4653C77.863 37.8977 77.9743 38.2094 78.166 38.3999C78.3576 38.5902 78.6017 38.675 78.8984 38.6538C79.1224 38.6378 79.3055 38.5594 79.4473 38.4185C79.589 38.2774 79.6882 38.0919 79.7451 37.8628C79.8072 37.6332 79.8281 37.3749 79.8076 37.0884L80.0811 37.0688L80.3936 37.0464C80.4141 37.3328 80.4738 37.5722 80.5713 37.7642C80.674 37.9557 80.7992 38.0988 80.9473 38.1929C81.1006 38.2866 81.2636 38.3272 81.4355 38.3149C81.6072 38.3026 81.7554 38.2528 81.8799 38.1655C82.0097 38.0777 82.1056 37.9503 82.167 37.7837C82.2287 37.6223 82.2511 37.4242 82.2344 37.1899C82.2187 36.9712 82.1676 36.7759 82.082 36.604C81.9968 36.4374 81.8888 36.3083 81.7568 36.2183C81.6247 36.1282 81.4769 36.0895 81.3154 36.1011L81.2705 35.4673C81.557 35.4468 81.8121 35.5027 82.0361 35.6333C82.2605 35.7691 82.4422 35.9652 82.5811 36.2222C82.7255 36.4841 82.811 36.7901 82.8359 37.1392C82.862 37.5036 82.816 37.8212 82.6992 38.0913C82.5824 38.3613 82.4196 38.5747 82.2109 38.731C82.0022 38.8872 81.7672 38.975 81.5068 38.9937C81.3143 39.0074 81.1281 38.9709 80.9492 38.8843C80.7759 38.8024 80.6175 38.677 80.4746 38.5093C80.3632 38.3731 80.2682 38.2112 80.1875 38.0249C80.1783 38.0738 80.1716 38.1229 80.1602 38.1704C80.0794 38.506 79.9338 38.779 79.7236 38.9878C79.5186 39.1961 79.2337 39.3133 78.8691 39.3394C78.5619 39.3613 78.2882 39.3023 78.0479 39.1626C77.8079 39.028 77.6147 38.8192 77.4688 38.5366C77.3232 38.2591 77.2352 37.9166 77.2061 37.5103C77.183 37.1874 77.2021 36.9003 77.2627 36.6499C77.3233 36.3997 77.4157 36.1866 77.5391 36.0103C77.6678 35.8335 77.8201 35.6939 77.9961 35.5923C78.1777 35.4955 78.3753 35.4396 78.5889 35.4243L78.6367 36.0962ZM77.6738 24.769C78.0456 24.7912 78.3908 24.8813 78.709 25.0376C79.0322 25.1922 79.3155 25.4073 79.5586 25.6831C79.8066 25.9572 79.9949 26.2821 80.123 26.6577C80.2529 27.0383 80.3029 27.4104 80.2725 27.7739C80.2486 28.1407 80.1554 28.4843 79.9941 28.8042C79.8379 29.1222 79.6191 29.4014 79.3369 29.6411C79.0611 29.8842 78.7322 30.0708 78.3516 30.2007C77.9759 30.3288 77.6022 30.382 77.2305 30.3599C76.8604 30.3426 76.5136 30.2567 76.1904 30.1021C75.8723 29.9457 75.5888 29.7306 75.3408 29.4565C75.0995 29.1857 74.914 28.8596 74.7842 28.479C74.6561 28.1035 74.6042 27.7324 74.6279 27.3657C74.6567 26.9973 74.7491 26.6536 74.9053 26.3354C75.0665 26.0155 75.2877 25.7326 75.5684 25.4878C75.8507 25.248 76.1801 25.0642 76.5557 24.936C76.9361 24.8062 77.3088 24.7502 77.6738 24.769ZM77.915 25.4985C77.5512 25.435 77.1737 25.4698 76.7832 25.603C76.3927 25.7363 76.0724 25.9398 75.8232 26.2124C75.576 26.4899 75.4136 26.8074 75.3369 27.1646C75.2602 27.5218 75.2859 27.8886 75.4141 28.2642C75.5439 28.6446 75.7481 28.9503 76.0254 29.1812C76.3046 29.417 76.6264 29.5669 76.9902 29.6304C77.3556 29.6988 77.7336 29.6669 78.124 29.5337C78.5144 29.4005 78.8336 29.1949 79.0811 28.9175C79.3302 28.6449 79.4935 28.3294 79.5703 27.9722C79.6487 27.6199 79.623 27.2531 79.4932 26.8726C79.365 26.497 79.1609 26.1914 78.8818 25.9556C78.6027 25.7197 78.2805 25.567 77.915 25.4985ZM9.18555 24.8755L8.93457 25.3726L5.88672 23.8345L7.5752 28.5757L3.27539 26.4067L3.52637 25.9097L6.57422 27.4468L4.88574 22.7056L9.18555 24.8755ZM13.6299 18.3696L13.2812 18.8052L10.6484 17.1353L11.8037 19.9722L8.78223 19.4692L10.9902 21.6704L10.6426 22.106L7.22852 18.6626L10.9688 19.3052L9.52051 15.7974L13.6299 18.3696ZM74.4941 16.4976L75.1084 17.4341C75.3031 17.731 75.4197 18.0325 75.458 18.3384C75.5035 18.6458 75.468 18.9346 75.3516 19.2046C75.238 19.4789 75.0397 19.7098 74.7559 19.896C74.4765 20.0792 74.1859 20.1697 73.8848 20.1675C73.5907 20.1667 73.3092 20.0856 73.041 19.9243C72.78 19.7645 72.5522 19.5357 72.3574 19.2388L71.9053 18.5503L70.0713 19.7544L69.7061 19.1978L74.292 16.189L74.4941 16.4976ZM72.4297 18.2065L72.8809 18.895C73.0757 19.192 73.3059 19.3852 73.5703 19.4741C73.8375 19.5673 74.1112 19.5226 74.3906 19.3394C74.6745 19.1532 74.8242 18.9195 74.8408 18.6401C74.8646 18.3623 74.7796 18.0747 74.585 17.7778L74.1328 17.0894L72.4297 18.2065ZM14.9863 11.2065L13.4219 12.5532L14.2773 13.5454L15.7422 12.2847L16.084 12.6821L14.6191 13.9429L15.7305 15.2339L17.2949 13.8872L17.6377 14.2847L16.0723 15.6304L16.0732 15.6313L15.6514 15.9946L12.6582 12.519L13.0801 12.1558L14.6445 10.8091L14.9863 11.2065ZM65.9443 9.1167C66.3021 9.09686 66.6542 9.15001 67 9.2749C67.3492 9.39595 67.6709 9.59019 67.9639 9.85791C68.2606 10.1291 68.4828 10.4318 68.6309 10.7651C68.7863 11.0981 68.8703 11.4434 68.8828 11.8013C68.8988 12.1553 68.8412 12.5061 68.709 12.8521C68.5841 13.1977 68.3855 13.5191 68.1143 13.8159C67.8466 14.1088 67.5445 14.3353 67.208 14.4946C66.8752 14.6575 66.5296 14.7492 66.1719 14.769C65.8177 14.785 65.4655 14.7328 65.1162 14.6118C64.7745 14.4905 64.455 14.2941 64.1582 14.0229C63.8653 13.7553 63.6409 13.4545 63.4854 13.1216C63.3334 12.7847 63.2494 12.4386 63.2334 12.0845C63.2209 11.7265 63.2789 11.3725 63.4072 11.0229C63.5395 10.6769 63.7401 10.357 64.0078 10.064C64.279 9.76722 64.5791 9.53938 64.9082 9.38037C65.2448 9.22104 65.5902 9.13272 65.9443 9.1167ZM66.5371 9.83936C66.179 9.76682 65.8231 9.78805 65.4697 9.90381C65.1203 10.0231 64.8065 10.2351 64.5283 10.5396C64.2501 10.8441 64.0668 11.1759 63.9795 11.5347C63.8961 11.897 63.9062 12.2538 64.0107 12.604C64.1153 12.9541 64.3145 13.2631 64.6074 13.5308C64.9043 13.802 65.2306 13.9725 65.585 14.0415C65.943 14.114 66.2971 14.0904 66.6465 13.9712C66.9997 13.8554 67.3155 13.6448 67.5938 13.3403C67.8719 13.0358 68.0532 12.7025 68.1367 12.3403C68.224 11.9816 68.2148 11.6269 68.1104 11.2769C68.0097 10.9302 67.8115 10.6204 67.5146 10.3491C67.2216 10.0814 66.8953 9.91193 66.5371 9.83936ZM23.3516 10.3364L22.8721 10.6196L21.7383 8.70068L19.5664 9.98291L20.7002 11.9019L20.2207 12.1851L17.8887 8.23584L18.3682 7.95264L19.2998 9.53174L21.4717 8.24951L20.54 6.67041L21.0195 6.38721L23.3516 10.3364ZM56.6348 7.22119L60.3779 4.65576L58.3887 10.1011L57.7939 9.80225L59.0928 6.30811L56.0615 8.36279L55.9004 4.70459L53.873 7.8335L53.2773 7.53369L56.457 2.68701L56.6348 7.22119ZM30.1221 7.38232L29.5967 7.56494L28.4756 4.33936L26.3916 8.92139L24.8105 4.37158L25.3369 4.18896L26.457 7.41357L28.542 2.8335L30.1221 7.38232Z" fill="#7C7F7D"/>
</svg>
