<svg width="94" height="61" viewBox="0 0 94 61" fill="none" xmlns="http://www.w3.org/2000/svg">
<path d="M62.7217 1.79785C63.8778 5.41293 67.6589 7.53686 70.7783 9.26367C77.8301 13.1669 87.291 17.1294 88.832 26.0732C89.708 31.1597 87.5595 35.9786 83.7686 39.2861H73.5859L75.502 38.4512C81.6108 35.6871 87.3954 30.3803 85.0449 22.9668C82.9526 16.3684 76.1123 13.5728 70.5137 10.5713C67.0284 8.70291 62.8092 6.54708 62.3877 2.10742C62.3109 2.12036 62.2928 2.20254 62.2734 2.26562C62.1903 2.53921 62.1744 2.88875 62.0977 3.18066C61.2018 6.59593 57.909 8.38324 55.0391 9.95801C51.5107 11.894 47.8132 13.6214 44.7256 16.2559C39.4166 20.7856 37.9999 29.6552 43.3115 34.7451L45.1455 36.1094H38.1836C34.0305 33.6876 28.3985 30.4673 27.2314 25.3887C27.1676 25.1111 27.1544 24.8215 27.083 24.5439C27.0687 24.4879 27.0862 24.3825 27.0107 24.3945C26.9086 24.9444 26.8514 25.5025 26.6982 26.043C25.8921 28.889 23.3143 30.6405 20.8994 32.0479C15.7588 35.043 7.70186 38.0378 5.2002 43.8193C3.3163 48.1726 5.99816 51.4503 9.38477 53.8408C11.9736 55.6679 14.9014 56.9433 17.8184 58.1484H93.2559V60.9277H82.4541L82.1826 60.877L9.39844 60.875C5.38078 59.3484 1.89378 56.2273 1.07031 51.8447L0.848633 50.1084C0.857552 49.9118 0.835786 49.7088 0.848633 49.5127C1.50899 39.2737 12.4617 35.4531 20.0068 31.0557C23.2165 29.1848 26.7158 26.7259 27.0107 22.6582L27.332 23.998C28.3627 27.6792 31.4798 30.0173 34.6572 31.7998C35.0414 32.0154 35.7623 32.4694 36.1406 32.5967C36.2199 32.6235 36.2882 32.6497 36.375 32.6348C36.4158 32.4552 36.2771 32.3563 36.2246 32.2148C35.3209 29.7992 35.3314 27.1127 36.0645 24.6553C38.6181 16.0958 48.5238 12.4445 55.5156 8.35254C58.7039 6.48662 61.9968 4.09522 62.3389 0.0722656L62.7217 1.79785ZM30.1035 47.4473C32.4004 44.569 38.4542 45.3329 39.0859 49.4014C39.7503 53.682 35.8019 55.7544 32.1016 54.5127C29.2038 53.5405 28.2429 49.7787 30.1035 47.4473ZM43.9072 45.9111C46.0063 45.4293 48.6844 45.9799 49.4072 48.2686L49.4062 48.2695L47.4258 48.667C46.9553 46.7897 43.9234 46.7769 42.9941 48.2734C42.4126 49.2104 42.4362 51.2281 42.9395 52.1924C43.6535 53.5599 46.0343 53.7658 47 52.584C47.2706 52.2527 47.367 51.8823 47.5469 51.5078L49.457 51.9932C49.0281 53.3806 48.0051 54.3269 46.5928 54.6582C43.6748 55.3426 40.6534 53.838 40.4863 50.6289C40.366 48.313 41.6327 46.4337 43.9072 45.9111ZM88.0771 51.8447L88.2021 51.8105L89.9854 45.9375H93.0566V54.6738H91.2236V48.0469C91.2221 48.0336 91.1612 47.8691 91.1494 47.874L91.0186 48.0908L89.0918 54.6719L87.1396 54.6768L85.2363 48.1406L85.0303 47.7744V54.6748H83.1475V45.9375H86.2197V45.9365L88.0771 51.8447ZM20.5938 45.9365L22.4512 51.8096L22.5762 51.8447L24.459 45.9365H27.5059V54.6729H25.623V47.7734C25.457 47.9448 25.3868 48.2515 25.3125 48.4795C24.6447 50.5262 24.1441 52.634 23.4619 54.6758L21.5342 54.624L19.6357 48.0889L19.5039 47.8721C19.4914 47.8694 19.4307 48.0365 19.4307 48.0459V54.6729H17.5469V45.9355H20.5947L20.5938 45.9365ZM57.3828 46.7812C58.3019 46.8453 59.2456 46.9259 60.0918 47.3184C62.0072 48.2067 62.5 50.8268 61.0742 52.3906C60.168 53.3845 58.6658 53.601 57.3828 53.6309V54.6738H55.4004V53.6309C54.5195 53.6145 53.5508 53.5051 52.7412 53.1436C50.5584 52.1684 50.1872 49.0229 52.1641 47.6338C53.0996 46.9765 54.2874 46.8548 55.4014 46.7812V45.9365H57.3828V46.7812ZM68.4092 45.9854L72.4951 54.6738H70.3652L69.498 52.6875L69.3525 52.6348L65.2939 52.6465L64.4189 54.6738H62.2881L66.2754 45.9336L68.4092 45.9854ZM73.7324 45.9375C75.2911 46.0006 76.9151 45.8536 78.4668 45.9355C80.4081 46.0379 82.0726 47.1844 81.4756 49.3496C80.8217 51.7197 77.6441 51.3184 75.7646 51.3477V54.6738H73.7324V45.9375ZM36.5742 48.2939C35.6263 46.8986 32.9293 46.8679 31.8906 48.1699C31.0126 49.2713 31.0697 51.4969 32.0469 52.5068C33.4053 53.9103 36.2596 53.592 36.8848 51.585C37.1842 50.6232 37.1533 49.1469 36.5742 48.2939ZM55.0771 48.2178C53.8754 48.2699 52.9633 48.6565 52.8711 49.9805C52.7492 51.732 53.8184 52.2237 55.4004 52.1914V48.2949C55.3286 48.1947 55.1931 48.2128 55.0771 48.2178ZM57.3828 52.1914C58.7069 52.1889 59.8412 51.9093 59.9121 50.3818C59.9923 48.6435 58.9175 48.2486 57.3828 48.2207V52.1914ZM65.9062 51.248H68.7061L68.7588 51.1475C68.3047 50.2081 67.9474 49.1834 67.4844 48.2529C67.4432 48.17 67.3811 47.9712 67.2695 47.9717L65.9062 51.248ZM77.835 47.3574C77.1636 47.3312 76.4245 47.4261 75.7646 47.377V49.9082C76.3635 49.8824 76.9773 49.9419 77.5752 49.9102C78.242 49.8749 79.1499 49.8015 79.4053 49.0635C79.7503 48.0659 79.0462 47.4713 78.1182 47.377L77.835 47.3574Z" fill="#7C7F7D"/>
</svg>
