<svg width="59" height="59" viewBox="0 0 59 59" fill="none" xmlns="http://www.w3.org/2000/svg">
<path d="M0.265997 26.5564C0.189085 26.4881 0.572962 26.1397 0.638302 26.0762C5.94928 20.9637 11.7163 16.3144 16.9646 11.1417C17.2028 10.8986 17.601 10.6806 17.829 10.4723C21.6508 6.98357 25.4045 3.41152 29.2936 0C30.3071 0.860735 31.3076 1.7488 32.2904 2.64915C40.2599 9.94833 48.2417 17.294 56.1786 24.6416C56.7537 25.1745 57.6256 25.7517 58.1163 26.3201C58.1912 26.4068 58.2048 26.4355 58.1871 26.5564H50.53C49.8106 25.915 49.0952 25.264 48.3853 24.6102C43.7625 20.3571 39.0947 16.0725 34.4344 11.8337C32.7478 10.2995 31.0367 8.79248 29.3637 7.24042L14.0821 21.2274L36.4443 21.2246C42.2345 21.2602 45.9167 26.9116 44.1307 32.3616C43.1982 35.2068 40.2429 37.5451 37.257 37.759C35.7086 37.8696 33.8443 37.5773 32.3537 37.7562C32.2142 37.7726 32.1659 37.7754 32.1012 37.9127L32.1196 49.3044C32.1631 49.3611 32.4197 49.1015 32.4585 49.0674C33.1453 48.4662 33.828 47.8391 34.5025 47.2216C39.8781 42.2997 45.1884 37.3156 50.5987 32.4313H58.2559L29.4399 59L0.267358 32.5338L0.500815 32.4279L8.13547 32.4948C11.9722 35.9234 15.7157 39.4893 19.5966 42.8482C21.9128 44.7678 24.0786 47.3022 26.4281 49.1412C26.4812 49.1828 26.6943 49.3577 26.7419 49.3044L26.6834 32.5098C26.7964 32.4504 26.9196 32.4381 27.0455 32.4286C30.1587 32.2018 33.6251 32.6977 36.7159 32.434C39.0464 32.2352 40.1293 29.3996 38.6516 27.6173C38.2391 27.1193 37.2965 26.5571 36.6451 26.5571H0.265997V26.5564Z" fill="#7C7F7D"/>
</svg>
