<svg width="79" height="75" viewBox="0 0 79 75" fill="none" xmlns="http://www.w3.org/2000/svg">
<path d="M69.75 64.2094C69.5411 60.2581 75.2987 59.1947 77.3369 62.1127C78.4093 63.6469 78.017 66.1933 76.2197 66.9907L76.2178 66.9926C79.7722 68.8097 78.7435 73.8035 74.7725 74.2729C71.7912 74.6264 69.0928 73.2273 69.2988 69.9272H71.8555C71.9126 69.9272 71.8845 70.6449 72.1553 71.0571C72.9572 72.2766 75.5172 72.0867 75.7578 70.5961C76.084 68.5823 74.3507 68.2849 72.7578 68.4233V66.0161C73.6271 66.0537 75.0383 66.0748 75.2822 65.0073C75.6071 63.5858 74.8868 62.7945 73.4443 63.017C72.1913 63.2096 72.3969 64.2094 72.3066 64.2094H69.75ZM35.5146 60.7455C35.6816 60.729 35.5874 60.941 35.6055 61.0493C35.6205 61.141 35.601 61.2508 35.6055 61.35H35.6064C35.7268 63.728 35.6576 66.1631 35.6064 68.5922V73.9848C35.4997 74.3112 33.4969 74.0541 33.0498 74.1352V63.3051H28.3867V74.1352C27.9941 74.0841 26.1058 74.2661 25.9795 73.9848L25.8281 60.7455H35.5146ZM0.255859 60.7485C0.868061 60.8688 2.16315 60.5845 2.66406 60.7485C2.81746 60.7981 2.7998 60.8129 2.81934 60.9662C3.01488 62.502 2.66403 64.4322 2.81445 66.0131H7.47754V60.7495H10.1855V73.9116C10.1854 73.9281 9.97938 74.1339 9.95996 74.1371H7.47754V68.5717H2.81445V74.1352H0.333008L0.255859 73.9868V60.7485ZM61.9961 60.7358C62.4532 60.838 63.6832 60.5635 63.959 60.8969L69.4482 74.1362H66.5898C66.4695 73.2051 65.2891 71.469 65.2363 70.6762H60.4229C59.8423 71.681 59.656 73.1389 58.9941 74.1362H56.3613L61.9961 60.7377V60.7358ZM14.9971 69.6235C15.1775 69.8324 15.1336 69.7074 15.2734 69.5239V69.5229C17.3312 66.8319 18.8281 63.437 20.9385 60.7475H23.4199V74.1342H20.8633V64.9594L14.9219 74.1342H12.4395L12.5898 60.7475H14.9971V69.6235ZM40.5693 69.6235C40.7497 69.8323 40.7058 69.7073 40.8457 69.5239V69.5229C42.8974 66.8409 44.4109 63.4385 46.5107 60.7475H48.9922V74.1342H46.4355V64.9594L40.4941 74.1342H38.0117L38.1621 60.7475H40.5693V69.6235ZM58.0176 60.7485C57.8972 61.3592 58.1815 62.6548 58.0176 63.1557C57.968 63.3087 57.9531 63.2905 57.7998 63.31V63.309C56.6282 63.4579 55.1648 63.1899 53.957 63.3041V74.1332H51.7754C51.6957 74.1122 51.7002 74.05 51.7002 73.9838C51.246 74.0681 51.4084 73.7556 51.3994 73.4653C51.3047 70.6284 51.3844 67.778 51.416 64.9321C51.4025 64.2793 51.4042 63.6354 51.4268 63.0082C51.4253 62.2546 51.4175 61.5006 51.3994 60.7485H58.0176ZM62.9805 64.5092C62.1488 65.529 61.9377 67.0762 61.3271 68.269H64.335L62.9805 64.5092ZM12.9346 22.8129C15.9625 4.80022 36.3383 -4.88121 52.2979 4.04144C52.4016 3.80979 53.333 1.82166 53.5029 1.93597L58.3184 10.0571L48.8428 10.3578L50.6484 6.90082C48.8118 6.05847 47.0812 5.22801 45.1152 4.685C26.8965 -0.353704 10.2267 16.3779 15.374 34.5756C19.5693 49.4025 36.7225 56.5369 50.2979 49.0414C62.029 42.5658 66.123 27.7509 59.6641 16.0092C60.198 15.7896 62.0495 14.4087 62.4619 14.4174C62.8109 14.4249 63.5364 16.0825 63.7139 16.4721C70.3579 31.0343 62.3337 48.3929 47.1533 52.9672H47.1504C27.9886 58.7415 9.62268 42.5162 12.9346 22.8129ZM39.2939 7.5014C39.5527 7.44657 39.9976 8.35364 40.1436 8.60199C43.7987 14.8549 46.3842 24.7105 45.9902 31.9487C45.715 36.9908 43.5187 43.4998 39.7236 46.976H39.7256C39.6564 47.0392 39.6815 47.3851 39.5146 47.1342C41.0023 43.1391 41.4217 39.0637 40.4951 34.8745C40.4046 34.4659 39.6515 31.8511 39.5146 31.7172C39.2922 31.5009 39.2543 31.7757 39.1807 31.9096C37.6013 34.7525 37.6358 40.4766 38.2314 43.6069L39.1406 47.06C37.9704 45.3543 36.9345 43.434 36.0771 41.5493C31.1178 30.6574 31.3741 20.7851 37.3848 10.4077C37.6224 9.99851 39.0593 7.55255 39.2939 7.5014Z" fill="#7C7F7D"/>
</svg>
