<svg width="47" height="61" viewBox="0 0 47 61" fill="none" xmlns="http://www.w3.org/2000/svg">
<path d="M46.5254 60.6782H0.392578V56.9673H46.5254V60.6782ZM9.54297 45.9614C9.47122 46.8759 9.24134 53.1071 9.55664 53.3687C9.64198 53.4391 10.0075 53.3539 10.1621 53.3823V45.9614H11.5234L11.5137 53.2056C11.5189 53.4301 11.7493 53.3217 11.7803 53.5601C11.878 54.3292 11.6887 55.3076 11.7715 56.104C11.4581 56.0561 10.5174 56.2558 10.4346 55.9048C10.4194 55.8353 10.6137 55.3621 10.3486 55.3618H8.18359V45.9624L8.18262 45.9614H9.54297ZM15.6045 55.6079H13.749V45.5903H15.6045V55.6079ZM39.4707 46.8833C39.5736 45.7584 40.7354 45.5171 41.7061 45.7729C41.9101 45.8274 42.6924 46.3842 42.6924 46.519V49.1782L42.6904 49.1772H41.4531L41.4541 47.6909H40.7109V53.5054H41.4541L41.4531 52.02H42.6904V54.6802C42.6904 54.7766 41.9881 55.3731 41.9229 55.3999C41.0696 55.7375 39.9556 55.4536 39.5312 54.6265C39.6017 52.1529 39.2481 49.3186 39.4707 46.8833ZM43.3281 46.4136C43.9415 45.8806 44.3855 45.6003 45.2324 45.7065C45.3029 45.7152 46.4004 46.4473 46.4004 46.519V49.1782H45.2861L45.2871 47.6929H44.4199V53.5063H45.2871C45.2328 53.1626 45.3642 52.6595 45.29 52.3491C45.2542 52.2008 44.9873 52.3514 45.04 52.1479L46.3994 52.0229V54.8657C46.0169 54.9279 46.0413 55.2679 45.6396 55.4038C44.8074 55.6858 43.3333 55.5376 43.3008 54.4409L43.3281 46.4136ZM26.9248 45.7104C27.0422 45.7019 27.8995 45.7297 27.9473 45.7495C28.045 45.7916 28.8817 46.6547 28.8301 46.896C28.5852 49.1234 29.1863 52.1784 28.8301 54.3032C28.6594 55.3261 27.6809 55.5373 26.7979 55.4829C25.7002 55.4148 26.1127 54.9812 25.377 54.4087C25.6194 52.1181 25.038 49.0972 25.3818 46.897C25.4749 46.3047 26.3572 45.7525 26.9248 45.7104ZM5.58594 45.8374V49.0532L6.14355 47.8179C6.32413 47.5495 6.38562 46.0275 6.45117 45.9595C6.49597 45.914 7.48184 45.9928 7.68945 45.9595C7.77974 47.5413 7.09292 49.0121 6.33105 50.3491C7.10158 51.6205 7.86855 53.1369 7.82031 54.6792C7.7869 55.7329 7.30083 55.278 6.45117 55.3608C6.47838 54.3294 6.27898 53.2293 5.89062 52.272C5.83009 52.1234 5.76344 51.777 5.58691 51.7729V55.1743C5.58539 55.4458 4.22809 55.4458 4.22656 55.1743V45.8364H5.58691L5.58594 45.8374ZM2.80371 45.8374C3.16857 45.8374 3.66524 46.3933 3.72461 46.7729C3.82471 47.4058 3.84192 50.746 3.72949 51.3384C3.54274 52.3117 2.51355 52.1797 1.75293 52.145V55.3608C1.32503 55.257 0.69933 55.4164 0.392578 55.1753V46.0229C0.393807 46.0083 0.564569 45.8374 0.578125 45.8374H2.80371ZM20.9229 55.2368H19.6855V47.6929H18.6963C18.6494 47.819 18.8203 47.953 18.8203 48.0024V55.3608C18.4357 55.1605 17.9998 55.2479 17.583 55.2368V45.9614H20.9229V55.2368ZM32.4277 45.9604C33.1768 45.7558 34.258 45.7555 35.0098 45.9585C35.0137 45.9592 35.0176 45.9597 35.0215 45.9604H35.0234C35.6206 46.0706 35.5587 46.5302 35.6416 46.9507L35.6758 47.1499C35.8288 48.1617 35.8819 50.2475 35.6875 51.2134L35.6416 51.4028C35.466 52.0088 35.222 52.0141 34.5801 52.1353C34.2648 52.1944 33.877 52.0228 33.6631 52.3306V55.3608H32.4248V45.9604H32.4277ZM21.8135 45.9429C22.3163 45.908 23.8171 45.9294 24.0693 45.9683C24.658 46.0598 24.8215 46.4829 24.8809 47.0122C24.9575 47.6986 24.9764 50.9814 24.8008 51.5083C24.5348 52.3047 23.4474 52.1425 22.7783 52.145C22.7956 52.9068 22.7599 53.6747 22.7734 54.439C22.7796 54.7519 23.0885 55.311 22.6494 55.311C22.3761 55.3109 21.9877 55.1609 21.665 55.2388V55.1753L21.4541 46.2856C21.4652 46.1659 21.5454 45.9977 21.665 45.9614L21.8135 45.9429ZM32.1768 47.6929H30.6924V55.0513C30.6924 55.3209 29.4561 55.3209 29.4561 55.0513V45.9614H31.9297L32.1768 47.6929ZM36.2588 45.9614C37.0119 45.755 38.1023 45.755 38.8555 45.9614H38.8574C38.8798 46.2573 39.2802 47.5484 39.1738 47.6968C38.9894 47.9577 37.7372 47.7538 37.3711 47.8169C37.408 48.0387 37.3221 49.1258 37.3711 49.1782C37.4255 49.2326 38.4319 49.1228 38.4863 49.1772C38.5403 49.2372 38.5427 50.7225 38.4863 50.7856C38.4406 50.8314 37.5677 50.7523 37.3711 50.7856V53.5073C37.9845 53.4616 38.6468 53.6294 39.2256 53.3833L38.9795 55.2388H36.2588V45.9614ZM26.7334 47.6938C26.7768 49.5405 26.6811 51.4003 26.7305 53.2476L26.7354 53.3823V53.8774L26.7363 53.8765C26.7279 53.7544 26.7435 53.6284 26.7373 53.5063C26.9424 53.5175 27.1516 53.4916 27.3555 53.5063H27.3545L27.3535 53.5073H27.4766V47.6938H26.7334ZM27.6621 53.3813C27.6753 53.4436 27.6921 53.4959 27.709 53.5386C27.6919 53.4958 27.6754 53.4431 27.6621 53.3804V53.3813ZM27.5938 47.4526C27.5134 47.3722 26.5852 47.2748 26.5283 47.6235L26.7119 52.7173L26.5293 47.6245C26.5868 47.2762 27.5134 47.3742 27.5938 47.4546C27.6176 47.4785 27.6311 47.5623 27.6406 47.6938C27.6311 47.5615 27.6177 47.4767 27.5938 47.4526ZM22.7783 47.6929V50.3521C22.7788 50.7349 23.6437 50.5695 23.6445 50.3521V47.8784C23.6445 47.6595 22.9527 47.6718 22.7783 47.6929ZM1.75293 50.5376C1.95797 50.5919 1.81605 50.306 1.94922 50.2798C2.14463 50.2414 2.32099 50.3592 2.49414 50.4136L2.5 47.7632L1.75293 47.5688V50.5376ZM34.5283 48.1255C34.5283 47.6221 33.7769 47.3772 33.6631 47.7544C33.5543 48.1119 33.6631 49.7589 33.6631 50.2896C33.6631 50.3365 34.5276 50.412 34.5283 50.228V48.1255ZM15.1113 9.97021C14.7693 10.8664 15.737 11.4168 15.8486 12.0151C15.9599 12.6137 15.7766 13.3889 15.8496 13.9937C16.0734 15.8325 15.8833 16.9926 15.8486 18.8081C15.7905 21.8469 15.7964 24.9293 15.8545 27.9644C15.9399 32.4056 16.8373 37.449 17.4619 41.9409C17.5658 42.6891 17.3974 43.0083 17.8721 43.7563C18.0576 44.0482 18.4895 44.1786 18.4512 44.5991C17.9157 44.6115 17.3528 44.4629 17.2686 45.1021H12.0898C12.0056 44.4631 11.4435 44.6114 10.9082 44.5991C10.8378 44.1802 11.3275 44.0488 11.4023 43.9819C11.4011 44.0647 11.3999 44.1462 11.4023 44.229C11.8958 44.3651 11.825 43.8962 11.8955 43.4868C11.6991 43.6215 11.5802 43.8166 11.4023 43.981C11.4144 43.3718 11.8278 43.2949 11.8945 42.9292C12.4585 39.8793 12.5638 36.3224 13.0264 33.1772C13.2292 31.8007 13.4829 31.1598 13.499 29.7017C13.5151 28.2435 13.5272 26.7742 13.6299 25.3062C13.9043 25.3741 13.7985 25.4841 13.7959 25.646C13.7872 26.4993 13.7764 27.364 13.7578 28.2173C13.7368 29.161 13.228 29.2984 14.6182 29.1401C14.3647 28.0604 14.9895 26.0715 14.7236 25.1353C14.5801 24.6285 13.7466 25.5185 13.6289 24.8735C13.4112 23.68 13.6845 21.5141 13.6338 20.1685C13.5744 18.6286 13.0576 15.8628 13.248 14.4751C13.2804 14.2469 13.4773 14.3133 13.501 14.2134C13.7471 13.1633 13.2441 11.8175 14.2422 10.8911C14.4129 10.7329 14.6753 10.7399 14.752 10.6323C14.9183 10.4009 14.6963 9.87652 15.1113 9.97021ZM14 42.0024C13.7142 41.5426 12.8863 41.8158 12.4053 41.77C12.1827 42.1881 12.41 42.5599 12.4014 42.9321C12.3912 43.3774 11.9509 44.1439 12.7051 44.0981C13.6681 44.0397 12.4479 41.6463 14 42.0024ZM15.4854 41.8794C15.4421 42.4532 15.6025 43.0729 15.3613 43.6108C16.4212 43.413 15.8912 42.588 15.8564 41.8794H15.4854ZM14.2471 41.6333H14.4941V33.4702H14.2471V41.6333ZM12.3984 41.2124C12.4021 41.6773 13.2153 41.476 13.5049 41.5093C13.6346 41.1868 13.2858 41.3112 13.2568 41.1831C13.2197 41.0198 13.2354 39.638 13.2861 39.5552H13.2852C13.3276 39.486 13.6242 39.4413 13.6279 39.3462C13.6276 39.3275 13.4368 39.1949 13.4121 39.0688C13.296 38.4754 13.5011 38.1303 13.5098 37.6196C13.5357 36.2381 13.4816 34.8514 13.5039 33.4712L12.3984 41.2124ZM15.2314 33.4292L15.3604 41.5103H16.1035L15.5469 33.2271L15.2314 33.4292ZM46.5293 15.5356V38.9106L44.457 37.5884C37.0685 32.6871 28.1733 30.5321 19.2734 31.6304C18.8599 31.6812 16.8195 32.1434 16.6748 32.1001C16.4386 32.0288 16.2138 30.4904 16.2188 30.1899C16.2348 29.0918 16.2412 28.085 16.2227 26.9819C16.1893 24.9277 16.261 22.8682 16.2227 20.814C18.5663 19.623 20.8666 18.3093 23.4502 17.6304C24.0995 19.138 24.7822 19.8453 26.4951 19.311C27.0121 19.1502 27.4911 18.5371 27.5566 18.521C27.6747 18.4925 29.0165 19.1906 29.5615 19.2202C29.8889 19.2385 30.7759 18.954 30.8213 18.9995C30.898 19.0861 30.6175 19.4722 31.1357 19.3745C31.3881 19.3274 31.9397 18.4955 32.2217 18.5239C32.4801 18.7624 32.8399 18.6797 33.0811 18.7612C33.1119 18.7723 33.4759 19.1005 33.5088 19.1196C34.0913 19.4436 34.4279 18.3554 35.0586 18.103C35.6448 17.8693 36.6893 17.9721 37.2842 17.731C37.3311 17.7108 37.9628 17.2945 37.9873 17.2573C38.0133 17.214 37.8284 16.9959 37.8828 16.9155C37.9077 16.8811 38.1235 16.8482 38.2295 16.7017C38.6969 16.0575 37.8877 16.0427 37.75 15.7202C37.6981 15.5978 38.082 15.388 38.0684 15.1567L46.5293 15.5356ZM46.5254 15.0396C44.8892 15.0062 43.2687 14.6355 41.6387 14.5464C40.7644 14.4994 38.7426 14.7202 38.0781 14.52C38.0373 14.5077 37.4012 14.0795 37.374 14.0474C37.1112 13.7323 37.981 13.8337 37.9443 13.3716C37.9184 13.0588 37.0792 12.4507 36.7646 12.3735C36.0956 12.2103 35.1048 12.6245 34.4072 12.7495C34.0721 12.5949 33.9244 12.43 34.0283 12.0317C34.0582 11.918 34.9047 11.7091 34.7754 11.2085C34.3339 10.9995 32.827 11.0497 32.6094 11.4517C32.3338 11.961 32.7719 11.9241 32.8389 12.1021C33.0664 12.7143 32.5763 12.4341 32.3018 12.4897C31.9519 12.5615 31.7133 12.8347 31.4697 12.9077C30.2504 13.2688 28.6983 12.9361 27.6631 13.8003C27.4134 14.0092 27.1657 14.5844 26.8975 14.6528C26.7281 14.6949 26.2741 14.4466 25.9414 14.4155C24.9866 14.3277 24.0142 14.493 23.6221 15.4478C23.4787 15.7962 23.4217 16.6868 23.3809 16.7524C23.2856 16.9033 20.4648 17.6855 20.0107 17.897C19.7176 18.033 19.5316 18.2779 19.2793 18.4028C18.248 18.911 17.2291 19.4254 16.2275 19.9868C16.068 19.0815 16.4439 18.1859 16.4785 17.3325C16.5131 16.4793 16.4177 16.3753 16.5908 15.4663C16.7466 14.6502 16.3349 14.3113 16.2334 13.7339C16.132 13.1564 16.3323 12.3785 16.2002 11.7886C16.1062 11.3694 15.5559 10.9956 15.4863 10.647C15.3899 10.1572 15.6256 9.76567 15.6133 9.40576C15.6033 9.11519 15.4638 8.7159 15.4365 8.19678C15.4056 7.59446 15.4433 6.45842 15.332 5.97607C15.1637 5.24803 14.2625 5.22588 14.125 5.95264C13.9877 6.67984 14.1149 7.91566 13.9912 8.7876C13.9578 9.0238 13.7573 9.22176 13.7461 9.42334C13.73 9.72873 14.0592 9.89085 13.9951 10.3901C13.9308 10.8896 13.2668 11.3896 13.1602 11.7915C13.0117 12.3505 13.2183 13.1663 13.1367 13.7476C13.0983 14.0231 12.9253 14.1616 12.8906 14.3667C12.6804 15.6145 13.0586 17.5092 13.1279 18.814C13.1836 19.8628 13.052 20.9283 13.1855 21.9722C12.4658 22.6127 11.6981 23.1941 10.9648 23.8198C7.90625 26.427 4.51091 30.657 2.56543 34.2202C2.18959 34.9077 1.93633 35.9143 1.50488 36.6216C1.51354 36.9939 1.64422 36.7479 1.72461 36.5933C1.90266 36.247 2.02009 35.8489 2.22656 35.4878C2.54565 34.93 2.98637 34.4514 3.2832 33.9653C5.16684 30.8783 7.09109 28.1594 9.79102 25.6128C10.3219 25.1116 12.5504 23.1195 13.0723 22.9575C13.3019 22.8872 13.2365 22.9996 13.2549 23.1392C13.3835 24.105 13.1456 25.1799 13.127 26.105C13.0985 27.5099 13.2418 29.0686 13.1367 30.4438C13.1021 30.8903 12.7812 32.6802 12.6143 33.0142C12.571 33.1007 12.5352 33.1752 12.4326 33.2036L9.14453 34.2437C8.51143 34.6344 7.78387 34.8616 7.08398 35.1509L0.392578 38.9097V0.321777H46.5254V15.0396ZM15.3594 31.0562C15.5373 31.7226 14.9805 32.5612 15.4229 33.0991C16.0609 33.2277 15.4869 31.2018 15.6064 30.8745L15.3594 31.0562ZM13.6299 31.3687C13.8376 31.9288 12.8957 33.1187 13.752 32.9771C13.7421 32.5875 13.768 32.1914 13.752 31.7993C13.7458 31.6497 13.8463 31.339 13.6299 31.3687ZM14.8564 29.7144C14.7674 29.399 14.1221 29.5325 13.876 29.5151C14.3174 29.9603 13.9629 30.3719 13.9912 30.937C14.0234 31.5752 14.1813 32.3302 14.248 32.9771V32.9751C14.4941 32.9244 14.4586 32.7208 14.4932 32.5415C14.6725 31.614 14.6821 30.6431 14.8564 29.7144ZM15.7314 29.7612C15.7018 29.7304 15.3587 29.7796 15.2383 29.7612V30.3794C15.5622 30.3889 15.9737 30.007 15.7314 29.7622V29.7612ZM14.4121 22.6763C14.3305 22.6132 14.106 22.1053 13.876 22.3403C13.7289 22.4915 13.8316 23.7769 14.541 23.5698C14.7721 23.4697 14.8035 22.9755 14.748 22.7798C14.7122 22.6561 14.5004 22.7455 14.4102 22.6763H14.4121ZM14.6602 18.9888C14.5872 18.9059 14.0708 18.6772 14 18.7524V22.0913C14.2399 22.0864 14.6305 22.1745 14.7246 21.8892C14.8087 21.6344 14.7665 19.1109 14.6602 18.9888ZM33.4219 12.4526C33.6692 12.3042 34.0702 13.0386 34.2842 13.1313C34.4596 13.2077 34.5959 13.0573 34.7021 13.0659C34.7446 13.0718 35.129 13.4911 35.2178 13.5454C35.8696 13.951 36.9186 13.3813 37.6211 13.312C37.3614 13.8401 36.6667 13.5585 36.2598 13.8677L37.001 14.1792L36.6299 14.3013C36.7251 15.2176 38.0358 14.3275 37.5293 15.3843C37.3735 15.7096 36.8517 15.7451 36.8789 16.1558C36.9345 16.1956 38.3623 16.0873 37.9326 16.5298C37.5999 16.8711 36.0831 16.7847 35.6045 16.896C35.546 16.9104 35.2544 17.3664 35.2705 17.3911C35.2837 17.4097 35.6524 17.4393 35.6416 17.6392C35.4277 17.6465 35.1953 17.6037 34.9863 17.6655C34.7773 17.7274 33.8994 18.4377 33.71 18.4751C32.9679 18.6223 31.8374 17.5049 31.3105 18.8765C31.1931 18.7614 30.779 18.4606 30.8174 18.3208C30.8548 18.19 31.2962 18.2894 31.3135 18.0112C30.4205 18.2178 29.7264 18.4095 28.8408 18.0112C28.7802 18.4651 29.6014 18.3219 29.8574 18.3911C29.9674 18.4208 30.0106 18.6742 30.1982 18.6313C30.1275 18.8488 29.442 18.7757 29.2725 18.7534C28.471 18.6471 27.5713 17.7618 27.418 17.7593C26.9435 17.7548 27.0805 18.5378 26.6045 18.8062C26.2481 19.0064 25.1245 19.1023 24.7607 18.938C24.0385 18.6103 23.4261 16.4969 23.9541 15.7856C24.2138 15.4987 24.0115 16.1295 24.0127 16.2173C24.0127 16.4632 24.0272 16.4159 24.2646 16.4048C24.0858 16.0638 24.4986 15.6132 24.5117 15.5396C24.4585 15.6724 24.3724 16.359 24.4502 16.5298C24.6764 16.2021 24.8633 15.7102 25.2539 15.5396C25.119 15.9798 24.5893 16.4265 24.6289 16.7134C24.6466 16.8391 24.9387 16.69 24.8818 16.8989L24.5117 17.146C24.9087 17.1918 25.6162 16.9926 25.8711 17.3931L24.5107 17.396C24.654 17.783 24.4365 18.1961 24.832 18.4966C25.156 18.7426 26.0329 18.9849 26.0049 18.3325C26.0024 18.2732 25.5116 18.2294 25.749 18.0142C25.8152 17.9555 26.2461 18.1988 26.2549 17.4507C26.2574 17.1984 25.7973 17.2981 26.001 17.0288C26.0962 16.9039 26.3981 17.1977 26.1074 16.3765C25.9949 16.0575 25.9537 16.05 25.8721 15.5405C26.1429 15.6036 26.7094 16.1231 26.6143 15.2935V15.2886C27.2215 15.672 27.149 15.042 27.4805 14.6079C27.9999 13.9278 28.7815 13.4747 29.6484 13.4302C30.0205 13.4105 30.4062 13.5839 30.6152 13.563C30.7043 13.5543 30.7034 13.359 30.7812 13.312C31.2561 13.0202 31.3637 13.4007 31.501 13.4058C31.5875 13.4082 31.8806 12.9953 32.0859 12.9087C32.4545 12.7541 32.8183 12.8658 33.1807 12.7632C33.4636 12.6829 33.4035 12.4642 33.4219 12.4526ZM13.875 15.6587C13.8824 16.1732 13.8663 16.6911 13.875 17.2056C13.8777 17.3836 14.012 17.5925 14.0059 17.6938C14.0022 17.7358 13.6228 17.7701 13.876 18.3813L14.4932 17.9468C13.6674 17.5894 14.919 17.5874 14.9883 17.5132C15.2016 17.2861 14.7595 17.2719 14.7383 17.187C14.7086 17.0559 14.7025 16.0945 14.7334 15.9819C14.7805 15.804 15.3506 15.9348 15.3584 15.6606L13.875 15.6587ZM31.3418 14.9517C30.9572 13.9747 30.3196 14.0626 29.4316 14.3335C28.2246 14.7021 27.2209 16.0053 28.2646 17.1011C29.6066 18.5098 32.1729 17.0653 31.3418 14.9517ZM34.082 13.3862C33.9386 13.249 33.872 12.8817 33.542 13.1226C34.0046 14.0304 34.5872 14.9634 34.5303 16.0308C33.8069 15.9627 33.2191 15.6431 32.4277 15.7827C32.4352 16.1252 32.2975 16.3693 32.6768 16.4634C32.6852 16.5856 32.3221 16.4276 32.4297 16.7095C32.6337 17.2422 33.4062 16.9915 33.665 16.5874L33.1709 16.2788C33.651 16.0997 34.9212 16.5159 35.1426 15.9595C35.2743 15.6264 34.9308 15.6815 34.9092 15.5806C34.7299 14.7384 34.8019 14.0716 34.085 13.3853L34.082 13.3862ZM34.7773 13.6821C34.9049 14.5226 35.4677 14.2892 36.1367 14.3003C36.2526 14.8708 35.2574 14.3145 35.1484 14.4233C35.1868 14.9552 35.2227 15.2116 35.7656 14.9185C35.8596 15.2425 35.4319 15.2107 35.3936 15.3765C35.3418 15.5978 35.4273 15.9128 35.3965 16.1538C35.6735 16.1229 35.3899 15.6345 35.6348 15.4663C35.9391 15.2578 36.5889 15.7011 36.3838 14.9966C36.3578 14.9088 36.1315 14.9106 36.1377 14.8599C36.179 14.521 36.7246 14.0753 35.8877 13.9282L35.8887 13.9292L35.9531 14.1724L34.7773 13.6821ZM32.6748 13.186C32.6365 13.1601 32.7833 12.608 32.0674 13.2583C31.3514 13.9088 32.321 13.672 32.6748 13.186C32.7228 13.4368 32.4494 13.5002 32.4346 13.7388C32.4236 13.9342 32.5812 14.3199 32.7988 14.1753C32.5923 14.3113 32.4374 14.5732 32.0566 14.5474C31.9144 14.9926 32.3596 14.9704 32.4141 15.0532C32.5139 15.2055 31.8391 15.8475 33.417 15.5347C33.5048 15.4605 33.0485 14.6822 33.1709 14.5474C33.2001 14.5178 33.823 14.5008 33.9082 14.2378C33.7277 13.8707 33.6872 13.8277 33.2939 13.8042C33.6551 13.0943 32.8168 13.2812 32.6758 13.186H32.6748ZM24.4395 15.0366C24.6074 14.8069 25.7615 14.7698 26.0508 14.8032C26.6098 14.8688 26.4526 15.1287 26.4922 15.1646C26.298 15.0063 25.7701 14.8727 25.5029 14.9185C25.3992 15.3164 25.7535 15.0857 25.8525 15.1831C25.9292 15.2585 25.8579 15.4367 25.874 15.5356C25.6564 15.485 25.4747 15.4405 25.2559 15.5356C25.5218 14.6674 24.6868 15.1127 24.5137 15.5356C24.531 15.4318 24.3294 15.19 24.4395 15.0366ZM34.2822 15.4106C34.2229 14.7243 34.1439 14.4172 33.418 14.6694C33.4847 15.1171 33.8124 15.4686 34.2822 15.4106ZM13.876 13.8667C13.876 14.3241 14.4022 14.0442 14.4941 14.2983C13.6463 14.0971 13.831 14.7487 13.752 15.4126H14.3711L14.2471 14.4233H14.9893C15.1151 14.1254 14.6396 13.9215 14.6221 13.8423C14.5837 13.6654 14.5749 12.5671 14.6133 12.4038C14.6518 12.2407 15.2024 12.2418 15.2363 11.9517H13.876V13.8667ZM26.4932 15.1646C26.5292 15.1943 26.6137 15.2651 26.6162 15.2886C26.573 15.2614 26.5351 15.2029 26.4932 15.1646ZM29.9521 13.6821C29.0765 13.6827 27.7718 14.1424 27.7285 15.1646C28.2714 14.4312 28.8382 14.2189 29.6631 13.9419C29.8547 13.8776 30.0163 14.0502 29.9521 13.6821ZM33.2939 13.8042C33.1134 14.1579 32.9918 14.0491 32.7988 14.1753C32.9275 14.09 32.7052 13.7683 33.2939 13.8042ZM14.8662 5.88818C14.6213 6.41011 15.2394 9.57844 15.1133 9.72314C15.0395 9.80367 14.398 9.32551 14.4941 9.84619L14.1182 9.53174C14.7201 9.09445 14.3614 6.01715 14.4961 5.88818H14.8662Z" fill="#7C7F7D"/>
</svg>
