<svg width="220" height="76" viewBox="0 0 220 76" fill="none" xmlns="http://www.w3.org/2000/svg">
<path d="M65.8202 48.7317C62.9732 48.7908 60.1261 48.7317 57.2791 48.7711C56.5133 48.7711 56.2777 48.5346 56.2973 47.766C56.3562 45.7557 56.3366 43.7652 56.2973 41.7549C56.2973 41.1242 56.3955 40.8089 57.1416 40.8286C58.7124 40.8877 60.2832 40.8483 61.854 40.8483C64.4065 40.8483 64.3869 40.8483 64.3672 38.2665C64.3672 37.5964 64.1512 37.4387 63.5229 37.4387C61.4024 37.4782 59.2622 37.4387 57.1416 37.4584C56.533 37.4584 56.2777 37.3205 56.2973 36.6504C56.3366 34.8175 56.3366 32.9649 56.2973 31.132C56.2777 30.4225 56.5133 30.2451 57.1809 30.2451C59.4978 30.2846 61.8343 30.2649 64.1512 30.2649C66.5859 30.2649 66.5663 30.2649 66.5663 27.7619C66.5663 27.0918 66.3896 26.875 65.6828 26.875C61.422 26.9144 57.1809 26.9144 52.9202 26.875C52.233 26.875 52.1151 27.1115 52.1348 27.7225C52.1544 31.6247 52.1544 35.5467 52.1544 39.449C52.1544 43.3907 52.1741 47.3324 52.1348 51.2741C52.1348 52.0033 52.3311 52.2201 53.0772 52.2004C56.8078 52.161 60.5385 52.1807 64.2691 52.1807C66.7627 52.1807 66.743 52.1807 66.743 49.6777C66.7234 48.9682 66.5859 48.7317 65.8202 48.7317Z" fill="white"/>
<path d="M148.15 33.4189C147.188 33.7342 146.54 34.4831 145.774 35.1335C145.519 34.7787 145.578 34.4043 145.578 34.0495C145.578 31.9801 145.539 29.9107 145.597 27.8414C145.617 27.0333 145.362 26.7968 144.596 26.8756C143.948 26.9348 143.281 26.9348 142.633 26.8756C141.906 26.8165 141.71 27.053 141.71 27.8019C141.749 35.4488 141.729 43.0957 141.729 50.7426C141.729 52.339 141.396 52.1222 143.202 52.1813C143.712 52.201 143.987 52.0631 144.125 51.5506C144.262 51.0185 144.4 50.4667 144.733 50.0134C145.126 50.1513 145.244 50.5258 145.44 50.8017C146.01 51.5704 146.756 52.0631 147.659 52.339C150.428 53.2062 153.648 51.9645 154.786 49.3039C156.671 44.968 156.809 40.4942 154.767 36.1583C153.55 33.5962 150.761 32.5517 148.15 33.4189ZM151.507 47.3922C151.134 48.89 150.172 49.5995 148.876 49.6389C147.463 49.6586 146.501 48.9491 145.97 47.471C145.44 45.9929 145.578 44.4359 145.519 42.9578C145.558 41.7555 145.46 40.5927 145.637 39.4496C145.774 38.5628 146.088 37.7547 146.677 37.0452C147.423 36.178 148.366 35.8036 149.485 36.0204C150.604 36.2372 151.272 37.0058 151.527 38.0503C152.293 41.1643 152.273 44.2979 151.507 47.3922Z" fill="white"/>
<path d="M93.2915 34.0887C93.154 34.1675 92.997 34.2266 92.8595 34.2858C90.0517 36.9661 89.8947 40.4545 89.9928 43.9823C90.0321 45.224 90.2285 46.4459 90.5819 47.6481C91.0335 49.2051 91.9563 50.4467 93.154 51.4913C93.2129 51.4913 93.2326 51.511 93.2522 51.5504C95.2746 52.6344 97.3755 52.9103 99.5942 52.2796C102.206 51.5307 103.502 49.5598 104.091 47.0766C104.778 44.1597 104.856 41.2232 104.051 38.326C102.677 33.458 97.67 31.5069 93.2915 34.0887ZM99.8102 47.7861C99.4175 48.8306 98.7303 49.5795 97.5522 49.6781C96.3545 49.7766 95.4709 49.3036 94.9212 48.2197C94.4499 47.2934 94.2928 46.3079 94.175 45.2831C93.9591 43.1546 93.9591 41.0261 94.4499 38.937C94.9015 36.9661 95.9029 35.961 97.3166 35.9807C98.7499 36.0004 99.7317 37.0055 100.183 38.9567C100.242 39.2523 100.301 39.5282 100.321 39.8239C100.399 40.8093 100.478 41.775 100.517 42.2874C100.478 44.4751 100.419 46.17 99.8102 47.7861Z" fill="white"/>
<path d="M89.6791 33.8524C89.7183 33.2021 89.4434 33.0641 88.874 33.0838C87.6763 33.1232 86.7535 33.6553 85.9877 34.5225C85.3005 35.3109 84.8293 36.2372 84.3188 37.1832C84.3188 35.9612 84.3188 34.7393 84.3188 33.5174L84.2992 33.4977C83.2781 33.478 82.2375 33.4386 81.2165 33.4188C81.1183 33.4583 81.0005 33.4977 80.9023 33.5371C80.9023 39.7256 80.9023 45.8943 80.9023 52.0828L80.9416 52.1222C81.9233 52.1419 82.9051 52.1222 83.8868 52.1813C84.574 52.2207 84.79 52.0039 84.7704 51.3141C84.7311 48.4564 84.7704 45.5987 84.7507 42.7409C84.7507 41.9526 84.8097 41.1643 84.9667 40.3956C85.438 38.2277 86.6357 37.1635 88.8544 37.124C89.5024 37.1043 89.7183 36.9467 89.6594 36.2963C89.6398 35.4882 89.6398 34.6605 89.6791 33.8524Z" fill="white"/>
<path d="M183.925 33.9705C183.984 33.1625 183.63 32.9851 182.963 33.1034C181.726 33.3004 180.607 33.6749 179.919 34.8968C179.488 35.6655 179.036 36.3947 178.565 37.2027C178.565 36.2567 178.506 35.3107 178.584 34.3844C178.643 33.6355 178.368 33.399 177.642 33.4581C176.837 33.5172 176.012 33.4975 175.207 33.5172L175.188 33.5369C175.207 39.4101 175.227 45.2635 175.207 51.1366C175.207 51.9447 175.384 52.26 176.228 52.1812C176.876 52.1023 177.544 52.1023 178.192 52.1812C178.898 52.26 179.075 51.9841 179.075 51.2943C179.036 48.4365 179.056 45.5985 179.056 42.7408C179.056 41.6765 179.134 40.6517 179.488 39.6466C180.175 37.6954 181.353 37.0451 183.925 37.1436C183.925 37.0845 183.945 37.0451 183.984 37.0056C183.925 36.0005 183.846 34.9757 183.925 33.9705Z" fill="white"/>
<path d="M81.7838 23.8204C83.6491 23.8401 85.1413 22.3225 85.1413 20.4502C85.1413 18.5582 83.6687 17.0801 81.7838 17.0998C79.8989 17.1195 78.4459 18.5976 78.4852 20.5094C78.5048 22.362 79.9578 23.8204 81.7838 23.8204Z" fill="white"/>
<path d="M71.7905 13.7304C73.4987 13.7107 74.8535 12.272 74.8339 10.5377C74.8142 8.80333 73.4202 7.42374 71.712 7.44345C70.0037 7.44345 68.6097 8.84275 68.59 10.5771C68.5704 12.2917 70.0626 13.7699 71.7905 13.7304Z" fill="white"/>
<path d="M58.5364 10.0644C60.2446 10.0841 61.5405 8.80306 61.5405 7.12784C61.5405 5.57087 60.2446 4.2504 58.6935 4.23069C57.0638 4.21098 55.7679 5.49203 55.7483 7.12784C55.7286 8.72422 56.9853 10.0644 58.5364 10.0644Z" fill="white"/>
<path d="M44.7927 8.01562C43.3005 8.01562 42.0831 9.17842 42.0439 10.6566C42.0046 12.115 43.2416 13.3566 44.6946 13.3763C46.1868 13.396 47.3845 12.2332 47.4042 10.7354C47.4434 9.25726 46.2457 8.01562 44.7927 8.01562Z" fill="white"/>
<path d="M34.0134 34.5017C34.0331 33.1812 33.0709 32.1564 31.7751 32.1761C30.5184 32.1761 29.6152 33.1024 29.6152 34.4425C29.6152 35.763 30.4988 36.6499 31.7947 36.6696C32.9924 36.6696 33.9938 35.6842 34.0134 34.5017Z" fill="white"/>
<path d="M136.192 26.8359C134.209 26.8359 134.209 26.8359 134.209 28.8462C134.209 30.9353 134.209 30.9353 136.172 30.955C138.234 30.955 138.234 30.955 138.234 28.8856C138.234 26.8359 138.234 26.8359 136.192 26.8359Z" fill="white"/>
<path d="M35.0343 45.973C33.9348 45.9532 32.9727 46.919 32.9727 48.0226C32.9923 49.1263 33.8562 50.0132 34.9558 50.0132C36.0946 50.0132 37.0174 49.1066 37.0174 47.9635C37.0174 46.8795 36.1142 45.9927 35.0343 45.973Z" fill="white"/>
<path d="M77.4459 33.4582C76.7783 33.3991 76.5427 33.6553 76.3857 34.2663C75.3646 38.3656 74.324 42.4453 73.2441 46.7023C73.1067 46.4855 73.0281 46.4264 73.0085 46.3475C72.1249 42.9577 71.261 39.5678 70.3971 36.178C70.1811 35.3305 70.1418 34.2465 69.592 33.6947C68.9834 33.0837 67.8642 33.5962 66.961 33.4779C66.0578 33.3597 65.9596 33.675 66.1952 34.5028C67.6678 39.5678 69.1208 44.6329 70.5541 49.698C71.261 52.1813 71.2414 52.1615 73.7939 52.201C74.5007 52.2207 74.7363 51.9645 74.913 51.3141C75.8948 47.7074 76.9158 44.1205 77.9368 40.5335C78.5847 38.2079 79.2327 35.9021 79.9199 33.4779C79.0167 33.4779 78.2313 33.537 77.4459 33.4582Z" fill="white"/>
<path d="M133.679 33.7732C133.718 33.2607 133.502 33.0637 133.011 33.0834C132.049 33.0834 131.224 33.4184 130.498 34.0491C129.497 34.9163 128.966 36.0593 128.318 37.2221C128.318 36.8083 128.318 36.3747 128.318 35.9608C128.318 33.4578 128.318 33.4578 125.805 33.4972C125.746 33.4972 125.668 33.4972 125.609 33.4972C125.157 33.4578 124.961 33.6352 124.961 34.1082C124.961 39.9025 124.981 45.7165 124.961 51.5108C124.961 52.0232 125.157 52.2006 125.648 52.1809C126.434 52.1415 127.219 52.1217 128.004 52.1809C128.633 52.2203 128.77 51.9641 128.77 51.3925C128.75 48.9684 128.77 46.5442 128.75 44.1201C128.75 42.977 128.731 41.8339 128.908 40.6908C129.182 38.8974 130.243 37.636 131.696 37.2221C132.344 37.0448 133.266 37.5375 133.581 36.8083C133.836 36.1973 133.639 35.3893 133.639 34.66C133.679 34.3644 133.659 34.0688 133.679 33.7732Z" fill="white"/>
<path d="M137.292 33.4591C136.605 33.5182 135.918 33.5182 135.231 33.4591C134.426 33.3802 134.269 33.6956 134.269 34.4445C134.308 39.3519 134.269 44.279 134.288 49.1864C134.288 50.1324 133.896 51.3543 134.445 51.9456C135.054 52.5763 136.311 52.0441 137.273 52.1624C137.999 52.2412 138.137 51.9259 138.137 51.2755C138.097 48.4966 138.117 45.698 138.117 42.9191C138.117 40.0614 138.097 37.2234 138.137 34.3656C138.156 33.6956 138.019 33.3999 137.292 33.4591Z" fill="white"/>
<path d="M116.774 27.0927C113.966 26.7971 111.158 26.9942 108.351 26.8957C107.605 26.8759 107.408 27.1124 107.408 27.8417C107.447 31.7439 107.428 35.6462 107.428 39.5682C107.428 43.5099 107.447 47.4516 107.408 51.3933C107.408 51.9845 107.565 52.221 108.174 52.1816C108.9 52.1422 109.607 52.1619 110.334 52.1816C111.571 52.1816 111.571 52.1816 111.571 50.9006C111.571 48.4764 111.571 46.0326 111.571 43.6084C111.571 42.3077 111.571 42.3077 112.808 42.3077C114.143 42.3077 115.478 42.288 116.813 42.1303C119.582 41.7953 121.447 40.3171 122.409 37.6959C122.92 36.2769 123.018 34.7988 122.802 33.3206C122.409 30.5023 120.819 27.5263 116.774 27.0927ZM118.384 36.0404C118.089 37.5776 117.167 38.4448 115.674 38.7602C114.516 38.9967 113.338 38.9375 112.16 38.9572C111.649 38.9572 111.571 38.701 111.571 38.2872C111.59 37.0455 111.571 35.8039 111.571 34.5622C111.571 33.36 111.59 32.1381 111.571 30.9359C111.551 30.3643 111.728 30.0884 112.356 30.1476C113.338 30.2067 114.32 30.1278 115.282 30.2461C117.049 30.4432 117.972 31.3695 118.364 33.1432C118.58 34.0892 118.561 35.0747 118.384 36.0404Z" fill="white"/>
<path d="M165.114 33.0451C161.737 33.0845 159.597 34.6218 158.556 37.7554C158.007 39.3912 157.889 41.0862 157.85 42.7022C157.869 44.6534 158.046 46.4666 158.674 48.2206C159.695 50.9798 162.012 52.5762 165.016 52.6156C168.315 52.6353 170.573 51.2557 171.594 48.3389C172.811 44.8308 172.87 41.2438 171.771 37.6963C170.789 34.6612 168.335 33.0254 165.114 33.0451ZM167.824 47.5111C167.314 49.0287 166.45 49.6988 165.173 49.6988C163.877 49.6988 162.974 49.0484 162.542 47.4914C161.659 44.3578 161.678 41.2044 162.601 38.0905C163.033 36.632 163.995 35.9422 165.193 35.962C166.43 35.9817 167.412 36.7897 167.863 38.189C168.354 39.7066 168.393 41.2832 168.413 42.8599C168.393 44.4169 168.335 45.9936 167.824 47.5111Z" fill="white"/>
<path d="M188.087 28.3535C186.89 28.3535 185.79 29.4572 185.771 30.6791C185.731 31.9405 186.87 33.0638 188.146 33.0441C189.442 33.0244 190.385 32.039 190.385 30.7185C190.385 29.3389 189.423 28.3535 188.087 28.3535ZM189.58 32.0587C189.481 32.1572 189.364 32.1967 189.246 32.0784C188.696 32.9062 187.459 32.8865 186.674 32.0193C185.967 31.2507 186.026 29.9893 186.772 29.2601C187.538 28.5309 188.755 28.5309 189.521 29.2798C190.267 30.0484 190.287 31.3098 189.58 32.0587Z" fill="white"/>
<path d="M34.9762 18.5186C33.6803 18.4792 32.5022 19.6222 32.5022 20.923C32.4826 22.342 33.5429 23.426 34.9369 23.4457C36.2721 23.4457 37.352 22.3814 37.3913 21.0215C37.4305 19.7405 36.2721 18.5383 34.9762 18.5186Z" fill="white"/>
<path d="M44.6561 55.75C43.6154 55.75 42.7319 56.6172 42.6926 57.6814C42.6533 58.7457 43.5762 59.7705 44.6168 59.7705C45.736 59.7902 46.6981 58.8442 46.6785 57.7208C46.6785 56.6172 45.7753 55.75 44.6561 55.75Z" fill="white"/>
<path d="M188.972 30.2462C189.207 29.9702 188.795 29.5367 188.402 29.5564C187.97 29.5564 187.283 29.1819 187.146 29.8323C186.988 30.5024 186.969 31.271 187.244 32.079C187.361 31.9017 187.44 31.8228 187.46 31.744C187.519 31.4681 187.342 31.0936 187.715 30.9754C188.108 30.8571 188.304 31.2513 188.422 31.5075C188.598 31.8623 188.873 32.0002 189.227 32.079C188.893 31.5075 188.284 31.0345 188.972 30.2462ZM188.147 30.5615C187.892 30.5615 187.538 30.6995 187.479 30.2462C187.44 29.9308 187.617 29.8717 187.872 29.852C188.167 29.852 188.461 29.852 188.598 30.187C188.598 30.4827 188.382 30.5615 188.147 30.5615Z" fill="white"/>
</svg>
