<svg width="288" height="353" viewBox="0 0 288 353" fill="none" xmlns="http://www.w3.org/2000/svg">
<path d="M141.998 127L141.998 -2.80142e-06" stroke="#1995FC"/>
<path d="M168.978 149.077L169.058 149.223C166.192 149.523 163.238 150.077 160.253 150.902C142.219 155.887 129.924 168.879 132.792 179.92C133.71 183.454 136.07 186.36 139.447 188.514C128.176 191.536 117.864 189.284 113.766 181.961C108.236 172.08 116.113 156.709 131.359 147.629C146.605 138.548 163.448 139.197 168.978 149.077Z" fill="#1995FC"/>
<path d="M118.024 203.924L117.941 203.775C120.806 203.475 123.759 202.92 126.742 202.096C144.776 197.109 157.071 184.116 154.204 173.074C153.286 169.54 150.927 166.635 147.551 164.481C158.822 161.457 169.133 163.708 173.231 171.032C178.76 180.914 170.883 196.288 155.638 205.37C140.393 214.453 123.552 213.806 118.024 203.924Z" fill="#1995FC"/>
<path d="M142 127C142 28.3029 287 92.8914 287 -1.81794e-06" stroke="#1995FC"/>
<path d="M142 127C142 37.9607 1 78.4047 1.00001 -2.05636e-06" stroke="#1995FC"/>
<path d="M142 226C142 324.697 287 260.109 287 353" stroke="#1995FC"/>
<path d="M141.998 226L141.998 353" stroke="#1995FC"/>
<path d="M142 226C142 315.039 0.999995 274.595 0.999988 353" stroke="#1995FC"/>
</svg>
