<svg width="449" height="191" viewBox="0 0 449 191" fill="none" xmlns="http://www.w3.org/2000/svg">
<path d="M249.98 64.8566L250.06 65.0024C247.194 65.3024 244.24 65.8564 241.255 66.6813C223.221 71.6662 210.926 84.658 213.794 95.6994C214.712 99.2335 217.072 102.139 220.449 104.294C209.178 107.315 198.866 105.063 194.768 97.7402C189.238 87.8595 197.115 72.4884 212.361 63.4078C227.607 54.3273 244.45 54.9759 249.98 64.8566Z" fill="#1995FC"/>
<path d="M199.026 119.704L198.943 119.554C201.808 119.254 204.761 118.7 207.744 117.875C225.778 112.889 238.073 99.8952 235.206 88.8535C234.288 85.3197 231.929 82.4141 228.553 80.26C239.824 77.2364 250.135 79.4877 254.233 86.8117C259.761 96.6933 251.885 112.067 236.64 121.15C221.395 130.233 204.554 129.585 199.026 119.704Z" fill="#1995FC"/>
<path d="M181 93C40.3371 93 132.389 1 -1.72853e-06 1" stroke="#1995FC"/>
<path d="M181 93C47.2193 93 97.9779 92 -8.9407e-07 92" stroke="#1995FC"/>
<path d="M181 93C54.1014 93 111.742 183 -8.9407e-07 183" stroke="#1995FC"/>
<path d="M268 93C408.663 93 316.611 1 449 1" stroke="#1995FC"/>
<path d="M268 93C401.781 93 351.022 92 449 92" stroke="#1995FC"/>
<path d="M268 93C394.899 93 337.258 190 449 190" stroke="#1995FC"/>
</svg>
