<svg width="247" height="303" viewBox="0 0 247 303" fill="none" xmlns="http://www.w3.org/2000/svg">
<path d="M144.821 127.929L144.89 128.054C142.432 128.312 139.897 128.787 137.337 129.495C121.867 133.771 111.32 144.916 113.78 154.388C114.567 157.42 116.592 159.912 119.488 161.76C109.82 164.352 100.974 162.42 97.4579 156.138C92.714 147.662 99.4711 134.476 112.55 126.686C125.629 118.897 140.078 119.453 144.821 127.929Z" fill="#1995FC"/>
<path d="M101.111 174.98L101.04 174.852C103.497 174.594 106.03 174.119 108.589 173.411C124.06 169.133 134.607 157.987 132.147 148.515C131.36 145.484 129.336 142.991 126.441 141.143C136.109 138.549 144.955 140.481 148.47 146.763C153.213 155.24 146.456 168.429 133.378 176.22C120.3 184.012 105.853 183.457 101.111 174.98Z" fill="#1995FC"/>
<path fill-rule="evenodd" clip-rule="evenodd" d="M140.871 67.1018C129.082 75.1455 121.248 87.696 121.248 108.992L122.106 108.992C122.106 87.9547 129.82 75.6808 141.354 67.8104C152.934 59.9092 168.395 56.4204 183.961 53.0703C184.445 52.9662 184.929 52.8622 185.412 52.7583C200.455 49.5259 215.484 46.2962 226.858 39.1427C232.74 35.4435 237.655 30.6893 241.098 24.337C244.539 17.9858 246.494 10.0625 246.494 0.0450668L245.636 0.0450668C245.636 9.94936 243.704 17.7262 240.343 23.9282C236.983 30.1291 232.181 34.7814 226.401 38.4166C215.159 45.4875 200.262 48.6892 185.156 51.9359C184.698 52.0344 184.239 52.1329 183.781 52.2316C168.25 55.574 152.614 59.0889 140.871 67.1018Z" fill="#1995FC"/>
<path fill-rule="evenodd" clip-rule="evenodd" d="M121.246 0.0450668L121.246 108.992L122.104 108.992L122.104 0.0450668L121.246 0.0450668Z" fill="#1995FC"/>
<path fill-rule="evenodd" clip-rule="evenodd" d="M103.035 68.8611C114.478 77.4784 122.106 89.7565 122.106 108.992L121.248 108.992C121.248 90.0366 113.756 78.0082 102.519 69.5463C91.2495 61.0594 76.2038 56.1519 61.0726 51.5076C60.1057 51.2108 59.1385 50.9151 58.1719 50.6196C44.0471 46.3016 30.0572 42.0247 19.3851 35.0611C13.6745 31.3349 8.8963 26.8296 5.54737 21.1214C2.19708 15.4109 0.291025 8.51996 0.291026 0.0450668L1.14888 0.0450669C1.14888 8.38508 3.02273 15.1229 6.28728 20.6873C9.55318 26.254 14.2248 30.6697 19.8539 34.3427C30.4194 41.2367 44.2962 45.4798 58.4599 49.8105C59.4137 50.1022 60.3688 50.3942 61.3243 50.6875C76.4324 55.3247 91.6259 60.2689 103.035 68.8611Z" fill="#1995FC"/>
<path fill-rule="evenodd" clip-rule="evenodd" d="M140.871 235.81C129.082 227.767 121.248 215.216 121.248 193.92L122.106 193.92C122.106 214.957 129.82 227.231 141.354 235.102C152.934 243.003 168.395 246.492 183.961 249.842C184.445 249.946 184.929 250.05 185.412 250.154C200.455 253.386 215.484 256.616 226.858 263.769C232.74 267.469 237.655 272.223 241.098 278.575C244.539 284.926 246.494 292.85 246.494 302.867L245.636 302.867C245.636 292.963 243.704 285.186 240.343 278.984C236.983 272.783 232.181 268.131 226.401 264.496C215.159 257.425 200.262 254.223 185.156 250.976C184.698 250.878 184.239 250.779 183.781 250.68C168.25 247.338 152.614 243.823 140.871 235.81Z" fill="#1995FC"/>
<path fill-rule="evenodd" clip-rule="evenodd" d="M121.248 302.867L121.248 193.92L122.105 193.92L122.105 302.867L121.248 302.867Z" fill="#1995FC"/>
<path fill-rule="evenodd" clip-rule="evenodd" d="M103.035 234.051C114.478 225.434 122.106 213.156 122.106 193.92L121.248 193.92C121.248 212.875 113.756 224.904 102.519 233.366C91.2495 241.853 76.2038 246.76 61.0726 251.405C60.1057 251.701 59.1385 251.997 58.1719 252.292C44.0472 256.611 30.0572 260.887 19.3851 267.851C13.6744 271.577 8.89628 276.082 5.54735 281.791C2.19706 287.501 0.291006 294.392 0.291005 302.867L1.14886 302.867C1.14886 294.527 3.02271 287.789 6.28726 282.225C9.55317 276.658 14.2248 272.242 19.8539 268.569C30.4194 261.675 44.2962 257.432 58.4599 253.102C59.4137 252.81 60.3688 252.518 61.3243 252.225C76.4324 247.587 91.6259 242.643 103.035 234.051Z" fill="#1995FC"/>
</svg>
