<svg width="25" height="28" viewBox="0 0 25 28" fill="none" xmlns="http://www.w3.org/2000/svg">
<path d="M22.611 3.11769L22.6429 3.17554C21.5056 3.2946 20.3332 3.51443 19.1489 3.84178C11.9925 5.81991 7.11363 10.9754 8.2517 15.3569C8.61597 16.7593 9.55251 17.9125 10.8923 18.7674C6.41983 19.9662 2.32782 19.0726 0.701491 16.1667C-1.49292 12.2458 1.63275 6.14617 7.68289 2.54278C13.733 -1.06061 20.4166 -0.803212 22.611 3.11769Z" fill="#1995FC"/>
<path d="M2.39114 24.8824L2.35845 24.8231C3.49515 24.7039 4.66701 24.484 5.8507 24.1567C13.007 22.178 17.8859 17.0219 16.7482 12.6403C16.3841 11.238 15.4478 10.0849 14.1083 9.23014C18.5808 8.03034 22.6727 8.9237 24.2988 11.83C26.4927 15.7513 23.3669 21.852 17.3173 25.4563C11.2677 29.0606 4.585 28.8036 2.39114 24.8824Z" fill="#1995FC"/>
</svg>
