<svg width="184" height="184" viewBox="0 0 184 184" fill="none" xmlns="http://www.w3.org/2000/svg">
<path d="M180.371 23.6427C180.371 12.5964 171.402 3.62708 160.356 3.62708C149.309 3.62708 140.34 12.5964 140.34 23.6427C140.34 34.6891 149.309 43.6584 160.356 43.6584C171.402 43.6584 180.371 34.708 180.371 23.6427Z" fill="white"/>
<path fill-rule="evenodd" clip-rule="evenodd" d="M160.355 92.0195C160.355 54.2918 129.728 23.6641 92 23.6641C54.2723 23.6641 23.6445 54.2918 23.6445 92.0195C23.6445 129.747 54.2723 160.375 92 160.375C129.728 160.375 160.355 129.747 160.355 92.0195ZM140.34 63.6954C140.34 52.649 131.371 43.6797 120.324 43.6797C109.278 43.6797 100.309 52.649 100.309 63.6954C100.309 74.7417 109.278 83.711 120.324 83.711C131.371 83.711 140.34 74.7417 140.34 63.6954ZM73.4764 121.137H51.3269V81.332H45.6055V126.178H73.4764V121.137ZM99.9308 126.18V121.686C96.9096 125.935 93.9073 127.596 89.1677 127.596C82.8986 127.596 78.8955 124.16 78.8955 118.797V93.9473H83.9938V116.776C83.9938 120.647 86.5808 123.121 90.6405 123.121C95.9844 123.121 99.4399 118.816 99.4399 112.226V93.9473H104.538V126.18H99.9308ZM138.509 127.596C139.566 127.596 140.359 127.482 142.021 127.048V123.177C141.454 123.309 141.209 123.309 140.907 123.309C139.113 123.309 138.131 122.384 138.131 120.779V101.821C138.131 96.0994 133.939 93.0215 126.008 93.0215C121.325 93.0215 117.455 94.381 115.302 96.7791C113.829 98.4408 113.225 100.291 113.093 103.483H118.266C118.701 99.536 121.042 97.761 125.838 97.761C130.446 97.761 133.033 99.4794 133.033 102.557V103.917C133.033 106.069 131.749 106.995 127.689 107.486C120.438 108.411 119.324 108.656 117.36 109.449C113.602 110.979 111.695 113.868 111.695 118.06C111.695 123.914 115.755 127.596 122.27 127.596C126.329 127.596 129.596 126.18 133.222 122.856C133.58 126.123 135.185 127.596 138.509 127.596ZM124.781 112.017C130.2 111.281 131.314 111.036 133.033 110.243V116.021C133.033 117.758 132.523 118.796 130.993 120.213C128.897 122.12 126.386 123.102 123.365 123.102C119.362 123.102 117.02 121.194 117.02 117.928C117.02 114.548 119.305 112.811 124.781 112.017Z" fill="white"/>
<path fill-rule="evenodd" clip-rule="evenodd" d="M79.9889 0.778412C83.9218 0.264773 87.931 0 92 0C96.0706 0 100.122 0.269826 104.128 0.802182L103.177 7.95932C99.485 7.46872 95.7515 7.22005 92 7.22005C88.2446 7.22005 84.5477 7.46439 80.9239 7.93766L79.9889 0.778412ZM35.9973 19.0181C42.3262 14.1535 49.3066 10.0921 56.7857 6.98841L59.5531 13.657C52.6646 16.5157 46.2321 20.2577 40.3974 24.7425L35.9973 19.0181ZM127.543 7.13663C131.273 8.69767 134.908 10.5074 138.421 12.5584L134.781 18.7937C131.543 16.9035 128.194 15.2357 124.756 13.7971L127.543 7.13663ZM6.98842 56.7857C10.0921 49.3066 14.1535 42.3262 19.0181 35.9973L24.7425 40.3973C20.2577 46.2321 16.5157 52.6646 13.657 59.5531L6.98842 56.7857ZM173.977 50.2364C175.62 53.4645 177.068 56.7785 178.315 60.1602L171.541 62.6583C170.392 59.5417 169.057 56.4874 167.543 53.5121L173.977 50.2364ZM0 92C0 87.931 0.264773 83.9218 0.778414 79.9889L7.93766 80.9239C7.4644 84.5476 7.22005 88.2446 7.22005 92C7.22005 95.7554 7.46439 99.4524 7.93766 103.076L0.778412 104.011C0.264772 100.078 0 96.069 0 92ZM183.362 81.1875C183.786 84.7662 184 88.3764 184 92C184 96.069 183.735 100.078 183.222 104.011L176.062 103.076C176.536 99.4524 176.78 95.7554 176.78 92C176.78 88.6608 176.583 85.334 176.192 82.0361L183.362 81.1875ZM19.0181 148.003C14.1535 141.674 10.0921 134.693 6.98841 127.214L13.657 124.447C16.5157 131.335 20.2577 137.768 24.7425 143.603L19.0181 148.003ZM177.012 127.214C173.908 134.693 169.847 141.674 164.982 148.003L159.258 143.603C163.742 137.768 167.484 131.335 170.343 124.447L177.012 127.214ZM56.7857 177.012C49.3066 173.908 42.3262 169.847 35.9973 164.982L40.3973 159.258C46.2321 163.742 52.6646 167.484 59.5531 170.343L56.7857 177.012ZM148.003 164.982C141.674 169.847 134.693 173.908 127.214 177.012L124.447 170.343C131.335 167.484 137.768 163.742 143.603 159.258L148.003 164.982ZM92 184C87.931 184 83.9218 183.735 79.9889 183.222L80.9239 176.062C84.5476 176.536 88.2446 176.78 92 176.78C95.7554 176.78 99.4524 176.536 103.076 176.062L104.011 183.222C100.078 183.735 96.069 184 92 184Z" fill="white"/>
</svg>
