<svg width="1372" height="800" viewBox="0 0 1372 800" fill="none" xmlns="http://www.w3.org/2000/svg">
<circle cx="45" cy="325.5" r="1.5" fill="#5D5D61" fill-opacity="0.5"/>
<circle cx="129" cy="325.5" r="1.5" fill="#5D5D61" fill-opacity="0.5"/>
<circle cx="213" cy="325.5" r="1.5" fill="#5D5D61" fill-opacity="0.5"/>
<circle cx="297" cy="325.5" r="1.5" fill="#5D5D61" fill-opacity="0.5"/>
<circle cx="381" cy="325.5" r="1.5" fill="#5D5D61" fill-opacity="0.5"/>
<circle cx="465" cy="325.5" r="1.5" fill="#5D5D61" fill-opacity="0.5"/>
<circle cx="549" cy="325.5" r="1.5" fill="#5D5D61" fill-opacity="0.5"/>
<circle cx="633" cy="325.5" r="1.5" fill="#5D5D61" fill-opacity="0.5"/>
<circle cx="717" cy="325.5" r="1.5" fill="#5D5D61" fill-opacity="0.5"/>
<circle cx="801" cy="325.5" r="1.5" fill="#5D5D61" fill-opacity="0.5"/>
<circle cx="885" cy="325.5" r="1.5" fill="#5D5D61" fill-opacity="0.5"/>
<circle cx="45" cy="409.5" r="1.5" fill="#5D5D61" fill-opacity="0.5"/>
<circle cx="129" cy="409.5" r="1.5" fill="#5D5D61" fill-opacity="0.5"/>
<circle cx="213" cy="409.5" r="1.5" fill="#5D5D61" fill-opacity="0.5"/>
<circle cx="297" cy="409.5" r="1.5" fill="#5D5D61" fill-opacity="0.5"/>
<circle cx="381" cy="409.5" r="1.5" fill="#5D5D61" fill-opacity="0.5"/>
<circle cx="465" cy="409.5" r="1.5" fill="#5D5D61" fill-opacity="0.5"/>
<circle cx="549" cy="409.5" r="1.5" fill="#5D5D61" fill-opacity="0.5"/>
<circle cx="633" cy="409.5" r="1.5" fill="#5D5D61" fill-opacity="0.5"/>
<circle cx="717" cy="409.5" r="1.5" fill="#5D5D61" fill-opacity="0.5"/>
<circle cx="801" cy="409.5" r="1.5" fill="#5D5D61" fill-opacity="0.5"/>
<circle cx="885" cy="409.5" r="1.5" fill="#5D5D61" fill-opacity="0.5"/>
<circle cx="45" cy="493.5" r="1.5" fill="#5D5D61" fill-opacity="0.5"/>
<circle cx="129" cy="493.5" r="1.5" fill="#5D5D61" fill-opacity="0.5"/>
<circle cx="213" cy="493.5" r="1.5" fill="#5D5D61" fill-opacity="0.5"/>
<circle cx="297" cy="493.5" r="1.5" fill="#5D5D61" fill-opacity="0.5"/>
<circle cx="381" cy="493.5" r="1.5" fill="#5D5D61" fill-opacity="0.5"/>
<circle cx="465" cy="493.5" r="1.5" fill="#5D5D61" fill-opacity="0.5"/>
<circle cx="549" cy="493.5" r="1.5" fill="#5D5D61" fill-opacity="0.5"/>
<circle cx="633" cy="493.5" r="1.5" fill="#5D5D61" fill-opacity="0.5"/>
<circle cx="717" cy="493.5" r="1.5" fill="#5D5D61" fill-opacity="0.5"/>
<circle cx="801" cy="493.5" r="1.5" fill="#5D5D61" fill-opacity="0.5"/>
<circle cx="885" cy="493.5" r="1.5" fill="#5D5D61" fill-opacity="0.5"/>
<circle cx="45" cy="577.5" r="1.5" fill="#5D5D61" fill-opacity="0.5"/>
<circle cx="129" cy="577.5" r="1.5" fill="#5D5D61" fill-opacity="0.5"/>
<circle cx="213" cy="577.5" r="1.5" fill="#5D5D61" fill-opacity="0.5"/>
<circle cx="297" cy="577.5" r="1.5" fill="#5D5D61" fill-opacity="0.5"/>
<circle cx="381" cy="577.5" r="1.5" fill="#5D5D61" fill-opacity="0.5"/>
<circle cx="465" cy="577.5" r="1.5" fill="#5D5D61" fill-opacity="0.5"/>
<circle cx="549" cy="577.5" r="1.5" fill="#5D5D61" fill-opacity="0.5"/>
<circle cx="633" cy="577.5" r="1.5" fill="#5D5D61" fill-opacity="0.5"/>
<circle cx="717" cy="577.5" r="1.5" fill="#5D5D61" fill-opacity="0.5"/>
<circle cx="801" cy="577.5" r="1.5" fill="#5D5D61" fill-opacity="0.5"/>
<circle cx="885" cy="577.5" r="1.5" fill="#5D5D61" fill-opacity="0.5"/>
<circle cx="45" cy="661.5" r="1.5" fill="#5D5D61" fill-opacity="0.5"/>
<circle cx="129" cy="661.5" r="1.5" fill="#5D5D61" fill-opacity="0.5"/>
<circle cx="213" cy="661.5" r="1.5" fill="#5D5D61" fill-opacity="0.5"/>
<circle cx="297" cy="661.5" r="1.5" fill="#5D5D61" fill-opacity="0.5"/>
<circle cx="381" cy="661.5" r="1.5" fill="#5D5D61" fill-opacity="0.5"/>
<circle cx="465" cy="661.5" r="1.5" fill="#5D5D61" fill-opacity="0.5"/>
<circle cx="549" cy="661.5" r="1.5" fill="#5D5D61" fill-opacity="0.5"/>
<circle cx="633" cy="661.5" r="1.5" fill="#5D5D61" fill-opacity="0.5"/>
<circle cx="717" cy="661.5" r="1.5" fill="#5D5D61" fill-opacity="0.5"/>
<circle cx="801" cy="661.5" r="1.5" fill="#5D5D61" fill-opacity="0.5"/>
<circle cx="885" cy="661.5" r="1.5" fill="#5D5D61" fill-opacity="0.5"/>
<circle cx="45" cy="745.5" r="1.5" fill="#5D5D61" fill-opacity="0.5"/>
<circle cx="129" cy="745.5" r="1.5" fill="#5D5D61" fill-opacity="0.5"/>
<circle cx="213" cy="745.5" r="1.5" fill="#5D5D61" fill-opacity="0.5"/>
<circle cx="297" cy="745.5" r="1.5" fill="#5D5D61" fill-opacity="0.5"/>
<circle cx="381" cy="745.5" r="1.5" fill="#5D5D61" fill-opacity="0.5"/>
<circle cx="465" cy="745.5" r="1.5" fill="#5D5D61" fill-opacity="0.5"/>
<circle cx="549" cy="745.5" r="1.5" fill="#5D5D61" fill-opacity="0.5"/>
<circle cx="633" cy="745.5" r="1.5" fill="#5D5D61" fill-opacity="0.5"/>
<circle cx="717" cy="745.5" r="1.5" fill="#5D5D61" fill-opacity="0.5"/>
<circle cx="801" cy="745.5" r="1.5" fill="#5D5D61" fill-opacity="0.5"/>
<circle cx="885" cy="745.5" r="1.5" fill="#5D5D61" fill-opacity="0.5"/>
<g filter="url(#filter0_f_1259_29425)">
<rect x="-592" y="201" width="1609" height="1004" rx="79" stroke="#1C1D1E" stroke-width="410"/>
</g>
<defs>
<filter id="filter0_f_1259_29425" x="-947" y="-154" width="2319" height="1714" filterUnits="userSpaceOnUse" color-interpolation-filters="sRGB">
<feFlood flood-opacity="0" result="BackgroundImageFix"/>
<feBlend mode="normal" in="SourceGraphic" in2="BackgroundImageFix" result="shape"/>
<feGaussianBlur stdDeviation="75" result="effect1_foregroundBlur_1259_29425"/>
</filter>
</defs>
</svg>
