<svg width="1440" height="800" viewBox="0 0 1440 800" fill="none" xmlns="http://www.w3.org/2000/svg">
<g clip-path="url(#clip0_1444_28090)">
<circle cx="48" cy="45.5" r="1.5" fill="#5D5D61" fill-opacity="0.5"/>
<circle cx="132" cy="45.5" r="1.5" fill="#5D5D61" fill-opacity="0.5"/>
<circle cx="216" cy="45.5" r="1.5" fill="#5D5D61" fill-opacity="0.5"/>
<circle cx="300" cy="45.5" r="1.5" fill="#5D5D61" fill-opacity="0.5"/>
<circle cx="384" cy="45.5" r="1.5" fill="#5D5D61" fill-opacity="0.5"/>
<circle cx="468" cy="45.5" r="1.5" fill="#5D5D61" fill-opacity="0.5"/>
<circle cx="552" cy="45.5" r="1.5" fill="#5D5D61" fill-opacity="0.5"/>
<circle cx="636" cy="45.5" r="1.5" fill="#5D5D61" fill-opacity="0.5"/>
<circle cx="720" cy="45.5" r="1.5" fill="#5D5D61" fill-opacity="0.5"/>
<circle cx="804" cy="45.5" r="1.5" fill="#5D5D61" fill-opacity="0.5"/>
<circle cx="888" cy="45.5" r="1.5" fill="#5D5D61" fill-opacity="0.5"/>
<circle cx="972" cy="45.5" r="1.5" fill="#5D5D61" fill-opacity="0.5"/>
<circle cx="1056" cy="45.5" r="1.5" fill="#5D5D61" fill-opacity="0.5"/>
<circle cx="1140" cy="45.5" r="1.5" fill="#5D5D61" fill-opacity="0.5"/>
<circle cx="1224" cy="45.5" r="1.5" fill="#5D5D61" fill-opacity="0.5"/>
<circle cx="1308" cy="45.5" r="1.5" fill="#5D5D61" fill-opacity="0.5"/>
<circle cx="1392" cy="45.5" r="1.5" fill="#5D5D61" fill-opacity="0.5"/>
<circle cx="48" cy="129.5" r="1.5" fill="#5D5D61" fill-opacity="0.5"/>
<circle cx="132" cy="129.5" r="1.5" fill="#5D5D61" fill-opacity="0.5"/>
<circle cx="216" cy="129.5" r="1.5" fill="#5D5D61" fill-opacity="0.5"/>
<circle cx="300" cy="129.5" r="1.5" fill="#5D5D61" fill-opacity="0.5"/>
<circle cx="384" cy="129.5" r="1.5" fill="#5D5D61" fill-opacity="0.5"/>
<circle cx="468" cy="129.5" r="1.5" fill="#5D5D61" fill-opacity="0.5"/>
<circle cx="552" cy="129.5" r="1.5" fill="#5D5D61" fill-opacity="0.5"/>
<circle cx="636" cy="129.5" r="1.5" fill="#5D5D61" fill-opacity="0.5"/>
<circle cx="720" cy="129.5" r="1.5" fill="#5D5D61" fill-opacity="0.5"/>
<circle cx="804" cy="129.5" r="1.5" fill="#5D5D61" fill-opacity="0.5"/>
<circle cx="888" cy="129.5" r="1.5" fill="#5D5D61" fill-opacity="0.5"/>
<circle cx="972" cy="129.5" r="1.5" fill="#5D5D61" fill-opacity="0.5"/>
<circle cx="1056" cy="129.5" r="1.5" fill="#5D5D61" fill-opacity="0.5"/>
<circle cx="1140" cy="129.5" r="1.5" fill="#5D5D61" fill-opacity="0.5"/>
<circle cx="1224" cy="129.5" r="1.5" fill="#5D5D61" fill-opacity="0.5"/>
<circle cx="1308" cy="129.5" r="1.5" fill="#5D5D61" fill-opacity="0.5"/>
<circle cx="1392" cy="129.5" r="1.5" fill="#5D5D61" fill-opacity="0.5"/>
<circle cx="48" cy="213.5" r="1.5" fill="#5D5D61" fill-opacity="0.5"/>
<circle cx="132" cy="213.5" r="1.5" fill="#5D5D61" fill-opacity="0.5"/>
<circle cx="216" cy="213.5" r="1.5" fill="#5D5D61" fill-opacity="0.5"/>
<circle cx="300" cy="213.5" r="1.5" fill="#5D5D61" fill-opacity="0.5"/>
<circle cx="384" cy="213.5" r="1.5" fill="#5D5D61" fill-opacity="0.5"/>
<circle cx="468" cy="213.5" r="1.5" fill="#5D5D61" fill-opacity="0.5"/>
<circle cx="552" cy="213.5" r="1.5" fill="#5D5D61" fill-opacity="0.5"/>
<circle cx="636" cy="213.5" r="1.5" fill="#5D5D61" fill-opacity="0.5"/>
<circle cx="720" cy="213.5" r="1.5" fill="#5D5D61" fill-opacity="0.5"/>
<circle cx="804" cy="213.5" r="1.5" fill="#5D5D61" fill-opacity="0.5"/>
<circle cx="888" cy="213.5" r="1.5" fill="#5D5D61" fill-opacity="0.5"/>
<circle cx="972" cy="213.5" r="1.5" fill="#5D5D61" fill-opacity="0.5"/>
<circle cx="1056" cy="213.5" r="1.5" fill="#5D5D61" fill-opacity="0.5"/>
<circle cx="1140" cy="213.5" r="1.5" fill="#5D5D61" fill-opacity="0.5"/>
<circle cx="1224" cy="213.5" r="1.5" fill="#5D5D61" fill-opacity="0.5"/>
<circle cx="1308" cy="213.5" r="1.5" fill="#5D5D61" fill-opacity="0.5"/>
<circle cx="1392" cy="213.5" r="1.5" fill="#5D5D61" fill-opacity="0.5"/>
<circle cx="48" cy="297.5" r="1.5" fill="#5D5D61" fill-opacity="0.5"/>
<circle cx="132" cy="297.5" r="1.5" fill="#5D5D61" fill-opacity="0.5"/>
<circle cx="216" cy="297.5" r="1.5" fill="#5D5D61" fill-opacity="0.5"/>
<circle cx="300" cy="297.5" r="1.5" fill="#5D5D61" fill-opacity="0.5"/>
<circle cx="384" cy="297.5" r="1.5" fill="#5D5D61" fill-opacity="0.5"/>
<circle cx="468" cy="297.5" r="1.5" fill="#5D5D61" fill-opacity="0.5"/>
<circle cx="552" cy="297.5" r="1.5" fill="#5D5D61" fill-opacity="0.5"/>
<circle cx="636" cy="297.5" r="1.5" fill="#5D5D61" fill-opacity="0.5"/>
<circle cx="720" cy="297.5" r="1.5" fill="#5D5D61" fill-opacity="0.5"/>
<circle cx="804" cy="297.5" r="1.5" fill="#5D5D61" fill-opacity="0.5"/>
<circle cx="888" cy="297.5" r="1.5" fill="#5D5D61" fill-opacity="0.5"/>
<circle cx="972" cy="297.5" r="1.5" fill="#5D5D61" fill-opacity="0.5"/>
<circle cx="1056" cy="297.5" r="1.5" fill="#5D5D61" fill-opacity="0.5"/>
<circle cx="1140" cy="297.5" r="1.5" fill="#5D5D61" fill-opacity="0.5"/>
<circle cx="1224" cy="297.5" r="1.5" fill="#5D5D61" fill-opacity="0.5"/>
<circle cx="1308" cy="297.5" r="1.5" fill="#5D5D61" fill-opacity="0.5"/>
<circle cx="1392" cy="297.5" r="1.5" fill="#5D5D61" fill-opacity="0.5"/>
<circle cx="48" cy="381.5" r="1.5" fill="#5D5D61" fill-opacity="0.5"/>
<circle cx="132" cy="381.5" r="1.5" fill="#5D5D61" fill-opacity="0.5"/>
<circle cx="216" cy="381.5" r="1.5" fill="#5D5D61" fill-opacity="0.5"/>
<circle cx="300" cy="381.5" r="1.5" fill="#5D5D61" fill-opacity="0.5"/>
<circle cx="384" cy="381.5" r="1.5" fill="#5D5D61" fill-opacity="0.5"/>
<circle cx="468" cy="381.5" r="1.5" fill="#5D5D61" fill-opacity="0.5"/>
<circle cx="552" cy="381.5" r="1.5" fill="#5D5D61" fill-opacity="0.5"/>
<circle cx="636" cy="381.5" r="1.5" fill="#5D5D61" fill-opacity="0.5"/>
<circle cx="720" cy="381.5" r="1.5" fill="#5D5D61" fill-opacity="0.5"/>
<circle cx="804" cy="381.5" r="1.5" fill="#5D5D61" fill-opacity="0.5"/>
<circle cx="888" cy="381.5" r="1.5" fill="#5D5D61" fill-opacity="0.5"/>
<circle cx="972" cy="381.5" r="1.5" fill="#5D5D61" fill-opacity="0.5"/>
<circle cx="1056" cy="381.5" r="1.5" fill="#5D5D61" fill-opacity="0.5"/>
<circle cx="1140" cy="381.5" r="1.5" fill="#5D5D61" fill-opacity="0.5"/>
<circle cx="1224" cy="381.5" r="1.5" fill="#5D5D61" fill-opacity="0.5"/>
<circle cx="1308" cy="381.5" r="1.5" fill="#5D5D61" fill-opacity="0.5"/>
<circle cx="1392" cy="381.5" r="1.5" fill="#5D5D61" fill-opacity="0.5"/>
<circle cx="48" cy="465.5" r="1.5" fill="#5D5D61" fill-opacity="0.5"/>
<circle cx="132" cy="465.5" r="1.5" fill="#5D5D61" fill-opacity="0.5"/>
<circle cx="216" cy="465.5" r="1.5" fill="#5D5D61" fill-opacity="0.5"/>
<circle cx="300" cy="465.5" r="1.5" fill="#5D5D61" fill-opacity="0.5"/>
<circle cx="384" cy="465.5" r="1.5" fill="#5D5D61" fill-opacity="0.5"/>
<circle cx="468" cy="465.5" r="1.5" fill="#5D5D61" fill-opacity="0.5"/>
<circle cx="552" cy="465.5" r="1.5" fill="#5D5D61" fill-opacity="0.5"/>
<circle cx="636" cy="465.5" r="1.5" fill="#5D5D61" fill-opacity="0.5"/>
<circle cx="720" cy="465.5" r="1.5" fill="#5D5D61" fill-opacity="0.5"/>
<circle cx="804" cy="465.5" r="1.5" fill="#5D5D61" fill-opacity="0.5"/>
<circle cx="888" cy="465.5" r="1.5" fill="#5D5D61" fill-opacity="0.5"/>
<circle cx="972" cy="465.5" r="1.5" fill="#5D5D61" fill-opacity="0.5"/>
<circle cx="1056" cy="465.5" r="1.5" fill="#5D5D61" fill-opacity="0.5"/>
<circle cx="1140" cy="465.5" r="1.5" fill="#5D5D61" fill-opacity="0.5"/>
<circle cx="1224" cy="465.5" r="1.5" fill="#5D5D61" fill-opacity="0.5"/>
<circle cx="1308" cy="465.5" r="1.5" fill="#5D5D61" fill-opacity="0.5"/>
<circle cx="1392" cy="465.5" r="1.5" fill="#5D5D61" fill-opacity="0.5"/>
<circle cx="48" cy="549.5" r="1.5" fill="#5D5D61" fill-opacity="0.5"/>
<circle cx="132" cy="549.5" r="1.5" fill="#5D5D61" fill-opacity="0.5"/>
<circle cx="216" cy="549.5" r="1.5" fill="#5D5D61" fill-opacity="0.5"/>
<circle cx="300" cy="549.5" r="1.5" fill="#5D5D61" fill-opacity="0.5"/>
<circle cx="384" cy="549.5" r="1.5" fill="#5D5D61" fill-opacity="0.5"/>
<circle cx="468" cy="549.5" r="1.5" fill="#5D5D61" fill-opacity="0.5"/>
<circle cx="552" cy="549.5" r="1.5" fill="#5D5D61" fill-opacity="0.5"/>
<circle cx="636" cy="549.5" r="1.5" fill="#5D5D61" fill-opacity="0.5"/>
<circle cx="720" cy="549.5" r="1.5" fill="#5D5D61" fill-opacity="0.5"/>
<circle cx="804" cy="549.5" r="1.5" fill="#5D5D61" fill-opacity="0.5"/>
<circle cx="888" cy="549.5" r="1.5" fill="#5D5D61" fill-opacity="0.5"/>
<circle cx="972" cy="549.5" r="1.5" fill="#5D5D61" fill-opacity="0.5"/>
<circle cx="1056" cy="549.5" r="1.5" fill="#5D5D61" fill-opacity="0.5"/>
<circle cx="1140" cy="549.5" r="1.5" fill="#5D5D61" fill-opacity="0.5"/>
<circle cx="1224" cy="549.5" r="1.5" fill="#5D5D61" fill-opacity="0.5"/>
<circle cx="1308" cy="549.5" r="1.5" fill="#5D5D61" fill-opacity="0.5"/>
<circle cx="1392" cy="549.5" r="1.5" fill="#5D5D61" fill-opacity="0.5"/>
<circle cx="48" cy="633.5" r="1.5" fill="#5D5D61" fill-opacity="0.5"/>
<circle cx="132" cy="633.5" r="1.5" fill="#5D5D61" fill-opacity="0.5"/>
<circle cx="216" cy="633.5" r="1.5" fill="#5D5D61" fill-opacity="0.5"/>
<circle cx="300" cy="633.5" r="1.5" fill="#5D5D61" fill-opacity="0.5"/>
<circle cx="384" cy="633.5" r="1.5" fill="#5D5D61" fill-opacity="0.5"/>
<circle cx="468" cy="633.5" r="1.5" fill="#5D5D61" fill-opacity="0.5"/>
<circle cx="552" cy="633.5" r="1.5" fill="#5D5D61" fill-opacity="0.5"/>
<circle cx="636" cy="633.5" r="1.5" fill="#5D5D61" fill-opacity="0.5"/>
<circle cx="720" cy="633.5" r="1.5" fill="#5D5D61" fill-opacity="0.5"/>
<circle cx="804" cy="633.5" r="1.5" fill="#5D5D61" fill-opacity="0.5"/>
<circle cx="888" cy="633.5" r="1.5" fill="#5D5D61" fill-opacity="0.5"/>
<circle cx="972" cy="633.5" r="1.5" fill="#5D5D61" fill-opacity="0.5"/>
<circle cx="1056" cy="633.5" r="1.5" fill="#5D5D61" fill-opacity="0.5"/>
<circle cx="1140" cy="633.5" r="1.5" fill="#5D5D61" fill-opacity="0.5"/>
<circle cx="1224" cy="633.5" r="1.5" fill="#5D5D61" fill-opacity="0.5"/>
<circle cx="1308" cy="633.5" r="1.5" fill="#5D5D61" fill-opacity="0.5"/>
<circle cx="1392" cy="633.5" r="1.5" fill="#5D5D61" fill-opacity="0.5"/>
<circle cx="48" cy="717.5" r="1.5" fill="#5D5D61" fill-opacity="0.5"/>
<circle cx="132" cy="717.5" r="1.5" fill="#5D5D61" fill-opacity="0.5"/>
<circle cx="216" cy="717.5" r="1.5" fill="#5D5D61" fill-opacity="0.5"/>
<circle cx="300" cy="717.5" r="1.5" fill="#5D5D61" fill-opacity="0.5"/>
<circle cx="384" cy="717.5" r="1.5" fill="#5D5D61" fill-opacity="0.5"/>
<circle cx="468" cy="717.5" r="1.5" fill="#5D5D61" fill-opacity="0.5"/>
<circle cx="552" cy="717.5" r="1.5" fill="#5D5D61" fill-opacity="0.5"/>
<circle cx="636" cy="717.5" r="1.5" fill="#5D5D61" fill-opacity="0.5"/>
<circle cx="720" cy="717.5" r="1.5" fill="#5D5D61" fill-opacity="0.5"/>
<circle cx="804" cy="717.5" r="1.5" fill="#5D5D61" fill-opacity="0.5"/>
<circle cx="888" cy="717.5" r="1.5" fill="#5D5D61" fill-opacity="0.5"/>
<circle cx="972" cy="717.5" r="1.5" fill="#5D5D61" fill-opacity="0.5"/>
<circle cx="1056" cy="717.5" r="1.5" fill="#5D5D61" fill-opacity="0.5"/>
<circle cx="1140" cy="717.5" r="1.5" fill="#5D5D61" fill-opacity="0.5"/>
<circle cx="1224" cy="717.5" r="1.5" fill="#5D5D61" fill-opacity="0.5"/>
<circle cx="1308" cy="717.5" r="1.5" fill="#5D5D61" fill-opacity="0.5"/>
<circle cx="1392" cy="717.5" r="1.5" fill="#5D5D61" fill-opacity="0.5"/>
<g filter="url(#filter0_f_1444_28090)">
<rect x="-55" y="-75" width="1609" height="952" rx="79" stroke="#1C1D1E" stroke-width="410"/>
</g>
</g>
<defs>
<filter id="filter0_f_1444_28090" x="-410" y="-430" width="2319" height="1662" filterUnits="userSpaceOnUse" color-interpolation-filters="sRGB">
<feFlood flood-opacity="0" result="BackgroundImageFix"/>
<feBlend mode="normal" in="SourceGraphic" in2="BackgroundImageFix" result="shape"/>
<feGaussianBlur stdDeviation="75" result="effect1_foregroundBlur_1444_28090"/>
</filter>
<clipPath id="clip0_1444_28090">
<rect width="1440" height="800" fill="white"/>
</clipPath>
</defs>
</svg>
