<svg width="779" height="711" viewBox="0 0 779 711" fill="none" xmlns="http://www.w3.org/2000/svg">
<mask id="mask0_1259_29426" style="mask-type:alpha" maskUnits="userSpaceOnUse" x="-32" y="0" width="691" height="772">
<rect x="-32" width="691" height="772" rx="266" fill="#1995FC"/>
</mask>
<g mask="url(#mask0_1259_29426)">
<path d="M-380 6.5C-380 7.32843 -380.672 8 -381.5 8C-382.328 8 -383 7.32843 -383 6.5C-383 5.67157 -382.328 5 -381.5 5C-380.672 5 -380 5.67157 -380 6.5Z" fill="#1995FC"/>
<path d="M-296 6.5C-296 7.32843 -296.672 8 -297.5 8C-298.328 8 -299 7.32843 -299 6.5C-299 5.67157 -298.328 5 -297.5 5C-296.672 5 -296 5.67157 -296 6.5Z" fill="#1995FC"/>
<path d="M-212 6.5C-212 7.32843 -212.672 8 -213.5 8C-214.328 8 -215 7.32843 -215 6.5C-215 5.67157 -214.328 5 -213.5 5C-212.672 5 -212 5.67157 -212 6.5Z" fill="#1995FC"/>
<path d="M-128 6.5C-128 7.32843 -128.672 8 -129.5 8C-130.328 8 -131 7.32843 -131 6.5C-131 5.67157 -130.328 5 -129.5 5C-128.672 5 -128 5.67157 -128 6.5Z" fill="#1995FC"/>
<path d="M-44 6.5C-44 7.32843 -44.6716 8 -45.5 8C-46.3284 8 -47 7.32843 -47 6.5C-47 5.67157 -46.3284 5 -45.5 5C-44.6716 5 -44 5.67157 -44 6.5Z" fill="#1995FC"/>
<path d="M40 6.5C40 7.32843 39.3284 8 38.5 8C37.6716 8 37 7.32843 37 6.5C37 5.67157 37.6716 5 38.5 5C39.3284 5 40 5.67157 40 6.5Z" fill="#1995FC"/>
<path d="M124 6.5C124 7.32843 123.328 8 122.5 8C121.672 8 121 7.32843 121 6.5C121 5.67157 121.672 5 122.5 5C123.328 5 124 5.67157 124 6.5Z" fill="#1995FC"/>
<path d="M208 6.5C208 7.32843 207.328 8 206.5 8C205.672 8 205 7.32843 205 6.5C205 5.67157 205.672 5 206.5 5C207.328 5 208 5.67157 208 6.5Z" fill="#1995FC"/>
<path d="M292 6.5C292 7.32843 291.328 8 290.5 8C289.672 8 289 7.32843 289 6.5C289 5.67157 289.672 5 290.5 5C291.328 5 292 5.67157 292 6.5Z" fill="#1995FC"/>
<path d="M376 6.5C376 7.32843 375.328 8 374.5 8C373.672 8 373 7.32843 373 6.5C373 5.67157 373.672 5 374.5 5C375.328 5 376 5.67157 376 6.5Z" fill="#1995FC"/>
<path d="M460 6.5C460 7.32843 459.328 8 458.5 8C457.672 8 457 7.32843 457 6.5C457 5.67157 457.672 5 458.5 5C459.328 5 460 5.67157 460 6.5Z" fill="#1995FC"/>
<path d="M544 6.5C544 7.32843 543.328 8 542.5 8C541.672 8 541 7.32843 541 6.5C541 5.67157 541.672 5 542.5 5C543.328 5 544 5.67157 544 6.5Z" fill="#1995FC"/>
<path d="M628 6.5C628 7.32843 627.328 8 626.5 8C625.672 8 625 7.32843 625 6.5C625 5.67157 625.672 5 626.5 5C627.328 5 628 5.67157 628 6.5Z" fill="#1995FC"/>
<path d="M712 6.5C712 7.32843 711.328 8 710.5 8C709.672 8 709 7.32843 709 6.5C709 5.67157 709.672 5 710.5 5C711.328 5 712 5.67157 712 6.5Z" fill="#1995FC"/>
<path d="M796 6.5C796 7.32843 795.328 8 794.5 8C793.672 8 793 7.32843 793 6.5C793 5.67157 793.672 5 794.5 5C795.328 5 796 5.67157 796 6.5Z" fill="#1995FC"/>
<path d="M880 6.5C880 7.32843 879.328 8 878.5 8C877.672 8 877 7.32843 877 6.5C877 5.67157 877.672 5 878.5 5C879.328 5 880 5.67157 880 6.5Z" fill="#1995FC"/>
<path d="M964 6.5C964 7.32843 963.328 8 962.5 8C961.672 8 961 7.32843 961 6.5C961 5.67157 961.672 5 962.5 5C963.328 5 964 5.67157 964 6.5Z" fill="#1995FC"/>
<path d="M-380 90.5C-380 91.3284 -380.672 92 -381.5 92C-382.328 92 -383 91.3284 -383 90.5C-383 89.6716 -382.328 89 -381.5 89C-380.672 89 -380 89.6716 -380 90.5Z" fill="#1995FC"/>
<path d="M-296 90.5C-296 91.3284 -296.672 92 -297.5 92C-298.328 92 -299 91.3284 -299 90.5C-299 89.6716 -298.328 89 -297.5 89C-296.672 89 -296 89.6716 -296 90.5Z" fill="#1995FC"/>
<path d="M-212 90.5C-212 91.3284 -212.672 92 -213.5 92C-214.328 92 -215 91.3284 -215 90.5C-215 89.6716 -214.328 89 -213.5 89C-212.672 89 -212 89.6716 -212 90.5Z" fill="#1995FC"/>
<path d="M-128 90.5C-128 91.3284 -128.672 92 -129.5 92C-130.328 92 -131 91.3284 -131 90.5C-131 89.6716 -130.328 89 -129.5 89C-128.672 89 -128 89.6716 -128 90.5Z" fill="#1995FC"/>
<path d="M-44 90.5C-44 91.3284 -44.6716 92 -45.5 92C-46.3284 92 -47 91.3284 -47 90.5C-47 89.6716 -46.3284 89 -45.5 89C-44.6716 89 -44 89.6716 -44 90.5Z" fill="#1995FC"/>
<path d="M40 90.5C40 91.3284 39.3284 92 38.5 92C37.6716 92 37 91.3284 37 90.5C37 89.6716 37.6716 89 38.5 89C39.3284 89 40 89.6716 40 90.5Z" fill="#1995FC"/>
<path d="M124 90.5C124 91.3284 123.328 92 122.5 92C121.672 92 121 91.3284 121 90.5C121 89.6716 121.672 89 122.5 89C123.328 89 124 89.6716 124 90.5Z" fill="#1995FC"/>
<path d="M208 90.5C208 91.3284 207.328 92 206.5 92C205.672 92 205 91.3284 205 90.5C205 89.6716 205.672 89 206.5 89C207.328 89 208 89.6716 208 90.5Z" fill="#1995FC"/>
<path d="M292 90.5C292 91.3284 291.328 92 290.5 92C289.672 92 289 91.3284 289 90.5C289 89.6716 289.672 89 290.5 89C291.328 89 292 89.6716 292 90.5Z" fill="#1995FC"/>
<path d="M376 90.5C376 91.3284 375.328 92 374.5 92C373.672 92 373 91.3284 373 90.5C373 89.6716 373.672 89 374.5 89C375.328 89 376 89.6716 376 90.5Z" fill="#1995FC"/>
<path d="M460 90.5C460 91.3284 459.328 92 458.5 92C457.672 92 457 91.3284 457 90.5C457 89.6716 457.672 89 458.5 89C459.328 89 460 89.6716 460 90.5Z" fill="#1995FC"/>
<path d="M544 90.5C544 91.3284 543.328 92 542.5 92C541.672 92 541 91.3284 541 90.5C541 89.6716 541.672 89 542.5 89C543.328 89 544 89.6716 544 90.5Z" fill="#1995FC"/>
<path d="M628 90.5C628 91.3284 627.328 92 626.5 92C625.672 92 625 91.3284 625 90.5C625 89.6716 625.672 89 626.5 89C627.328 89 628 89.6716 628 90.5Z" fill="#1995FC"/>
<path d="M712 90.5C712 91.3284 711.328 92 710.5 92C709.672 92 709 91.3284 709 90.5C709 89.6716 709.672 89 710.5 89C711.328 89 712 89.6716 712 90.5Z" fill="#1995FC"/>
<path d="M796 90.5C796 91.3284 795.328 92 794.5 92C793.672 92 793 91.3284 793 90.5C793 89.6716 793.672 89 794.5 89C795.328 89 796 89.6716 796 90.5Z" fill="#1995FC"/>
<path d="M880 90.5C880 91.3284 879.328 92 878.5 92C877.672 92 877 91.3284 877 90.5C877 89.6716 877.672 89 878.5 89C879.328 89 880 89.6716 880 90.5Z" fill="#1995FC"/>
<path d="M964 90.5C964 91.3284 963.328 92 962.5 92C961.672 92 961 91.3284 961 90.5C961 89.6716 961.672 89 962.5 89C963.328 89 964 89.6716 964 90.5Z" fill="#1995FC"/>
<path d="M-380 174.5C-380 175.328 -380.672 176 -381.5 176C-382.328 176 -383 175.328 -383 174.5C-383 173.672 -382.328 173 -381.5 173C-380.672 173 -380 173.672 -380 174.5Z" fill="#1995FC"/>
<path d="M-296 174.5C-296 175.328 -296.672 176 -297.5 176C-298.328 176 -299 175.328 -299 174.5C-299 173.672 -298.328 173 -297.5 173C-296.672 173 -296 173.672 -296 174.5Z" fill="#1995FC"/>
<path d="M-212 174.5C-212 175.328 -212.672 176 -213.5 176C-214.328 176 -215 175.328 -215 174.5C-215 173.672 -214.328 173 -213.5 173C-212.672 173 -212 173.672 -212 174.5Z" fill="#1995FC"/>
<path d="M-128 174.5C-128 175.328 -128.672 176 -129.5 176C-130.328 176 -131 175.328 -131 174.5C-131 173.672 -130.328 173 -129.5 173C-128.672 173 -128 173.672 -128 174.5Z" fill="#1995FC"/>
<path d="M-44 174.5C-44 175.328 -44.6716 176 -45.5 176C-46.3284 176 -47 175.328 -47 174.5C-47 173.672 -46.3284 173 -45.5 173C-44.6716 173 -44 173.672 -44 174.5Z" fill="#1995FC"/>
<path d="M40 174.5C40 175.328 39.3284 176 38.5 176C37.6716 176 37 175.328 37 174.5C37 173.672 37.6716 173 38.5 173C39.3284 173 40 173.672 40 174.5Z" fill="#1995FC"/>
<path d="M124 174.5C124 175.328 123.328 176 122.5 176C121.672 176 121 175.328 121 174.5C121 173.672 121.672 173 122.5 173C123.328 173 124 173.672 124 174.5Z" fill="#1995FC"/>
<path d="M208 174.5C208 175.328 207.328 176 206.5 176C205.672 176 205 175.328 205 174.5C205 173.672 205.672 173 206.5 173C207.328 173 208 173.672 208 174.5Z" fill="#1995FC"/>
<path d="M292 174.5C292 175.328 291.328 176 290.5 176C289.672 176 289 175.328 289 174.5C289 173.672 289.672 173 290.5 173C291.328 173 292 173.672 292 174.5Z" fill="#1995FC"/>
<path d="M376 174.5C376 175.328 375.328 176 374.5 176C373.672 176 373 175.328 373 174.5C373 173.672 373.672 173 374.5 173C375.328 173 376 173.672 376 174.5Z" fill="#1995FC"/>
<path d="M460 174.5C460 175.328 459.328 176 458.5 176C457.672 176 457 175.328 457 174.5C457 173.672 457.672 173 458.5 173C459.328 173 460 173.672 460 174.5Z" fill="#1995FC"/>
<path d="M544 174.5C544 175.328 543.328 176 542.5 176C541.672 176 541 175.328 541 174.5C541 173.672 541.672 173 542.5 173C543.328 173 544 173.672 544 174.5Z" fill="#1995FC"/>
<path d="M628 174.5C628 175.328 627.328 176 626.5 176C625.672 176 625 175.328 625 174.5C625 173.672 625.672 173 626.5 173C627.328 173 628 173.672 628 174.5Z" fill="#1995FC"/>
<path d="M712 174.5C712 175.328 711.328 176 710.5 176C709.672 176 709 175.328 709 174.5C709 173.672 709.672 173 710.5 173C711.328 173 712 173.672 712 174.5Z" fill="#1995FC"/>
<path d="M796 174.5C796 175.328 795.328 176 794.5 176C793.672 176 793 175.328 793 174.5C793 173.672 793.672 173 794.5 173C795.328 173 796 173.672 796 174.5Z" fill="#1995FC"/>
<path d="M880 174.5C880 175.328 879.328 176 878.5 176C877.672 176 877 175.328 877 174.5C877 173.672 877.672 173 878.5 173C879.328 173 880 173.672 880 174.5Z" fill="#1995FC"/>
<path d="M964 174.5C964 175.328 963.328 176 962.5 176C961.672 176 961 175.328 961 174.5C961 173.672 961.672 173 962.5 173C963.328 173 964 173.672 964 174.5Z" fill="#1995FC"/>
<path d="M-380 258.5C-380 259.328 -380.672 260 -381.5 260C-382.328 260 -383 259.328 -383 258.5C-383 257.672 -382.328 257 -381.5 257C-380.672 257 -380 257.672 -380 258.5Z" fill="#1995FC"/>
<path d="M-296 258.5C-296 259.328 -296.672 260 -297.5 260C-298.328 260 -299 259.328 -299 258.5C-299 257.672 -298.328 257 -297.5 257C-296.672 257 -296 257.672 -296 258.5Z" fill="#1995FC"/>
<path d="M-212 258.5C-212 259.328 -212.672 260 -213.5 260C-214.328 260 -215 259.328 -215 258.5C-215 257.672 -214.328 257 -213.5 257C-212.672 257 -212 257.672 -212 258.5Z" fill="#1995FC"/>
<path d="M-128 258.5C-128 259.328 -128.672 260 -129.5 260C-130.328 260 -131 259.328 -131 258.5C-131 257.672 -130.328 257 -129.5 257C-128.672 257 -128 257.672 -128 258.5Z" fill="#1995FC"/>
<path d="M-44 258.5C-44 259.328 -44.6716 260 -45.5 260C-46.3284 260 -47 259.328 -47 258.5C-47 257.672 -46.3284 257 -45.5 257C-44.6716 257 -44 257.672 -44 258.5Z" fill="#1995FC"/>
<path d="M40 258.5C40 259.328 39.3284 260 38.5 260C37.6716 260 37 259.328 37 258.5C37 257.672 37.6716 257 38.5 257C39.3284 257 40 257.672 40 258.5Z" fill="#1995FC"/>
<path d="M124 258.5C124 259.328 123.328 260 122.5 260C121.672 260 121 259.328 121 258.5C121 257.672 121.672 257 122.5 257C123.328 257 124 257.672 124 258.5Z" fill="#1995FC"/>
<path d="M208 258.5C208 259.328 207.328 260 206.5 260C205.672 260 205 259.328 205 258.5C205 257.672 205.672 257 206.5 257C207.328 257 208 257.672 208 258.5Z" fill="#1995FC"/>
<path d="M292 258.5C292 259.328 291.328 260 290.5 260C289.672 260 289 259.328 289 258.5C289 257.672 289.672 257 290.5 257C291.328 257 292 257.672 292 258.5Z" fill="#1995FC"/>
<path d="M376 258.5C376 259.328 375.328 260 374.5 260C373.672 260 373 259.328 373 258.5C373 257.672 373.672 257 374.5 257C375.328 257 376 257.672 376 258.5Z" fill="#1995FC"/>
<path d="M460 258.5C460 259.328 459.328 260 458.5 260C457.672 260 457 259.328 457 258.5C457 257.672 457.672 257 458.5 257C459.328 257 460 257.672 460 258.5Z" fill="#1995FC"/>
<path d="M544 258.5C544 259.328 543.328 260 542.5 260C541.672 260 541 259.328 541 258.5C541 257.672 541.672 257 542.5 257C543.328 257 544 257.672 544 258.5Z" fill="#1995FC"/>
<path d="M628 258.5C628 259.328 627.328 260 626.5 260C625.672 260 625 259.328 625 258.5C625 257.672 625.672 257 626.5 257C627.328 257 628 257.672 628 258.5Z" fill="#1995FC"/>
<path d="M712 258.5C712 259.328 711.328 260 710.5 260C709.672 260 709 259.328 709 258.5C709 257.672 709.672 257 710.5 257C711.328 257 712 257.672 712 258.5Z" fill="#1995FC"/>
<path d="M796 258.5C796 259.328 795.328 260 794.5 260C793.672 260 793 259.328 793 258.5C793 257.672 793.672 257 794.5 257C795.328 257 796 257.672 796 258.5Z" fill="#1995FC"/>
<path d="M880 258.5C880 259.328 879.328 260 878.5 260C877.672 260 877 259.328 877 258.5C877 257.672 877.672 257 878.5 257C879.328 257 880 257.672 880 258.5Z" fill="#1995FC"/>
<path d="M964 258.5C964 259.328 963.328 260 962.5 260C961.672 260 961 259.328 961 258.5C961 257.672 961.672 257 962.5 257C963.328 257 964 257.672 964 258.5Z" fill="#1995FC"/>
<path d="M-380 342.5C-380 343.328 -380.672 344 -381.5 344C-382.328 344 -383 343.328 -383 342.5C-383 341.672 -382.328 341 -381.5 341C-380.672 341 -380 341.672 -380 342.5Z" fill="#1995FC"/>
<path d="M-296 342.5C-296 343.328 -296.672 344 -297.5 344C-298.328 344 -299 343.328 -299 342.5C-299 341.672 -298.328 341 -297.5 341C-296.672 341 -296 341.672 -296 342.5Z" fill="#1995FC"/>
<path d="M-212 342.5C-212 343.328 -212.672 344 -213.5 344C-214.328 344 -215 343.328 -215 342.5C-215 341.672 -214.328 341 -213.5 341C-212.672 341 -212 341.672 -212 342.5Z" fill="#1995FC"/>
<path d="M-128 342.5C-128 343.328 -128.672 344 -129.5 344C-130.328 344 -131 343.328 -131 342.5C-131 341.672 -130.328 341 -129.5 341C-128.672 341 -128 341.672 -128 342.5Z" fill="#1995FC"/>
<path d="M-44 342.5C-44 343.328 -44.6716 344 -45.5 344C-46.3284 344 -47 343.328 -47 342.5C-47 341.672 -46.3284 341 -45.5 341C-44.6716 341 -44 341.672 -44 342.5Z" fill="#1995FC"/>
<path d="M40 342.5C40 343.328 39.3284 344 38.5 344C37.6716 344 37 343.328 37 342.5C37 341.672 37.6716 341 38.5 341C39.3284 341 40 341.672 40 342.5Z" fill="#1995FC"/>
<path d="M124 342.5C124 343.328 123.328 344 122.5 344C121.672 344 121 343.328 121 342.5C121 341.672 121.672 341 122.5 341C123.328 341 124 341.672 124 342.5Z" fill="#1995FC"/>
<path d="M208 342.5C208 343.328 207.328 344 206.5 344C205.672 344 205 343.328 205 342.5C205 341.672 205.672 341 206.5 341C207.328 341 208 341.672 208 342.5Z" fill="#1995FC"/>
<path d="M292 342.5C292 343.328 291.328 344 290.5 344C289.672 344 289 343.328 289 342.5C289 341.672 289.672 341 290.5 341C291.328 341 292 341.672 292 342.5Z" fill="#1995FC"/>
<path d="M376 342.5C376 343.328 375.328 344 374.5 344C373.672 344 373 343.328 373 342.5C373 341.672 373.672 341 374.5 341C375.328 341 376 341.672 376 342.5Z" fill="#1995FC"/>
<path d="M460 342.5C460 343.328 459.328 344 458.5 344C457.672 344 457 343.328 457 342.5C457 341.672 457.672 341 458.5 341C459.328 341 460 341.672 460 342.5Z" fill="#1995FC"/>
<path d="M544 342.5C544 343.328 543.328 344 542.5 344C541.672 344 541 343.328 541 342.5C541 341.672 541.672 341 542.5 341C543.328 341 544 341.672 544 342.5Z" fill="#1995FC"/>
<path d="M628 342.5C628 343.328 627.328 344 626.5 344C625.672 344 625 343.328 625 342.5C625 341.672 625.672 341 626.5 341C627.328 341 628 341.672 628 342.5Z" fill="#1995FC"/>
<path d="M712 342.5C712 343.328 711.328 344 710.5 344C709.672 344 709 343.328 709 342.5C709 341.672 709.672 341 710.5 341C711.328 341 712 341.672 712 342.5Z" fill="#1995FC"/>
<path d="M796 342.5C796 343.328 795.328 344 794.5 344C793.672 344 793 343.328 793 342.5C793 341.672 793.672 341 794.5 341C795.328 341 796 341.672 796 342.5Z" fill="#1995FC"/>
<path d="M880 342.5C880 343.328 879.328 344 878.5 344C877.672 344 877 343.328 877 342.5C877 341.672 877.672 341 878.5 341C879.328 341 880 341.672 880 342.5Z" fill="#1995FC"/>
<path d="M964 342.5C964 343.328 963.328 344 962.5 344C961.672 344 961 343.328 961 342.5C961 341.672 961.672 341 962.5 341C963.328 341 964 341.672 964 342.5Z" fill="#1995FC"/>
<path d="M-380 426.5C-380 427.328 -380.672 428 -381.5 428C-382.328 428 -383 427.328 -383 426.5C-383 425.672 -382.328 425 -381.5 425C-380.672 425 -380 425.672 -380 426.5Z" fill="#1995FC"/>
<path d="M-296 426.5C-296 427.328 -296.672 428 -297.5 428C-298.328 428 -299 427.328 -299 426.5C-299 425.672 -298.328 425 -297.5 425C-296.672 425 -296 425.672 -296 426.5Z" fill="#1995FC"/>
<path d="M-212 426.5C-212 427.328 -212.672 428 -213.5 428C-214.328 428 -215 427.328 -215 426.5C-215 425.672 -214.328 425 -213.5 425C-212.672 425 -212 425.672 -212 426.5Z" fill="#1995FC"/>
<path d="M-128 426.5C-128 427.328 -128.672 428 -129.5 428C-130.328 428 -131 427.328 -131 426.5C-131 425.672 -130.328 425 -129.5 425C-128.672 425 -128 425.672 -128 426.5Z" fill="#1995FC"/>
<path d="M-44 426.5C-44 427.328 -44.6716 428 -45.5 428C-46.3284 428 -47 427.328 -47 426.5C-47 425.672 -46.3284 425 -45.5 425C-44.6716 425 -44 425.672 -44 426.5Z" fill="#1995FC"/>
<path d="M40 426.5C40 427.328 39.3284 428 38.5 428C37.6716 428 37 427.328 37 426.5C37 425.672 37.6716 425 38.5 425C39.3284 425 40 425.672 40 426.5Z" fill="#1995FC"/>
<path d="M124 426.5C124 427.328 123.328 428 122.5 428C121.672 428 121 427.328 121 426.5C121 425.672 121.672 425 122.5 425C123.328 425 124 425.672 124 426.5Z" fill="#1995FC"/>
<path d="M208 426.5C208 427.328 207.328 428 206.5 428C205.672 428 205 427.328 205 426.5C205 425.672 205.672 425 206.5 425C207.328 425 208 425.672 208 426.5Z" fill="#1995FC"/>
<path d="M292 426.5C292 427.328 291.328 428 290.5 428C289.672 428 289 427.328 289 426.5C289 425.672 289.672 425 290.5 425C291.328 425 292 425.672 292 426.5Z" fill="#1995FC"/>
<path d="M376 426.5C376 427.328 375.328 428 374.5 428C373.672 428 373 427.328 373 426.5C373 425.672 373.672 425 374.5 425C375.328 425 376 425.672 376 426.5Z" fill="#1995FC"/>
<path d="M460 426.5C460 427.328 459.328 428 458.5 428C457.672 428 457 427.328 457 426.5C457 425.672 457.672 425 458.5 425C459.328 425 460 425.672 460 426.5Z" fill="#1995FC"/>
<path d="M544 426.5C544 427.328 543.328 428 542.5 428C541.672 428 541 427.328 541 426.5C541 425.672 541.672 425 542.5 425C543.328 425 544 425.672 544 426.5Z" fill="#1995FC"/>
<path d="M628 426.5C628 427.328 627.328 428 626.5 428C625.672 428 625 427.328 625 426.5C625 425.672 625.672 425 626.5 425C627.328 425 628 425.672 628 426.5Z" fill="#1995FC"/>
<path d="M712 426.5C712 427.328 711.328 428 710.5 428C709.672 428 709 427.328 709 426.5C709 425.672 709.672 425 710.5 425C711.328 425 712 425.672 712 426.5Z" fill="#1995FC"/>
<path d="M796 426.5C796 427.328 795.328 428 794.5 428C793.672 428 793 427.328 793 426.5C793 425.672 793.672 425 794.5 425C795.328 425 796 425.672 796 426.5Z" fill="#1995FC"/>
<path d="M880 426.5C880 427.328 879.328 428 878.5 428C877.672 428 877 427.328 877 426.5C877 425.672 877.672 425 878.5 425C879.328 425 880 425.672 880 426.5Z" fill="#1995FC"/>
<path d="M964 426.5C964 427.328 963.328 428 962.5 428C961.672 428 961 427.328 961 426.5C961 425.672 961.672 425 962.5 425C963.328 425 964 425.672 964 426.5Z" fill="#1995FC"/>
<path d="M-380 510.5C-380 511.328 -380.672 512 -381.5 512C-382.328 512 -383 511.328 -383 510.5C-383 509.672 -382.328 509 -381.5 509C-380.672 509 -380 509.672 -380 510.5Z" fill="#1995FC"/>
<path d="M-296 510.5C-296 511.328 -296.672 512 -297.5 512C-298.328 512 -299 511.328 -299 510.5C-299 509.672 -298.328 509 -297.5 509C-296.672 509 -296 509.672 -296 510.5Z" fill="#1995FC"/>
<path d="M-212 510.5C-212 511.328 -212.672 512 -213.5 512C-214.328 512 -215 511.328 -215 510.5C-215 509.672 -214.328 509 -213.5 509C-212.672 509 -212 509.672 -212 510.5Z" fill="#1995FC"/>
<path d="M-128 510.5C-128 511.328 -128.672 512 -129.5 512C-130.328 512 -131 511.328 -131 510.5C-131 509.672 -130.328 509 -129.5 509C-128.672 509 -128 509.672 -128 510.5Z" fill="#1995FC"/>
<path d="M-44 510.5C-44 511.328 -44.6716 512 -45.5 512C-46.3284 512 -47 511.328 -47 510.5C-47 509.672 -46.3284 509 -45.5 509C-44.6716 509 -44 509.672 -44 510.5Z" fill="#1995FC"/>
<path d="M40 510.5C40 511.328 39.3284 512 38.5 512C37.6716 512 37 511.328 37 510.5C37 509.672 37.6716 509 38.5 509C39.3284 509 40 509.672 40 510.5Z" fill="#1995FC"/>
<path d="M124 510.5C124 511.328 123.328 512 122.5 512C121.672 512 121 511.328 121 510.5C121 509.672 121.672 509 122.5 509C123.328 509 124 509.672 124 510.5Z" fill="#1995FC"/>
<path d="M208 510.5C208 511.328 207.328 512 206.5 512C205.672 512 205 511.328 205 510.5C205 509.672 205.672 509 206.5 509C207.328 509 208 509.672 208 510.5Z" fill="#1995FC"/>
<path d="M292 510.5C292 511.328 291.328 512 290.5 512C289.672 512 289 511.328 289 510.5C289 509.672 289.672 509 290.5 509C291.328 509 292 509.672 292 510.5Z" fill="#1995FC"/>
<path d="M376 510.5C376 511.328 375.328 512 374.5 512C373.672 512 373 511.328 373 510.5C373 509.672 373.672 509 374.5 509C375.328 509 376 509.672 376 510.5Z" fill="#1995FC"/>
<path d="M460 510.5C460 511.328 459.328 512 458.5 512C457.672 512 457 511.328 457 510.5C457 509.672 457.672 509 458.5 509C459.328 509 460 509.672 460 510.5Z" fill="#1995FC"/>
<path d="M544 510.5C544 511.328 543.328 512 542.5 512C541.672 512 541 511.328 541 510.5C541 509.672 541.672 509 542.5 509C543.328 509 544 509.672 544 510.5Z" fill="#1995FC"/>
<path d="M628 510.5C628 511.328 627.328 512 626.5 512C625.672 512 625 511.328 625 510.5C625 509.672 625.672 509 626.5 509C627.328 509 628 509.672 628 510.5Z" fill="#1995FC"/>
<path d="M712 510.5C712 511.328 711.328 512 710.5 512C709.672 512 709 511.328 709 510.5C709 509.672 709.672 509 710.5 509C711.328 509 712 509.672 712 510.5Z" fill="#1995FC"/>
<path d="M796 510.5C796 511.328 795.328 512 794.5 512C793.672 512 793 511.328 793 510.5C793 509.672 793.672 509 794.5 509C795.328 509 796 509.672 796 510.5Z" fill="#1995FC"/>
<path d="M880 510.5C880 511.328 879.328 512 878.5 512C877.672 512 877 511.328 877 510.5C877 509.672 877.672 509 878.5 509C879.328 509 880 509.672 880 510.5Z" fill="#1995FC"/>
<path d="M964 510.5C964 511.328 963.328 512 962.5 512C961.672 512 961 511.328 961 510.5C961 509.672 961.672 509 962.5 509C963.328 509 964 509.672 964 510.5Z" fill="#1995FC"/>
<path d="M-380 594.5C-380 595.328 -380.672 596 -381.5 596C-382.328 596 -383 595.328 -383 594.5C-383 593.672 -382.328 593 -381.5 593C-380.672 593 -380 593.672 -380 594.5Z" fill="#1995FC"/>
<path d="M-296 594.5C-296 595.328 -296.672 596 -297.5 596C-298.328 596 -299 595.328 -299 594.5C-299 593.672 -298.328 593 -297.5 593C-296.672 593 -296 593.672 -296 594.5Z" fill="#1995FC"/>
<path d="M-212 594.5C-212 595.328 -212.672 596 -213.5 596C-214.328 596 -215 595.328 -215 594.5C-215 593.672 -214.328 593 -213.5 593C-212.672 593 -212 593.672 -212 594.5Z" fill="#1995FC"/>
<path d="M-128 594.5C-128 595.328 -128.672 596 -129.5 596C-130.328 596 -131 595.328 -131 594.5C-131 593.672 -130.328 593 -129.5 593C-128.672 593 -128 593.672 -128 594.5Z" fill="#1995FC"/>
<path d="M-44 594.5C-44 595.328 -44.6716 596 -45.5 596C-46.3284 596 -47 595.328 -47 594.5C-47 593.672 -46.3284 593 -45.5 593C-44.6716 593 -44 593.672 -44 594.5Z" fill="#1995FC"/>
<path d="M40 594.5C40 595.328 39.3284 596 38.5 596C37.6716 596 37 595.328 37 594.5C37 593.672 37.6716 593 38.5 593C39.3284 593 40 593.672 40 594.5Z" fill="#1995FC"/>
<path d="M124 594.5C124 595.328 123.328 596 122.5 596C121.672 596 121 595.328 121 594.5C121 593.672 121.672 593 122.5 593C123.328 593 124 593.672 124 594.5Z" fill="#1995FC"/>
<path d="M208 594.5C208 595.328 207.328 596 206.5 596C205.672 596 205 595.328 205 594.5C205 593.672 205.672 593 206.5 593C207.328 593 208 593.672 208 594.5Z" fill="#1995FC"/>
<path d="M292 594.5C292 595.328 291.328 596 290.5 596C289.672 596 289 595.328 289 594.5C289 593.672 289.672 593 290.5 593C291.328 593 292 593.672 292 594.5Z" fill="#1995FC"/>
<path d="M376 594.5C376 595.328 375.328 596 374.5 596C373.672 596 373 595.328 373 594.5C373 593.672 373.672 593 374.5 593C375.328 593 376 593.672 376 594.5Z" fill="#1995FC"/>
<path d="M460 594.5C460 595.328 459.328 596 458.5 596C457.672 596 457 595.328 457 594.5C457 593.672 457.672 593 458.5 593C459.328 593 460 593.672 460 594.5Z" fill="#1995FC"/>
<path d="M544 594.5C544 595.328 543.328 596 542.5 596C541.672 596 541 595.328 541 594.5C541 593.672 541.672 593 542.5 593C543.328 593 544 593.672 544 594.5Z" fill="#1995FC"/>
<path d="M628 594.5C628 595.328 627.328 596 626.5 596C625.672 596 625 595.328 625 594.5C625 593.672 625.672 593 626.5 593C627.328 593 628 593.672 628 594.5Z" fill="#1995FC"/>
<path d="M712 594.5C712 595.328 711.328 596 710.5 596C709.672 596 709 595.328 709 594.5C709 593.672 709.672 593 710.5 593C711.328 593 712 593.672 712 594.5Z" fill="#1995FC"/>
<path d="M796 594.5C796 595.328 795.328 596 794.5 596C793.672 596 793 595.328 793 594.5C793 593.672 793.672 593 794.5 593C795.328 593 796 593.672 796 594.5Z" fill="#1995FC"/>
<path d="M880 594.5C880 595.328 879.328 596 878.5 596C877.672 596 877 595.328 877 594.5C877 593.672 877.672 593 878.5 593C879.328 593 880 593.672 880 594.5Z" fill="#1995FC"/>
<path d="M964 594.5C964 595.328 963.328 596 962.5 596C961.672 596 961 595.328 961 594.5C961 593.672 961.672 593 962.5 593C963.328 593 964 593.672 964 594.5Z" fill="#1995FC"/>
<path d="M-380 678.5C-380 679.328 -380.672 680 -381.5 680C-382.328 680 -383 679.328 -383 678.5C-383 677.672 -382.328 677 -381.5 677C-380.672 677 -380 677.672 -380 678.5Z" fill="#1995FC"/>
<path d="M-296 678.5C-296 679.328 -296.672 680 -297.5 680C-298.328 680 -299 679.328 -299 678.5C-299 677.672 -298.328 677 -297.5 677C-296.672 677 -296 677.672 -296 678.5Z" fill="#1995FC"/>
<path d="M-212 678.5C-212 679.328 -212.672 680 -213.5 680C-214.328 680 -215 679.328 -215 678.5C-215 677.672 -214.328 677 -213.5 677C-212.672 677 -212 677.672 -212 678.5Z" fill="#1995FC"/>
<path d="M-128 678.5C-128 679.328 -128.672 680 -129.5 680C-130.328 680 -131 679.328 -131 678.5C-131 677.672 -130.328 677 -129.5 677C-128.672 677 -128 677.672 -128 678.5Z" fill="#1995FC"/>
<path d="M-44 678.5C-44 679.328 -44.6716 680 -45.5 680C-46.3284 680 -47 679.328 -47 678.5C-47 677.672 -46.3284 677 -45.5 677C-44.6716 677 -44 677.672 -44 678.5Z" fill="#1995FC"/>
<path d="M40 678.5C40 679.328 39.3284 680 38.5 680C37.6716 680 37 679.328 37 678.5C37 677.672 37.6716 677 38.5 677C39.3284 677 40 677.672 40 678.5Z" fill="#1995FC"/>
<path d="M124 678.5C124 679.328 123.328 680 122.5 680C121.672 680 121 679.328 121 678.5C121 677.672 121.672 677 122.5 677C123.328 677 124 677.672 124 678.5Z" fill="#1995FC"/>
<path d="M208 678.5C208 679.328 207.328 680 206.5 680C205.672 680 205 679.328 205 678.5C205 677.672 205.672 677 206.5 677C207.328 677 208 677.672 208 678.5Z" fill="#1995FC"/>
<path d="M292 678.5C292 679.328 291.328 680 290.5 680C289.672 680 289 679.328 289 678.5C289 677.672 289.672 677 290.5 677C291.328 677 292 677.672 292 678.5Z" fill="#1995FC"/>
<path d="M376 678.5C376 679.328 375.328 680 374.5 680C373.672 680 373 679.328 373 678.5C373 677.672 373.672 677 374.5 677C375.328 677 376 677.672 376 678.5Z" fill="#1995FC"/>
<path d="M460 678.5C460 679.328 459.328 680 458.5 680C457.672 680 457 679.328 457 678.5C457 677.672 457.672 677 458.5 677C459.328 677 460 677.672 460 678.5Z" fill="#1995FC"/>
<path d="M544 678.5C544 679.328 543.328 680 542.5 680C541.672 680 541 679.328 541 678.5C541 677.672 541.672 677 542.5 677C543.328 677 544 677.672 544 678.5Z" fill="#1995FC"/>
<path d="M628 678.5C628 679.328 627.328 680 626.5 680C625.672 680 625 679.328 625 678.5C625 677.672 625.672 677 626.5 677C627.328 677 628 677.672 628 678.5Z" fill="#1995FC"/>
<path d="M712 678.5C712 679.328 711.328 680 710.5 680C709.672 680 709 679.328 709 678.5C709 677.672 709.672 677 710.5 677C711.328 677 712 677.672 712 678.5Z" fill="#1995FC"/>
<path d="M796 678.5C796 679.328 795.328 680 794.5 680C793.672 680 793 679.328 793 678.5C793 677.672 793.672 677 794.5 677C795.328 677 796 677.672 796 678.5Z" fill="#1995FC"/>
<path d="M880 678.5C880 679.328 879.328 680 878.5 680C877.672 680 877 679.328 877 678.5C877 677.672 877.672 677 878.5 677C879.328 677 880 677.672 880 678.5Z" fill="#1995FC"/>
<path d="M964 678.5C964 679.328 963.328 680 962.5 680C961.672 680 961 679.328 961 678.5C961 677.672 961.672 677 962.5 677C963.328 677 964 677.672 964 678.5Z" fill="#1995FC"/>
<path d="M-380 762.5C-380 763.328 -380.672 764 -381.5 764C-382.328 764 -383 763.328 -383 762.5C-383 761.672 -382.328 761 -381.5 761C-380.672 761 -380 761.672 -380 762.5Z" fill="#1995FC"/>
<path d="M-296 762.5C-296 763.328 -296.672 764 -297.5 764C-298.328 764 -299 763.328 -299 762.5C-299 761.672 -298.328 761 -297.5 761C-296.672 761 -296 761.672 -296 762.5Z" fill="#1995FC"/>
<path d="M-212 762.5C-212 763.328 -212.672 764 -213.5 764C-214.328 764 -215 763.328 -215 762.5C-215 761.672 -214.328 761 -213.5 761C-212.672 761 -212 761.672 -212 762.5Z" fill="#1995FC"/>
<path d="M-128 762.5C-128 763.328 -128.672 764 -129.5 764C-130.328 764 -131 763.328 -131 762.5C-131 761.672 -130.328 761 -129.5 761C-128.672 761 -128 761.672 -128 762.5Z" fill="#1995FC"/>
<path d="M-44 762.5C-44 763.328 -44.6716 764 -45.5 764C-46.3284 764 -47 763.328 -47 762.5C-47 761.672 -46.3284 761 -45.5 761C-44.6716 761 -44 761.672 -44 762.5Z" fill="#1995FC"/>
<path d="M40 762.5C40 763.328 39.3284 764 38.5 764C37.6716 764 37 763.328 37 762.5C37 761.672 37.6716 761 38.5 761C39.3284 761 40 761.672 40 762.5Z" fill="#1995FC"/>
<path d="M124 762.5C124 763.328 123.328 764 122.5 764C121.672 764 121 763.328 121 762.5C121 761.672 121.672 761 122.5 761C123.328 761 124 761.672 124 762.5Z" fill="#1995FC"/>
<path d="M208 762.5C208 763.328 207.328 764 206.5 764C205.672 764 205 763.328 205 762.5C205 761.672 205.672 761 206.5 761C207.328 761 208 761.672 208 762.5Z" fill="#1995FC"/>
<path d="M292 762.5C292 763.328 291.328 764 290.5 764C289.672 764 289 763.328 289 762.5C289 761.672 289.672 761 290.5 761C291.328 761 292 761.672 292 762.5Z" fill="#1995FC"/>
<path d="M376 762.5C376 763.328 375.328 764 374.5 764C373.672 764 373 763.328 373 762.5C373 761.672 373.672 761 374.5 761C375.328 761 376 761.672 376 762.5Z" fill="#1995FC"/>
<path d="M460 762.5C460 763.328 459.328 764 458.5 764C457.672 764 457 763.328 457 762.5C457 761.672 457.672 761 458.5 761C459.328 761 460 761.672 460 762.5Z" fill="#1995FC"/>
<path d="M544 762.5C544 763.328 543.328 764 542.5 764C541.672 764 541 763.328 541 762.5C541 761.672 541.672 761 542.5 761C543.328 761 544 761.672 544 762.5Z" fill="#1995FC"/>
<path d="M628 762.5C628 763.328 627.328 764 626.5 764C625.672 764 625 763.328 625 762.5C625 761.672 625.672 761 626.5 761C627.328 761 628 761.672 628 762.5Z" fill="#1995FC"/>
<path d="M712 762.5C712 763.328 711.328 764 710.5 764C709.672 764 709 763.328 709 762.5C709 761.672 709.672 761 710.5 761C711.328 761 712 761.672 712 762.5Z" fill="#1995FC"/>
<path d="M796 762.5C796 763.328 795.328 764 794.5 764C793.672 764 793 763.328 793 762.5C793 761.672 793.672 761 794.5 761C795.328 761 796 761.672 796 762.5Z" fill="#1995FC"/>
<path d="M880 762.5C880 763.328 879.328 764 878.5 764C877.672 764 877 763.328 877 762.5C877 761.672 877.672 761 878.5 761C879.328 761 880 761.672 880 762.5Z" fill="#1995FC"/>
<path d="M964 762.5C964 763.328 963.328 764 962.5 764C961.672 764 961 763.328 961 762.5C961 761.672 961.672 761 962.5 761C963.328 761 964 761.672 964 762.5Z" fill="#1995FC"/>
</g>
</svg>
