<svg width="1360" height="759" viewBox="0 0 1360 759" fill="none" xmlns="http://www.w3.org/2000/svg">
<circle cx="8" cy="1.5" r="1.5" fill="#5D5D61" fill-opacity="0.5"/>
<circle cx="92" cy="1.5" r="1.5" fill="#5D5D61" fill-opacity="0.5"/>
<circle cx="176" cy="1.5" r="1.5" fill="#5D5D61" fill-opacity="0.5"/>
<circle cx="260" cy="1.5" r="1.5" fill="#5D5D61" fill-opacity="0.5"/>
<circle cx="344" cy="1.5" r="1.5" fill="#5D5D61" fill-opacity="0.5"/>
<circle cx="428" cy="1.5" r="1.5" fill="#5D5D61" fill-opacity="0.5"/>
<circle cx="512" cy="1.5" r="1.5" fill="#5D5D61" fill-opacity="0.5"/>
<circle cx="596" cy="1.5" r="1.5" fill="#5D5D61" fill-opacity="0.5"/>
<circle cx="680" cy="1.5" r="1.5" fill="#5D5D61" fill-opacity="0.5"/>
<circle cx="764" cy="1.5" r="1.5" fill="#5D5D61" fill-opacity="0.5"/>
<circle cx="848" cy="1.5" r="1.5" fill="#5D5D61" fill-opacity="0.5"/>
<circle cx="932" cy="1.5" r="1.5" fill="#5D5D61" fill-opacity="0.5"/>
<circle cx="1016" cy="1.5" r="1.5" fill="#5D5D61" fill-opacity="0.5"/>
<circle cx="1100" cy="1.5" r="1.5" fill="#5D5D61" fill-opacity="0.5"/>
<circle cx="1184" cy="1.5" r="1.5" fill="#5D5D61" fill-opacity="0.5"/>
<circle cx="1268" cy="1.5" r="1.5" fill="#5D5D61" fill-opacity="0.5"/>
<circle cx="1352" cy="1.5" r="1.5" fill="#5D5D61" fill-opacity="0.5"/>
<circle cx="8" cy="85.5" r="1.5" fill="#5D5D61" fill-opacity="0.5"/>
<circle cx="92" cy="85.5" r="1.5" fill="#5D5D61" fill-opacity="0.5"/>
<circle cx="176" cy="85.5" r="1.5" fill="#5D5D61" fill-opacity="0.5"/>
<circle cx="260" cy="85.5" r="1.5" fill="#5D5D61" fill-opacity="0.5"/>
<circle cx="344" cy="85.5" r="1.5" fill="#5D5D61" fill-opacity="0.5"/>
<circle cx="428" cy="85.5" r="1.5" fill="#5D5D61" fill-opacity="0.5"/>
<circle cx="512" cy="85.5" r="1.5" fill="#5D5D61" fill-opacity="0.5"/>
<circle cx="596" cy="85.5" r="1.5" fill="#5D5D61" fill-opacity="0.5"/>
<circle cx="680" cy="85.5" r="1.5" fill="#5D5D61" fill-opacity="0.5"/>
<circle cx="764" cy="85.5" r="1.5" fill="#5D5D61" fill-opacity="0.5"/>
<circle cx="848" cy="85.5" r="1.5" fill="#5D5D61" fill-opacity="0.5"/>
<circle cx="932" cy="85.5" r="1.5" fill="#5D5D61" fill-opacity="0.5"/>
<circle cx="1016" cy="85.5" r="1.5" fill="#5D5D61" fill-opacity="0.5"/>
<circle cx="1100" cy="85.5" r="1.5" fill="#5D5D61" fill-opacity="0.5"/>
<circle cx="1184" cy="85.5" r="1.5" fill="#5D5D61" fill-opacity="0.5"/>
<circle cx="1268" cy="85.5" r="1.5" fill="#5D5D61" fill-opacity="0.5"/>
<circle cx="1352" cy="85.5" r="1.5" fill="#5D5D61" fill-opacity="0.5"/>
<circle cx="8" cy="169.5" r="1.5" fill="#5D5D61" fill-opacity="0.5"/>
<circle cx="92" cy="169.5" r="1.5" fill="#5D5D61" fill-opacity="0.5"/>
<circle cx="176" cy="169.5" r="1.5" fill="#5D5D61" fill-opacity="0.5"/>
<circle cx="260" cy="169.5" r="1.5" fill="#5D5D61" fill-opacity="0.5"/>
<circle cx="344" cy="169.5" r="1.5" fill="#5D5D61" fill-opacity="0.5"/>
<circle cx="428" cy="169.5" r="1.5" fill="#5D5D61" fill-opacity="0.5"/>
<circle cx="512" cy="169.5" r="1.5" fill="#5D5D61" fill-opacity="0.5"/>
<circle cx="596" cy="169.5" r="1.5" fill="#5D5D61" fill-opacity="0.5"/>
<circle cx="680" cy="169.5" r="1.5" fill="#5D5D61" fill-opacity="0.5"/>
<circle cx="764" cy="169.5" r="1.5" fill="#5D5D61" fill-opacity="0.5"/>
<circle cx="848" cy="169.5" r="1.5" fill="#5D5D61" fill-opacity="0.5"/>
<circle cx="932" cy="169.5" r="1.5" fill="#5D5D61" fill-opacity="0.5"/>
<circle cx="1016" cy="169.5" r="1.5" fill="#5D5D61" fill-opacity="0.5"/>
<circle cx="1100" cy="169.5" r="1.5" fill="#5D5D61" fill-opacity="0.5"/>
<circle cx="1184" cy="169.5" r="1.5" fill="#5D5D61" fill-opacity="0.5"/>
<circle cx="1268" cy="169.5" r="1.5" fill="#5D5D61" fill-opacity="0.5"/>
<circle cx="1352" cy="169.5" r="1.5" fill="#5D5D61" fill-opacity="0.5"/>
<circle cx="8" cy="253.5" r="1.5" fill="#5D5D61" fill-opacity="0.5"/>
<circle cx="92" cy="253.5" r="1.5" fill="#5D5D61" fill-opacity="0.5"/>
<circle cx="176" cy="253.5" r="1.5" fill="#5D5D61" fill-opacity="0.5"/>
<circle cx="260" cy="253.5" r="1.5" fill="#5D5D61" fill-opacity="0.5"/>
<circle cx="344" cy="253.5" r="1.5" fill="#5D5D61" fill-opacity="0.5"/>
<circle cx="428" cy="253.5" r="1.5" fill="#5D5D61" fill-opacity="0.5"/>
<circle cx="512" cy="253.5" r="1.5" fill="#5D5D61" fill-opacity="0.5"/>
<circle cx="596" cy="253.5" r="1.5" fill="#5D5D61" fill-opacity="0.5"/>
<circle cx="680" cy="253.5" r="1.5" fill="#5D5D61" fill-opacity="0.5"/>
<circle cx="764" cy="253.5" r="1.5" fill="#5D5D61" fill-opacity="0.5"/>
<circle cx="848" cy="253.5" r="1.5" fill="#5D5D61" fill-opacity="0.5"/>
<circle cx="932" cy="253.5" r="1.5" fill="#5D5D61" fill-opacity="0.5"/>
<circle cx="1016" cy="253.5" r="1.5" fill="#5D5D61" fill-opacity="0.5"/>
<circle cx="1100" cy="253.5" r="1.5" fill="#5D5D61" fill-opacity="0.5"/>
<circle cx="1184" cy="253.5" r="1.5" fill="#5D5D61" fill-opacity="0.5"/>
<circle cx="1268" cy="253.5" r="1.5" fill="#5D5D61" fill-opacity="0.5"/>
<circle cx="1352" cy="253.5" r="1.5" fill="#5D5D61" fill-opacity="0.5"/>
<circle cx="8" cy="337.5" r="1.5" fill="#5D5D61" fill-opacity="0.5"/>
<circle cx="92" cy="337.5" r="1.5" fill="#5D5D61" fill-opacity="0.5"/>
<circle cx="176" cy="337.5" r="1.5" fill="#5D5D61" fill-opacity="0.5"/>
<circle cx="260" cy="337.5" r="1.5" fill="#5D5D61" fill-opacity="0.5"/>
<circle cx="344" cy="337.5" r="1.5" fill="#5D5D61" fill-opacity="0.5"/>
<circle cx="428" cy="337.5" r="1.5" fill="#5D5D61" fill-opacity="0.5"/>
<circle cx="512" cy="337.5" r="1.5" fill="#5D5D61" fill-opacity="0.5"/>
<circle cx="596" cy="337.5" r="1.5" fill="#5D5D61" fill-opacity="0.5"/>
<circle cx="680" cy="337.5" r="1.5" fill="#5D5D61" fill-opacity="0.5"/>
<circle cx="764" cy="337.5" r="1.5" fill="#5D5D61" fill-opacity="0.5"/>
<circle cx="848" cy="337.5" r="1.5" fill="#5D5D61" fill-opacity="0.5"/>
<circle cx="932" cy="337.5" r="1.5" fill="#5D5D61" fill-opacity="0.5"/>
<circle cx="1016" cy="337.5" r="1.5" fill="#5D5D61" fill-opacity="0.5"/>
<circle cx="1100" cy="337.5" r="1.5" fill="#5D5D61" fill-opacity="0.5"/>
<circle cx="1184" cy="337.5" r="1.5" fill="#5D5D61" fill-opacity="0.5"/>
<circle cx="1268" cy="337.5" r="1.5" fill="#5D5D61" fill-opacity="0.5"/>
<circle cx="1352" cy="337.5" r="1.5" fill="#5D5D61" fill-opacity="0.5"/>
<circle cx="8" cy="421.5" r="1.5" fill="#5D5D61" fill-opacity="0.5"/>
<circle cx="92" cy="421.5" r="1.5" fill="#5D5D61" fill-opacity="0.5"/>
<circle cx="176" cy="421.5" r="1.5" fill="#5D5D61" fill-opacity="0.5"/>
<circle cx="260" cy="421.5" r="1.5" fill="#5D5D61" fill-opacity="0.5"/>
<circle cx="344" cy="421.5" r="1.5" fill="#5D5D61" fill-opacity="0.5"/>
<circle cx="428" cy="421.5" r="1.5" fill="#5D5D61" fill-opacity="0.5"/>
<circle cx="512" cy="421.5" r="1.5" fill="#5D5D61" fill-opacity="0.5"/>
<circle cx="596" cy="421.5" r="1.5" fill="#5D5D61" fill-opacity="0.5"/>
<circle cx="680" cy="421.5" r="1.5" fill="#5D5D61" fill-opacity="0.5"/>
<circle cx="764" cy="421.5" r="1.5" fill="#5D5D61" fill-opacity="0.5"/>
<circle cx="848" cy="421.5" r="1.5" fill="#5D5D61" fill-opacity="0.5"/>
<circle cx="932" cy="421.5" r="1.5" fill="#5D5D61" fill-opacity="0.5"/>
<circle cx="1016" cy="421.5" r="1.5" fill="#5D5D61" fill-opacity="0.5"/>
<circle cx="1100" cy="421.5" r="1.5" fill="#5D5D61" fill-opacity="0.5"/>
<circle cx="1184" cy="421.5" r="1.5" fill="#5D5D61" fill-opacity="0.5"/>
<circle cx="1268" cy="421.5" r="1.5" fill="#5D5D61" fill-opacity="0.5"/>
<circle cx="1352" cy="421.5" r="1.5" fill="#5D5D61" fill-opacity="0.5"/>
<circle cx="8" cy="505.5" r="1.5" fill="#5D5D61" fill-opacity="0.5"/>
<circle cx="92" cy="505.5" r="1.5" fill="#5D5D61" fill-opacity="0.5"/>
<circle cx="176" cy="505.5" r="1.5" fill="#5D5D61" fill-opacity="0.5"/>
<circle cx="260" cy="505.5" r="1.5" fill="#5D5D61" fill-opacity="0.5"/>
<circle cx="344" cy="505.5" r="1.5" fill="#5D5D61" fill-opacity="0.5"/>
<circle cx="428" cy="505.5" r="1.5" fill="#5D5D61" fill-opacity="0.5"/>
<circle cx="512" cy="505.5" r="1.5" fill="#5D5D61" fill-opacity="0.5"/>
<circle cx="596" cy="505.5" r="1.5" fill="#5D5D61" fill-opacity="0.5"/>
<circle cx="680" cy="505.5" r="1.5" fill="#5D5D61" fill-opacity="0.5"/>
<circle cx="764" cy="505.5" r="1.5" fill="#5D5D61" fill-opacity="0.5"/>
<circle cx="848" cy="505.5" r="1.5" fill="#5D5D61" fill-opacity="0.5"/>
<circle cx="932" cy="505.5" r="1.5" fill="#5D5D61" fill-opacity="0.5"/>
<circle cx="1016" cy="505.5" r="1.5" fill="#5D5D61" fill-opacity="0.5"/>
<circle cx="1100" cy="505.5" r="1.5" fill="#5D5D61" fill-opacity="0.5"/>
<circle cx="1184" cy="505.5" r="1.5" fill="#5D5D61" fill-opacity="0.5"/>
<circle cx="1268" cy="505.5" r="1.5" fill="#5D5D61" fill-opacity="0.5"/>
<circle cx="1352" cy="505.5" r="1.5" fill="#5D5D61" fill-opacity="0.5"/>
<circle cx="8" cy="589.5" r="1.5" fill="#5D5D61" fill-opacity="0.5"/>
<circle cx="92" cy="589.5" r="1.5" fill="#5D5D61" fill-opacity="0.5"/>
<circle cx="176" cy="589.5" r="1.5" fill="#5D5D61" fill-opacity="0.5"/>
<circle cx="260" cy="589.5" r="1.5" fill="#5D5D61" fill-opacity="0.5"/>
<circle cx="344" cy="589.5" r="1.5" fill="#5D5D61" fill-opacity="0.5"/>
<circle cx="428" cy="589.5" r="1.5" fill="#5D5D61" fill-opacity="0.5"/>
<circle cx="512" cy="589.5" r="1.5" fill="#5D5D61" fill-opacity="0.5"/>
<circle cx="596" cy="589.5" r="1.5" fill="#5D5D61" fill-opacity="0.5"/>
<circle cx="680" cy="589.5" r="1.5" fill="#5D5D61" fill-opacity="0.5"/>
<circle cx="764" cy="589.5" r="1.5" fill="#5D5D61" fill-opacity="0.5"/>
<circle cx="848" cy="589.5" r="1.5" fill="#5D5D61" fill-opacity="0.5"/>
<circle cx="932" cy="589.5" r="1.5" fill="#5D5D61" fill-opacity="0.5"/>
<circle cx="1016" cy="589.5" r="1.5" fill="#5D5D61" fill-opacity="0.5"/>
<circle cx="1100" cy="589.5" r="1.5" fill="#5D5D61" fill-opacity="0.5"/>
<circle cx="1184" cy="589.5" r="1.5" fill="#5D5D61" fill-opacity="0.5"/>
<circle cx="1268" cy="589.5" r="1.5" fill="#5D5D61" fill-opacity="0.5"/>
<circle cx="1352" cy="589.5" r="1.5" fill="#5D5D61" fill-opacity="0.5"/>
<circle cx="8" cy="673.5" r="1.5" fill="#5D5D61" fill-opacity="0.5"/>
<circle cx="92" cy="673.5" r="1.5" fill="#5D5D61" fill-opacity="0.5"/>
<circle cx="176" cy="673.5" r="1.5" fill="#5D5D61" fill-opacity="0.5"/>
<circle cx="260" cy="673.5" r="1.5" fill="#5D5D61" fill-opacity="0.5"/>
<circle cx="344" cy="673.5" r="1.5" fill="#5D5D61" fill-opacity="0.5"/>
<circle cx="428" cy="673.5" r="1.5" fill="#5D5D61" fill-opacity="0.5"/>
<circle cx="512" cy="673.5" r="1.5" fill="#5D5D61" fill-opacity="0.5"/>
<circle cx="596" cy="673.5" r="1.5" fill="#5D5D61" fill-opacity="0.5"/>
<circle cx="680" cy="673.5" r="1.5" fill="#5D5D61" fill-opacity="0.5"/>
<circle cx="764" cy="673.5" r="1.5" fill="#5D5D61" fill-opacity="0.5"/>
<circle cx="848" cy="673.5" r="1.5" fill="#5D5D61" fill-opacity="0.5"/>
<circle cx="932" cy="673.5" r="1.5" fill="#5D5D61" fill-opacity="0.5"/>
<circle cx="1016" cy="673.5" r="1.5" fill="#5D5D61" fill-opacity="0.5"/>
<circle cx="1100" cy="673.5" r="1.5" fill="#5D5D61" fill-opacity="0.5"/>
<circle cx="1184" cy="673.5" r="1.5" fill="#5D5D61" fill-opacity="0.5"/>
<circle cx="1268" cy="673.5" r="1.5" fill="#5D5D61" fill-opacity="0.5"/>
<circle cx="1352" cy="673.5" r="1.5" fill="#5D5D61" fill-opacity="0.5"/>
<circle cx="8" cy="757.5" r="1.5" fill="#5D5D61" fill-opacity="0.5"/>
<circle cx="92" cy="757.5" r="1.5" fill="#5D5D61" fill-opacity="0.5"/>
<circle cx="176" cy="757.5" r="1.5" fill="#5D5D61" fill-opacity="0.5"/>
<circle cx="260" cy="757.5" r="1.5" fill="#5D5D61" fill-opacity="0.5"/>
<circle cx="344" cy="757.5" r="1.5" fill="#5D5D61" fill-opacity="0.5"/>
<circle cx="428" cy="757.5" r="1.5" fill="#5D5D61" fill-opacity="0.5"/>
<circle cx="512" cy="757.5" r="1.5" fill="#5D5D61" fill-opacity="0.5"/>
<circle cx="596" cy="757.5" r="1.5" fill="#5D5D61" fill-opacity="0.5"/>
<circle cx="680" cy="757.5" r="1.5" fill="#5D5D61" fill-opacity="0.5"/>
<circle cx="764" cy="757.5" r="1.5" fill="#5D5D61" fill-opacity="0.5"/>
<circle cx="848" cy="757.5" r="1.5" fill="#5D5D61" fill-opacity="0.5"/>
<circle cx="932" cy="757.5" r="1.5" fill="#5D5D61" fill-opacity="0.5"/>
<circle cx="1016" cy="757.5" r="1.5" fill="#5D5D61" fill-opacity="0.5"/>
<circle cx="1100" cy="757.5" r="1.5" fill="#5D5D61" fill-opacity="0.5"/>
<circle cx="1184" cy="757.5" r="1.5" fill="#5D5D61" fill-opacity="0.5"/>
<circle cx="1268" cy="757.5" r="1.5" fill="#5D5D61" fill-opacity="0.5"/>
<circle cx="1352" cy="757.5" r="1.5" fill="#5D5D61" fill-opacity="0.5"/>
<mask id="mask0_3031_27940" style="mask-type:alpha" maskUnits="userSpaceOnUse" x="87" y="163" width="748" height="398">
<rect x="87" y="163" width="748" height="398" rx="199" fill="#1995FC"/>
</mask>
<g mask="url(#mask0_3031_27940)">
<path d="M10 1.5C10 2.32843 9.32843 3 8.5 3C7.67157 3 7 2.32843 7 1.5C7 0.671573 7.67157 0 8.5 0C9.32843 0 10 0.671573 10 1.5Z" fill="#1995FC"/>
<path d="M94 1.5C94 2.32843 93.3284 3 92.5 3C91.6716 3 91 2.32843 91 1.5C91 0.671573 91.6716 0 92.5 0C93.3284 0 94 0.671573 94 1.5Z" fill="#1995FC"/>
<path d="M178 1.5C178 2.32843 177.328 3 176.5 3C175.672 3 175 2.32843 175 1.5C175 0.671573 175.672 0 176.5 0C177.328 0 178 0.671573 178 1.5Z" fill="#1995FC"/>
<path d="M262 1.5C262 2.32843 261.328 3 260.5 3C259.672 3 259 2.32843 259 1.5C259 0.671573 259.672 0 260.5 0C261.328 0 262 0.671573 262 1.5Z" fill="#1995FC"/>
<path d="M346 1.5C346 2.32843 345.328 3 344.5 3C343.672 3 343 2.32843 343 1.5C343 0.671573 343.672 0 344.5 0C345.328 0 346 0.671573 346 1.5Z" fill="#1995FC"/>
<path d="M430 1.5C430 2.32843 429.328 3 428.5 3C427.672 3 427 2.32843 427 1.5C427 0.671573 427.672 0 428.5 0C429.328 0 430 0.671573 430 1.5Z" fill="#1995FC"/>
<path d="M514 1.5C514 2.32843 513.328 3 512.5 3C511.672 3 511 2.32843 511 1.5C511 0.671573 511.672 0 512.5 0C513.328 0 514 0.671573 514 1.5Z" fill="#1995FC"/>
<path d="M598 1.5C598 2.32843 597.328 3 596.5 3C595.672 3 595 2.32843 595 1.5C595 0.671573 595.672 0 596.5 0C597.328 0 598 0.671573 598 1.5Z" fill="#1995FC"/>
<path d="M682 1.5C682 2.32843 681.328 3 680.5 3C679.672 3 679 2.32843 679 1.5C679 0.671573 679.672 0 680.5 0C681.328 0 682 0.671573 682 1.5Z" fill="#1995FC"/>
<path d="M766 1.5C766 2.32843 765.328 3 764.5 3C763.672 3 763 2.32843 763 1.5C763 0.671573 763.672 0 764.5 0C765.328 0 766 0.671573 766 1.5Z" fill="#1995FC"/>
<path d="M850 1.5C850 2.32843 849.328 3 848.5 3C847.672 3 847 2.32843 847 1.5C847 0.671573 847.672 0 848.5 0C849.328 0 850 0.671573 850 1.5Z" fill="#1995FC"/>
<path d="M934 1.5C934 2.32843 933.328 3 932.5 3C931.672 3 931 2.32843 931 1.5C931 0.671573 931.672 0 932.5 0C933.328 0 934 0.671573 934 1.5Z" fill="#1995FC"/>
<path d="M1018 1.5C1018 2.32843 1017.33 3 1016.5 3C1015.67 3 1015 2.32843 1015 1.5C1015 0.671573 1015.67 0 1016.5 0C1017.33 0 1018 0.671573 1018 1.5Z" fill="#1995FC"/>
<path d="M1102 1.5C1102 2.32843 1101.33 3 1100.5 3C1099.67 3 1099 2.32843 1099 1.5C1099 0.671573 1099.67 0 1100.5 0C1101.33 0 1102 0.671573 1102 1.5Z" fill="#1995FC"/>
<path d="M1186 1.5C1186 2.32843 1185.33 3 1184.5 3C1183.67 3 1183 2.32843 1183 1.5C1183 0.671573 1183.67 0 1184.5 0C1185.33 0 1186 0.671573 1186 1.5Z" fill="#1995FC"/>
<path d="M1270 1.5C1270 2.32843 1269.33 3 1268.5 3C1267.67 3 1267 2.32843 1267 1.5C1267 0.671573 1267.67 0 1268.5 0C1269.33 0 1270 0.671573 1270 1.5Z" fill="#1995FC"/>
<path d="M1354 1.5C1354 2.32843 1353.33 3 1352.5 3C1351.67 3 1351 2.32843 1351 1.5C1351 0.671573 1351.67 0 1352.5 0C1353.33 0 1354 0.671573 1354 1.5Z" fill="#1995FC"/>
<path d="M10 85.5C10 86.3284 9.32843 87 8.5 87C7.67157 87 7 86.3284 7 85.5C7 84.6716 7.67157 84 8.5 84C9.32843 84 10 84.6716 10 85.5Z" fill="#1995FC"/>
<path d="M94 85.5C94 86.3284 93.3284 87 92.5 87C91.6716 87 91 86.3284 91 85.5C91 84.6716 91.6716 84 92.5 84C93.3284 84 94 84.6716 94 85.5Z" fill="#1995FC"/>
<path d="M178 85.5C178 86.3284 177.328 87 176.5 87C175.672 87 175 86.3284 175 85.5C175 84.6716 175.672 84 176.5 84C177.328 84 178 84.6716 178 85.5Z" fill="#1995FC"/>
<path d="M262 85.5C262 86.3284 261.328 87 260.5 87C259.672 87 259 86.3284 259 85.5C259 84.6716 259.672 84 260.5 84C261.328 84 262 84.6716 262 85.5Z" fill="#1995FC"/>
<path d="M346 85.5C346 86.3284 345.328 87 344.5 87C343.672 87 343 86.3284 343 85.5C343 84.6716 343.672 84 344.5 84C345.328 84 346 84.6716 346 85.5Z" fill="#1995FC"/>
<path d="M430 85.5C430 86.3284 429.328 87 428.5 87C427.672 87 427 86.3284 427 85.5C427 84.6716 427.672 84 428.5 84C429.328 84 430 84.6716 430 85.5Z" fill="#1995FC"/>
<path d="M514 85.5C514 86.3284 513.328 87 512.5 87C511.672 87 511 86.3284 511 85.5C511 84.6716 511.672 84 512.5 84C513.328 84 514 84.6716 514 85.5Z" fill="#1995FC"/>
<path d="M598 85.5C598 86.3284 597.328 87 596.5 87C595.672 87 595 86.3284 595 85.5C595 84.6716 595.672 84 596.5 84C597.328 84 598 84.6716 598 85.5Z" fill="#1995FC"/>
<path d="M682 85.5C682 86.3284 681.328 87 680.5 87C679.672 87 679 86.3284 679 85.5C679 84.6716 679.672 84 680.5 84C681.328 84 682 84.6716 682 85.5Z" fill="#1995FC"/>
<path d="M766 85.5C766 86.3284 765.328 87 764.5 87C763.672 87 763 86.3284 763 85.5C763 84.6716 763.672 84 764.5 84C765.328 84 766 84.6716 766 85.5Z" fill="#1995FC"/>
<path d="M850 85.5C850 86.3284 849.328 87 848.5 87C847.672 87 847 86.3284 847 85.5C847 84.6716 847.672 84 848.5 84C849.328 84 850 84.6716 850 85.5Z" fill="#1995FC"/>
<path d="M934 85.5C934 86.3284 933.328 87 932.5 87C931.672 87 931 86.3284 931 85.5C931 84.6716 931.672 84 932.5 84C933.328 84 934 84.6716 934 85.5Z" fill="#1995FC"/>
<path d="M1018 85.5C1018 86.3284 1017.33 87 1016.5 87C1015.67 87 1015 86.3284 1015 85.5C1015 84.6716 1015.67 84 1016.5 84C1017.33 84 1018 84.6716 1018 85.5Z" fill="#1995FC"/>
<path d="M1102 85.5C1102 86.3284 1101.33 87 1100.5 87C1099.67 87 1099 86.3284 1099 85.5C1099 84.6716 1099.67 84 1100.5 84C1101.33 84 1102 84.6716 1102 85.5Z" fill="#1995FC"/>
<path d="M1186 85.5C1186 86.3284 1185.33 87 1184.5 87C1183.67 87 1183 86.3284 1183 85.5C1183 84.6716 1183.67 84 1184.5 84C1185.33 84 1186 84.6716 1186 85.5Z" fill="#1995FC"/>
<path d="M1270 85.5C1270 86.3284 1269.33 87 1268.5 87C1267.67 87 1267 86.3284 1267 85.5C1267 84.6716 1267.67 84 1268.5 84C1269.33 84 1270 84.6716 1270 85.5Z" fill="#1995FC"/>
<path d="M1354 85.5C1354 86.3284 1353.33 87 1352.5 87C1351.67 87 1351 86.3284 1351 85.5C1351 84.6716 1351.67 84 1352.5 84C1353.33 84 1354 84.6716 1354 85.5Z" fill="#1995FC"/>
<path d="M10 169.5C10 170.328 9.32843 171 8.5 171C7.67157 171 7 170.328 7 169.5C7 168.672 7.67157 168 8.5 168C9.32843 168 10 168.672 10 169.5Z" fill="#1995FC"/>
<path d="M94 169.5C94 170.328 93.3284 171 92.5 171C91.6716 171 91 170.328 91 169.5C91 168.672 91.6716 168 92.5 168C93.3284 168 94 168.672 94 169.5Z" fill="#1995FC"/>
<path d="M178 169.5C178 170.328 177.328 171 176.5 171C175.672 171 175 170.328 175 169.5C175 168.672 175.672 168 176.5 168C177.328 168 178 168.672 178 169.5Z" fill="#1995FC"/>
<path d="M262 169.5C262 170.328 261.328 171 260.5 171C259.672 171 259 170.328 259 169.5C259 168.672 259.672 168 260.5 168C261.328 168 262 168.672 262 169.5Z" fill="#1995FC"/>
<path d="M346 169.5C346 170.328 345.328 171 344.5 171C343.672 171 343 170.328 343 169.5C343 168.672 343.672 168 344.5 168C345.328 168 346 168.672 346 169.5Z" fill="#1995FC"/>
<path d="M430 169.5C430 170.328 429.328 171 428.5 171C427.672 171 427 170.328 427 169.5C427 168.672 427.672 168 428.5 168C429.328 168 430 168.672 430 169.5Z" fill="#1995FC"/>
<path d="M514 169.5C514 170.328 513.328 171 512.5 171C511.672 171 511 170.328 511 169.5C511 168.672 511.672 168 512.5 168C513.328 168 514 168.672 514 169.5Z" fill="#1995FC"/>
<path d="M598 169.5C598 170.328 597.328 171 596.5 171C595.672 171 595 170.328 595 169.5C595 168.672 595.672 168 596.5 168C597.328 168 598 168.672 598 169.5Z" fill="#1995FC"/>
<path d="M682 169.5C682 170.328 681.328 171 680.5 171C679.672 171 679 170.328 679 169.5C679 168.672 679.672 168 680.5 168C681.328 168 682 168.672 682 169.5Z" fill="#1995FC"/>
<path d="M766 169.5C766 170.328 765.328 171 764.5 171C763.672 171 763 170.328 763 169.5C763 168.672 763.672 168 764.5 168C765.328 168 766 168.672 766 169.5Z" fill="#1995FC"/>
<path d="M850 169.5C850 170.328 849.328 171 848.5 171C847.672 171 847 170.328 847 169.5C847 168.672 847.672 168 848.5 168C849.328 168 850 168.672 850 169.5Z" fill="#1995FC"/>
<path d="M934 169.5C934 170.328 933.328 171 932.5 171C931.672 171 931 170.328 931 169.5C931 168.672 931.672 168 932.5 168C933.328 168 934 168.672 934 169.5Z" fill="#1995FC"/>
<path d="M1018 169.5C1018 170.328 1017.33 171 1016.5 171C1015.67 171 1015 170.328 1015 169.5C1015 168.672 1015.67 168 1016.5 168C1017.33 168 1018 168.672 1018 169.5Z" fill="#1995FC"/>
<path d="M1102 169.5C1102 170.328 1101.33 171 1100.5 171C1099.67 171 1099 170.328 1099 169.5C1099 168.672 1099.67 168 1100.5 168C1101.33 168 1102 168.672 1102 169.5Z" fill="#1995FC"/>
<path d="M1186 169.5C1186 170.328 1185.33 171 1184.5 171C1183.67 171 1183 170.328 1183 169.5C1183 168.672 1183.67 168 1184.5 168C1185.33 168 1186 168.672 1186 169.5Z" fill="#1995FC"/>
<path d="M1270 169.5C1270 170.328 1269.33 171 1268.5 171C1267.67 171 1267 170.328 1267 169.5C1267 168.672 1267.67 168 1268.5 168C1269.33 168 1270 168.672 1270 169.5Z" fill="#1995FC"/>
<path d="M1354 169.5C1354 170.328 1353.33 171 1352.5 171C1351.67 171 1351 170.328 1351 169.5C1351 168.672 1351.67 168 1352.5 168C1353.33 168 1354 168.672 1354 169.5Z" fill="#1995FC"/>
<path d="M10 253.5C10 254.328 9.32843 255 8.5 255C7.67157 255 7 254.328 7 253.5C7 252.672 7.67157 252 8.5 252C9.32843 252 10 252.672 10 253.5Z" fill="#1995FC"/>
<path d="M94 253.5C94 254.328 93.3284 255 92.5 255C91.6716 255 91 254.328 91 253.5C91 252.672 91.6716 252 92.5 252C93.3284 252 94 252.672 94 253.5Z" fill="#1995FC"/>
<path d="M178 253.5C178 254.328 177.328 255 176.5 255C175.672 255 175 254.328 175 253.5C175 252.672 175.672 252 176.5 252C177.328 252 178 252.672 178 253.5Z" fill="#1995FC"/>
<path d="M262 253.5C262 254.328 261.328 255 260.5 255C259.672 255 259 254.328 259 253.5C259 252.672 259.672 252 260.5 252C261.328 252 262 252.672 262 253.5Z" fill="#1995FC"/>
<path d="M346 253.5C346 254.328 345.328 255 344.5 255C343.672 255 343 254.328 343 253.5C343 252.672 343.672 252 344.5 252C345.328 252 346 252.672 346 253.5Z" fill="#1995FC"/>
<path d="M430 253.5C430 254.328 429.328 255 428.5 255C427.672 255 427 254.328 427 253.5C427 252.672 427.672 252 428.5 252C429.328 252 430 252.672 430 253.5Z" fill="#1995FC"/>
<path d="M514 253.5C514 254.328 513.328 255 512.5 255C511.672 255 511 254.328 511 253.5C511 252.672 511.672 252 512.5 252C513.328 252 514 252.672 514 253.5Z" fill="#1995FC"/>
<path d="M598 253.5C598 254.328 597.328 255 596.5 255C595.672 255 595 254.328 595 253.5C595 252.672 595.672 252 596.5 252C597.328 252 598 252.672 598 253.5Z" fill="#1995FC"/>
<path d="M682 253.5C682 254.328 681.328 255 680.5 255C679.672 255 679 254.328 679 253.5C679 252.672 679.672 252 680.5 252C681.328 252 682 252.672 682 253.5Z" fill="#1995FC"/>
<path d="M766 253.5C766 254.328 765.328 255 764.5 255C763.672 255 763 254.328 763 253.5C763 252.672 763.672 252 764.5 252C765.328 252 766 252.672 766 253.5Z" fill="#1995FC"/>
<path d="M850 253.5C850 254.328 849.328 255 848.5 255C847.672 255 847 254.328 847 253.5C847 252.672 847.672 252 848.5 252C849.328 252 850 252.672 850 253.5Z" fill="#1995FC"/>
<path d="M934 253.5C934 254.328 933.328 255 932.5 255C931.672 255 931 254.328 931 253.5C931 252.672 931.672 252 932.5 252C933.328 252 934 252.672 934 253.5Z" fill="#1995FC"/>
<path d="M1018 253.5C1018 254.328 1017.33 255 1016.5 255C1015.67 255 1015 254.328 1015 253.5C1015 252.672 1015.67 252 1016.5 252C1017.33 252 1018 252.672 1018 253.5Z" fill="#1995FC"/>
<path d="M1102 253.5C1102 254.328 1101.33 255 1100.5 255C1099.67 255 1099 254.328 1099 253.5C1099 252.672 1099.67 252 1100.5 252C1101.33 252 1102 252.672 1102 253.5Z" fill="#1995FC"/>
<path d="M1186 253.5C1186 254.328 1185.33 255 1184.5 255C1183.67 255 1183 254.328 1183 253.5C1183 252.672 1183.67 252 1184.5 252C1185.33 252 1186 252.672 1186 253.5Z" fill="#1995FC"/>
<path d="M1270 253.5C1270 254.328 1269.33 255 1268.5 255C1267.67 255 1267 254.328 1267 253.5C1267 252.672 1267.67 252 1268.5 252C1269.33 252 1270 252.672 1270 253.5Z" fill="#1995FC"/>
<path d="M1354 253.5C1354 254.328 1353.33 255 1352.5 255C1351.67 255 1351 254.328 1351 253.5C1351 252.672 1351.67 252 1352.5 252C1353.33 252 1354 252.672 1354 253.5Z" fill="#1995FC"/>
<path d="M10 337.5C10 338.328 9.32843 339 8.5 339C7.67157 339 7 338.328 7 337.5C7 336.672 7.67157 336 8.5 336C9.32843 336 10 336.672 10 337.5Z" fill="#1995FC"/>
<path d="M94 337.5C94 338.328 93.3284 339 92.5 339C91.6716 339 91 338.328 91 337.5C91 336.672 91.6716 336 92.5 336C93.3284 336 94 336.672 94 337.5Z" fill="#1995FC"/>
<path d="M178 337.5C178 338.328 177.328 339 176.5 339C175.672 339 175 338.328 175 337.5C175 336.672 175.672 336 176.5 336C177.328 336 178 336.672 178 337.5Z" fill="#1995FC"/>
<path d="M262 337.5C262 338.328 261.328 339 260.5 339C259.672 339 259 338.328 259 337.5C259 336.672 259.672 336 260.5 336C261.328 336 262 336.672 262 337.5Z" fill="#1995FC"/>
<path d="M346 337.5C346 338.328 345.328 339 344.5 339C343.672 339 343 338.328 343 337.5C343 336.672 343.672 336 344.5 336C345.328 336 346 336.672 346 337.5Z" fill="#1995FC"/>
<path d="M430 337.5C430 338.328 429.328 339 428.5 339C427.672 339 427 338.328 427 337.5C427 336.672 427.672 336 428.5 336C429.328 336 430 336.672 430 337.5Z" fill="#1995FC"/>
<path d="M514 337.5C514 338.328 513.328 339 512.5 339C511.672 339 511 338.328 511 337.5C511 336.672 511.672 336 512.5 336C513.328 336 514 336.672 514 337.5Z" fill="#1995FC"/>
<path d="M598 337.5C598 338.328 597.328 339 596.5 339C595.672 339 595 338.328 595 337.5C595 336.672 595.672 336 596.5 336C597.328 336 598 336.672 598 337.5Z" fill="#1995FC"/>
<path d="M682 337.5C682 338.328 681.328 339 680.5 339C679.672 339 679 338.328 679 337.5C679 336.672 679.672 336 680.5 336C681.328 336 682 336.672 682 337.5Z" fill="#1995FC"/>
<path d="M766 337.5C766 338.328 765.328 339 764.5 339C763.672 339 763 338.328 763 337.5C763 336.672 763.672 336 764.5 336C765.328 336 766 336.672 766 337.5Z" fill="#1995FC"/>
<path d="M850 337.5C850 338.328 849.328 339 848.5 339C847.672 339 847 338.328 847 337.5C847 336.672 847.672 336 848.5 336C849.328 336 850 336.672 850 337.5Z" fill="#1995FC"/>
<path d="M934 337.5C934 338.328 933.328 339 932.5 339C931.672 339 931 338.328 931 337.5C931 336.672 931.672 336 932.5 336C933.328 336 934 336.672 934 337.5Z" fill="#1995FC"/>
<path d="M1018 337.5C1018 338.328 1017.33 339 1016.5 339C1015.67 339 1015 338.328 1015 337.5C1015 336.672 1015.67 336 1016.5 336C1017.33 336 1018 336.672 1018 337.5Z" fill="#1995FC"/>
<path d="M1102 337.5C1102 338.328 1101.33 339 1100.5 339C1099.67 339 1099 338.328 1099 337.5C1099 336.672 1099.67 336 1100.5 336C1101.33 336 1102 336.672 1102 337.5Z" fill="#1995FC"/>
<path d="M1186 337.5C1186 338.328 1185.33 339 1184.5 339C1183.67 339 1183 338.328 1183 337.5C1183 336.672 1183.67 336 1184.5 336C1185.33 336 1186 336.672 1186 337.5Z" fill="#1995FC"/>
<path d="M1270 337.5C1270 338.328 1269.33 339 1268.5 339C1267.67 339 1267 338.328 1267 337.5C1267 336.672 1267.67 336 1268.5 336C1269.33 336 1270 336.672 1270 337.5Z" fill="#1995FC"/>
<path d="M1354 337.5C1354 338.328 1353.33 339 1352.5 339C1351.67 339 1351 338.328 1351 337.5C1351 336.672 1351.67 336 1352.5 336C1353.33 336 1354 336.672 1354 337.5Z" fill="#1995FC"/>
<path d="M10 421.5C10 422.328 9.32843 423 8.5 423C7.67157 423 7 422.328 7 421.5C7 420.672 7.67157 420 8.5 420C9.32843 420 10 420.672 10 421.5Z" fill="#1995FC"/>
<path d="M94 421.5C94 422.328 93.3284 423 92.5 423C91.6716 423 91 422.328 91 421.5C91 420.672 91.6716 420 92.5 420C93.3284 420 94 420.672 94 421.5Z" fill="#1995FC"/>
<path d="M178 421.5C178 422.328 177.328 423 176.5 423C175.672 423 175 422.328 175 421.5C175 420.672 175.672 420 176.5 420C177.328 420 178 420.672 178 421.5Z" fill="#1995FC"/>
<path d="M262 421.5C262 422.328 261.328 423 260.5 423C259.672 423 259 422.328 259 421.5C259 420.672 259.672 420 260.5 420C261.328 420 262 420.672 262 421.5Z" fill="#1995FC"/>
<path d="M346 421.5C346 422.328 345.328 423 344.5 423C343.672 423 343 422.328 343 421.5C343 420.672 343.672 420 344.5 420C345.328 420 346 420.672 346 421.5Z" fill="#1995FC"/>
<path d="M430 421.5C430 422.328 429.328 423 428.5 423C427.672 423 427 422.328 427 421.5C427 420.672 427.672 420 428.5 420C429.328 420 430 420.672 430 421.5Z" fill="#1995FC"/>
<path d="M514 421.5C514 422.328 513.328 423 512.5 423C511.672 423 511 422.328 511 421.5C511 420.672 511.672 420 512.5 420C513.328 420 514 420.672 514 421.5Z" fill="#1995FC"/>
<path d="M598 421.5C598 422.328 597.328 423 596.5 423C595.672 423 595 422.328 595 421.5C595 420.672 595.672 420 596.5 420C597.328 420 598 420.672 598 421.5Z" fill="#1995FC"/>
<path d="M682 421.5C682 422.328 681.328 423 680.5 423C679.672 423 679 422.328 679 421.5C679 420.672 679.672 420 680.5 420C681.328 420 682 420.672 682 421.5Z" fill="#1995FC"/>
<path d="M766 421.5C766 422.328 765.328 423 764.5 423C763.672 423 763 422.328 763 421.5C763 420.672 763.672 420 764.5 420C765.328 420 766 420.672 766 421.5Z" fill="#1995FC"/>
<path d="M850 421.5C850 422.328 849.328 423 848.5 423C847.672 423 847 422.328 847 421.5C847 420.672 847.672 420 848.5 420C849.328 420 850 420.672 850 421.5Z" fill="#1995FC"/>
<path d="M934 421.5C934 422.328 933.328 423 932.5 423C931.672 423 931 422.328 931 421.5C931 420.672 931.672 420 932.5 420C933.328 420 934 420.672 934 421.5Z" fill="#1995FC"/>
<path d="M1018 421.5C1018 422.328 1017.33 423 1016.5 423C1015.67 423 1015 422.328 1015 421.5C1015 420.672 1015.67 420 1016.5 420C1017.33 420 1018 420.672 1018 421.5Z" fill="#1995FC"/>
<path d="M1102 421.5C1102 422.328 1101.33 423 1100.5 423C1099.67 423 1099 422.328 1099 421.5C1099 420.672 1099.67 420 1100.5 420C1101.33 420 1102 420.672 1102 421.5Z" fill="#1995FC"/>
<path d="M1186 421.5C1186 422.328 1185.33 423 1184.5 423C1183.67 423 1183 422.328 1183 421.5C1183 420.672 1183.67 420 1184.5 420C1185.33 420 1186 420.672 1186 421.5Z" fill="#1995FC"/>
<path d="M1270 421.5C1270 422.328 1269.33 423 1268.5 423C1267.67 423 1267 422.328 1267 421.5C1267 420.672 1267.67 420 1268.5 420C1269.33 420 1270 420.672 1270 421.5Z" fill="#1995FC"/>
<path d="M1354 421.5C1354 422.328 1353.33 423 1352.5 423C1351.67 423 1351 422.328 1351 421.5C1351 420.672 1351.67 420 1352.5 420C1353.33 420 1354 420.672 1354 421.5Z" fill="#1995FC"/>
<path d="M10 505.5C10 506.328 9.32843 507 8.5 507C7.67157 507 7 506.328 7 505.5C7 504.672 7.67157 504 8.5 504C9.32843 504 10 504.672 10 505.5Z" fill="#1995FC"/>
<path d="M94 505.5C94 506.328 93.3284 507 92.5 507C91.6716 507 91 506.328 91 505.5C91 504.672 91.6716 504 92.5 504C93.3284 504 94 504.672 94 505.5Z" fill="#1995FC"/>
<path d="M178 505.5C178 506.328 177.328 507 176.5 507C175.672 507 175 506.328 175 505.5C175 504.672 175.672 504 176.5 504C177.328 504 178 504.672 178 505.5Z" fill="#1995FC"/>
<path d="M262 505.5C262 506.328 261.328 507 260.5 507C259.672 507 259 506.328 259 505.5C259 504.672 259.672 504 260.5 504C261.328 504 262 504.672 262 505.5Z" fill="#1995FC"/>
<path d="M346 505.5C346 506.328 345.328 507 344.5 507C343.672 507 343 506.328 343 505.5C343 504.672 343.672 504 344.5 504C345.328 504 346 504.672 346 505.5Z" fill="#1995FC"/>
<path d="M430 505.5C430 506.328 429.328 507 428.5 507C427.672 507 427 506.328 427 505.5C427 504.672 427.672 504 428.5 504C429.328 504 430 504.672 430 505.5Z" fill="#1995FC"/>
<path d="M514 505.5C514 506.328 513.328 507 512.5 507C511.672 507 511 506.328 511 505.5C511 504.672 511.672 504 512.5 504C513.328 504 514 504.672 514 505.5Z" fill="#1995FC"/>
<path d="M598 505.5C598 506.328 597.328 507 596.5 507C595.672 507 595 506.328 595 505.5C595 504.672 595.672 504 596.5 504C597.328 504 598 504.672 598 505.5Z" fill="#1995FC"/>
<path d="M682 505.5C682 506.328 681.328 507 680.5 507C679.672 507 679 506.328 679 505.5C679 504.672 679.672 504 680.5 504C681.328 504 682 504.672 682 505.5Z" fill="#1995FC"/>
<path d="M766 505.5C766 506.328 765.328 507 764.5 507C763.672 507 763 506.328 763 505.5C763 504.672 763.672 504 764.5 504C765.328 504 766 504.672 766 505.5Z" fill="#1995FC"/>
<path d="M850 505.5C850 506.328 849.328 507 848.5 507C847.672 507 847 506.328 847 505.5C847 504.672 847.672 504 848.5 504C849.328 504 850 504.672 850 505.5Z" fill="#1995FC"/>
<path d="M934 505.5C934 506.328 933.328 507 932.5 507C931.672 507 931 506.328 931 505.5C931 504.672 931.672 504 932.5 504C933.328 504 934 504.672 934 505.5Z" fill="#1995FC"/>
<path d="M1018 505.5C1018 506.328 1017.33 507 1016.5 507C1015.67 507 1015 506.328 1015 505.5C1015 504.672 1015.67 504 1016.5 504C1017.33 504 1018 504.672 1018 505.5Z" fill="#1995FC"/>
<path d="M1102 505.5C1102 506.328 1101.33 507 1100.5 507C1099.67 507 1099 506.328 1099 505.5C1099 504.672 1099.67 504 1100.5 504C1101.33 504 1102 504.672 1102 505.5Z" fill="#1995FC"/>
<path d="M1186 505.5C1186 506.328 1185.33 507 1184.5 507C1183.67 507 1183 506.328 1183 505.5C1183 504.672 1183.67 504 1184.5 504C1185.33 504 1186 504.672 1186 505.5Z" fill="#1995FC"/>
<path d="M1270 505.5C1270 506.328 1269.33 507 1268.5 507C1267.67 507 1267 506.328 1267 505.5C1267 504.672 1267.67 504 1268.5 504C1269.33 504 1270 504.672 1270 505.5Z" fill="#1995FC"/>
<path d="M1354 505.5C1354 506.328 1353.33 507 1352.5 507C1351.67 507 1351 506.328 1351 505.5C1351 504.672 1351.67 504 1352.5 504C1353.33 504 1354 504.672 1354 505.5Z" fill="#1995FC"/>
<path d="M10 589.5C10 590.328 9.32843 591 8.5 591C7.67157 591 7 590.328 7 589.5C7 588.672 7.67157 588 8.5 588C9.32843 588 10 588.672 10 589.5Z" fill="#1995FC"/>
<path d="M94 589.5C94 590.328 93.3284 591 92.5 591C91.6716 591 91 590.328 91 589.5C91 588.672 91.6716 588 92.5 588C93.3284 588 94 588.672 94 589.5Z" fill="#1995FC"/>
<path d="M178 589.5C178 590.328 177.328 591 176.5 591C175.672 591 175 590.328 175 589.5C175 588.672 175.672 588 176.5 588C177.328 588 178 588.672 178 589.5Z" fill="#1995FC"/>
<path d="M262 589.5C262 590.328 261.328 591 260.5 591C259.672 591 259 590.328 259 589.5C259 588.672 259.672 588 260.5 588C261.328 588 262 588.672 262 589.5Z" fill="#1995FC"/>
<path d="M346 589.5C346 590.328 345.328 591 344.5 591C343.672 591 343 590.328 343 589.5C343 588.672 343.672 588 344.5 588C345.328 588 346 588.672 346 589.5Z" fill="#1995FC"/>
<path d="M430 589.5C430 590.328 429.328 591 428.5 591C427.672 591 427 590.328 427 589.5C427 588.672 427.672 588 428.5 588C429.328 588 430 588.672 430 589.5Z" fill="#1995FC"/>
<path d="M514 589.5C514 590.328 513.328 591 512.5 591C511.672 591 511 590.328 511 589.5C511 588.672 511.672 588 512.5 588C513.328 588 514 588.672 514 589.5Z" fill="#1995FC"/>
<path d="M598 589.5C598 590.328 597.328 591 596.5 591C595.672 591 595 590.328 595 589.5C595 588.672 595.672 588 596.5 588C597.328 588 598 588.672 598 589.5Z" fill="#1995FC"/>
<path d="M682 589.5C682 590.328 681.328 591 680.5 591C679.672 591 679 590.328 679 589.5C679 588.672 679.672 588 680.5 588C681.328 588 682 588.672 682 589.5Z" fill="#1995FC"/>
<path d="M766 589.5C766 590.328 765.328 591 764.5 591C763.672 591 763 590.328 763 589.5C763 588.672 763.672 588 764.5 588C765.328 588 766 588.672 766 589.5Z" fill="#1995FC"/>
<path d="M850 589.5C850 590.328 849.328 591 848.5 591C847.672 591 847 590.328 847 589.5C847 588.672 847.672 588 848.5 588C849.328 588 850 588.672 850 589.5Z" fill="#1995FC"/>
<path d="M934 589.5C934 590.328 933.328 591 932.5 591C931.672 591 931 590.328 931 589.5C931 588.672 931.672 588 932.5 588C933.328 588 934 588.672 934 589.5Z" fill="#1995FC"/>
<path d="M1018 589.5C1018 590.328 1017.33 591 1016.5 591C1015.67 591 1015 590.328 1015 589.5C1015 588.672 1015.67 588 1016.5 588C1017.33 588 1018 588.672 1018 589.5Z" fill="#1995FC"/>
<path d="M1102 589.5C1102 590.328 1101.33 591 1100.5 591C1099.67 591 1099 590.328 1099 589.5C1099 588.672 1099.67 588 1100.5 588C1101.33 588 1102 588.672 1102 589.5Z" fill="#1995FC"/>
<path d="M1186 589.5C1186 590.328 1185.33 591 1184.5 591C1183.67 591 1183 590.328 1183 589.5C1183 588.672 1183.67 588 1184.5 588C1185.33 588 1186 588.672 1186 589.5Z" fill="#1995FC"/>
<path d="M1270 589.5C1270 590.328 1269.33 591 1268.5 591C1267.67 591 1267 590.328 1267 589.5C1267 588.672 1267.67 588 1268.5 588C1269.33 588 1270 588.672 1270 589.5Z" fill="#1995FC"/>
<path d="M1354 589.5C1354 590.328 1353.33 591 1352.5 591C1351.67 591 1351 590.328 1351 589.5C1351 588.672 1351.67 588 1352.5 588C1353.33 588 1354 588.672 1354 589.5Z" fill="#1995FC"/>
<path d="M10 673.5C10 674.328 9.32843 675 8.5 675C7.67157 675 7 674.328 7 673.5C7 672.672 7.67157 672 8.5 672C9.32843 672 10 672.672 10 673.5Z" fill="#1995FC"/>
<path d="M94 673.5C94 674.328 93.3284 675 92.5 675C91.6716 675 91 674.328 91 673.5C91 672.672 91.6716 672 92.5 672C93.3284 672 94 672.672 94 673.5Z" fill="#1995FC"/>
<path d="M178 673.5C178 674.328 177.328 675 176.5 675C175.672 675 175 674.328 175 673.5C175 672.672 175.672 672 176.5 672C177.328 672 178 672.672 178 673.5Z" fill="#1995FC"/>
<path d="M262 673.5C262 674.328 261.328 675 260.5 675C259.672 675 259 674.328 259 673.5C259 672.672 259.672 672 260.5 672C261.328 672 262 672.672 262 673.5Z" fill="#1995FC"/>
<path d="M346 673.5C346 674.328 345.328 675 344.5 675C343.672 675 343 674.328 343 673.5C343 672.672 343.672 672 344.5 672C345.328 672 346 672.672 346 673.5Z" fill="#1995FC"/>
<path d="M430 673.5C430 674.328 429.328 675 428.5 675C427.672 675 427 674.328 427 673.5C427 672.672 427.672 672 428.5 672C429.328 672 430 672.672 430 673.5Z" fill="#1995FC"/>
<path d="M514 673.5C514 674.328 513.328 675 512.5 675C511.672 675 511 674.328 511 673.5C511 672.672 511.672 672 512.5 672C513.328 672 514 672.672 514 673.5Z" fill="#1995FC"/>
<path d="M598 673.5C598 674.328 597.328 675 596.5 675C595.672 675 595 674.328 595 673.5C595 672.672 595.672 672 596.5 672C597.328 672 598 672.672 598 673.5Z" fill="#1995FC"/>
<path d="M682 673.5C682 674.328 681.328 675 680.5 675C679.672 675 679 674.328 679 673.5C679 672.672 679.672 672 680.5 672C681.328 672 682 672.672 682 673.5Z" fill="#1995FC"/>
<path d="M766 673.5C766 674.328 765.328 675 764.5 675C763.672 675 763 674.328 763 673.5C763 672.672 763.672 672 764.5 672C765.328 672 766 672.672 766 673.5Z" fill="#1995FC"/>
<path d="M850 673.5C850 674.328 849.328 675 848.5 675C847.672 675 847 674.328 847 673.5C847 672.672 847.672 672 848.5 672C849.328 672 850 672.672 850 673.5Z" fill="#1995FC"/>
<path d="M934 673.5C934 674.328 933.328 675 932.5 675C931.672 675 931 674.328 931 673.5C931 672.672 931.672 672 932.5 672C933.328 672 934 672.672 934 673.5Z" fill="#1995FC"/>
<path d="M1018 673.5C1018 674.328 1017.33 675 1016.5 675C1015.67 675 1015 674.328 1015 673.5C1015 672.672 1015.67 672 1016.5 672C1017.33 672 1018 672.672 1018 673.5Z" fill="#1995FC"/>
<path d="M1102 673.5C1102 674.328 1101.33 675 1100.5 675C1099.67 675 1099 674.328 1099 673.5C1099 672.672 1099.67 672 1100.5 672C1101.33 672 1102 672.672 1102 673.5Z" fill="#1995FC"/>
<path d="M1186 673.5C1186 674.328 1185.33 675 1184.5 675C1183.67 675 1183 674.328 1183 673.5C1183 672.672 1183.67 672 1184.5 672C1185.33 672 1186 672.672 1186 673.5Z" fill="#1995FC"/>
<path d="M1270 673.5C1270 674.328 1269.33 675 1268.5 675C1267.67 675 1267 674.328 1267 673.5C1267 672.672 1267.67 672 1268.5 672C1269.33 672 1270 672.672 1270 673.5Z" fill="#1995FC"/>
<path d="M1354 673.5C1354 674.328 1353.33 675 1352.5 675C1351.67 675 1351 674.328 1351 673.5C1351 672.672 1351.67 672 1352.5 672C1353.33 672 1354 672.672 1354 673.5Z" fill="#1995FC"/>
<path d="M10 757.5C10 758.328 9.32843 759 8.5 759C7.67157 759 7 758.328 7 757.5C7 756.672 7.67157 756 8.5 756C9.32843 756 10 756.672 10 757.5Z" fill="#1995FC"/>
<path d="M94 757.5C94 758.328 93.3284 759 92.5 759C91.6716 759 91 758.328 91 757.5C91 756.672 91.6716 756 92.5 756C93.3284 756 94 756.672 94 757.5Z" fill="#1995FC"/>
<path d="M178 757.5C178 758.328 177.328 759 176.5 759C175.672 759 175 758.328 175 757.5C175 756.672 175.672 756 176.5 756C177.328 756 178 756.672 178 757.5Z" fill="#1995FC"/>
<path d="M262 757.5C262 758.328 261.328 759 260.5 759C259.672 759 259 758.328 259 757.5C259 756.672 259.672 756 260.5 756C261.328 756 262 756.672 262 757.5Z" fill="#1995FC"/>
<path d="M346 757.5C346 758.328 345.328 759 344.5 759C343.672 759 343 758.328 343 757.5C343 756.672 343.672 756 344.5 756C345.328 756 346 756.672 346 757.5Z" fill="#1995FC"/>
<path d="M430 757.5C430 758.328 429.328 759 428.5 759C427.672 759 427 758.328 427 757.5C427 756.672 427.672 756 428.5 756C429.328 756 430 756.672 430 757.5Z" fill="#1995FC"/>
<path d="M514 757.5C514 758.328 513.328 759 512.5 759C511.672 759 511 758.328 511 757.5C511 756.672 511.672 756 512.5 756C513.328 756 514 756.672 514 757.5Z" fill="#1995FC"/>
<path d="M598 757.5C598 758.328 597.328 759 596.5 759C595.672 759 595 758.328 595 757.5C595 756.672 595.672 756 596.5 756C597.328 756 598 756.672 598 757.5Z" fill="#1995FC"/>
<path d="M682 757.5C682 758.328 681.328 759 680.5 759C679.672 759 679 758.328 679 757.5C679 756.672 679.672 756 680.5 756C681.328 756 682 756.672 682 757.5Z" fill="#1995FC"/>
<path d="M766 757.5C766 758.328 765.328 759 764.5 759C763.672 759 763 758.328 763 757.5C763 756.672 763.672 756 764.5 756C765.328 756 766 756.672 766 757.5Z" fill="#1995FC"/>
<path d="M850 757.5C850 758.328 849.328 759 848.5 759C847.672 759 847 758.328 847 757.5C847 756.672 847.672 756 848.5 756C849.328 756 850 756.672 850 757.5Z" fill="#1995FC"/>
<path d="M934 757.5C934 758.328 933.328 759 932.5 759C931.672 759 931 758.328 931 757.5C931 756.672 931.672 756 932.5 756C933.328 756 934 756.672 934 757.5Z" fill="#1995FC"/>
<path d="M1018 757.5C1018 758.328 1017.33 759 1016.5 759C1015.67 759 1015 758.328 1015 757.5C1015 756.672 1015.67 756 1016.5 756C1017.33 756 1018 756.672 1018 757.5Z" fill="#1995FC"/>
<path d="M1102 757.5C1102 758.328 1101.33 759 1100.5 759C1099.67 759 1099 758.328 1099 757.5C1099 756.672 1099.67 756 1100.5 756C1101.33 756 1102 756.672 1102 757.5Z" fill="#1995FC"/>
<path d="M1186 757.5C1186 758.328 1185.33 759 1184.5 759C1183.67 759 1183 758.328 1183 757.5C1183 756.672 1183.67 756 1184.5 756C1185.33 756 1186 756.672 1186 757.5Z" fill="#1995FC"/>
<path d="M1270 757.5C1270 758.328 1269.33 759 1268.5 759C1267.67 759 1267 758.328 1267 757.5C1267 756.672 1267.67 756 1268.5 756C1269.33 756 1270 756.672 1270 757.5Z" fill="#1995FC"/>
<path d="M1354 757.5C1354 758.328 1353.33 759 1352.5 759C1351.67 759 1351 758.328 1351 757.5C1351 756.672 1351.67 756 1352.5 756C1353.33 756 1354 756.672 1354 757.5Z" fill="#1995FC"/>
</g>
</svg>
