<svg width="48" height="13" viewBox="0 0 48 13" fill="none" xmlns="http://www.w3.org/2000/svg">
<path d="M15.6777 0.03125H10.6178L4.67773 6.03126L10.6178 12.0312H15.6777L9.73539 6.03126L15.6777 0.03125Z" fill="#7C7F7D"/>
<path d="M0.677734 0.78125V12.7812H4.67773V6.78126V0.78125H0.677734Z" fill="#7C7F7D"/>
<path d="M32.6055 0.90625H29.3038L28.6955 1.65941L24.1055 7.32876L19.5154 1.65941L18.9049 0.90625H15.6055V2.40797V12.9062H19.5154V7.2369L24.1055 12.9062L28.6955 7.2369V12.9062H32.6055V2.40797V0.90625Z" fill="#7C7F7D"/>
<path d="M44.8049 9.63465L42.5649 6.96876L44.8049 4.30285L47.6055 0.96875H42.6844H32.6055L35.9391 4.30285H39.8838L37.6438 6.96876L39.8838 9.63465H35.9391L32.6055 12.9688H42.6844H47.6055L44.8049 9.63465Z" fill="#7C7F7D"/>
</svg>
