<svg width="55" height="15" viewBox="0 0 55 15" fill="none" xmlns="http://www.w3.org/2000/svg">
<path d="M17.6621 0.867188H27.3308V3.53857H20.7885V5.95262H26.9402V8.58627H20.7885V11.2199H27.6615L27.6621 13.8672H17.6627L17.6621 0.867188Z" fill="#7C7F7D"/>
<path d="M52.5488 4.46129C52.0592 3.85948 51.0811 3.57692 50.3374 3.57692C49.4765 3.57692 48.2824 3.95331 48.2824 4.95092C48.2824 7.37809 54.6621 5.81642 54.6621 10.4831C54.6621 13.456 52.177 14.8672 49.32 14.8672C47.5393 14.8672 45.9734 14.3592 44.6621 13.1923L46.8343 10.8967C47.4608 11.6872 48.4782 12.1575 49.4955 12.1575C50.4939 12.1575 51.6094 11.7061 51.6094 10.7651C51.6094 8.31908 45.1125 9.63593 45.1125 5.1952C45.1125 2.3539 47.6761 0.867188 50.3963 0.867188C51.9616 0.867188 53.4686 1.26246 54.6425 2.25953L52.5488 4.46129Z" fill="#7C7F7D"/>
<path fill-rule="evenodd" clip-rule="evenodd" d="M36.9984 0.132812C33.8861 0.132812 32.6814 2.55568 32.494 6.13312C32.9425 4.20522 34.6893 2.99433 36.9746 2.99433C39.2231 2.99433 40.9478 4.16623 41.4309 6.03943C41.2604 2.44358 40.1378 0.132812 36.9984 0.132812ZM41.4235 8.26464C40.9302 10.1205 39.2112 11.2805 36.9746 11.2805C34.6785 11.2805 32.9256 10.0593 32.4872 8.11517C32.6486 11.7988 33.8431 14.1328 36.9984 14.1328C40.0557 14.1328 41.2253 11.7771 41.4235 8.26464ZM39.6592 0.338598C41.8738 1.35399 43.2478 3.71025 43.2478 6.86854C43.2478 10.2147 41.9791 12.8921 39.5562 13.9676C42.6208 13.0459 44.4746 10.4509 44.4746 7.13769C44.4746 3.86134 42.6628 1.28684 39.6592 0.338598ZM30.6742 7.45828C30.6742 4.00052 32.0573 1.3085 34.5448 0.26224C31.3895 1.14225 29.4746 3.76928 29.4746 7.13769C29.4746 10.4963 31.3793 13.118 34.5194 14.0055C32.1666 13.0351 30.6742 10.6404 30.6742 7.45828Z" fill="#7C7F7D"/>
<path d="M5.47461 14V13.6457H6.48481V1.37317H5.47461V1H8.10081L14.3634 11.5954V1.37317H12.6663V1H15.4746V1.37317H14.828V14H14.2012L6.94936 1.46646V13.6457H8.58578V14H5.47461Z" fill="#7C7F7D"/>
<path d="M0.474609 14V13.6457H1.37746V1.37057H0.474609V1H3.47461V1.37057H2.56305V13.6457H3.47461V14H0.474609Z" fill="#7C7F7D"/>
</svg>
