<svg width="66" height="53" viewBox="0 0 66 53" fill="none" xmlns="http://www.w3.org/2000/svg">
<path d="M21.4746 22H25.4746V23.3705H23.5718V33H21.4746V22Z" fill="#7C7F7D"/>
<path d="M28.0155 28.8705L28.4088 23.3705H28.5405L28.9337 28.8705H28.0155ZM25.4746 33H27.7211L27.9337 30.0787H29.0155L29.2291 33H31.4746L30.278 22H26.6712L25.4746 33Z" fill="#7C7F7D"/>
<path d="M33.6339 29.15V31.2238C33.6339 31.5033 33.8463 31.5844 33.9702 31.5844C34.1737 31.5844 34.3153 31.4131 34.3153 31.2238V28.6631C34.3153 28.3205 34.2534 27.9418 33.4481 27.9418H32.5719V26.7336H33.4835C34.0941 26.7336 34.3153 26.5893 34.3153 25.9131V23.7311C34.3153 23.5418 34.1737 23.3705 33.9702 23.3705C33.8463 23.3705 33.6339 23.4426 33.6339 23.7311V25.5254H31.4746V23.9656C31.4746 23.1992 31.5631 22 33.0764 22H34.864C36.3773 22 36.4746 23.1992 36.4746 23.9656V25.7238C36.4746 26.9229 35.6516 27.2475 35.0056 27.2205V27.3287C36.4569 27.2926 36.4746 28.4287 36.4746 28.8164V31.0344C36.4746 31.8098 36.3773 33 34.864 33H33.0764C31.5631 33 31.4746 31.8098 31.4746 31.0344V29.15H33.6339Z" fill="#7C7F7D"/>
<path d="M38.4746 22H43.4746V33H41.3153V23.3705H40.6339V33H38.4746V22Z" fill="#7C7F7D"/>
<path d="M46.6339 28.05V23.3705H46.9171C47.1472 23.3705 47.3153 23.5688 47.3153 23.9205V27.5C47.3153 27.8516 47.1472 28.05 46.9171 28.05H46.6339ZM44.4746 33H46.6339V29.2582H47.8728C49.3773 29.2582 49.4746 28.068 49.4746 27.2926V23.9656C49.4746 23.1992 49.3773 22 47.8728 22H44.4746V33Z" fill="#7C7F7D"/>
<path d="M53.3153 31.2238C53.3153 31.4131 53.1737 31.5844 52.9702 31.5844C52.8463 31.5844 52.6339 31.5033 52.6339 31.2238V23.7311C52.6339 23.4426 52.8463 23.3705 52.9702 23.3705C53.1737 23.3705 53.3153 23.5418 53.3153 23.7311V31.2238ZM50.4746 31.0344C50.4746 31.8098 50.572 33 52.0764 33H53.8728C55.3773 33 55.4746 31.8098 55.4746 31.0344V23.9656C55.4746 23.1992 55.3773 22 53.8728 22H52.0764C50.572 22 50.4746 23.1992 50.4746 23.9656V31.0344Z" fill="#7C7F7D"/>
<path d="M62.8023 22H65.4746V33H63.4242V26.1025H63.3486L62.2897 33H60.6511L59.6007 26.1025H59.525V33H57.4746V22H60.1385L61.4746 29.7361L62.8023 22Z" fill="#7C7F7D"/>
<path d="M17.941 7.70915C17.2971 4.77379 15.6834 2.386 15.461 2C15.1093 2.54758 13.8223 4.65709 13.1681 6.99103C12.4535 9.60323 12.3483 11.9192 12.5948 14.1903C12.8397 16.4704 13.7646 18.8133 13.7646 18.8133C14.2559 20.0341 14.9921 21.3537 15.4714 22C16.1739 21.0485 17.7884 18.2119 18.2919 14.5135C18.572 12.4488 18.5841 10.6445 17.941 7.70915ZM15.461 21.2639C15.1447 20.6445 14.6533 19.4686 14.6068 17.6373C14.5947 15.8779 15.2731 14.3609 15.4714 14.0467C15.6481 14.3609 16.2325 15.6804 16.3023 17.4847C16.3497 19.2442 15.7877 20.6355 15.461 21.2639ZM17.754 12.6912C17.7298 13.8133 17.6014 14.9982 17.4376 15.7074C17.4962 14.4865 17.3557 12.772 17.0868 11.4255C16.8178 10.088 16.0567 7.8438 15.4489 6.81149C14.8878 7.79892 14.1965 9.73788 13.8344 11.4165C13.4706 13.0951 13.4603 15.1329 13.4603 15.7433C13.3638 15.2316 13.1224 13.3914 13.1905 11.5512C13.2474 10.0341 13.5887 8.4632 13.7758 7.74506C14.4895 5.3483 15.2972 3.81329 15.4489 3.57091C15.6007 3.81329 16.6178 5.70736 17.1454 7.6912C17.6703 9.67505 17.7764 11.5781 17.754 12.6912Z" fill="#7C7F7D"/>
<path d="M16.7283 22.4957H11.8802V25.7788C11.8845 25.7788 11.8879 25.7702 11.8922 25.7702C13.0344 24.6155 14.8869 24.6155 16.03 25.7702C17.1722 26.9163 17.1722 28.7862 16.03 29.9409C16.0249 29.9495 16.0197 29.9495 16.0146 29.9581C16.0086 29.9581 16.0027 29.9668 15.9975 29.9754C14.8579 31.1128 13.369 31.6816 11.8802 31.6816C10.3845 31.6816 8.88889 31.1128 7.74836 29.9581C5.73707 27.9331 5.4989 24.7878 7.03211 22.4957C7.23871 22.1855 7.47689 21.8925 7.74836 21.6167C8.88889 20.462 10.3845 19.8933 11.8802 19.8933V12C6.13319 12 1.47461 16.6963 1.47461 22.4957C1.47461 28.295 6.13319 33 11.8802 33C14.8767 33 17.576 31.716 19.4746 29.6738V22.4957H16.7283Z" fill="#7C7F7D"/>
</svg>
