<svg width="62" height="13" viewBox="0 0 62 13" fill="none" xmlns="http://www.w3.org/2000/svg">
<path d="M0.662109 0.791016V11.791H11.6621V0.791016H0.662109ZM8.27748 8.40632H4.04589V4.17464H8.27748V8.40632Z" fill="#7C7F7D"/>
<path d="M14.6758 3.79102H18.6758V7.79102H14.6758V3.79102Z" fill="#7C7F7D"/>
<path d="M22.6786 0.791016H28.8112C31.0622 0.791016 32.0905 2.29108 32.0905 3.66205C32.0905 4.64955 31.7106 5.28652 30.6914 5.88009C31.9769 6.35503 32.6758 7.21173 32.6758 8.53332C32.6758 10.1138 31.5276 11.791 28.8193 11.791H22.6758L22.6786 0.791016ZM26.028 9.30772H28.247C29.0383 9.30772 29.3931 8.74257 29.3931 8.24326C29.3931 8.47432 29.4949 7.33185 28.3595 7.33185H26.028V9.30772ZM26.0359 5.12215H27.8193C28.6345 5.12215 28.9594 4.74275 28.9594 4.18637C28.9594 4.05812 28.9196 3.33951 28.0532 3.33951H26.0359V5.12215Z" fill="#7C7F7D"/>
<path d="M35.8521 0.791016H39.5098L43.6758 11.791H39.9215L39.3719 10.1432H35.8673L35.4014 11.7825H31.6758L35.8521 0.791016ZM37.5323 4.05677L36.5667 7.73043H38.6311L37.5323 4.05677Z" fill="#7C7F7D"/>
<path d="M48.9992 4.49754H52.3625C52.3633 2.57522 50.9663 0.791016 47.652 0.791016C44.0164 0.791016 42.8908 2.86884 42.8908 4.38961C42.8908 6.84168 45.7885 7.49368 45.8784 7.52276C46.3113 7.66395 48.1099 8.16287 48.5585 8.32918C48.9477 8.47302 49.32 8.79571 49.32 9.22679C49.32 9.8876 48.5585 10.2068 47.9246 10.2068C47.5175 10.2068 46.1499 10.0671 46.1499 8.56575H42.6758C42.6758 10.5597 44.0003 12.791 47.7168 12.791C51.8177 12.791 52.6758 10.2579 52.6758 8.9107C52.6758 7.81132 52.0745 6.59189 50.6866 6.01125C49.8515 5.66212 48.4677 5.35616 47.7726 5.14602C47.4222 5.03963 46.2549 4.79491 46.2549 4.05721C46.2549 3.11225 47.7592 3.2345 47.5396 3.2345C48.219 3.2345 48.9992 3.63077 48.9992 4.49754Z" fill="#7C7F7D"/>
<path d="M53.6914 0.208984H61.6758V3.11234H56.8819V5.04769H61.1566V7.82195H56.8669V11.209H53.6758L53.6914 0.208984Z" fill="#7C7F7D"/>
</svg>
