<svg width="65" height="11" viewBox="0 0 65 11" fill="none" xmlns="http://www.w3.org/2000/svg">
<path d="M40.1943 0.996094C40.4841 0.996094 40.7746 1.01319 41.0303 1.04785C41.2859 1.0825 41.5246 1.11722 41.7461 1.18652C41.9676 1.23852 42.1553 1.32547 42.3428 1.41211C42.53 1.49865 42.6831 1.60253 42.8193 1.72363C42.9556 1.8449 43.0755 1.98375 43.1777 2.13965C43.28 2.29563 43.3654 2.46952 43.4336 2.66016C43.5017 2.85071 43.5528 3.059 43.5869 3.28418C43.621 3.50937 43.6377 3.75191 43.6377 4.01172C43.6377 4.20235 43.6206 4.3931 43.6035 4.56641C43.5865 4.73967 43.5526 4.9134 43.5186 5.06934C43.4845 5.22517 43.4333 5.38102 43.3652 5.51953C43.2971 5.65815 43.2288 5.79667 43.1436 5.91797C43.0583 6.03929 42.9558 6.14308 42.8535 6.24707C42.7512 6.35105 42.632 6.43849 42.5127 6.50781C42.3936 6.577 42.2572 6.64565 42.1211 6.71484C41.9849 6.76678 41.8314 6.81885 41.6611 6.85352L44.0986 10.9961H41.7803L41.2344 10.0078L40.6895 9.02051L39.5986 7.06152H37.1611V10.9961H35.0986V0.996094H40.1943ZM10.3926 10.9805H0.392578V7.98047H10.3926V10.9805ZM64.4746 1.87305L59.0703 8.32031H64.4746V10.1055H56.4746V8.32031L61.8135 1.87305H56.4746V0.105469H64.4746V1.87305ZM28.625 7.49512L31.7881 0.0429688H34.0986L29.7979 10.043H27.5762L23.0986 0.0429688H25.5508L28.625 7.49512ZM56.0986 10.0117H53.6992L52.7568 7.62402H48.2969L47.3906 10.0117H45.0986V9.99414L49.4346 0.0117188H51.7266L56.0986 10.0117ZM22.0986 0.0214844V1.78613H16.4277V4.06934H22.0986V5.85156H16.4277V8.23926H22.0986V10.0039H14.0986V0.00390625L22.0986 0.0214844ZM10.3926 6.98047H0.392578V3.98047H10.3926V6.98047ZM49.0078 5.8418H52.0645L50.5 2.00098L49.0078 5.8418ZM37.1611 5.29395H39.7002C40.3816 5.29395 40.859 5.19042 41.1318 5C41.4045 4.8094 41.541 4.47976 41.541 4.0293C41.541 3.5615 41.4049 3.24951 41.1494 3.07617C40.9278 2.92019 40.5694 2.81616 40.041 2.79883H37.1611V5.29395ZM10.3926 3.23047H0.392578V0.230469H10.3926V3.23047Z" fill="#7C7F7D"/>
</svg>
