<svg width="30" height="23" viewBox="0 0 30 23" fill="none" xmlns="http://www.w3.org/2000/svg">
<path d="M8.78402 3.61471L8.34461 3.70008C6.78588 3.99979 5.24021 4.42274 3.73976 4.94892C3.73976 5.69409 3.74046 20.787 3.74046 20.787L3.02979 20.5477C2.30076 20.3037 1.39229 19.9722 0.67809 19.6811V20.1097L1.01046 20.2498C1.84722 20.6027 2.88922 20.9878 3.75071 21.2768L4.46137 21.5154C4.46137 21.5154 4.46102 6.31351 4.46102 5.56835C5.96112 5.04216 7.50644 4.61958 9.06553 4.3188L9.50493 4.23413V0.392225C9.50493 0.392225 8.81263 0.480097 8.78402 0.485455V3.61471ZM25.8959 2.18297C24.4774 2.18297 23.1977 2.77703 22.2814 3.72973C20.9562 1.51568 18.5546 0.0350047 15.8084 0.0350047V21.8515C16.6572 21.8222 17.4978 21.7633 18.33 21.6751L18.3297 3.26714C19.8375 4.14912 20.8516 5.79769 20.8516 7.68596V21.3182C21.7039 21.166 22.5446 20.9839 23.3736 20.7724V7.28408C23.3736 5.87556 24.5031 4.73388 25.8959 4.73388V20.0301C26.7514 19.7425 27.592 19.4246 28.4175 19.0756L28.4178 2.86561C27.6754 2.43159 26.8139 2.18297 25.8959 2.18297ZM13.2872 0.0357133C12.4384 0.0650054 11.5974 0.123596 10.7656 0.212187V12.4759C9.37282 12.4759 8.24325 11.3342 8.24325 9.92572C8.24325 9.45955 8.24325 9.92572 8.24325 5.76375C7.38917 5.94164 6.54817 6.15597 5.72164 6.40424L5.722 9.92572C5.722 12.7428 7.97974 15.0261 10.7656 15.0261V16.1228C10.7656 17.5317 9.63597 18.673 8.24325 18.673C8.06134 18.673 7.88402 18.6533 7.71307 18.6165C7.71307 18.6165 6.49236 18.3576 5.72164 18.135V20.7717C6.06002 20.8699 7.08293 21.0892 7.21221 21.1171C7.54494 21.1882 7.89003 21.2239 8.24325 21.2239C11.0287 21.2239 13.2872 18.9395 13.2872 16.1228V0.0357133ZM3.20004 20.0301C2.34526 19.7425 1.50355 19.4246 0.67809 19.0763L0.677734 2.81167C3.07924 1.79788 5.61215 1.03915 8.24325 0.569408V3.16247C6.51143 3.49647 4.82624 3.96514 3.20004 4.5567V20.0301ZM25.3554 5.36581C24.5264 5.6055 23.9143 6.3696 23.9143 7.28408V21.1985L23.5057 21.3021C22.6911 21.5097 21.6795 21.6904 20.8516 21.8398V22.552L21.6661 22.4385C22.5216 22.2863 23.3831 22.1002 24.2259 21.8851L24.6345 21.7808V7.83027C24.6345 7.21085 24.916 6.66073 25.3554 6.29493C25.3554 5.73374 25.3554 5.5212 25.3554 5.36581ZM18.8701 4.35808C18.8701 6.28886 18.8704 22.1677 18.8704 22.1677L18.3865 22.2188C17.5925 22.3023 16.607 22.3599 15.8084 22.3909V23L16.547 22.9807C17.3982 22.9514 18.2601 22.8907 19.1064 22.8014L19.5906 22.751C19.5906 22.751 19.5903 7.68524 19.5903 5.23006C19.3868 4.91249 19.1459 4.61886 18.8701 4.35808ZM29.4082 3.37537C29.2616 3.28964 29.1105 3.21391 28.9579 3.14247V19.4396L28.6252 19.58C27.7926 19.9318 26.8266 20.2569 25.9672 20.5448C25.9672 21.1542 25.9672 21.3696 25.9672 21.3696L26.786 21.131C27.6489 20.8417 28.5097 20.5155 29.3457 20.1626L29.6777 20.0226V3.53327L29.4082 3.37537ZM8.78402 9.92572C8.78402 10.663 9.18209 11.3017 9.77055 11.6479C9.60242 11.3557 9.50493 11.0174 9.50493 10.6541V5.52977L8.85501 5.66515C8.83135 5.6698 8.80733 5.67588 8.78402 5.68123V9.92572ZM13.9897 0.0196445C13.9357 0.0214306 13.8809 0.0246417 13.8276 0.026785V16.1228C13.8276 19.2367 11.3226 21.7701 8.24325 21.7701C7.85188 21.7701 7.46759 21.7297 7.10025 21.6515C6.89291 21.6068 6.1349 21.4511 5.72164 21.3514V21.8826L6.2942 22.0262C6.6287 22.1223 7.54423 22.3374 7.82115 22.3799C11.6267 22.9596 14.5478 19.875 14.5478 16.3468V0L13.9897 0.0196445ZM10.1979 16.4386C10.2138 16.3357 10.2251 16.2303 10.2251 16.1228C10.2251 16.1228 10.2251 15.8334 10.2251 15.5452C8.79285 15.4059 7.5181 14.7164 6.60822 13.6901C7.36127 15.0529 8.65686 16.0692 10.1979 16.4386Z" fill="#7C7F7D"/>
</svg>
