<svg width="300" height="506" viewBox="0 0 300 506" fill="none" xmlns="http://www.w3.org/2000/svg">
<circle cx="3" cy="1" r="1" fill="#5D5D61" fill-opacity="0.5"/>
<circle cx="45" cy="1" r="1" fill="#5D5D61" fill-opacity="0.5"/>
<circle cx="87" cy="1" r="1" fill="#5D5D61" fill-opacity="0.5"/>
<circle cx="129" cy="1" r="1" fill="#5D5D61" fill-opacity="0.5"/>
<circle cx="171" cy="1" r="1" fill="#5D5D61" fill-opacity="0.5"/>
<circle cx="213" cy="1" r="1" fill="#5D5D61" fill-opacity="0.5"/>
<circle cx="255" cy="1" r="1" fill="#5D5D61" fill-opacity="0.5"/>
<circle cx="297" cy="1" r="1" fill="#5D5D61" fill-opacity="0.5"/>
<circle cx="3" cy="43" r="1" fill="#5D5D61" fill-opacity="0.5"/>
<circle cx="45" cy="43" r="1" fill="#5D5D61" fill-opacity="0.5"/>
<circle cx="87" cy="43" r="1" fill="#5D5D61" fill-opacity="0.5"/>
<circle cx="129" cy="43" r="1" fill="#5D5D61" fill-opacity="0.5"/>
<circle cx="171" cy="43" r="1" fill="#5D5D61" fill-opacity="0.5"/>
<circle cx="213" cy="43" r="1" fill="#5D5D61" fill-opacity="0.5"/>
<circle cx="255" cy="43" r="1" fill="#5D5D61" fill-opacity="0.5"/>
<circle cx="297" cy="43" r="1" fill="#5D5D61" fill-opacity="0.5"/>
<circle cx="3" cy="85" r="1" fill="#5D5D61" fill-opacity="0.5"/>
<circle cx="45" cy="85" r="1" fill="#5D5D61" fill-opacity="0.5"/>
<circle cx="87" cy="85" r="1" fill="#5D5D61" fill-opacity="0.5"/>
<circle cx="129" cy="85" r="1" fill="#5D5D61" fill-opacity="0.5"/>
<circle cx="171" cy="85" r="1" fill="#5D5D61" fill-opacity="0.5"/>
<circle cx="213" cy="85" r="1" fill="#5D5D61" fill-opacity="0.5"/>
<circle cx="255" cy="85" r="1" fill="#5D5D61" fill-opacity="0.5"/>
<circle cx="297" cy="85" r="1" fill="#5D5D61" fill-opacity="0.5"/>
<circle cx="3" cy="127" r="1" fill="#5D5D61" fill-opacity="0.5"/>
<circle cx="45" cy="127" r="1" fill="#5D5D61" fill-opacity="0.5"/>
<circle cx="87" cy="127" r="1" fill="#5D5D61" fill-opacity="0.5"/>
<circle cx="129" cy="127" r="1" fill="#5D5D61" fill-opacity="0.5"/>
<circle cx="171" cy="127" r="1" fill="#5D5D61" fill-opacity="0.5"/>
<circle cx="213" cy="127" r="1" fill="#5D5D61" fill-opacity="0.5"/>
<circle cx="255" cy="127" r="1" fill="#5D5D61" fill-opacity="0.5"/>
<circle cx="297" cy="127" r="1" fill="#5D5D61" fill-opacity="0.5"/>
<circle cx="3" cy="169" r="1" fill="#5D5D61" fill-opacity="0.5"/>
<circle cx="45" cy="169" r="1" fill="#5D5D61" fill-opacity="0.5"/>
<circle cx="87" cy="169" r="1" fill="#5D5D61" fill-opacity="0.5"/>
<circle cx="129" cy="169" r="1" fill="#5D5D61" fill-opacity="0.5"/>
<circle cx="171" cy="169" r="1" fill="#5D5D61" fill-opacity="0.5"/>
<circle cx="213" cy="169" r="1" fill="#5D5D61" fill-opacity="0.5"/>
<circle cx="255" cy="169" r="1" fill="#5D5D61" fill-opacity="0.5"/>
<circle cx="297" cy="169" r="1" fill="#5D5D61" fill-opacity="0.5"/>
<circle cx="3" cy="211" r="1" fill="#5D5D61" fill-opacity="0.5"/>
<circle cx="45" cy="211" r="1" fill="#5D5D61" fill-opacity="0.5"/>
<circle cx="87" cy="211" r="1" fill="#5D5D61" fill-opacity="0.5"/>
<circle cx="129" cy="211" r="1" fill="#5D5D61" fill-opacity="0.5"/>
<circle cx="171" cy="211" r="1" fill="#5D5D61" fill-opacity="0.5"/>
<circle cx="213" cy="211" r="1" fill="#5D5D61" fill-opacity="0.5"/>
<circle cx="255" cy="211" r="1" fill="#5D5D61" fill-opacity="0.5"/>
<circle cx="297" cy="211" r="1" fill="#5D5D61" fill-opacity="0.5"/>
<circle cx="3" cy="253" r="1" fill="#5D5D61" fill-opacity="0.5"/>
<circle cx="45" cy="253" r="1" fill="#5D5D61" fill-opacity="0.5"/>
<circle cx="87" cy="253" r="1" fill="#5D5D61" fill-opacity="0.5"/>
<circle cx="129" cy="253" r="1" fill="#5D5D61" fill-opacity="0.5"/>
<circle cx="171" cy="253" r="1" fill="#5D5D61" fill-opacity="0.5"/>
<circle cx="213" cy="253" r="1" fill="#5D5D61" fill-opacity="0.5"/>
<circle cx="255" cy="253" r="1" fill="#5D5D61" fill-opacity="0.5"/>
<circle cx="297" cy="253" r="1" fill="#5D5D61" fill-opacity="0.5"/>
<circle cx="3" cy="295" r="1" fill="#5D5D61" fill-opacity="0.5"/>
<circle cx="45" cy="295" r="1" fill="#5D5D61" fill-opacity="0.5"/>
<circle cx="87" cy="295" r="1" fill="#5D5D61" fill-opacity="0.5"/>
<circle cx="129" cy="295" r="1" fill="#5D5D61" fill-opacity="0.5"/>
<circle cx="171" cy="295" r="1" fill="#5D5D61" fill-opacity="0.5"/>
<circle cx="213" cy="295" r="1" fill="#5D5D61" fill-opacity="0.5"/>
<circle cx="255" cy="295" r="1" fill="#5D5D61" fill-opacity="0.5"/>
<circle cx="297" cy="295" r="1" fill="#5D5D61" fill-opacity="0.5"/>
<circle cx="3" cy="337" r="1" fill="#5D5D61" fill-opacity="0.5"/>
<circle cx="45" cy="337" r="1" fill="#5D5D61" fill-opacity="0.5"/>
<circle cx="87" cy="337" r="1" fill="#5D5D61" fill-opacity="0.5"/>
<circle cx="129" cy="337" r="1" fill="#5D5D61" fill-opacity="0.5"/>
<circle cx="171" cy="337" r="1" fill="#5D5D61" fill-opacity="0.5"/>
<circle cx="213" cy="337" r="1" fill="#5D5D61" fill-opacity="0.5"/>
<circle cx="255" cy="337" r="1" fill="#5D5D61" fill-opacity="0.5"/>
<circle cx="297" cy="337" r="1" fill="#5D5D61" fill-opacity="0.5"/>
<circle cx="3" cy="379" r="1" fill="#5D5D61" fill-opacity="0.5"/>
<circle cx="45" cy="379" r="1" fill="#5D5D61" fill-opacity="0.5"/>
<circle cx="87" cy="379" r="1" fill="#5D5D61" fill-opacity="0.5"/>
<circle cx="129" cy="379" r="1" fill="#5D5D61" fill-opacity="0.5"/>
<circle cx="171" cy="379" r="1" fill="#5D5D61" fill-opacity="0.5"/>
<circle cx="213" cy="379" r="1" fill="#5D5D61" fill-opacity="0.5"/>
<circle cx="255" cy="379" r="1" fill="#5D5D61" fill-opacity="0.5"/>
<circle cx="297" cy="379" r="1" fill="#5D5D61" fill-opacity="0.5"/>
<circle cx="3" cy="421" r="1" fill="#5D5D61" fill-opacity="0.5"/>
<circle cx="45" cy="421" r="1" fill="#5D5D61" fill-opacity="0.5"/>
<circle cx="87" cy="421" r="1" fill="#5D5D61" fill-opacity="0.5"/>
<circle cx="129" cy="421" r="1" fill="#5D5D61" fill-opacity="0.5"/>
<circle cx="171" cy="421" r="1" fill="#5D5D61" fill-opacity="0.5"/>
<circle cx="213" cy="421" r="1" fill="#5D5D61" fill-opacity="0.5"/>
<circle cx="255" cy="421" r="1" fill="#5D5D61" fill-opacity="0.5"/>
<circle cx="297" cy="421" r="1" fill="#5D5D61" fill-opacity="0.5"/>
<circle cx="3" cy="463" r="1" fill="#5D5D61" fill-opacity="0.5"/>
<circle cx="45" cy="463" r="1" fill="#5D5D61" fill-opacity="0.5"/>
<circle cx="87" cy="463" r="1" fill="#5D5D61" fill-opacity="0.5"/>
<circle cx="129" cy="463" r="1" fill="#5D5D61" fill-opacity="0.5"/>
<circle cx="171" cy="463" r="1" fill="#5D5D61" fill-opacity="0.5"/>
<circle cx="213" cy="463" r="1" fill="#5D5D61" fill-opacity="0.5"/>
<circle cx="255" cy="463" r="1" fill="#5D5D61" fill-opacity="0.5"/>
<circle cx="297" cy="463" r="1" fill="#5D5D61" fill-opacity="0.5"/>
<circle cx="129" cy="505" r="1" fill="#5D5D61" fill-opacity="0.5"/>
<circle cx="171" cy="505" r="1" fill="#5D5D61" fill-opacity="0.5"/>
</svg>
