<svg width="768" height="900" viewBox="0 0 768 900" fill="none" xmlns="http://www.w3.org/2000/svg">
<circle cx="49" cy="30.5" r="1.5" fill="#5D5D61" fill-opacity="0.5"/>
<circle cx="133" cy="30.5" r="1.5" fill="#5D5D61" fill-opacity="0.5"/>
<circle cx="217" cy="30.5" r="1.5" fill="#5D5D61" fill-opacity="0.5"/>
<circle cx="301" cy="30.5" r="1.5" fill="#5D5D61" fill-opacity="0.5"/>
<circle cx="385" cy="30.5" r="1.5" fill="#5D5D61" fill-opacity="0.5"/>
<circle cx="469" cy="30.5" r="1.5" fill="#5D5D61" fill-opacity="0.5"/>
<circle cx="553" cy="30.5" r="1.5" fill="#5D5D61" fill-opacity="0.5"/>
<circle cx="637" cy="30.5" r="1.5" fill="#5D5D61" fill-opacity="0.5"/>
<circle cx="721" cy="30.5" r="1.5" fill="#5D5D61" fill-opacity="0.5"/>
<circle cx="49" cy="114.5" r="1.5" fill="#5D5D61" fill-opacity="0.5"/>
<circle cx="133" cy="114.5" r="1.5" fill="#5D5D61" fill-opacity="0.5"/>
<circle cx="217" cy="114.5" r="1.5" fill="#5D5D61" fill-opacity="0.5"/>
<circle cx="301" cy="114.5" r="1.5" fill="#5D5D61" fill-opacity="0.5"/>
<circle cx="385" cy="114.5" r="1.5" fill="#5D5D61" fill-opacity="0.5"/>
<circle cx="469" cy="114.5" r="1.5" fill="#5D5D61" fill-opacity="0.5"/>
<circle cx="553" cy="114.5" r="1.5" fill="#5D5D61" fill-opacity="0.5"/>
<circle cx="637" cy="114.5" r="1.5" fill="#5D5D61" fill-opacity="0.5"/>
<circle cx="721" cy="114.5" r="1.5" fill="#5D5D61" fill-opacity="0.5"/>
<circle cx="49" cy="198.5" r="1.5" fill="#5D5D61" fill-opacity="0.5"/>
<circle cx="133" cy="198.5" r="1.5" fill="#5D5D61" fill-opacity="0.5"/>
<circle cx="217" cy="198.5" r="1.5" fill="#5D5D61" fill-opacity="0.5"/>
<circle cx="301" cy="198.5" r="1.5" fill="#5D5D61" fill-opacity="0.5"/>
<circle cx="385" cy="198.5" r="1.5" fill="#5D5D61" fill-opacity="0.5"/>
<circle cx="469" cy="198.5" r="1.5" fill="#5D5D61" fill-opacity="0.5"/>
<circle cx="553" cy="198.5" r="1.5" fill="#5D5D61" fill-opacity="0.5"/>
<circle cx="637" cy="198.5" r="1.5" fill="#5D5D61" fill-opacity="0.5"/>
<circle cx="721" cy="198.5" r="1.5" fill="#5D5D61" fill-opacity="0.5"/>
<circle cx="49" cy="282.5" r="1.5" fill="#5D5D61" fill-opacity="0.5"/>
<circle cx="133" cy="282.5" r="1.5" fill="#5D5D61" fill-opacity="0.5"/>
<circle cx="217" cy="282.5" r="1.5" fill="#5D5D61" fill-opacity="0.5"/>
<circle cx="301" cy="282.5" r="1.5" fill="#5D5D61" fill-opacity="0.5"/>
<circle cx="385" cy="282.5" r="1.5" fill="#5D5D61" fill-opacity="0.5"/>
<circle cx="469" cy="282.5" r="1.5" fill="#5D5D61" fill-opacity="0.5"/>
<circle cx="553" cy="282.5" r="1.5" fill="#5D5D61" fill-opacity="0.5"/>
<circle cx="637" cy="282.5" r="1.5" fill="#5D5D61" fill-opacity="0.5"/>
<circle cx="721" cy="282.5" r="1.5" fill="#5D5D61" fill-opacity="0.5"/>
<circle cx="49" cy="366.5" r="1.5" fill="#5D5D61" fill-opacity="0.5"/>
<circle cx="133" cy="366.5" r="1.5" fill="#5D5D61" fill-opacity="0.5"/>
<circle cx="217" cy="366.5" r="1.5" fill="#5D5D61" fill-opacity="0.5"/>
<circle cx="301" cy="366.5" r="1.5" fill="#5D5D61" fill-opacity="0.5"/>
<circle cx="385" cy="366.5" r="1.5" fill="#5D5D61" fill-opacity="0.5"/>
<circle cx="469" cy="366.5" r="1.5" fill="#5D5D61" fill-opacity="0.5"/>
<circle cx="553" cy="366.5" r="1.5" fill="#5D5D61" fill-opacity="0.5"/>
<circle cx="637" cy="366.5" r="1.5" fill="#5D5D61" fill-opacity="0.5"/>
<circle cx="721" cy="366.5" r="1.5" fill="#5D5D61" fill-opacity="0.5"/>
<circle cx="49" cy="450.5" r="1.5" fill="#5D5D61" fill-opacity="0.5"/>
<circle cx="133" cy="450.5" r="1.5" fill="#5D5D61" fill-opacity="0.5"/>
<circle cx="217" cy="450.5" r="1.5" fill="#5D5D61" fill-opacity="0.5"/>
<circle cx="301" cy="450.5" r="1.5" fill="#5D5D61" fill-opacity="0.5"/>
<circle cx="385" cy="450.5" r="1.5" fill="#5D5D61" fill-opacity="0.5"/>
<circle cx="469" cy="450.5" r="1.5" fill="#5D5D61" fill-opacity="0.5"/>
<circle cx="553" cy="450.5" r="1.5" fill="#5D5D61" fill-opacity="0.5"/>
<circle cx="637" cy="450.5" r="1.5" fill="#5D5D61" fill-opacity="0.5"/>
<circle cx="721" cy="450.5" r="1.5" fill="#5D5D61" fill-opacity="0.5"/>
<circle cx="49" cy="534.5" r="1.5" fill="#5D5D61" fill-opacity="0.5"/>
<circle cx="133" cy="534.5" r="1.5" fill="#5D5D61" fill-opacity="0.5"/>
<circle cx="217" cy="534.5" r="1.5" fill="#5D5D61" fill-opacity="0.5"/>
<circle cx="301" cy="534.5" r="1.5" fill="#5D5D61" fill-opacity="0.5"/>
<circle cx="385" cy="534.5" r="1.5" fill="#5D5D61" fill-opacity="0.5"/>
<circle cx="469" cy="534.5" r="1.5" fill="#5D5D61" fill-opacity="0.5"/>
<circle cx="553" cy="534.5" r="1.5" fill="#5D5D61" fill-opacity="0.5"/>
<circle cx="637" cy="534.5" r="1.5" fill="#5D5D61" fill-opacity="0.5"/>
<circle cx="721" cy="534.5" r="1.5" fill="#5D5D61" fill-opacity="0.5"/>
<circle cx="49" cy="618.5" r="1.5" fill="#5D5D61" fill-opacity="0.5"/>
<circle cx="133" cy="618.5" r="1.5" fill="#5D5D61" fill-opacity="0.5"/>
<circle cx="217" cy="618.5" r="1.5" fill="#5D5D61" fill-opacity="0.5"/>
<circle cx="301" cy="618.5" r="1.5" fill="#5D5D61" fill-opacity="0.5"/>
<circle cx="385" cy="618.5" r="1.5" fill="#5D5D61" fill-opacity="0.5"/>
<circle cx="469" cy="618.5" r="1.5" fill="#5D5D61" fill-opacity="0.5"/>
<circle cx="553" cy="618.5" r="1.5" fill="#5D5D61" fill-opacity="0.5"/>
<circle cx="637" cy="618.5" r="1.5" fill="#5D5D61" fill-opacity="0.5"/>
<circle cx="721" cy="618.5" r="1.5" fill="#5D5D61" fill-opacity="0.5"/>
<circle cx="49" cy="702.5" r="1.5" fill="#5D5D61" fill-opacity="0.5"/>
<circle cx="133" cy="702.5" r="1.5" fill="#5D5D61" fill-opacity="0.5"/>
<circle cx="217" cy="702.5" r="1.5" fill="#5D5D61" fill-opacity="0.5"/>
<circle cx="301" cy="702.5" r="1.5" fill="#5D5D61" fill-opacity="0.5"/>
<circle cx="385" cy="702.5" r="1.5" fill="#5D5D61" fill-opacity="0.5"/>
<circle cx="469" cy="702.5" r="1.5" fill="#5D5D61" fill-opacity="0.5"/>
<circle cx="553" cy="702.5" r="1.5" fill="#5D5D61" fill-opacity="0.5"/>
<circle cx="637" cy="702.5" r="1.5" fill="#5D5D61" fill-opacity="0.5"/>
<circle cx="721" cy="702.5" r="1.5" fill="#5D5D61" fill-opacity="0.5"/>
<circle cx="49" cy="786.5" r="1.5" fill="#5D5D61" fill-opacity="0.5"/>
<circle cx="133" cy="786.5" r="1.5" fill="#5D5D61" fill-opacity="0.5"/>
<circle cx="217" cy="786.5" r="1.5" fill="#5D5D61" fill-opacity="0.5"/>
<circle cx="301" cy="786.5" r="1.5" fill="#5D5D61" fill-opacity="0.5"/>
<circle cx="385" cy="786.5" r="1.5" fill="#5D5D61" fill-opacity="0.5"/>
<circle cx="469" cy="786.5" r="1.5" fill="#5D5D61" fill-opacity="0.5"/>
<circle cx="553" cy="786.5" r="1.5" fill="#5D5D61" fill-opacity="0.5"/>
<circle cx="637" cy="786.5" r="1.5" fill="#5D5D61" fill-opacity="0.5"/>
<circle cx="721" cy="786.5" r="1.5" fill="#5D5D61" fill-opacity="0.5"/>
<circle cx="91" cy="870.5" r="1.5" fill="#5D5D61" fill-opacity="0.5"/>
<circle cx="175" cy="870.5" r="1.5" fill="#5D5D61" fill-opacity="0.5"/>
<circle cx="259" cy="870.5" r="1.5" fill="#5D5D61" fill-opacity="0.5"/>
<circle cx="343" cy="870.5" r="1.5" fill="#5D5D61" fill-opacity="0.5"/>
<circle cx="427" cy="870.5" r="1.5" fill="#5D5D61" fill-opacity="0.5"/>
<circle cx="511" cy="870.5" r="1.5" fill="#5D5D61" fill-opacity="0.5"/>
<circle cx="595" cy="870.5" r="1.5" fill="#5D5D61" fill-opacity="0.5"/>
<circle cx="679" cy="870.5" r="1.5" fill="#5D5D61" fill-opacity="0.5"/>
<g filter="url(#filter0_f_1259_23525)">
<rect x="-68" y="-69" width="905" height="1038" rx="79" stroke="#1C1D1E" stroke-width="410"/>
</g>
<defs>
<filter id="filter0_f_1259_23525" x="-423" y="-424" width="1615" height="1748" filterUnits="userSpaceOnUse" color-interpolation-filters="sRGB">
<feFlood flood-opacity="0" result="BackgroundImageFix"/>
<feBlend mode="normal" in="SourceGraphic" in2="BackgroundImageFix" result="shape"/>
<feGaussianBlur stdDeviation="75" result="effect1_foregroundBlur_1259_23525"/>
</filter>
</defs>
</svg>
