<svg width="768" height="900" viewBox="0 0 768 900" fill="none" xmlns="http://www.w3.org/2000/svg">
<circle cx="49" cy="30.5" r="1.5" fill="#5D5D61" fill-opacity="0.5"/>
<circle cx="133" cy="30.5" r="1.5" fill="#5D5D61" fill-opacity="0.5"/>
<circle cx="217" cy="30.5" r="1.5" fill="#5D5D61" fill-opacity="0.5"/>
<circle cx="301" cy="30.5" r="1.5" fill="#5D5D61" fill-opacity="0.5"/>
<circle cx="385" cy="30.5" r="1.5" fill="#5D5D61" fill-opacity="0.5"/>
<circle cx="469" cy="30.5" r="1.5" fill="#5D5D61" fill-opacity="0.5"/>
<circle cx="553" cy="30.5" r="1.5" fill="#5D5D61" fill-opacity="0.5"/>
<circle cx="637" cy="30.5" r="1.5" fill="#5D5D61" fill-opacity="0.5"/>
<circle cx="721" cy="30.5" r="1.5" fill="#5D5D61" fill-opacity="0.5"/>
<circle cx="49" cy="114.5" r="1.5" fill="#5D5D61" fill-opacity="0.5"/>
<circle cx="133" cy="114.5" r="1.5" fill="#5D5D61" fill-opacity="0.5"/>
<circle cx="217" cy="114.5" r="1.5" fill="#5D5D61" fill-opacity="0.5"/>
<circle cx="301" cy="114.5" r="1.5" fill="#5D5D61" fill-opacity="0.5"/>
<circle cx="385" cy="114.5" r="1.5" fill="#5D5D61" fill-opacity="0.5"/>
<circle cx="469" cy="114.5" r="1.5" fill="#5D5D61" fill-opacity="0.5"/>
<circle cx="553" cy="114.5" r="1.5" fill="#5D5D61" fill-opacity="0.5"/>
<circle cx="637" cy="114.5" r="1.5" fill="#5D5D61" fill-opacity="0.5"/>
<circle cx="721" cy="114.5" r="1.5" fill="#5D5D61" fill-opacity="0.5"/>
<circle cx="49" cy="198.5" r="1.5" fill="#5D5D61" fill-opacity="0.5"/>
<circle cx="133" cy="198.5" r="1.5" fill="#5D5D61" fill-opacity="0.5"/>
<circle cx="217" cy="198.5" r="1.5" fill="#5D5D61" fill-opacity="0.5"/>
<circle cx="301" cy="198.5" r="1.5" fill="#5D5D61" fill-opacity="0.5"/>
<circle cx="385" cy="198.5" r="1.5" fill="#5D5D61" fill-opacity="0.5"/>
<circle cx="469" cy="198.5" r="1.5" fill="#5D5D61" fill-opacity="0.5"/>
<circle cx="553" cy="198.5" r="1.5" fill="#5D5D61" fill-opacity="0.5"/>
<circle cx="637" cy="198.5" r="1.5" fill="#5D5D61" fill-opacity="0.5"/>
<circle cx="721" cy="198.5" r="1.5" fill="#5D5D61" fill-opacity="0.5"/>
<circle cx="49" cy="282.5" r="1.5" fill="#5D5D61" fill-opacity="0.5"/>
<circle cx="133" cy="282.5" r="1.5" fill="#5D5D61" fill-opacity="0.5"/>
<circle cx="217" cy="282.5" r="1.5" fill="#5D5D61" fill-opacity="0.5"/>
<circle cx="301" cy="282.5" r="1.5" fill="#5D5D61" fill-opacity="0.5"/>
<circle cx="385" cy="282.5" r="1.5" fill="#5D5D61" fill-opacity="0.5"/>
<circle cx="469" cy="282.5" r="1.5" fill="#5D5D61" fill-opacity="0.5"/>
<circle cx="553" cy="282.5" r="1.5" fill="#5D5D61" fill-opacity="0.5"/>
<circle cx="637" cy="282.5" r="1.5" fill="#5D5D61" fill-opacity="0.5"/>
<circle cx="721" cy="282.5" r="1.5" fill="#5D5D61" fill-opacity="0.5"/>
<circle cx="49" cy="366.5" r="1.5" fill="#5D5D61" fill-opacity="0.5"/>
<circle cx="133" cy="366.5" r="1.5" fill="#5D5D61" fill-opacity="0.5"/>
<circle cx="217" cy="366.5" r="1.5" fill="#5D5D61" fill-opacity="0.5"/>
<circle cx="301" cy="366.5" r="1.5" fill="#5D5D61" fill-opacity="0.5"/>
<circle cx="385" cy="366.5" r="1.5" fill="#5D5D61" fill-opacity="0.5"/>
<circle cx="469" cy="366.5" r="1.5" fill="#5D5D61" fill-opacity="0.5"/>
<circle cx="553" cy="366.5" r="1.5" fill="#5D5D61" fill-opacity="0.5"/>
<circle cx="637" cy="366.5" r="1.5" fill="#5D5D61" fill-opacity="0.5"/>
<circle cx="721" cy="366.5" r="1.5" fill="#5D5D61" fill-opacity="0.5"/>
<circle cx="49" cy="450.5" r="1.5" fill="#5D5D61" fill-opacity="0.5"/>
<circle cx="133" cy="450.5" r="1.5" fill="#5D5D61" fill-opacity="0.5"/>
<circle cx="217" cy="450.5" r="1.5" fill="#5D5D61" fill-opacity="0.5"/>
<circle cx="301" cy="450.5" r="1.5" fill="#5D5D61" fill-opacity="0.5"/>
<circle cx="385" cy="450.5" r="1.5" fill="#5D5D61" fill-opacity="0.5"/>
<circle cx="469" cy="450.5" r="1.5" fill="#5D5D61" fill-opacity="0.5"/>
<circle cx="553" cy="450.5" r="1.5" fill="#5D5D61" fill-opacity="0.5"/>
<circle cx="637" cy="450.5" r="1.5" fill="#5D5D61" fill-opacity="0.5"/>
<circle cx="721" cy="450.5" r="1.5" fill="#5D5D61" fill-opacity="0.5"/>
<circle cx="49" cy="534.5" r="1.5" fill="#5D5D61" fill-opacity="0.5"/>
<circle cx="133" cy="534.5" r="1.5" fill="#5D5D61" fill-opacity="0.5"/>
<circle cx="217" cy="534.5" r="1.5" fill="#5D5D61" fill-opacity="0.5"/>
<circle cx="301" cy="534.5" r="1.5" fill="#5D5D61" fill-opacity="0.5"/>
<circle cx="385" cy="534.5" r="1.5" fill="#5D5D61" fill-opacity="0.5"/>
<circle cx="469" cy="534.5" r="1.5" fill="#5D5D61" fill-opacity="0.5"/>
<circle cx="553" cy="534.5" r="1.5" fill="#5D5D61" fill-opacity="0.5"/>
<circle cx="637" cy="534.5" r="1.5" fill="#5D5D61" fill-opacity="0.5"/>
<circle cx="721" cy="534.5" r="1.5" fill="#5D5D61" fill-opacity="0.5"/>
<circle cx="49" cy="618.5" r="1.5" fill="#5D5D61" fill-opacity="0.5"/>
<circle cx="133" cy="618.5" r="1.5" fill="#5D5D61" fill-opacity="0.5"/>
<circle cx="217" cy="618.5" r="1.5" fill="#5D5D61" fill-opacity="0.5"/>
<circle cx="301" cy="618.5" r="1.5" fill="#5D5D61" fill-opacity="0.5"/>
<circle cx="385" cy="618.5" r="1.5" fill="#5D5D61" fill-opacity="0.5"/>
<circle cx="469" cy="618.5" r="1.5" fill="#5D5D61" fill-opacity="0.5"/>
<circle cx="553" cy="618.5" r="1.5" fill="#5D5D61" fill-opacity="0.5"/>
<circle cx="637" cy="618.5" r="1.5" fill="#5D5D61" fill-opacity="0.5"/>
<circle cx="721" cy="618.5" r="1.5" fill="#5D5D61" fill-opacity="0.5"/>
<circle cx="49" cy="702.5" r="1.5" fill="#5D5D61" fill-opacity="0.5"/>
<circle cx="133" cy="702.5" r="1.5" fill="#5D5D61" fill-opacity="0.5"/>
<circle cx="217" cy="702.5" r="1.5" fill="#5D5D61" fill-opacity="0.5"/>
<circle cx="301" cy="702.5" r="1.5" fill="#5D5D61" fill-opacity="0.5"/>
<circle cx="385" cy="702.5" r="1.5" fill="#5D5D61" fill-opacity="0.5"/>
<circle cx="469" cy="702.5" r="1.5" fill="#5D5D61" fill-opacity="0.5"/>
<circle cx="553" cy="702.5" r="1.5" fill="#5D5D61" fill-opacity="0.5"/>
<circle cx="637" cy="702.5" r="1.5" fill="#5D5D61" fill-opacity="0.5"/>
<circle cx="721" cy="702.5" r="1.5" fill="#5D5D61" fill-opacity="0.5"/>
<circle cx="49" cy="786.5" r="1.5" fill="#5D5D61" fill-opacity="0.5"/>
<circle cx="133" cy="786.5" r="1.5" fill="#5D5D61" fill-opacity="0.5"/>
<circle cx="217" cy="786.5" r="1.5" fill="#5D5D61" fill-opacity="0.5"/>
<circle cx="301" cy="786.5" r="1.5" fill="#5D5D61" fill-opacity="0.5"/>
<circle cx="385" cy="786.5" r="1.5" fill="#5D5D61" fill-opacity="0.5"/>
<circle cx="469" cy="786.5" r="1.5" fill="#5D5D61" fill-opacity="0.5"/>
<circle cx="553" cy="786.5" r="1.5" fill="#5D5D61" fill-opacity="0.5"/>
<circle cx="637" cy="786.5" r="1.5" fill="#5D5D61" fill-opacity="0.5"/>
<circle cx="721" cy="786.5" r="1.5" fill="#5D5D61" fill-opacity="0.5"/>
<circle cx="91" cy="870.5" r="1.5" fill="#5D5D61" fill-opacity="0.5"/>
<circle cx="175" cy="870.5" r="1.5" fill="#5D5D61" fill-opacity="0.5"/>
<circle cx="259" cy="870.5" r="1.5" fill="#5D5D61" fill-opacity="0.5"/>
<circle cx="343" cy="870.5" r="1.5" fill="#5D5D61" fill-opacity="0.5"/>
<circle cx="427" cy="870.5" r="1.5" fill="#5D5D61" fill-opacity="0.5"/>
<circle cx="511" cy="870.5" r="1.5" fill="#5D5D61" fill-opacity="0.5"/>
<circle cx="595" cy="870.5" r="1.5" fill="#5D5D61" fill-opacity="0.5"/>
<circle cx="679" cy="870.5" r="1.5" fill="#5D5D61" fill-opacity="0.5"/>
<g filter="url(#filter0_f_3001_29238)">
<rect x="-68" y="-69" width="905" height="1038" rx="79" stroke="#1C1D1E" stroke-width="410"/>
</g>
<mask id="mask0_3001_29238" style="mask-type:alpha" maskUnits="userSpaceOnUse" x="63" y="24" width="691" height="772">
<rect x="63" y="24" width="691" height="772" rx="266" fill="#1995FC"/>
</mask>
<g mask="url(#mask0_3001_29238)">
<path d="M-285 30.5C-285 31.3284 -285.672 32 -286.5 32C-287.328 32 -288 31.3284 -288 30.5C-288 29.6716 -287.328 29 -286.5 29C-285.672 29 -285 29.6716 -285 30.5Z" fill="#1995FC"/>
<path d="M-201 30.5C-201 31.3284 -201.672 32 -202.5 32C-203.328 32 -204 31.3284 -204 30.5C-204 29.6716 -203.328 29 -202.5 29C-201.672 29 -201 29.6716 -201 30.5Z" fill="#1995FC"/>
<path d="M-117 30.5C-117 31.3284 -117.672 32 -118.5 32C-119.328 32 -120 31.3284 -120 30.5C-120 29.6716 -119.328 29 -118.5 29C-117.672 29 -117 29.6716 -117 30.5Z" fill="#1995FC"/>
<path d="M-33 30.5C-33 31.3284 -33.6716 32 -34.5 32C-35.3284 32 -36 31.3284 -36 30.5C-36 29.6716 -35.3284 29 -34.5 29C-33.6716 29 -33 29.6716 -33 30.5Z" fill="#1995FC"/>
<path d="M51 30.5C51 31.3284 50.3284 32 49.5 32C48.6716 32 48 31.3284 48 30.5C48 29.6716 48.6716 29 49.5 29C50.3284 29 51 29.6716 51 30.5Z" fill="#1995FC"/>
<path d="M135 30.5C135 31.3284 134.328 32 133.5 32C132.672 32 132 31.3284 132 30.5C132 29.6716 132.672 29 133.5 29C134.328 29 135 29.6716 135 30.5Z" fill="#1995FC"/>
<path d="M219 30.5C219 31.3284 218.328 32 217.5 32C216.672 32 216 31.3284 216 30.5C216 29.6716 216.672 29 217.5 29C218.328 29 219 29.6716 219 30.5Z" fill="#1995FC"/>
<path d="M303 30.5C303 31.3284 302.328 32 301.5 32C300.672 32 300 31.3284 300 30.5C300 29.6716 300.672 29 301.5 29C302.328 29 303 29.6716 303 30.5Z" fill="#1995FC"/>
<path d="M387 30.5C387 31.3284 386.328 32 385.5 32C384.672 32 384 31.3284 384 30.5C384 29.6716 384.672 29 385.5 29C386.328 29 387 29.6716 387 30.5Z" fill="#1995FC"/>
<path d="M471 30.5C471 31.3284 470.328 32 469.5 32C468.672 32 468 31.3284 468 30.5C468 29.6716 468.672 29 469.5 29C470.328 29 471 29.6716 471 30.5Z" fill="#1995FC"/>
<path d="M555 30.5C555 31.3284 554.328 32 553.5 32C552.672 32 552 31.3284 552 30.5C552 29.6716 552.672 29 553.5 29C554.328 29 555 29.6716 555 30.5Z" fill="#1995FC"/>
<path d="M639 30.5C639 31.3284 638.328 32 637.5 32C636.672 32 636 31.3284 636 30.5C636 29.6716 636.672 29 637.5 29C638.328 29 639 29.6716 639 30.5Z" fill="#1995FC"/>
<path d="M723 30.5C723 31.3284 722.328 32 721.5 32C720.672 32 720 31.3284 720 30.5C720 29.6716 720.672 29 721.5 29C722.328 29 723 29.6716 723 30.5Z" fill="#1995FC"/>
<path d="M807 30.5C807 31.3284 806.328 32 805.5 32C804.672 32 804 31.3284 804 30.5C804 29.6716 804.672 29 805.5 29C806.328 29 807 29.6716 807 30.5Z" fill="#1995FC"/>
<path d="M891 30.5C891 31.3284 890.328 32 889.5 32C888.672 32 888 31.3284 888 30.5C888 29.6716 888.672 29 889.5 29C890.328 29 891 29.6716 891 30.5Z" fill="#1995FC"/>
<path d="M975 30.5C975 31.3284 974.328 32 973.5 32C972.672 32 972 31.3284 972 30.5C972 29.6716 972.672 29 973.5 29C974.328 29 975 29.6716 975 30.5Z" fill="#1995FC"/>
<path d="M1059 30.5C1059 31.3284 1058.33 32 1057.5 32C1056.67 32 1056 31.3284 1056 30.5C1056 29.6716 1056.67 29 1057.5 29C1058.33 29 1059 29.6716 1059 30.5Z" fill="#1995FC"/>
<path d="M-285 114.5C-285 115.328 -285.672 116 -286.5 116C-287.328 116 -288 115.328 -288 114.5C-288 113.672 -287.328 113 -286.5 113C-285.672 113 -285 113.672 -285 114.5Z" fill="#1995FC"/>
<path d="M-201 114.5C-201 115.328 -201.672 116 -202.5 116C-203.328 116 -204 115.328 -204 114.5C-204 113.672 -203.328 113 -202.5 113C-201.672 113 -201 113.672 -201 114.5Z" fill="#1995FC"/>
<path d="M-117 114.5C-117 115.328 -117.672 116 -118.5 116C-119.328 116 -120 115.328 -120 114.5C-120 113.672 -119.328 113 -118.5 113C-117.672 113 -117 113.672 -117 114.5Z" fill="#1995FC"/>
<path d="M-33 114.5C-33 115.328 -33.6716 116 -34.5 116C-35.3284 116 -36 115.328 -36 114.5C-36 113.672 -35.3284 113 -34.5 113C-33.6716 113 -33 113.672 -33 114.5Z" fill="#1995FC"/>
<path d="M51 114.5C51 115.328 50.3284 116 49.5 116C48.6716 116 48 115.328 48 114.5C48 113.672 48.6716 113 49.5 113C50.3284 113 51 113.672 51 114.5Z" fill="#1995FC"/>
<path d="M135 114.5C135 115.328 134.328 116 133.5 116C132.672 116 132 115.328 132 114.5C132 113.672 132.672 113 133.5 113C134.328 113 135 113.672 135 114.5Z" fill="#1995FC"/>
<path d="M219 114.5C219 115.328 218.328 116 217.5 116C216.672 116 216 115.328 216 114.5C216 113.672 216.672 113 217.5 113C218.328 113 219 113.672 219 114.5Z" fill="#1995FC"/>
<path d="M303 114.5C303 115.328 302.328 116 301.5 116C300.672 116 300 115.328 300 114.5C300 113.672 300.672 113 301.5 113C302.328 113 303 113.672 303 114.5Z" fill="#1995FC"/>
<path d="M387 114.5C387 115.328 386.328 116 385.5 116C384.672 116 384 115.328 384 114.5C384 113.672 384.672 113 385.5 113C386.328 113 387 113.672 387 114.5Z" fill="#1995FC"/>
<path d="M471 114.5C471 115.328 470.328 116 469.5 116C468.672 116 468 115.328 468 114.5C468 113.672 468.672 113 469.5 113C470.328 113 471 113.672 471 114.5Z" fill="#1995FC"/>
<path d="M555 114.5C555 115.328 554.328 116 553.5 116C552.672 116 552 115.328 552 114.5C552 113.672 552.672 113 553.5 113C554.328 113 555 113.672 555 114.5Z" fill="#1995FC"/>
<path d="M639 114.5C639 115.328 638.328 116 637.5 116C636.672 116 636 115.328 636 114.5C636 113.672 636.672 113 637.5 113C638.328 113 639 113.672 639 114.5Z" fill="#1995FC"/>
<path d="M723 114.5C723 115.328 722.328 116 721.5 116C720.672 116 720 115.328 720 114.5C720 113.672 720.672 113 721.5 113C722.328 113 723 113.672 723 114.5Z" fill="#1995FC"/>
<path d="M807 114.5C807 115.328 806.328 116 805.5 116C804.672 116 804 115.328 804 114.5C804 113.672 804.672 113 805.5 113C806.328 113 807 113.672 807 114.5Z" fill="#1995FC"/>
<path d="M891 114.5C891 115.328 890.328 116 889.5 116C888.672 116 888 115.328 888 114.5C888 113.672 888.672 113 889.5 113C890.328 113 891 113.672 891 114.5Z" fill="#1995FC"/>
<path d="M975 114.5C975 115.328 974.328 116 973.5 116C972.672 116 972 115.328 972 114.5C972 113.672 972.672 113 973.5 113C974.328 113 975 113.672 975 114.5Z" fill="#1995FC"/>
<path d="M1059 114.5C1059 115.328 1058.33 116 1057.5 116C1056.67 116 1056 115.328 1056 114.5C1056 113.672 1056.67 113 1057.5 113C1058.33 113 1059 113.672 1059 114.5Z" fill="#1995FC"/>
<path d="M-285 198.5C-285 199.328 -285.672 200 -286.5 200C-287.328 200 -288 199.328 -288 198.5C-288 197.672 -287.328 197 -286.5 197C-285.672 197 -285 197.672 -285 198.5Z" fill="#1995FC"/>
<path d="M-201 198.5C-201 199.328 -201.672 200 -202.5 200C-203.328 200 -204 199.328 -204 198.5C-204 197.672 -203.328 197 -202.5 197C-201.672 197 -201 197.672 -201 198.5Z" fill="#1995FC"/>
<path d="M-117 198.5C-117 199.328 -117.672 200 -118.5 200C-119.328 200 -120 199.328 -120 198.5C-120 197.672 -119.328 197 -118.5 197C-117.672 197 -117 197.672 -117 198.5Z" fill="#1995FC"/>
<path d="M-33 198.5C-33 199.328 -33.6716 200 -34.5 200C-35.3284 200 -36 199.328 -36 198.5C-36 197.672 -35.3284 197 -34.5 197C-33.6716 197 -33 197.672 -33 198.5Z" fill="#1995FC"/>
<path d="M51 198.5C51 199.328 50.3284 200 49.5 200C48.6716 200 48 199.328 48 198.5C48 197.672 48.6716 197 49.5 197C50.3284 197 51 197.672 51 198.5Z" fill="#1995FC"/>
<path d="M135 198.5C135 199.328 134.328 200 133.5 200C132.672 200 132 199.328 132 198.5C132 197.672 132.672 197 133.5 197C134.328 197 135 197.672 135 198.5Z" fill="#1995FC"/>
<path d="M219 198.5C219 199.328 218.328 200 217.5 200C216.672 200 216 199.328 216 198.5C216 197.672 216.672 197 217.5 197C218.328 197 219 197.672 219 198.5Z" fill="#1995FC"/>
<path d="M303 198.5C303 199.328 302.328 200 301.5 200C300.672 200 300 199.328 300 198.5C300 197.672 300.672 197 301.5 197C302.328 197 303 197.672 303 198.5Z" fill="#1995FC"/>
<path d="M387 198.5C387 199.328 386.328 200 385.5 200C384.672 200 384 199.328 384 198.5C384 197.672 384.672 197 385.5 197C386.328 197 387 197.672 387 198.5Z" fill="#1995FC"/>
<path d="M471 198.5C471 199.328 470.328 200 469.5 200C468.672 200 468 199.328 468 198.5C468 197.672 468.672 197 469.5 197C470.328 197 471 197.672 471 198.5Z" fill="#1995FC"/>
<path d="M555 198.5C555 199.328 554.328 200 553.5 200C552.672 200 552 199.328 552 198.5C552 197.672 552.672 197 553.5 197C554.328 197 555 197.672 555 198.5Z" fill="#1995FC"/>
<path d="M639 198.5C639 199.328 638.328 200 637.5 200C636.672 200 636 199.328 636 198.5C636 197.672 636.672 197 637.5 197C638.328 197 639 197.672 639 198.5Z" fill="#1995FC"/>
<path d="M723 198.5C723 199.328 722.328 200 721.5 200C720.672 200 720 199.328 720 198.5C720 197.672 720.672 197 721.5 197C722.328 197 723 197.672 723 198.5Z" fill="#1995FC"/>
<path d="M807 198.5C807 199.328 806.328 200 805.5 200C804.672 200 804 199.328 804 198.5C804 197.672 804.672 197 805.5 197C806.328 197 807 197.672 807 198.5Z" fill="#1995FC"/>
<path d="M891 198.5C891 199.328 890.328 200 889.5 200C888.672 200 888 199.328 888 198.5C888 197.672 888.672 197 889.5 197C890.328 197 891 197.672 891 198.5Z" fill="#1995FC"/>
<path d="M975 198.5C975 199.328 974.328 200 973.5 200C972.672 200 972 199.328 972 198.5C972 197.672 972.672 197 973.5 197C974.328 197 975 197.672 975 198.5Z" fill="#1995FC"/>
<path d="M1059 198.5C1059 199.328 1058.33 200 1057.5 200C1056.67 200 1056 199.328 1056 198.5C1056 197.672 1056.67 197 1057.5 197C1058.33 197 1059 197.672 1059 198.5Z" fill="#1995FC"/>
<path d="M-285 282.5C-285 283.328 -285.672 284 -286.5 284C-287.328 284 -288 283.328 -288 282.5C-288 281.672 -287.328 281 -286.5 281C-285.672 281 -285 281.672 -285 282.5Z" fill="#1995FC"/>
<path d="M-201 282.5C-201 283.328 -201.672 284 -202.5 284C-203.328 284 -204 283.328 -204 282.5C-204 281.672 -203.328 281 -202.5 281C-201.672 281 -201 281.672 -201 282.5Z" fill="#1995FC"/>
<path d="M-117 282.5C-117 283.328 -117.672 284 -118.5 284C-119.328 284 -120 283.328 -120 282.5C-120 281.672 -119.328 281 -118.5 281C-117.672 281 -117 281.672 -117 282.5Z" fill="#1995FC"/>
<path d="M-33 282.5C-33 283.328 -33.6716 284 -34.5 284C-35.3284 284 -36 283.328 -36 282.5C-36 281.672 -35.3284 281 -34.5 281C-33.6716 281 -33 281.672 -33 282.5Z" fill="#1995FC"/>
<path d="M51 282.5C51 283.328 50.3284 284 49.5 284C48.6716 284 48 283.328 48 282.5C48 281.672 48.6716 281 49.5 281C50.3284 281 51 281.672 51 282.5Z" fill="#1995FC"/>
<path d="M135 282.5C135 283.328 134.328 284 133.5 284C132.672 284 132 283.328 132 282.5C132 281.672 132.672 281 133.5 281C134.328 281 135 281.672 135 282.5Z" fill="#1995FC"/>
<path d="M219 282.5C219 283.328 218.328 284 217.5 284C216.672 284 216 283.328 216 282.5C216 281.672 216.672 281 217.5 281C218.328 281 219 281.672 219 282.5Z" fill="#1995FC"/>
<path d="M303 282.5C303 283.328 302.328 284 301.5 284C300.672 284 300 283.328 300 282.5C300 281.672 300.672 281 301.5 281C302.328 281 303 281.672 303 282.5Z" fill="#1995FC"/>
<path d="M387 282.5C387 283.328 386.328 284 385.5 284C384.672 284 384 283.328 384 282.5C384 281.672 384.672 281 385.5 281C386.328 281 387 281.672 387 282.5Z" fill="#1995FC"/>
<path d="M471 282.5C471 283.328 470.328 284 469.5 284C468.672 284 468 283.328 468 282.5C468 281.672 468.672 281 469.5 281C470.328 281 471 281.672 471 282.5Z" fill="#1995FC"/>
<path d="M555 282.5C555 283.328 554.328 284 553.5 284C552.672 284 552 283.328 552 282.5C552 281.672 552.672 281 553.5 281C554.328 281 555 281.672 555 282.5Z" fill="#1995FC"/>
<path d="M639 282.5C639 283.328 638.328 284 637.5 284C636.672 284 636 283.328 636 282.5C636 281.672 636.672 281 637.5 281C638.328 281 639 281.672 639 282.5Z" fill="#1995FC"/>
<path d="M723 282.5C723 283.328 722.328 284 721.5 284C720.672 284 720 283.328 720 282.5C720 281.672 720.672 281 721.5 281C722.328 281 723 281.672 723 282.5Z" fill="#1995FC"/>
<path d="M807 282.5C807 283.328 806.328 284 805.5 284C804.672 284 804 283.328 804 282.5C804 281.672 804.672 281 805.5 281C806.328 281 807 281.672 807 282.5Z" fill="#1995FC"/>
<path d="M891 282.5C891 283.328 890.328 284 889.5 284C888.672 284 888 283.328 888 282.5C888 281.672 888.672 281 889.5 281C890.328 281 891 281.672 891 282.5Z" fill="#1995FC"/>
<path d="M975 282.5C975 283.328 974.328 284 973.5 284C972.672 284 972 283.328 972 282.5C972 281.672 972.672 281 973.5 281C974.328 281 975 281.672 975 282.5Z" fill="#1995FC"/>
<path d="M1059 282.5C1059 283.328 1058.33 284 1057.5 284C1056.67 284 1056 283.328 1056 282.5C1056 281.672 1056.67 281 1057.5 281C1058.33 281 1059 281.672 1059 282.5Z" fill="#1995FC"/>
<path d="M-285 366.5C-285 367.328 -285.672 368 -286.5 368C-287.328 368 -288 367.328 -288 366.5C-288 365.672 -287.328 365 -286.5 365C-285.672 365 -285 365.672 -285 366.5Z" fill="#1995FC"/>
<path d="M-201 366.5C-201 367.328 -201.672 368 -202.5 368C-203.328 368 -204 367.328 -204 366.5C-204 365.672 -203.328 365 -202.5 365C-201.672 365 -201 365.672 -201 366.5Z" fill="#1995FC"/>
<path d="M-117 366.5C-117 367.328 -117.672 368 -118.5 368C-119.328 368 -120 367.328 -120 366.5C-120 365.672 -119.328 365 -118.5 365C-117.672 365 -117 365.672 -117 366.5Z" fill="#1995FC"/>
<path d="M-33 366.5C-33 367.328 -33.6716 368 -34.5 368C-35.3284 368 -36 367.328 -36 366.5C-36 365.672 -35.3284 365 -34.5 365C-33.6716 365 -33 365.672 -33 366.5Z" fill="#1995FC"/>
<path d="M51 366.5C51 367.328 50.3284 368 49.5 368C48.6716 368 48 367.328 48 366.5C48 365.672 48.6716 365 49.5 365C50.3284 365 51 365.672 51 366.5Z" fill="#1995FC"/>
<path d="M135 366.5C135 367.328 134.328 368 133.5 368C132.672 368 132 367.328 132 366.5C132 365.672 132.672 365 133.5 365C134.328 365 135 365.672 135 366.5Z" fill="#1995FC"/>
<path d="M219 366.5C219 367.328 218.328 368 217.5 368C216.672 368 216 367.328 216 366.5C216 365.672 216.672 365 217.5 365C218.328 365 219 365.672 219 366.5Z" fill="#1995FC"/>
<path d="M303 366.5C303 367.328 302.328 368 301.5 368C300.672 368 300 367.328 300 366.5C300 365.672 300.672 365 301.5 365C302.328 365 303 365.672 303 366.5Z" fill="#1995FC"/>
<path d="M387 366.5C387 367.328 386.328 368 385.5 368C384.672 368 384 367.328 384 366.5C384 365.672 384.672 365 385.5 365C386.328 365 387 365.672 387 366.5Z" fill="#1995FC"/>
<path d="M471 366.5C471 367.328 470.328 368 469.5 368C468.672 368 468 367.328 468 366.5C468 365.672 468.672 365 469.5 365C470.328 365 471 365.672 471 366.5Z" fill="#1995FC"/>
<path d="M555 366.5C555 367.328 554.328 368 553.5 368C552.672 368 552 367.328 552 366.5C552 365.672 552.672 365 553.5 365C554.328 365 555 365.672 555 366.5Z" fill="#1995FC"/>
<path d="M639 366.5C639 367.328 638.328 368 637.5 368C636.672 368 636 367.328 636 366.5C636 365.672 636.672 365 637.5 365C638.328 365 639 365.672 639 366.5Z" fill="#1995FC"/>
<path d="M723 366.5C723 367.328 722.328 368 721.5 368C720.672 368 720 367.328 720 366.5C720 365.672 720.672 365 721.5 365C722.328 365 723 365.672 723 366.5Z" fill="#1995FC"/>
<path d="M807 366.5C807 367.328 806.328 368 805.5 368C804.672 368 804 367.328 804 366.5C804 365.672 804.672 365 805.5 365C806.328 365 807 365.672 807 366.5Z" fill="#1995FC"/>
<path d="M891 366.5C891 367.328 890.328 368 889.5 368C888.672 368 888 367.328 888 366.5C888 365.672 888.672 365 889.5 365C890.328 365 891 365.672 891 366.5Z" fill="#1995FC"/>
<path d="M975 366.5C975 367.328 974.328 368 973.5 368C972.672 368 972 367.328 972 366.5C972 365.672 972.672 365 973.5 365C974.328 365 975 365.672 975 366.5Z" fill="#1995FC"/>
<path d="M1059 366.5C1059 367.328 1058.33 368 1057.5 368C1056.67 368 1056 367.328 1056 366.5C1056 365.672 1056.67 365 1057.5 365C1058.33 365 1059 365.672 1059 366.5Z" fill="#1995FC"/>
<path d="M-285 450.5C-285 451.328 -285.672 452 -286.5 452C-287.328 452 -288 451.328 -288 450.5C-288 449.672 -287.328 449 -286.5 449C-285.672 449 -285 449.672 -285 450.5Z" fill="#1995FC"/>
<path d="M-201 450.5C-201 451.328 -201.672 452 -202.5 452C-203.328 452 -204 451.328 -204 450.5C-204 449.672 -203.328 449 -202.5 449C-201.672 449 -201 449.672 -201 450.5Z" fill="#1995FC"/>
<path d="M-117 450.5C-117 451.328 -117.672 452 -118.5 452C-119.328 452 -120 451.328 -120 450.5C-120 449.672 -119.328 449 -118.5 449C-117.672 449 -117 449.672 -117 450.5Z" fill="#1995FC"/>
<path d="M-33 450.5C-33 451.328 -33.6716 452 -34.5 452C-35.3284 452 -36 451.328 -36 450.5C-36 449.672 -35.3284 449 -34.5 449C-33.6716 449 -33 449.672 -33 450.5Z" fill="#1995FC"/>
<path d="M51 450.5C51 451.328 50.3284 452 49.5 452C48.6716 452 48 451.328 48 450.5C48 449.672 48.6716 449 49.5 449C50.3284 449 51 449.672 51 450.5Z" fill="#1995FC"/>
<path d="M135 450.5C135 451.328 134.328 452 133.5 452C132.672 452 132 451.328 132 450.5C132 449.672 132.672 449 133.5 449C134.328 449 135 449.672 135 450.5Z" fill="#1995FC"/>
<path d="M219 450.5C219 451.328 218.328 452 217.5 452C216.672 452 216 451.328 216 450.5C216 449.672 216.672 449 217.5 449C218.328 449 219 449.672 219 450.5Z" fill="#1995FC"/>
<path d="M303 450.5C303 451.328 302.328 452 301.5 452C300.672 452 300 451.328 300 450.5C300 449.672 300.672 449 301.5 449C302.328 449 303 449.672 303 450.5Z" fill="#1995FC"/>
<path d="M387 450.5C387 451.328 386.328 452 385.5 452C384.672 452 384 451.328 384 450.5C384 449.672 384.672 449 385.5 449C386.328 449 387 449.672 387 450.5Z" fill="#1995FC"/>
<path d="M471 450.5C471 451.328 470.328 452 469.5 452C468.672 452 468 451.328 468 450.5C468 449.672 468.672 449 469.5 449C470.328 449 471 449.672 471 450.5Z" fill="#1995FC"/>
<path d="M555 450.5C555 451.328 554.328 452 553.5 452C552.672 452 552 451.328 552 450.5C552 449.672 552.672 449 553.5 449C554.328 449 555 449.672 555 450.5Z" fill="#1995FC"/>
<path d="M639 450.5C639 451.328 638.328 452 637.5 452C636.672 452 636 451.328 636 450.5C636 449.672 636.672 449 637.5 449C638.328 449 639 449.672 639 450.5Z" fill="#1995FC"/>
<path d="M723 450.5C723 451.328 722.328 452 721.5 452C720.672 452 720 451.328 720 450.5C720 449.672 720.672 449 721.5 449C722.328 449 723 449.672 723 450.5Z" fill="#1995FC"/>
<path d="M807 450.5C807 451.328 806.328 452 805.5 452C804.672 452 804 451.328 804 450.5C804 449.672 804.672 449 805.5 449C806.328 449 807 449.672 807 450.5Z" fill="#1995FC"/>
<path d="M891 450.5C891 451.328 890.328 452 889.5 452C888.672 452 888 451.328 888 450.5C888 449.672 888.672 449 889.5 449C890.328 449 891 449.672 891 450.5Z" fill="#1995FC"/>
<path d="M975 450.5C975 451.328 974.328 452 973.5 452C972.672 452 972 451.328 972 450.5C972 449.672 972.672 449 973.5 449C974.328 449 975 449.672 975 450.5Z" fill="#1995FC"/>
<path d="M1059 450.5C1059 451.328 1058.33 452 1057.5 452C1056.67 452 1056 451.328 1056 450.5C1056 449.672 1056.67 449 1057.5 449C1058.33 449 1059 449.672 1059 450.5Z" fill="#1995FC"/>
<path d="M-285 534.5C-285 535.328 -285.672 536 -286.5 536C-287.328 536 -288 535.328 -288 534.5C-288 533.672 -287.328 533 -286.5 533C-285.672 533 -285 533.672 -285 534.5Z" fill="#1995FC"/>
<path d="M-201 534.5C-201 535.328 -201.672 536 -202.5 536C-203.328 536 -204 535.328 -204 534.5C-204 533.672 -203.328 533 -202.5 533C-201.672 533 -201 533.672 -201 534.5Z" fill="#1995FC"/>
<path d="M-117 534.5C-117 535.328 -117.672 536 -118.5 536C-119.328 536 -120 535.328 -120 534.5C-120 533.672 -119.328 533 -118.5 533C-117.672 533 -117 533.672 -117 534.5Z" fill="#1995FC"/>
<path d="M-33 534.5C-33 535.328 -33.6716 536 -34.5 536C-35.3284 536 -36 535.328 -36 534.5C-36 533.672 -35.3284 533 -34.5 533C-33.6716 533 -33 533.672 -33 534.5Z" fill="#1995FC"/>
<path d="M51 534.5C51 535.328 50.3284 536 49.5 536C48.6716 536 48 535.328 48 534.5C48 533.672 48.6716 533 49.5 533C50.3284 533 51 533.672 51 534.5Z" fill="#1995FC"/>
<path d="M135 534.5C135 535.328 134.328 536 133.5 536C132.672 536 132 535.328 132 534.5C132 533.672 132.672 533 133.5 533C134.328 533 135 533.672 135 534.5Z" fill="#1995FC"/>
<path d="M219 534.5C219 535.328 218.328 536 217.5 536C216.672 536 216 535.328 216 534.5C216 533.672 216.672 533 217.5 533C218.328 533 219 533.672 219 534.5Z" fill="#1995FC"/>
<path d="M303 534.5C303 535.328 302.328 536 301.5 536C300.672 536 300 535.328 300 534.5C300 533.672 300.672 533 301.5 533C302.328 533 303 533.672 303 534.5Z" fill="#1995FC"/>
<path d="M387 534.5C387 535.328 386.328 536 385.5 536C384.672 536 384 535.328 384 534.5C384 533.672 384.672 533 385.5 533C386.328 533 387 533.672 387 534.5Z" fill="#1995FC"/>
<path d="M471 534.5C471 535.328 470.328 536 469.5 536C468.672 536 468 535.328 468 534.5C468 533.672 468.672 533 469.5 533C470.328 533 471 533.672 471 534.5Z" fill="#1995FC"/>
<path d="M555 534.5C555 535.328 554.328 536 553.5 536C552.672 536 552 535.328 552 534.5C552 533.672 552.672 533 553.5 533C554.328 533 555 533.672 555 534.5Z" fill="#1995FC"/>
<path d="M639 534.5C639 535.328 638.328 536 637.5 536C636.672 536 636 535.328 636 534.5C636 533.672 636.672 533 637.5 533C638.328 533 639 533.672 639 534.5Z" fill="#1995FC"/>
<path d="M723 534.5C723 535.328 722.328 536 721.5 536C720.672 536 720 535.328 720 534.5C720 533.672 720.672 533 721.5 533C722.328 533 723 533.672 723 534.5Z" fill="#1995FC"/>
<path d="M807 534.5C807 535.328 806.328 536 805.5 536C804.672 536 804 535.328 804 534.5C804 533.672 804.672 533 805.5 533C806.328 533 807 533.672 807 534.5Z" fill="#1995FC"/>
<path d="M891 534.5C891 535.328 890.328 536 889.5 536C888.672 536 888 535.328 888 534.5C888 533.672 888.672 533 889.5 533C890.328 533 891 533.672 891 534.5Z" fill="#1995FC"/>
<path d="M975 534.5C975 535.328 974.328 536 973.5 536C972.672 536 972 535.328 972 534.5C972 533.672 972.672 533 973.5 533C974.328 533 975 533.672 975 534.5Z" fill="#1995FC"/>
<path d="M1059 534.5C1059 535.328 1058.33 536 1057.5 536C1056.67 536 1056 535.328 1056 534.5C1056 533.672 1056.67 533 1057.5 533C1058.33 533 1059 533.672 1059 534.5Z" fill="#1995FC"/>
<path d="M-285 618.5C-285 619.328 -285.672 620 -286.5 620C-287.328 620 -288 619.328 -288 618.5C-288 617.672 -287.328 617 -286.5 617C-285.672 617 -285 617.672 -285 618.5Z" fill="#1995FC"/>
<path d="M-201 618.5C-201 619.328 -201.672 620 -202.5 620C-203.328 620 -204 619.328 -204 618.5C-204 617.672 -203.328 617 -202.5 617C-201.672 617 -201 617.672 -201 618.5Z" fill="#1995FC"/>
<path d="M-117 618.5C-117 619.328 -117.672 620 -118.5 620C-119.328 620 -120 619.328 -120 618.5C-120 617.672 -119.328 617 -118.5 617C-117.672 617 -117 617.672 -117 618.5Z" fill="#1995FC"/>
<path d="M-33 618.5C-33 619.328 -33.6716 620 -34.5 620C-35.3284 620 -36 619.328 -36 618.5C-36 617.672 -35.3284 617 -34.5 617C-33.6716 617 -33 617.672 -33 618.5Z" fill="#1995FC"/>
<path d="M51 618.5C51 619.328 50.3284 620 49.5 620C48.6716 620 48 619.328 48 618.5C48 617.672 48.6716 617 49.5 617C50.3284 617 51 617.672 51 618.5Z" fill="#1995FC"/>
<path d="M135 618.5C135 619.328 134.328 620 133.5 620C132.672 620 132 619.328 132 618.5C132 617.672 132.672 617 133.5 617C134.328 617 135 617.672 135 618.5Z" fill="#1995FC"/>
<path d="M219 618.5C219 619.328 218.328 620 217.5 620C216.672 620 216 619.328 216 618.5C216 617.672 216.672 617 217.5 617C218.328 617 219 617.672 219 618.5Z" fill="#1995FC"/>
<path d="M303 618.5C303 619.328 302.328 620 301.5 620C300.672 620 300 619.328 300 618.5C300 617.672 300.672 617 301.5 617C302.328 617 303 617.672 303 618.5Z" fill="#1995FC"/>
<path d="M387 618.5C387 619.328 386.328 620 385.5 620C384.672 620 384 619.328 384 618.5C384 617.672 384.672 617 385.5 617C386.328 617 387 617.672 387 618.5Z" fill="#1995FC"/>
<path d="M471 618.5C471 619.328 470.328 620 469.5 620C468.672 620 468 619.328 468 618.5C468 617.672 468.672 617 469.5 617C470.328 617 471 617.672 471 618.5Z" fill="#1995FC"/>
<path d="M555 618.5C555 619.328 554.328 620 553.5 620C552.672 620 552 619.328 552 618.5C552 617.672 552.672 617 553.5 617C554.328 617 555 617.672 555 618.5Z" fill="#1995FC"/>
<path d="M639 618.5C639 619.328 638.328 620 637.5 620C636.672 620 636 619.328 636 618.5C636 617.672 636.672 617 637.5 617C638.328 617 639 617.672 639 618.5Z" fill="#1995FC"/>
<path d="M723 618.5C723 619.328 722.328 620 721.5 620C720.672 620 720 619.328 720 618.5C720 617.672 720.672 617 721.5 617C722.328 617 723 617.672 723 618.5Z" fill="#1995FC"/>
<path d="M807 618.5C807 619.328 806.328 620 805.5 620C804.672 620 804 619.328 804 618.5C804 617.672 804.672 617 805.5 617C806.328 617 807 617.672 807 618.5Z" fill="#1995FC"/>
<path d="M891 618.5C891 619.328 890.328 620 889.5 620C888.672 620 888 619.328 888 618.5C888 617.672 888.672 617 889.5 617C890.328 617 891 617.672 891 618.5Z" fill="#1995FC"/>
<path d="M975 618.5C975 619.328 974.328 620 973.5 620C972.672 620 972 619.328 972 618.5C972 617.672 972.672 617 973.5 617C974.328 617 975 617.672 975 618.5Z" fill="#1995FC"/>
<path d="M1059 618.5C1059 619.328 1058.33 620 1057.5 620C1056.67 620 1056 619.328 1056 618.5C1056 617.672 1056.67 617 1057.5 617C1058.33 617 1059 617.672 1059 618.5Z" fill="#1995FC"/>
<path d="M-285 702.5C-285 703.328 -285.672 704 -286.5 704C-287.328 704 -288 703.328 -288 702.5C-288 701.672 -287.328 701 -286.5 701C-285.672 701 -285 701.672 -285 702.5Z" fill="#1995FC"/>
<path d="M-201 702.5C-201 703.328 -201.672 704 -202.5 704C-203.328 704 -204 703.328 -204 702.5C-204 701.672 -203.328 701 -202.5 701C-201.672 701 -201 701.672 -201 702.5Z" fill="#1995FC"/>
<path d="M-117 702.5C-117 703.328 -117.672 704 -118.5 704C-119.328 704 -120 703.328 -120 702.5C-120 701.672 -119.328 701 -118.5 701C-117.672 701 -117 701.672 -117 702.5Z" fill="#1995FC"/>
<path d="M-33 702.5C-33 703.328 -33.6716 704 -34.5 704C-35.3284 704 -36 703.328 -36 702.5C-36 701.672 -35.3284 701 -34.5 701C-33.6716 701 -33 701.672 -33 702.5Z" fill="#1995FC"/>
<path d="M51 702.5C51 703.328 50.3284 704 49.5 704C48.6716 704 48 703.328 48 702.5C48 701.672 48.6716 701 49.5 701C50.3284 701 51 701.672 51 702.5Z" fill="#1995FC"/>
<path d="M135 702.5C135 703.328 134.328 704 133.5 704C132.672 704 132 703.328 132 702.5C132 701.672 132.672 701 133.5 701C134.328 701 135 701.672 135 702.5Z" fill="#1995FC"/>
<path d="M219 702.5C219 703.328 218.328 704 217.5 704C216.672 704 216 703.328 216 702.5C216 701.672 216.672 701 217.5 701C218.328 701 219 701.672 219 702.5Z" fill="#1995FC"/>
<path d="M303 702.5C303 703.328 302.328 704 301.5 704C300.672 704 300 703.328 300 702.5C300 701.672 300.672 701 301.5 701C302.328 701 303 701.672 303 702.5Z" fill="#1995FC"/>
<path d="M387 702.5C387 703.328 386.328 704 385.5 704C384.672 704 384 703.328 384 702.5C384 701.672 384.672 701 385.5 701C386.328 701 387 701.672 387 702.5Z" fill="#1995FC"/>
<path d="M471 702.5C471 703.328 470.328 704 469.5 704C468.672 704 468 703.328 468 702.5C468 701.672 468.672 701 469.5 701C470.328 701 471 701.672 471 702.5Z" fill="#1995FC"/>
<path d="M555 702.5C555 703.328 554.328 704 553.5 704C552.672 704 552 703.328 552 702.5C552 701.672 552.672 701 553.5 701C554.328 701 555 701.672 555 702.5Z" fill="#1995FC"/>
<path d="M639 702.5C639 703.328 638.328 704 637.5 704C636.672 704 636 703.328 636 702.5C636 701.672 636.672 701 637.5 701C638.328 701 639 701.672 639 702.5Z" fill="#1995FC"/>
<path d="M723 702.5C723 703.328 722.328 704 721.5 704C720.672 704 720 703.328 720 702.5C720 701.672 720.672 701 721.5 701C722.328 701 723 701.672 723 702.5Z" fill="#1995FC"/>
<path d="M807 702.5C807 703.328 806.328 704 805.5 704C804.672 704 804 703.328 804 702.5C804 701.672 804.672 701 805.5 701C806.328 701 807 701.672 807 702.5Z" fill="#1995FC"/>
<path d="M891 702.5C891 703.328 890.328 704 889.5 704C888.672 704 888 703.328 888 702.5C888 701.672 888.672 701 889.5 701C890.328 701 891 701.672 891 702.5Z" fill="#1995FC"/>
<path d="M975 702.5C975 703.328 974.328 704 973.5 704C972.672 704 972 703.328 972 702.5C972 701.672 972.672 701 973.5 701C974.328 701 975 701.672 975 702.5Z" fill="#1995FC"/>
<path d="M1059 702.5C1059 703.328 1058.33 704 1057.5 704C1056.67 704 1056 703.328 1056 702.5C1056 701.672 1056.67 701 1057.5 701C1058.33 701 1059 701.672 1059 702.5Z" fill="#1995FC"/>
<path d="M-285 786.5C-285 787.328 -285.672 788 -286.5 788C-287.328 788 -288 787.328 -288 786.5C-288 785.672 -287.328 785 -286.5 785C-285.672 785 -285 785.672 -285 786.5Z" fill="#1995FC"/>
<path d="M-201 786.5C-201 787.328 -201.672 788 -202.5 788C-203.328 788 -204 787.328 -204 786.5C-204 785.672 -203.328 785 -202.5 785C-201.672 785 -201 785.672 -201 786.5Z" fill="#1995FC"/>
<path d="M-117 786.5C-117 787.328 -117.672 788 -118.5 788C-119.328 788 -120 787.328 -120 786.5C-120 785.672 -119.328 785 -118.5 785C-117.672 785 -117 785.672 -117 786.5Z" fill="#1995FC"/>
<path d="M-33 786.5C-33 787.328 -33.6716 788 -34.5 788C-35.3284 788 -36 787.328 -36 786.5C-36 785.672 -35.3284 785 -34.5 785C-33.6716 785 -33 785.672 -33 786.5Z" fill="#1995FC"/>
<path d="M51 786.5C51 787.328 50.3284 788 49.5 788C48.6716 788 48 787.328 48 786.5C48 785.672 48.6716 785 49.5 785C50.3284 785 51 785.672 51 786.5Z" fill="#1995FC"/>
<path d="M135 786.5C135 787.328 134.328 788 133.5 788C132.672 788 132 787.328 132 786.5C132 785.672 132.672 785 133.5 785C134.328 785 135 785.672 135 786.5Z" fill="#1995FC"/>
<path d="M219 786.5C219 787.328 218.328 788 217.5 788C216.672 788 216 787.328 216 786.5C216 785.672 216.672 785 217.5 785C218.328 785 219 785.672 219 786.5Z" fill="#1995FC"/>
<path d="M303 786.5C303 787.328 302.328 788 301.5 788C300.672 788 300 787.328 300 786.5C300 785.672 300.672 785 301.5 785C302.328 785 303 785.672 303 786.5Z" fill="#1995FC"/>
<path d="M387 786.5C387 787.328 386.328 788 385.5 788C384.672 788 384 787.328 384 786.5C384 785.672 384.672 785 385.5 785C386.328 785 387 785.672 387 786.5Z" fill="#1995FC"/>
<path d="M471 786.5C471 787.328 470.328 788 469.5 788C468.672 788 468 787.328 468 786.5C468 785.672 468.672 785 469.5 785C470.328 785 471 785.672 471 786.5Z" fill="#1995FC"/>
<path d="M555 786.5C555 787.328 554.328 788 553.5 788C552.672 788 552 787.328 552 786.5C552 785.672 552.672 785 553.5 785C554.328 785 555 785.672 555 786.5Z" fill="#1995FC"/>
<path d="M639 786.5C639 787.328 638.328 788 637.5 788C636.672 788 636 787.328 636 786.5C636 785.672 636.672 785 637.5 785C638.328 785 639 785.672 639 786.5Z" fill="#1995FC"/>
<path d="M723 786.5C723 787.328 722.328 788 721.5 788C720.672 788 720 787.328 720 786.5C720 785.672 720.672 785 721.5 785C722.328 785 723 785.672 723 786.5Z" fill="#1995FC"/>
<path d="M807 786.5C807 787.328 806.328 788 805.5 788C804.672 788 804 787.328 804 786.5C804 785.672 804.672 785 805.5 785C806.328 785 807 785.672 807 786.5Z" fill="#1995FC"/>
<path d="M891 786.5C891 787.328 890.328 788 889.5 788C888.672 788 888 787.328 888 786.5C888 785.672 888.672 785 889.5 785C890.328 785 891 785.672 891 786.5Z" fill="#1995FC"/>
<path d="M975 786.5C975 787.328 974.328 788 973.5 788C972.672 788 972 787.328 972 786.5C972 785.672 972.672 785 973.5 785C974.328 785 975 785.672 975 786.5Z" fill="#1995FC"/>
<path d="M1059 786.5C1059 787.328 1058.33 788 1057.5 788C1056.67 788 1056 787.328 1056 786.5C1056 785.672 1056.67 785 1057.5 785C1058.33 785 1059 785.672 1059 786.5Z" fill="#1995FC"/>
</g>
<g filter="url(#filter1_f_3001_29238)">
<ellipse cx="849.602" cy="305.56" rx="261.234" ry="574.56" fill="#1995FC"/>
</g>
<g style="mix-blend-mode:overlay" filter="url(#filter2_f_3001_29238)">
<path d="M401.383 632.104L486.518 546.97L387 447.452V424.905L401.383 410.521V371.647L387 357.264V267.464L408.381 246.084H420.432L428.207 238.309H461.25L509.842 189.716V134.126L586.813 57.1551V21.0021L598.476 9.33984" stroke="#1995FC" stroke-width="9"/>
</g>
<g style="mix-blend-mode:overlay" filter="url(#filter3_f_3001_29238)">
<path d="M401.383 632.104L486.518 546.97L387 447.452V424.905L401.383 410.521V371.647L387 357.264V267.464L408.381 246.084H420.432L428.207 238.309H461.25L509.842 189.716V134.126L586.813 57.1551V21.0021L598.476 9.33984" stroke="#1995FC" stroke-width="9"/>
</g>
<defs>
<filter id="filter0_f_3001_29238" x="-423" y="-424" width="1615" height="1748" filterUnits="userSpaceOnUse" color-interpolation-filters="sRGB">
<feFlood flood-opacity="0" result="BackgroundImageFix"/>
<feBlend mode="normal" in="SourceGraphic" in2="BackgroundImageFix" result="shape"/>
<feGaussianBlur stdDeviation="75" result="effect1_foregroundBlur_3001_29238"/>
</filter>
<filter id="filter1_f_3001_29238" x="33.3672" y="-824" width="1632.47" height="2259.12" filterUnits="userSpaceOnUse" color-interpolation-filters="sRGB">
<feFlood flood-opacity="0" result="BackgroundImageFix"/>
<feBlend mode="normal" in="SourceGraphic" in2="BackgroundImageFix" result="shape"/>
<feGaussianBlur stdDeviation="277.5" result="effect1_foregroundBlur_3001_29238"/>
</filter>
<filter id="filter2_f_3001_29238" x="302.7" y="-73.6423" width="378.758" height="788.728" filterUnits="userSpaceOnUse" color-interpolation-filters="sRGB">
<feFlood flood-opacity="0" result="BackgroundImageFix"/>
<feBlend mode="normal" in="SourceGraphic" in2="BackgroundImageFix" result="shape"/>
<feGaussianBlur stdDeviation="39.9" result="effect1_foregroundBlur_3001_29238"/>
</filter>
<filter id="filter3_f_3001_29238" x="187.9" y="-188.442" width="608.358" height="1018.33" filterUnits="userSpaceOnUse" color-interpolation-filters="sRGB">
<feFlood flood-opacity="0" result="BackgroundImageFix"/>
<feBlend mode="normal" in="SourceGraphic" in2="BackgroundImageFix" result="shape"/>
<feGaussianBlur stdDeviation="97.3" result="effect1_foregroundBlur_3001_29238"/>
</filter>
</defs>
</svg>
