<svg width="1440" height="800" viewBox="0 0 1440 800" fill="none" xmlns="http://www.w3.org/2000/svg">
<circle cx="49" cy="22.5" r="1.5" fill="#5D5D61" fill-opacity="0.5"/>
<circle cx="133" cy="22.5" r="1.5" fill="#5D5D61" fill-opacity="0.5"/>
<circle cx="217" cy="22.5" r="1.5" fill="#5D5D61" fill-opacity="0.5"/>
<circle cx="301" cy="22.5" r="1.5" fill="#5D5D61" fill-opacity="0.5"/>
<circle cx="385" cy="22.5" r="1.5" fill="#5D5D61" fill-opacity="0.5"/>
<circle cx="469" cy="22.5" r="1.5" fill="#5D5D61" fill-opacity="0.5"/>
<circle cx="553" cy="22.5" r="1.5" fill="#5D5D61" fill-opacity="0.5"/>
<circle cx="637" cy="22.5" r="1.5" fill="#5D5D61" fill-opacity="0.5"/>
<circle cx="721" cy="22.5" r="1.5" fill="#5D5D61" fill-opacity="0.5"/>
<circle cx="805" cy="22.5" r="1.5" fill="#5D5D61" fill-opacity="0.5"/>
<circle cx="889" cy="22.5" r="1.5" fill="#5D5D61" fill-opacity="0.5"/>
<circle cx="973" cy="22.5" r="1.5" fill="#5D5D61" fill-opacity="0.5"/>
<circle cx="1057" cy="22.5" r="1.5" fill="#5D5D61" fill-opacity="0.5"/>
<circle cx="1141" cy="22.5" r="1.5" fill="#5D5D61" fill-opacity="0.5"/>
<circle cx="1225" cy="22.5" r="1.5" fill="#5D5D61" fill-opacity="0.5"/>
<circle cx="1309" cy="22.5" r="1.5" fill="#5D5D61" fill-opacity="0.5"/>
<circle cx="1393" cy="22.5" r="1.5" fill="#5D5D61" fill-opacity="0.5"/>
<circle cx="49" cy="106.5" r="1.5" fill="#5D5D61" fill-opacity="0.5"/>
<circle cx="133" cy="106.5" r="1.5" fill="#5D5D61" fill-opacity="0.5"/>
<circle cx="217" cy="106.5" r="1.5" fill="#5D5D61" fill-opacity="0.5"/>
<circle cx="301" cy="106.5" r="1.5" fill="#5D5D61" fill-opacity="0.5"/>
<circle cx="385" cy="106.5" r="1.5" fill="#5D5D61" fill-opacity="0.5"/>
<circle cx="469" cy="106.5" r="1.5" fill="#5D5D61" fill-opacity="0.5"/>
<circle cx="553" cy="106.5" r="1.5" fill="#5D5D61" fill-opacity="0.5"/>
<circle cx="637" cy="106.5" r="1.5" fill="#5D5D61" fill-opacity="0.5"/>
<circle cx="721" cy="106.5" r="1.5" fill="#5D5D61" fill-opacity="0.5"/>
<circle cx="805" cy="106.5" r="1.5" fill="#5D5D61" fill-opacity="0.5"/>
<circle cx="889" cy="106.5" r="1.5" fill="#5D5D61" fill-opacity="0.5"/>
<circle cx="973" cy="106.5" r="1.5" fill="#5D5D61" fill-opacity="0.5"/>
<circle cx="1057" cy="106.5" r="1.5" fill="#5D5D61" fill-opacity="0.5"/>
<circle cx="1141" cy="106.5" r="1.5" fill="#5D5D61" fill-opacity="0.5"/>
<circle cx="1225" cy="106.5" r="1.5" fill="#5D5D61" fill-opacity="0.5"/>
<circle cx="1309" cy="106.5" r="1.5" fill="#5D5D61" fill-opacity="0.5"/>
<circle cx="1393" cy="106.5" r="1.5" fill="#5D5D61" fill-opacity="0.5"/>
<circle cx="49" cy="190.5" r="1.5" fill="#5D5D61" fill-opacity="0.5"/>
<circle cx="133" cy="190.5" r="1.5" fill="#5D5D61" fill-opacity="0.5"/>
<circle cx="217" cy="190.5" r="1.5" fill="#5D5D61" fill-opacity="0.5"/>
<circle cx="301" cy="190.5" r="1.5" fill="#5D5D61" fill-opacity="0.5"/>
<circle cx="385" cy="190.5" r="1.5" fill="#5D5D61" fill-opacity="0.5"/>
<circle cx="469" cy="190.5" r="1.5" fill="#5D5D61" fill-opacity="0.5"/>
<circle cx="553" cy="190.5" r="1.5" fill="#5D5D61" fill-opacity="0.5"/>
<circle cx="637" cy="190.5" r="1.5" fill="#5D5D61" fill-opacity="0.5"/>
<circle cx="721" cy="190.5" r="1.5" fill="#5D5D61" fill-opacity="0.5"/>
<circle cx="805" cy="190.5" r="1.5" fill="#5D5D61" fill-opacity="0.5"/>
<circle cx="889" cy="190.5" r="1.5" fill="#5D5D61" fill-opacity="0.5"/>
<circle cx="973" cy="190.5" r="1.5" fill="#5D5D61" fill-opacity="0.5"/>
<circle cx="1057" cy="190.5" r="1.5" fill="#5D5D61" fill-opacity="0.5"/>
<circle cx="1141" cy="190.5" r="1.5" fill="#5D5D61" fill-opacity="0.5"/>
<circle cx="1225" cy="190.5" r="1.5" fill="#5D5D61" fill-opacity="0.5"/>
<circle cx="1309" cy="190.5" r="1.5" fill="#5D5D61" fill-opacity="0.5"/>
<circle cx="1393" cy="190.5" r="1.5" fill="#5D5D61" fill-opacity="0.5"/>
<circle cx="49" cy="274.5" r="1.5" fill="#5D5D61" fill-opacity="0.5"/>
<circle cx="133" cy="274.5" r="1.5" fill="#5D5D61" fill-opacity="0.5"/>
<circle cx="217" cy="274.5" r="1.5" fill="#5D5D61" fill-opacity="0.5"/>
<circle cx="301" cy="274.5" r="1.5" fill="#5D5D61" fill-opacity="0.5"/>
<circle cx="385" cy="274.5" r="1.5" fill="#5D5D61" fill-opacity="0.5"/>
<circle cx="469" cy="274.5" r="1.5" fill="#5D5D61" fill-opacity="0.5"/>
<circle cx="553" cy="274.5" r="1.5" fill="#5D5D61" fill-opacity="0.5"/>
<circle cx="637" cy="274.5" r="1.5" fill="#5D5D61" fill-opacity="0.5"/>
<circle cx="721" cy="274.5" r="1.5" fill="#5D5D61" fill-opacity="0.5"/>
<circle cx="805" cy="274.5" r="1.5" fill="#5D5D61" fill-opacity="0.5"/>
<circle cx="889" cy="274.5" r="1.5" fill="#5D5D61" fill-opacity="0.5"/>
<circle cx="973" cy="274.5" r="1.5" fill="#5D5D61" fill-opacity="0.5"/>
<circle cx="1057" cy="274.5" r="1.5" fill="#5D5D61" fill-opacity="0.5"/>
<circle cx="1141" cy="274.5" r="1.5" fill="#5D5D61" fill-opacity="0.5"/>
<circle cx="1225" cy="274.5" r="1.5" fill="#5D5D61" fill-opacity="0.5"/>
<circle cx="1309" cy="274.5" r="1.5" fill="#5D5D61" fill-opacity="0.5"/>
<circle cx="1393" cy="274.5" r="1.5" fill="#5D5D61" fill-opacity="0.5"/>
<circle cx="49" cy="358.5" r="1.5" fill="#5D5D61" fill-opacity="0.5"/>
<circle cx="133" cy="358.5" r="1.5" fill="#5D5D61" fill-opacity="0.5"/>
<circle cx="217" cy="358.5" r="1.5" fill="#5D5D61" fill-opacity="0.5"/>
<circle cx="301" cy="358.5" r="1.5" fill="#5D5D61" fill-opacity="0.5"/>
<circle cx="385" cy="358.5" r="1.5" fill="#5D5D61" fill-opacity="0.5"/>
<circle cx="469" cy="358.5" r="1.5" fill="#5D5D61" fill-opacity="0.5"/>
<circle cx="553" cy="358.5" r="1.5" fill="#5D5D61" fill-opacity="0.5"/>
<circle cx="637" cy="358.5" r="1.5" fill="#5D5D61" fill-opacity="0.5"/>
<circle cx="721" cy="358.5" r="1.5" fill="#5D5D61" fill-opacity="0.5"/>
<circle cx="805" cy="358.5" r="1.5" fill="#5D5D61" fill-opacity="0.5"/>
<circle cx="889" cy="358.5" r="1.5" fill="#5D5D61" fill-opacity="0.5"/>
<circle cx="973" cy="358.5" r="1.5" fill="#5D5D61" fill-opacity="0.5"/>
<circle cx="1057" cy="358.5" r="1.5" fill="#5D5D61" fill-opacity="0.5"/>
<circle cx="1141" cy="358.5" r="1.5" fill="#5D5D61" fill-opacity="0.5"/>
<circle cx="1225" cy="358.5" r="1.5" fill="#5D5D61" fill-opacity="0.5"/>
<circle cx="1309" cy="358.5" r="1.5" fill="#5D5D61" fill-opacity="0.5"/>
<circle cx="1393" cy="358.5" r="1.5" fill="#5D5D61" fill-opacity="0.5"/>
<circle cx="49" cy="442.5" r="1.5" fill="#5D5D61" fill-opacity="0.5"/>
<circle cx="133" cy="442.5" r="1.5" fill="#5D5D61" fill-opacity="0.5"/>
<circle cx="217" cy="442.5" r="1.5" fill="#5D5D61" fill-opacity="0.5"/>
<circle cx="301" cy="442.5" r="1.5" fill="#5D5D61" fill-opacity="0.5"/>
<circle cx="385" cy="442.5" r="1.5" fill="#5D5D61" fill-opacity="0.5"/>
<circle cx="469" cy="442.5" r="1.5" fill="#5D5D61" fill-opacity="0.5"/>
<circle cx="553" cy="442.5" r="1.5" fill="#5D5D61" fill-opacity="0.5"/>
<circle cx="637" cy="442.5" r="1.5" fill="#5D5D61" fill-opacity="0.5"/>
<circle cx="721" cy="442.5" r="1.5" fill="#5D5D61" fill-opacity="0.5"/>
<circle cx="805" cy="442.5" r="1.5" fill="#5D5D61" fill-opacity="0.5"/>
<circle cx="889" cy="442.5" r="1.5" fill="#5D5D61" fill-opacity="0.5"/>
<circle cx="973" cy="442.5" r="1.5" fill="#5D5D61" fill-opacity="0.5"/>
<circle cx="1057" cy="442.5" r="1.5" fill="#5D5D61" fill-opacity="0.5"/>
<circle cx="1141" cy="442.5" r="1.5" fill="#5D5D61" fill-opacity="0.5"/>
<circle cx="1225" cy="442.5" r="1.5" fill="#5D5D61" fill-opacity="0.5"/>
<circle cx="1309" cy="442.5" r="1.5" fill="#5D5D61" fill-opacity="0.5"/>
<circle cx="1393" cy="442.5" r="1.5" fill="#5D5D61" fill-opacity="0.5"/>
<circle cx="49" cy="526.5" r="1.5" fill="#5D5D61" fill-opacity="0.5"/>
<circle cx="133" cy="526.5" r="1.5" fill="#5D5D61" fill-opacity="0.5"/>
<circle cx="217" cy="526.5" r="1.5" fill="#5D5D61" fill-opacity="0.5"/>
<circle cx="301" cy="526.5" r="1.5" fill="#5D5D61" fill-opacity="0.5"/>
<circle cx="385" cy="526.5" r="1.5" fill="#5D5D61" fill-opacity="0.5"/>
<circle cx="469" cy="526.5" r="1.5" fill="#5D5D61" fill-opacity="0.5"/>
<circle cx="553" cy="526.5" r="1.5" fill="#5D5D61" fill-opacity="0.5"/>
<circle cx="637" cy="526.5" r="1.5" fill="#5D5D61" fill-opacity="0.5"/>
<circle cx="721" cy="526.5" r="1.5" fill="#5D5D61" fill-opacity="0.5"/>
<circle cx="805" cy="526.5" r="1.5" fill="#5D5D61" fill-opacity="0.5"/>
<circle cx="889" cy="526.5" r="1.5" fill="#5D5D61" fill-opacity="0.5"/>
<circle cx="973" cy="526.5" r="1.5" fill="#5D5D61" fill-opacity="0.5"/>
<circle cx="1057" cy="526.5" r="1.5" fill="#5D5D61" fill-opacity="0.5"/>
<circle cx="1141" cy="526.5" r="1.5" fill="#5D5D61" fill-opacity="0.5"/>
<circle cx="1225" cy="526.5" r="1.5" fill="#5D5D61" fill-opacity="0.5"/>
<circle cx="1309" cy="526.5" r="1.5" fill="#5D5D61" fill-opacity="0.5"/>
<circle cx="1393" cy="526.5" r="1.5" fill="#5D5D61" fill-opacity="0.5"/>
<circle cx="49" cy="610.5" r="1.5" fill="#5D5D61" fill-opacity="0.5"/>
<circle cx="133" cy="610.5" r="1.5" fill="#5D5D61" fill-opacity="0.5"/>
<circle cx="217" cy="610.5" r="1.5" fill="#5D5D61" fill-opacity="0.5"/>
<circle cx="301" cy="610.5" r="1.5" fill="#5D5D61" fill-opacity="0.5"/>
<circle cx="385" cy="610.5" r="1.5" fill="#5D5D61" fill-opacity="0.5"/>
<circle cx="469" cy="610.5" r="1.5" fill="#5D5D61" fill-opacity="0.5"/>
<circle cx="553" cy="610.5" r="1.5" fill="#5D5D61" fill-opacity="0.5"/>
<circle cx="637" cy="610.5" r="1.5" fill="#5D5D61" fill-opacity="0.5"/>
<circle cx="721" cy="610.5" r="1.5" fill="#5D5D61" fill-opacity="0.5"/>
<circle cx="805" cy="610.5" r="1.5" fill="#5D5D61" fill-opacity="0.5"/>
<circle cx="889" cy="610.5" r="1.5" fill="#5D5D61" fill-opacity="0.5"/>
<circle cx="973" cy="610.5" r="1.5" fill="#5D5D61" fill-opacity="0.5"/>
<circle cx="1057" cy="610.5" r="1.5" fill="#5D5D61" fill-opacity="0.5"/>
<circle cx="1141" cy="610.5" r="1.5" fill="#5D5D61" fill-opacity="0.5"/>
<circle cx="1225" cy="610.5" r="1.5" fill="#5D5D61" fill-opacity="0.5"/>
<circle cx="1309" cy="610.5" r="1.5" fill="#5D5D61" fill-opacity="0.5"/>
<circle cx="1393" cy="610.5" r="1.5" fill="#5D5D61" fill-opacity="0.5"/>
<circle cx="49" cy="694.5" r="1.5" fill="#5D5D61" fill-opacity="0.5"/>
<circle cx="133" cy="694.5" r="1.5" fill="#5D5D61" fill-opacity="0.5"/>
<circle cx="217" cy="694.5" r="1.5" fill="#5D5D61" fill-opacity="0.5"/>
<circle cx="301" cy="694.5" r="1.5" fill="#5D5D61" fill-opacity="0.5"/>
<circle cx="385" cy="694.5" r="1.5" fill="#5D5D61" fill-opacity="0.5"/>
<circle cx="469" cy="694.5" r="1.5" fill="#5D5D61" fill-opacity="0.5"/>
<circle cx="553" cy="694.5" r="1.5" fill="#5D5D61" fill-opacity="0.5"/>
<circle cx="637" cy="694.5" r="1.5" fill="#5D5D61" fill-opacity="0.5"/>
<circle cx="721" cy="694.5" r="1.5" fill="#5D5D61" fill-opacity="0.5"/>
<circle cx="805" cy="694.5" r="1.5" fill="#5D5D61" fill-opacity="0.5"/>
<circle cx="889" cy="694.5" r="1.5" fill="#5D5D61" fill-opacity="0.5"/>
<circle cx="973" cy="694.5" r="1.5" fill="#5D5D61" fill-opacity="0.5"/>
<circle cx="1057" cy="694.5" r="1.5" fill="#5D5D61" fill-opacity="0.5"/>
<circle cx="1141" cy="694.5" r="1.5" fill="#5D5D61" fill-opacity="0.5"/>
<circle cx="1225" cy="694.5" r="1.5" fill="#5D5D61" fill-opacity="0.5"/>
<circle cx="1309" cy="694.5" r="1.5" fill="#5D5D61" fill-opacity="0.5"/>
<circle cx="1393" cy="694.5" r="1.5" fill="#5D5D61" fill-opacity="0.5"/>
<circle cx="49" cy="778.5" r="1.5" fill="#5D5D61" fill-opacity="0.5"/>
<circle cx="133" cy="778.5" r="1.5" fill="#5D5D61" fill-opacity="0.5"/>
<circle cx="217" cy="778.5" r="1.5" fill="#5D5D61" fill-opacity="0.5"/>
<circle cx="301" cy="778.5" r="1.5" fill="#5D5D61" fill-opacity="0.5"/>
<circle cx="385" cy="778.5" r="1.5" fill="#5D5D61" fill-opacity="0.5"/>
<circle cx="469" cy="778.5" r="1.5" fill="#5D5D61" fill-opacity="0.5"/>
<circle cx="553" cy="778.5" r="1.5" fill="#5D5D61" fill-opacity="0.5"/>
<circle cx="637" cy="778.5" r="1.5" fill="#5D5D61" fill-opacity="0.5"/>
<circle cx="721" cy="778.5" r="1.5" fill="#5D5D61" fill-opacity="0.5"/>
<circle cx="805" cy="778.5" r="1.5" fill="#5D5D61" fill-opacity="0.5"/>
<circle cx="889" cy="778.5" r="1.5" fill="#5D5D61" fill-opacity="0.5"/>
<circle cx="973" cy="778.5" r="1.5" fill="#5D5D61" fill-opacity="0.5"/>
<circle cx="1057" cy="778.5" r="1.5" fill="#5D5D61" fill-opacity="0.5"/>
<circle cx="1141" cy="778.5" r="1.5" fill="#5D5D61" fill-opacity="0.5"/>
<circle cx="1225" cy="778.5" r="1.5" fill="#5D5D61" fill-opacity="0.5"/>
<circle cx="1309" cy="778.5" r="1.5" fill="#5D5D61" fill-opacity="0.5"/>
<circle cx="1393" cy="778.5" r="1.5" fill="#5D5D61" fill-opacity="0.5"/>
<g filter="url(#filter0_f_3001_29237)">
<rect x="-84" y="-102" width="1609" height="1004" rx="79" stroke="#1C1D1E" stroke-width="410"/>
</g>
<mask id="mask0_3001_29237" style="mask-type:alpha" maskUnits="userSpaceOnUse" x="399" y="16" width="691" height="772">
<rect x="399" y="16" width="691" height="772" rx="266" fill="#1995FC"/>
</mask>
<g mask="url(#mask0_3001_29237)">
<path d="M51 22.5C51 23.3284 50.3284 24 49.5 24C48.6716 24 48 23.3284 48 22.5C48 21.6716 48.6716 21 49.5 21C50.3284 21 51 21.6716 51 22.5Z" fill="#1995FC"/>
<path d="M135 22.5C135 23.3284 134.328 24 133.5 24C132.672 24 132 23.3284 132 22.5C132 21.6716 132.672 21 133.5 21C134.328 21 135 21.6716 135 22.5Z" fill="#1995FC"/>
<path d="M219 22.5C219 23.3284 218.328 24 217.5 24C216.672 24 216 23.3284 216 22.5C216 21.6716 216.672 21 217.5 21C218.328 21 219 21.6716 219 22.5Z" fill="#1995FC"/>
<path d="M303 22.5C303 23.3284 302.328 24 301.5 24C300.672 24 300 23.3284 300 22.5C300 21.6716 300.672 21 301.5 21C302.328 21 303 21.6716 303 22.5Z" fill="#1995FC"/>
<path d="M387 22.5C387 23.3284 386.328 24 385.5 24C384.672 24 384 23.3284 384 22.5C384 21.6716 384.672 21 385.5 21C386.328 21 387 21.6716 387 22.5Z" fill="#1995FC"/>
<path d="M471 22.5C471 23.3284 470.328 24 469.5 24C468.672 24 468 23.3284 468 22.5C468 21.6716 468.672 21 469.5 21C470.328 21 471 21.6716 471 22.5Z" fill="#1995FC"/>
<path d="M555 22.5C555 23.3284 554.328 24 553.5 24C552.672 24 552 23.3284 552 22.5C552 21.6716 552.672 21 553.5 21C554.328 21 555 21.6716 555 22.5Z" fill="#1995FC"/>
<path d="M639 22.5C639 23.3284 638.328 24 637.5 24C636.672 24 636 23.3284 636 22.5C636 21.6716 636.672 21 637.5 21C638.328 21 639 21.6716 639 22.5Z" fill="#1995FC"/>
<path d="M723 22.5C723 23.3284 722.328 24 721.5 24C720.672 24 720 23.3284 720 22.5C720 21.6716 720.672 21 721.5 21C722.328 21 723 21.6716 723 22.5Z" fill="#1995FC"/>
<path d="M807 22.5C807 23.3284 806.328 24 805.5 24C804.672 24 804 23.3284 804 22.5C804 21.6716 804.672 21 805.5 21C806.328 21 807 21.6716 807 22.5Z" fill="#1995FC"/>
<path d="M891 22.5C891 23.3284 890.328 24 889.5 24C888.672 24 888 23.3284 888 22.5C888 21.6716 888.672 21 889.5 21C890.328 21 891 21.6716 891 22.5Z" fill="#1995FC"/>
<path d="M975 22.5C975 23.3284 974.328 24 973.5 24C972.672 24 972 23.3284 972 22.5C972 21.6716 972.672 21 973.5 21C974.328 21 975 21.6716 975 22.5Z" fill="#1995FC"/>
<path d="M1059 22.5C1059 23.3284 1058.33 24 1057.5 24C1056.67 24 1056 23.3284 1056 22.5C1056 21.6716 1056.67 21 1057.5 21C1058.33 21 1059 21.6716 1059 22.5Z" fill="#1995FC"/>
<path d="M1143 22.5C1143 23.3284 1142.33 24 1141.5 24C1140.67 24 1140 23.3284 1140 22.5C1140 21.6716 1140.67 21 1141.5 21C1142.33 21 1143 21.6716 1143 22.5Z" fill="#1995FC"/>
<path d="M1227 22.5C1227 23.3284 1226.33 24 1225.5 24C1224.67 24 1224 23.3284 1224 22.5C1224 21.6716 1224.67 21 1225.5 21C1226.33 21 1227 21.6716 1227 22.5Z" fill="#1995FC"/>
<path d="M1311 22.5C1311 23.3284 1310.33 24 1309.5 24C1308.67 24 1308 23.3284 1308 22.5C1308 21.6716 1308.67 21 1309.5 21C1310.33 21 1311 21.6716 1311 22.5Z" fill="#1995FC"/>
<path d="M1395 22.5C1395 23.3284 1394.33 24 1393.5 24C1392.67 24 1392 23.3284 1392 22.5C1392 21.6716 1392.67 21 1393.5 21C1394.33 21 1395 21.6716 1395 22.5Z" fill="#1995FC"/>
<path d="M51 106.5C51 107.328 50.3284 108 49.5 108C48.6716 108 48 107.328 48 106.5C48 105.672 48.6716 105 49.5 105C50.3284 105 51 105.672 51 106.5Z" fill="#1995FC"/>
<path d="M135 106.5C135 107.328 134.328 108 133.5 108C132.672 108 132 107.328 132 106.5C132 105.672 132.672 105 133.5 105C134.328 105 135 105.672 135 106.5Z" fill="#1995FC"/>
<path d="M219 106.5C219 107.328 218.328 108 217.5 108C216.672 108 216 107.328 216 106.5C216 105.672 216.672 105 217.5 105C218.328 105 219 105.672 219 106.5Z" fill="#1995FC"/>
<path d="M303 106.5C303 107.328 302.328 108 301.5 108C300.672 108 300 107.328 300 106.5C300 105.672 300.672 105 301.5 105C302.328 105 303 105.672 303 106.5Z" fill="#1995FC"/>
<path d="M387 106.5C387 107.328 386.328 108 385.5 108C384.672 108 384 107.328 384 106.5C384 105.672 384.672 105 385.5 105C386.328 105 387 105.672 387 106.5Z" fill="#1995FC"/>
<path d="M471 106.5C471 107.328 470.328 108 469.5 108C468.672 108 468 107.328 468 106.5C468 105.672 468.672 105 469.5 105C470.328 105 471 105.672 471 106.5Z" fill="#1995FC"/>
<path d="M555 106.5C555 107.328 554.328 108 553.5 108C552.672 108 552 107.328 552 106.5C552 105.672 552.672 105 553.5 105C554.328 105 555 105.672 555 106.5Z" fill="#1995FC"/>
<path d="M639 106.5C639 107.328 638.328 108 637.5 108C636.672 108 636 107.328 636 106.5C636 105.672 636.672 105 637.5 105C638.328 105 639 105.672 639 106.5Z" fill="#1995FC"/>
<path d="M723 106.5C723 107.328 722.328 108 721.5 108C720.672 108 720 107.328 720 106.5C720 105.672 720.672 105 721.5 105C722.328 105 723 105.672 723 106.5Z" fill="#1995FC"/>
<path d="M807 106.5C807 107.328 806.328 108 805.5 108C804.672 108 804 107.328 804 106.5C804 105.672 804.672 105 805.5 105C806.328 105 807 105.672 807 106.5Z" fill="#1995FC"/>
<path d="M891 106.5C891 107.328 890.328 108 889.5 108C888.672 108 888 107.328 888 106.5C888 105.672 888.672 105 889.5 105C890.328 105 891 105.672 891 106.5Z" fill="#1995FC"/>
<path d="M975 106.5C975 107.328 974.328 108 973.5 108C972.672 108 972 107.328 972 106.5C972 105.672 972.672 105 973.5 105C974.328 105 975 105.672 975 106.5Z" fill="#1995FC"/>
<path d="M1059 106.5C1059 107.328 1058.33 108 1057.5 108C1056.67 108 1056 107.328 1056 106.5C1056 105.672 1056.67 105 1057.5 105C1058.33 105 1059 105.672 1059 106.5Z" fill="#1995FC"/>
<path d="M1143 106.5C1143 107.328 1142.33 108 1141.5 108C1140.67 108 1140 107.328 1140 106.5C1140 105.672 1140.67 105 1141.5 105C1142.33 105 1143 105.672 1143 106.5Z" fill="#1995FC"/>
<path d="M1227 106.5C1227 107.328 1226.33 108 1225.5 108C1224.67 108 1224 107.328 1224 106.5C1224 105.672 1224.67 105 1225.5 105C1226.33 105 1227 105.672 1227 106.5Z" fill="#1995FC"/>
<path d="M1311 106.5C1311 107.328 1310.33 108 1309.5 108C1308.67 108 1308 107.328 1308 106.5C1308 105.672 1308.67 105 1309.5 105C1310.33 105 1311 105.672 1311 106.5Z" fill="#1995FC"/>
<path d="M1395 106.5C1395 107.328 1394.33 108 1393.5 108C1392.67 108 1392 107.328 1392 106.5C1392 105.672 1392.67 105 1393.5 105C1394.33 105 1395 105.672 1395 106.5Z" fill="#1995FC"/>
<path d="M51 190.5C51 191.328 50.3284 192 49.5 192C48.6716 192 48 191.328 48 190.5C48 189.672 48.6716 189 49.5 189C50.3284 189 51 189.672 51 190.5Z" fill="#1995FC"/>
<path d="M135 190.5C135 191.328 134.328 192 133.5 192C132.672 192 132 191.328 132 190.5C132 189.672 132.672 189 133.5 189C134.328 189 135 189.672 135 190.5Z" fill="#1995FC"/>
<path d="M219 190.5C219 191.328 218.328 192 217.5 192C216.672 192 216 191.328 216 190.5C216 189.672 216.672 189 217.5 189C218.328 189 219 189.672 219 190.5Z" fill="#1995FC"/>
<path d="M303 190.5C303 191.328 302.328 192 301.5 192C300.672 192 300 191.328 300 190.5C300 189.672 300.672 189 301.5 189C302.328 189 303 189.672 303 190.5Z" fill="#1995FC"/>
<path d="M387 190.5C387 191.328 386.328 192 385.5 192C384.672 192 384 191.328 384 190.5C384 189.672 384.672 189 385.5 189C386.328 189 387 189.672 387 190.5Z" fill="#1995FC"/>
<path d="M471 190.5C471 191.328 470.328 192 469.5 192C468.672 192 468 191.328 468 190.5C468 189.672 468.672 189 469.5 189C470.328 189 471 189.672 471 190.5Z" fill="#1995FC"/>
<path d="M555 190.5C555 191.328 554.328 192 553.5 192C552.672 192 552 191.328 552 190.5C552 189.672 552.672 189 553.5 189C554.328 189 555 189.672 555 190.5Z" fill="#1995FC"/>
<path d="M639 190.5C639 191.328 638.328 192 637.5 192C636.672 192 636 191.328 636 190.5C636 189.672 636.672 189 637.5 189C638.328 189 639 189.672 639 190.5Z" fill="#1995FC"/>
<path d="M723 190.5C723 191.328 722.328 192 721.5 192C720.672 192 720 191.328 720 190.5C720 189.672 720.672 189 721.5 189C722.328 189 723 189.672 723 190.5Z" fill="#1995FC"/>
<path d="M807 190.5C807 191.328 806.328 192 805.5 192C804.672 192 804 191.328 804 190.5C804 189.672 804.672 189 805.5 189C806.328 189 807 189.672 807 190.5Z" fill="#1995FC"/>
<path d="M891 190.5C891 191.328 890.328 192 889.5 192C888.672 192 888 191.328 888 190.5C888 189.672 888.672 189 889.5 189C890.328 189 891 189.672 891 190.5Z" fill="#1995FC"/>
<path d="M975 190.5C975 191.328 974.328 192 973.5 192C972.672 192 972 191.328 972 190.5C972 189.672 972.672 189 973.5 189C974.328 189 975 189.672 975 190.5Z" fill="#1995FC"/>
<path d="M1059 190.5C1059 191.328 1058.33 192 1057.5 192C1056.67 192 1056 191.328 1056 190.5C1056 189.672 1056.67 189 1057.5 189C1058.33 189 1059 189.672 1059 190.5Z" fill="#1995FC"/>
<path d="M1143 190.5C1143 191.328 1142.33 192 1141.5 192C1140.67 192 1140 191.328 1140 190.5C1140 189.672 1140.67 189 1141.5 189C1142.33 189 1143 189.672 1143 190.5Z" fill="#1995FC"/>
<path d="M1227 190.5C1227 191.328 1226.33 192 1225.5 192C1224.67 192 1224 191.328 1224 190.5C1224 189.672 1224.67 189 1225.5 189C1226.33 189 1227 189.672 1227 190.5Z" fill="#1995FC"/>
<path d="M1311 190.5C1311 191.328 1310.33 192 1309.5 192C1308.67 192 1308 191.328 1308 190.5C1308 189.672 1308.67 189 1309.5 189C1310.33 189 1311 189.672 1311 190.5Z" fill="#1995FC"/>
<path d="M1395 190.5C1395 191.328 1394.33 192 1393.5 192C1392.67 192 1392 191.328 1392 190.5C1392 189.672 1392.67 189 1393.5 189C1394.33 189 1395 189.672 1395 190.5Z" fill="#1995FC"/>
<path d="M51 274.5C51 275.328 50.3284 276 49.5 276C48.6716 276 48 275.328 48 274.5C48 273.672 48.6716 273 49.5 273C50.3284 273 51 273.672 51 274.5Z" fill="#1995FC"/>
<path d="M135 274.5C135 275.328 134.328 276 133.5 276C132.672 276 132 275.328 132 274.5C132 273.672 132.672 273 133.5 273C134.328 273 135 273.672 135 274.5Z" fill="#1995FC"/>
<path d="M219 274.5C219 275.328 218.328 276 217.5 276C216.672 276 216 275.328 216 274.5C216 273.672 216.672 273 217.5 273C218.328 273 219 273.672 219 274.5Z" fill="#1995FC"/>
<path d="M303 274.5C303 275.328 302.328 276 301.5 276C300.672 276 300 275.328 300 274.5C300 273.672 300.672 273 301.5 273C302.328 273 303 273.672 303 274.5Z" fill="#1995FC"/>
<path d="M387 274.5C387 275.328 386.328 276 385.5 276C384.672 276 384 275.328 384 274.5C384 273.672 384.672 273 385.5 273C386.328 273 387 273.672 387 274.5Z" fill="#1995FC"/>
<path d="M471 274.5C471 275.328 470.328 276 469.5 276C468.672 276 468 275.328 468 274.5C468 273.672 468.672 273 469.5 273C470.328 273 471 273.672 471 274.5Z" fill="#1995FC"/>
<path d="M555 274.5C555 275.328 554.328 276 553.5 276C552.672 276 552 275.328 552 274.5C552 273.672 552.672 273 553.5 273C554.328 273 555 273.672 555 274.5Z" fill="#1995FC"/>
<path d="M639 274.5C639 275.328 638.328 276 637.5 276C636.672 276 636 275.328 636 274.5C636 273.672 636.672 273 637.5 273C638.328 273 639 273.672 639 274.5Z" fill="#1995FC"/>
<path d="M723 274.5C723 275.328 722.328 276 721.5 276C720.672 276 720 275.328 720 274.5C720 273.672 720.672 273 721.5 273C722.328 273 723 273.672 723 274.5Z" fill="#1995FC"/>
<path d="M807 274.5C807 275.328 806.328 276 805.5 276C804.672 276 804 275.328 804 274.5C804 273.672 804.672 273 805.5 273C806.328 273 807 273.672 807 274.5Z" fill="#1995FC"/>
<path d="M891 274.5C891 275.328 890.328 276 889.5 276C888.672 276 888 275.328 888 274.5C888 273.672 888.672 273 889.5 273C890.328 273 891 273.672 891 274.5Z" fill="#1995FC"/>
<path d="M975 274.5C975 275.328 974.328 276 973.5 276C972.672 276 972 275.328 972 274.5C972 273.672 972.672 273 973.5 273C974.328 273 975 273.672 975 274.5Z" fill="#1995FC"/>
<path d="M1059 274.5C1059 275.328 1058.33 276 1057.5 276C1056.67 276 1056 275.328 1056 274.5C1056 273.672 1056.67 273 1057.5 273C1058.33 273 1059 273.672 1059 274.5Z" fill="#1995FC"/>
<path d="M1143 274.5C1143 275.328 1142.33 276 1141.5 276C1140.67 276 1140 275.328 1140 274.5C1140 273.672 1140.67 273 1141.5 273C1142.33 273 1143 273.672 1143 274.5Z" fill="#1995FC"/>
<path d="M1227 274.5C1227 275.328 1226.33 276 1225.5 276C1224.67 276 1224 275.328 1224 274.5C1224 273.672 1224.67 273 1225.5 273C1226.33 273 1227 273.672 1227 274.5Z" fill="#1995FC"/>
<path d="M1311 274.5C1311 275.328 1310.33 276 1309.5 276C1308.67 276 1308 275.328 1308 274.5C1308 273.672 1308.67 273 1309.5 273C1310.33 273 1311 273.672 1311 274.5Z" fill="#1995FC"/>
<path d="M1395 274.5C1395 275.328 1394.33 276 1393.5 276C1392.67 276 1392 275.328 1392 274.5C1392 273.672 1392.67 273 1393.5 273C1394.33 273 1395 273.672 1395 274.5Z" fill="#1995FC"/>
<path d="M51 358.5C51 359.328 50.3284 360 49.5 360C48.6716 360 48 359.328 48 358.5C48 357.672 48.6716 357 49.5 357C50.3284 357 51 357.672 51 358.5Z" fill="#1995FC"/>
<path d="M135 358.5C135 359.328 134.328 360 133.5 360C132.672 360 132 359.328 132 358.5C132 357.672 132.672 357 133.5 357C134.328 357 135 357.672 135 358.5Z" fill="#1995FC"/>
<path d="M219 358.5C219 359.328 218.328 360 217.5 360C216.672 360 216 359.328 216 358.5C216 357.672 216.672 357 217.5 357C218.328 357 219 357.672 219 358.5Z" fill="#1995FC"/>
<path d="M303 358.5C303 359.328 302.328 360 301.5 360C300.672 360 300 359.328 300 358.5C300 357.672 300.672 357 301.5 357C302.328 357 303 357.672 303 358.5Z" fill="#1995FC"/>
<path d="M387 358.5C387 359.328 386.328 360 385.5 360C384.672 360 384 359.328 384 358.5C384 357.672 384.672 357 385.5 357C386.328 357 387 357.672 387 358.5Z" fill="#1995FC"/>
<path d="M471 358.5C471 359.328 470.328 360 469.5 360C468.672 360 468 359.328 468 358.5C468 357.672 468.672 357 469.5 357C470.328 357 471 357.672 471 358.5Z" fill="#1995FC"/>
<path d="M555 358.5C555 359.328 554.328 360 553.5 360C552.672 360 552 359.328 552 358.5C552 357.672 552.672 357 553.5 357C554.328 357 555 357.672 555 358.5Z" fill="#1995FC"/>
<path d="M639 358.5C639 359.328 638.328 360 637.5 360C636.672 360 636 359.328 636 358.5C636 357.672 636.672 357 637.5 357C638.328 357 639 357.672 639 358.5Z" fill="#1995FC"/>
<path d="M723 358.5C723 359.328 722.328 360 721.5 360C720.672 360 720 359.328 720 358.5C720 357.672 720.672 357 721.5 357C722.328 357 723 357.672 723 358.5Z" fill="#1995FC"/>
<path d="M807 358.5C807 359.328 806.328 360 805.5 360C804.672 360 804 359.328 804 358.5C804 357.672 804.672 357 805.5 357C806.328 357 807 357.672 807 358.5Z" fill="#1995FC"/>
<path d="M891 358.5C891 359.328 890.328 360 889.5 360C888.672 360 888 359.328 888 358.5C888 357.672 888.672 357 889.5 357C890.328 357 891 357.672 891 358.5Z" fill="#1995FC"/>
<path d="M975 358.5C975 359.328 974.328 360 973.5 360C972.672 360 972 359.328 972 358.5C972 357.672 972.672 357 973.5 357C974.328 357 975 357.672 975 358.5Z" fill="#1995FC"/>
<path d="M1059 358.5C1059 359.328 1058.33 360 1057.5 360C1056.67 360 1056 359.328 1056 358.5C1056 357.672 1056.67 357 1057.5 357C1058.33 357 1059 357.672 1059 358.5Z" fill="#1995FC"/>
<path d="M1143 358.5C1143 359.328 1142.33 360 1141.5 360C1140.67 360 1140 359.328 1140 358.5C1140 357.672 1140.67 357 1141.5 357C1142.33 357 1143 357.672 1143 358.5Z" fill="#1995FC"/>
<path d="M1227 358.5C1227 359.328 1226.33 360 1225.5 360C1224.67 360 1224 359.328 1224 358.5C1224 357.672 1224.67 357 1225.5 357C1226.33 357 1227 357.672 1227 358.5Z" fill="#1995FC"/>
<path d="M1311 358.5C1311 359.328 1310.33 360 1309.5 360C1308.67 360 1308 359.328 1308 358.5C1308 357.672 1308.67 357 1309.5 357C1310.33 357 1311 357.672 1311 358.5Z" fill="#1995FC"/>
<path d="M1395 358.5C1395 359.328 1394.33 360 1393.5 360C1392.67 360 1392 359.328 1392 358.5C1392 357.672 1392.67 357 1393.5 357C1394.33 357 1395 357.672 1395 358.5Z" fill="#1995FC"/>
<path d="M51 442.5C51 443.328 50.3284 444 49.5 444C48.6716 444 48 443.328 48 442.5C48 441.672 48.6716 441 49.5 441C50.3284 441 51 441.672 51 442.5Z" fill="#1995FC"/>
<path d="M135 442.5C135 443.328 134.328 444 133.5 444C132.672 444 132 443.328 132 442.5C132 441.672 132.672 441 133.5 441C134.328 441 135 441.672 135 442.5Z" fill="#1995FC"/>
<path d="M219 442.5C219 443.328 218.328 444 217.5 444C216.672 444 216 443.328 216 442.5C216 441.672 216.672 441 217.5 441C218.328 441 219 441.672 219 442.5Z" fill="#1995FC"/>
<path d="M303 442.5C303 443.328 302.328 444 301.5 444C300.672 444 300 443.328 300 442.5C300 441.672 300.672 441 301.5 441C302.328 441 303 441.672 303 442.5Z" fill="#1995FC"/>
<path d="M387 442.5C387 443.328 386.328 444 385.5 444C384.672 444 384 443.328 384 442.5C384 441.672 384.672 441 385.5 441C386.328 441 387 441.672 387 442.5Z" fill="#1995FC"/>
<path d="M471 442.5C471 443.328 470.328 444 469.5 444C468.672 444 468 443.328 468 442.5C468 441.672 468.672 441 469.5 441C470.328 441 471 441.672 471 442.5Z" fill="#1995FC"/>
<path d="M555 442.5C555 443.328 554.328 444 553.5 444C552.672 444 552 443.328 552 442.5C552 441.672 552.672 441 553.5 441C554.328 441 555 441.672 555 442.5Z" fill="#1995FC"/>
<path d="M639 442.5C639 443.328 638.328 444 637.5 444C636.672 444 636 443.328 636 442.5C636 441.672 636.672 441 637.5 441C638.328 441 639 441.672 639 442.5Z" fill="#1995FC"/>
<path d="M723 442.5C723 443.328 722.328 444 721.5 444C720.672 444 720 443.328 720 442.5C720 441.672 720.672 441 721.5 441C722.328 441 723 441.672 723 442.5Z" fill="#1995FC"/>
<path d="M807 442.5C807 443.328 806.328 444 805.5 444C804.672 444 804 443.328 804 442.5C804 441.672 804.672 441 805.5 441C806.328 441 807 441.672 807 442.5Z" fill="#1995FC"/>
<path d="M891 442.5C891 443.328 890.328 444 889.5 444C888.672 444 888 443.328 888 442.5C888 441.672 888.672 441 889.5 441C890.328 441 891 441.672 891 442.5Z" fill="#1995FC"/>
<path d="M975 442.5C975 443.328 974.328 444 973.5 444C972.672 444 972 443.328 972 442.5C972 441.672 972.672 441 973.5 441C974.328 441 975 441.672 975 442.5Z" fill="#1995FC"/>
<path d="M1059 442.5C1059 443.328 1058.33 444 1057.5 444C1056.67 444 1056 443.328 1056 442.5C1056 441.672 1056.67 441 1057.5 441C1058.33 441 1059 441.672 1059 442.5Z" fill="#1995FC"/>
<path d="M1143 442.5C1143 443.328 1142.33 444 1141.5 444C1140.67 444 1140 443.328 1140 442.5C1140 441.672 1140.67 441 1141.5 441C1142.33 441 1143 441.672 1143 442.5Z" fill="#1995FC"/>
<path d="M1227 442.5C1227 443.328 1226.33 444 1225.5 444C1224.67 444 1224 443.328 1224 442.5C1224 441.672 1224.67 441 1225.5 441C1226.33 441 1227 441.672 1227 442.5Z" fill="#1995FC"/>
<path d="M1311 442.5C1311 443.328 1310.33 444 1309.5 444C1308.67 444 1308 443.328 1308 442.5C1308 441.672 1308.67 441 1309.5 441C1310.33 441 1311 441.672 1311 442.5Z" fill="#1995FC"/>
<path d="M1395 442.5C1395 443.328 1394.33 444 1393.5 444C1392.67 444 1392 443.328 1392 442.5C1392 441.672 1392.67 441 1393.5 441C1394.33 441 1395 441.672 1395 442.5Z" fill="#1995FC"/>
<path d="M51 526.5C51 527.328 50.3284 528 49.5 528C48.6716 528 48 527.328 48 526.5C48 525.672 48.6716 525 49.5 525C50.3284 525 51 525.672 51 526.5Z" fill="#1995FC"/>
<path d="M135 526.5C135 527.328 134.328 528 133.5 528C132.672 528 132 527.328 132 526.5C132 525.672 132.672 525 133.5 525C134.328 525 135 525.672 135 526.5Z" fill="#1995FC"/>
<path d="M219 526.5C219 527.328 218.328 528 217.5 528C216.672 528 216 527.328 216 526.5C216 525.672 216.672 525 217.5 525C218.328 525 219 525.672 219 526.5Z" fill="#1995FC"/>
<path d="M303 526.5C303 527.328 302.328 528 301.5 528C300.672 528 300 527.328 300 526.5C300 525.672 300.672 525 301.5 525C302.328 525 303 525.672 303 526.5Z" fill="#1995FC"/>
<path d="M387 526.5C387 527.328 386.328 528 385.5 528C384.672 528 384 527.328 384 526.5C384 525.672 384.672 525 385.5 525C386.328 525 387 525.672 387 526.5Z" fill="#1995FC"/>
<path d="M471 526.5C471 527.328 470.328 528 469.5 528C468.672 528 468 527.328 468 526.5C468 525.672 468.672 525 469.5 525C470.328 525 471 525.672 471 526.5Z" fill="#1995FC"/>
<path d="M555 526.5C555 527.328 554.328 528 553.5 528C552.672 528 552 527.328 552 526.5C552 525.672 552.672 525 553.5 525C554.328 525 555 525.672 555 526.5Z" fill="#1995FC"/>
<path d="M639 526.5C639 527.328 638.328 528 637.5 528C636.672 528 636 527.328 636 526.5C636 525.672 636.672 525 637.5 525C638.328 525 639 525.672 639 526.5Z" fill="#1995FC"/>
<path d="M723 526.5C723 527.328 722.328 528 721.5 528C720.672 528 720 527.328 720 526.5C720 525.672 720.672 525 721.5 525C722.328 525 723 525.672 723 526.5Z" fill="#1995FC"/>
<path d="M807 526.5C807 527.328 806.328 528 805.5 528C804.672 528 804 527.328 804 526.5C804 525.672 804.672 525 805.5 525C806.328 525 807 525.672 807 526.5Z" fill="#1995FC"/>
<path d="M891 526.5C891 527.328 890.328 528 889.5 528C888.672 528 888 527.328 888 526.5C888 525.672 888.672 525 889.5 525C890.328 525 891 525.672 891 526.5Z" fill="#1995FC"/>
<path d="M975 526.5C975 527.328 974.328 528 973.5 528C972.672 528 972 527.328 972 526.5C972 525.672 972.672 525 973.5 525C974.328 525 975 525.672 975 526.5Z" fill="#1995FC"/>
<path d="M1059 526.5C1059 527.328 1058.33 528 1057.5 528C1056.67 528 1056 527.328 1056 526.5C1056 525.672 1056.67 525 1057.5 525C1058.33 525 1059 525.672 1059 526.5Z" fill="#1995FC"/>
<path d="M1143 526.5C1143 527.328 1142.33 528 1141.5 528C1140.67 528 1140 527.328 1140 526.5C1140 525.672 1140.67 525 1141.5 525C1142.33 525 1143 525.672 1143 526.5Z" fill="#1995FC"/>
<path d="M1227 526.5C1227 527.328 1226.33 528 1225.5 528C1224.67 528 1224 527.328 1224 526.5C1224 525.672 1224.67 525 1225.5 525C1226.33 525 1227 525.672 1227 526.5Z" fill="#1995FC"/>
<path d="M1311 526.5C1311 527.328 1310.33 528 1309.5 528C1308.67 528 1308 527.328 1308 526.5C1308 525.672 1308.67 525 1309.5 525C1310.33 525 1311 525.672 1311 526.5Z" fill="#1995FC"/>
<path d="M1395 526.5C1395 527.328 1394.33 528 1393.5 528C1392.67 528 1392 527.328 1392 526.5C1392 525.672 1392.67 525 1393.5 525C1394.33 525 1395 525.672 1395 526.5Z" fill="#1995FC"/>
<path d="M51 610.5C51 611.328 50.3284 612 49.5 612C48.6716 612 48 611.328 48 610.5C48 609.672 48.6716 609 49.5 609C50.3284 609 51 609.672 51 610.5Z" fill="#1995FC"/>
<path d="M135 610.5C135 611.328 134.328 612 133.5 612C132.672 612 132 611.328 132 610.5C132 609.672 132.672 609 133.5 609C134.328 609 135 609.672 135 610.5Z" fill="#1995FC"/>
<path d="M219 610.5C219 611.328 218.328 612 217.5 612C216.672 612 216 611.328 216 610.5C216 609.672 216.672 609 217.5 609C218.328 609 219 609.672 219 610.5Z" fill="#1995FC"/>
<path d="M303 610.5C303 611.328 302.328 612 301.5 612C300.672 612 300 611.328 300 610.5C300 609.672 300.672 609 301.5 609C302.328 609 303 609.672 303 610.5Z" fill="#1995FC"/>
<path d="M387 610.5C387 611.328 386.328 612 385.5 612C384.672 612 384 611.328 384 610.5C384 609.672 384.672 609 385.5 609C386.328 609 387 609.672 387 610.5Z" fill="#1995FC"/>
<path d="M471 610.5C471 611.328 470.328 612 469.5 612C468.672 612 468 611.328 468 610.5C468 609.672 468.672 609 469.5 609C470.328 609 471 609.672 471 610.5Z" fill="#1995FC"/>
<path d="M555 610.5C555 611.328 554.328 612 553.5 612C552.672 612 552 611.328 552 610.5C552 609.672 552.672 609 553.5 609C554.328 609 555 609.672 555 610.5Z" fill="#1995FC"/>
<path d="M639 610.5C639 611.328 638.328 612 637.5 612C636.672 612 636 611.328 636 610.5C636 609.672 636.672 609 637.5 609C638.328 609 639 609.672 639 610.5Z" fill="#1995FC"/>
<path d="M723 610.5C723 611.328 722.328 612 721.5 612C720.672 612 720 611.328 720 610.5C720 609.672 720.672 609 721.5 609C722.328 609 723 609.672 723 610.5Z" fill="#1995FC"/>
<path d="M807 610.5C807 611.328 806.328 612 805.5 612C804.672 612 804 611.328 804 610.5C804 609.672 804.672 609 805.5 609C806.328 609 807 609.672 807 610.5Z" fill="#1995FC"/>
<path d="M891 610.5C891 611.328 890.328 612 889.5 612C888.672 612 888 611.328 888 610.5C888 609.672 888.672 609 889.5 609C890.328 609 891 609.672 891 610.5Z" fill="#1995FC"/>
<path d="M975 610.5C975 611.328 974.328 612 973.5 612C972.672 612 972 611.328 972 610.5C972 609.672 972.672 609 973.5 609C974.328 609 975 609.672 975 610.5Z" fill="#1995FC"/>
<path d="M1059 610.5C1059 611.328 1058.33 612 1057.5 612C1056.67 612 1056 611.328 1056 610.5C1056 609.672 1056.67 609 1057.5 609C1058.33 609 1059 609.672 1059 610.5Z" fill="#1995FC"/>
<path d="M1143 610.5C1143 611.328 1142.33 612 1141.5 612C1140.67 612 1140 611.328 1140 610.5C1140 609.672 1140.67 609 1141.5 609C1142.33 609 1143 609.672 1143 610.5Z" fill="#1995FC"/>
<path d="M1227 610.5C1227 611.328 1226.33 612 1225.5 612C1224.67 612 1224 611.328 1224 610.5C1224 609.672 1224.67 609 1225.5 609C1226.33 609 1227 609.672 1227 610.5Z" fill="#1995FC"/>
<path d="M1311 610.5C1311 611.328 1310.33 612 1309.5 612C1308.67 612 1308 611.328 1308 610.5C1308 609.672 1308.67 609 1309.5 609C1310.33 609 1311 609.672 1311 610.5Z" fill="#1995FC"/>
<path d="M1395 610.5C1395 611.328 1394.33 612 1393.5 612C1392.67 612 1392 611.328 1392 610.5C1392 609.672 1392.67 609 1393.5 609C1394.33 609 1395 609.672 1395 610.5Z" fill="#1995FC"/>
<path d="M51 694.5C51 695.328 50.3284 696 49.5 696C48.6716 696 48 695.328 48 694.5C48 693.672 48.6716 693 49.5 693C50.3284 693 51 693.672 51 694.5Z" fill="#1995FC"/>
<path d="M135 694.5C135 695.328 134.328 696 133.5 696C132.672 696 132 695.328 132 694.5C132 693.672 132.672 693 133.5 693C134.328 693 135 693.672 135 694.5Z" fill="#1995FC"/>
<path d="M219 694.5C219 695.328 218.328 696 217.5 696C216.672 696 216 695.328 216 694.5C216 693.672 216.672 693 217.5 693C218.328 693 219 693.672 219 694.5Z" fill="#1995FC"/>
<path d="M303 694.5C303 695.328 302.328 696 301.5 696C300.672 696 300 695.328 300 694.5C300 693.672 300.672 693 301.5 693C302.328 693 303 693.672 303 694.5Z" fill="#1995FC"/>
<path d="M387 694.5C387 695.328 386.328 696 385.5 696C384.672 696 384 695.328 384 694.5C384 693.672 384.672 693 385.5 693C386.328 693 387 693.672 387 694.5Z" fill="#1995FC"/>
<path d="M471 694.5C471 695.328 470.328 696 469.5 696C468.672 696 468 695.328 468 694.5C468 693.672 468.672 693 469.5 693C470.328 693 471 693.672 471 694.5Z" fill="#1995FC"/>
<path d="M555 694.5C555 695.328 554.328 696 553.5 696C552.672 696 552 695.328 552 694.5C552 693.672 552.672 693 553.5 693C554.328 693 555 693.672 555 694.5Z" fill="#1995FC"/>
<path d="M639 694.5C639 695.328 638.328 696 637.5 696C636.672 696 636 695.328 636 694.5C636 693.672 636.672 693 637.5 693C638.328 693 639 693.672 639 694.5Z" fill="#1995FC"/>
<path d="M723 694.5C723 695.328 722.328 696 721.5 696C720.672 696 720 695.328 720 694.5C720 693.672 720.672 693 721.5 693C722.328 693 723 693.672 723 694.5Z" fill="#1995FC"/>
<path d="M807 694.5C807 695.328 806.328 696 805.5 696C804.672 696 804 695.328 804 694.5C804 693.672 804.672 693 805.5 693C806.328 693 807 693.672 807 694.5Z" fill="#1995FC"/>
<path d="M891 694.5C891 695.328 890.328 696 889.5 696C888.672 696 888 695.328 888 694.5C888 693.672 888.672 693 889.5 693C890.328 693 891 693.672 891 694.5Z" fill="#1995FC"/>
<path d="M975 694.5C975 695.328 974.328 696 973.5 696C972.672 696 972 695.328 972 694.5C972 693.672 972.672 693 973.5 693C974.328 693 975 693.672 975 694.5Z" fill="#1995FC"/>
<path d="M1059 694.5C1059 695.328 1058.33 696 1057.5 696C1056.67 696 1056 695.328 1056 694.5C1056 693.672 1056.67 693 1057.5 693C1058.33 693 1059 693.672 1059 694.5Z" fill="#1995FC"/>
<path d="M1143 694.5C1143 695.328 1142.33 696 1141.5 696C1140.67 696 1140 695.328 1140 694.5C1140 693.672 1140.67 693 1141.5 693C1142.33 693 1143 693.672 1143 694.5Z" fill="#1995FC"/>
<path d="M1227 694.5C1227 695.328 1226.33 696 1225.5 696C1224.67 696 1224 695.328 1224 694.5C1224 693.672 1224.67 693 1225.5 693C1226.33 693 1227 693.672 1227 694.5Z" fill="#1995FC"/>
<path d="M1311 694.5C1311 695.328 1310.33 696 1309.5 696C1308.67 696 1308 695.328 1308 694.5C1308 693.672 1308.67 693 1309.5 693C1310.33 693 1311 693.672 1311 694.5Z" fill="#1995FC"/>
<path d="M1395 694.5C1395 695.328 1394.33 696 1393.5 696C1392.67 696 1392 695.328 1392 694.5C1392 693.672 1392.67 693 1393.5 693C1394.33 693 1395 693.672 1395 694.5Z" fill="#1995FC"/>
<path d="M51 778.5C51 779.328 50.3284 780 49.5 780C48.6716 780 48 779.328 48 778.5C48 777.672 48.6716 777 49.5 777C50.3284 777 51 777.672 51 778.5Z" fill="#1995FC"/>
<path d="M135 778.5C135 779.328 134.328 780 133.5 780C132.672 780 132 779.328 132 778.5C132 777.672 132.672 777 133.5 777C134.328 777 135 777.672 135 778.5Z" fill="#1995FC"/>
<path d="M219 778.5C219 779.328 218.328 780 217.5 780C216.672 780 216 779.328 216 778.5C216 777.672 216.672 777 217.5 777C218.328 777 219 777.672 219 778.5Z" fill="#1995FC"/>
<path d="M303 778.5C303 779.328 302.328 780 301.5 780C300.672 780 300 779.328 300 778.5C300 777.672 300.672 777 301.5 777C302.328 777 303 777.672 303 778.5Z" fill="#1995FC"/>
<path d="M387 778.5C387 779.328 386.328 780 385.5 780C384.672 780 384 779.328 384 778.5C384 777.672 384.672 777 385.5 777C386.328 777 387 777.672 387 778.5Z" fill="#1995FC"/>
<path d="M471 778.5C471 779.328 470.328 780 469.5 780C468.672 780 468 779.328 468 778.5C468 777.672 468.672 777 469.5 777C470.328 777 471 777.672 471 778.5Z" fill="#1995FC"/>
<path d="M555 778.5C555 779.328 554.328 780 553.5 780C552.672 780 552 779.328 552 778.5C552 777.672 552.672 777 553.5 777C554.328 777 555 777.672 555 778.5Z" fill="#1995FC"/>
<path d="M639 778.5C639 779.328 638.328 780 637.5 780C636.672 780 636 779.328 636 778.5C636 777.672 636.672 777 637.5 777C638.328 777 639 777.672 639 778.5Z" fill="#1995FC"/>
<path d="M723 778.5C723 779.328 722.328 780 721.5 780C720.672 780 720 779.328 720 778.5C720 777.672 720.672 777 721.5 777C722.328 777 723 777.672 723 778.5Z" fill="#1995FC"/>
<path d="M807 778.5C807 779.328 806.328 780 805.5 780C804.672 780 804 779.328 804 778.5C804 777.672 804.672 777 805.5 777C806.328 777 807 777.672 807 778.5Z" fill="#1995FC"/>
<path d="M891 778.5C891 779.328 890.328 780 889.5 780C888.672 780 888 779.328 888 778.5C888 777.672 888.672 777 889.5 777C890.328 777 891 777.672 891 778.5Z" fill="#1995FC"/>
<path d="M975 778.5C975 779.328 974.328 780 973.5 780C972.672 780 972 779.328 972 778.5C972 777.672 972.672 777 973.5 777C974.328 777 975 777.672 975 778.5Z" fill="#1995FC"/>
<path d="M1059 778.5C1059 779.328 1058.33 780 1057.5 780C1056.67 780 1056 779.328 1056 778.5C1056 777.672 1056.67 777 1057.5 777C1058.33 777 1059 777.672 1059 778.5Z" fill="#1995FC"/>
<path d="M1143 778.5C1143 779.328 1142.33 780 1141.5 780C1140.67 780 1140 779.328 1140 778.5C1140 777.672 1140.67 777 1141.5 777C1142.33 777 1143 777.672 1143 778.5Z" fill="#1995FC"/>
<path d="M1227 778.5C1227 779.328 1226.33 780 1225.5 780C1224.67 780 1224 779.328 1224 778.5C1224 777.672 1224.67 777 1225.5 777C1226.33 777 1227 777.672 1227 778.5Z" fill="#1995FC"/>
<path d="M1311 778.5C1311 779.328 1310.33 780 1309.5 780C1308.67 780 1308 779.328 1308 778.5C1308 777.672 1308.67 777 1309.5 777C1310.33 777 1311 777.672 1311 778.5Z" fill="#1995FC"/>
<path d="M1395 778.5C1395 779.328 1394.33 780 1393.5 780C1392.67 780 1392 779.328 1392 778.5C1392 777.672 1392.67 777 1393.5 777C1394.33 777 1395 777.672 1395 778.5Z" fill="#1995FC"/>
</g>
<rect x="55" y="43" width="1345" height="777" stroke="#1C1D1E" stroke-width="131"/>
<g filter="url(#filter1_f_3001_29237)">
<ellipse cx="1204" cy="372" rx="336" ry="739" fill="#1995FC"/>
</g>
<g filter="url(#filter2_f_3001_29237)">
<rect x="-77" y="-78" width="1609" height="952" rx="79" stroke="#1C1D1E" stroke-width="410"/>
</g>
<defs>
<filter id="filter0_f_3001_29237" x="-439" y="-457" width="2319" height="1714" filterUnits="userSpaceOnUse" color-interpolation-filters="sRGB">
<feFlood flood-opacity="0" result="BackgroundImageFix"/>
<feBlend mode="normal" in="SourceGraphic" in2="BackgroundImageFix" result="shape"/>
<feGaussianBlur stdDeviation="75" result="effect1_foregroundBlur_3001_29237"/>
</filter>
<filter id="filter1_f_3001_29237" x="313" y="-922" width="1782" height="2588" filterUnits="userSpaceOnUse" color-interpolation-filters="sRGB">
<feFlood flood-opacity="0" result="BackgroundImageFix"/>
<feBlend mode="normal" in="SourceGraphic" in2="BackgroundImageFix" result="shape"/>
<feGaussianBlur stdDeviation="277.5" result="effect1_foregroundBlur_3001_29237"/>
</filter>
<filter id="filter2_f_3001_29237" x="-432" y="-433" width="2319" height="1662" filterUnits="userSpaceOnUse" color-interpolation-filters="sRGB">
<feFlood flood-opacity="0" result="BackgroundImageFix"/>
<feBlend mode="normal" in="SourceGraphic" in2="BackgroundImageFix" result="shape"/>
<feGaussianBlur stdDeviation="75" result="effect1_foregroundBlur_3001_29237"/>
</filter>
</defs>
</svg>
