<svg width="360" height="1123" viewBox="0 0 360 1123" fill="none" xmlns="http://www.w3.org/2000/svg">
<circle cx="34" cy="571" r="1" fill="#5D5D61" fill-opacity="0.5"/>
<circle cx="76" cy="571" r="1" fill="#5D5D61" fill-opacity="0.5"/>
<circle cx="118" cy="571" r="1" fill="#5D5D61" fill-opacity="0.5"/>
<circle cx="160" cy="571" r="1" fill="#5D5D61" fill-opacity="0.5"/>
<circle cx="202" cy="571" r="1" fill="#5D5D61" fill-opacity="0.5"/>
<circle cx="244" cy="571" r="1" fill="#5D5D61" fill-opacity="0.5"/>
<circle cx="286" cy="571" r="1" fill="#5D5D61" fill-opacity="0.5"/>
<circle cx="328" cy="571" r="1" fill="#5D5D61" fill-opacity="0.5"/>
<circle cx="34" cy="613" r="1" fill="#5D5D61" fill-opacity="0.5"/>
<circle cx="76" cy="613" r="1" fill="#5D5D61" fill-opacity="0.5"/>
<circle cx="118" cy="613" r="1" fill="#5D5D61" fill-opacity="0.5"/>
<circle cx="160" cy="613" r="1" fill="#5D5D61" fill-opacity="0.5"/>
<circle cx="202" cy="613" r="1" fill="#5D5D61" fill-opacity="0.5"/>
<circle cx="244" cy="613" r="1" fill="#5D5D61" fill-opacity="0.5"/>
<circle cx="286" cy="613" r="1" fill="#5D5D61" fill-opacity="0.5"/>
<circle cx="328" cy="613" r="1" fill="#5D5D61" fill-opacity="0.5"/>
<circle cx="34" cy="655" r="1" fill="#5D5D61" fill-opacity="0.5"/>
<circle cx="76" cy="655" r="1" fill="#5D5D61" fill-opacity="0.5"/>
<circle cx="118" cy="655" r="1" fill="#5D5D61" fill-opacity="0.5"/>
<circle cx="160" cy="655" r="1" fill="#5D5D61" fill-opacity="0.5"/>
<circle cx="202" cy="655" r="1" fill="#5D5D61" fill-opacity="0.5"/>
<circle cx="244" cy="655" r="1" fill="#5D5D61" fill-opacity="0.5"/>
<circle cx="286" cy="655" r="1" fill="#5D5D61" fill-opacity="0.5"/>
<circle cx="328" cy="655" r="1" fill="#5D5D61" fill-opacity="0.5"/>
<circle cx="34" cy="697" r="1" fill="#5D5D61" fill-opacity="0.5"/>
<circle cx="76" cy="697" r="1" fill="#5D5D61" fill-opacity="0.5"/>
<circle cx="118" cy="697" r="1" fill="#5D5D61" fill-opacity="0.5"/>
<circle cx="160" cy="697" r="1" fill="#5D5D61" fill-opacity="0.5"/>
<circle cx="202" cy="697" r="1" fill="#5D5D61" fill-opacity="0.5"/>
<circle cx="244" cy="697" r="1" fill="#5D5D61" fill-opacity="0.5"/>
<circle cx="286" cy="697" r="1" fill="#5D5D61" fill-opacity="0.5"/>
<circle cx="328" cy="697" r="1" fill="#5D5D61" fill-opacity="0.5"/>
<circle cx="34" cy="739" r="1" fill="#5D5D61" fill-opacity="0.5"/>
<circle cx="76" cy="739" r="1" fill="#5D5D61" fill-opacity="0.5"/>
<circle cx="118" cy="739" r="1" fill="#5D5D61" fill-opacity="0.5"/>
<circle cx="160" cy="739" r="1" fill="#5D5D61" fill-opacity="0.5"/>
<circle cx="202" cy="739" r="1" fill="#5D5D61" fill-opacity="0.5"/>
<circle cx="244" cy="739" r="1" fill="#5D5D61" fill-opacity="0.5"/>
<circle cx="286" cy="739" r="1" fill="#5D5D61" fill-opacity="0.5"/>
<circle cx="328" cy="739" r="1" fill="#5D5D61" fill-opacity="0.5"/>
<circle cx="34" cy="781" r="1" fill="#5D5D61" fill-opacity="0.5"/>
<circle cx="76" cy="781" r="1" fill="#5D5D61" fill-opacity="0.5"/>
<circle cx="118" cy="781" r="1" fill="#5D5D61" fill-opacity="0.5"/>
<circle cx="160" cy="781" r="1" fill="#5D5D61" fill-opacity="0.5"/>
<circle cx="202" cy="781" r="1" fill="#5D5D61" fill-opacity="0.5"/>
<circle cx="244" cy="781" r="1" fill="#5D5D61" fill-opacity="0.5"/>
<circle cx="286" cy="781" r="1" fill="#5D5D61" fill-opacity="0.5"/>
<circle cx="328" cy="781" r="1" fill="#5D5D61" fill-opacity="0.5"/>
<circle cx="34" cy="823" r="1" fill="#5D5D61" fill-opacity="0.5"/>
<circle cx="76" cy="823" r="1" fill="#5D5D61" fill-opacity="0.5"/>
<circle cx="118" cy="823" r="1" fill="#5D5D61" fill-opacity="0.5"/>
<circle cx="160" cy="823" r="1" fill="#5D5D61" fill-opacity="0.5"/>
<circle cx="202" cy="823" r="1" fill="#5D5D61" fill-opacity="0.5"/>
<circle cx="244" cy="823" r="1" fill="#5D5D61" fill-opacity="0.5"/>
<circle cx="286" cy="823" r="1" fill="#5D5D61" fill-opacity="0.5"/>
<circle cx="328" cy="823" r="1" fill="#5D5D61" fill-opacity="0.5"/>
<circle cx="34" cy="865" r="1" fill="#5D5D61" fill-opacity="0.5"/>
<circle cx="76" cy="865" r="1" fill="#5D5D61" fill-opacity="0.5"/>
<circle cx="118" cy="865" r="1" fill="#5D5D61" fill-opacity="0.5"/>
<circle cx="160" cy="865" r="1" fill="#5D5D61" fill-opacity="0.5"/>
<circle cx="202" cy="865" r="1" fill="#5D5D61" fill-opacity="0.5"/>
<circle cx="244" cy="865" r="1" fill="#5D5D61" fill-opacity="0.5"/>
<circle cx="286" cy="865" r="1" fill="#5D5D61" fill-opacity="0.5"/>
<circle cx="328" cy="865" r="1" fill="#5D5D61" fill-opacity="0.5"/>
<circle cx="34" cy="907" r="1" fill="#5D5D61" fill-opacity="0.5"/>
<circle cx="76" cy="907" r="1" fill="#5D5D61" fill-opacity="0.5"/>
<circle cx="118" cy="907" r="1" fill="#5D5D61" fill-opacity="0.5"/>
<circle cx="160" cy="907" r="1" fill="#5D5D61" fill-opacity="0.5"/>
<circle cx="202" cy="907" r="1" fill="#5D5D61" fill-opacity="0.5"/>
<circle cx="244" cy="907" r="1" fill="#5D5D61" fill-opacity="0.5"/>
<circle cx="286" cy="907" r="1" fill="#5D5D61" fill-opacity="0.5"/>
<circle cx="328" cy="907" r="1" fill="#5D5D61" fill-opacity="0.5"/>
<circle cx="34" cy="949" r="1" fill="#5D5D61" fill-opacity="0.5"/>
<circle cx="76" cy="949" r="1" fill="#5D5D61" fill-opacity="0.5"/>
<circle cx="118" cy="949" r="1" fill="#5D5D61" fill-opacity="0.5"/>
<circle cx="160" cy="949" r="1" fill="#5D5D61" fill-opacity="0.5"/>
<circle cx="202" cy="949" r="1" fill="#5D5D61" fill-opacity="0.5"/>
<circle cx="244" cy="949" r="1" fill="#5D5D61" fill-opacity="0.5"/>
<circle cx="286" cy="949" r="1" fill="#5D5D61" fill-opacity="0.5"/>
<circle cx="328" cy="949" r="1" fill="#5D5D61" fill-opacity="0.5"/>
<circle cx="34" cy="991" r="1" fill="#5D5D61" fill-opacity="0.5"/>
<circle cx="76" cy="991" r="1" fill="#5D5D61" fill-opacity="0.5"/>
<circle cx="118" cy="991" r="1" fill="#5D5D61" fill-opacity="0.5"/>
<circle cx="160" cy="991" r="1" fill="#5D5D61" fill-opacity="0.5"/>
<circle cx="202" cy="991" r="1" fill="#5D5D61" fill-opacity="0.5"/>
<circle cx="244" cy="991" r="1" fill="#5D5D61" fill-opacity="0.5"/>
<circle cx="286" cy="991" r="1" fill="#5D5D61" fill-opacity="0.5"/>
<circle cx="328" cy="991" r="1" fill="#5D5D61" fill-opacity="0.5"/>
<circle cx="34" cy="1033" r="1" fill="#5D5D61" fill-opacity="0.5"/>
<circle cx="76" cy="1033" r="1" fill="#5D5D61" fill-opacity="0.5"/>
<circle cx="118" cy="1033" r="1" fill="#5D5D61" fill-opacity="0.5"/>
<circle cx="160" cy="1033" r="1" fill="#5D5D61" fill-opacity="0.5"/>
<circle cx="202" cy="1033" r="1" fill="#5D5D61" fill-opacity="0.5"/>
<circle cx="244" cy="1033" r="1" fill="#5D5D61" fill-opacity="0.5"/>
<circle cx="286" cy="1033" r="1" fill="#5D5D61" fill-opacity="0.5"/>
<circle cx="328" cy="1033" r="1" fill="#5D5D61" fill-opacity="0.5"/>
<circle cx="160" cy="1075" r="1" fill="#5D5D61" fill-opacity="0.5"/>
<circle cx="202" cy="1075" r="1" fill="#5D5D61" fill-opacity="0.5"/>
<g filter="url(#filter0_f_3001_29259)">
<rect x="-153" y="360" width="667" height="926" rx="79" stroke="#1C1D1E" stroke-width="410"/>
</g>
<mask id="mask0_3001_29259" style="mask-type:alpha" maskUnits="userSpaceOnUse" x="20" y="514" width="345" height="619">
<rect x="20" y="514" width="345" height="619" rx="118.191" fill="#1995FC"/>
</mask>
<g mask="url(#mask0_3001_29259)">
<path d="M370.251 488.497C369.837 488.497 369.502 488.162 369.502 487.748C369.502 487.335 369.837 487 370.251 487C370.665 487 371 487.335 371 487.748C371 488.162 370.665 488.497 370.251 488.497Z" fill="#1995FC"/>
<path d="M370.251 530.403C369.837 530.403 369.502 530.068 369.502 529.655C369.502 529.241 369.837 528.906 370.251 528.906C370.665 528.906 371 529.241 371 529.655C371 530.068 370.665 530.403 370.251 530.403Z" fill="#1995FC"/>
<path d="M370.251 572.31C369.837 572.31 369.502 571.975 369.502 571.561C369.502 571.148 369.837 570.813 370.251 570.813C370.665 570.813 371 571.148 371 571.561C371 571.975 370.665 572.31 370.251 572.31Z" fill="#1995FC"/>
<path d="M370.251 614.216C369.837 614.216 369.502 613.881 369.502 613.468C369.502 613.054 369.837 612.719 370.251 612.719C370.665 612.719 371 613.054 371 613.468C371 613.881 370.665 614.216 370.251 614.216Z" fill="#1995FC"/>
<path d="M370.251 656.122C369.837 656.122 369.502 655.787 369.502 655.374C369.502 654.961 369.837 654.626 370.251 654.626C370.665 654.626 371 654.961 371 655.374C371 655.787 370.665 656.122 370.251 656.122Z" fill="#1995FC"/>
<path d="M370.251 698.029C369.837 698.029 369.502 697.694 369.502 697.281C369.502 696.867 369.837 696.532 370.251 696.532C370.665 696.532 371 696.867 371 697.281C371 697.694 370.665 698.029 370.251 698.029Z" fill="#1995FC"/>
<path d="M370.251 739.935C369.837 739.935 369.502 739.6 369.502 739.187C369.502 738.774 369.837 738.439 370.251 738.439C370.665 738.439 371 738.774 371 739.187C371 739.6 370.665 739.935 370.251 739.935Z" fill="#1995FC"/>
<path d="M370.251 781.842C369.837 781.842 369.502 781.507 369.502 781.094C369.502 780.68 369.837 780.345 370.251 780.345C370.665 780.345 371 780.68 371 781.094C371 781.507 370.665 781.842 370.251 781.842Z" fill="#1995FC"/>
<path d="M370.251 823.748C369.837 823.748 369.502 823.413 369.502 823C369.502 822.587 369.837 822.252 370.251 822.252C370.665 822.252 371 822.587 371 823C371 823.413 370.665 823.748 370.251 823.748Z" fill="#1995FC"/>
<path d="M370.251 865.655C369.837 865.655 369.502 865.32 369.502 864.906C369.502 864.493 369.837 864.158 370.251 864.158C370.665 864.158 371 864.493 371 864.906C371 865.32 370.665 865.655 370.251 865.655Z" fill="#1995FC"/>
<path d="M370.251 907.561C369.837 907.561 369.502 907.226 369.502 906.813C369.502 906.4 369.837 906.065 370.251 906.065C370.665 906.065 371 906.4 371 906.813C371 907.226 370.665 907.561 370.251 907.561Z" fill="#1995FC"/>
<path d="M370.251 949.468C369.837 949.468 369.502 949.133 369.502 948.719C369.502 948.306 369.837 947.971 370.251 947.971C370.665 947.971 371 948.306 371 948.719C371 949.133 370.665 949.468 370.251 949.468Z" fill="#1995FC"/>
<path d="M370.251 991.374C369.837 991.374 369.502 991.039 369.502 990.626C369.502 990.213 369.837 989.878 370.251 989.878C370.665 989.878 371 990.213 371 990.626C371 991.039 370.665 991.374 370.251 991.374Z" fill="#1995FC"/>
<path d="M370.251 1033.28C369.837 1033.28 369.502 1032.95 369.502 1032.53C369.502 1032.12 369.837 1031.78 370.251 1031.78C370.665 1031.78 371 1032.12 371 1032.53C371 1032.95 370.665 1033.28 370.251 1033.28Z" fill="#1995FC"/>
<path d="M370.251 1075.19C369.837 1075.19 369.502 1074.85 369.502 1074.44C369.502 1074.03 369.837 1073.69 370.251 1073.69C370.665 1073.69 371 1074.03 371 1074.44C371 1074.85 370.665 1075.19 370.251 1075.19Z" fill="#1995FC"/>
<path d="M370.251 1117.09C369.837 1117.09 369.502 1116.76 369.502 1116.35C369.502 1115.93 369.837 1115.6 370.251 1115.6C370.665 1115.6 371 1115.93 371 1116.35C371 1116.76 370.665 1117.09 370.251 1117.09Z" fill="#1995FC"/>
<path d="M370.251 1159C369.837 1159 369.502 1158.66 369.502 1158.25C369.502 1157.84 369.837 1157.5 370.251 1157.5C370.665 1157.5 371 1157.84 371 1158.25C371 1158.66 370.665 1159 370.251 1159Z" fill="#1995FC"/>
<path d="M328.306 488.497C327.893 488.497 327.557 488.162 327.557 487.748C327.557 487.335 327.893 487 328.306 487C328.72 487 329.055 487.335 329.055 487.748C329.055 488.162 328.72 488.497 328.306 488.497Z" fill="#1995FC"/>
<path d="M328.306 530.403C327.893 530.403 327.557 530.068 327.557 529.655C327.557 529.241 327.893 528.906 328.306 528.906C328.72 528.906 329.055 529.241 329.055 529.655C329.055 530.068 328.72 530.403 328.306 530.403Z" fill="#1995FC"/>
<path d="M328.306 572.31C327.893 572.31 327.557 571.975 327.557 571.561C327.557 571.148 327.893 570.813 328.306 570.813C328.72 570.813 329.055 571.148 329.055 571.561C329.055 571.975 328.72 572.31 328.306 572.31Z" fill="#1995FC"/>
<path d="M328.306 614.216C327.893 614.216 327.557 613.881 327.557 613.468C327.557 613.054 327.893 612.719 328.306 612.719C328.72 612.719 329.055 613.054 329.055 613.468C329.055 613.881 328.72 614.216 328.306 614.216Z" fill="#1995FC"/>
<path d="M328.306 656.122C327.893 656.122 327.557 655.787 327.557 655.374C327.557 654.961 327.893 654.626 328.306 654.626C328.72 654.626 329.055 654.961 329.055 655.374C329.055 655.787 328.72 656.122 328.306 656.122Z" fill="#1995FC"/>
<path d="M328.306 698.029C327.893 698.029 327.557 697.694 327.557 697.281C327.557 696.867 327.893 696.532 328.306 696.532C328.72 696.532 329.055 696.867 329.055 697.281C329.055 697.694 328.72 698.029 328.306 698.029Z" fill="#1995FC"/>
<path d="M328.306 739.935C327.893 739.935 327.557 739.6 327.557 739.187C327.557 738.774 327.893 738.439 328.306 738.439C328.72 738.439 329.055 738.774 329.055 739.187C329.055 739.6 328.72 739.935 328.306 739.935Z" fill="#1995FC"/>
<path d="M328.306 781.842C327.893 781.842 327.557 781.507 327.557 781.094C327.557 780.68 327.893 780.345 328.306 780.345C328.72 780.345 329.055 780.68 329.055 781.094C329.055 781.507 328.72 781.842 328.306 781.842Z" fill="#1995FC"/>
<path d="M328.306 823.748C327.893 823.748 327.557 823.413 327.557 823C327.557 822.587 327.893 822.252 328.306 822.252C328.72 822.252 329.055 822.587 329.055 823C329.055 823.413 328.72 823.748 328.306 823.748Z" fill="#1995FC"/>
<path d="M328.306 865.655C327.893 865.655 327.557 865.32 327.557 864.906C327.557 864.493 327.893 864.158 328.306 864.158C328.72 864.158 329.055 864.493 329.055 864.906C329.055 865.32 328.72 865.655 328.306 865.655Z" fill="#1995FC"/>
<path d="M328.306 907.561C327.893 907.561 327.557 907.226 327.557 906.813C327.557 906.4 327.893 906.065 328.306 906.065C328.72 906.065 329.055 906.4 329.055 906.813C329.055 907.226 328.72 907.561 328.306 907.561Z" fill="#1995FC"/>
<path d="M328.306 949.468C327.893 949.468 327.557 949.133 327.557 948.719C327.557 948.306 327.893 947.971 328.306 947.971C328.72 947.971 329.055 948.306 329.055 948.719C329.055 949.133 328.72 949.468 328.306 949.468Z" fill="#1995FC"/>
<path d="M328.306 991.374C327.893 991.374 327.557 991.039 327.557 990.626C327.557 990.213 327.893 989.878 328.306 989.878C328.72 989.878 329.055 990.213 329.055 990.626C329.055 991.039 328.72 991.374 328.306 991.374Z" fill="#1995FC"/>
<path d="M328.306 1033.28C327.893 1033.28 327.557 1032.95 327.557 1032.53C327.557 1032.12 327.893 1031.78 328.306 1031.78C328.72 1031.78 329.055 1032.12 329.055 1032.53C329.055 1032.95 328.72 1033.28 328.306 1033.28Z" fill="#1995FC"/>
<path d="M328.306 1075.19C327.893 1075.19 327.557 1074.85 327.557 1074.44C327.557 1074.03 327.893 1073.69 328.306 1073.69C328.72 1073.69 329.055 1074.03 329.055 1074.44C329.055 1074.85 328.72 1075.19 328.306 1075.19Z" fill="#1995FC"/>
<path d="M328.306 1117.09C327.893 1117.09 327.557 1116.76 327.557 1116.35C327.557 1115.93 327.893 1115.6 328.306 1115.6C328.72 1115.6 329.055 1115.93 329.055 1116.35C329.055 1116.76 328.72 1117.09 328.306 1117.09Z" fill="#1995FC"/>
<path d="M328.306 1159C327.893 1159 327.557 1158.66 327.557 1158.25C327.557 1157.84 327.893 1157.5 328.306 1157.5C328.72 1157.5 329.055 1157.84 329.055 1158.25C329.055 1158.66 328.72 1159 328.306 1159Z" fill="#1995FC"/>
<path d="M286.362 488.497C285.948 488.497 285.613 488.162 285.613 487.748C285.613 487.335 285.948 487 286.362 487C286.775 487 287.111 487.335 287.111 487.748C287.111 488.162 286.775 488.497 286.362 488.497Z" fill="#1995FC"/>
<path d="M286.362 530.403C285.948 530.403 285.613 530.068 285.613 529.655C285.613 529.241 285.948 528.906 286.362 528.906C286.775 528.906 287.111 529.241 287.111 529.655C287.111 530.068 286.775 530.403 286.362 530.403Z" fill="#1995FC"/>
<path d="M286.362 572.31C285.948 572.31 285.613 571.975 285.613 571.561C285.613 571.148 285.948 570.813 286.362 570.813C286.775 570.813 287.111 571.148 287.111 571.561C287.111 571.975 286.775 572.31 286.362 572.31Z" fill="#1995FC"/>
<path d="M286.362 614.216C285.948 614.216 285.613 613.881 285.613 613.468C285.613 613.054 285.948 612.719 286.362 612.719C286.775 612.719 287.111 613.054 287.111 613.468C287.111 613.881 286.775 614.216 286.362 614.216Z" fill="#1995FC"/>
<path d="M286.362 656.122C285.948 656.122 285.613 655.787 285.613 655.374C285.613 654.961 285.948 654.626 286.362 654.626C286.775 654.626 287.111 654.961 287.111 655.374C287.111 655.787 286.775 656.122 286.362 656.122Z" fill="#1995FC"/>
<path d="M286.362 698.029C285.948 698.029 285.613 697.694 285.613 697.281C285.613 696.867 285.948 696.532 286.362 696.532C286.775 696.532 287.111 696.867 287.111 697.281C287.111 697.694 286.775 698.029 286.362 698.029Z" fill="#1995FC"/>
<path d="M286.362 739.935C285.948 739.935 285.613 739.6 285.613 739.187C285.613 738.774 285.948 738.439 286.362 738.439C286.775 738.439 287.111 738.774 287.111 739.187C287.111 739.6 286.775 739.935 286.362 739.935Z" fill="#1995FC"/>
<path d="M286.362 781.842C285.948 781.842 285.613 781.507 285.613 781.094C285.613 780.68 285.948 780.345 286.362 780.345C286.775 780.345 287.111 780.68 287.111 781.094C287.111 781.507 286.775 781.842 286.362 781.842Z" fill="#1995FC"/>
<path d="M286.362 823.748C285.948 823.748 285.613 823.413 285.613 823C285.613 822.587 285.948 822.252 286.362 822.252C286.775 822.252 287.111 822.587 287.111 823C287.111 823.413 286.775 823.748 286.362 823.748Z" fill="#1995FC"/>
<path d="M286.362 865.655C285.948 865.655 285.613 865.32 285.613 864.906C285.613 864.493 285.948 864.158 286.362 864.158C286.775 864.158 287.111 864.493 287.111 864.906C287.111 865.32 286.775 865.655 286.362 865.655Z" fill="#1995FC"/>
<path d="M286.362 907.561C285.948 907.561 285.613 907.226 285.613 906.813C285.613 906.4 285.948 906.065 286.362 906.065C286.775 906.065 287.111 906.4 287.111 906.813C287.111 907.226 286.775 907.561 286.362 907.561Z" fill="#1995FC"/>
<path d="M286.362 949.468C285.948 949.468 285.613 949.133 285.613 948.719C285.613 948.306 285.948 947.971 286.362 947.971C286.775 947.971 287.111 948.306 287.111 948.719C287.111 949.133 286.775 949.468 286.362 949.468Z" fill="#1995FC"/>
<path d="M286.362 991.374C285.948 991.374 285.613 991.039 285.613 990.626C285.613 990.213 285.948 989.877 286.362 989.877C286.775 989.877 287.111 990.213 287.111 990.626C287.111 991.039 286.775 991.374 286.362 991.374Z" fill="#1995FC"/>
<path d="M286.362 1033.28C285.948 1033.28 285.613 1032.95 285.613 1032.53C285.613 1032.12 285.948 1031.78 286.362 1031.78C286.775 1031.78 287.111 1032.12 287.111 1032.53C287.111 1032.95 286.775 1033.28 286.362 1033.28Z" fill="#1995FC"/>
<path d="M286.362 1075.19C285.948 1075.19 285.613 1074.85 285.613 1074.44C285.613 1074.03 285.948 1073.69 286.362 1073.69C286.775 1073.69 287.111 1074.03 287.111 1074.44C287.111 1074.85 286.775 1075.19 286.362 1075.19Z" fill="#1995FC"/>
<path d="M286.362 1117.09C285.948 1117.09 285.613 1116.76 285.613 1116.35C285.613 1115.93 285.948 1115.6 286.362 1115.6C286.775 1115.6 287.111 1115.93 287.111 1116.35C287.111 1116.76 286.775 1117.09 286.362 1117.09Z" fill="#1995FC"/>
<path d="M286.362 1159C285.948 1159 285.613 1158.66 285.613 1158.25C285.613 1157.84 285.948 1157.5 286.362 1157.5C286.775 1157.5 287.111 1157.84 287.111 1158.25C287.111 1158.66 286.775 1159 286.362 1159Z" fill="#1995FC"/>
<path d="M244.417 488.497C244.003 488.497 243.668 488.162 243.668 487.748C243.668 487.335 244.003 487 244.417 487C244.831 487 245.166 487.335 245.166 487.748C245.166 488.162 244.831 488.497 244.417 488.497Z" fill="#1995FC"/>
<path d="M244.417 530.403C244.003 530.403 243.668 530.068 243.668 529.655C243.668 529.241 244.003 528.906 244.417 528.906C244.831 528.906 245.166 529.241 245.166 529.655C245.166 530.068 244.831 530.403 244.417 530.403Z" fill="#1995FC"/>
<path d="M244.417 572.31C244.003 572.31 243.668 571.975 243.668 571.561C243.668 571.148 244.003 570.813 244.417 570.813C244.831 570.813 245.166 571.148 245.166 571.561C245.166 571.975 244.831 572.31 244.417 572.31Z" fill="#1995FC"/>
<path d="M244.417 614.216C244.003 614.216 243.668 613.881 243.668 613.468C243.668 613.054 244.003 612.719 244.417 612.719C244.831 612.719 245.166 613.054 245.166 613.468C245.166 613.881 244.831 614.216 244.417 614.216Z" fill="#1995FC"/>
<path d="M244.417 656.122C244.003 656.122 243.668 655.787 243.668 655.374C243.668 654.961 244.003 654.626 244.417 654.626C244.831 654.626 245.166 654.961 245.166 655.374C245.166 655.787 244.831 656.122 244.417 656.122Z" fill="#1995FC"/>
<path d="M244.417 698.029C244.003 698.029 243.668 697.694 243.668 697.281C243.668 696.867 244.003 696.532 244.417 696.532C244.831 696.532 245.166 696.867 245.166 697.281C245.166 697.694 244.831 698.029 244.417 698.029Z" fill="#1995FC"/>
<path d="M244.417 739.935C244.003 739.935 243.668 739.6 243.668 739.187C243.668 738.774 244.003 738.439 244.417 738.439C244.831 738.439 245.166 738.774 245.166 739.187C245.166 739.6 244.831 739.935 244.417 739.935Z" fill="#1995FC"/>
<path d="M244.417 781.842C244.003 781.842 243.668 781.507 243.668 781.094C243.668 780.68 244.003 780.345 244.417 780.345C244.831 780.345 245.166 780.68 245.166 781.094C245.166 781.507 244.831 781.842 244.417 781.842Z" fill="#1995FC"/>
<path d="M244.417 823.748C244.003 823.748 243.668 823.413 243.668 823C243.668 822.587 244.003 822.252 244.417 822.252C244.831 822.252 245.166 822.587 245.166 823C245.166 823.413 244.831 823.748 244.417 823.748Z" fill="#1995FC"/>
<path d="M244.417 865.655C244.003 865.655 243.668 865.32 243.668 864.906C243.668 864.493 244.003 864.158 244.417 864.158C244.831 864.158 245.166 864.493 245.166 864.906C245.166 865.32 244.831 865.655 244.417 865.655Z" fill="#1995FC"/>
<path d="M244.417 907.561C244.003 907.561 243.668 907.226 243.668 906.813C243.668 906.4 244.003 906.065 244.417 906.065C244.831 906.065 245.166 906.4 245.166 906.813C245.166 907.226 244.831 907.561 244.417 907.561Z" fill="#1995FC"/>
<path d="M244.417 949.468C244.003 949.468 243.668 949.133 243.668 948.719C243.668 948.306 244.003 947.971 244.417 947.971C244.831 947.971 245.166 948.306 245.166 948.719C245.166 949.133 244.831 949.468 244.417 949.468Z" fill="#1995FC"/>
<path d="M244.417 991.374C244.003 991.374 243.668 991.039 243.668 990.626C243.668 990.213 244.003 989.877 244.417 989.877C244.831 989.877 245.166 990.213 245.166 990.626C245.166 991.039 244.831 991.374 244.417 991.374Z" fill="#1995FC"/>
<path d="M244.417 1033.28C244.003 1033.28 243.668 1032.95 243.668 1032.53C243.668 1032.12 244.003 1031.78 244.417 1031.78C244.831 1031.78 245.166 1032.12 245.166 1032.53C245.166 1032.95 244.831 1033.28 244.417 1033.28Z" fill="#1995FC"/>
<path d="M244.417 1075.19C244.003 1075.19 243.668 1074.85 243.668 1074.44C243.668 1074.03 244.003 1073.69 244.417 1073.69C244.831 1073.69 245.166 1074.03 245.166 1074.44C245.166 1074.85 244.831 1075.19 244.417 1075.19Z" fill="#1995FC"/>
<path d="M244.417 1117.09C244.003 1117.09 243.668 1116.76 243.668 1116.35C243.668 1115.93 244.003 1115.6 244.417 1115.6C244.831 1115.6 245.166 1115.93 245.166 1116.35C245.166 1116.76 244.831 1117.09 244.417 1117.09Z" fill="#1995FC"/>
<path d="M244.417 1159C244.003 1159 243.668 1158.66 243.668 1158.25C243.668 1157.84 244.003 1157.5 244.417 1157.5C244.831 1157.5 245.166 1157.84 245.166 1158.25C245.166 1158.66 244.831 1159 244.417 1159Z" fill="#1995FC"/>
<path d="M202.472 488.497C202.059 488.497 201.723 488.162 201.723 487.748C201.723 487.335 202.059 487 202.472 487C202.886 487 203.221 487.335 203.221 487.748C203.221 488.162 202.886 488.497 202.472 488.497Z" fill="#1995FC"/>
<path d="M202.472 530.403C202.059 530.403 201.723 530.068 201.723 529.655C201.723 529.241 202.059 528.906 202.472 528.906C202.886 528.906 203.221 529.241 203.221 529.655C203.221 530.068 202.886 530.403 202.472 530.403Z" fill="#1995FC"/>
<path d="M202.472 572.31C202.059 572.31 201.723 571.975 201.723 571.561C201.723 571.148 202.059 570.813 202.472 570.813C202.886 570.813 203.221 571.148 203.221 571.561C203.221 571.975 202.886 572.31 202.472 572.31Z" fill="#1995FC"/>
<path d="M202.472 614.216C202.059 614.216 201.723 613.881 201.723 613.468C201.723 613.054 202.059 612.719 202.472 612.719C202.886 612.719 203.221 613.054 203.221 613.468C203.221 613.881 202.886 614.216 202.472 614.216Z" fill="#1995FC"/>
<path d="M202.472 656.122C202.059 656.122 201.723 655.787 201.723 655.374C201.723 654.961 202.059 654.626 202.472 654.626C202.886 654.626 203.221 654.961 203.221 655.374C203.221 655.787 202.886 656.122 202.472 656.122Z" fill="#1995FC"/>
<path d="M202.472 698.029C202.059 698.029 201.723 697.694 201.723 697.281C201.723 696.867 202.059 696.532 202.472 696.532C202.886 696.532 203.221 696.867 203.221 697.281C203.221 697.694 202.886 698.029 202.472 698.029Z" fill="#1995FC"/>
<path d="M202.472 739.935C202.059 739.935 201.723 739.6 201.723 739.187C201.723 738.774 202.059 738.439 202.472 738.439C202.886 738.439 203.221 738.774 203.221 739.187C203.221 739.6 202.886 739.935 202.472 739.935Z" fill="#1995FC"/>
<path d="M202.472 781.842C202.059 781.842 201.723 781.507 201.723 781.094C201.723 780.68 202.059 780.345 202.472 780.345C202.886 780.345 203.221 780.68 203.221 781.094C203.221 781.507 202.886 781.842 202.472 781.842Z" fill="#1995FC"/>
<path d="M202.472 823.748C202.059 823.748 201.723 823.413 201.723 823C201.723 822.587 202.059 822.252 202.472 822.252C202.886 822.252 203.221 822.587 203.221 823C203.221 823.413 202.886 823.748 202.472 823.748Z" fill="#1995FC"/>
<path d="M202.472 865.655C202.059 865.655 201.723 865.32 201.723 864.906C201.723 864.493 202.059 864.158 202.472 864.158C202.886 864.158 203.221 864.493 203.221 864.906C203.221 865.32 202.886 865.655 202.472 865.655Z" fill="#1995FC"/>
<path d="M202.472 907.561C202.059 907.561 201.723 907.226 201.723 906.813C201.723 906.4 202.059 906.065 202.472 906.065C202.886 906.065 203.221 906.4 203.221 906.813C203.221 907.226 202.886 907.561 202.472 907.561Z" fill="#1995FC"/>
<path d="M202.472 949.468C202.059 949.468 201.723 949.133 201.723 948.719C201.723 948.306 202.059 947.971 202.472 947.971C202.886 947.971 203.221 948.306 203.221 948.719C203.221 949.133 202.886 949.468 202.472 949.468Z" fill="#1995FC"/>
<path d="M202.472 991.374C202.059 991.374 201.723 991.039 201.723 990.626C201.723 990.213 202.059 989.877 202.472 989.877C202.886 989.877 203.221 990.213 203.221 990.626C203.221 991.039 202.886 991.374 202.472 991.374Z" fill="#1995FC"/>
<path d="M202.472 1033.28C202.059 1033.28 201.723 1032.95 201.723 1032.53C201.723 1032.12 202.059 1031.78 202.472 1031.78C202.886 1031.78 203.221 1032.12 203.221 1032.53C203.221 1032.95 202.886 1033.28 202.472 1033.28Z" fill="#1995FC"/>
<path d="M202.472 1075.19C202.059 1075.19 201.723 1074.85 201.723 1074.44C201.723 1074.03 202.059 1073.69 202.472 1073.69C202.886 1073.69 203.221 1074.03 203.221 1074.44C203.221 1074.85 202.886 1075.19 202.472 1075.19Z" fill="#1995FC"/>
<path d="M202.472 1117.09C202.059 1117.09 201.723 1116.76 201.723 1116.35C201.723 1115.93 202.059 1115.6 202.472 1115.6C202.886 1115.6 203.221 1115.93 203.221 1116.35C203.221 1116.76 202.886 1117.09 202.472 1117.09Z" fill="#1995FC"/>
<path d="M202.472 1159C202.059 1159 201.723 1158.66 201.723 1158.25C201.723 1157.84 202.059 1157.5 202.472 1157.5C202.886 1157.5 203.221 1157.84 203.221 1158.25C203.221 1158.66 202.886 1159 202.472 1159Z" fill="#1995FC"/>
<path d="M160.528 488.497C160.114 488.497 159.779 488.162 159.779 487.748C159.779 487.335 160.114 487 160.528 487C160.941 487 161.277 487.335 161.277 487.748C161.277 488.162 160.941 488.497 160.528 488.497Z" fill="#1995FC"/>
<path d="M160.528 530.403C160.114 530.403 159.779 530.068 159.779 529.655C159.779 529.241 160.114 528.906 160.528 528.906C160.941 528.906 161.277 529.241 161.277 529.655C161.277 530.068 160.941 530.403 160.528 530.403Z" fill="#1995FC"/>
<path d="M160.528 572.31C160.114 572.31 159.779 571.975 159.779 571.561C159.779 571.148 160.114 570.813 160.528 570.813C160.941 570.813 161.277 571.148 161.277 571.561C161.277 571.975 160.941 572.31 160.528 572.31Z" fill="#1995FC"/>
<path d="M160.528 614.216C160.114 614.216 159.779 613.881 159.779 613.468C159.779 613.054 160.114 612.719 160.528 612.719C160.941 612.719 161.277 613.054 161.277 613.468C161.277 613.881 160.941 614.216 160.528 614.216Z" fill="#1995FC"/>
<path d="M160.528 656.122C160.114 656.122 159.779 655.787 159.779 655.374C159.779 654.961 160.114 654.626 160.528 654.626C160.941 654.626 161.277 654.961 161.277 655.374C161.277 655.787 160.941 656.122 160.528 656.122Z" fill="#1995FC"/>
<path d="M160.528 698.029C160.114 698.029 159.779 697.694 159.779 697.281C159.779 696.867 160.114 696.532 160.528 696.532C160.941 696.532 161.277 696.867 161.277 697.281C161.277 697.694 160.941 698.029 160.528 698.029Z" fill="#1995FC"/>
<path d="M160.528 739.935C160.114 739.935 159.779 739.6 159.779 739.187C159.779 738.774 160.114 738.439 160.528 738.439C160.941 738.439 161.277 738.774 161.277 739.187C161.277 739.6 160.941 739.935 160.528 739.935Z" fill="#1995FC"/>
<path d="M160.528 781.842C160.114 781.842 159.779 781.507 159.779 781.094C159.779 780.68 160.114 780.345 160.528 780.345C160.941 780.345 161.277 780.68 161.277 781.094C161.277 781.507 160.941 781.842 160.528 781.842Z" fill="#1995FC"/>
<path d="M160.528 823.748C160.114 823.748 159.779 823.413 159.779 823C159.779 822.587 160.114 822.252 160.528 822.252C160.941 822.252 161.277 822.587 161.277 823C161.277 823.413 160.941 823.748 160.528 823.748Z" fill="#1995FC"/>
<path d="M160.528 865.655C160.114 865.655 159.779 865.32 159.779 864.906C159.779 864.493 160.114 864.158 160.528 864.158C160.941 864.158 161.277 864.493 161.277 864.906C161.277 865.32 160.941 865.655 160.528 865.655Z" fill="#1995FC"/>
<path d="M160.528 907.561C160.114 907.561 159.779 907.226 159.779 906.813C159.779 906.4 160.114 906.065 160.528 906.065C160.941 906.065 161.277 906.4 161.277 906.813C161.277 907.226 160.941 907.561 160.528 907.561Z" fill="#1995FC"/>
<path d="M160.528 949.468C160.114 949.468 159.779 949.133 159.779 948.719C159.779 948.306 160.114 947.971 160.528 947.971C160.941 947.971 161.277 948.306 161.277 948.719C161.277 949.133 160.941 949.468 160.528 949.468Z" fill="#1995FC"/>
<path d="M160.528 991.374C160.114 991.374 159.779 991.039 159.779 990.626C159.779 990.213 160.114 989.877 160.528 989.877C160.941 989.877 161.277 990.213 161.277 990.626C161.277 991.039 160.941 991.374 160.528 991.374Z" fill="#1995FC"/>
<path d="M160.528 1033.28C160.114 1033.28 159.779 1032.95 159.779 1032.53C159.779 1032.12 160.114 1031.78 160.528 1031.78C160.941 1031.78 161.277 1032.12 161.277 1032.53C161.277 1032.95 160.941 1033.28 160.528 1033.28Z" fill="#1995FC"/>
<path d="M160.528 1075.19C160.114 1075.19 159.779 1074.85 159.779 1074.44C159.779 1074.03 160.114 1073.69 160.528 1073.69C160.941 1073.69 161.277 1074.03 161.277 1074.44C161.277 1074.85 160.941 1075.19 160.528 1075.19Z" fill="#1995FC"/>
<path d="M160.528 1117.09C160.114 1117.09 159.779 1116.76 159.779 1116.35C159.779 1115.93 160.114 1115.6 160.528 1115.6C160.941 1115.6 161.277 1115.93 161.277 1116.35C161.277 1116.76 160.941 1117.09 160.528 1117.09Z" fill="#1995FC"/>
<path d="M160.528 1159C160.114 1159 159.779 1158.66 159.779 1158.25C159.779 1157.84 160.114 1157.5 160.528 1157.5C160.941 1157.5 161.277 1157.84 161.277 1158.25C161.277 1158.66 160.941 1159 160.528 1159Z" fill="#1995FC"/>
<path d="M118.583 488.497C118.169 488.497 117.834 488.162 117.834 487.748C117.834 487.335 118.169 487 118.583 487C118.997 487 119.332 487.335 119.332 487.748C119.332 488.162 118.997 488.497 118.583 488.497Z" fill="#1995FC"/>
<path d="M118.583 530.403C118.169 530.403 117.834 530.068 117.834 529.655C117.834 529.241 118.169 528.906 118.583 528.906C118.997 528.906 119.332 529.241 119.332 529.655C119.332 530.068 118.997 530.403 118.583 530.403Z" fill="#1995FC"/>
<path d="M118.583 572.31C118.169 572.31 117.834 571.975 117.834 571.561C117.834 571.148 118.169 570.813 118.583 570.813C118.997 570.813 119.332 571.148 119.332 571.561C119.332 571.975 118.997 572.31 118.583 572.31Z" fill="#1995FC"/>
<path d="M118.583 614.216C118.169 614.216 117.834 613.881 117.834 613.468C117.834 613.054 118.169 612.719 118.583 612.719C118.997 612.719 119.332 613.054 119.332 613.468C119.332 613.881 118.997 614.216 118.583 614.216Z" fill="#1995FC"/>
<path d="M118.583 656.122C118.169 656.122 117.834 655.787 117.834 655.374C117.834 654.961 118.169 654.626 118.583 654.626C118.997 654.626 119.332 654.961 119.332 655.374C119.332 655.787 118.997 656.122 118.583 656.122Z" fill="#1995FC"/>
<path d="M118.583 698.029C118.169 698.029 117.834 697.694 117.834 697.281C117.834 696.867 118.169 696.532 118.583 696.532C118.997 696.532 119.332 696.867 119.332 697.281C119.332 697.694 118.997 698.029 118.583 698.029Z" fill="#1995FC"/>
<path d="M118.583 739.935C118.169 739.935 117.834 739.6 117.834 739.187C117.834 738.774 118.169 738.439 118.583 738.439C118.997 738.439 119.332 738.774 119.332 739.187C119.332 739.6 118.997 739.935 118.583 739.935Z" fill="#1995FC"/>
<path d="M118.583 781.842C118.169 781.842 117.834 781.507 117.834 781.094C117.834 780.68 118.169 780.345 118.583 780.345C118.997 780.345 119.332 780.68 119.332 781.094C119.332 781.507 118.997 781.842 118.583 781.842Z" fill="#1995FC"/>
<path d="M118.583 823.748C118.169 823.748 117.834 823.413 117.834 823C117.834 822.587 118.169 822.252 118.583 822.252C118.997 822.252 119.332 822.587 119.332 823C119.332 823.413 118.997 823.748 118.583 823.748Z" fill="#1995FC"/>
<path d="M118.583 865.655C118.169 865.655 117.834 865.32 117.834 864.906C117.834 864.493 118.169 864.158 118.583 864.158C118.997 864.158 119.332 864.493 119.332 864.906C119.332 865.32 118.997 865.655 118.583 865.655Z" fill="#1995FC"/>
<path d="M118.583 907.561C118.169 907.561 117.834 907.226 117.834 906.813C117.834 906.4 118.169 906.065 118.583 906.065C118.997 906.065 119.332 906.4 119.332 906.813C119.332 907.226 118.997 907.561 118.583 907.561Z" fill="#1995FC"/>
<path d="M118.583 949.468C118.169 949.468 117.834 949.133 117.834 948.719C117.834 948.306 118.169 947.971 118.583 947.971C118.997 947.971 119.332 948.306 119.332 948.719C119.332 949.133 118.997 949.468 118.583 949.468Z" fill="#1995FC"/>
<path d="M118.583 991.374C118.169 991.374 117.834 991.039 117.834 990.626C117.834 990.213 118.169 989.877 118.583 989.877C118.997 989.877 119.332 990.213 119.332 990.626C119.332 991.039 118.997 991.374 118.583 991.374Z" fill="#1995FC"/>
<path d="M118.583 1033.28C118.169 1033.28 117.834 1032.95 117.834 1032.53C117.834 1032.12 118.169 1031.78 118.583 1031.78C118.997 1031.78 119.332 1032.12 119.332 1032.53C119.332 1032.95 118.997 1033.28 118.583 1033.28Z" fill="#1995FC"/>
<path d="M118.583 1075.19C118.169 1075.19 117.834 1074.85 117.834 1074.44C117.834 1074.03 118.169 1073.69 118.583 1073.69C118.997 1073.69 119.332 1074.03 119.332 1074.44C119.332 1074.85 118.997 1075.19 118.583 1075.19Z" fill="#1995FC"/>
<path d="M118.583 1117.09C118.169 1117.09 117.834 1116.76 117.834 1116.35C117.834 1115.93 118.169 1115.6 118.583 1115.6C118.997 1115.6 119.332 1115.93 119.332 1116.35C119.332 1116.76 118.997 1117.09 118.583 1117.09Z" fill="#1995FC"/>
<path d="M118.583 1159C118.169 1159 117.834 1158.66 117.834 1158.25C117.834 1157.84 118.169 1157.5 118.583 1157.5C118.997 1157.5 119.332 1157.84 119.332 1158.25C119.332 1158.66 118.997 1159 118.583 1159Z" fill="#1995FC"/>
<path d="M76.6383 488.497C76.2247 488.497 75.8893 488.162 75.8893 487.748C75.8893 487.335 76.2247 487 76.6383 487C77.052 487 77.3874 487.335 77.3874 487.748C77.3874 488.162 77.052 488.497 76.6383 488.497Z" fill="#1995FC"/>
<path d="M76.6383 530.403C76.2247 530.403 75.8893 530.068 75.8893 529.655C75.8893 529.241 76.2247 528.906 76.6383 528.906C77.052 528.906 77.3874 529.241 77.3874 529.655C77.3874 530.068 77.052 530.403 76.6383 530.403Z" fill="#1995FC"/>
<path d="M76.6383 572.31C76.2247 572.31 75.8893 571.975 75.8893 571.561C75.8893 571.148 76.2247 570.813 76.6383 570.813C77.052 570.813 77.3874 571.148 77.3874 571.561C77.3874 571.975 77.052 572.31 76.6383 572.31Z" fill="#1995FC"/>
<path d="M76.6383 614.216C76.2247 614.216 75.8893 613.881 75.8893 613.468C75.8893 613.054 76.2247 612.719 76.6383 612.719C77.052 612.719 77.3874 613.054 77.3874 613.468C77.3874 613.881 77.052 614.216 76.6383 614.216Z" fill="#1995FC"/>
<path d="M76.6383 656.122C76.2247 656.122 75.8893 655.787 75.8893 655.374C75.8893 654.961 76.2247 654.626 76.6383 654.626C77.052 654.626 77.3874 654.961 77.3874 655.374C77.3874 655.787 77.052 656.122 76.6383 656.122Z" fill="#1995FC"/>
<path d="M76.6383 698.029C76.2247 698.029 75.8893 697.694 75.8893 697.281C75.8893 696.867 76.2247 696.532 76.6383 696.532C77.052 696.532 77.3874 696.867 77.3874 697.281C77.3874 697.694 77.052 698.029 76.6383 698.029Z" fill="#1995FC"/>
<path d="M76.6383 739.935C76.2247 739.935 75.8893 739.6 75.8893 739.187C75.8893 738.774 76.2247 738.439 76.6383 738.439C77.052 738.439 77.3873 738.774 77.3873 739.187C77.3873 739.6 77.052 739.935 76.6383 739.935Z" fill="#1995FC"/>
<path d="M76.6383 781.842C76.2247 781.842 75.8893 781.507 75.8893 781.094C75.8893 780.68 76.2247 780.345 76.6383 780.345C77.052 780.345 77.3873 780.68 77.3873 781.094C77.3873 781.507 77.052 781.842 76.6383 781.842Z" fill="#1995FC"/>
<path d="M76.6383 823.748C76.2247 823.748 75.8893 823.413 75.8893 823C75.8893 822.587 76.2247 822.252 76.6383 822.252C77.052 822.252 77.3873 822.587 77.3873 823C77.3873 823.413 77.052 823.748 76.6383 823.748Z" fill="#1995FC"/>
<path d="M76.6383 865.655C76.2247 865.655 75.8893 865.32 75.8893 864.906C75.8893 864.493 76.2247 864.158 76.6383 864.158C77.052 864.158 77.3873 864.493 77.3873 864.906C77.3873 865.32 77.052 865.655 76.6383 865.655Z" fill="#1995FC"/>
<path d="M76.6383 907.561C76.2247 907.561 75.8893 907.226 75.8893 906.813C75.8893 906.4 76.2247 906.065 76.6383 906.065C77.052 906.065 77.3873 906.4 77.3873 906.813C77.3873 907.226 77.052 907.561 76.6383 907.561Z" fill="#1995FC"/>
<path d="M76.6383 949.468C76.2247 949.468 75.8893 949.133 75.8893 948.719C75.8893 948.306 76.2247 947.971 76.6383 947.971C77.052 947.971 77.3873 948.306 77.3873 948.719C77.3873 949.133 77.052 949.468 76.6383 949.468Z" fill="#1995FC"/>
<path d="M76.6383 991.374C76.2246 991.374 75.8893 991.039 75.8893 990.626C75.8893 990.213 76.2246 989.877 76.6383 989.877C77.052 989.877 77.3873 990.213 77.3873 990.626C77.3873 991.039 77.052 991.374 76.6383 991.374Z" fill="#1995FC"/>
<path d="M76.6383 1033.28C76.2246 1033.28 75.8893 1032.95 75.8893 1032.53C75.8893 1032.12 76.2246 1031.78 76.6383 1031.78C77.052 1031.78 77.3873 1032.12 77.3873 1032.53C77.3873 1032.95 77.052 1033.28 76.6383 1033.28Z" fill="#1995FC"/>
<path d="M76.6383 1075.19C76.2246 1075.19 75.8893 1074.85 75.8893 1074.44C75.8893 1074.03 76.2246 1073.69 76.6383 1073.69C77.052 1073.69 77.3873 1074.03 77.3873 1074.44C77.3873 1074.85 77.052 1075.19 76.6383 1075.19Z" fill="#1995FC"/>
<path d="M76.6383 1117.09C76.2246 1117.09 75.8893 1116.76 75.8893 1116.35C75.8893 1115.93 76.2246 1115.6 76.6383 1115.6C77.052 1115.6 77.3873 1115.93 77.3873 1116.35C77.3873 1116.76 77.052 1117.09 76.6383 1117.09Z" fill="#1995FC"/>
<path d="M76.6383 1159C76.2246 1159 75.8893 1158.66 75.8893 1158.25C75.8893 1157.84 76.2246 1157.5 76.6383 1157.5C77.052 1157.5 77.3873 1157.84 77.3873 1158.25C77.3873 1158.66 77.052 1159 76.6383 1159Z" fill="#1995FC"/>
<path d="M34.6937 488.497C34.28 488.497 33.9447 488.162 33.9447 487.748C33.9447 487.335 34.28 487 34.6937 487C35.1073 487 35.4427 487.335 35.4427 487.748C35.4427 488.162 35.1073 488.497 34.6937 488.497Z" fill="#1995FC"/>
<path d="M34.6937 530.403C34.28 530.403 33.9447 530.068 33.9447 529.655C33.9447 529.241 34.28 528.906 34.6937 528.906C35.1073 528.906 35.4427 529.241 35.4427 529.655C35.4427 530.068 35.1073 530.403 34.6937 530.403Z" fill="#1995FC"/>
<path d="M34.6937 572.31C34.28 572.31 33.9447 571.975 33.9447 571.561C33.9447 571.148 34.28 570.813 34.6937 570.813C35.1073 570.813 35.4427 571.148 35.4427 571.561C35.4427 571.975 35.1073 572.31 34.6937 572.31Z" fill="#1995FC"/>
<path d="M34.6937 614.216C34.28 614.216 33.9447 613.881 33.9447 613.468C33.9447 613.054 34.28 612.719 34.6937 612.719C35.1073 612.719 35.4427 613.054 35.4427 613.468C35.4427 613.881 35.1073 614.216 34.6937 614.216Z" fill="#1995FC"/>
<path d="M34.6937 656.122C34.28 656.122 33.9447 655.787 33.9447 655.374C33.9447 654.961 34.28 654.626 34.6937 654.626C35.1073 654.626 35.4427 654.961 35.4427 655.374C35.4427 655.787 35.1073 656.122 34.6937 656.122Z" fill="#1995FC"/>
<path d="M34.6937 698.029C34.28 698.029 33.9447 697.694 33.9447 697.281C33.9447 696.867 34.28 696.532 34.6937 696.532C35.1073 696.532 35.4427 696.867 35.4427 697.281C35.4427 697.694 35.1073 698.029 34.6937 698.029Z" fill="#1995FC"/>
<path d="M34.6937 739.935C34.28 739.935 33.9447 739.6 33.9447 739.187C33.9447 738.774 34.28 738.439 34.6937 738.439C35.1073 738.439 35.4427 738.774 35.4427 739.187C35.4427 739.6 35.1073 739.935 34.6937 739.935Z" fill="#1995FC"/>
<path d="M34.6937 781.842C34.28 781.842 33.9447 781.507 33.9447 781.094C33.9447 780.68 34.28 780.345 34.6937 780.345C35.1073 780.345 35.4427 780.68 35.4427 781.094C35.4427 781.507 35.1073 781.842 34.6937 781.842Z" fill="#1995FC"/>
<path d="M34.6936 823.748C34.28 823.748 33.9447 823.413 33.9447 823C33.9447 822.587 34.28 822.252 34.6936 822.252C35.1073 822.252 35.4427 822.587 35.4427 823C35.4427 823.413 35.1073 823.748 34.6936 823.748Z" fill="#1995FC"/>
<path d="M34.6936 865.655C34.28 865.655 33.9447 865.32 33.9447 864.906C33.9447 864.493 34.28 864.158 34.6936 864.158C35.1073 864.158 35.4427 864.493 35.4427 864.906C35.4427 865.32 35.1073 865.655 34.6936 865.655Z" fill="#1995FC"/>
<path d="M34.6936 907.561C34.28 907.561 33.9447 907.226 33.9447 906.813C33.9447 906.4 34.28 906.065 34.6936 906.065C35.1073 906.065 35.4427 906.4 35.4427 906.813C35.4427 907.226 35.1073 907.561 34.6936 907.561Z" fill="#1995FC"/>
<path d="M34.6936 949.468C34.28 949.468 33.9447 949.133 33.9447 948.719C33.9447 948.306 34.28 947.971 34.6936 947.971C35.1073 947.971 35.4427 948.306 35.4427 948.719C35.4427 949.133 35.1073 949.468 34.6936 949.468Z" fill="#1995FC"/>
<path d="M34.6936 991.374C34.28 991.374 33.9446 991.039 33.9446 990.626C33.9446 990.213 34.28 989.877 34.6936 989.877C35.1073 989.877 35.4427 990.213 35.4427 990.626C35.4427 991.039 35.1073 991.374 34.6936 991.374Z" fill="#1995FC"/>
<path d="M34.6936 1033.28C34.28 1033.28 33.9446 1032.95 33.9446 1032.53C33.9446 1032.12 34.28 1031.78 34.6936 1031.78C35.1073 1031.78 35.4427 1032.12 35.4427 1032.53C35.4427 1032.95 35.1073 1033.28 34.6936 1033.28Z" fill="#1995FC"/>
<path d="M34.6936 1075.19C34.28 1075.19 33.9446 1074.85 33.9446 1074.44C33.9446 1074.03 34.28 1073.69 34.6936 1073.69C35.1073 1073.69 35.4427 1074.03 35.4427 1074.44C35.4427 1074.85 35.1073 1075.19 34.6936 1075.19Z" fill="#1995FC"/>
<path d="M34.6936 1117.09C34.28 1117.09 33.9446 1116.76 33.9446 1116.35C33.9446 1115.93 34.28 1115.6 34.6936 1115.6C35.1073 1115.6 35.4427 1115.93 35.4427 1116.35C35.4427 1116.76 35.1073 1117.09 34.6936 1117.09Z" fill="#1995FC"/>
<path d="M34.6936 1159C34.28 1159 33.9446 1158.66 33.9446 1158.25C33.9446 1157.84 34.28 1157.5 34.6936 1157.5C35.1073 1157.5 35.4427 1157.84 35.4427 1158.25C35.4427 1158.66 35.1073 1159 34.6936 1159Z" fill="#1995FC"/>
<path d="M-7.25101 488.497C-7.66467 488.497 -8 488.162 -8 487.748C-8 487.335 -7.66467 487 -7.25101 487C-6.83734 487 -6.50198 487.335 -6.50198 487.748C-6.50198 488.162 -6.83734 488.497 -7.25101 488.497Z" fill="#1995FC"/>
<path d="M-7.25101 530.403C-7.66467 530.403 -8 530.068 -8 529.655C-8 529.241 -7.66467 528.906 -7.25101 528.906C-6.83734 528.906 -6.50199 529.241 -6.50199 529.655C-6.50199 530.068 -6.83734 530.403 -7.25101 530.403Z" fill="#1995FC"/>
<path d="M-7.25101 572.31C-7.66468 572.31 -8 571.975 -8 571.561C-8 571.148 -7.66468 570.813 -7.25101 570.813C-6.83734 570.813 -6.50199 571.148 -6.50199 571.561C-6.50199 571.975 -6.83735 572.31 -7.25101 572.31Z" fill="#1995FC"/>
<path d="M-7.25101 614.216C-7.66468 614.216 -8.00001 613.881 -8.00001 613.468C-8.00001 613.054 -7.66468 612.719 -7.25101 612.719C-6.83735 612.719 -6.50199 613.054 -6.50199 613.468C-6.50199 613.881 -6.83735 614.216 -7.25101 614.216Z" fill="#1995FC"/>
<path d="M-7.25101 656.122C-7.66468 656.122 -8.00001 655.787 -8.00001 655.374C-8.00001 654.961 -7.66468 654.626 -7.25101 654.626C-6.83735 654.626 -6.50199 654.961 -6.50199 655.374C-6.50199 655.787 -6.83735 656.122 -7.25101 656.122Z" fill="#1995FC"/>
<path d="M-7.25102 698.029C-7.66468 698.029 -8.00001 697.694 -8.00001 697.281C-8.00001 696.867 -7.66468 696.532 -7.25102 696.532C-6.83735 696.532 -6.50199 696.867 -6.50199 697.281C-6.50199 697.694 -6.83735 698.029 -7.25102 698.029Z" fill="#1995FC"/>
<path d="M-7.25102 739.935C-7.66468 739.935 -8.00001 739.6 -8.00001 739.187C-8.00001 738.774 -7.66468 738.439 -7.25102 738.439C-6.83735 738.439 -6.50199 738.774 -6.50199 739.187C-6.50199 739.6 -6.83735 739.935 -7.25102 739.935Z" fill="#1995FC"/>
<path d="M-7.25102 781.842C-7.66469 781.842 -8.00001 781.507 -8.00001 781.094C-8.00001 780.68 -7.66469 780.345 -7.25102 780.345C-6.83735 780.345 -6.502 780.68 -6.502 781.094C-6.502 781.507 -6.83735 781.842 -7.25102 781.842Z" fill="#1995FC"/>
<path d="M-7.25102 823.748C-7.66469 823.748 -8.00001 823.413 -8.00001 823C-8.00001 822.587 -7.66469 822.252 -7.25102 822.252C-6.83736 822.252 -6.502 822.587 -6.502 823C-6.502 823.413 -6.83736 823.748 -7.25102 823.748Z" fill="#1995FC"/>
<path d="M-7.25102 865.655C-7.66469 865.655 -8.00002 865.32 -8.00002 864.906C-8.00002 864.493 -7.66469 864.158 -7.25102 864.158C-6.83736 864.158 -6.502 864.493 -6.502 864.906C-6.502 865.32 -6.83736 865.655 -7.25102 865.655Z" fill="#1995FC"/>
<path d="M-7.25103 907.561C-7.66469 907.561 -8.00002 907.226 -8.00002 906.813C-8.00002 906.4 -7.66469 906.065 -7.25103 906.065C-6.83736 906.065 -6.502 906.4 -6.502 906.813C-6.502 907.226 -6.83736 907.561 -7.25103 907.561Z" fill="#1995FC"/>
<path d="M-7.25103 949.468C-7.66469 949.468 -8.00002 949.133 -8.00002 948.719C-8.00002 948.306 -7.66469 947.971 -7.25103 947.971C-6.83736 947.971 -6.502 948.306 -6.502 948.719C-6.502 949.133 -6.83736 949.468 -7.25103 949.468Z" fill="#1995FC"/>
<path d="M-7.25103 991.374C-7.66469 991.374 -8.00002 991.039 -8.00002 990.626C-8.00002 990.213 -7.66469 989.877 -7.25103 989.877C-6.83736 989.877 -6.50201 990.213 -6.50201 990.626C-6.50201 991.039 -6.83736 991.374 -7.25103 991.374Z" fill="#1995FC"/>
<path d="M-7.25103 1033.28C-7.6647 1033.28 -8.00002 1032.95 -8.00002 1032.53C-8.00002 1032.12 -7.6647 1031.78 -7.25103 1031.78C-6.83737 1031.78 -6.50201 1032.12 -6.50201 1032.53C-6.50201 1032.95 -6.83737 1033.28 -7.25103 1033.28Z" fill="#1995FC"/>
<path d="M-7.25103 1075.19C-7.6647 1075.19 -8.00003 1074.85 -8.00003 1074.44C-8.00003 1074.03 -7.6647 1073.69 -7.25103 1073.69C-6.83737 1073.69 -6.50201 1074.03 -6.50201 1074.44C-6.50201 1074.85 -6.83737 1075.19 -7.25103 1075.19Z" fill="#1995FC"/>
<path d="M-7.25103 1117.09C-7.6647 1117.09 -8.00003 1116.76 -8.00003 1116.35C-8.00003 1115.93 -7.6647 1115.6 -7.25103 1115.6C-6.83737 1115.6 -6.50201 1115.93 -6.50201 1116.35C-6.50201 1116.76 -6.83737 1117.09 -7.25103 1117.09Z" fill="#1995FC"/>
<path d="M-7.25104 1159C-7.6647 1159 -8.00003 1158.66 -8.00003 1158.25C-8.00003 1157.84 -7.6647 1157.5 -7.25104 1157.5C-6.83737 1157.5 -6.50201 1157.84 -6.50201 1158.25C-6.50201 1158.66 -6.83737 1159 -7.25104 1159Z" fill="#1995FC"/>
</g>
<g filter="url(#filter1_f_3001_29259)">
<ellipse cx="481" cy="734.5" rx="170" ry="373.5" fill="#1995FC"/>
</g>
<g style="mix-blend-mode:overlay" filter="url(#filter2_f_3001_29259)">
<path d="M189.318 947L244.471 891.635L180 826.916V812.253L189.318 802.899V777.618L180 768.264V709.865L193.851 695.961H201.658L206.695 690.904H228.101L259.581 659.303V623.152L309.445 573.096V549.584L317 542" stroke="#1995FC" stroke-width="5.84923"/>
</g>
<g style="mix-blend-mode:overlay" filter="url(#filter3_f_3001_29259)">
<path d="M189.318 947L244.471 891.635L180 826.916V812.253L189.318 802.899V777.618L180 768.264V709.865L193.851 695.961H201.658L206.695 690.904H228.101L259.581 659.303V623.152L309.445 573.096V549.584L317 542" stroke="#1995FC" stroke-width="5.84923"/>
</g>
<defs>
<filter id="filter0_f_3001_29259" x="-438" y="75" width="1237" height="1496" filterUnits="userSpaceOnUse" color-interpolation-filters="sRGB">
<feFlood flood-opacity="0" result="BackgroundImageFix"/>
<feBlend mode="normal" in="SourceGraphic" in2="BackgroundImageFix" result="shape"/>
<feGaussianBlur stdDeviation="40" result="effect1_foregroundBlur_3001_29259"/>
</filter>
<filter id="filter1_f_3001_29259" x="-49.7026" y="0.297424" width="1061.41" height="1468.41" filterUnits="userSpaceOnUse" color-interpolation-filters="sRGB">
<feFlood flood-opacity="0" result="BackgroundImageFix"/>
<feBlend mode="normal" in="SourceGraphic" in2="BackgroundImageFix" result="shape"/>
<feGaussianBlur stdDeviation="180.351" result="effect1_foregroundBlur_3001_29259"/>
</filter>
<filter id="filter2_f_3001_29259" x="125.213" y="488.073" width="245.722" height="512.854" filterUnits="userSpaceOnUse" color-interpolation-filters="sRGB">
<feFlood flood-opacity="0" result="BackgroundImageFix"/>
<feBlend mode="normal" in="SourceGraphic" in2="BackgroundImageFix" result="shape"/>
<feGaussianBlur stdDeviation="25.9316" result="effect1_foregroundBlur_3001_29259"/>
</filter>
<filter id="filter3_f_3001_29259" x="50.6028" y="413.463" width="394.943" height="662.075" filterUnits="userSpaceOnUse" color-interpolation-filters="sRGB">
<feFlood flood-opacity="0" result="BackgroundImageFix"/>
<feBlend mode="normal" in="SourceGraphic" in2="BackgroundImageFix" result="shape"/>
<feGaussianBlur stdDeviation="63.2367" result="effect1_foregroundBlur_3001_29259"/>
</filter>
</defs>
</svg>
