<svg width="147" height="25" viewBox="0 0 147 25" fill="none" xmlns="http://www.w3.org/2000/svg">
<path d="M137.676 23.6638V8.97579H131.66V6.38379H146.54V8.97579H140.524V23.6638H137.676Z" fill="white"/>
<path d="M123.194 4.368C122.394 4.368 121.664 4.17067 121.002 3.776C120.341 3.38133 119.813 2.85867 119.418 2.208C119.024 1.54667 118.826 0.810666 118.826 0H121.13C121.13 0.565333 121.333 1.05067 121.738 1.456C122.144 1.86133 122.629 2.064 123.194 2.064C123.77 2.064 124.256 1.86133 124.65 1.456C125.056 1.05067 125.258 0.565333 125.258 0H127.562C127.562 0.810666 127.365 1.54667 126.97 2.208C126.586 2.85867 126.058 3.38133 125.386 3.776C124.725 4.17067 123.994 4.368 123.194 4.368ZM129.898 6.384V23.664H127.146V10.928L118.09 23.664H115.738V6.384H118.49V18.944L127.562 6.384H129.898Z" fill="white"/>
<path d="M103.306 24.1438C102.015 24.1438 100.932 23.9091 100.058 23.4398C99.1936 22.9598 98.5376 22.3305 98.0896 21.5518C97.6523 20.7731 97.4336 19.9198 97.4336 18.9918C97.4336 18.0851 97.6043 17.3011 97.9456 16.6398C98.2976 15.9678 98.7883 15.4131 99.4176 14.9758C100.047 14.5278 100.799 14.1758 101.674 13.9198C102.495 13.6958 103.412 13.5038 104.426 13.3438C105.45 13.1731 106.484 13.0185 107.53 12.8798C108.575 12.7411 109.551 12.6078 110.458 12.4798L109.434 13.0718C109.466 11.5358 109.156 10.3998 108.506 9.66381C107.866 8.92781 106.756 8.55981 105.178 8.55981C104.132 8.55981 103.215 8.79981 102.426 9.27981C101.647 9.74914 101.098 10.5171 100.778 11.5838L98.0736 10.7678C98.4896 9.25314 99.2949 8.06381 100.49 7.19981C101.684 6.33581 103.258 5.90381 105.21 5.90381C106.778 5.90381 108.122 6.18648 109.242 6.75181C110.372 7.30648 111.183 8.14914 111.674 9.27981C111.919 9.81314 112.074 10.3945 112.138 11.0238C112.202 11.6425 112.234 12.2931 112.234 12.9758V23.6638H109.706V19.5198L110.298 19.9038C109.647 21.3011 108.735 22.3571 107.562 23.0718C106.399 23.7865 104.98 24.1438 103.306 24.1438ZM103.738 21.7598C104.762 21.7598 105.647 21.5785 106.394 21.2158C107.151 20.8425 107.759 20.3571 108.218 19.7598C108.676 19.1518 108.975 18.4905 109.114 17.7758C109.274 17.2425 109.359 16.6505 109.37 15.9998C109.391 15.3385 109.402 14.8318 109.402 14.4798L110.394 14.9118C109.466 15.0398 108.554 15.1625 107.658 15.2798C106.762 15.3971 105.914 15.5251 105.114 15.6638C104.314 15.7918 103.594 15.9465 102.954 16.1278C102.484 16.2771 102.042 16.4691 101.626 16.7038C101.22 16.9385 100.89 17.2425 100.634 17.6158C100.388 17.9785 100.266 18.4318 100.266 18.9758C100.266 19.4451 100.383 19.8931 100.618 20.3198C100.863 20.7465 101.236 21.0931 101.738 21.3598C102.25 21.6265 102.916 21.7598 103.738 21.7598Z" fill="white"/>
<path d="M79.0039 23.6638V21.2158C79.6439 21.3331 80.1292 21.3118 80.4599 21.1518C80.8012 20.9811 81.0519 20.6878 81.2119 20.2718C81.3826 19.8451 81.5212 19.3118 81.6279 18.6718C81.8092 17.6585 81.9639 16.5278 82.0919 15.2798C82.2306 14.0318 82.3532 12.6665 82.4599 11.1838C82.5772 9.69046 82.6839 8.09046 82.7799 6.38379H94.8599V23.6638H92.0119V9.08779H85.3719C85.3079 10.0691 85.2279 11.0771 85.1319 12.1118C85.0466 13.1465 84.9559 14.1545 84.8599 15.1358C84.7639 16.1065 84.6572 17.0131 84.5399 17.8558C84.4332 18.6878 84.3159 19.4078 84.1879 20.0158C83.9852 21.0611 83.7026 21.8985 83.3399 22.5278C82.9772 23.1465 82.4546 23.5465 81.7719 23.7278C81.0892 23.9198 80.1666 23.8985 79.0039 23.6638Z" fill="white"/>
<path d="M63.2422 23.6638V6.38379H77.4022V23.6638H74.5542V9.08779H66.0902V23.6638H63.2422Z" fill="white"/>
<path d="M41.4141 23.6638V6.38379H43.8621L50.4221 19.7918L56.9821 6.38379H59.4301V23.6638H56.6781V12.3198L51.1741 23.6638H49.6701L44.1661 12.3198V23.6638H41.4141Z" fill="white"/>
<path d="M37.5897 6.38379V23.6638H34.8377V10.9278L25.7817 23.6638H23.4297V6.38379H26.1817V18.9438L35.2537 6.38379H37.5897Z" fill="white"/>
<path d="M10.752 24.144C8.45867 24.144 6.512 23.6374 4.912 22.624C3.312 21.6107 2.09067 20.2027 1.248 18.4C0.416 16.5974 0 14.512 0 12.144C0 9.77604 0.416 7.69071 1.248 5.88804C2.09067 4.08538 3.312 2.67738 4.912 1.66404C6.512 0.650709 8.45867 0.144043 10.752 0.144043C13.4187 0.144043 15.6107 0.821376 17.328 2.17604C19.056 3.53071 20.2453 5.35471 20.896 7.64804L18 8.41604C17.5307 6.69871 16.6933 5.34404 15.488 4.35204C14.2827 3.36004 12.704 2.86404 10.752 2.86404C9.03467 2.86404 7.60533 3.25338 6.464 4.03204C5.32267 4.81071 4.464 5.89871 3.888 7.29604C3.312 8.68271 3.01867 10.2987 3.008 12.144C2.99733 13.9787 3.28 15.5947 3.856 16.992C4.432 18.3787 5.296 19.4667 6.448 20.256C7.6 21.0347 9.03467 21.424 10.752 21.424C12.704 21.424 14.2827 20.928 15.488 19.936C16.6933 18.9334 17.5307 17.5787 18 15.872L20.896 16.64C20.2453 18.9227 19.056 20.7467 17.328 22.112C15.6107 23.4667 13.4187 24.144 10.752 24.144Z" fill="white"/>
</svg>
