<svg width="648" height="301" viewBox="0 0 648 301" fill="none" xmlns="http://www.w3.org/2000/svg">
<path d="M159.935 37V21.0242H161.869V28.1384H170.388V21.0242H172.322V37H170.388V29.8546H161.869V37H159.935ZM187.558 21.0242H189.493V31.6019C189.493 32.694 189.235 33.6691 188.72 34.5272C188.211 35.3801 187.49 36.0535 186.559 36.5476C185.629 37.0364 184.536 37.2808 183.283 37.2808C182.03 37.2808 180.938 37.0364 180.007 36.5476C179.076 36.0535 178.353 35.3801 177.838 34.5272C177.329 33.6691 177.074 32.694 177.074 31.6019V21.0242H179.008V31.4459C179.008 32.226 179.18 32.9202 179.523 33.5287C179.866 34.1319 180.355 34.6078 180.99 34.9562C181.629 35.2994 182.394 35.4711 183.283 35.4711C184.172 35.4711 184.937 35.2994 185.577 34.9562C186.216 34.6078 186.705 34.1319 187.043 33.5287C187.386 32.9202 187.558 32.226 187.558 31.4459V21.0242ZM194.234 37V21.0242H199.82C200.933 21.0242 201.851 21.2166 202.573 21.6014C203.296 21.9811 203.835 22.4933 204.188 23.1382C204.542 23.7778 204.719 24.4877 204.719 25.2677C204.719 25.9542 204.596 26.5211 204.352 26.9683C204.113 27.4155 203.796 27.7692 203.4 28.0292C203.01 28.2892 202.586 28.4816 202.129 28.6064V28.7625C202.618 28.7937 203.109 28.9653 203.603 29.2773C204.097 29.5893 204.511 30.0366 204.843 30.619C205.176 31.2015 205.343 31.9139 205.343 32.7564C205.343 33.5573 205.161 34.2776 204.797 34.9172C204.433 35.5569 203.858 36.0639 203.073 36.4383C202.287 36.8128 201.266 37 200.007 37H194.234ZM196.169 35.2838H200.007C201.271 35.2838 202.168 35.0394 202.698 34.5506C203.234 34.0565 203.502 33.4585 203.502 32.7564C203.502 32.2156 203.364 31.7163 203.088 31.2587C202.813 30.7958 202.42 30.4266 201.91 30.151C201.401 29.8702 200.797 29.7297 200.101 29.7297H196.169V35.2838ZM196.169 28.0448H199.757C200.34 28.0448 200.865 27.9304 201.333 27.7016C201.806 27.4727 202.181 27.1503 202.456 26.7343C202.737 26.3182 202.878 25.8294 202.878 25.2677C202.878 24.5657 202.633 23.9702 202.144 23.4814C201.656 22.9873 200.881 22.7403 199.82 22.7403H196.169V28.0448ZM214.798 20.2753L209.65 39.4026H207.965L213.113 20.2753H214.798ZM226.846 25.0181C226.752 24.2277 226.372 23.614 225.707 23.1772C225.041 22.7403 224.225 22.5219 223.257 22.5219C222.55 22.5219 221.931 22.6363 221.401 22.8651C220.875 23.094 220.465 23.4086 220.168 23.809C219.877 24.2095 219.731 24.6645 219.731 25.1741C219.731 25.6006 219.833 25.9672 220.036 26.274C220.244 26.5757 220.509 26.8279 220.831 27.0307C221.154 27.2283 221.492 27.3921 221.845 27.5222C222.199 27.647 222.524 27.7484 222.82 27.8264L224.443 28.2632C224.859 28.3724 225.322 28.5232 225.831 28.7157C226.346 28.9081 226.838 29.1707 227.306 29.5035C227.779 29.8312 228.169 30.2524 228.476 30.7672C228.783 31.2821 228.936 31.9139 228.936 32.6628C228.936 33.5261 228.71 34.3062 228.257 35.003C227.81 35.6999 227.155 36.2537 226.292 36.6646C225.434 37.0754 224.391 37.2808 223.164 37.2808C222.02 37.2808 221.029 37.0962 220.192 36.727C219.359 36.3577 218.704 35.8429 218.226 35.1824C217.753 34.522 217.485 33.7549 217.422 32.8812H219.419C219.471 33.4845 219.674 33.9837 220.028 34.379C220.387 34.769 220.839 35.0602 221.385 35.2526C221.936 35.4399 222.529 35.5335 223.164 35.5335C223.902 35.5335 224.565 35.4139 225.153 35.1746C225.74 34.9302 226.206 34.5922 226.549 34.1605C226.892 33.7237 227.064 33.2141 227.064 32.6316C227.064 32.1012 226.916 31.6695 226.619 31.3367C226.323 31.0039 225.933 30.7334 225.449 30.5254C224.966 30.3174 224.443 30.1354 223.881 29.9794L221.915 29.4177C220.667 29.0589 219.679 28.5466 218.951 27.881C218.223 27.2153 217.859 26.3442 217.859 25.2677C217.859 24.3733 218.101 23.5932 218.585 22.9275C219.073 22.2567 219.729 21.7366 220.55 21.3674C221.377 20.993 222.3 20.8057 223.32 20.8057C224.349 20.8057 225.265 20.9904 226.065 21.3596C226.866 21.7236 227.501 22.2229 227.969 22.8573C228.442 23.4918 228.692 24.2121 228.718 25.0181H226.846ZM235.897 37L231.529 21.0242H233.495L236.833 34.0357H236.989L240.391 21.0242H242.575L245.976 34.0357H246.132L249.471 21.0242H251.436L247.068 37H245.071L241.545 24.2693H241.42L237.894 37H235.897ZM256.66 21.0242V37H254.725V21.0242H256.66ZM260.544 22.7403V21.0242H272.526V22.7403H267.502V37H265.568V22.7403H260.544ZM288.581 26.0166H286.646C286.532 25.4602 286.332 24.9713 286.046 24.5501C285.765 24.1288 285.421 23.7752 285.016 23.4892C284.615 23.198 284.171 22.9795 283.682 22.8339C283.193 22.6883 282.683 22.6155 282.153 22.6155C281.186 22.6155 280.309 22.8599 279.524 23.3488C278.744 23.8376 278.123 24.5579 277.66 25.5096C277.202 26.4613 276.973 27.6288 276.973 29.0121C276.973 30.3954 277.202 31.5629 277.66 32.5146C278.123 33.4663 278.744 34.1865 279.524 34.6754C280.309 35.1642 281.186 35.4087 282.153 35.4087C282.683 35.4087 283.193 35.3359 283.682 35.1902C284.171 35.0446 284.615 34.8288 285.016 34.5428C285.421 34.2516 285.765 33.8953 286.046 33.4741C286.332 33.0476 286.532 32.5588 286.646 32.0076H288.581C288.435 32.824 288.17 33.5547 287.785 34.1995C287.4 34.8444 286.922 35.3931 286.35 35.8455C285.778 36.2927 285.135 36.6334 284.423 36.8674C283.716 37.1014 282.959 37.2184 282.153 37.2184C280.79 37.2184 279.579 36.8856 278.518 36.2199C277.457 35.5543 276.622 34.6078 276.014 33.3805C275.405 32.1532 275.101 30.697 275.101 29.0121C275.101 27.3271 275.405 25.871 276.014 24.6437C276.622 23.4164 277.457 22.4699 278.518 21.8042C279.579 21.1386 280.79 20.8057 282.153 20.8057C282.959 20.8057 283.716 20.9228 284.423 21.1568C285.135 21.3908 285.778 21.734 286.35 22.1865C286.922 22.6337 287.4 23.1798 287.785 23.8246C288.17 24.4643 288.435 25.1949 288.581 26.0166ZM292.586 37V21.0242H294.52V28.1384H303.038V21.0242H304.973V37H303.038V29.8546H294.52V37H292.586Z" fill="url(#paint0_linear_1443_27272)"/>
<path d="M529.359 19V3.02417H539.001V4.74032H531.294V10.1384H538.502V11.8546H531.294V17.2838H539.126V19H529.359ZM542.493 4.74032V3.02417H554.475V4.74032H549.451V19H547.517V4.74032H542.493ZM558.339 19V3.02417H560.274V10.1384H568.792V3.02417H570.727V19H568.792V11.8546H560.274V19H558.339ZM575.478 19V3.02417H585.12V4.74032H577.413V10.1384H584.621V11.8546H577.413V17.2838H585.245V19H575.478ZM589.486 19V3.02417H594.884C596.132 3.02417 597.156 3.23739 597.957 3.66383C598.758 4.08506 599.351 4.66491 599.736 5.40338C600.121 6.14185 600.313 6.98172 600.313 7.92301C600.313 8.86429 600.121 9.69897 599.736 10.427C599.351 11.1551 598.761 11.7271 597.965 12.1432C597.169 12.554 596.153 12.7594 594.915 12.7594H590.547V11.0121H594.853C595.705 11.0121 596.392 10.8873 596.912 10.6377C597.437 10.388 597.817 10.0344 598.051 9.57676C598.29 9.11391 598.41 8.56266 598.41 7.92301C598.41 7.28335 598.29 6.7243 598.051 6.24586C597.812 5.76741 597.429 5.39818 596.904 5.13816C596.379 4.87293 595.685 4.74032 594.821 4.74032H591.42V19H589.486ZM597.006 11.8234L600.937 19H598.69L594.821 11.8234H597.006ZM617.084 3.02417V19H615.211L606.506 6.45648H606.35V19H604.415V3.02417H606.287L615.024 15.5989H615.18V3.02417H617.084ZM621.833 19V3.02417H631.475V4.74032H623.768V10.1384H630.976V11.8546H623.768V17.2838H631.6V19H621.833ZM634.967 4.74032V3.02417H646.949V4.74032H641.925V19H639.991V4.74032H634.967Z" fill="white"/>
<path d="M472.181 131V115.024H477.579C478.833 115.024 479.857 115.25 480.653 115.703C481.454 116.15 482.046 116.756 482.431 117.52C482.816 118.285 483.009 119.138 483.009 120.079C483.009 121.02 482.816 121.876 482.431 122.645C482.052 123.415 481.464 124.029 480.668 124.486C479.873 124.939 478.853 125.165 477.61 125.165H473.741V123.449H477.548C478.406 123.449 479.095 123.301 479.615 123.004C480.135 122.708 480.512 122.307 480.746 121.803C480.986 121.293 481.105 120.719 481.105 120.079C481.105 119.439 480.986 118.867 480.746 118.363C480.512 117.858 480.133 117.463 479.607 117.177C479.082 116.886 478.385 116.74 477.517 116.74H474.116V131H472.181ZM487.004 131V115.024H488.938V129.284H496.364V131H487.004ZM512.472 120.017H510.537C510.423 119.46 510.223 118.971 509.937 118.55C509.656 118.129 509.313 117.775 508.907 117.489C508.507 117.198 508.062 116.98 507.573 116.834C507.084 116.688 506.575 116.616 506.044 116.616C505.077 116.616 504.201 116.86 503.415 117.349C502.635 117.838 502.014 118.558 501.551 119.51C501.093 120.461 500.865 121.629 500.865 123.012C500.865 124.395 501.093 125.563 501.551 126.515C502.014 127.466 502.635 128.187 503.415 128.675C504.201 129.164 505.077 129.409 506.044 129.409C506.575 129.409 507.084 129.336 507.573 129.19C508.062 129.045 508.507 128.829 508.907 128.543C509.313 128.252 509.656 127.895 509.937 127.474C510.223 127.048 510.423 126.559 510.537 126.008H512.472C512.326 126.824 512.061 127.555 511.676 128.2C511.292 128.844 510.813 129.393 510.241 129.845C509.669 130.293 509.027 130.633 508.314 130.867C507.607 131.101 506.85 131.218 506.044 131.218C504.682 131.218 503.47 130.886 502.409 130.22C501.348 129.554 500.514 128.608 499.905 127.38C499.297 126.153 498.992 124.697 498.992 123.012C498.992 121.327 499.297 119.871 499.905 118.644C500.514 117.416 501.348 116.47 502.409 115.804C503.47 115.139 504.682 114.806 506.044 114.806C506.85 114.806 507.607 114.923 508.314 115.157C509.027 115.391 509.669 115.734 510.241 116.186C510.813 116.634 511.292 117.18 511.676 117.825C512.061 118.464 512.326 119.195 512.472 120.017ZM521.813 115.024V131H519.878V117.052H519.784L515.884 119.642V117.676L519.878 115.024H521.813Z" fill="white"/>
<path d="M472.181 179V163.024H477.579C478.833 163.024 479.857 163.25 480.653 163.703C481.454 164.15 482.046 164.756 482.431 165.52C482.816 166.285 483.009 167.138 483.009 168.079C483.009 169.02 482.816 169.876 482.431 170.645C482.052 171.415 481.464 172.029 480.668 172.486C479.873 172.939 478.853 173.165 477.61 173.165H473.741V171.449H477.548C478.406 171.449 479.095 171.301 479.615 171.004C480.135 170.708 480.512 170.307 480.746 169.803C480.986 169.293 481.105 168.719 481.105 168.079C481.105 167.439 480.986 166.867 480.746 166.363C480.512 165.858 480.133 165.463 479.607 165.177C479.082 164.886 478.385 164.74 477.517 164.74H474.116V179H472.181ZM487.004 179V163.024H488.938V177.284H496.364V179H487.004ZM512.472 168.017H510.537C510.423 167.46 510.223 166.971 509.937 166.55C509.656 166.129 509.313 165.775 508.907 165.489C508.507 165.198 508.062 164.98 507.573 164.834C507.084 164.688 506.575 164.616 506.044 164.616C505.077 164.616 504.201 164.86 503.415 165.349C502.635 165.838 502.014 166.558 501.551 167.51C501.093 168.461 500.865 169.629 500.865 171.012C500.865 172.395 501.093 173.563 501.551 174.515C502.014 175.466 502.635 176.187 503.415 176.675C504.201 177.164 505.077 177.409 506.044 177.409C506.575 177.409 507.084 177.336 507.573 177.19C508.062 177.045 508.507 176.829 508.907 176.543C509.313 176.252 509.656 175.895 509.937 175.474C510.223 175.048 510.423 174.559 510.537 174.008H512.472C512.326 174.824 512.061 175.555 511.676 176.2C511.292 176.844 510.813 177.393 510.241 177.845C509.669 178.293 509.027 178.633 508.314 178.867C507.607 179.101 506.85 179.218 506.044 179.218C504.682 179.218 503.47 178.886 502.409 178.22C501.348 177.554 500.514 176.608 499.905 175.38C499.297 174.153 498.992 172.697 498.992 171.012C498.992 169.327 499.297 167.871 499.905 166.644C500.514 165.416 501.348 164.47 502.409 163.804C503.47 163.139 504.682 162.806 506.044 162.806C506.85 162.806 507.607 162.923 508.314 163.157C509.027 163.391 509.669 163.734 510.241 164.186C510.813 164.634 511.292 165.18 511.676 165.825C512.061 166.464 512.326 167.195 512.472 168.017ZM521.813 163.024V179H519.878V165.052H519.784L515.884 167.642V165.676L519.878 163.024H521.813Z" fill="white"/>
<path d="M171.885 261.024V277H169.951V262.74H161.9V277H159.966V261.024H171.885ZM176.666 277V261.024H182.064C183.318 261.024 184.342 261.25 185.138 261.703C185.939 262.15 186.531 262.756 186.916 263.52C187.301 264.285 187.494 265.138 187.494 266.079C187.494 267.02 187.301 267.876 186.916 268.645C186.537 269.415 185.949 270.029 185.153 270.486C184.358 270.939 183.338 271.165 182.096 271.165H178.226V269.449H182.033C182.891 269.449 183.58 269.301 184.1 269.004C184.62 268.708 184.997 268.307 185.231 267.803C185.471 267.293 185.59 266.719 185.59 266.079C185.59 265.439 185.471 264.867 185.231 264.363C184.997 263.858 184.618 263.463 184.092 263.177C183.567 262.886 182.87 262.74 182.002 262.74H178.601V277H176.666ZM191.489 277V261.024H201.13V262.74H193.423V268.138H200.631V269.855H193.423V275.284H201.255V277H191.489ZM218.975 269.012C218.975 270.697 218.671 272.153 218.063 273.38C217.454 274.608 216.62 275.554 215.559 276.22C214.498 276.886 213.286 277.218 211.924 277.218C210.561 277.218 209.349 276.886 208.289 276.22C207.228 275.554 206.393 274.608 205.785 273.38C205.176 272.153 204.872 270.697 204.872 269.012C204.872 267.327 205.176 265.871 205.785 264.644C206.393 263.416 207.228 262.47 208.289 261.804C209.349 261.139 210.561 260.806 211.924 260.806C213.286 260.806 214.498 261.139 215.559 261.804C216.62 262.47 217.454 263.416 218.063 264.644C218.671 265.871 218.975 267.327 218.975 269.012ZM217.103 269.012C217.103 267.629 216.872 266.461 216.409 265.51C215.951 264.558 215.33 263.838 214.545 263.349C213.765 262.86 212.891 262.616 211.924 262.616C210.956 262.616 210.08 262.86 209.295 263.349C208.515 263.838 207.893 264.558 207.43 265.51C206.973 266.461 206.744 267.629 206.744 269.012C206.744 270.395 206.973 271.563 207.43 272.515C207.893 273.466 208.515 274.187 209.295 274.675C210.08 275.164 210.956 275.409 211.924 275.409C212.891 275.409 213.765 275.164 214.545 274.675C215.33 274.187 215.951 273.466 216.409 272.515C216.872 271.563 217.103 270.395 217.103 269.012ZM223.107 277V261.024H232.749V262.74H225.042V267.733H229.098C230.242 267.733 231.207 267.92 231.992 268.294C232.783 268.669 233.381 269.197 233.786 269.878C234.197 270.559 234.402 271.363 234.402 272.288C234.402 273.214 234.197 274.031 233.786 274.738C233.381 275.445 232.783 275.999 231.992 276.399C231.207 276.8 230.242 277 229.098 277H223.107ZM225.042 275.315H229.098C229.826 275.315 230.442 275.169 230.947 274.878C231.456 274.582 231.841 274.202 232.101 273.739C232.366 273.271 232.499 272.777 232.499 272.257C232.499 271.493 232.205 270.835 231.618 270.284C231.03 269.727 230.19 269.449 229.098 269.449H225.042V275.315ZM238.466 277V261.024H243.864C245.117 261.024 246.142 261.25 246.937 261.703C247.738 262.15 248.331 262.756 248.716 263.52C249.101 264.285 249.293 265.138 249.293 266.079C249.293 267.02 249.101 267.876 248.716 268.645C248.336 269.415 247.749 270.029 246.953 270.486C246.157 270.939 245.138 271.165 243.895 271.165H240.026V269.449H243.833C244.691 269.449 245.38 269.301 245.9 269.004C246.42 268.708 246.797 268.307 247.031 267.803C247.27 267.293 247.39 266.719 247.39 266.079C247.39 265.439 247.27 264.867 247.031 264.363C246.797 263.858 246.417 263.463 245.892 263.177C245.367 262.886 244.67 262.74 243.801 262.74H240.4V277H238.466ZM252.313 277H250.285L256.151 261.024H258.148L264.014 277H261.986L257.212 263.552H257.087L252.313 277ZM253.062 270.759H261.237V272.476H253.062V270.759ZM272.499 277.218C271.469 277.218 270.551 277.042 269.745 276.688C268.944 276.334 268.307 275.843 267.834 275.214C267.366 274.579 267.111 273.843 267.069 273.006H269.035C269.077 273.521 269.253 273.966 269.565 274.34C269.877 274.709 270.286 274.995 270.79 275.198C271.295 275.401 271.854 275.502 272.467 275.502C273.154 275.502 273.762 275.383 274.293 275.143C274.823 274.904 275.239 274.571 275.541 274.145C275.842 273.719 275.993 273.224 275.993 272.663C275.993 272.075 275.848 271.558 275.556 271.11C275.265 270.658 274.839 270.304 274.277 270.05C273.715 269.795 273.029 269.667 272.218 269.667H270.938V267.951H272.218C272.852 267.951 273.409 267.837 273.887 267.608C274.371 267.379 274.748 267.057 275.018 266.641C275.294 266.225 275.432 265.736 275.432 265.174C275.432 264.633 275.312 264.163 275.073 263.762C274.834 263.362 274.495 263.05 274.059 262.826C273.627 262.603 273.117 262.491 272.53 262.491C271.978 262.491 271.458 262.592 270.97 262.795C270.486 262.993 270.091 263.281 269.784 263.661C269.477 264.035 269.311 264.488 269.285 265.018H267.412C267.444 264.181 267.696 263.448 268.169 262.818C268.642 262.184 269.261 261.69 270.026 261.336C270.795 260.983 271.64 260.806 272.561 260.806C273.549 260.806 274.397 261.006 275.104 261.406C275.811 261.802 276.355 262.324 276.734 262.974C277.114 263.624 277.304 264.326 277.304 265.081C277.304 265.98 277.067 266.747 276.594 267.382C276.126 268.016 275.489 268.456 274.683 268.7V268.825C275.692 268.991 276.479 269.42 277.046 270.112C277.613 270.798 277.897 271.649 277.897 272.663C277.897 273.531 277.66 274.311 277.187 275.003C276.719 275.689 276.079 276.23 275.268 276.626C274.456 277.021 273.533 277.218 272.499 277.218ZM295.726 269.012C295.726 270.697 295.422 272.153 294.813 273.38C294.205 274.608 293.37 275.554 292.309 276.22C291.249 276.886 290.037 277.218 288.674 277.218C287.312 277.218 286.1 276.886 285.039 276.22C283.978 275.554 283.144 274.608 282.535 273.38C281.927 272.153 281.623 270.697 281.623 269.012C281.623 267.327 281.927 265.871 282.535 264.644C283.144 263.416 283.978 262.47 285.039 261.804C286.1 261.139 287.312 260.806 288.674 260.806C290.037 260.806 291.249 261.139 292.309 261.804C293.37 262.47 294.205 263.416 294.813 264.644C295.422 265.871 295.726 267.327 295.726 269.012ZM293.854 269.012C293.854 267.629 293.623 266.461 293.16 265.51C292.702 264.558 292.081 263.838 291.295 263.349C290.515 262.86 289.642 262.616 288.674 262.616C287.707 262.616 286.831 262.86 286.046 263.349C285.265 263.838 284.644 264.558 284.181 265.51C283.724 266.461 283.495 267.629 283.495 269.012C283.495 270.395 283.724 271.563 284.181 272.515C284.644 273.466 285.265 274.187 286.046 274.675C286.831 275.164 287.707 275.409 288.674 275.409C289.642 275.409 290.515 275.164 291.295 274.675C292.081 274.187 292.702 273.466 293.16 272.515C293.623 271.563 293.854 270.395 293.854 269.012ZM299.858 277V261.024H305.443C306.556 261.024 307.474 261.217 308.197 261.601C308.92 261.981 309.458 262.493 309.811 263.138C310.165 263.778 310.342 264.488 310.342 265.268C310.342 265.954 310.22 266.521 309.975 266.968C309.736 267.416 309.419 267.769 309.024 268.029C308.634 268.289 308.21 268.482 307.752 268.606V268.762C308.241 268.794 308.732 268.965 309.226 269.277C309.72 269.589 310.134 270.037 310.467 270.619C310.8 271.201 310.966 271.914 310.966 272.756C310.966 273.557 310.784 274.278 310.42 274.917C310.056 275.557 309.481 276.064 308.696 276.438C307.911 276.813 306.889 277 305.63 277H299.858ZM301.792 275.284H305.63C306.894 275.284 307.791 275.039 308.322 274.551C308.857 274.057 309.125 273.458 309.125 272.756C309.125 272.216 308.987 271.716 308.712 271.259C308.436 270.796 308.043 270.427 307.534 270.151C307.024 269.87 306.421 269.73 305.724 269.73H301.792V275.284ZM301.792 268.045H305.381C305.963 268.045 306.488 267.93 306.956 267.702C307.43 267.473 307.804 267.15 308.08 266.734C308.361 266.318 308.501 265.829 308.501 265.268C308.501 264.566 308.256 263.97 307.768 263.481C307.279 262.987 306.504 262.74 305.443 262.74H301.792V268.045ZM315.679 277H313.65L319.517 261.024H321.514L327.38 277H325.352L320.577 263.552H320.453L315.679 277ZM316.428 270.759H324.603V272.476H316.428V270.759ZM328.007 262.74V261.024H339.989V262.74H334.965V277H333.03V262.74H328.007ZM343.853 277V261.024H353.495V262.74H345.788V268.138H352.995V269.855H345.788V275.284H353.62V277H343.853ZM356.487 277V275.221H356.955C357.621 275.221 358.139 275.008 358.508 274.582C358.877 274.155 359.142 273.466 359.303 272.515C359.47 271.563 359.582 270.302 359.639 268.731L359.92 261.024H369.655V277H367.72V262.74H361.761L361.511 269.106C361.449 270.78 361.295 272.205 361.051 273.38C360.806 274.556 360.377 275.453 359.764 276.072C359.15 276.691 358.256 277 357.08 277H356.487ZM375.834 267.733H380.39C381.534 267.733 382.499 267.92 383.284 268.294C384.074 268.669 384.672 269.197 385.078 269.878C385.489 270.559 385.694 271.363 385.694 272.288C385.694 273.214 385.489 274.031 385.078 274.738C384.672 275.445 384.074 275.999 383.284 276.399C382.499 276.8 381.534 277 380.39 277H374.399V261.024H376.333V275.315H380.39C381.118 275.315 381.734 275.169 382.239 274.878C382.748 274.582 383.133 274.202 383.393 273.739C383.658 273.271 383.791 272.777 383.791 272.257C383.791 271.493 383.497 270.835 382.909 270.284C382.322 269.727 381.482 269.449 380.39 269.449H375.834V267.733Z" fill="url(#paint1_linear_1443_27272)"/>
<path d="M159.935 298V282.024H165.333C166.581 282.024 167.605 282.237 168.406 282.664C169.207 283.085 169.8 283.665 170.185 284.403C170.57 285.142 170.762 285.982 170.762 286.923C170.762 287.864 170.57 288.699 170.185 289.427C169.8 290.155 169.21 290.727 168.414 291.143C167.618 291.554 166.602 291.759 165.364 291.759H160.995V290.012H165.301C166.154 290.012 166.841 289.887 167.361 289.638C167.886 289.388 168.266 289.034 168.5 288.577C168.739 288.114 168.859 287.563 168.859 286.923C168.859 286.283 168.739 285.724 168.5 285.246C168.261 284.767 167.878 284.398 167.353 284.138C166.828 283.873 166.134 283.74 165.27 283.74H161.869V298H159.935ZM167.454 290.823L171.386 298H169.139L165.27 290.823H167.454ZM183.601 286.018C183.507 285.228 183.128 284.614 182.462 284.177C181.796 283.74 180.98 283.522 180.013 283.522C179.305 283.522 178.687 283.636 178.156 283.865C177.631 284.094 177.22 284.409 176.924 284.809C176.632 285.209 176.487 285.664 176.487 286.174C176.487 286.601 176.588 286.967 176.791 287.274C176.999 287.576 177.264 287.828 177.587 288.031C177.909 288.228 178.247 288.392 178.601 288.522C178.954 288.647 179.279 288.748 179.576 288.826L181.198 289.263C181.614 289.372 182.077 289.523 182.587 289.716C183.102 289.908 183.593 290.171 184.061 290.504C184.535 290.831 184.925 291.252 185.231 291.767C185.538 292.282 185.692 292.914 185.692 293.663C185.692 294.526 185.465 295.306 185.013 296.003C184.566 296.7 183.91 297.254 183.047 297.665C182.189 298.075 181.146 298.281 179.919 298.281C178.775 298.281 177.784 298.096 176.947 297.727C176.115 297.358 175.46 296.843 174.981 296.182C174.508 295.522 174.24 294.755 174.178 293.881H176.175C176.227 294.484 176.43 294.984 176.783 295.379C177.142 295.769 177.594 296.06 178.141 296.253C178.692 296.44 179.285 296.533 179.919 296.533C180.658 296.533 181.321 296.414 181.908 296.175C182.496 295.93 182.961 295.592 183.305 295.161C183.648 294.724 183.819 294.214 183.819 293.632C183.819 293.101 183.671 292.67 183.375 292.337C183.078 292.004 182.688 291.733 182.205 291.525C181.721 291.317 181.198 291.135 180.637 290.979L178.671 290.418C177.423 290.059 176.435 289.547 175.707 288.881C174.979 288.215 174.615 287.344 174.615 286.268C174.615 285.373 174.856 284.593 175.34 283.928C175.829 283.257 176.484 282.737 177.306 282.367C178.133 281.993 179.056 281.806 180.075 281.806C181.105 281.806 182.02 281.99 182.821 282.36C183.622 282.724 184.256 283.223 184.724 283.857C185.198 284.492 185.447 285.212 185.473 286.018H183.601ZM189.47 298V296.596L194.743 290.823C195.362 290.147 195.872 289.56 196.272 289.06C196.673 288.556 196.969 288.083 197.162 287.641C197.359 287.193 197.458 286.725 197.458 286.237C197.458 285.675 197.323 285.189 197.052 284.778C196.787 284.367 196.423 284.05 195.96 283.826C195.498 283.603 194.977 283.491 194.4 283.491C193.787 283.491 193.251 283.618 192.793 283.873C192.341 284.123 191.99 284.474 191.74 284.926C191.496 285.378 191.374 285.909 191.374 286.517H189.533C189.533 285.581 189.748 284.76 190.18 284.052C190.612 283.345 191.199 282.794 191.943 282.399C192.692 282.003 193.532 281.806 194.463 281.806C195.399 281.806 196.228 282.003 196.951 282.399C197.674 282.794 198.241 283.327 198.652 283.998C199.062 284.669 199.268 285.415 199.268 286.237C199.268 286.824 199.161 287.399 198.948 287.961C198.74 288.517 198.376 289.138 197.856 289.825C197.341 290.506 196.626 291.338 195.711 292.321L192.122 296.159V296.284H199.549V298H189.47ZM209.047 298.218C208.017 298.218 207.1 298.042 206.294 297.688C205.493 297.334 204.856 296.843 204.382 296.214C203.914 295.579 203.659 294.843 203.618 294.006H205.584C205.625 294.521 205.802 294.966 206.114 295.34C206.426 295.709 206.834 295.995 207.339 296.198C207.843 296.401 208.402 296.502 209.016 296.502C209.702 296.502 210.311 296.383 210.841 296.143C211.372 295.904 211.788 295.571 212.089 295.145C212.391 294.719 212.542 294.224 212.542 293.663C212.542 293.075 212.396 292.558 212.105 292.11C211.814 291.658 211.387 291.304 210.826 291.05C210.264 290.795 209.578 290.667 208.766 290.667H207.487V288.951H208.766C209.401 288.951 209.957 288.837 210.436 288.608C210.919 288.379 211.296 288.057 211.567 287.641C211.842 287.225 211.98 286.736 211.98 286.174C211.98 285.633 211.861 285.163 211.621 284.762C211.382 284.362 211.044 284.05 210.607 283.826C210.176 283.603 209.666 283.491 209.078 283.491C208.527 283.491 208.007 283.592 207.518 283.795C207.035 283.993 206.639 284.281 206.333 284.661C206.026 285.035 205.859 285.488 205.833 286.018H203.961C203.992 285.181 204.245 284.448 204.718 283.818C205.191 283.184 205.81 282.69 206.574 282.336C207.344 281.983 208.189 281.806 209.11 281.806C210.098 281.806 210.945 282.006 211.653 282.406C212.36 282.802 212.903 283.324 213.283 283.974C213.663 284.624 213.852 285.326 213.852 286.081C213.852 286.98 213.616 287.747 213.143 288.382C212.674 289.016 212.037 289.456 211.231 289.7V289.825C212.24 289.991 213.028 290.42 213.595 291.112C214.162 291.798 214.445 292.649 214.445 293.663C214.445 294.531 214.209 295.311 213.735 296.003C213.267 296.689 212.628 297.23 211.816 297.626C211.005 298.021 210.082 298.218 209.047 298.218ZM218.514 298V296.596L223.788 290.823C224.407 290.147 224.916 289.56 225.317 289.06C225.717 288.556 226.013 288.083 226.206 287.641C226.403 287.193 226.502 286.725 226.502 286.237C226.502 285.675 226.367 285.189 226.097 284.778C225.831 284.367 225.467 284.05 225.005 283.826C224.542 283.603 224.022 283.491 223.444 283.491C222.831 283.491 222.295 283.618 221.837 283.873C221.385 284.123 221.034 284.474 220.784 284.926C220.54 285.378 220.418 285.909 220.418 286.517H218.577C218.577 285.581 218.793 284.76 219.224 284.052C219.656 283.345 220.244 282.794 220.987 282.399C221.736 282.003 222.576 281.806 223.507 281.806C224.443 281.806 225.272 282.003 225.995 282.399C226.718 282.794 227.285 283.327 227.696 283.998C228.107 284.669 228.312 285.415 228.312 286.237C228.312 286.824 228.205 287.399 227.992 287.961C227.784 288.517 227.42 289.138 226.9 289.825C226.385 290.506 225.67 291.338 224.755 292.321L221.167 296.159V296.284H228.593V298H218.514ZM250.359 290.886L240.312 296.003V294.006L248.019 290.293L247.956 290.418V290.106L248.019 290.231L240.312 286.517V284.52L250.359 289.638V290.886ZM262.446 298V282.024H267.845C269.093 282.024 270.117 282.237 270.918 282.664C271.719 283.085 272.312 283.665 272.697 284.403C273.081 285.142 273.274 285.982 273.274 286.923C273.274 287.864 273.081 288.699 272.697 289.427C272.312 290.155 271.721 290.727 270.926 291.143C270.13 291.554 269.113 291.759 267.876 291.759H263.507V290.012H267.813C268.666 290.012 269.353 289.887 269.873 289.638C270.398 289.388 270.778 289.034 271.012 288.577C271.251 288.114 271.37 287.563 271.37 286.923C271.37 286.283 271.251 285.724 271.012 285.246C270.772 284.767 270.39 284.398 269.865 284.138C269.34 283.873 268.645 283.74 267.782 283.74H264.381V298H262.446ZM269.966 290.823L273.898 298H271.651L267.782 290.823H269.966ZM286.113 286.018C286.019 285.228 285.64 284.614 284.974 284.177C284.308 283.74 283.492 283.522 282.525 283.522C281.817 283.522 281.198 283.636 280.668 283.865C280.143 284.094 279.732 284.409 279.436 284.809C279.144 285.209 278.999 285.664 278.999 286.174C278.999 286.601 279.1 286.967 279.303 287.274C279.511 287.576 279.776 287.828 280.099 288.031C280.421 288.228 280.759 288.392 281.113 288.522C281.466 288.647 281.791 288.748 282.088 288.826L283.71 289.263C284.126 289.372 284.589 289.523 285.099 289.716C285.614 289.908 286.105 290.171 286.573 290.504C287.046 290.831 287.436 291.252 287.743 291.767C288.05 292.282 288.203 292.914 288.203 293.663C288.203 294.526 287.977 295.306 287.525 296.003C287.078 296.7 286.422 297.254 285.559 297.665C284.701 298.075 283.658 298.281 282.431 298.281C281.287 298.281 280.296 298.096 279.459 297.727C278.627 297.358 277.972 296.843 277.493 296.182C277.02 295.522 276.752 294.755 276.69 293.881H278.687C278.739 294.484 278.941 294.984 279.295 295.379C279.654 295.769 280.106 296.06 280.652 296.253C281.204 296.44 281.797 296.533 282.431 296.533C283.169 296.533 283.833 296.414 284.42 296.175C285.008 295.93 285.473 295.592 285.816 295.161C286.16 294.724 286.331 294.214 286.331 293.632C286.331 293.101 286.183 292.67 285.887 292.337C285.59 292.004 285.2 291.733 284.717 291.525C284.233 291.317 283.71 291.135 283.149 290.979L281.183 290.418C279.935 290.059 278.947 289.547 278.219 288.881C277.491 288.215 277.127 287.344 277.127 286.268C277.127 285.373 277.368 284.593 277.852 283.928C278.341 283.257 278.996 282.737 279.818 282.367C280.645 281.993 281.568 281.806 282.587 281.806C283.617 281.806 284.532 281.99 285.333 282.36C286.134 282.724 286.768 283.223 287.236 283.857C287.709 284.492 287.959 285.212 287.985 286.018H286.113ZM291.608 294.724V293.132L298.628 282.024H299.783V284.489H299.003L293.698 292.883V293.008H303.153V294.724H291.608ZM299.128 298V294.24V293.499V282.024H300.968V298H299.128ZM312.072 298.218C311.001 298.218 310.054 298.029 309.232 297.649C308.416 297.264 307.779 296.736 307.321 296.065C306.864 295.389 306.637 294.62 306.643 293.756C306.637 293.08 306.77 292.456 307.04 291.884C307.311 291.307 307.68 290.826 308.148 290.441C308.621 290.051 309.149 289.804 309.732 289.7V289.606C308.967 289.409 308.359 288.98 307.906 288.319C307.454 287.654 307.23 286.897 307.235 286.049C307.23 285.238 307.436 284.513 307.852 283.873C308.268 283.233 308.84 282.729 309.568 282.36C310.301 281.99 311.136 281.806 312.072 281.806C312.998 281.806 313.824 281.99 314.553 282.36C315.281 282.729 315.853 283.233 316.269 283.873C316.69 284.513 316.903 285.238 316.908 286.049C316.903 286.897 316.672 287.654 316.214 288.319C315.762 288.98 315.161 289.409 314.412 289.606V289.7C314.989 289.804 315.509 290.051 315.972 290.441C316.435 290.826 316.804 291.307 317.08 291.884C317.356 292.456 317.496 293.08 317.501 293.756C317.496 294.62 317.262 295.389 316.799 296.065C316.342 296.736 315.704 297.264 314.888 297.649C314.077 298.029 313.138 298.218 312.072 298.218ZM312.072 296.502C312.795 296.502 313.419 296.385 313.944 296.151C314.469 295.917 314.875 295.587 315.161 295.161C315.447 294.734 315.593 294.235 315.598 293.663C315.593 293.06 315.437 292.527 315.13 292.064C314.823 291.601 314.404 291.237 313.874 290.972C313.349 290.706 312.748 290.574 312.072 290.574C311.391 290.574 310.782 290.706 310.247 290.972C309.716 291.237 309.297 291.601 308.991 292.064C308.689 292.527 308.541 293.06 308.546 293.663C308.541 294.235 308.679 294.734 308.959 295.161C309.245 295.587 309.654 295.917 310.184 296.151C310.715 296.385 311.344 296.502 312.072 296.502ZM312.072 288.92C312.644 288.92 313.151 288.806 313.593 288.577C314.04 288.348 314.391 288.028 314.646 287.617C314.901 287.206 315.031 286.725 315.036 286.174C315.031 285.633 314.904 285.163 314.654 284.762C314.404 284.357 314.059 284.045 313.616 283.826C313.174 283.603 312.66 283.491 312.072 283.491C311.474 283.491 310.951 283.603 310.504 283.826C310.057 284.045 309.711 284.357 309.466 284.762C309.222 285.163 309.102 285.633 309.108 286.174C309.102 286.725 309.225 287.206 309.474 287.617C309.729 288.028 310.08 288.348 310.527 288.577C310.975 288.806 311.489 288.92 312.072 288.92ZM326.362 298.218C325.447 298.218 324.622 298.036 323.889 297.672C323.156 297.308 322.568 296.809 322.126 296.175C321.684 295.54 321.442 294.817 321.401 294.006H323.273C323.346 294.729 323.673 295.327 324.256 295.8C324.843 296.268 325.545 296.502 326.362 296.502C327.017 296.502 327.6 296.349 328.109 296.042C328.624 295.735 329.027 295.314 329.318 294.778C329.615 294.237 329.763 293.626 329.763 292.945C329.763 292.248 329.61 291.627 329.303 291.081C329.001 290.53 328.585 290.095 328.055 289.778C327.524 289.461 326.918 289.3 326.237 289.294C325.748 289.289 325.246 289.365 324.732 289.521C324.217 289.671 323.793 289.866 323.46 290.106L321.65 289.887L322.618 282.024H330.918V283.74H324.24L323.678 288.452H323.772C324.1 288.192 324.511 287.976 325.005 287.804C325.499 287.633 326.014 287.547 326.549 287.547C327.527 287.547 328.398 287.781 329.162 288.249C329.932 288.712 330.535 289.346 330.972 290.152C331.414 290.959 331.635 291.879 331.635 292.914C331.635 293.933 331.406 294.843 330.949 295.644C330.496 296.44 329.872 297.069 329.077 297.532C328.281 297.99 327.376 298.218 326.362 298.218Z" fill="url(#paint2_linear_1443_27272)"/>
<path d="M584.137 131V115.024H589.535C590.788 115.024 591.813 115.25 592.608 115.703C593.409 116.15 594.002 116.756 594.387 117.52C594.772 118.285 594.964 119.138 594.964 120.079C594.964 121.02 594.772 121.876 594.387 122.645C594.007 123.415 593.419 124.029 592.624 124.486C591.828 124.939 590.809 125.165 589.566 125.165H585.697V123.449H589.504C590.362 123.449 591.051 123.301 591.571 123.004C592.091 122.708 592.468 122.307 592.702 121.803C592.941 121.293 593.061 120.719 593.061 120.079C593.061 119.439 592.941 118.867 592.702 118.363C592.468 117.858 592.088 117.463 591.563 117.177C591.038 116.886 590.341 116.74 589.472 116.74H586.071V131H584.137ZM598.959 131V115.024H600.894V129.284H608.32V131H598.959ZM624.428 120.017H622.493C622.379 119.46 622.178 118.971 621.892 118.55C621.611 118.129 621.268 117.775 620.863 117.489C620.462 117.198 620.018 116.98 619.529 116.834C619.04 116.688 618.53 116.616 618 116.616C617.032 116.616 616.156 116.86 615.371 117.349C614.591 117.838 613.969 118.558 613.507 119.51C613.049 120.461 612.82 121.629 612.82 123.012C612.82 124.395 613.049 125.563 613.507 126.515C613.969 127.466 614.591 128.187 615.371 128.675C616.156 129.164 617.032 129.409 618 129.409C618.53 129.409 619.04 129.336 619.529 129.19C620.018 129.045 620.462 128.829 620.863 128.543C621.268 128.252 621.611 127.895 621.892 127.474C622.178 127.048 622.379 126.559 622.493 126.008H624.428C624.282 126.824 624.017 127.555 623.632 128.2C623.247 128.844 622.769 129.393 622.197 129.845C621.624 130.293 620.982 130.633 620.27 130.867C619.562 131.101 618.806 131.218 618 131.218C616.637 131.218 615.425 130.886 614.365 130.22C613.304 129.554 612.469 128.608 611.861 127.38C611.252 126.153 610.948 124.697 610.948 123.012C610.948 121.327 611.252 119.871 611.861 118.644C612.469 117.416 613.304 116.47 614.365 115.804C615.425 115.139 616.637 114.806 618 114.806C618.806 114.806 619.562 114.923 620.27 115.157C620.982 115.391 621.624 115.734 622.197 116.186C622.769 116.634 623.247 117.18 623.632 117.825C624.017 118.464 624.282 119.195 624.428 120.017ZM628.151 131V129.596L633.425 123.823C634.044 123.147 634.553 122.56 634.954 122.06C635.354 121.556 635.651 121.083 635.843 120.641C636.041 120.193 636.139 119.725 636.139 119.237C636.139 118.675 636.004 118.189 635.734 117.778C635.469 117.367 635.104 117.05 634.642 116.826C634.179 116.603 633.659 116.491 633.082 116.491C632.468 116.491 631.932 116.618 631.475 116.873C631.022 117.123 630.671 117.474 630.421 117.926C630.177 118.378 630.055 118.909 630.055 119.517H628.214C628.214 118.581 628.43 117.76 628.861 117.052C629.293 116.345 629.881 115.794 630.624 115.399C631.373 115.003 632.213 114.806 633.144 114.806C634.08 114.806 634.909 115.003 635.632 115.399C636.355 115.794 636.922 116.327 637.333 116.998C637.744 117.669 637.949 118.415 637.949 119.237C637.949 119.824 637.843 120.399 637.629 120.961C637.421 121.517 637.057 122.138 636.537 122.825C636.022 123.506 635.307 124.338 634.392 125.321L630.804 129.159V129.284H638.23V131H628.151Z" fill="white"/>
<path d="M584.137 179V163.024H589.535C590.788 163.024 591.813 163.25 592.608 163.703C593.409 164.15 594.002 164.756 594.387 165.52C594.772 166.285 594.964 167.138 594.964 168.079C594.964 169.02 594.772 169.876 594.387 170.645C594.007 171.415 593.419 172.029 592.624 172.486C591.828 172.939 590.809 173.165 589.566 173.165H585.697V171.449H589.504C590.362 171.449 591.051 171.301 591.571 171.004C592.091 170.708 592.468 170.307 592.702 169.803C592.941 169.293 593.061 168.719 593.061 168.079C593.061 167.439 592.941 166.867 592.702 166.363C592.468 165.858 592.088 165.463 591.563 165.177C591.038 164.886 590.341 164.74 589.472 164.74H586.071V179H584.137ZM598.959 179V163.024H600.894V177.284H608.32V179H598.959ZM624.428 168.017H622.493C622.379 167.46 622.178 166.971 621.892 166.55C621.611 166.129 621.268 165.775 620.863 165.489C620.462 165.198 620.018 164.98 619.529 164.834C619.04 164.688 618.53 164.616 618 164.616C617.032 164.616 616.156 164.86 615.371 165.349C614.591 165.838 613.969 166.558 613.507 167.51C613.049 168.461 612.82 169.629 612.82 171.012C612.82 172.395 613.049 173.563 613.507 174.515C613.969 175.466 614.591 176.187 615.371 176.675C616.156 177.164 617.032 177.409 618 177.409C618.53 177.409 619.04 177.336 619.529 177.19C620.018 177.045 620.462 176.829 620.863 176.543C621.268 176.252 621.611 175.895 621.892 175.474C622.178 175.048 622.379 174.559 622.493 174.008H624.428C624.282 174.824 624.017 175.555 623.632 176.2C623.247 176.844 622.769 177.393 622.197 177.845C621.624 178.293 620.982 178.633 620.27 178.867C619.562 179.101 618.806 179.218 618 179.218C616.637 179.218 615.425 178.886 614.365 178.22C613.304 177.554 612.469 176.608 611.861 175.38C611.252 174.153 610.948 172.697 610.948 171.012C610.948 169.327 611.252 167.871 611.861 166.644C612.469 165.416 613.304 164.47 614.365 163.804C615.425 163.139 616.637 162.806 618 162.806C618.806 162.806 619.562 162.923 620.27 163.157C620.982 163.391 621.624 163.734 622.197 164.186C622.769 164.634 623.247 165.18 623.632 165.825C624.017 166.464 624.282 167.195 624.428 168.017ZM628.151 179V177.596L633.425 171.823C634.044 171.147 634.553 170.56 634.954 170.06C635.354 169.556 635.651 169.083 635.843 168.641C636.041 168.193 636.139 167.725 636.139 167.237C636.139 166.675 636.004 166.189 635.734 165.778C635.469 165.367 635.104 165.05 634.642 164.826C634.179 164.603 633.659 164.491 633.082 164.491C632.468 164.491 631.932 164.618 631.475 164.873C631.022 165.123 630.671 165.474 630.421 165.926C630.177 166.378 630.055 166.909 630.055 167.517H628.214C628.214 166.581 628.43 165.76 628.861 165.052C629.293 164.345 629.881 163.794 630.624 163.399C631.373 163.003 632.213 162.806 633.144 162.806C634.08 162.806 634.909 163.003 635.632 163.399C636.355 163.794 636.922 164.327 637.333 164.998C637.744 165.669 637.949 166.415 637.949 167.237C637.949 167.824 637.843 168.399 637.629 168.961C637.421 169.517 637.057 170.138 636.537 170.825C636.022 171.506 635.307 172.338 634.392 173.321L630.804 177.159V177.284H638.23V179H628.151Z" fill="white"/>
<path d="M647 30L311 30" stroke="white"/>
<path d="M499 112L499 30" stroke="white"/>
<path d="M499 270L499 186" stroke="white"/>
<path d="M153 30H68V106" stroke="#1995FC"/>
<path d="M153 270L68 270L68 210" stroke="#1995FC"/>
<path d="M609 112L609 30" stroke="white"/>
<path d="M609 270L609 186" stroke="white"/>
<rect x="1" y="106" width="135" height="84" rx="8" stroke="#1995FC"/>
<path d="M85.7953 131.345L85.8515 131.444C83.8499 131.648 81.7864 132.025 79.702 132.586C67.1067 135.977 58.52 144.815 60.523 152.326C61.1641 154.73 62.8124 156.707 65.1705 158.173C57.2989 160.228 50.097 158.696 47.2346 153.714C43.3725 146.993 48.8736 136.536 59.5219 130.359C70.1701 124.182 81.9331 124.623 85.7953 131.345Z" stroke="#1995FC"/>
<path d="M50.2084 168.656L50.1509 168.554C52.1515 168.35 54.2139 167.973 56.2972 167.412C68.8922 164.019 77.4793 155.18 75.4769 147.669C74.836 145.265 73.1882 143.288 70.8307 141.823C78.7022 139.766 85.904 141.298 88.7659 146.28C92.6271 153.002 87.1258 163.46 76.4785 169.639C65.8311 175.818 54.0696 175.378 50.2084 168.656Z" stroke="#1995FC"/>
<rect x="48" y="190" width="38" height="20" stroke="#1995FC"/>
<path d="M28 210H106" stroke="#1995FC"/>
<path d="M172.79 123.017H170.856C170.741 122.46 170.541 121.971 170.255 121.55C169.974 121.129 169.631 120.775 169.225 120.489C168.825 120.198 168.38 119.98 167.891 119.834C167.402 119.688 166.893 119.616 166.362 119.616C165.395 119.616 164.519 119.86 163.734 120.349C162.953 120.838 162.332 121.558 161.869 122.51C161.412 123.461 161.183 124.629 161.183 126.012C161.183 127.395 161.412 128.563 161.869 129.515C162.332 130.466 162.953 131.187 163.734 131.675C164.519 132.164 165.395 132.409 166.362 132.409C166.893 132.409 167.402 132.336 167.891 132.19C168.38 132.045 168.825 131.829 169.225 131.543C169.631 131.252 169.974 130.895 170.255 130.474C170.541 130.048 170.741 129.559 170.856 129.008H172.79C172.645 129.824 172.379 130.555 171.994 131.2C171.61 131.844 171.131 132.393 170.559 132.845C169.987 133.293 169.345 133.633 168.632 133.867C167.925 134.101 167.168 134.218 166.362 134.218C165 134.218 163.788 133.886 162.727 133.22C161.666 132.554 160.832 131.608 160.223 130.38C159.615 129.153 159.311 127.697 159.311 126.012C159.311 124.327 159.615 122.871 160.223 121.644C160.832 120.416 161.666 119.47 162.727 118.804C163.788 118.139 165 117.806 166.362 117.806C167.168 117.806 167.925 117.923 168.632 118.157C169.345 118.391 169.987 118.734 170.559 119.186C171.131 119.634 171.61 120.18 171.994 120.825C172.379 121.464 172.645 122.195 172.79 123.017ZM175.921 119.74V118.024H187.903V119.74H182.879V134H180.945V119.74H175.921ZM190.556 134H188.528L194.394 118.024H196.391L202.258 134H200.229L195.455 120.552H195.33L190.556 134ZM191.305 127.759H199.48V129.476H191.305V127.759ZM205.625 134V118.024H207.559V125.138H216.078V118.024H218.012V134H216.078V126.855H207.559V134H205.625ZM236.337 132.159L236.119 137.776H234.122V134H232.998V132.159H236.337ZM222.764 134V118.024H224.605V132.221H232.842V118.024H234.683V134H222.764ZM240.139 118.024H242.042V130.599H242.198L250.935 118.024H252.807V134H250.873V121.456H250.717L242.011 134H240.139V118.024ZM268.416 134H266.481V119.74H263.08C262.217 119.74 261.522 119.873 260.997 120.138C260.472 120.398 260.09 120.767 259.851 121.246C259.611 121.724 259.492 122.283 259.492 122.923C259.492 123.563 259.609 124.114 259.843 124.577C260.082 125.034 260.462 125.388 260.982 125.638C261.507 125.887 262.196 126.012 263.049 126.012H267.355V127.759H262.986C261.749 127.759 260.732 127.554 259.936 127.143C259.141 126.727 258.55 126.155 258.166 125.427C257.781 124.699 257.588 123.864 257.588 122.923C257.588 121.982 257.781 121.142 258.166 120.403C258.55 119.665 259.143 119.085 259.944 118.664C260.745 118.237 261.77 118.024 263.018 118.024H268.416V134ZM260.896 126.823H263.08L259.211 134H256.964L260.896 126.823ZM172.79 145.017H170.856C170.741 144.46 170.541 143.971 170.255 143.55C169.974 143.129 169.631 142.775 169.225 142.489C168.825 142.198 168.38 141.98 167.891 141.834C167.402 141.688 166.893 141.616 166.362 141.616C165.395 141.616 164.519 141.86 163.734 142.349C162.953 142.838 162.332 143.558 161.869 144.51C161.412 145.461 161.183 146.629 161.183 148.012C161.183 149.395 161.412 150.563 161.869 151.515C162.332 152.466 162.953 153.187 163.734 153.675C164.519 154.164 165.395 154.409 166.362 154.409C166.893 154.409 167.402 154.336 167.891 154.19C168.38 154.045 168.825 153.829 169.225 153.543C169.631 153.252 169.974 152.895 170.255 152.474C170.541 152.048 170.741 151.559 170.856 151.008H172.79C172.645 151.824 172.379 152.555 171.994 153.2C171.61 153.844 171.131 154.393 170.559 154.845C169.987 155.293 169.345 155.633 168.632 155.867C167.925 156.101 167.168 156.218 166.362 156.218C165 156.218 163.788 155.886 162.727 155.22C161.666 154.554 160.832 153.608 160.223 152.38C159.615 151.153 159.311 149.697 159.311 148.012C159.311 146.327 159.615 144.871 160.223 143.644C160.832 142.416 161.666 141.47 162.727 140.804C163.788 140.139 165 139.806 166.362 139.806C167.168 139.806 167.925 139.923 168.632 140.157C169.345 140.391 169.987 140.734 170.559 141.186C171.131 141.634 171.61 142.18 171.994 142.825C172.379 143.464 172.645 144.195 172.79 145.017ZM176.795 156V140.024H186.437V141.74H178.73V146.733H182.786C183.93 146.733 184.895 146.92 185.68 147.294C186.47 147.669 187.068 148.197 187.474 148.878C187.885 149.559 188.09 150.363 188.09 151.288C188.09 152.214 187.885 153.031 187.474 153.738C187.068 154.445 186.47 154.999 185.68 155.399C184.895 155.8 183.93 156 182.786 156H176.795ZM178.73 154.315H182.786C183.514 154.315 184.13 154.169 184.635 153.878C185.144 153.582 185.529 153.202 185.789 152.739C186.054 152.271 186.187 151.777 186.187 151.257C186.187 150.493 185.893 149.835 185.305 149.284C184.718 148.727 183.878 148.449 182.786 148.449H178.73V154.315ZM205.633 148.012C205.633 149.697 205.329 151.153 204.721 152.38C204.112 153.608 203.277 154.554 202.217 155.22C201.156 155.886 199.944 156.218 198.581 156.218C197.219 156.218 196.007 155.886 194.946 155.22C193.885 154.554 193.051 153.608 192.442 152.38C191.834 151.153 191.53 149.697 191.53 148.012C191.53 146.327 191.834 144.871 192.442 143.644C193.051 142.416 193.885 141.47 194.946 140.804C196.007 140.139 197.219 139.806 198.581 139.806C199.944 139.806 201.156 140.139 202.217 140.804C203.277 141.47 204.112 142.416 204.721 143.644C205.329 144.871 205.633 146.327 205.633 148.012ZM203.761 148.012C203.761 146.629 203.53 145.461 203.067 144.51C202.609 143.558 201.988 142.838 201.202 142.349C200.422 141.86 199.549 141.616 198.581 141.616C197.614 141.616 196.738 141.86 195.953 142.349C195.173 142.838 194.551 143.558 194.088 144.51C193.631 145.461 193.402 146.629 193.402 148.012C193.402 149.395 193.631 150.563 194.088 151.515C194.551 152.466 195.173 153.187 195.953 153.675C196.738 154.164 197.614 154.409 198.581 154.409C199.549 154.409 200.422 154.164 201.202 153.675C201.988 153.187 202.609 152.466 203.067 151.515C203.53 150.563 203.761 149.395 203.761 148.012ZM209.765 156V140.024H215.163C216.416 140.024 217.441 140.25 218.236 140.703C219.037 141.15 219.63 141.756 220.015 142.52C220.4 143.285 220.592 144.138 220.592 145.079C220.592 146.02 220.4 146.876 220.015 147.645C219.635 148.415 219.048 149.029 218.252 149.486C217.456 149.939 216.437 150.165 215.194 150.165H211.325V148.449H215.132C215.99 148.449 216.679 148.301 217.199 148.004C217.719 147.708 218.096 147.307 218.33 146.803C218.569 146.293 218.689 145.719 218.689 145.079C218.689 144.439 218.569 143.867 218.33 143.363C218.096 142.858 217.716 142.463 217.191 142.177C216.666 141.886 215.969 141.74 215.1 141.74H211.699V156H209.765ZM223.612 156H221.584L227.45 140.024H229.447L235.313 156H233.285L228.511 142.552H228.386L223.612 156ZM224.361 149.759H232.536V151.476H224.361V149.759ZM158.562 181.869V176.284H159.591C159.945 175.961 160.278 175.506 160.59 174.919C160.907 174.326 161.175 173.535 161.393 172.547C161.617 171.554 161.765 170.293 161.838 168.764L162.181 162.024H171.667V176.284H173.508V181.838H171.667V178H160.403V181.869H158.562ZM161.9 176.284H169.826V163.74H163.929L163.679 168.764C163.617 169.929 163.507 170.985 163.351 171.931C163.195 172.872 162.995 173.707 162.751 174.435C162.506 175.158 162.223 175.774 161.9 176.284ZM177.965 178H175.937L181.803 162.024H183.8L189.666 178H187.638L182.864 164.552H182.739L177.965 178ZM178.714 171.759H186.889V173.476H178.714V171.759ZM193.033 178V162.024H194.968V169.138H203.486V162.024H205.421V178H203.486V170.855H194.968V178H193.033ZM210.172 178V162.024H212.107V169.138H220.625V162.024H222.56V178H220.625V170.855H212.107V178H210.172ZM228.747 168.733H233.303C234.447 168.733 235.411 168.92 236.197 169.294C236.987 169.669 237.585 170.197 237.991 170.878C238.402 171.559 238.607 172.363 238.607 173.288C238.607 174.214 238.402 175.031 237.991 175.738C237.585 176.445 236.987 176.999 236.197 177.399C235.411 177.8 234.447 178 233.303 178H227.312V162.024H229.246V176.315H233.303C234.031 176.315 234.647 176.169 235.151 175.878C235.661 175.582 236.046 175.202 236.306 174.739C236.571 174.271 236.704 173.777 236.704 173.257C236.704 172.493 236.41 171.835 235.822 171.284C235.235 170.727 234.395 170.449 233.303 170.449H228.747V168.733ZM242.102 162.024V178H240.167V162.024H242.102ZM247.79 162.024L251.908 168.67H252.033L256.152 162.024H258.43L253.406 170.012L258.43 178H256.152L252.033 171.479H251.908L247.79 178H245.512L250.66 170.012L245.512 162.024H247.79Z" fill="#1995FC"/>
<path d="M647 270L391 270" stroke="white"/>
<defs>
<linearGradient id="paint0_linear_1443_27272" x1="158" y1="29" x2="307" y2="29" gradientUnits="userSpaceOnUse">
<stop stop-color="#1995FC"/>
<stop offset="1" stop-color="white"/>
</linearGradient>
<linearGradient id="paint1_linear_1443_27272" x1="158" y1="269" x2="387" y2="269" gradientUnits="userSpaceOnUse">
<stop stop-color="#1995FC"/>
<stop offset="1" stop-color="white"/>
</linearGradient>
<linearGradient id="paint2_linear_1443_27272" x1="158" y1="290" x2="357" y2="290" gradientUnits="userSpaceOnUse">
<stop stop-color="#1995FC"/>
<stop offset="1" stop-color="white"/>
</linearGradient>
</defs>
</svg>
