<svg width="294" height="107" viewBox="0 0 294 107" fill="none" xmlns="http://www.w3.org/2000/svg">
<rect x="25.5547" y="29.3868" width="15.8908" height="15.5561" stroke="#1995FC"/>
<rect x="25.5547" y="58.0975" width="15.8908" height="15.5561" stroke="#1995FC"/>
<rect x="0.5" y="58.0975" width="15.8908" height="15.5561" stroke="#1995FC"/>
<rect x="50.6094" y="58.0975" width="15.8908" height="15.5561" stroke="#1995FC"/>
<path d="M33.5 45.4434L33.5 57.8081" stroke="#1995FC"/>
<path d="M58.5548 57.8086V51.5215H8.44531L8.44531 57.8086" stroke="#1995FC"/>
<rect x="85.5" y="0.5" width="121" height="106" rx="11.5" stroke="#1995FC"/>
<path d="M97 0.5H195C201.351 0.5 206.5 5.64873 206.5 12V21.5H85.5V12C85.5 5.64873 90.6487 0.5 97 0.5Z" stroke="#1995FC"/>
<path d="M181.863 87.1563L179.17 89.9291C177.865 91.2737 177.212 91.9461 176.65 91.9944C176.163 92.0364 175.686 91.8391 175.367 91.4642C175 91.0319 175 90.0898 175 88.2054V73.7946C175 71.9102 175 70.9681 175.367 70.5359C175.686 70.1609 176.163 69.9636 176.65 70.0056C177.212 70.0539 177.865 70.7263 179.17 72.0709L189.041 82.2354C190.317 83.5502 190.956 84.2075 190.996 84.771C191.031 85.26 190.833 85.7365 190.464 86.0538C190.038 86.4195 189.126 86.4195 187.304 86.4195H183.6C183.223 86.4195 183.034 86.4195 182.857 86.463C182.7 86.5016 182.551 86.5651 182.413 86.6513C182.259 86.7486 182.127 86.8845 181.863 87.1563Z" stroke="#1995FC"/>
<circle cx="258.437" cy="53.4387" r="26.2805" stroke="#1995FC"/>
<circle cx="257.999" cy="52.9992" r="8.28049" stroke="#1995FC"/>
<circle cx="257.999" cy="53.0008" r="12.6707" stroke="#1995FC"/>
<path d="M258 89V17" stroke="#1995FC"/>
<path d="M222 53L294 53" stroke="#1995FC"/>
</svg>
