<svg width="258" height="110" viewBox="0 0 258 110" fill="none" xmlns="http://www.w3.org/2000/svg">
<path d="M6.43596 14.3401L4.30321 16.5763C3.26894 17.6608 2.7518 18.203 2.30705 18.242C1.92123 18.2758 1.54312 18.1167 1.29082 17.8143C1 17.4658 1 16.7059 1 15.1862V3.5642C1 2.04448 1 1.28462 1.29082 0.93606C1.54312 0.633679 1.92123 0.474555 2.30705 0.50839C2.7518 0.547392 3.26894 1.08962 4.30321 2.17407L12.1213 10.3715C13.1326 11.4318 13.6382 11.962 13.6701 12.4164C13.6978 12.8108 13.5411 13.1951 13.2484 13.451C12.9111 13.7459 12.1893 13.7459 10.7458 13.7459H7.81151C7.5131 13.7459 7.3639 13.7459 7.22369 13.781C7.0994 13.8121 6.9807 13.8634 6.87207 13.9329C6.74954 14.0113 6.645 14.1209 6.43596 14.3401Z" stroke="#1995FC"/>
<path d="M6.43596 44.7542L4.30321 46.9904C3.26894 48.0748 2.7518 48.6171 2.30705 48.6561C1.92123 48.6899 1.54312 48.5308 1.29082 48.2284C1 47.8798 1 47.12 1 45.6002V33.9783C1 32.4585 1 31.6987 1.29082 31.3501C1.54312 31.0477 1.92123 30.8886 2.30705 30.9225C2.7518 30.9615 3.26894 31.5037 4.30321 32.5881L12.1213 40.7856C13.1326 41.8459 13.6382 42.3761 13.6701 42.8305C13.6978 43.2248 13.5411 43.6091 13.2484 43.8651C12.9111 44.16 12.1893 44.16 10.7458 44.16H7.81151C7.5131 44.16 7.3639 44.16 7.22369 44.1951C7.0994 44.2262 6.9807 44.2774 6.87207 44.3469C6.74954 44.4254 6.645 44.535 6.43596 44.7542Z" stroke="#1995FC"/>
<path d="M6.43596 75.1702L4.30321 77.4064C3.26894 78.4908 2.7518 79.0331 2.30705 79.0721C1.92123 79.1059 1.54312 78.9468 1.29082 78.6444C1 78.2958 1 77.536 1 76.0163V64.3943C1 62.8746 1 62.1147 1.29082 61.7661C1.54312 61.4638 1.92123 61.3046 2.30705 61.3385C2.7518 61.3775 3.26894 61.9197 4.30321 63.0041L12.1213 71.2016C13.1326 72.2619 13.6382 72.7921 13.6701 73.2465C13.6978 73.6408 13.5411 74.0251 13.2484 74.2811C12.9111 74.576 12.1893 74.576 10.7458 74.576H7.81151C7.5131 74.576 7.3639 74.576 7.22369 74.6111C7.0994 74.6422 6.9807 74.6934 6.87207 74.763C6.74954 74.8414 6.645 74.951 6.43596 75.1702Z" stroke="#1995FC"/>
<path d="M6.43596 105.588L4.30321 107.825C3.26894 108.909 2.7518 109.451 2.30705 109.49C1.92123 109.524 1.54312 109.365 1.29082 109.063C1 108.714 1 107.954 1 106.434V94.8124C1 93.2927 1 92.5329 1.29082 92.1843C1.54312 91.8819 1.92123 91.7228 2.30705 91.7566C2.7518 91.7956 3.26894 92.3378 4.30321 93.4223L12.1213 101.62C13.1326 102.68 13.6382 103.21 13.6701 103.665C13.6978 104.059 13.5411 104.443 13.2484 104.699C12.9111 104.994 12.1893 104.994 10.7458 104.994H7.81151C7.5131 104.994 7.3639 104.994 7.22369 105.029C7.0994 105.06 6.9807 105.112 6.87207 105.181C6.74954 105.26 6.645 105.369 6.43596 105.588Z" stroke="#1995FC"/>
<path d="M36.85 14.3401L34.7173 16.5763C33.683 17.6608 33.1659 18.203 32.7211 18.242C32.3353 18.2758 31.9572 18.1167 31.7049 17.8143C31.4141 17.4658 31.4141 16.7059 31.4141 15.1862V3.5642C31.4141 2.04448 31.4141 1.28462 31.7049 0.93606C31.9572 0.633679 32.3353 0.474555 32.7211 0.50839C33.1659 0.547392 33.683 1.08962 34.7173 2.17407L42.5354 10.3715C43.5467 11.4318 44.0523 11.962 44.0842 12.4164C44.1119 12.8108 43.9552 13.1951 43.6624 13.451C43.3251 13.7459 42.6034 13.7459 41.1598 13.7459H38.2256C37.9272 13.7459 37.778 13.7459 37.6378 13.781C37.5135 13.8121 37.3948 13.8634 37.2861 13.9329C37.1636 14.0113 37.0591 14.1209 36.85 14.3401Z" stroke="#1995FC"/>
<path d="M36.85 44.7542L34.7173 46.9904C33.683 48.0748 33.1659 48.6171 32.7211 48.6561C32.3353 48.6899 31.9572 48.5308 31.7049 48.2284C31.4141 47.8798 31.4141 47.12 31.4141 45.6002V33.9783C31.4141 32.4585 31.4141 31.6987 31.7049 31.3501C31.9572 31.0477 32.3353 30.8886 32.7211 30.9225C33.1659 30.9615 33.683 31.5037 34.7173 32.5881L42.5354 40.7856C43.5467 41.8459 44.0523 42.3761 44.0842 42.8305C44.1119 43.2248 43.9552 43.6091 43.6624 43.8651C43.3251 44.16 42.6034 44.16 41.1598 44.16H38.2256C37.9272 44.16 37.778 44.16 37.6378 44.1951C37.5135 44.2262 37.3948 44.2774 37.2861 44.3469C37.1636 44.4254 37.0591 44.535 36.85 44.7542Z" stroke="#1995FC"/>
<path d="M36.85 75.1702L34.7173 77.4064C33.683 78.4908 33.1659 79.0331 32.7211 79.0721C32.3353 79.1059 31.9572 78.9468 31.7049 78.6444C31.4141 78.2958 31.4141 77.536 31.4141 76.0163V64.3943C31.4141 62.8746 31.4141 62.1147 31.7049 61.7661C31.9572 61.4638 32.3353 61.3046 32.7211 61.3385C33.1659 61.3775 33.683 61.9197 34.7173 63.0041L42.5354 71.2016C43.5467 72.2619 44.0523 72.7921 44.0842 73.2465C44.1119 73.6408 43.9552 74.0251 43.6624 74.2811C43.3251 74.576 42.6034 74.576 41.1598 74.576H38.2256C37.9272 74.576 37.778 74.576 37.6378 74.6111C37.5135 74.6422 37.3948 74.6934 37.2861 74.763C37.1636 74.8414 37.0591 74.951 36.85 75.1702Z" stroke="#1995FC"/>
<path d="M36.85 105.588L34.7173 107.824C33.683 108.909 33.1659 109.451 32.7211 109.49C32.3353 109.524 31.9572 109.365 31.7049 109.062C31.4141 108.714 31.4141 107.954 31.4141 106.434V94.8122C31.4141 93.2925 31.4141 92.5327 31.7049 92.1841C31.9572 91.8817 32.3353 91.7226 32.7211 91.7564C33.1659 91.7954 33.683 92.3377 34.7173 93.4221L42.5354 101.62C43.5467 102.68 44.0523 103.21 44.0842 103.664C44.1119 104.059 43.9552 104.443 43.6624 104.699C43.3251 104.994 42.6034 104.994 41.1598 104.994H38.2256C37.9272 104.994 37.778 104.994 37.6378 105.029C37.5135 105.06 37.3948 105.111 37.2861 105.181C37.1636 105.259 37.0591 105.369 36.85 105.588Z" stroke="#1995FC"/>
<path d="M67.268 14.3401L65.1352 16.5763C64.101 17.6608 63.5838 18.203 63.1391 18.242C62.7533 18.2758 62.3751 18.1167 62.1229 17.8143C61.832 17.4658 61.832 16.7059 61.832 15.1862V3.5642C61.832 2.04448 61.832 1.28462 62.1229 0.93606C62.3751 0.633679 62.7533 0.474555 63.1391 0.50839C63.5838 0.547392 64.101 1.08962 65.1352 2.17407L72.9534 10.3715C73.9646 11.4318 74.4703 11.962 74.5022 12.4164C74.5298 12.8108 74.3732 13.1951 74.0804 13.451C73.7431 13.7459 73.0213 13.7459 71.5778 13.7459H68.6435C68.3451 13.7459 68.1959 13.7459 68.0557 13.781C67.9314 13.8121 67.8127 13.8634 67.7041 13.9329C67.5816 14.0113 67.477 14.1209 67.268 14.3401Z" stroke="#1995FC"/>
<path d="M67.268 44.7542L65.1352 46.9904C64.101 48.0748 63.5838 48.6171 63.1391 48.6561C62.7533 48.6899 62.3751 48.5308 62.1229 48.2284C61.832 47.8798 61.832 47.12 61.832 45.6002V33.9783C61.832 32.4585 61.832 31.6987 62.1229 31.3501C62.3751 31.0477 62.7533 30.8886 63.1391 30.9225C63.5838 30.9615 64.101 31.5037 65.1352 32.5881L72.9534 40.7856C73.9646 41.8459 74.4703 42.3761 74.5022 42.8305C74.5298 43.2248 74.3732 43.6091 74.0804 43.8651C73.7431 44.16 73.0213 44.16 71.5778 44.16H68.6435C68.3451 44.16 68.1959 44.16 68.0557 44.1951C67.9314 44.2262 67.8127 44.2774 67.7041 44.3469C67.5816 44.4254 67.477 44.535 67.268 44.7542Z" stroke="#1995FC"/>
<path d="M67.268 75.1702L65.1352 77.4064C64.101 78.4908 63.5838 79.0331 63.1391 79.0721C62.7533 79.1059 62.3751 78.9468 62.1229 78.6444C61.832 78.2958 61.832 77.536 61.832 76.0163V64.3943C61.832 62.8746 61.832 62.1147 62.1229 61.7661C62.3751 61.4638 62.7533 61.3046 63.1391 61.3385C63.5838 61.3775 64.101 61.9197 65.1352 63.0041L72.9534 71.2016C73.9646 72.2619 74.4703 72.7921 74.5022 73.2465C74.5298 73.6408 74.3732 74.0251 74.0804 74.2811C73.7431 74.576 73.0213 74.576 71.5778 74.576H68.6435C68.3451 74.576 68.1959 74.576 68.0557 74.6111C67.9314 74.6422 67.8127 74.6934 67.7041 74.763C67.5816 74.8414 67.477 74.951 67.268 75.1702Z" stroke="#1995FC"/>
<path d="M67.268 105.588L65.1352 107.825C64.101 108.909 63.5838 109.451 63.1391 109.49C62.7533 109.524 62.3751 109.365 62.1229 109.063C61.832 108.714 61.832 107.954 61.832 106.434V94.8125C61.832 93.2928 61.832 92.5329 62.1229 92.1844C62.3751 91.882 62.7533 91.7228 63.1391 91.7567C63.5838 91.7957 64.101 92.3379 65.1352 93.4224L72.9534 101.62C73.9646 102.68 74.4703 103.21 74.5022 103.665C74.5298 104.059 74.3732 104.443 74.0804 104.699C73.7431 104.994 73.0213 104.994 71.5778 104.994H68.6435C68.3451 104.994 68.1959 104.994 68.0557 105.029C67.9314 105.06 67.8127 105.112 67.7041 105.181C67.5816 105.26 67.477 105.369 67.268 105.588Z" stroke="#1995FC"/>
<path d="M97.686 14.3401L95.5532 16.5763C94.5189 17.6608 94.0018 18.203 93.5571 18.242C93.1712 18.2758 92.7931 18.1167 92.5408 17.8143C92.25 17.4658 92.25 16.7059 92.25 15.1862V3.5642C92.25 2.04448 92.25 1.28462 92.5408 0.93606C92.7931 0.633679 93.1712 0.474555 93.5571 0.50839C94.0018 0.547392 94.5189 1.08962 95.5532 2.17407L103.371 10.3715C104.383 11.4318 104.888 11.962 104.92 12.4164C104.948 12.8108 104.791 13.1951 104.498 13.451C104.161 13.7459 103.439 13.7459 101.996 13.7459H99.0615C98.7631 13.7459 98.6139 13.7459 98.4737 13.781C98.3494 13.8121 98.2307 13.8634 98.1221 13.9329C97.9995 14.0113 97.895 14.1209 97.686 14.3401Z" stroke="#1995FC"/>
<path d="M97.686 44.7542L95.5532 46.9904C94.5189 48.0748 94.0018 48.6171 93.5571 48.6561C93.1712 48.6899 92.7931 48.5308 92.5408 48.2284C92.25 47.8798 92.25 47.12 92.25 45.6002V33.9783C92.25 32.4585 92.25 31.6987 92.5408 31.3501C92.7931 31.0477 93.1712 30.8886 93.5571 30.9225C94.0018 30.9615 94.5189 31.5037 95.5532 32.5881L103.371 40.7856C104.383 41.8459 104.888 42.3761 104.92 42.8305C104.948 43.2248 104.791 43.6091 104.498 43.8651C104.161 44.16 103.439 44.16 101.996 44.16H99.0615C98.7631 44.16 98.6139 44.16 98.4737 44.1951C98.3494 44.2262 98.2307 44.2774 98.1221 44.3469C97.9995 44.4254 97.895 44.535 97.686 44.7542Z" stroke="#1995FC"/>
<path d="M97.686 75.1702L95.5532 77.4064C94.5189 78.4908 94.0018 79.0331 93.5571 79.0721C93.1712 79.1059 92.7931 78.9468 92.5408 78.6444C92.25 78.2958 92.25 77.536 92.25 76.0163V64.3943C92.25 62.8746 92.25 62.1147 92.5408 61.7661C92.7931 61.4638 93.1712 61.3046 93.5571 61.3385C94.0018 61.3775 94.5189 61.9197 95.5532 63.0041L103.371 71.2016C104.383 72.2619 104.888 72.7921 104.92 73.2465C104.948 73.6408 104.791 74.0251 104.498 74.2811C104.161 74.576 103.439 74.576 101.996 74.576H99.0615C98.7631 74.576 98.6139 74.576 98.4737 74.6111C98.3494 74.6422 98.2307 74.6934 98.1221 74.763C97.9995 74.8414 97.895 74.951 97.686 75.1702Z" stroke="#1995FC"/>
<path d="M97.686 105.588L95.5532 107.825C94.5189 108.909 94.0018 109.451 93.5571 109.49C93.1712 109.524 92.7931 109.365 92.5408 109.063C92.25 108.714 92.25 107.954 92.25 106.434V94.8125C92.25 93.2928 92.25 92.5329 92.5408 92.1844C92.7931 91.882 93.1712 91.7228 93.5571 91.7567C94.0018 91.7957 94.5189 92.3379 95.5532 93.4224L103.371 101.62C104.383 102.68 104.888 103.21 104.92 103.665C104.948 104.059 104.791 104.443 104.498 104.699C104.161 104.994 103.439 104.994 101.996 104.994H99.0615C98.7631 104.994 98.6139 104.994 98.4737 105.029C98.3494 105.06 98.2307 105.112 98.1221 105.181C97.9995 105.26 97.895 105.369 97.686 105.588Z" stroke="#1995FC"/>
<path d="M128.1 14.3401L125.967 16.5763C124.933 17.6608 124.416 18.203 123.971 18.242C123.585 18.2758 123.207 18.1167 122.955 17.8143C122.664 17.4658 122.664 16.7059 122.664 15.1862V3.5642C122.664 2.04448 122.664 1.28462 122.955 0.93606C123.207 0.633679 123.585 0.474555 123.971 0.50839C124.416 0.547392 124.933 1.08962 125.967 2.17407L133.785 10.3715C134.797 11.4318 135.302 11.962 135.334 12.4164C135.362 12.8108 135.205 13.1951 134.912 13.451C134.575 13.7459 133.853 13.7459 132.41 13.7459H129.476C129.177 13.7459 129.028 13.7459 128.888 13.781C128.763 13.8121 128.645 13.8634 128.536 13.9329C128.414 14.0113 128.309 14.1209 128.1 14.3401Z" stroke="#1995FC"/>
<path d="M128.1 44.7542L125.967 46.9904C124.933 48.0748 124.416 48.6171 123.971 48.6561C123.585 48.6899 123.207 48.5308 122.955 48.2284C122.664 47.8798 122.664 47.12 122.664 45.6002V33.9783C122.664 32.4585 122.664 31.6987 122.955 31.3501C123.207 31.0477 123.585 30.8886 123.971 30.9225C124.416 30.9615 124.933 31.5037 125.967 32.5881L133.785 40.7856C134.797 41.8459 135.302 42.3761 135.334 42.8305C135.362 43.2248 135.205 43.6091 134.912 43.8651C134.575 44.16 133.853 44.16 132.41 44.16H129.476C129.177 44.16 129.028 44.16 128.888 44.1951C128.763 44.2262 128.645 44.2774 128.536 44.3469C128.414 44.4254 128.309 44.535 128.1 44.7542Z" stroke="#1995FC"/>
<path d="M128.1 75.1702L125.967 77.4064C124.933 78.4908 124.416 79.0331 123.971 79.0721C123.585 79.1059 123.207 78.9468 122.955 78.6444C122.664 78.2958 122.664 77.536 122.664 76.0163V64.3943C122.664 62.8746 122.664 62.1147 122.955 61.7661C123.207 61.4638 123.585 61.3046 123.971 61.3385C124.416 61.3775 124.933 61.9197 125.967 63.0041L133.785 71.2016C134.797 72.2619 135.302 72.7921 135.334 73.2465C135.362 73.6408 135.205 74.0251 134.912 74.2811C134.575 74.576 133.853 74.576 132.41 74.576H129.476C129.177 74.576 129.028 74.576 128.888 74.6111C128.763 74.6422 128.645 74.6934 128.536 74.763C128.414 74.8414 128.309 74.951 128.1 75.1702Z" stroke="#1995FC"/>
<path d="M128.1 105.588L125.967 107.824C124.933 108.909 124.416 109.451 123.971 109.49C123.585 109.524 123.207 109.365 122.955 109.062C122.664 108.714 122.664 107.954 122.664 106.434V94.8122C122.664 93.2925 122.664 92.5327 122.955 92.1841C123.207 91.8817 123.585 91.7226 123.971 91.7564C124.416 91.7954 124.933 92.3377 125.967 93.4221L133.785 101.62C134.797 102.68 135.302 103.21 135.334 103.664C135.362 104.059 135.205 104.443 134.912 104.699C134.575 104.994 133.853 104.994 132.41 104.994H129.476C129.177 104.994 129.028 104.994 128.888 105.029C128.763 105.06 128.645 105.111 128.536 105.181C128.414 105.259 128.309 105.369 128.1 105.588Z" stroke="#1995FC"/>
<path d="M158.514 14.3401L156.381 16.5763C155.347 17.6608 154.83 18.203 154.385 18.242C153.999 18.2758 153.621 18.1167 153.369 17.8143C153.078 17.4658 153.078 16.7059 153.078 15.1862V3.5642C153.078 2.04448 153.078 1.28462 153.369 0.93606C153.621 0.633679 153.999 0.474555 154.385 0.50839C154.83 0.547392 155.347 1.08962 156.381 2.17407L164.199 10.3715C165.211 11.4318 165.716 11.962 165.748 12.4164C165.776 12.8108 165.619 13.1951 165.327 13.451C164.989 13.7459 164.267 13.7459 162.824 13.7459H159.89C159.591 13.7459 159.442 13.7459 159.302 13.781C159.178 13.8121 159.059 13.8634 158.95 13.9329C158.828 14.0113 158.723 14.1209 158.514 14.3401Z" stroke="#1995FC"/>
<path d="M158.514 44.7542L156.381 46.9904C155.347 48.0748 154.83 48.6171 154.385 48.6561C153.999 48.6899 153.621 48.5308 153.369 48.2284C153.078 47.8798 153.078 47.12 153.078 45.6002V33.9783C153.078 32.4585 153.078 31.6987 153.369 31.3501C153.621 31.0477 153.999 30.8886 154.385 30.9225C154.83 30.9615 155.347 31.5037 156.381 32.5881L164.199 40.7856C165.211 41.8459 165.716 42.3761 165.748 42.8305C165.776 43.2248 165.619 43.6091 165.327 43.8651C164.989 44.16 164.267 44.16 162.824 44.16H159.89C159.591 44.16 159.442 44.16 159.302 44.1951C159.178 44.2262 159.059 44.2774 158.95 44.3469C158.828 44.4254 158.723 44.535 158.514 44.7542Z" stroke="#1995FC"/>
<path d="M158.514 75.1702L156.381 77.4064C155.347 78.4908 154.83 79.0331 154.385 79.0721C153.999 79.1059 153.621 78.9468 153.369 78.6444C153.078 78.2958 153.078 77.536 153.078 76.0163V64.3943C153.078 62.8746 153.078 62.1147 153.369 61.7661C153.621 61.4638 153.999 61.3046 154.385 61.3385C154.83 61.3775 155.347 61.9197 156.381 63.0041L164.199 71.2016C165.211 72.2619 165.716 72.7921 165.748 73.2465C165.776 73.6408 165.619 74.0251 165.327 74.2811C164.989 74.576 164.267 74.576 162.824 74.576H159.89C159.591 74.576 159.442 74.576 159.302 74.6111C159.178 74.6422 159.059 74.6934 158.95 74.763C158.828 74.8414 158.723 74.951 158.514 75.1702Z" stroke="#1995FC"/>
<path d="M158.514 105.588L156.381 107.825C155.347 108.909 154.83 109.451 154.385 109.49C153.999 109.524 153.621 109.365 153.369 109.063C153.078 108.714 153.078 107.954 153.078 106.434V94.8125C153.078 93.2928 153.078 92.5329 153.369 92.1844C153.621 91.882 153.999 91.7228 154.385 91.7567C154.83 91.7957 155.347 92.3379 156.381 93.4224L164.199 101.62C165.211 102.68 165.716 103.21 165.748 103.665C165.776 104.059 165.619 104.443 165.327 104.699C164.989 104.994 164.267 104.994 162.824 104.994H159.89C159.591 104.994 159.442 104.994 159.302 105.029C159.178 105.06 159.059 105.112 158.95 105.181C158.828 105.26 158.723 105.369 158.514 105.588Z" stroke="#1995FC"/>
<path d="M188.932 14.3401L186.799 16.5763C185.765 17.6608 185.248 18.203 184.803 18.242C184.417 18.2758 184.039 18.1167 183.787 17.8143C183.496 17.4658 183.496 16.7059 183.496 15.1862V3.5642C183.496 2.04448 183.496 1.28462 183.787 0.93606C184.039 0.633679 184.417 0.474555 184.803 0.50839C185.248 0.547392 185.765 1.08962 186.799 2.17407L194.617 10.3715C195.629 11.4318 196.134 11.962 196.166 12.4164C196.194 12.8108 196.037 13.1951 195.744 13.451C195.407 13.7459 194.685 13.7459 193.242 13.7459H190.308C190.009 13.7459 189.86 13.7459 189.72 13.781C189.595 13.8121 189.477 13.8634 189.368 13.9329C189.246 14.0113 189.141 14.1209 188.932 14.3401Z" stroke="#1995FC"/>
<path d="M188.928 44.7542L186.795 46.9904C185.761 48.0748 185.244 48.6171 184.799 48.6561C184.413 48.6899 184.035 48.5308 183.783 48.2284C183.492 47.8798 183.492 47.12 183.492 45.6002V33.9783C183.492 32.4585 183.492 31.6987 183.783 31.3501C184.035 31.0477 184.413 30.8886 184.799 30.9225C185.244 30.9615 185.761 31.5037 186.795 32.5881L194.614 40.7856C195.625 41.8459 196.13 42.3761 196.162 42.8305C196.19 43.2248 196.033 43.6091 195.741 43.8651C195.403 44.16 194.681 44.16 193.238 44.16H190.304C190.005 44.16 189.856 44.16 189.716 44.1951C189.592 44.2262 189.473 44.2774 189.364 44.3469C189.242 44.4254 189.137 44.535 188.928 44.7542Z" stroke="#1995FC"/>
<path d="M188.932 75.1702L186.799 77.4064C185.765 78.4908 185.248 79.0331 184.803 79.0721C184.417 79.1059 184.039 78.9468 183.787 78.6444C183.496 78.2958 183.496 77.536 183.496 76.0163V64.3943C183.496 62.8746 183.496 62.1147 183.787 61.7661C184.039 61.4638 184.417 61.3046 184.803 61.3385C185.248 61.3775 185.765 61.9197 186.799 63.0041L194.617 71.2016C195.629 72.2619 196.134 72.7921 196.166 73.2465C196.194 73.6408 196.037 74.0251 195.744 74.2811C195.407 74.576 194.685 74.576 193.242 74.576H190.308C190.009 74.576 189.86 74.576 189.72 74.6111C189.595 74.6422 189.477 74.6934 189.368 74.763C189.246 74.8414 189.141 74.951 188.932 75.1702Z" stroke="#1995FC"/>
<path d="M188.932 105.588L186.799 107.824C185.765 108.909 185.248 109.451 184.803 109.49C184.417 109.524 184.039 109.365 183.787 109.062C183.496 108.714 183.496 107.954 183.496 106.434V94.8122C183.496 93.2925 183.496 92.5327 183.787 92.1841C184.039 91.8817 184.417 91.7226 184.803 91.7564C185.248 91.7954 185.765 92.3377 186.799 93.4221L194.617 101.62C195.629 102.68 196.134 103.21 196.166 103.664C196.194 104.059 196.037 104.443 195.744 104.699C195.407 104.994 194.685 104.994 193.242 104.994H190.308C190.009 104.994 189.86 104.994 189.72 105.029C189.595 105.06 189.477 105.111 189.368 105.181C189.246 105.259 189.141 105.369 188.932 105.588Z" stroke="#1995FC"/>
<path d="M219.346 14.3401L217.213 16.5763C216.179 17.6608 215.662 18.203 215.217 18.242C214.831 18.2758 214.453 18.1167 214.201 17.8143C213.91 17.4658 213.91 16.7059 213.91 15.1862V3.5642C213.91 2.04448 213.91 1.28462 214.201 0.93606C214.453 0.633679 214.831 0.474555 215.217 0.50839C215.662 0.547392 216.179 1.08962 217.213 2.17407L225.031 10.3715C226.043 11.4318 226.548 11.962 226.58 12.4164C226.608 12.8108 226.451 13.1951 226.159 13.451C225.821 13.7459 225.099 13.7459 223.656 13.7459H220.722C220.423 13.7459 220.274 13.7459 220.134 13.781C220.01 13.8121 219.891 13.8634 219.782 13.9329C219.66 14.0113 219.555 14.1209 219.346 14.3401Z" stroke="#1995FC"/>
<path d="M219.346 44.7542L217.213 46.9904C216.179 48.0748 215.662 48.6171 215.217 48.6561C214.831 48.6899 214.453 48.5308 214.201 48.2284C213.91 47.8798 213.91 47.12 213.91 45.6002V33.9783C213.91 32.4585 213.91 31.6987 214.201 31.3501C214.453 31.0477 214.831 30.8886 215.217 30.9225C215.662 30.9615 216.179 31.5037 217.213 32.5881L225.031 40.7856C226.043 41.8459 226.548 42.3761 226.58 42.8305C226.608 43.2248 226.451 43.6091 226.159 43.8651C225.821 44.16 225.099 44.16 223.656 44.16H220.722C220.423 44.16 220.274 44.16 220.134 44.1951C220.01 44.2262 219.891 44.2774 219.782 44.3469C219.66 44.4254 219.555 44.535 219.346 44.7542Z" stroke="#1995FC"/>
<path d="M219.346 75.1702L217.213 77.4064C216.179 78.4908 215.662 79.0331 215.217 79.0721C214.831 79.1059 214.453 78.9468 214.201 78.6444C213.91 78.2958 213.91 77.536 213.91 76.0163V64.3943C213.91 62.8746 213.91 62.1147 214.201 61.7661C214.453 61.4638 214.831 61.3046 215.217 61.3385C215.662 61.3775 216.179 61.9197 217.213 63.0041L225.031 71.2016C226.043 72.2619 226.548 72.7921 226.58 73.2465C226.608 73.6408 226.451 74.0251 226.159 74.2811C225.821 74.576 225.099 74.576 223.656 74.576H220.722C220.423 74.576 220.274 74.576 220.134 74.6111C220.01 74.6422 219.891 74.6934 219.782 74.763C219.66 74.8414 219.555 74.951 219.346 75.1702Z" stroke="#1995FC"/>
<path d="M219.346 105.588L217.213 107.825C216.179 108.909 215.662 109.451 215.217 109.49C214.831 109.524 214.453 109.365 214.201 109.063C213.91 108.714 213.91 107.954 213.91 106.434V94.8125C213.91 93.2928 213.91 92.5329 214.201 92.1844C214.453 91.882 214.831 91.7228 215.217 91.7567C215.662 91.7957 216.179 92.3379 217.213 93.4224L225.031 101.62C226.043 102.68 226.548 103.21 226.58 103.665C226.608 104.059 226.451 104.443 226.159 104.699C225.821 104.994 225.099 104.994 223.656 104.994H220.722C220.423 104.994 220.274 104.994 220.134 105.029C220.01 105.06 219.891 105.112 219.782 105.181C219.66 105.26 219.555 105.369 219.346 105.588Z" stroke="#1995FC"/>
<path d="M249.764 14.3401L247.631 16.5763C246.597 17.6608 246.08 18.203 245.635 18.242C245.249 18.2758 244.871 18.1167 244.619 17.8143C244.328 17.4658 244.328 16.7059 244.328 15.1862V3.5642C244.328 2.04448 244.328 1.28462 244.619 0.93606C244.871 0.633679 245.249 0.474555 245.635 0.50839C246.08 0.547392 246.597 1.08962 247.631 2.17407L255.449 10.3715C256.461 11.4318 256.966 11.962 256.998 12.4164C257.026 12.8108 256.869 13.1951 256.577 13.451C256.239 13.7459 255.517 13.7459 254.074 13.7459H251.14C250.841 13.7459 250.692 13.7459 250.552 13.781C250.428 13.8121 250.309 13.8634 250.2 13.9329C250.078 14.0113 249.973 14.1209 249.764 14.3401Z" stroke="#1995FC"/>
<path d="M249.764 44.7542L247.631 46.9904C246.597 48.0748 246.08 48.6171 245.635 48.6561C245.249 48.6899 244.871 48.5308 244.619 48.2284C244.328 47.8798 244.328 47.12 244.328 45.6002V33.9783C244.328 32.4585 244.328 31.6987 244.619 31.3501C244.871 31.0477 245.249 30.8886 245.635 30.9225C246.08 30.9615 246.597 31.5037 247.631 32.5881L255.449 40.7856C256.461 41.8459 256.966 42.3761 256.998 42.8305C257.026 43.2248 256.869 43.6091 256.577 43.8651C256.239 44.16 255.517 44.16 254.074 44.16H251.14C250.841 44.16 250.692 44.16 250.552 44.1951C250.428 44.2262 250.309 44.2774 250.2 44.3469C250.078 44.4254 249.973 44.535 249.764 44.7542Z" stroke="#1995FC"/>
<path d="M249.764 75.1702L247.631 77.4064C246.597 78.4908 246.08 79.0331 245.635 79.0721C245.249 79.1059 244.871 78.9468 244.619 78.6444C244.328 78.2958 244.328 77.536 244.328 76.0163V64.3943C244.328 62.8746 244.328 62.1147 244.619 61.7661C244.871 61.4638 245.249 61.3046 245.635 61.3385C246.08 61.3775 246.597 61.9197 247.631 63.0041L255.449 71.2016C256.461 72.2619 256.966 72.7921 256.998 73.2465C257.026 73.6408 256.869 74.0251 256.577 74.2811C256.239 74.576 255.517 74.576 254.074 74.576H251.14C250.841 74.576 250.692 74.576 250.552 74.6111C250.428 74.6422 250.309 74.6934 250.2 74.763C250.078 74.8414 249.973 74.951 249.764 75.1702Z" stroke="#1995FC"/>
<path d="M249.764 105.588L247.631 107.824C246.597 108.909 246.08 109.451 245.635 109.49C245.249 109.524 244.871 109.365 244.619 109.062C244.328 108.714 244.328 107.954 244.328 106.434V94.8122C244.328 93.2925 244.328 92.5327 244.619 92.1841C244.871 91.8817 245.249 91.7226 245.635 91.7564C246.08 91.7954 246.597 92.3377 247.631 93.4221L255.449 101.62C256.461 102.68 256.966 103.21 256.998 103.664C257.026 104.059 256.869 104.443 256.577 104.699C256.239 104.994 255.517 104.994 254.074 104.994H251.14C250.841 104.994 250.692 104.994 250.552 105.029C250.428 105.06 250.309 105.111 250.2 105.181C250.078 105.259 249.973 105.369 249.764 105.588Z" fill="#1995FC" stroke="#1995FC"/>
</svg>
