<svg width="90" height="27" viewBox="0 0 90 27" fill="none" xmlns="http://www.w3.org/2000/svg">
<g clip-path="url(#clip0_941_39294)">
<path d="M29.7361 15.4424C29.9925 14.7297 30.243 14.0597 30.4047 13.3608C30.68 12.1591 30.9105 10.9495 30.9765 9.71565C31.0426 8.48185 30.9986 7.25002 30.4869 6.08907C30.2764 5.61983 29.9981 5.18457 29.661 4.79746C29.1041 4.14927 28.5802 3.46585 27.8637 2.97882C26.8804 2.31005 25.7773 1.96992 24.6171 1.76917C23.4899 1.57356 22.4264 1.74858 21.3736 2.17265C19.675 2.85686 18.9683 4.76578 19.6483 6.4193C19.9554 7.16608 20.447 7.7913 20.9347 8.42008C21.4224 9.04886 21.9596 9.63805 22.406 10.2993C22.7431 10.7937 23.0014 11.3381 23.1717 11.9128C23.2024 12.0174 23.2217 12.1365 23.3637 12.1587C23.5056 12.1809 23.5756 12.0795 23.6449 11.9841C23.7694 11.8064 23.8712 11.6136 23.9481 11.4104C24.3783 10.2957 24.8487 9.19299 25.1555 8.03481C25.1725 7.97133 25.2003 7.91131 25.2377 7.85742C25.3014 7.76635 25.3887 7.70577 25.5063 7.74259C25.6239 7.77942 25.6939 7.86138 25.688 7.99205C25.6715 8.34841 25.6522 8.70477 25.6353 9.05915C25.596 9.85582 25.5637 10.6533 25.4504 11.444C25.3391 12.2205 25.021 12.8968 24.4405 13.4238C23.5359 14.2446 22.0638 13.8689 21.6312 12.7178C21.5589 12.5345 21.4972 12.3472 21.4464 12.1567C21.2851 11.5086 20.9571 10.9562 20.519 10.4616C19.9566 9.8281 19.3277 9.25001 18.8098 8.57727C17.9264 7.42899 17.4895 6.14015 17.6468 4.67035C17.7129 4.05187 17.7884 3.43734 18.0716 2.87627C18.6175 1.79332 19.5185 1.08733 20.5745 0.567829C21.5565 0.0843643 22.6148 -0.0435302 23.6924 0.0122999C25.0741 0.0835724 26.425 0.332234 27.6882 0.914689C30.1388 2.04317 31.7902 3.89625 32.5395 6.51552C32.8242 7.51056 32.8671 8.54718 32.8218 9.57628C32.7231 11.8261 32.3137 14.0189 31.5456 16.1389C31.4406 16.4287 31.3207 16.7138 31.1917 16.9946C31.1401 17.1074 31.1637 17.168 31.2499 17.2444C31.7253 17.6649 32.2992 17.8779 32.8938 18.0494C32.9831 18.0751 33.1337 18.0648 33.1298 18.1761C33.1274 18.2949 32.9725 18.2949 32.8781 18.3151C32.4805 18.3966 32.0978 18.2933 31.7171 18.1963C31.4383 18.1251 31.1661 18.0301 30.9034 17.9124C30.831 17.8799 30.776 17.8641 30.7299 17.9579C30.2018 19.0377 29.451 19.9773 28.8422 21.0088C28.4693 21.6423 28.1523 22.2909 28.0513 23.0321C27.9549 23.7353 28.1464 24.3297 28.6923 24.7811C29.191 25.1937 29.7609 25.3255 30.3835 25.1014C30.8412 24.9363 31.1217 24.5989 31.2648 24.1361C31.4161 23.6512 31.4848 23.1441 31.4677 22.6362C31.4575 22.3309 31.4654 22.3305 31.778 22.3305C32.1843 22.3305 32.5906 22.3305 32.9972 22.3305C33.0598 22.3305 33.1491 22.2945 33.1498 22.4204C33.1538 23.2713 33.1648 24.123 32.8242 24.9292C32.6473 25.355 32.4104 25.753 32.1206 26.1107C31.71 26.6132 31.1531 26.8349 30.5364 26.9359C29.4781 27.1097 28.4913 26.9256 27.5946 26.3194C26.7526 25.7488 26.3715 24.9216 26.2653 23.9222C26.1328 22.6694 26.4451 21.537 27.0669 20.4663C27.6886 19.3956 28.3053 18.3127 28.9208 17.2333C29.0998 16.9193 29.0872 16.9253 28.8131 16.7114C28.03 16.1017 27.3154 15.4305 26.904 14.4941C26.7676 14.1833 26.8065 13.9045 27.0259 13.6503C27.2662 13.3731 27.5718 13.3003 27.9116 13.4452C28.2215 13.577 28.454 13.8091 28.6762 14.0534C29.0616 14.4739 29.3928 14.9316 29.7361 15.4424Z" fill="#5C5E60"/>
<path d="M40.4624 22.3966C40.0762 22.6567 39.6829 22.842 39.2503 22.937C38.2037 23.1687 37.1702 23.1445 36.1673 22.7331C35.1888 22.3316 34.589 21.5848 34.3035 20.5759C34.0457 19.6855 34.0321 18.7414 34.2642 17.8438C34.6343 16.4093 35.5888 15.5742 37.0129 15.2943C37.9229 15.1153 38.8361 15.1311 39.7187 15.476C39.9956 15.5768 40.251 15.7299 40.471 15.927C40.471 15.7654 40.4738 15.6435 40.471 15.5215C40.4683 15.4376 40.5005 15.4051 40.5855 15.4055C41.0836 15.4076 41.5818 15.4076 42.08 15.4055C42.1708 15.4055 42.2165 15.4344 42.2066 15.5298C42.2066 15.5429 42.2066 15.5564 42.2066 15.5694C42.2066 18.1083 42.2204 20.6476 42.1988 23.1865C42.183 25.0039 41.2195 26.1495 39.4505 26.473C38.4486 26.6584 37.4186 26.6215 36.4324 26.3649C35.2525 26.0596 34.6362 25.251 34.4561 24.0734C34.359 23.4399 34.3688 23.4399 34.9921 23.43C35.2997 23.4261 35.6076 23.4217 35.9152 23.4059C36.0627 23.3983 36.1437 23.4249 36.1582 23.5979C36.1716 23.7598 36.2251 23.919 36.2656 24.0782C36.3801 24.526 36.6522 24.8119 37.1072 24.9192C37.7994 25.0823 38.494 25.1061 39.187 24.9434C39.92 24.7715 40.3393 24.2972 40.4223 23.5429C40.4636 23.1718 40.4935 22.7989 40.4624 22.3966ZM38.2226 21.4977C38.308 21.4977 38.3933 21.5001 38.4782 21.4977C39.3313 21.4668 40.0514 20.9573 40.3086 20.1824C40.5298 19.5352 40.542 18.8342 40.3436 18.1796C40.1371 17.499 39.6849 17.0523 38.9899 16.8801C38.566 16.7751 38.1361 16.7755 37.7023 16.825C36.852 16.9224 36.1999 17.476 35.986 18.3103C35.8377 18.9008 35.8436 19.52 36.0033 20.1075C36.1767 20.7763 36.6082 21.1988 37.272 21.3801C37.5818 21.4642 37.9018 21.5038 38.2226 21.4977Z" fill="#5C5E60"/>
<path d="M0.00355691 17.4351C0.00355691 15.6541 0.00355691 13.8731 0.00355691 12.092C0.000410607 11.9574 0.00434349 11.8782 0.182503 11.8782C1.98455 11.8826 3.78659 11.8743 5.58864 11.8751C6.45387 11.8751 7.22708 12.1352 7.83589 12.7818C8.30232 13.2771 8.53908 13.883 8.63426 14.5517C8.73612 15.268 8.7082 15.9772 8.44194 16.6527C8.00185 17.7725 7.14409 18.3668 5.98901 18.5671C5.65913 18.6189 5.32544 18.6421 4.99163 18.6364C4.00841 18.6364 3.02519 18.6392 2.04197 18.6325C1.88465 18.6325 1.84532 18.6768 1.84532 18.8305C1.8524 20.1498 1.84808 21.4691 1.85516 22.79C1.85516 22.9484 1.82212 23.0058 1.6534 23.0027C1.16887 22.9932 0.683814 22.9954 0.198234 23.0094C0.0259743 23.0145 -0.00234241 22.9552 -0.00194912 22.7976C0.00591664 21.0102 0.0039502 19.2225 0.00355691 17.4351ZM3.75474 13.5353V13.5306C3.17778 13.5306 2.60122 13.5333 2.02427 13.5286C1.90628 13.5286 1.84965 13.5484 1.85044 13.687C1.85594 14.7359 1.85398 15.7855 1.8524 16.8336C1.8524 16.9255 1.86342 16.9825 1.97747 16.9801C3.14317 16.9584 4.31124 17.0344 5.47458 16.9374C6.05901 16.8887 6.52388 16.6186 6.72131 16.0112C6.83929 15.6521 6.83103 15.2819 6.8035 14.914C6.73822 14.0394 6.23481 13.5567 5.36682 13.5365C4.82959 13.5254 4.29197 13.5353 3.75474 13.5353Z" fill="#5C5E60"/>
<path d="M66.8907 17.4613C66.8907 15.6663 66.8899 13.8725 66.8883 12.0798C66.8883 11.9472 66.9025 11.8795 67.0645 11.8799C68.9129 11.8838 70.7614 11.8648 72.6067 11.883C74.1299 11.8977 75.285 12.9347 75.5052 14.45C75.6303 15.3112 75.604 16.1626 75.1934 16.9553C74.7057 17.8972 73.8994 18.3914 72.8804 18.568C72.3692 18.6571 71.8492 18.6365 71.3324 18.6369C70.5396 18.6369 69.7471 18.642 68.9542 18.6337C68.7863 18.6337 68.732 18.6706 68.7332 18.8503C68.743 20.1625 68.7371 21.4751 68.7474 22.7873C68.7474 22.9675 68.6966 23.0067 68.5279 23.0035C68.0497 22.994 67.5714 22.996 67.0932 23.0095C66.9276 23.0142 66.8863 22.9675 66.8867 22.8032C66.8926 21.0218 66.8907 19.2431 66.8907 17.4613ZM70.643 13.5338V13.5314C70.0731 13.5314 69.5025 13.5374 68.9338 13.5275C68.7737 13.5247 68.7371 13.5785 68.7399 13.729C68.7462 14.6587 68.743 15.588 68.743 16.5177C68.743 16.9806 68.743 16.9858 69.2004 16.9794C70.2344 16.9652 71.2695 17.019 72.3027 16.9481C72.987 16.9002 73.4554 16.5447 73.6222 15.9582C73.7114 15.6415 73.7201 15.32 73.6977 14.9976C73.6304 14.0264 73.142 13.5564 72.1753 13.5374C71.6648 13.5247 71.1539 13.533 70.643 13.533V13.5338Z" fill="#5C5E60"/>
<path d="M53.5852 19.7984C52.615 19.7984 51.6451 19.8019 50.6749 19.7948C50.5058 19.7948 50.4782 19.8419 50.514 19.9995C50.7453 21.033 51.476 21.638 52.5748 21.6942C52.8693 21.7108 53.1646 21.6871 53.4527 21.6237C53.9455 21.5133 54.3313 21.2539 54.5771 20.8053C54.596 20.761 54.6285 20.7239 54.6698 20.6996C54.7111 20.6752 54.7591 20.6648 54.8068 20.6699C55.3113 20.6758 55.8159 20.677 56.3205 20.6699C56.4751 20.6679 56.4951 20.7123 56.446 20.8532C56.1007 21.8391 55.449 22.5368 54.4823 22.9063C53.2812 23.3652 52.0667 23.358 50.8873 22.8397C49.8749 22.3955 49.2252 21.6012 48.9208 20.5317C48.6624 19.6178 48.6522 18.6972 48.9169 17.783C49.2634 16.5864 50.0303 15.781 51.2117 15.4116C52.2061 15.0938 53.2744 15.0973 54.2668 15.4215C55.4714 15.8095 56.1758 16.6909 56.5085 17.893C56.6658 18.4561 56.6914 19.035 56.6997 19.6162C56.702 19.7671 56.6572 19.8027 56.5117 19.8019C55.5383 19.7932 54.5617 19.7984 53.5852 19.7984ZM52.7385 18.3611C53.3933 18.3611 54.0481 18.3551 54.7049 18.365C54.8831 18.3678 54.9208 18.3222 54.8559 18.1579C54.5267 17.3264 53.9447 16.7942 53.0468 16.6905C52.0333 16.5717 50.9702 16.9004 50.5974 18.1726C50.5518 18.3282 50.5801 18.3654 50.7366 18.3638C51.404 18.3579 52.0718 18.3614 52.7385 18.3611Z" fill="#5C5E60"/>
<path d="M18.9087 20.6693C19.1576 20.6693 19.4066 20.6693 19.6559 20.6693C19.731 20.6693 19.8026 20.6653 19.8156 20.7675C19.8852 21.2993 20.2522 21.5198 20.7182 21.6208C21.41 21.7789 22.1284 21.7774 22.8195 21.6164C22.9404 21.5872 23.0569 21.5425 23.1664 21.4834C23.4724 21.3206 23.579 21.072 23.5251 20.6824C23.4901 20.4281 23.2817 20.2171 22.9745 20.1629C22.4597 20.0714 21.9425 19.9938 21.4257 19.9134C20.8507 19.8239 20.2761 19.7356 19.711 19.5939C18.6137 19.3167 18.1378 18.4345 18.2224 17.3741C18.2747 16.7097 18.5425 16.1506 19.0998 15.7677C19.4896 15.4997 19.9418 15.3797 20.4036 15.3056C21.3368 15.1556 22.2689 15.1437 23.1865 15.4042C24.1988 15.6913 24.8406 16.3328 24.9956 17.407C25.0243 17.6081 25.0121 17.8148 25.0235 18.0187C25.029 18.1205 24.9755 18.1375 24.8906 18.1375C24.399 18.1352 23.9074 18.134 23.4162 18.1375C23.3056 18.1375 23.2852 18.0888 23.2872 17.9938C23.2937 17.8687 23.2897 17.7433 23.2754 17.6188C23.2065 17.1631 22.908 16.9164 22.4888 16.8103C21.8438 16.6486 21.1682 16.6587 20.5282 16.8396C20.2376 16.9188 19.9843 17.0696 19.9304 17.4205C19.8809 17.7428 19.9647 17.9241 20.264 18.0496C20.6179 18.1981 20.9982 18.2314 21.3718 18.2912C22.1136 18.41 22.8695 18.4464 23.5967 18.6519C24.1642 18.8103 24.6707 19.0736 24.9956 19.5998C25.7137 20.7643 25.1773 22.3319 23.8771 22.8736C23.4461 23.0502 22.9897 23.1559 22.5254 23.1864C21.6877 23.247 20.8503 23.2398 20.026 23.0415C18.8501 22.7592 18.1642 21.9847 18.0258 20.794C18.014 20.6927 18.0466 20.6669 18.1394 20.6681C18.3974 20.6729 18.653 20.6693 18.9087 20.6693Z" fill="#5C5E60"/>
<path d="M58.5108 20.6681C58.7531 20.6681 58.9957 20.6733 59.238 20.6658C59.341 20.6622 59.3953 20.6899 59.4114 20.7968C59.4815 21.272 59.8071 21.4961 60.2259 21.599C60.9534 21.7807 61.7134 21.7844 62.4425 21.6097C62.5438 21.5831 62.6416 21.5445 62.7339 21.4949C63.0635 21.327 63.1843 21.0657 63.1213 20.6713C63.0796 20.408 62.8488 20.2045 62.5239 20.1518C61.7047 20.018 60.8843 19.8905 60.0659 19.7523C59.7886 19.7067 59.514 19.6463 59.2431 19.5713C58.4565 19.3492 57.9693 18.8392 57.8481 18.0144C57.7301 17.2146 57.8875 16.4908 58.501 15.9202C58.8604 15.5868 59.3108 15.4399 59.776 15.3496C60.8631 15.1378 61.9509 15.1053 63.0124 15.4803C64.2446 15.9159 64.6642 16.9058 64.6205 18.0259C64.617 18.1154 64.5812 18.136 64.5026 18.1356C64.0044 18.1332 63.5062 18.1332 63.0081 18.1356C62.9125 18.1356 62.883 18.0992 62.8857 18.0069C62.8933 17.8881 62.8898 17.7688 62.8755 17.6506C62.7969 17.1378 62.5027 16.8646 61.8715 16.7565C61.3021 16.6526 60.717 16.6767 60.1579 16.827C59.8496 16.9125 59.5869 17.0594 59.5208 17.4209C59.4708 17.6953 59.5479 17.8822 59.7933 18.0148C60.0824 18.1704 60.4061 18.1942 60.7207 18.25C61.4864 18.3862 62.2671 18.4235 63.0258 18.6064C63.537 18.7295 64.0043 18.9307 64.381 19.3191C65.1637 20.1233 65.1397 22.0453 63.7002 22.7667C63.2055 23.0146 62.6777 23.1405 62.1361 23.1837C61.2591 23.2538 60.3829 23.2435 59.5239 23.013C58.4078 22.7137 57.762 21.9586 57.6239 20.8075C57.6122 20.7058 57.6342 20.6642 57.7419 20.667C57.9995 20.6737 58.2552 20.6681 58.5108 20.6681Z" fill="#5C5E60"/>
<path d="M85.9616 15.1974C86.512 15.1811 87.0609 15.2615 87.5839 15.4349C88.7449 15.8333 89.4898 16.6398 89.8115 17.8206C90.0678 18.7467 90.0629 19.7263 89.7973 20.6497C89.4516 21.8685 88.6599 22.6628 87.4632 23.0255C86.5299 23.3104 85.5356 23.3242 84.5949 23.0651C83.6561 22.8136 82.9333 22.2478 82.4963 21.3743C81.8148 20.0114 81.7927 18.5994 82.4071 17.2168C82.9258 16.0491 83.9016 15.4413 85.1396 15.2413C85.4126 15.2025 85.6871 15.2001 85.9616 15.1974ZM88.2639 19.2183C88.2648 18.968 88.2484 18.718 88.2147 18.47C88.0861 17.6115 87.5855 17.041 86.7686 16.8426C86.4495 16.7668 86.1215 16.7365 85.794 16.7527C84.7684 16.7978 84.0565 17.3502 83.8174 18.3064C83.6609 18.9091 83.6628 19.5424 83.8229 20.1441C84.042 20.957 84.5465 21.4872 85.3937 21.64C85.7374 21.7022 86.0831 21.6915 86.4304 21.6586C87.3157 21.5747 87.9709 21.0077 88.1754 20.1405C88.2423 19.8379 88.272 19.5282 88.2639 19.2183Z" fill="#5C5E60"/>
<path d="M13.0324 15.1961C13.6616 15.1862 14.2744 15.2686 14.8576 15.5081C16.0961 16.0157 16.769 16.9763 16.9892 18.2771C17.1399 19.1676 17.1045 20.0533 16.7926 20.907C16.3159 22.2109 15.3398 22.9149 14.0125 23.1545C13.1708 23.3061 12.3256 23.2931 11.5092 23.0187C10.1948 22.5764 9.45975 21.6075 9.1754 20.277C8.98662 19.3933 9.01101 18.5031 9.30715 17.6451C9.78893 16.249 10.7946 15.4772 12.2312 15.2444C12.4967 15.2009 12.7645 15.2009 13.0324 15.1961ZM15.3425 19.2289C15.3474 19.0048 15.3342 18.7806 15.3032 18.5586C15.2002 17.6479 14.6759 17.0341 13.817 16.835C13.4973 16.7618 13.169 16.7342 12.8416 16.753C11.8698 16.8045 11.1898 17.3105 10.9255 18.201C10.7188 18.8736 10.7224 19.5939 10.9358 20.2644C11.1717 21.0072 11.6598 21.4843 12.4405 21.6308C12.7917 21.6969 13.1413 21.6926 13.4957 21.6589C14.4057 21.5726 15.0688 20.9909 15.2611 20.0921C15.325 19.8091 15.3523 19.519 15.3425 19.2289Z" fill="#5C5E60"/>
<path d="M45.2475 15.6798C45.9948 15.1516 46.8262 15.1924 47.6513 15.1951C48.1323 15.1951 48.1323 15.1951 48.1323 15.6766C48.1323 15.9934 48.124 16.3101 48.1358 16.6269C48.1425 16.8015 48.1016 16.8716 47.9101 16.8625C47.5561 16.8451 47.2022 16.8479 46.8482 16.8589C46.121 16.8811 45.6684 17.2268 45.4284 17.9209C45.2794 18.3565 45.244 18.8102 45.2408 19.2644C45.2326 20.4384 45.2349 21.6124 45.2408 22.7884C45.2408 22.9468 45.2078 23.0066 45.0375 23.0018C44.6049 22.9896 44.1723 22.9927 43.7397 23.0018C43.5934 23.0046 43.5371 22.9737 43.5375 22.8082C43.5422 20.4013 43.5414 17.9942 43.5352 15.5867C43.5352 15.4505 43.569 15.4046 43.709 15.4074C44.1345 15.4161 44.5605 15.4109 44.9864 15.4109C45.2294 15.4066 45.2294 15.4066 45.2475 15.6798Z" fill="#5C5E60"/>
<path d="M78.5333 15.682C79.3089 15.1352 80.169 15.1958 81.0177 15.195C81.4141 15.195 81.4137 15.195 81.4141 15.5989C81.4141 15.9552 81.4055 16.3116 81.4181 16.668C81.424 16.8311 81.3677 16.8659 81.2171 16.8608C80.8702 16.8489 80.5231 16.8476 80.1757 16.8568C79.3891 16.877 78.9124 17.256 78.6934 18.0202C78.5907 18.3813 78.5388 18.7552 78.5392 19.1308C78.5392 20.3504 78.5353 21.5699 78.5392 22.7895C78.5392 22.9506 78.4999 23.0041 78.3347 22.9993C77.9092 22.9875 77.4835 22.9875 77.0577 22.9993C76.8874 23.0041 76.8374 22.9597 76.8378 22.7831C76.8423 20.6735 76.8414 18.5638 76.8351 16.4541C76.8351 16.1576 76.8351 15.8602 76.8264 15.5644C76.8225 15.4425 76.8614 15.4037 76.9838 15.406C77.4164 15.4116 77.849 15.4159 78.2816 15.406C78.4664 15.3977 78.5876 15.4235 78.5333 15.682Z" fill="#5C5E60"/>
<path d="M28.6646 10.9069C28.6665 10.7932 28.6907 10.6811 28.7357 10.5768C28.7807 10.4725 28.8457 10.3782 28.9269 10.2993C29.0081 10.2203 29.104 10.1582 29.2091 10.1166C29.3142 10.075 29.4264 10.0547 29.5393 10.0568C30.0152 10.0635 30.4112 10.4793 30.3935 10.9532C30.3898 11.0685 30.3635 11.1818 30.3162 11.2868C30.2688 11.3917 30.2013 11.4862 30.1175 11.5648C30.0338 11.6434 29.9354 11.7046 29.828 11.7448C29.7207 11.785 29.6066 11.8034 29.4921 11.799C29.3795 11.7954 29.2687 11.7695 29.1661 11.7227C29.0635 11.6758 28.9711 11.609 28.8942 11.5261C28.8173 11.4432 28.7574 11.3459 28.718 11.2396C28.6786 11.1333 28.6605 11.0203 28.6646 10.9069Z" fill="#5C5E60"/>
</g>
<defs>
<clipPath id="clip0_941_39294">
<rect width="90" height="27" fill="white"/>
</clipPath>
</defs>
</svg>
