<svg width="48" height="50" viewBox="0 0 48 50" fill="none" xmlns="http://www.w3.org/2000/svg">
<g clip-path="url(#clip0_941_39276)">
<path d="M35.9056 36.0183C36.2203 33.3964 36.126 33.0119 38.0789 33.4366L38.5747 33.4802C40.0764 33.5485 42.0407 33.2387 43.1947 32.7025C45.679 31.5498 47.1521 29.6252 44.7025 30.1309C39.1149 31.2836 38.7307 29.3916 38.7307 29.3916C44.631 20.6372 47.0974 9.52422 44.9684 6.804C39.1616 -0.615784 29.1102 2.89286 28.942 2.98396L28.8884 2.99385C27.7844 2.76477 26.5488 2.62791 25.1608 2.60546C22.6322 2.56392 20.7135 3.26836 19.2581 4.37229C19.2581 4.37229 1.32685 -3.01517 2.16104 13.6628C2.33846 17.2106 7.24654 40.5089 13.1004 33.4717C15.2399 30.8985 17.3076 28.7227 17.3076 28.7227C18.3343 29.4048 19.5635 29.7528 20.8527 29.6278L20.9524 29.5428C20.9212 29.8623 20.935 30.1748 20.9923 30.5448C19.4845 32.2297 19.9276 32.5255 16.9126 33.1461C13.8623 33.7748 15.6544 34.894 16.8241 35.1866C18.2425 35.5413 21.5239 36.0437 23.7416 32.9398L23.6533 33.294C24.2449 33.7672 24.2049 36.6955 24.2887 38.7877C24.3727 40.8801 24.5128 42.8325 24.9393 43.9837C25.3658 45.1346 25.869 48.0997 29.8314 47.2505C33.143 46.5408 35.6749 45.5195 35.9056 36.0183Z" fill="#26282B" stroke="#26282B" stroke-width="4.15435"/>
<path d="M44.7036 30.1309C39.1154 31.2836 38.7312 29.3916 38.7312 29.3916C44.6315 20.6366 47.098 9.52338 44.9694 6.80349C39.1626 -0.615847 29.1107 2.89302 28.943 2.98412L28.889 2.99378C27.7849 2.7646 26.5494 2.62807 25.1607 2.6054C22.6321 2.56396 20.7141 3.26829 19.2587 4.372C19.2587 4.372 1.32705 -3.01512 2.16103 13.6627C2.33844 17.2108 7.24641 40.5091 13.1005 33.4719C15.2401 30.8986 17.3074 28.7229 17.3074 28.7229C18.3343 29.405 19.5635 29.7529 20.8522 29.628L20.9523 29.543C20.9212 29.8625 20.9354 30.175 20.9924 30.5449C19.4843 32.2299 19.9274 32.5257 16.9127 33.1463C13.8622 33.7749 15.6543 34.8942 16.8243 35.1867C18.2427 35.5414 21.5243 36.0439 23.7416 32.94L23.6532 33.2941C24.2441 33.7674 24.659 36.3726 24.5895 38.7342C24.5199 41.096 24.4735 42.7174 24.9391 43.9838C25.4047 45.2503 25.8687 48.0998 29.8318 47.2506C33.1434 46.541 34.8594 44.7019 35.0982 41.6343C35.2676 39.4535 35.651 39.7758 35.6752 37.8261L35.9827 36.903C36.3373 33.9467 36.039 32.993 38.0792 33.4366L38.575 33.4801C40.0767 33.5484 42.042 33.2386 43.1955 32.7025C45.6793 31.5498 47.1524 29.6252 44.7034 30.1309H44.7036Z" fill="#26282B"/>
<path d="M23.981 31.8262C23.8271 37.327 24.0196 42.8662 24.5579 44.2125C25.0964 45.5587 26.249 48.1771 30.2125 47.3281C33.5237 46.6182 34.7285 45.2444 35.2513 42.2121C35.6364 39.9812 36.3787 33.7853 36.4739 32.5158" stroke="#5C5E60" stroke-width="1.38478" stroke-linecap="round" stroke-linejoin="round"/>
<path d="M19.2316 4.25059C19.2316 4.25059 1.28776 -3.08331 2.12196 13.5945C2.29938 17.1426 7.20768 40.4416 13.0616 33.4041C15.2008 30.8306 17.1355 28.8121 17.1355 28.8121" stroke="#5C5E60" stroke-width="1.38478" stroke-linecap="round" stroke-linejoin="round"/>
<path d="M28.9226 2.91302C28.3015 3.10777 38.9041 -0.962894 44.9296 6.73651C47.0581 9.45651 44.5916 20.5697 38.6914 29.3249" stroke="#5C5E60" stroke-width="1.38478" stroke-linecap="round" stroke-linejoin="round"/>
<path d="M38.6924 29.3238C38.6924 29.3238 39.0769 31.2164 44.6652 30.0629C47.1137 29.5572 45.6402 31.482 43.1569 32.6352C41.1189 33.5811 36.5498 33.8235 36.4751 32.5165C36.283 29.1443 38.8798 30.1688 38.6924 29.3238ZM38.6924 29.3238C38.523 28.5628 37.3618 27.8159 36.5935 25.9534C35.9229 24.3278 27.3955 11.8614 38.9584 13.7129C39.382 13.6253 35.9427 2.71449 25.1214 2.53708C14.3027 2.35966 14.6576 15.8418 14.6576 15.8418" stroke="#5C5E60" stroke-width="1.38478" stroke-linecap="round" stroke-linejoin="bevel"/>
<path d="M20.9518 30.4763C19.4435 32.1611 19.8871 32.4569 16.8721 33.0777C13.8216 33.7065 15.6139 34.8256 16.7836 35.118C18.202 35.4729 21.4836 35.9754 23.7009 32.8707C24.3761 31.9254 23.6969 30.4171 22.7694 30.0326C22.3212 29.8469 21.722 29.6143 20.9518 30.4763Z" stroke="#5C5E60" stroke-width="1.38478" stroke-linecap="round" stroke-linejoin="round"/>
<path d="M20.8555 30.4475C20.7035 29.4569 21.181 28.2781 21.6927 26.899C22.4617 24.8297 24.2359 22.7602 22.8166 16.1964C21.7587 11.3051 14.6628 15.1784 14.6584 15.8417C14.6541 16.5047 14.9793 19.2033 14.5399 22.3459C13.9664 26.4467 17.1492 29.9149 20.8143 29.5601" stroke="#5C5E60" stroke-width="1.38478" stroke-linecap="round" stroke-linejoin="round"/>
<path d="M19.1657 15.7417C19.1337 15.9682 19.5804 16.5727 20.1628 16.6535C20.7443 16.7346 21.242 16.2622 21.2736 16.0359C21.3051 15.8094 20.859 15.5599 20.2763 15.4788C19.6945 15.3976 19.1966 15.5158 19.1658 15.7417H19.1657Z" fill="#5C5E60" stroke="#5C5E60" stroke-width="0.461591"/>
<path d="M36.8758 15.2805C36.9073 15.507 36.4612 16.1115 35.8786 16.1922C35.2967 16.2733 34.799 15.801 34.7671 15.5747C34.7364 15.3481 35.1826 15.0986 35.7646 15.0175C36.3466 14.9364 36.8442 15.0545 36.8758 15.2806V15.2805Z" fill="#5C5E60" stroke="#5C5E60" stroke-width="0.230795"/>
<path d="M38.9567 13.7129C39.0526 15.4897 38.574 16.7 38.5137 18.5914C38.4244 21.3407 39.8245 24.4876 37.7148 27.6383" stroke="#5C5E60" stroke-width="1.38478" stroke-linecap="round" stroke-linejoin="round"/>
</g>
<defs>
<clipPath id="clip0_941_39276">
<rect width="48" height="49.4789" fill="white"/>
</clipPath>
</defs>
</svg>
