<svg width="257" height="38" viewBox="0 0 257 38" fill="none" xmlns="http://www.w3.org/2000/svg">
<g clip-path="url(#clip0_941_39444)">
<path d="M253.455 13.0529C253.455 17.7331 253.455 22.306 253.455 26.9647C254.709 26.9647 255.855 26.9647 257 26.9647C257 22.263 257 17.5613 257 12.8811C255.811 12.9455 254.601 13.0099 253.455 13.0529Z" fill="white"/>
<path d="M113.919 13.0529C109.877 13.0529 105.942 13.0529 101.965 13.0529C101.943 13.3105 101.9 13.5037 101.9 13.7184C101.835 15.8868 101.857 18.0551 101.684 20.2235C101.554 21.8551 101.035 23.3794 99.2196 24.0235C99.025 24.0879 98.7872 24.3455 98.7872 24.5387C98.7656 26.7071 98.7656 28.854 98.7656 31.0438C99.9329 31.0438 100.949 31.0438 102.095 31.0438C102.095 29.6698 102.095 28.3817 102.095 27.0291C105.942 27.0291 109.66 27.0291 113.487 27.0291C113.487 28.3817 113.487 29.6913 113.487 31.0653C114.632 31.0653 115.648 31.0653 116.729 31.0653C116.729 28.7252 116.729 26.4495 116.729 24.0664C115.8 24.0664 114.956 24.0664 113.94 24.0664C113.919 20.2664 113.919 16.6811 113.919 13.0529ZM110.266 23.9161C108.169 23.9161 106.072 23.9161 103.824 23.9161C105.229 21.3828 105.207 18.7207 105.164 15.9512C106.893 15.9512 108.536 15.9512 110.266 15.9512C110.266 18.6133 110.266 21.2325 110.266 23.9161Z" fill="white"/>
<path d="M147.014 23.6369C142.82 24.5386 139.405 22.3917 138.713 18.5917C137.848 13.8256 140.745 10.3691 145.63 10.5838C147.165 10.6482 148.678 11.3352 150.364 11.786C150.775 11.1634 151.337 10.2617 151.942 9.31709C149.218 6.50466 141.609 5.81765 137.589 9.98263C133.892 13.7826 133.892 20.7815 137.589 24.56C141.782 28.8109 149.889 27.6301 152.461 24.9679C151.942 24.0233 151.402 23.0787 150.948 22.2843C149.564 22.7566 148.332 23.3578 147.014 23.6369Z" fill="white"/>
<path d="M57.7374 23.767C53.8897 23.5738 51.5335 20.9546 51.5983 16.9614C51.6632 13.1614 54.1707 10.6281 57.8888 10.4992C59.8126 10.4348 61.5636 10.8857 63.12 12.1094C63.7685 11.1004 64.3305 10.1987 64.9142 9.25405C60.8719 5.86196 53.8248 6.35574 50.3446 10.1557C46.7346 14.106 46.8859 21.062 50.6256 24.6473C54.2139 28.0823 61.8662 28.2755 65.4113 24.9478C64.8925 24.0032 64.3521 23.0156 63.8117 22.0495C61.3258 23.5524 60.0937 23.8959 57.7374 23.767Z" fill="white"/>
<path d="M230.368 14.8343C229.806 15.7145 229.244 16.5732 228.682 17.432C227.99 18.484 227.298 19.5574 226.52 20.7167C224.856 18.2908 223.278 15.9936 221.7 13.7179C221.505 13.4388 221.224 13.0523 220.965 13.0309C220.014 12.945 219.062 12.9879 218.111 12.9879C218.111 17.7111 218.111 22.284 218.111 26.8354C219.106 26.8354 220.014 26.8354 220.965 26.8354C220.965 24.0444 220.965 21.3608 220.965 18.6557C221.03 18.6343 221.094 18.5913 221.181 18.5699C222.327 20.1586 223.451 21.7473 224.596 23.3145C225.634 24.7529 227.19 24.7314 228.185 23.2715C228.682 22.5416 229.201 21.8117 229.698 21.0817C230.238 20.2874 230.779 19.493 231.341 18.6987C231.406 18.7201 231.492 18.7631 231.557 18.7845C231.557 21.4682 231.557 24.1518 231.557 26.8354C232.659 26.8354 233.675 26.8354 234.713 26.8354C234.713 22.1981 234.713 17.6682 234.713 13.1167C232.162 12.58 231.643 12.7947 230.368 14.8343Z" fill="white"/>
<path d="M167.724 12.9678C166.384 12.7531 165.498 13.2684 164.676 14.3848C163.012 16.639 161.153 18.7859 159.402 20.9757C159.229 21.1904 159.164 21.448 159.056 21.7057C158.926 21.6198 158.818 21.5339 158.689 21.4266C158.689 18.6356 158.689 15.8447 158.689 13.0752C157.5 13.0752 156.419 13.0752 155.316 13.0752C155.316 17.7125 155.316 22.2424 155.316 26.7723C157.392 27.3091 158.926 26.8797 159.942 25.0334C160.31 24.3893 160.85 23.8526 161.326 23.2729C162.666 21.6198 164.006 19.9667 165.325 18.3136C165.411 18.3351 165.476 18.3565 165.563 18.378C165.563 21.1904 165.563 24.0028 165.563 26.8367C166.795 26.8367 167.876 26.8367 168.978 26.8367C168.978 22.1995 168.978 17.6266 168.978 12.9678C168.503 12.9893 168.113 13.0322 167.724 12.9678Z" fill="white"/>
<path d="M212.773 14.1684C210.439 12.2577 206.656 12.043 203.954 13.6532C201.23 15.2848 199.955 18.5266 200.711 21.8328C201.965 27.2001 209.509 29.3255 213.984 25.5255C213.595 24.7526 213.206 23.9797 212.795 23.1639C212.363 23.4001 212.017 23.5718 211.671 23.7436C209.942 24.5379 208.147 24.7311 206.31 24.1515C204.732 23.6362 203.824 22.2837 204.062 20.8023C207.629 20.8023 211.217 20.8023 214.784 20.8023C215.497 18.5696 214.589 15.6713 212.773 14.1684ZM204.213 18.2046C204.451 16.3368 205.921 15.2204 208.039 15.2633C209.704 15.3063 211.347 16.1221 211.368 18.2046C208.99 18.2046 206.613 18.2046 204.213 18.2046Z" fill="white"/>
<path d="M129.483 13.5249C126.997 11.8503 121.96 12.1509 119.582 14.1689C119.733 14.5339 119.863 14.9418 120.015 15.3283C120.166 15.7147 120.317 16.1011 120.468 16.4876C122.976 15.3068 124.489 15.0277 126.024 15.4141C127.515 15.8006 128.186 16.7882 128.013 18.3983C126.997 18.3983 125.937 18.291 124.921 18.4198C123.624 18.613 122.284 18.8277 121.095 19.343C119.107 20.2017 118.393 22.0695 118.955 24.1305C119.539 26.213 121.679 27.4797 124.208 27.2865C125.786 27.1576 127.191 26.6424 128.402 25.4401C128.445 26.0198 128.488 26.4062 128.531 26.8356C129.526 26.8356 130.499 26.8356 131.515 26.8356C131.515 23.3791 131.579 20.0085 131.471 16.6379C131.406 15.3712 130.607 14.2978 129.483 13.5249ZM123.884 24.5599C122.976 24.4096 122.241 24.0017 122.133 22.9712C122.025 21.8978 122.608 21.1893 123.56 21.0175C125.008 20.7384 126.499 20.6955 127.991 20.5452C128.575 23.8514 125.959 24.9034 123.884 24.5599Z" fill="white"/>
<path d="M93.5785 13.2467C90.336 11.8083 87.2232 12.3236 84.1321 14.0411C84.4779 14.9213 84.7806 15.7371 85.1048 16.5744C86.8125 15.5868 88.477 15.0501 90.3577 15.3936C92.0005 15.7156 92.7139 16.5959 92.7139 18.3993C91.8492 18.3993 91.0494 18.3134 90.2712 18.4207C88.931 18.5925 87.5475 18.6998 86.2721 19.1292C84.1753 19.8377 83.1809 21.4264 83.3755 23.3586C83.5917 25.3981 84.9319 26.8365 87.0719 27.223C89.2768 27.6309 91.2656 27.1371 92.9733 25.5269C93.0165 26.0637 93.0597 26.4716 93.103 26.8795C94.1406 26.8795 95.0917 26.8795 96.0428 26.8795C96.1077 26.7292 96.1725 26.6433 96.1725 26.5575C96.1725 23.5089 96.2374 20.4388 96.1509 17.3902C96.1293 15.5654 95.3295 14.0196 93.5785 13.2467ZM91.6546 23.9168C90.4874 24.7326 89.1471 24.9258 87.8717 24.3462C87.3746 24.11 86.8558 23.3586 86.8341 22.8219C86.8125 22.2851 87.3097 21.5337 87.8069 21.2546C89.2984 20.4173 90.9845 20.5676 92.7355 20.8038C92.8868 22.0919 92.7139 23.1654 91.6546 23.9168Z" fill="white"/>
<path d="M77.8414 20.8887C76.8254 19.3859 76.847 19.3859 77.8414 17.9045C78.9222 16.3373 79.9814 14.7486 81.192 12.9667C80.0031 12.9667 79.0735 12.9023 78.144 12.9881C77.7117 13.0311 77.1929 13.3102 76.9551 13.6322C76.1337 14.7057 75.3339 15.822 74.707 17.0028C74.0585 18.2266 73.1506 18.3768 71.8968 18.0763C71.8968 16.4017 71.8968 14.7271 71.8968 13.0096C70.6863 13.0096 69.5406 13.0096 68.3301 13.0096C68.3301 17.6684 68.3301 22.2198 68.3301 26.8141C69.5406 26.8141 70.6647 26.8141 71.94 26.8141C71.94 24.8819 71.94 23.0141 71.94 21.2751C73.4532 20.7599 74.2746 21.2966 74.9015 22.5418C75.55 23.8514 76.3931 25.0537 77.2145 26.2559C77.3874 26.5136 77.7117 26.8141 77.9927 26.8356C79.2032 26.9 80.4138 26.8571 81.7756 26.8571C81.5162 26.4062 81.3649 26.1057 81.1704 25.8266C80.0463 24.2164 78.9438 22.5633 77.8414 20.8887Z" fill="white"/>
<path d="M247.618 17.6257C246.861 17.454 246.061 17.411 245.262 17.3681C244.375 17.3252 243.489 17.3681 242.451 17.3681C242.451 15.8653 242.451 14.4913 242.451 13.0529C241.176 13.0529 240.052 13.0529 238.906 13.0529C238.906 17.6901 238.906 22.263 238.906 26.9003C241.284 26.9003 243.619 26.9218 245.932 26.8788C246.559 26.8574 247.207 26.7071 247.834 26.5139C250.082 25.8483 251.271 24.2167 251.206 21.9195C251.184 19.7082 249.931 18.1839 247.618 17.6257ZM245.564 24.2167C245.24 24.2596 244.916 24.2811 244.591 24.3026C243.943 24.324 243.294 24.3026 242.538 24.3026C242.538 22.7997 242.538 21.4257 242.538 19.9873C243.575 19.9873 244.591 19.9014 245.564 20.0088C246.84 20.1376 247.51 20.932 247.51 22.1342C247.531 23.315 246.883 24.0235 245.564 24.2167Z" fill="white"/>
<path d="M176.65 22.9286C175.353 21.5546 175.159 18.828 176.434 17.3037C176.931 16.6811 177.753 16.1659 178.509 15.9297C180.196 15.3715 181.817 15.7794 183.33 16.81C183.892 15.9297 184.389 15.1139 184.93 14.2552C181.903 11.7004 176.629 12.1512 173.797 15.1568C171.268 17.8405 171.398 22.4778 174.056 25.1399C176.845 27.9523 182.184 28.1026 185.124 25.419C184.627 24.6032 184.13 23.7444 183.633 22.9071C180.952 24.6246 178.228 24.6032 176.65 22.9286Z" fill="white"/>
<path d="M186.551 15.9082C188.021 15.9082 189.447 15.9082 190.961 15.9082C190.961 19.6438 190.961 23.2506 190.961 26.8359C192.193 26.8359 193.317 26.8359 194.571 26.8359C194.571 23.1647 194.571 19.5579 194.571 15.8438C196.062 15.8438 197.446 15.8438 198.894 15.8438C198.894 14.8562 198.894 13.9975 198.894 13.0529C194.7 13.0529 190.636 13.0529 186.551 13.0529C186.551 14.0404 186.551 14.9207 186.551 15.9082Z" fill="white"/>
<path d="M33.5494 9.96125C33.5494 9.83244 33.5061 9.74656 33.3981 9.68215C30.8257 8.28667 28.2749 6.86972 25.7025 5.47424C25.6161 5.4313 25.5296 5.40984 25.4431 5.47424C20.7091 8.28667 15.9751 11.1206 11.241 13.933C11.1978 13.9545 11.1546 13.9759 11.1113 14.0189C11.1762 14.0618 11.2194 14.0833 11.241 14.1047C13.2946 15.2855 15.3266 16.4878 17.3801 17.6686C17.4666 17.7115 17.5315 17.7115 17.6179 17.6686C18.8068 16.9601 19.9958 16.2516 21.2063 15.5432C22.8059 14.5985 24.4272 13.6754 26.0484 12.7522C26.2862 12.6019 26.5672 12.4946 26.8482 12.4302C27.4319 12.2799 27.821 12.5375 27.9507 13.1172C27.9723 13.2245 27.9723 13.3319 27.9723 13.4392C27.9723 17.3895 27.9723 21.3398 27.9723 25.3115C27.9723 25.4189 27.9291 25.4833 27.8426 25.5477C22.5681 28.6177 17.3153 31.6878 12.0408 34.7364C11.9976 34.7579 11.9544 34.7793 11.9111 34.8223C11.976 34.8652 12.0192 34.8867 12.0625 34.9081C13.835 35.9172 15.586 36.9262 17.3585 37.9353C17.4666 37.9997 17.5315 37.9997 17.6179 37.9353C22.8924 34.7579 28.1885 31.6019 33.4629 28.446C33.571 28.3816 33.6142 28.3172 33.6142 28.1884C33.6142 27.2652 33.6142 26.3206 33.6142 25.3974C33.5494 20.2449 33.5494 15.1138 33.5494 9.96125Z" fill="white"/>
<path d="M22.4381 23.8301C22.3732 23.7872 22.3516 23.7657 22.3084 23.7443C20.2548 22.5635 18.2228 21.3827 16.1908 20.2019C16.1044 20.159 16.0395 20.1375 15.9531 20.2019C14.548 21.0392 13.1429 21.8765 11.7378 22.6923C10.3544 23.5081 8.94928 24.3025 7.5442 25.0968C7.26319 25.2471 6.96055 25.3759 6.6363 25.4403C6.16074 25.5262 5.79325 25.3115 5.66356 24.8392C5.62032 24.7104 5.62032 24.5601 5.62032 24.4098C5.62032 20.481 5.62032 16.5307 5.62032 12.6019C5.62032 12.4945 5.66355 12.4301 5.75002 12.3657C11.0029 9.31715 16.2773 6.26856 21.5518 3.21997C21.595 3.1985 21.6382 3.17703 21.6815 3.13409C21.6166 3.09116 21.595 3.06969 21.5518 3.04822C19.7792 2.03918 18.0283 1.05161 16.2557 0.0425678C16.1476 -0.021839 16.0828 -0.021839 15.9747 0.0425678C10.7002 3.1985 5.42577 6.33296 0.151316 9.4889C0.0432332 9.5533 0 9.61771 0 9.74652C0 15.8008 0 21.8335 0 27.8878C0 28.0166 0.0432332 28.081 0.151316 28.1454C2.72369 29.5409 5.29607 30.9364 7.84683 32.3318C7.95492 32.3962 8.01977 32.3748 8.12785 32.3318C12.8619 29.5194 17.5959 26.7284 22.3084 23.9375C22.3516 23.8945 22.3948 23.8731 22.4381 23.8301Z" fill="white"/>
</g>
<defs>
<clipPath id="clip0_941_39444">
<rect width="257" height="38" fill="white"/>
</clipPath>
</defs>
</svg>
