<svg width="78" height="37" viewBox="0 0 78 37" fill="none" xmlns="http://www.w3.org/2000/svg">
<path d="M30.1371 18.2773C29.152 18.2773 28.351 18.5698 27.7369 19.1544C27.1229 19.7396 26.8114 20.5066 26.8114 21.4464C26.8114 21.9335 26.8887 22.3775 27.0412 22.7845C27.1936 23.1922 27.4308 23.5699 27.7497 23.9112C28.0686 24.2529 28.707 24.7169 29.6583 25.3069C30.8257 26.0217 31.5897 26.6017 31.9564 27.0547C32.3233 27.5072 32.5053 27.9815 32.5053 28.476C32.5053 29.138 32.288 29.6665 31.8415 30.0637C31.3941 30.4611 30.7959 30.6591 30.0541 30.6591C29.2718 30.6591 28.5903 30.3825 28.005 29.8332C27.4198 29.2831 27.1244 28.5556 27.1178 27.6437H26.7539V30.9536H27.1178C27.2288 30.6402 27.3825 30.4798 27.5837 30.4798C27.6805 30.4798 27.9073 30.5468 28.2604 30.6719C29.1196 30.9785 29.8251 31.1265 30.3797 31.1265C31.3354 31.1265 32.1512 30.7907 32.8309 30.1085C33.5096 29.4266 33.8522 28.604 33.8522 27.6437C33.8522 26.899 33.626 26.2365 33.182 25.659C32.7379 25.0808 31.8744 24.4083 30.5839 23.6359C29.4735 22.9668 28.7527 22.4218 28.42 21.997C28.0868 21.5728 27.9157 21.1035 27.9157 20.5885C27.9157 20.0315 28.1197 19.5841 28.5221 19.2505C28.9245 18.9165 29.4518 18.7511 30.1116 18.7511C30.8541 18.7511 31.473 18.9721 31.9627 19.4169C32.452 19.8625 32.7349 20.48 32.8181 21.2735H33.182V18.4054H32.8436C32.8023 18.5516 32.764 18.6451 32.7287 18.6871C32.6945 18.7288 32.6287 18.7511 32.5309 18.7511C32.4131 18.7511 32.2033 18.7014 31.9053 18.6039C31.2669 18.3882 30.6784 18.2773 30.1371 18.2773ZM42.0293 18.2773C40.829 18.2773 39.7392 18.5611 38.7546 19.1288C37.7685 19.6955 36.988 20.4825 36.4119 21.4848C35.8362 22.4871 35.5502 23.5515 35.5502 24.6859C35.5502 26.2099 36.0476 27.5676 37.0503 28.7577C38.0535 29.9469 39.2556 30.688 40.6505 30.9728C40.9694 31.1395 41.4257 31.5697 42.0229 32.266C42.696 33.0519 43.2654 33.6187 43.7337 33.9562C44.2014 34.2939 44.7065 34.5414 45.2401 34.7052C45.7743 34.8684 46.3519 34.9485 46.9764 34.9485C47.7327 34.9485 48.4099 34.8167 49.0063 34.5452L48.8723 34.2123C48.5261 34.3375 48.1568 34.3979 47.768 34.3979C47.2402 34.3979 46.7068 34.2234 46.1721 33.873C45.6382 33.5217 44.9705 32.8514 44.1741 31.8627C43.7998 31.3889 43.5414 31.09 43.3954 30.9728C44.9215 30.6739 46.1765 29.9321 47.1552 28.7449C48.1336 27.5582 48.6233 26.2038 48.6233 24.6859C48.6233 22.8836 47.984 21.3689 46.7147 20.134C45.4444 18.8989 43.8823 18.2773 42.0293 18.2773ZM49.4532 18.2773L49.4723 18.6679C50.2715 18.6679 50.7191 18.904 50.8192 19.3785C50.8565 19.5483 50.8736 19.8618 50.8767 20.3132L50.8703 28.9497C50.8636 29.5947 50.772 30.0066 50.5958 30.1853C50.4194 30.3628 50.1211 30.4739 49.6894 30.5182L49.6702 30.9088H57.6367L57.8409 28.9497H57.4771C57.3732 29.4834 57.1349 29.8657 56.7558 30.0829C56.3756 30.3017 55.7033 30.4094 54.7322 30.4094H53.979C53.1052 30.4094 52.5997 30.0926 52.4661 29.4555C52.4386 29.3294 52.4291 29.1943 52.4278 29.0458L52.4598 20.3132C52.4595 19.6692 52.5407 19.2377 52.7087 19.0264C52.8785 18.8159 53.1847 18.6981 53.6279 18.6679L53.6088 18.2773H49.4532ZM42.157 18.7511C43.5108 18.7511 44.6161 19.2859 45.4699 20.3644C46.3235 21.4434 46.7466 22.9222 46.7466 24.7947C46.7466 26.5691 46.3174 27.9899 45.4572 29.0586C44.597 30.1269 43.452 30.6591 42.0293 30.6591C40.6625 30.6591 39.5541 30.1103 38.7036 29.0073C37.8538 27.9044 37.4333 26.4724 37.4333 24.7115C37.4333 22.902 37.8589 21.4535 38.7163 20.3708C39.5732 19.2893 40.7207 18.7511 42.157 18.7511ZM60.4773 20.6077C60.2829 20.6077 60.1349 20.6735 60.024 20.8062C59.9107 20.9383 59.8759 21.0984 59.9155 21.2928C59.9538 21.4813 60.0598 21.6466 60.2283 21.7857C60.3958 21.9247 60.5766 21.997 60.7709 21.997C60.9588 21.997 61.1021 21.9248 61.205 21.7857C61.3079 21.6466 61.3393 21.4813 61.3007 21.2928C61.2611 21.0984 61.1587 20.9383 61.0007 20.8062C60.8409 20.6735 60.6652 20.6077 60.4773 20.6077ZM65.7308 21.933C65.4006 23.2068 64.6849 23.8961 63.586 24.0073L63.5987 24.3722H64.8818L64.8562 28.6872C64.8583 29.425 64.8808 29.9161 64.9328 30.1661C65.0592 30.7646 65.4489 31.0688 66.101 31.0688C67.0445 31.0688 68.0341 30.4924 69.0693 29.3403L68.7565 29.0714C68.0091 29.8301 67.3483 30.2109 66.7713 30.2109C66.4166 30.2109 66.1968 30.0064 66.1138 29.6027C66.091 29.5047 66.0819 29.3902 66.0819 29.257L66.0946 24.3722H68.0543L68.0352 23.7896H66.101V21.933H65.7308ZM73.3078 23.5591C72.2117 23.5591 71.32 24.0928 70.6268 25.1532C69.9372 26.2155 69.7237 27.3924 69.9949 28.6872C70.1544 29.4457 70.4723 30.0335 70.9588 30.4478C71.4444 30.862 72.0605 31.0688 72.7972 31.0688C73.483 31.0688 74.4379 30.8947 74.8398 30.5439C75.2428 30.1932 75.614 29.6252 75.9569 28.8473L75.6824 28.5592C75.1355 29.5684 74.0317 30.0765 73.1993 30.0765C72.0549 30.0765 71.354 29.4468 71.0928 28.1943C71.0588 28.0344 71.0336 27.8626 71.0162 27.6821C72.3776 27.4659 73.4095 27.0831 74.1058 26.5297C74.8015 25.976 75.5001 25.3891 75.3697 24.7691C75.292 24.4007 75.1013 24.111 74.8079 23.892C74.5107 23.6732 73.7391 23.5591 73.3078 23.5591ZM61.3262 23.6039L58.9644 24.1481V24.5707L59.7815 24.4682C60.1772 24.4682 60.4101 24.648 60.4836 25.006C60.5084 25.1258 60.524 25.2941 60.5283 25.5054L60.5028 29.3787C60.4962 29.9147 60.4369 30.2262 60.3177 30.3198C60.1974 30.4135 59.8803 30.4606 59.3666 30.4606L59.3538 30.8255H63.1008L63.0945 30.4606C62.5738 30.4606 62.2363 30.4194 62.0859 30.339C61.938 30.2591 61.8362 30.1136 61.7922 29.8908C61.7583 29.7303 61.7435 29.4537 61.7412 29.0714L61.7539 23.6039H61.3262ZM72.7078 24.321C72.9358 24.321 73.1562 24.4093 73.378 24.5835C73.5969 24.757 73.7302 24.95 73.7738 25.1597C73.9875 26.1894 73.0773 26.9013 71.029 27.298C70.9705 26.5471 71.1002 25.8655 71.4311 25.2493C71.7595 24.6337 72.1872 24.321 72.7078 24.321Z" fill="#5C5E60"/>
<path d="M24.8457 3.49219H4.51982C3.15756 3.49219 2.04297 4.61026 2.04297 5.97648V28.458C2.04297 29.8242 3.15756 30.9421 4.51982 30.9421H17.907C17.755 24.2615 20.0297 11.2965 24.8457 3.49219Z" fill="#5C5E60"/>
<path d="M24.1075 4.2168H4.52006C3.55277 4.2168 2.76562 5.00605 2.76562 5.97636V26.8177C7.20176 25.1101 13.8599 23.6367 18.4635 23.7036C19.3886 18.8521 22.1075 9.34429 24.1075 4.2168Z" fill="#26282B"/>
<path d="M29.5873 2.75655C28.1952 1.51146 26.5097 2.0116 24.8462 3.49228C24.5993 3.71226 24.3529 3.95631 24.1078 4.21701C21.2621 7.24471 18.6207 12.853 17.8 17.136C18.1197 17.7862 18.3694 18.6159 18.5338 19.2498C18.576 19.4124 18.614 19.565 18.6444 19.6948C18.7167 20.0021 18.7555 20.2014 18.7555 20.2014C18.7555 20.2014 18.7299 20.1045 18.6253 19.8001C18.6053 19.7417 18.5831 19.6779 18.5568 19.6029C18.5456 19.5719 18.53 19.5343 18.5129 19.4941C18.3273 19.0613 17.8138 18.1478 17.5878 17.7501C17.3945 18.322 17.2237 18.8569 17.0807 19.3409C17.7331 20.5381 18.1307 22.5897 18.1307 22.5897C18.1307 22.5897 18.0962 22.4567 17.9323 21.9927C17.7867 21.5822 17.0618 20.3084 16.8901 20.0106C16.5964 21.0982 16.4797 21.8324 16.5849 22.0112C16.7893 22.3576 16.9839 22.9553 17.1548 23.6163C17.5408 25.1054 17.8092 26.9182 17.8092 26.9182C17.8092 26.9182 17.8179 27.0384 17.8324 27.2232C17.7788 28.4737 17.811 29.7703 17.9075 30.9422C18.0354 32.4935 18.2762 33.8261 18.5831 34.5394L18.7915 34.4254C18.3408 33.0203 18.1577 31.1788 18.2379 29.055C18.3592 25.8089 19.104 21.8941 20.4803 17.8139C22.8053 11.6545 26.0312 6.71256 28.9837 4.35248C26.2927 6.7899 22.6506 14.6797 21.5603 17.6013C20.3396 20.8731 19.4745 23.9433 18.9531 26.8849C19.8527 24.1272 22.7612 22.9418 22.7612 22.9418C22.7612 22.9418 24.1877 21.1773 25.8548 18.6564C24.8562 18.8848 23.2164 19.2759 22.6672 19.5074C21.857 19.8482 21.6387 19.9645 21.6387 19.9645C21.6387 19.9645 24.263 18.3617 26.5146 17.6359C29.611 12.7447 32.9845 5.79603 29.5873 2.75655Z" fill="#5C5E60"/>
</svg>
