<svg width="61" height="22" viewBox="0 0 61 22" fill="none" xmlns="http://www.w3.org/2000/svg">
<g clip-path="url(#clip0_941_39324)">
<path d="M38.3017 9.05664H35.4648V16.8215C35.4648 19.6819 38.0046 21.997 41.1385 21.997V19.411C39.5688 19.411 38.3017 18.2517 38.3017 16.8232V14.2355H41.1385V11.6477H38.3017V9.05664Z" fill="#5C5E60"/>
<path d="M48.2322 11.6445C45.0965 11.6445 42.5586 13.9613 42.5586 16.82C42.5586 19.6787 45.0983 21.9955 48.2322 21.9955C51.3661 21.9955 53.9059 19.6787 53.9059 16.82C53.9059 13.9613 51.3661 11.6445 48.2322 11.6445ZM48.2322 19.4094C46.6662 19.4094 45.3954 18.2502 45.3954 16.8217C45.3954 15.3932 46.6662 14.2339 48.2322 14.2339C49.7983 14.2339 51.0691 15.3932 51.0691 16.8217C51.0691 18.2502 49.7983 19.4094 48.2322 19.4094Z" fill="#5C5E60"/>
<path d="M55.3262 16.822V21.9975H58.163V16.822C58.163 15.3934 59.432 14.2342 60.9998 14.2342V11.6465C57.8641 11.6465 55.3262 13.9632 55.3262 16.822Z" fill="#5C5E60"/>
<path d="M15.6053 11.6445C12.4696 11.6445 9.93164 13.9613 9.93164 16.82C9.93164 19.6787 12.4714 21.9955 15.6053 21.9955C16.6414 21.9955 17.6078 21.7396 18.4421 21.2963V21.9955H21.2789V16.82C21.2789 13.963 18.7392 11.6445 15.6053 11.6445ZM15.6053 19.4094C14.0393 19.4094 12.7685 18.2502 12.7685 16.8217C12.7685 15.3932 14.0393 14.2339 15.6053 14.2339C17.1713 14.2339 18.4421 15.3932 18.4421 16.8217C18.4421 18.2502 17.1713 19.4094 15.6053 19.4094Z" fill="#5C5E60"/>
<path d="M28.3729 11.6465C25.2371 11.6465 22.6992 13.9632 22.6992 16.822V21.9975H25.536V16.822C25.536 15.3934 26.805 14.2342 28.3729 14.2342C29.9407 14.2342 31.2097 15.3934 31.2097 16.822V21.9975H34.0465V16.822C34.0465 13.9616 31.5049 11.6465 28.3729 11.6465Z" fill="#5C5E60"/>
<path d="M4.25616 9.05831H2.83683V11.6461H0C0 12.3603 0.31724 13.0077 0.830693 13.476C1.34415 13.9444 2.05381 14.2338 2.83683 14.2338V16.8215C2.83683 19.6819 5.37658 21.997 8.51048 21.997V19.4093C6.94078 19.4093 5.67365 18.2501 5.67365 16.8215V14.2338H8.51048V12.9391C6.16143 12.9391 4.25432 11.1994 4.25432 9.05664L4.25616 9.05831Z" fill="#5C5E60"/>
<path d="M8.51236 7.75391C7.72385 7.75391 7.08203 8.33602 7.08203 9.05865C7.08203 9.78128 7.72018 10.3634 8.51236 10.3634C9.30455 10.3634 9.9427 9.78128 9.9427 9.05865C9.9427 8.33602 9.30088 7.75391 8.51236 7.75391Z" fill="#5C5E60"/>
<path d="M25.536 3.88245V6.4886C25.536 6.56052 25.5305 6.6358 25.5305 6.7094C25.5269 6.77129 25.5269 6.83653 25.5214 6.89842C25.5159 6.99209 25.5067 7.08409 25.4994 7.17777C25.4957 7.22461 25.4902 7.27144 25.4847 7.31828C25.4737 7.41697 25.459 7.51734 25.4444 7.61603C25.4389 7.64948 25.4334 7.68127 25.4279 7.71472C25.4077 7.82345 25.3875 7.93218 25.3618 8.04091C25.3618 8.04593 25.3582 8.05429 25.3582 8.06098C24.9217 9.99635 23.6986 11.6691 22.0024 12.7848C22.0024 12.7815 21.9987 12.7798 21.9987 12.7765C21.8117 12.8986 21.6191 13.014 21.4229 13.1261C20.8435 12.365 20.0916 11.726 19.2151 11.2543C21.0873 10.54 22.4498 8.93248 22.6644 7.01718C22.6644 7.00882 22.668 7.0038 22.668 6.99711C22.6845 6.82649 22.6956 6.65587 22.6956 6.48023C22.6956 6.29121 22.6845 3.88412 22.6845 3.88412C22.6845 3.17488 22.0556 2.60113 21.2781 2.60113H11.6802C11.649 2.59778 11.6215 2.59611 11.5885 2.59611C11.5096 2.59276 11.4271 2.59109 11.3464 2.59109C8.21069 2.59109 5.67276 4.90785 5.67276 7.76658H2.83594C2.83777 3.47597 6.64832 0 11.3501 0H21.2799C23.6289 0 25.536 1.73966 25.536 3.88245Z" fill="#5C5E60"/>
</g>
<defs>
<clipPath id="clip0_941_39324">
<rect width="61" height="22" fill="white"/>
</clipPath>
</defs>
</svg>
