<svg width="203" height="197" viewBox="0 0 203 197" fill="none" xmlns="http://www.w3.org/2000/svg">
<path d="M1 155L201.958 39.0697M42 0.999512L154.568 195.816M180.787 97.5735C180.67 142.861 143.639 179.668 98.0756 179.786C52.5122 179.903 15.6708 143.285 15.7879 97.9983C15.905 52.7111 52.9364 15.9034 98.4997 15.7861C144.063 15.6688 180.905 52.2863 180.787 97.5735ZM177.798 97.5943C177.686 140.672 142.45 175.685 99.0963 175.796C55.7421 175.908 20.6868 141.077 20.7983 97.9985C20.9097 54.9205 56.1455 19.9083 99.4997 19.7967C142.854 19.6851 177.909 54.5163 177.798 97.5943ZM129.223 118.475C129.355 120.68 127.675 122.584 125.471 122.726C123.266 122.869 121.372 121.197 121.24 118.992C121.107 116.786 122.787 114.883 124.992 114.741C127.196 114.598 129.091 116.27 129.223 118.475ZM136.223 94.4753C136.355 96.6804 134.675 98.5837 132.471 98.7262C130.266 98.8688 128.372 97.1968 128.24 94.9916C128.107 92.7864 129.787 90.8832 131.992 90.7406C134.196 90.598 136.091 92.2701 136.223 94.4753ZM122.99 70.9784C122.984 73.1875 121.188 74.983 118.979 74.9887C116.77 74.9944 114.984 73.2081 114.99 70.999C114.995 68.7899 116.791 66.9944 119 66.9887C121.209 66.983 122.995 68.7693 122.99 70.9784ZM100.99 63.9787C100.984 66.1878 99.1884 67.9832 96.9793 67.9889C94.7702 67.9946 92.9839 66.2084 92.9897 63.9993C92.9954 61.7901 94.7909 59.9947 97 59.989C99.2091 59.9833 100.995 61.7695 100.99 63.9787ZM74.9896 78.9787C74.9839 81.1878 73.1884 82.9832 70.9793 82.9889C68.7702 82.9946 66.9839 81.2084 66.9896 78.9993C66.9954 76.7901 68.7909 74.9947 71 74.989C73.2091 74.9833 74.9953 76.7695 74.9896 78.9787ZM69.9896 102.979C69.9839 105.188 68.1884 106.983 65.9793 106.989C63.7702 106.995 61.9839 105.208 61.9897 102.999C61.9954 100.79 63.7909 98.9947 66 98.989C68.2091 98.9833 69.9953 100.77 69.9896 102.979ZM81.0857 122.782C81.1346 124.99 79.3841 126.829 77.1758 126.889C74.9674 126.949 73.1375 125.207 73.0886 122.999C73.0397 120.79 74.7902 118.951 76.9985 118.891C79.2069 118.831 81.0367 120.573 81.0857 122.782ZM103.086 130.782C103.135 132.99 101.384 134.829 99.1758 134.889C96.9674 134.949 95.1375 133.207 95.0886 130.999C95.0397 128.79 96.7902 126.951 98.9985 126.891C101.207 126.831 103.037 128.573 103.086 130.782ZM139.894 96.7883C139.835 119.432 121.431 137.835 98.7878 137.894C76.1442 137.952 57.8354 119.643 57.894 96.9994C57.9525 74.3558 76.3563 55.9523 98.9999 55.894C121.643 55.8357 139.952 74.1447 139.894 96.7883ZM124.934 97.3655C124.897 111.449 113.227 122.895 98.868 122.932C84.5086 122.969 72.8976 111.583 72.934 97.4994C72.9705 83.4162 84.6406 71.9695 98.9999 71.9326C113.359 71.8956 124.97 83.2823 124.934 97.3655ZM112.723 89.8631C117.144 97.5142 114.523 107.296 106.869 111.712C99.2147 116.127 89.4258 113.504 85.0048 105.853C80.5839 98.2022 83.205 88.4202 90.8592 84.0046C98.5134 79.589 108.302 82.2119 112.723 89.8631Z" stroke="#1995FC"/>
</svg>
