<svg width="79" height="39" viewBox="0 0 79 39" fill="none" xmlns="http://www.w3.org/2000/svg">
<path d="M63.3405 0C63.0819 0 62.8148 0.0129991 62.5411 0.0341226C55.4863 0.575209 57.3572 7.84494 57.2504 10.2676C57.1219 12.0436 56.7497 13.4427 55.4963 15.1764C54.0193 16.8842 51.9464 19.6448 50.9633 22.5225C50.4994 23.8744 50.2791 25.2588 50.4843 26.5668C50.4193 26.6221 50.3575 26.6773 50.2991 26.7862C49.8651 27.2217 49.5497 27.7628 49.1942 28.1495C48.8621 28.4728 48.3848 28.5833 47.864 28.7994C47.3416 29.0204 46.7658 29.2365 46.422 29.906C46.2718 30.2115 46.195 30.5446 46.2017 30.8825C46.2017 31.2059 46.2468 31.5341 46.2935 31.7535C46.3903 32.4018 46.4871 32.938 46.3586 33.3296C45.9447 34.4345 45.893 35.1917 46.1834 35.7426C46.4738 36.2853 47.0763 36.5046 47.7505 36.7191C49.1041 37.0441 50.9383 36.9385 52.382 37.6924C53.9275 38.4512 55.4963 38.7827 56.748 38.4561C57.6259 38.2693 58.367 37.7038 58.7642 36.9206C59.7439 36.9157 60.817 36.4835 62.5361 36.3779C63.7027 36.2836 65.1631 36.8117 66.8387 36.7012C66.8805 36.9206 66.9439 37.0246 67.029 37.244L67.034 37.2488C67.6866 38.513 68.8916 39.0882 70.1784 38.9891C71.4652 38.8916 72.8354 38.1181 73.9453 36.867C74.9984 35.6239 76.7542 35.1056 77.9141 34.4248C78.4949 34.1014 78.9639 33.6627 78.9973 33.0388C79.0357 32.3888 78.6652 31.7194 77.8056 30.8013V30.6437L77.8006 30.6388C77.5169 30.3138 77.3834 29.7695 77.2365 29.1342C77.0947 28.4826 76.9328 27.857 76.4154 27.4345H76.4104C76.3119 27.3468 76.2051 27.3257 76.0966 27.2152C76.0031 27.1534 75.8947 27.1144 75.7795 27.1112C76.4988 25.0346 76.2201 22.9677 75.4908 21.1089C74.6012 18.8178 73.0457 16.8224 71.8607 15.4494C70.5322 13.8164 69.2304 12.2695 69.2554 9.97516C69.3005 6.47841 69.651 0.0097493 63.3405 0ZM64.2234 5.53273H64.2451C64.6006 5.53273 64.9061 5.63347 65.2198 5.85445C65.5386 6.07381 65.7706 6.39392 65.9525 6.72052C66.1278 7.14136 66.2162 7.46634 66.2296 7.89693C66.2296 7.86444 66.2396 7.83194 66.2396 7.80107V7.97005C66.2362 7.95868 66.2329 7.94568 66.2329 7.93593L66.2262 7.89693C66.2229 8.29178 66.1378 8.68175 65.9759 9.0441C65.8974 9.24721 65.7773 9.43407 65.6204 9.58844C65.572 9.56244 65.5252 9.53969 65.4735 9.52019C65.2983 9.44707 65.1414 9.4162 64.9978 9.30408C64.8793 9.25859 64.7558 9.22121 64.6323 9.19684C64.7141 9.10097 64.8743 8.98073 64.9361 8.87511C65.0245 8.66713 65.073 8.44615 65.083 8.22191V8.19104C65.0863 7.97168 65.0529 7.75069 64.9812 7.54108C64.9061 7.32173 64.8126 7.21448 64.6757 6.99837C64.5355 6.89113 64.397 6.78389 64.2301 6.78389H64.2034C64.0482 6.78389 63.9097 6.83264 63.7661 6.99837C63.6076 7.15111 63.4891 7.33472 63.424 7.54108C63.3355 7.74745 63.2838 7.97005 63.2738 8.19104V8.22191C63.2771 8.36653 63.2871 8.51276 63.3072 8.65576C62.985 8.54689 62.5761 8.4364 62.2941 8.32753C62.2774 8.22191 62.2674 8.11304 62.264 8.00418V7.97168C62.2507 7.54271 62.3358 7.11699 62.5144 6.72214C62.6513 6.36629 62.9016 6.06244 63.2321 5.85608C63.5175 5.64647 63.8646 5.53273 64.2234 5.53273ZM59.2799 5.6286H59.34C59.577 5.6286 59.7906 5.70659 60.0059 5.84796C60.2496 6.05757 60.4465 6.31592 60.58 6.60353C60.7302 6.92688 60.8154 7.25511 60.8354 7.68732V7.69382C60.8471 7.91156 60.8454 8.02042 60.8321 8.12604V8.25603C60.782 8.26741 60.7386 8.28528 60.6935 8.29503C60.4398 8.3844 60.2362 8.51439 60.0376 8.62001C60.0576 8.47539 60.0593 8.32915 60.0426 8.18616V8.16179C60.0226 7.94568 59.9775 7.83844 59.9058 7.6207C59.854 7.45497 59.7589 7.3071 59.6287 7.18686C59.5469 7.11374 59.4368 7.07637 59.3233 7.08287H59.2882C59.1697 7.09262 59.0713 7.14949 58.9778 7.29735C58.871 7.42247 58.8026 7.57521 58.7775 7.73607C58.7325 7.91156 58.7191 8.09192 58.7391 8.27391V8.29666C58.7592 8.51602 58.8009 8.62326 58.8743 8.83937C58.9494 9.0571 59.0362 9.16434 59.1497 9.27484C59.1681 9.28946 59.1848 9.30408 59.2065 9.31383C59.0896 9.40645 59.0112 9.42758 58.9127 9.53482C58.851 9.58031 58.7792 9.63231 58.6941 9.64531C58.5205 9.4422 58.367 9.22284 58.2351 8.99211C58.0749 8.65088 57.9914 8.28041 57.9764 7.90831C57.948 7.54108 57.9948 7.17386 58.1099 6.82289C58.2017 6.50278 58.3636 6.20706 58.5823 5.95357C58.7959 5.73746 59.0162 5.6286 59.2799 5.6286ZM61.5681 8.40065C62.1205 8.40065 62.7898 8.50627 63.5959 9.04898C64.0849 9.37395 64.4688 9.48607 65.3533 9.80942H65.3583C65.7839 10.0304 66.0343 10.2416 66.1561 10.4578V10.2449C66.278 10.4837 66.2863 10.7616 66.1828 11.0086C65.9775 11.5139 65.3216 12.055 64.407 12.3784V12.3816C63.9597 12.601 63.5709 12.9227 63.1136 13.1372C62.6529 13.3565 62.1322 13.6117 61.4245 13.571C61.1709 13.584 60.9155 13.5467 60.6768 13.4622C60.4933 13.3647 60.313 13.2574 60.1394 13.1404C59.814 12.9211 59.5336 12.601 59.118 12.3849V12.3767H59.1097C58.4421 11.977 58.0816 11.5448 57.9647 11.2214C57.8496 10.786 57.9564 10.4594 58.2869 10.2465C58.6607 10.0272 58.9211 9.80617 59.093 9.70055C59.2665 9.58031 59.3316 9.53482 59.3867 9.48769H59.3901V9.48282C59.6721 9.15459 60.1177 8.72075 60.7903 8.50627C61.0223 8.44777 61.281 8.40065 61.5681 8.40065ZM66.2396 11.8828C66.8387 14.1852 68.2374 17.5292 69.1369 19.1509C69.6143 20.0186 70.5639 21.8466 70.9762 24.0645C71.2365 24.0564 71.5253 24.0938 71.8323 24.1685C72.9105 21.4533 70.9211 18.535 70.0148 17.7242C69.646 17.3976 69.6276 17.1799 69.8095 17.1799C70.7926 18.0476 72.0877 19.7342 72.5567 21.6597C72.772 22.529 72.8221 23.4536 72.5917 24.3733C72.7036 24.4188 72.817 24.4724 72.9339 24.4821C74.6563 25.3498 75.2922 26.0063 74.9867 26.9796V26.9097C74.8849 26.9048 74.7865 26.9097 74.6846 26.9097H74.6596C74.9116 26.1509 74.3559 25.5692 72.8821 24.9208C71.355 24.2709 70.135 24.3749 69.9264 25.6764C69.9147 25.7463 69.9063 25.7837 69.898 25.8958C69.7845 25.9331 69.666 25.9819 69.5492 25.9998C68.8315 26.4352 68.4443 27.0868 68.2257 27.9285C68.0087 28.7946 67.9419 29.8069 67.8835 30.9654V30.9703C67.8485 31.513 67.5981 32.3319 67.3511 33.1655C64.8476 34.9074 61.3761 35.6646 58.4237 33.7082C58.2385 33.3946 58.0131 33.1005 57.7528 32.8421C57.6293 32.639 57.4724 32.4571 57.2938 32.2994C57.5976 32.2994 57.8579 32.2523 58.0699 32.1906C58.3119 32.0817 58.4988 31.8851 58.5939 31.6479C58.7742 31.214 58.5939 30.5153 58.0181 29.7581C57.4423 28.9993 56.4643 28.1414 55.034 27.2867C53.9825 26.6383 53.3884 25.873 53.1147 25.0183C52.8393 24.1506 52.876 23.2553 53.0896 22.3454C53.4985 20.6068 54.5467 18.9169 55.2159 17.8558C55.3945 17.7502 55.2777 18.0752 54.535 19.4385C53.8741 20.6588 52.6307 23.4958 54.3314 25.7008C54.3948 24.0938 54.762 22.5079 55.4112 21.0276C56.3525 18.951 58.3202 15.334 58.4754 12.4677C58.5556 12.5262 58.8376 12.6871 58.9578 12.796C59.3216 13.0121 59.592 13.337 59.9425 13.5515C60.2946 13.8781 60.7386 14.0959 61.4045 14.0959C61.4696 14.1007 61.5297 14.1056 61.5898 14.1056C62.2757 14.1056 62.8065 13.8879 63.2521 13.6701C63.7361 13.4524 64.1216 13.1274 64.4871 13.0202H64.4955C65.2749 12.8008 65.8908 12.367 66.2396 11.8828ZM69.888 26.4385C69.9497 27.415 70.4604 28.4615 71.36 28.6759C72.3414 28.8937 73.7534 28.1349 74.3492 27.4329L74.7013 27.4183C75.2271 27.4053 75.6643 27.4345 76.115 27.8521L76.12 27.857C76.4671 28.1804 76.629 28.7198 76.7725 29.2804C76.9144 29.932 77.0296 30.5478 77.4552 31.0125C78.2663 31.8688 78.5317 32.4847 78.5166 32.8649L78.5216 32.8551V32.8844L78.5166 32.8649C78.4916 33.2906 78.2079 33.5084 77.6855 33.8317C76.634 34.4833 74.7714 34.9886 73.5848 36.3828C72.5533 37.5803 71.2966 38.2335 70.1867 38.318C69.0785 38.4041 68.1222 37.993 67.5597 36.8589L67.5514 36.854C67.2009 36.2024 67.3511 35.1885 67.6449 34.1079C67.9386 33.0225 68.3592 31.9225 68.4176 31.0239C68.4794 29.8637 68.5444 28.8547 68.7431 28.0764C68.9433 27.3208 69.2571 26.7813 69.8129 26.4775L69.888 26.4417V26.4385ZM51.8379 26.5181H51.8546C51.943 26.5181 52.0298 26.5262 52.1166 26.5408C52.7441 26.6302 53.2949 27.0819 53.824 27.7628L55.3428 30.4666L55.3478 30.4714C55.7533 31.3375 56.6062 32.2003 57.3322 33.133C58.0565 34.1047 58.6173 34.9707 58.5489 35.6841V35.6938C58.4538 36.9027 57.7494 37.5592 56.6713 37.7964C55.5948 38.0158 54.1344 37.7997 52.6741 37.0425C51.0585 36.1715 49.1391 36.2804 47.9058 36.0643C47.2899 35.957 46.886 35.7377 46.6991 35.4127C46.5138 35.0894 46.5105 34.4362 46.9044 33.4141V33.4092L46.9077 33.4044C47.103 32.8616 46.9578 32.1808 46.8626 31.5861C46.7708 30.9345 46.7241 30.4341 46.9344 30.0587C47.2014 29.516 47.5953 29.4104 48.0843 29.1927C48.5767 28.9733 49.1542 28.8644 49.6131 28.4306H49.6165V28.4257C50.0437 27.9902 50.3592 27.4492 50.7314 27.0641C51.0485 26.7375 51.3656 26.5181 51.8379 26.5181ZM63.7862 11.7739C63.0602 12.1005 62.209 12.6432 61.3027 12.6432C60.3981 12.6432 59.6838 12.2094 59.1681 11.886C58.9094 11.6683 58.7008 11.4506 58.5439 11.3417C58.2702 11.124 58.3035 10.799 58.4204 10.799C58.6023 10.825 58.6357 11.0183 58.7525 11.1256C58.9127 11.2328 59.1113 11.4489 59.355 11.6667C59.8407 11.9916 60.4899 12.4255 61.301 12.4255C62.1105 12.4255 63.0585 11.9916 63.6343 11.6683C63.9597 11.4489 64.377 11.1256 64.7158 10.9095C64.9762 10.6869 64.9645 10.474 65.1814 10.474C65.3967 10.5 65.2382 10.6917 64.9361 11.0151C64.634 11.2344 64.1684 11.5578 63.7862 11.7739ZM61.9803 9.20009V9.16434C61.9703 9.13347 62.002 9.0961 62.0287 9.0831C62.1522 9.01323 62.3291 9.03923 62.4627 9.0896C62.5678 9.0896 62.7297 9.19847 62.713 9.30896C62.703 9.38858 62.5711 9.4162 62.4877 9.4162C62.3959 9.4162 62.3341 9.34633 62.2524 9.30571C62.1656 9.27646 62.0087 9.29271 61.9803 9.20009ZM61.0607 9.20009C61.0273 9.29433 60.8721 9.27971 60.7837 9.30733C60.7052 9.34796 60.6401 9.41782 60.5517 9.41782C60.4665 9.41782 60.333 9.38695 60.323 9.30733C60.308 9.20009 60.4699 9.09122 60.5734 9.09122C60.7086 9.04085 60.8805 9.01485 61.0056 9.0831C61.0373 9.09772 61.0657 9.13185 61.0557 9.16434V9.19847L61.0607 9.20009Z" fill="#7C7F7D"/>
<path d="M0 10.3059L9.83571 8.95079V18.4544H0V10.3059ZM0 27.695L9.83571 29.0501V19.6647H0V27.695ZM10.9183 29.1949L24 31V19.6647H10.9183V29.1949ZM10.9183 8.80594V18.4536H24V7L10.9183 8.80594Z" fill="#7C7F7D"/>
</svg>
